<?xml version="1.0" encoding="utf-8"?>
<!-- Generator: Adobe Illustrator 23.0.2, SVG Export Plug-In . SVG Version: 6.00 Build 0)  -->
<svg version="1.1" id="Calque_1" xmlns="http://www.w3.org/2000/svg" xmlns:xlink="http://www.w3.org/1999/xlink" x="0px" y="0px"
	 viewBox="0 0 4096 2048" style="enable-background:new 0 0 4096 2048;" xml:space="preserve">
<style type="text/css">
	.st0{fill:url(#SVGID_1_);}
	.st1{fill:#DCDCDC;}
	.st2{fill:#333333;}
</style>
<g>
	
		<linearGradient id="SVGID_1_" gradientUnits="userSpaceOnUse" x1="2048" y1="487.5" x2="2048" y2="-1535.5" gradientTransform="matrix(1 0 0 1 0 1548)">
		<stop  offset="0" style="stop-color:#E8E8E8"/>
		<stop  offset="1" style="stop-color:#F9F9F9"/>
	</linearGradient>
	<path class="st0" d="M50,2035.5c-20.7,0-37.5-16.8-37.5-37.5V50c0-20.7,16.8-37.5,37.5-37.5H4046c20.7,0,37.5,16.8,37.5,37.5v1948
		c0,20.7-16.8,37.5-37.5,37.5H50z"/>
	<path class="st1" d="M4046,25c13.8,0,25,11.2,25,25v1948c0,13.8-11.2,25-25,25H50c-13.8,0-25-11.2-25-25V50c0-13.8,11.2-25,25-25
		H4046 M4046,0H50C22.5,0,0,22.5,0,50v1948c0,27.5,22.5,50,50,50H4046c27.5,0,50-22.5,50-50V50C4096,22.5,4073.5,0,4046,0L4046,0z"
		/>
</g>
<path class="st2" d="M1981.9,338.8l-716.5,488.6l486.8,242.1l610.1-599L1981.9,338.8L1981.9,338.8z M2393.1,479.5l-363,370.3
	l382.8,308.8l417.6-525.4L2393.1,479.5L2393.1,479.5z M2008.2,873.9l-218.2,213.2l485.8,242.1l117.2-137.7L2008.2,873.9z"/>
<g>
	<path class="st2" d="M392.3,1767.9c1.9,0,3.6,0.7,4.9,2.2l13.8,15c-7.6,9.4-17,16.7-28.1,21.7c-11.1,5-24.5,7.5-40.1,7.5
		c-14,0-26.5-2.4-37.6-7.2c-11.1-4.8-20.6-11.4-28.5-19.9c-7.9-8.5-13.9-18.6-18.1-30.4c-4.2-11.8-6.3-24.7-6.3-38.6
		c0-14.1,2.3-27.1,7-38.8c4.7-11.7,11.3-21.9,19.8-30.4c8.5-8.5,18.7-15.1,30.5-19.8c11.8-4.7,24.9-7.1,39.2-7.1
		c14,0,26.2,2.2,36.6,6.7c10.4,4.5,19.4,10.4,26.8,17.7l-11.7,16.2c-0.7,1-1.6,2-2.7,2.7c-1.1,0.8-2.6,1.2-4.5,1.2
		c-2,0-4-0.8-6.1-2.3c-2.1-1.6-4.7-3.2-7.9-5.1c-3.2-1.8-7.3-3.5-12.2-5.1c-4.9-1.6-11.1-2.3-18.7-2.3c-8.8,0-17,1.5-24.4,4.6
		c-7.4,3.1-13.8,7.5-19.1,13.2c-5.3,5.7-9.5,12.7-12.5,20.9c-3,8.2-4.5,17.4-4.5,27.6c0,10.6,1.5,20,4.5,28.2
		c3,8.2,7,15.2,12.2,20.8c5.1,5.6,11.1,9.9,18.1,12.9c6.9,3,14.4,4.5,22.4,4.5c4.8,0,9.1-0.3,12.9-0.8c3.9-0.5,7.4-1.3,10.7-2.5
		c3.2-1.1,6.3-2.6,9.2-4.4c2.9-1.8,5.8-4,8.6-6.6c0.9-0.8,1.8-1.4,2.7-1.9C390.1,1768.1,391.2,1767.9,392.3,1767.9z"/>
	<path class="st2" d="M540.1,1812.2h-14.4c-3,0-5.4-0.5-7.2-1.4c-1.7-0.9-3-2.8-3.9-5.5l-2.9-9.5c-3.4,3-6.7,5.7-9.9,8
		c-3.2,2.3-6.6,4.2-10.1,5.8c-3.5,1.6-7.2,2.7-11.1,3.5c-3.9,0.8-8.2,1.2-13,1.2c-5.6,0-10.8-0.8-15.6-2.3
		c-4.8-1.5-8.9-3.8-12.3-6.8c-3.4-3-6.1-6.8-8-11.3c-1.9-4.5-2.9-9.8-2.9-15.8c0-5,1.3-10,4-14.9c2.6-4.9,7-9.3,13.2-13.3
		c6.2-4,14.3-7.2,24.6-9.8c10.2-2.6,22.9-3.9,38.1-3.9v-7.9c0-9-1.9-15.7-5.7-20c-3.8-4.3-9.3-6.5-16.4-6.5c-5.2,0-9.5,0.6-13,1.8
		c-3.5,1.2-6.5,2.6-9,4.1c-2.6,1.5-4.9,2.9-7.1,4.1c-2.2,1.2-4.5,1.8-7.1,1.8c-2.2,0-4-0.6-5.6-1.7c-1.6-1.1-2.8-2.5-3.8-4.2
		l-5.9-10.3c15.3-14,33.8-21.1,55.5-21.1c7.8,0,14.8,1.3,20.9,3.8c6.1,2.6,11.3,6.1,15.5,10.7c4.2,4.6,7.5,10,9.7,16.3
		c2.2,6.3,3.3,13.3,3.3,20.8V1812.2z M477.7,1792.2c3.3,0,6.3-0.3,9.1-0.9c2.8-0.6,5.4-1.5,7.9-2.7s4.9-2.7,7.1-4.4
		c2.3-1.7,4.6-3.8,7-6.2v-22.3c-9.4,0-17.2,0.6-23.5,1.8c-6.3,1.2-11.3,2.7-15.1,4.5c-3.8,1.8-6.5,4-8.1,6.4c-1.6,2.4-2.4,5.1-2.4,8
		c0,5.7,1.7,9.7,5,12.2C468,1791,472.3,1792.2,477.7,1792.2z"/>
	<path class="st2" d="M571.7,1812.2V1619h32.1v74.2c5.2-4.9,10.9-8.9,17.2-12c6.2-3,13.6-4.5,22-4.5c7.3,0,13.7,1.2,19.4,3.7
		c5.6,2.5,10.3,5.9,14.1,10.4c3.8,4.5,6.6,9.8,8.6,16c2,6.2,2.9,13,2.9,20.5v84.9h-32.1v-84.9c0-8.1-1.9-14.5-5.7-18.9
		c-3.8-4.5-9.4-6.7-17-6.7c-5.5,0-10.7,1.3-15.6,3.8c-4.9,2.5-9.4,5.9-13.8,10.3v96.5H571.7z"/>
	<path class="st2" d="M758.5,1640c0,2.8-0.6,5.4-1.7,7.8c-1.1,2.4-2.6,4.5-4.5,6.4c-1.9,1.8-4.1,3.3-6.6,4.4
		c-2.5,1.1-5.2,1.6-8.1,1.6c-2.8,0-5.4-0.5-7.9-1.6c-2.5-1.1-4.6-2.5-6.4-4.4c-1.8-1.8-3.3-3.9-4.4-6.4c-1.1-2.4-1.6-5-1.6-7.8
		c0-2.9,0.5-5.5,1.6-8.1c1.1-2.5,2.5-4.7,4.4-6.5c1.8-1.8,4-3.3,6.4-4.4c2.5-1.1,5.1-1.6,7.9-1.6c2.9,0,5.5,0.5,8.1,1.6
		c2.5,1.1,4.7,2.5,6.6,4.4c1.9,1.8,3.4,4,4.5,6.5C757.9,1634.4,758.5,1637.1,758.5,1640z M753.7,1678.8v133.4h-32.1v-133.4H753.7z"
		/>
	<path class="st2" d="M845.1,1676.7c8.4,0,16.1,1.3,23.2,4c7.1,2.7,13.2,6.6,18.3,11.8c5.1,5.2,9.1,11.5,12,19
		c2.9,7.5,4.3,16.1,4.3,25.7c0,2.4-0.1,4.4-0.3,6c-0.2,1.6-0.6,2.9-1.2,3.8c-0.6,0.9-1.3,1.6-2.3,2c-1,0.4-2.2,0.6-3.6,0.6H813
		c1,13.7,4.6,23.7,11,30.2c6.4,6.4,14.9,9.6,25.5,9.6c5.2,0,9.7-0.6,13.5-1.8c3.8-1.2,7.1-2.6,9.9-4c2.8-1.5,5.3-2.8,7.4-4
		c2.1-1.2,4.2-1.8,6.2-1.8c1.3,0,2.4,0.3,3.4,0.8c1,0.5,1.8,1.3,2.5,2.2l9.4,11.7c-3.6,4.2-7.5,7.6-12,10.5c-4.4,2.8-9,5.1-13.8,6.8
		c-4.8,1.7-9.7,2.9-14.7,3.6c-5,0.7-9.8,1-14.5,1c-9.3,0-17.9-1.5-25.9-4.6c-8-3.1-14.9-7.6-20.8-13.7c-5.9-6-10.5-13.5-13.9-22.4
		c-3.4-8.9-5.1-19.2-5.1-30.9c0-9.1,1.5-17.7,4.4-25.7c2.9-8,7.2-15,12.7-20.9c5.5-5.9,12.2-10.6,20.1-14.1
		C826.2,1678.5,835.1,1676.7,845.1,1676.7z M845.7,1699.7c-9.4,0-16.7,2.6-22,7.9c-5.3,5.3-8.7,12.8-10.1,22.5h60.3
		c0-4.2-0.6-8.1-1.7-11.8c-1.1-3.7-2.9-6.9-5.2-9.7c-2.3-2.8-5.3-5-8.8-6.6C854.6,1700.6,850.5,1699.7,845.7,1699.7z"/>
	<path class="st2" d="M928.9,1812.2v-133.4h18.8c3.3,0,5.6,0.6,6.9,1.8c1.3,1.2,2.2,3.3,2.6,6.2l2,16.1c4.8-8.2,10.4-14.7,16.8-19.5
		c6.4-4.8,13.6-7.1,21.6-7.1c6.6,0,12,1.5,16.4,4.5l-4.2,24c-0.3,1.6-0.8,2.7-1.7,3.3c-0.9,0.6-2,1-3.5,1c-1.3,0-3.1-0.3-5.3-0.9
		c-2.3-0.6-5.2-0.9-9-0.9c-6.7,0-12.4,1.8-17.2,5.5c-4.8,3.7-8.8,9.1-12.1,16.2v83.1H928.9z"/>
	<path class="st2" d="M1179.2,1812.2c-4.2,0-6.9-2-8.2-5.8l-2.6-12.9c-2.8,3.1-5.7,5.9-8.7,8.5c-3,2.5-6.3,4.7-9.8,6.5
		c-3.5,1.8-7.3,3.2-11.3,4.2c-4,1-8.4,1.5-13.1,1.5c-7.3,0-14-1.5-20-4.5c-6.1-3-11.3-7.4-15.7-13.2c-4.4-5.8-7.8-12.9-10.1-21.4
		c-2.4-8.5-3.6-18.2-3.6-29.1c0-9.9,1.3-19.1,4-27.6c2.7-8.5,6.5-15.9,11.6-22.1c5-6.2,11-11.1,18.1-14.6c7-3.5,14.9-5.3,23.7-5.3
		c7.5,0,13.8,1.2,19.1,3.6c5.3,2.4,10,5.6,14.2,9.6V1619h32.1v193.2H1179.2z M1136.4,1788.7c6.7,0,12.3-1.4,17-4.2
		c4.7-2.8,9.1-6.7,13.3-11.8v-59.8c-3.6-4.4-7.6-7.5-11.9-9.4c-4.3-1.8-8.9-2.7-13.8-2.7c-4.9,0-9.3,0.9-13.2,2.7
		c-3.9,1.8-7.3,4.6-10,8.3c-2.7,3.7-4.8,8.4-6.3,14c-1.5,5.7-2.2,12.4-2.2,20.1c0,7.8,0.6,14.4,1.9,19.8c1.3,5.4,3.1,9.8,5.4,13.3
		c2.3,3.4,5.2,5.9,8.6,7.4C1128.5,1787.9,1132.2,1788.7,1136.4,1788.7z"/>
	<path class="st2" d="M1288.6,1676.7c8.4,0,16.1,1.3,23.2,4c7.1,2.7,13.2,6.6,18.3,11.8c5.1,5.2,9.1,11.5,12,19
		c2.9,7.5,4.3,16.1,4.3,25.7c0,2.4-0.1,4.4-0.3,6c-0.2,1.6-0.6,2.9-1.2,3.8c-0.6,0.9-1.3,1.6-2.3,2c-1,0.4-2.2,0.6-3.6,0.6h-82.4
		c1,13.7,4.6,23.7,11,30.2c6.4,6.4,14.9,9.6,25.5,9.6c5.2,0,9.7-0.6,13.5-1.8c3.8-1.2,7.1-2.6,9.9-4c2.8-1.5,5.3-2.8,7.4-4
		c2.1-1.2,4.2-1.8,6.2-1.8c1.3,0,2.4,0.3,3.4,0.8c1,0.5,1.8,1.3,2.5,2.2l9.4,11.7c-3.6,4.2-7.5,7.6-12,10.5c-4.4,2.8-9,5.1-13.8,6.8
		c-4.8,1.7-9.7,2.9-14.7,3.6c-5,0.7-9.8,1-14.5,1c-9.3,0-17.9-1.5-25.9-4.6c-8-3.1-14.9-7.6-20.8-13.7c-5.9-6-10.5-13.5-13.9-22.4
		c-3.4-8.9-5.1-19.2-5.1-30.9c0-9.1,1.5-17.7,4.4-25.7c2.9-8,7.2-15,12.7-20.9c5.5-5.9,12.2-10.6,20.1-14.1
		C1269.7,1678.5,1278.7,1676.7,1288.6,1676.7z M1289.3,1699.7c-9.4,0-16.7,2.6-22,7.9c-5.3,5.3-8.7,12.8-10.1,22.5h60.3
		c0-4.2-0.6-8.1-1.7-11.8c-1.1-3.7-2.9-6.9-5.2-9.7c-2.3-2.8-5.3-5-8.8-6.6C1298.2,1700.6,1294,1699.7,1289.3,1699.7z"/>
	<path class="st2" d="M1466.5,1814.3c-11.5,0-20.4-3.3-26.6-9.8c-6.2-6.5-9.4-15.6-9.4-27.1v-74.5h-13.5c-1.7,0-3.2-0.6-4.5-1.7
		c-1.3-1.1-1.9-2.8-1.9-5.1v-12.7l21.4-3.5l6.8-36.4c0.3-1.7,1.1-3.1,2.4-4c1.3-1,2.8-1.4,4.7-1.4h16.6v42h35.1v22.9h-35.1v72.3
		c0,4.2,1,7.4,3.1,9.8c2.1,2.3,4.9,3.5,8.3,3.5c2,0,3.7-0.2,5-0.7c1.3-0.5,2.5-1,3.5-1.5c1-0.5,1.9-1,2.7-1.5
		c0.8-0.5,1.6-0.7,2.3-0.7c1,0,1.7,0.2,2.3,0.7c0.6,0.5,1.3,1.2,2,2.1l9.6,15.6c-4.7,3.9-10.1,6.8-16.1,8.8
		C1479.2,1813.3,1473,1814.3,1466.5,1814.3z"/>
	<path class="st2" d="M1523.3,1812.2v-133.4h18.8c3.3,0,5.6,0.6,6.9,1.8c1.3,1.2,2.2,3.3,2.6,6.2l2,16.1
		c4.8-8.2,10.4-14.7,16.8-19.5c6.4-4.8,13.6-7.1,21.6-7.1c6.6,0,12,1.5,16.4,4.5l-4.2,24c-0.3,1.6-0.8,2.7-1.7,3.3
		c-0.9,0.6-2,1-3.5,1c-1.3,0-3.1-0.3-5.3-0.9c-2.3-0.6-5.2-0.9-9-0.9c-6.7,0-12.4,1.8-17.2,5.5c-4.8,3.7-8.8,9.1-12.1,16.2v83.1
		H1523.3z"/>
	<path class="st2" d="M1730.2,1812.2h-14.4c-3,0-5.4-0.5-7.2-1.4c-1.7-0.9-3-2.8-3.9-5.5l-2.9-9.5c-3.4,3-6.7,5.7-9.9,8
		c-3.2,2.3-6.6,4.2-10.1,5.8c-3.5,1.6-7.2,2.7-11.1,3.5c-3.9,0.8-8.2,1.2-13,1.2c-5.6,0-10.8-0.8-15.6-2.3
		c-4.8-1.5-8.9-3.8-12.3-6.8c-3.4-3-6.1-6.8-8-11.3c-1.9-4.5-2.9-9.8-2.9-15.8c0-5,1.3-10,4-14.9c2.6-4.9,7-9.3,13.2-13.3
		c6.2-4,14.3-7.2,24.6-9.8c10.2-2.6,22.9-3.9,38.1-3.9v-7.9c0-9-1.9-15.7-5.7-20c-3.8-4.3-9.3-6.5-16.4-6.5c-5.2,0-9.5,0.6-13,1.8
		c-3.5,1.2-6.5,2.6-9,4.1c-2.6,1.5-4.9,2.9-7.1,4.1c-2.2,1.2-4.5,1.8-7.1,1.8c-2.2,0-4-0.6-5.6-1.7c-1.6-1.1-2.8-2.5-3.8-4.2
		l-5.9-10.3c15.3-14,33.8-21.1,55.5-21.1c7.8,0,14.8,1.3,20.9,3.8c6.1,2.6,11.3,6.1,15.5,10.7c4.2,4.6,7.5,10,9.7,16.3
		c2.2,6.3,3.3,13.3,3.3,20.8V1812.2z M1667.8,1792.2c3.3,0,6.3-0.3,9.1-0.9c2.8-0.6,5.4-1.5,7.9-2.7s4.9-2.7,7.1-4.4
		c2.3-1.7,4.6-3.8,7-6.2v-22.3c-9.4,0-17.2,0.6-23.5,1.8c-6.3,1.2-11.3,2.7-15.1,4.5c-3.8,1.8-6.5,4-8.1,6.4c-1.6,2.4-2.4,5.1-2.4,8
		c0,5.7,1.7,9.7,5,12.2C1658.1,1791,1662.4,1792.2,1667.8,1792.2z"/>
	<path class="st2" d="M1797.3,1841.7c0.6,0,1.2,0.1,1.9,0.3c0.6,0.2,1.4,0.4,2.2,0.7c0.8,0.3,1.7,0.5,2.7,0.7c1,0.2,2.2,0.3,3.6,0.3
		c2.9,0,5-0.5,6.4-1.6c1.4-1.1,2.1-2.4,2.1-4c0-2.5-1.6-4.3-4.7-5.4c-3.1-1.1-7.9-2.1-14.4-2.9l4.9-16.4c-6.9-1.2-13.4-3.6-19.4-7.2
		c-6-3.6-11.2-8.3-15.7-14c-4.4-5.8-7.9-12.6-10.4-20.4c-2.5-7.8-3.8-16.6-3.8-26.3c0-9.8,1.4-18.9,4.2-27.2
		c2.8-8.4,7-15.6,12.4-21.7c5.5-6.1,12.2-10.9,20.3-14.4c8.1-3.5,17.3-5.2,27.8-5.2c10,0,18.7,1.6,26.2,4.8
		c7.5,3.2,14.2,7.8,20.2,13.8l-8.5,11.7c-1,1.2-1.9,2.2-2.8,2.9c-0.9,0.7-2.2,1-4,1c-1.6,0-3.2-0.5-4.8-1.5c-1.6-1-3.4-2.1-5.6-3.4
		c-2.2-1.3-4.7-2.4-7.7-3.4c-3-1-6.7-1.5-11.1-1.5c-5.6,0-10.6,1-14.8,3.1c-4.2,2-7.8,5-10.6,8.8c-2.8,3.8-4.9,8.4-6.3,13.8
		c-1.4,5.4-2.1,11.5-2.1,18.4c0,7.1,0.8,13.4,2.3,19c1.5,5.5,3.7,10.2,6.6,14c2.9,3.8,6.3,6.6,10.4,8.6c4.1,2,8.7,2.9,13.8,2.9
		c5.1,0,9.3-0.6,12.4-1.9c3.2-1.3,5.8-2.6,8-4.2c2.2-1.5,4.1-2.9,5.7-4.2c1.6-1.3,3.4-1.9,5.4-1.9c2.3,0,4.3,1,5.9,3l9.2,11.7
		c-6,7-12.7,12.2-20.1,15.4c-7.5,3.2-15.2,5.2-23.1,5.9l-1.6,5.7c7.7,1.9,13.1,4.5,16.2,7.7s4.7,7.1,4.7,11.5c0,2.9-0.8,5.5-2.3,7.8
		c-1.5,2.3-3.7,4.3-6.4,6c-2.8,1.6-6.1,2.9-10,3.8s-8.2,1.4-12.9,1.4c-3.6,0-6.9-0.3-9.9-0.8c-3.1-0.5-6.1-1.3-9.2-2.2l3-9.9
		C1794.2,1842.7,1795.4,1841.7,1797.3,1841.7z"/>
	<path class="st2" d="M1990.3,1812.2h-14.4c-3,0-5.4-0.5-7.2-1.4c-1.7-0.9-3-2.8-3.9-5.5l-2.9-9.5c-3.4,3-6.7,5.7-9.9,8
		c-3.2,2.3-6.6,4.2-10.1,5.8c-3.5,1.6-7.2,2.7-11.1,3.5c-3.9,0.8-8.2,1.2-13,1.2c-5.6,0-10.8-0.8-15.6-2.3
		c-4.8-1.5-8.9-3.8-12.3-6.8c-3.4-3-6.1-6.8-8-11.3c-1.9-4.5-2.9-9.8-2.9-15.8c0-5,1.3-10,4-14.9c2.6-4.9,7-9.3,13.2-13.3
		c6.2-4,14.3-7.2,24.6-9.8c10.2-2.6,22.9-3.9,38.1-3.9v-7.9c0-9-1.9-15.7-5.7-20c-3.8-4.3-9.3-6.5-16.4-6.5c-5.2,0-9.5,0.6-13,1.8
		c-3.5,1.2-6.5,2.6-9,4.1c-2.6,1.5-4.9,2.9-7.1,4.1c-2.2,1.2-4.5,1.8-7.1,1.8c-2.2,0-4-0.6-5.6-1.7c-1.6-1.1-2.8-2.5-3.8-4.2
		l-5.9-10.3c15.3-14,33.8-21.1,55.5-21.1c7.8,0,14.8,1.3,20.9,3.8c6.1,2.6,11.3,6.1,15.5,10.7c4.2,4.6,7.5,10,9.7,16.3
		c2.2,6.3,3.3,13.3,3.3,20.8V1812.2z M1927.9,1792.2c3.3,0,6.3-0.3,9.1-0.9c2.8-0.6,5.4-1.5,7.9-2.7s4.9-2.7,7.1-4.4
		c2.3-1.7,4.6-3.8,7-6.2v-22.3c-9.4,0-17.2,0.6-23.5,1.8c-6.3,1.2-11.3,2.7-15.1,4.5c-3.8,1.8-6.5,4-8.1,6.4c-1.6,2.4-2.4,5.1-2.4,8
		c0,5.7,1.7,9.7,5,12.2C1918.2,1791,1922.6,1792.2,1927.9,1792.2z"/>
	<path class="st2" d="M2022.3,1812.2V1619h32.1v76.2c5.3-5.6,11.3-10.1,17.9-13.5c6.7-3.3,14.5-5,23.4-5c7.3,0,13.9,1.5,20,4.5
		c6,3,11.2,7.3,15.6,13.1c4.4,5.7,7.8,12.8,10.1,21.2c2.4,8.4,3.6,18.1,3.6,29c0,10-1.3,19.2-4,27.7c-2.7,8.5-6.5,15.9-11.5,22.1
		c-5,6.2-11,11.1-18.1,14.6c-7.1,3.5-15,5.3-23.7,5.3c-4.1,0-7.8-0.4-11.2-1.2c-3.4-0.8-6.5-2-9.2-3.4c-2.8-1.5-5.4-3.3-7.7-5.4
		c-2.4-2.1-4.7-4.5-6.8-7.1l-1.4,9c-0.5,2.3-1.4,3.9-2.7,4.8c-1.3,1-3,1.4-5.1,1.4H2022.3z M2084.7,1701.7c-6.7,0-12.4,1.4-17.1,4.2
		c-4.7,2.8-9.1,6.8-13.2,11.9v59.8c3.6,4.5,7.6,7.6,11.9,9.4c4.3,1.8,8.9,2.7,14,2.7c4.9,0,9.2-0.9,13.1-2.7
		c3.9-1.8,7.2-4.6,9.9-8.3c2.7-3.7,4.8-8.4,6.3-14.1c1.5-5.7,2.2-12.4,2.2-20.1c0-7.8-0.6-14.4-1.9-19.8c-1.3-5.4-3.1-9.8-5.4-13.2
		s-5.2-5.8-8.5-7.4C2092.8,1702.5,2089,1701.7,2084.7,1701.7z"/>
	<path class="st2" d="M2209.1,1640c0,2.8-0.6,5.4-1.7,7.8c-1.1,2.4-2.6,4.5-4.5,6.4c-1.9,1.8-4.1,3.3-6.6,4.4
		c-2.5,1.1-5.2,1.6-8.1,1.6c-2.8,0-5.4-0.5-7.9-1.6c-2.5-1.1-4.6-2.5-6.4-4.4c-1.8-1.8-3.3-3.9-4.4-6.4c-1.1-2.4-1.6-5-1.6-7.8
		c0-2.9,0.5-5.5,1.6-8.1c1.1-2.5,2.5-4.7,4.4-6.5c1.8-1.8,4-3.3,6.4-4.4c2.5-1.1,5.1-1.6,7.9-1.6c2.9,0,5.5,0.5,8.1,1.6
		c2.5,1.1,4.7,2.5,6.6,4.4c1.9,1.8,3.4,4,4.5,6.5C2208.6,1634.4,2209.1,1637.1,2209.1,1640z M2204.3,1678.8v133.4h-32.1v-133.4
		H2204.3z"/>
	<path class="st2" d="M2274.8,1619v193.2h-32.1V1619H2274.8z"/>
	<path class="st2" d="M2350.1,1640c0,2.8-0.6,5.4-1.7,7.8c-1.1,2.4-2.6,4.5-4.5,6.4c-1.9,1.8-4.1,3.3-6.6,4.4
		c-2.5,1.1-5.2,1.6-8.1,1.6c-2.8,0-5.4-0.5-7.9-1.6c-2.5-1.1-4.6-2.5-6.4-4.4c-1.8-1.8-3.3-3.9-4.4-6.4c-1.1-2.4-1.6-5-1.6-7.8
		c0-2.9,0.5-5.5,1.6-8.1c1.1-2.5,2.5-4.7,4.4-6.5c1.8-1.8,4-3.3,6.4-4.4c2.5-1.1,5.1-1.6,7.9-1.6c2.9,0,5.5,0.5,8.1,1.6
		c2.5,1.1,4.7,2.5,6.6,4.4c1.9,1.8,3.4,4,4.5,6.5C2349.5,1634.4,2350.1,1637.1,2350.1,1640z M2345.2,1678.8v133.4h-32.1v-133.4
		H2345.2z"/>
	<path class="st2" d="M2425.3,1814.3c-11.5,0-20.4-3.3-26.6-9.8c-6.2-6.5-9.4-15.6-9.4-27.1v-74.5h-13.5c-1.7,0-3.2-0.6-4.5-1.7
		c-1.3-1.1-1.9-2.8-1.9-5.1v-12.7l21.4-3.5l6.8-36.4c0.3-1.7,1.1-3.1,2.4-4c1.3-1,2.8-1.4,4.7-1.4h16.6v42h35.1v22.9h-35.1v72.3
		c0,4.2,1,7.4,3.1,9.8c2.1,2.3,4.9,3.5,8.3,3.5c2,0,3.7-0.2,5-0.7c1.3-0.5,2.5-1,3.5-1.5c1-0.5,1.9-1,2.7-1.5
		c0.8-0.5,1.6-0.7,2.3-0.7c1,0,1.7,0.2,2.3,0.7c0.6,0.5,1.3,1.2,2,2.1l9.6,15.6c-4.7,3.9-10.1,6.8-16.1,8.8
		C2438.1,1813.3,2431.8,1814.3,2425.3,1814.3z"/>
	<path class="st2" d="M2537.2,1676.7c8.4,0,16.1,1.3,23.2,4c7.1,2.7,13.2,6.6,18.3,11.8c5.1,5.2,9.1,11.5,12,19
		c2.9,7.5,4.3,16.1,4.3,25.7c0,2.4-0.1,4.4-0.3,6c-0.2,1.6-0.6,2.9-1.2,3.8c-0.6,0.9-1.3,1.6-2.3,2c-1,0.4-2.2,0.6-3.6,0.6h-82.4
		c1,13.7,4.6,23.7,11,30.2c6.4,6.4,14.9,9.6,25.5,9.6c5.2,0,9.7-0.6,13.5-1.8c3.8-1.2,7.1-2.6,9.9-4c2.8-1.5,5.3-2.8,7.4-4
		c2.1-1.2,4.2-1.8,6.2-1.8c1.3,0,2.4,0.3,3.4,0.8c1,0.5,1.8,1.3,2.5,2.2l9.4,11.7c-3.6,4.2-7.5,7.6-12,10.5c-4.4,2.8-9,5.1-13.8,6.8
		c-4.8,1.7-9.7,2.9-14.7,3.6c-5,0.7-9.8,1-14.5,1c-9.3,0-17.9-1.5-25.9-4.6c-8-3.1-14.9-7.6-20.8-13.7c-5.9-6-10.5-13.5-13.9-22.4
		c-3.4-8.9-5.1-19.2-5.1-30.9c0-9.1,1.5-17.7,4.4-25.7c2.9-8,7.2-15,12.7-20.9c5.5-5.9,12.2-10.6,20.1-14.1
		C2518.3,1678.5,2527.3,1676.7,2537.2,1676.7z M2537.9,1699.7c-9.4,0-16.7,2.6-22,7.9c-5.3,5.3-8.7,12.8-10.1,22.5h60.3
		c0-4.2-0.6-8.1-1.7-11.8c-1.1-3.7-2.9-6.9-5.2-9.7c-2.3-2.8-5.3-5-8.8-6.6C2546.8,1700.6,2542.7,1699.7,2537.9,1699.7z
		 M2583,1622.1l-32.1,33.9c-1.6,1.7-3.2,2.9-4.7,3.6c-1.5,0.6-3.5,1-5.9,1H2521l18.5-31.6c1.3-2.3,2.8-4,4.5-5.1
		c1.7-1.2,4.3-1.8,7.8-1.8H2583z"/>
	<path class="st2" d="M2667.1,1720.3h67.3v26.8h-67.3V1720.3z"/>
	<path class="st2" d="M2852.8,1746v66.2h-35v-188h61.2c12.6,0,23.4,1.5,32.6,4.4c9.2,2.9,16.8,7.1,22.8,12.3
		c6,5.3,10.4,11.6,13.3,19c2.9,7.4,4.3,15.4,4.3,24.2c0,9.1-1.5,17.4-4.5,25c-3,7.6-7.6,14.1-13.6,19.6c-6.1,5.5-13.7,9.7-22.8,12.7
		c-9.1,3-19.8,4.5-32,4.5H2852.8z M2852.8,1718.7h26.3c6.4,0,12-0.8,16.8-2.4c4.8-1.6,8.7-3.9,11.8-6.9c3.1-3,5.5-6.6,7-10.9
		s2.3-9.1,2.3-14.4c0-5-0.8-9.6-2.3-13.7c-1.6-4.1-3.9-7.5-7-10.4c-3.1-2.9-7.1-5-11.8-6.6c-4.8-1.5-10.4-2.3-16.8-2.3h-26.3V1718.7
		z"/>
	<path class="st2" d="M3075.3,1812.2h-14.4c-3,0-5.4-0.5-7.2-1.4c-1.7-0.9-3-2.8-3.9-5.5l-2.9-9.5c-3.4,3-6.7,5.7-9.9,8
		c-3.2,2.3-6.6,4.2-10.1,5.8c-3.5,1.6-7.2,2.7-11.1,3.5c-3.9,0.8-8.2,1.2-13,1.2c-5.6,0-10.8-0.8-15.6-2.3
		c-4.8-1.5-8.9-3.8-12.3-6.8c-3.4-3-6.1-6.8-8-11.3c-1.9-4.5-2.9-9.8-2.9-15.8c0-5,1.3-10,4-14.9c2.6-4.9,7-9.3,13.2-13.3
		c6.2-4,14.3-7.2,24.6-9.8c10.2-2.6,22.9-3.9,38.1-3.9v-7.9c0-9-1.9-15.7-5.7-20c-3.8-4.3-9.3-6.5-16.4-6.5c-5.2,0-9.5,0.6-13,1.8
		c-3.5,1.2-6.5,2.6-9,4.1c-2.6,1.5-4.9,2.9-7.1,4.1c-2.2,1.2-4.5,1.8-7.1,1.8c-2.2,0-4-0.6-5.6-1.7c-1.6-1.1-2.8-2.5-3.8-4.2
		l-5.9-10.3c15.3-14,33.8-21.1,55.5-21.1c7.8,0,14.8,1.3,20.9,3.8c6.1,2.6,11.3,6.1,15.5,10.7c4.2,4.6,7.5,10,9.7,16.3
		c2.2,6.3,3.3,13.3,3.3,20.8V1812.2z M3012.9,1792.2c3.3,0,6.3-0.3,9.1-0.9c2.8-0.6,5.4-1.5,7.9-2.7s4.9-2.7,7.1-4.4
		c2.3-1.7,4.6-3.8,7-6.2v-22.3c-9.4,0-17.2,0.6-23.5,1.8c-6.3,1.2-11.3,2.7-15.1,4.5c-3.8,1.8-6.5,4-8.1,6.4c-1.6,2.4-2.4,5.1-2.4,8
		c0,5.7,1.7,9.7,5,12.2C3003.2,1791,3007.5,1792.2,3012.9,1792.2z"/>
	<path class="st2" d="M3106.9,1812.2v-133.4h18.8c3.3,0,5.6,0.6,6.9,1.8c1.3,1.2,2.2,3.3,2.6,6.2l2,16.1
		c4.8-8.2,10.4-14.7,16.8-19.5c6.4-4.8,13.6-7.1,21.6-7.1c6.6,0,12,1.5,16.4,4.5l-4.2,24c-0.3,1.6-0.8,2.7-1.7,3.3
		c-0.9,0.6-2,1-3.5,1c-1.3,0-3.1-0.3-5.3-0.9c-2.3-0.6-5.2-0.9-9-0.9c-6.7,0-12.4,1.8-17.2,5.5c-4.8,3.7-8.8,9.1-12.1,16.2v83.1
		H3106.9z"/>
	<path class="st2" d="M3306.8,1707c-1,1.2-1.9,2.2-2.8,2.9c-0.9,0.7-2.2,1-4,1c-1.6,0-3.2-0.5-4.8-1.5c-1.6-1-3.4-2.1-5.6-3.4
		c-2.2-1.3-4.7-2.4-7.7-3.4c-3-1-6.7-1.5-11.1-1.5c-5.6,0-10.6,1-14.8,3.1c-4.2,2-7.8,5-10.6,8.8c-2.8,3.8-4.9,8.4-6.3,13.8
		c-1.4,5.4-2.1,11.5-2.1,18.4c0,7.1,0.8,13.4,2.3,19c1.5,5.5,3.7,10.2,6.6,14c2.9,3.8,6.3,6.6,10.4,8.6c4.1,2,8.7,2.9,13.8,2.9
		c5.1,0,9.3-0.6,12.4-1.9c3.2-1.3,5.8-2.6,8-4.2c2.2-1.5,4.1-2.9,5.7-4.2c1.6-1.3,3.4-1.9,5.4-1.9c2.6,0,4.6,1,5.9,3l9.2,11.7
		c-3.6,4.2-7.4,7.6-11.6,10.5c-4.2,2.8-8.5,5.1-12.9,6.8c-4.5,1.7-9.1,2.9-13.8,3.6c-4.8,0.7-9.5,1-14.2,1c-8.2,0-16-1.5-23.3-4.6
		c-7.3-3.1-13.6-7.6-19-13.5c-5.4-5.9-9.7-13.1-12.9-21.6c-3.2-8.5-4.7-18.3-4.7-29.2c0-9.8,1.4-18.9,4.2-27.2
		c2.8-8.4,7-15.6,12.4-21.7c5.5-6.1,12.2-10.9,20.3-14.4c8.1-3.5,17.3-5.2,27.8-5.2c10,0,18.7,1.6,26.2,4.8
		c7.5,3.2,14.2,7.8,20.2,13.8L3306.8,1707z"/>
	<path class="st2" d="M3392.2,1676.7c8.4,0,16.1,1.3,23.2,4c7.1,2.7,13.2,6.6,18.3,11.8c5.1,5.2,9.1,11.5,12,19
		c2.9,7.5,4.3,16.1,4.3,25.7c0,2.4-0.1,4.4-0.3,6c-0.2,1.6-0.6,2.9-1.2,3.8c-0.6,0.9-1.3,1.6-2.3,2c-1,0.4-2.2,0.6-3.6,0.6h-82.4
		c1,13.7,4.6,23.7,11,30.2c6.4,6.4,14.9,9.6,25.5,9.6c5.2,0,9.7-0.6,13.5-1.8c3.8-1.2,7.1-2.6,9.9-4c2.8-1.5,5.3-2.8,7.4-4
		c2.1-1.2,4.2-1.8,6.2-1.8c1.3,0,2.4,0.3,3.4,0.8c1,0.5,1.8,1.3,2.5,2.2l9.4,11.7c-3.6,4.2-7.5,7.6-12,10.5c-4.4,2.8-9,5.1-13.8,6.8
		c-4.8,1.7-9.7,2.9-14.7,3.6c-5,0.7-9.8,1-14.5,1c-9.3,0-17.9-1.5-25.9-4.6c-8-3.1-14.9-7.6-20.8-13.7c-5.9-6-10.5-13.5-13.9-22.4
		c-3.4-8.9-5.1-19.2-5.1-30.9c0-9.1,1.5-17.7,4.4-25.7c2.9-8,7.2-15,12.7-20.9c5.5-5.9,12.2-10.6,20.1-14.1
		C3373.3,1678.5,3382.3,1676.7,3392.2,1676.7z M3392.9,1699.7c-9.4,0-16.7,2.6-22,7.9c-5.3,5.3-8.7,12.8-10.1,22.5h60.3
		c0-4.2-0.6-8.1-1.7-11.8c-1.1-3.7-2.9-6.9-5.2-9.7c-2.3-2.8-5.3-5-8.8-6.6C3401.8,1700.6,3397.7,1699.7,3392.9,1699.7z"/>
	<path class="st2" d="M3510.3,1619v193.2h-32.1V1619H3510.3z"/>
	<path class="st2" d="M3580.7,1619v193.2h-32.1V1619H3580.7z"/>
	<path class="st2" d="M3672.1,1676.7c8.4,0,16.1,1.3,23.2,4c7.1,2.7,13.2,6.6,18.3,11.8c5.1,5.2,9.1,11.5,12,19
		c2.9,7.5,4.3,16.1,4.3,25.7c0,2.4-0.1,4.4-0.3,6c-0.2,1.6-0.6,2.9-1.2,3.8c-0.6,0.9-1.3,1.6-2.3,2c-1,0.4-2.2,0.6-3.6,0.6H3640
		c1,13.7,4.6,23.7,11,30.2c6.4,6.4,14.9,9.6,25.5,9.6c5.2,0,9.7-0.6,13.5-1.8c3.8-1.2,7.1-2.6,9.9-4c2.8-1.5,5.3-2.8,7.4-4
		c2.1-1.2,4.2-1.8,6.2-1.8c1.3,0,2.4,0.3,3.4,0.8c1,0.5,1.8,1.3,2.5,2.2l9.4,11.7c-3.6,4.2-7.5,7.6-12,10.5c-4.4,2.8-9,5.1-13.8,6.8
		c-4.8,1.7-9.7,2.9-14.7,3.6c-5,0.7-9.8,1-14.5,1c-9.3,0-17.9-1.5-25.9-4.6c-8-3.1-14.9-7.6-20.8-13.7c-5.9-6-10.5-13.5-13.9-22.4
		c-3.4-8.9-5.1-19.2-5.1-30.9c0-9.1,1.5-17.7,4.4-25.7c2.9-8,7.2-15,12.7-20.9c5.5-5.9,12.2-10.6,20.1-14.1
		C3653.2,1678.5,3662.2,1676.7,3672.1,1676.7z M3672.8,1699.7c-9.4,0-16.7,2.6-22,7.9c-5.3,5.3-8.7,12.8-10.1,22.5h60.3
		c0-4.2-0.6-8.1-1.7-11.8c-1.1-3.7-2.9-6.9-5.2-9.7c-2.3-2.8-5.3-5-8.8-6.6C3681.7,1700.6,3677.5,1699.7,3672.8,1699.7z"/>
	<path class="st2" d="M3835.1,1704.8c-0.9,1.4-1.8,2.4-2.7,2.9c-1,0.6-2.2,0.8-3.6,0.8c-1.6,0-3.2-0.4-5-1.3
		c-1.8-0.9-3.8-1.8-6.2-2.9c-2.3-1.1-5-2.1-8-2.9c-3-0.9-6.5-1.3-10.6-1.3c-6.3,0-11.3,1.3-15,4c-3.6,2.7-5.5,6.2-5.5,10.5
		c0,2.9,0.9,5.3,2.8,7.2c1.9,2,4.3,3.7,7.4,5.1c3.1,1.5,6.6,2.8,10.5,4c3.9,1.2,7.9,2.4,12,3.8c4.1,1.4,8.1,3,12,4.7
		c3.9,1.8,7.4,4,10.5,6.8c3.1,2.7,5.5,6,7.4,9.8c1.9,3.8,2.8,8.4,2.8,13.8c0,6.4-1.2,12.3-3.5,17.7c-2.3,5.4-5.8,10.1-10.3,14
		c-4.5,3.9-10.1,7-16.7,9.2s-14.2,3.3-22.8,3.3c-4.6,0-9.1-0.4-13.5-1.2c-4.4-0.8-8.6-2-12.6-3.4c-4-1.5-7.8-3.2-11.2-5.2
		c-3.4-2-6.4-4.2-9-6.5l7.4-12.2c1-1.5,2.1-2.6,3.4-3.4c1.3-0.8,2.9-1.2,4.9-1.2c2,0,3.9,0.6,5.7,1.7c1.8,1.1,3.8,2.3,6.2,3.6
		c2.3,1.3,5.1,2.5,8.3,3.6c3.2,1.1,7.2,1.7,12,1.7c3.8,0,7.1-0.5,9.8-1.4c2.7-0.9,5-2.1,6.8-3.6c1.8-1.5,3.1-3.2,3.9-5.1
		c0.8-1.9,1.2-4,1.2-6c0-3.1-0.9-5.7-2.8-7.7c-1.9-2-4.3-3.7-7.4-5.2c-3.1-1.5-6.6-2.8-10.5-4c-3.9-1.2-8-2.4-12.1-3.8
		c-4.1-1.4-8.1-3-12.1-4.9c-3.9-1.9-7.5-4.2-10.5-7.1c-3.1-2.9-5.5-6.4-7.4-10.5c-1.9-4.2-2.8-9.2-2.8-15.1c0-5.5,1.1-10.7,3.2-15.6
		c2.2-4.9,5.3-9.2,9.6-12.9c4.2-3.7,9.4-6.6,15.7-8.8c6.3-2.2,13.5-3.3,21.8-3.3c9.2,0,17.5,1.5,25.1,4.5c7.5,3,13.8,7,18.9,12
		L3835.1,1704.8z"/>
</g>
</svg>
