<?xml version="1.0" encoding="utf-8"?>
<!-- Generator: Adobe Illustrator 24.0.2, SVG Export Plug-In . SVG Version: 6.00 Build 0)  -->
<svg version="1.1" id="Calque_1" xmlns="http://www.w3.org/2000/svg" xmlns:xlink="http://www.w3.org/1999/xlink" x="0px" y="0px"
	 viewBox="0 0 2048 2048" style="enable-background:new 0 0 2048 2048;" xml:space="preserve">
<style type="text/css">
	.st0{fill:url(#SVGID_1_);}
	.st1{fill:#999999;}
	.st2{fill:#333333;}
</style>
<g>
	
		<linearGradient id="SVGID_1_" gradientUnits="userSpaceOnUse" x1="1024" y1="3108.5" x2="1024" y2="5131.5" gradientTransform="matrix(1 0 0 -1 0 5144)">
		<stop  offset="0" style="stop-color:#E8E8E8"/>
		<stop  offset="1" style="stop-color:#F9F9F9"/>
	</linearGradient>
	<path class="st0" d="M50,2035.5c-20.7000008,0-37.5-16.8000488-37.5-37.5V50c0-20.7000008,16.7999992-37.5,37.5-37.5h1948
		c20.6999512,0,37.5,16.7999992,37.5,37.5v1948c0,20.6999512-16.8000488,37.5-37.5,37.5H50z"/>
	<path class="st1" d="M1998,25c13.8000488,0,25,11.2000008,25,25v1948c0,13.8000488-11.1999512,25-25,25H50
		c-13.7999992,0-25-11.1999512-25-25V50c0-13.7999992,11.2000008-25,25-25H1998 M1998,0H50C22.5,0,0,22.5,0,50v1948
		c0,27.5,22.5,50,50,50h1948c27.5,0,50-22.5,50-50V50C2048,22.5,2025.5,0,1998,0L1998,0z"/>
</g>
<path class="st2" d="M1338.8543701,304.3327637H709.1455688c-74.4967651,0-134.937561,60.4407959-134.937561,134.9376221
	v1169.4592285c0,74.4968262,60.4407959,134.9376221,134.937561,134.9376221h629.7088013
	c74.4968262,0,134.9376221-60.4407959,134.9376221-134.9376221V439.2703857
	C1473.7919922,364.7735596,1413.3511963,304.3327637,1338.8543701,304.3327637z M1024,1653.7088623
	c-49.7582397,0-89.958374-40.2001953-89.958374-89.9584961c0-49.7581787,40.2001343-89.958374,89.958374-89.958374
	c49.7581787,0,89.958374,40.2001953,89.958374,89.958374C1113.958374,1613.508667,1073.7581787,1653.7088623,1024,1653.7088623z
	 M1338.8543701,1350.0992432c0,18.5539551-15.1804199,33.734375-33.734375,33.734375H742.8800049
	c-18.5539551,0-33.734436-15.1804199-33.734436-33.734375V473.0047913c0-18.5539246,15.180481-33.7344055,33.734436-33.7344055
	h562.2399902c18.5539551,0,33.734375,15.180481,33.734375,33.7344055V1350.0992432z"/>
</svg>
