<?xml version="1.0" encoding="utf-8"?>
<!-- Generator: Adobe Illustrator 24.3.0, SVG Export Plug-In . SVG Version: 6.00 Build 0)  -->
<svg version="1.1" id="Calque_1" xmlns="http://www.w3.org/2000/svg" xmlns:xlink="http://www.w3.org/1999/xlink" x="0px" y="0px"
	 viewBox="0 0 2048 2048" style="enable-background:new 0 0 2048 2048;" xml:space="preserve">
<style type="text/css">
	.st0{fill:url(#SVGID_1_);}
	.st1{fill:#DCDCDC;}
	.st2{fill:#333333;}
</style>
<g>
	
		<linearGradient id="SVGID_1_" gradientUnits="userSpaceOnUse" x1="1024" y1="4132.5" x2="1024" y2="6155.5" gradientTransform="matrix(1 0 0 -1 0 6168)">
		<stop  offset="0" style="stop-color:#E8E8E8"/>
		<stop  offset="1" style="stop-color:#F9F9F9"/>
	</linearGradient>
	<path class="st0" d="M50,2035.5c-20.7,0-37.5-16.8-37.5-37.5V50c0-20.7,16.8-37.5,37.5-37.5h1948c20.7,0,37.5,16.8,37.5,37.5v1948
		c0,20.7-16.8,37.5-37.5,37.5H50z"/>
	<path class="st1" d="M1998,25c13.8,0,25,11.2,25,25v1948c0,13.8-11.2,25-25,25H50c-13.8,0-25-11.2-25-25V50c0-13.8,11.2-25,25-25
		H1998 M1998,0H50C22.5,0,0,22.5,0,50v1948c0,27.5,22.5,50,50,50h1948c27.5,0,50-22.5,50-50V50C2048,22.5,2025.5,0,1998,0L1998,0z"
		/>
</g>
<g>
	<path class="st2" d="M897,1718.4c0,13.7-2.3,26.3-6.9,37.8c-4.6,11.5-11,21.4-19.3,29.7s-18.3,14.7-29.9,19.3
		c-11.7,4.6-24.6,6.9-38.7,6.9h-71.5v-187.3h71.5c14.2,0,27.1,2.3,38.7,6.9c11.7,4.6,21.6,11.1,29.9,19.3
		c8.3,8.2,14.7,18.1,19.3,29.6C894.7,1692,897,1704.6,897,1718.4z M861.4,1718.4c0-10.3-1.4-19.5-4.1-27.6
		c-2.8-8.2-6.7-15.1-11.8-20.7c-5.1-5.7-11.3-10-18.6-13c-7.3-3-15.5-4.5-24.7-4.5h-36.4v131.8h36.4c9.2,0,17.4-1.5,24.7-4.5
		c7.3-3,13.5-7.4,18.6-13c5.1-5.7,9-12.6,11.8-20.7C860,1737.9,861.4,1728.6,861.4,1718.4z"/>
	<path class="st2" d="M951.8,1679.1v84.4c0,8.1,1.9,14.4,5.6,18.8c3.8,4.4,9.4,6.7,16.9,6.7c5.5,0,10.7-1.2,15.5-3.7
		c4.8-2.5,9.4-5.8,13.7-10.2v-96.1h32V1812H1016c-4.1,0-6.9-1.9-8.2-5.8l-2.2-10.6c-2.8,2.8-5.6,5.3-8.5,7.6
		c-2.9,2.3-6.1,4.2-9.4,5.8c-3.3,1.6-6.9,2.8-10.7,3.8c-3.8,0.9-8,1.4-12.4,1.4c-7.3,0-13.7-1.2-19.2-3.7
		c-5.6-2.5-10.3-5.9-14.1-10.4c-3.8-4.5-6.7-9.8-8.6-16c-1.9-6.2-2.9-13-2.9-20.4v-84.4H951.8z"/>
	<path class="st2" d="M1102.2,1619.6v110.2h6c2.2,0,3.8-0.3,5.1-0.9c1.2-0.6,2.5-1.7,3.9-3.4l33-40.8c1.5-1.7,3-3.1,4.7-4.1
		c1.6-1,3.8-1.5,6.5-1.5h29.3l-41.3,49.3c-1.5,1.8-3,3.5-4.5,5c-1.6,1.5-3.2,2.8-5.1,4c1.8,1.3,3.4,2.8,4.8,4.5
		c1.4,1.7,2.8,3.6,4.1,5.6l44.3,64.5h-28.9c-2.5,0-4.6-0.4-6.3-1.3c-1.7-0.9-3.3-2.3-4.7-4.4l-33.8-50.4c-1.3-2-2.6-3.3-3.9-3.9
		c-1.3-0.6-3.2-0.9-5.8-0.9h-7.3v60.9h-32v-192.4H1102.2z"/>
	<path class="st2" d="M1259.8,1677.1c8.4,0,16.1,1.3,23.1,4c7,2.7,13.1,6.6,18.2,11.7c5.1,5.1,9.1,11.4,11.9,18.9
		c2.8,7.5,4.3,16,4.3,25.6c0,2.4-0.1,4.4-0.3,6c-0.2,1.6-0.6,2.8-1.2,3.8c-0.6,0.9-1.3,1.6-2.3,1.9c-1,0.4-2.2,0.6-3.6,0.6h-82.1
		c0.9,13.6,4.6,23.7,11,30c6.4,6.4,14.8,9.6,25.4,9.6c5.2,0,9.6-0.6,13.4-1.8c3.8-1.2,7-2.5,9.8-4c2.8-1.5,5.3-2.8,7.4-4
		c2.1-1.2,4.2-1.8,6.2-1.8c1.3,0,2.4,0.3,3.4,0.8c0.9,0.5,1.8,1.3,2.5,2.2l9.3,11.7c-3.5,4.1-7.5,7.6-11.9,10.4
		c-4.4,2.8-9,5.1-13.8,6.7c-4.8,1.7-9.7,2.9-14.6,3.6c-5,0.7-9.8,1-14.4,1c-9.2,0-17.8-1.5-25.8-4.6c-7.9-3.1-14.8-7.6-20.7-13.6
		c-5.9-6-10.5-13.4-13.9-22.3c-3.4-8.8-5.1-19.1-5.1-30.8c0-9.1,1.5-17.6,4.4-25.6c2.9-8,7.1-14.9,12.6-20.8
		c5.5-5.9,12.2-10.6,20.1-14.1C1240.9,1678.8,1249.8,1677.1,1259.8,1677.1z M1260.4,1700c-9.3,0-16.6,2.6-21.9,7.9
		c-5.3,5.3-8.6,12.7-10.1,22.4h60.1c0-4.1-0.6-8-1.7-11.7c-1.1-3.7-2.8-6.9-5.2-9.6c-2.3-2.8-5.3-4.9-8.8-6.5
		C1269.3,1700.8,1265.1,1700,1260.4,1700z"/>
</g>
<path class="st2" d="M1024,982.4c119.9,0,217.1-97.2,217.1-217.1V403.6c0-119.9-97.2-217.1-217.1-217.1s-217.1,97.2-217.1,217.1
	v361.8C806.9,885.2,904.1,982.4,1024,982.4z M1385.8,620.7h-36.2c-20,0-36.2,16.2-36.2,36.2v108.5c0,169.1-145.8,304.8-318.3,288
	c-150.4-14.7-260.5-149.8-260.5-300.9v-95.6c0-20-16.2-36.2-36.2-36.2h-36.2c-20,0-36.2,16.2-36.2,36.2v90.8
	c0,202.7,144.6,383.4,343.7,410.8v77.2H843.1c-20,0-36.2,16.2-36.2,36.2v36.2c0,20,16.2,36.2,36.2,36.2h361.8
	c20,0,36.2-16.2,36.2-36.2v-36.2c0-20-16.2-36.2-36.2-36.2h-126.6v-76.4c193.8-26.6,343.7-192.9,343.7-393.9V656.8
	C1421.9,636.8,1405.8,620.7,1385.8,620.7z"/>
</svg>
