<?xml version="1.0" encoding="utf-8"?>
<!-- Generator: Adobe Illustrator 24.3.0, SVG Export Plug-In . SVG Version: 6.00 Build 0)  -->
<svg version="1.1" id="Calque_1" xmlns="http://www.w3.org/2000/svg" xmlns:xlink="http://www.w3.org/1999/xlink" x="0px" y="0px"
	 viewBox="0 0 2048 2048" style="enable-background:new 0 0 2048 2048;" xml:space="preserve">
<style type="text/css">
	.st0{fill:url(#SVGID_1_);}
	.st1{fill:#DCDCDC;}
	.st2{fill:#333333;}
</style>
<g>
	
		<linearGradient id="SVGID_1_" gradientUnits="userSpaceOnUse" x1="1024" y1="2584.5" x2="1024" y2="4607.5" gradientTransform="matrix(1 0 0 -1 0 4620)">
		<stop  offset="0" style="stop-color:#E8E8E8"/>
		<stop  offset="1" style="stop-color:#F9F9F9"/>
	</linearGradient>
	<path class="st0" d="M50,2035.5c-20.7,0-37.5-16.8-37.5-37.5V50c0-20.7,16.8-37.5,37.5-37.5h1948c20.7,0,37.5,16.8,37.5,37.5v1948
		c0,20.7-16.8,37.5-37.5,37.5H50z"/>
	<path class="st1" d="M1998,25c13.8,0,25,11.2,25,25v1948c0,13.8-11.2,25-25,25H50c-13.8,0-25-11.2-25-25V50c0-13.8,11.2-25,25-25
		H1998 M1998,0H50C22.5,0,0,22.5,0,50v1948c0,27.5,22.5,50,50,50h1948c27.5,0,50-22.5,50-50V50C2048,22.5,2025.5,0,1998,0L1998,0z"
		/>
</g>
<path class="st2" d="M1740.8,1211.2v89.7H307.2V225.7h89.6v985.5H1740.8z M1651.1,337.7v304.5c0,19.6-23.7,30.1-38.5,15.3
	l-84.7-84.7l-443,443.1c-9.2,9-23.1,9-32.2,0L889.6,852.8l-291.3,291.3L464,1009.6l409.5-409.4c9-9.2,23.1-9.2,32.1,0l163.1,163.1
	l324.9-324.7l-84.8-84.8c-14.7-14.7-4.1-38.4,15.4-38.4h304.5C1641.3,315.4,1651.1,325.2,1651.1,337.7L1651.1,337.7z"/>
<g>
	<path class="st2" d="M316.2,1746.2v66.2h-35v-188h61.2c12.6,0,23.4,1.5,32.6,4.4s16.8,7.1,22.8,12.3c6,5.3,10.4,11.6,13.3,19
		s4.3,15.4,4.3,24.2c0,9.1-1.5,17.4-4.6,25c-3,7.6-7.6,14.1-13.6,19.6c-6.1,5.5-13.6,9.7-22.8,12.7c-9.1,3-19.8,4.5-32,4.5h-26.2
		V1746.2z M316.2,1718.9h26.3c6.4,0,12-0.8,16.8-2.4s8.7-3.9,11.8-6.9c3.1-3,5.5-6.6,7-10.9s2.3-9.1,2.3-14.4c0-5-0.8-9.6-2.3-13.7
		c-1.6-4.1-3.9-7.5-7-10.4s-7.1-5-11.8-6.6c-4.8-1.5-10.4-2.3-16.8-2.3h-26.3V1718.9z"/>
	<path class="st2" d="M491.9,1676.9c8.4,0,16.1,1.3,23.2,4s13.2,6.6,18.3,11.8c5.1,5.2,9.1,11.5,12,19s4.3,16.1,4.3,25.7
		c0,2.4-0.1,4.4-0.3,6s-0.6,2.9-1.2,3.8c-0.6,0.9-1.3,1.6-2.3,2s-2.2,0.6-3.6,0.6h-82.4c1,13.7,4.6,23.7,11.1,30.2
		c6.4,6.4,14.9,9.6,25.5,9.6c5.2,0,9.7-0.6,13.5-1.8c3.8-1.2,7.1-2.6,9.9-4c2.8-1.5,5.3-2.8,7.4-4c2.1-1.2,4.2-1.8,6.2-1.8
		c1.3,0,2.4,0.3,3.4,0.8s1.8,1.3,2.5,2.2l9.4,11.7c-3.6,4.2-7.5,7.6-12,10.5c-4.4,2.8-9,5.1-13.8,6.8s-9.7,2.9-14.7,3.6
		s-9.8,1-14.5,1c-9.3,0-17.9-1.5-25.9-4.6s-14.9-7.6-20.8-13.7c-5.9-6-10.5-13.5-13.9-22.4s-5.1-19.2-5.1-30.9
		c0-9.1,1.5-17.7,4.4-25.7s7.2-15,12.7-20.9s12.2-10.6,20.1-14.1C473,1678.7,481.9,1676.9,491.9,1676.9z M492.6,1699.9
		c-9.4,0-16.7,2.6-22,7.9s-8.7,12.8-10.1,22.5h60.3c0-4.2-0.6-8.1-1.7-11.8c-1.1-3.7-2.9-6.9-5.2-9.7c-2.3-2.8-5.3-5-8.8-6.6
		C501.5,1700.7,497.3,1699.9,492.6,1699.9z"/>
	<path class="st2" d="M575.8,1812.4V1679h18.8c3.3,0,5.6,0.6,6.9,1.8c1.3,1.2,2.2,3.3,2.6,6.2l2,16.1c4.8-8.2,10.4-14.7,16.8-19.5
		c6.4-4.8,13.6-7.1,21.6-7.1c6.6,0,12,1.5,16.4,4.5l-4.2,24c-0.3,1.6-0.8,2.7-1.7,3.3c-0.9,0.6-2,1-3.5,1c-1.3,0-3.1-0.3-5.3-0.9
		c-2.3-0.6-5.2-0.9-9-0.9c-6.7,0-12.4,1.8-17.2,5.5s-8.8,9.1-12.1,16.2v83.1h-32.1V1812.4z"/>
	<path class="st2" d="M687.7,1812.4v-109.2l-11.6-1.8c-2.5-0.4-4.5-1.3-6-2.6c-1.5-1.3-2.3-3.1-2.3-5.5v-13.1h19.9v-9.9
		c0-7.6,1.1-14.5,3.4-20.5c2.3-6.1,5.6-11.2,9.9-15.5c4.3-4.2,9.5-7.5,15.7-9.8s13.1-3.4,20.8-3.4c6.2,0,11.9,0.8,17.2,2.5
		l-0.6,16.1c-0.2,2.5-1.3,4.1-3.5,4.7s-4.7,0.9-7.5,0.9c-3.8,0-7.2,0.4-10.2,1.2c-3,0.8-5.5,2.3-7.6,4.3s-3.7,4.7-4.7,8.1
		c-1.1,3.3-1.6,7.5-1.6,12.4v8.8h34.7v22.9H720v109.3L687.7,1812.4L687.7,1812.4z"/>
	<path class="st2" d="M830,1676.9c10,0,19,1.6,27.1,4.8c8.1,3.2,15,7.8,20.7,13.7c5.7,5.9,10.1,13.1,13.3,21.6
		c3.1,8.5,4.7,18,4.7,28.5c0,10.6-1.6,20.1-4.7,28.6c-3.1,8.5-7.5,15.7-13.3,21.7c-5.7,6-12.6,10.6-20.7,13.8
		c-8.1,3.2-17.1,4.8-27.1,4.8s-19-1.6-27.2-4.8c-8.1-3.2-15.1-7.8-20.9-13.8c-5.8-6-10.2-13.2-13.4-21.7s-4.7-18-4.7-28.6
		c0-10.5,1.6-20,4.7-28.5c3.2-8.5,7.6-15.7,13.4-21.6c5.8-5.9,12.7-10.4,20.9-13.7C811,1678.5,820.1,1676.9,830,1676.9z M830,1789.6
		c11.1,0,19.3-3.7,24.6-11.2s8-18.4,8-32.8s-2.7-25.3-8-32.9s-13.5-11.3-24.6-11.3c-11.3,0-19.6,3.8-25,11.4s-8.1,18.5-8.1,32.8
		s2.7,25.2,8.1,32.7C810.5,1785.9,818.8,1789.6,830,1789.6z"/>
	<path class="st2" d="M920.9,1812.4V1679h18.8c3.3,0,5.6,0.6,6.9,1.8c1.3,1.2,2.2,3.3,2.6,6.2l2,16.1c4.8-8.2,10.4-14.7,16.8-19.5
		c6.4-4.8,13.6-7.1,21.6-7.1c6.6,0,12,1.5,16.4,4.5l-4.2,24c-0.3,1.6-0.8,2.7-1.7,3.3c-0.9,0.6-2,1-3.5,1c-1.3,0-3.1-0.3-5.3-0.9
		c-2.3-0.6-5.2-0.9-9-0.9c-6.7,0-12.4,1.8-17.2,5.5s-8.8,9.1-12.1,16.2v83.1h-32.1V1812.4z"/>
	<path class="st2" d="M1027.1,1812.4V1679h19.6c4.2,0,6.9,2,8.2,5.8l2.1,9.9c2.3-2.6,4.8-5,7.3-7.1c2.6-2.2,5.3-4,8.2-5.6
		c2.9-1.6,6-2.8,9.4-3.7c3.3-0.9,7-1.4,11-1.4c8.4,0,15.3,2.3,20.7,6.8c5.4,4.5,9.5,10.6,12.2,18.1c2.1-4.4,4.7-8.2,7.8-11.4
		c3.1-3.2,6.5-5.7,10.3-7.7c3.7-2,7.7-3.5,11.9-4.4c4.2-1,8.4-1.4,12.7-1.4c7.4,0,13.9,1.1,19.6,3.4s10.5,5.5,14.4,9.9
		c3.9,4.3,6.9,9.6,8.9,15.9c2,6.2,3.1,13.4,3.1,21.5v84.9h-32.1v-84.9c0-8.5-1.9-14.9-5.6-19.2c-3.7-4.3-9.2-6.4-16.4-6.4
		c-3.3,0-6.3,0.6-9.2,1.7c-2.8,1.1-5.3,2.8-7.4,4.9s-3.8,4.8-5,8s-1.8,6.9-1.8,11.1v84.9h-32.2v-84.9c0-8.9-1.8-15.4-5.4-19.5
		s-8.9-6.1-15.9-6.1c-4.6,0-8.9,1.1-12.9,3.4s-7.8,5.4-11.2,9.4v97.6h-32.3V1812.4z"/>
	<path class="st2" d="M1350.6,1812.4h-14.4c-3,0-5.4-0.5-7.2-1.4c-1.7-0.9-3-2.8-3.9-5.5l-2.9-9.5c-3.4,3-6.7,5.7-9.9,8
		c-3.2,2.3-6.6,4.2-10.1,5.8c-3.5,1.6-7.2,2.7-11.1,3.5s-8.2,1.2-13,1.2c-5.6,0-10.8-0.8-15.6-2.3c-4.8-1.5-8.9-3.8-12.3-6.8
		s-6.1-6.8-8-11.3s-2.9-9.8-2.9-15.8c0-5,1.3-10,4-14.9c2.6-4.9,7-9.3,13.2-13.3s14.3-7.2,24.6-9.8c10.2-2.6,22.9-3.9,38.1-3.9v-7.9
		c0-9-1.9-15.7-5.7-20c-3.8-4.3-9.3-6.5-16.4-6.5c-5.2,0-9.5,0.6-13,1.8c-3.5,1.2-6.5,2.6-9,4.1c-2.6,1.5-4.9,2.9-7.1,4.1
		s-4.5,1.8-7.1,1.8c-2.2,0-4-0.6-5.6-1.7s-2.8-2.5-3.8-4.2l-5.9-10.3c15.3-14,33.8-21.1,55.5-21.1c7.8,0,14.8,1.3,20.9,3.8
		c6.1,2.6,11.3,6.1,15.5,10.7s7.5,10,9.7,16.3s3.3,13.3,3.3,20.8v84.3H1350.6z M1288.2,1792.4c3.3,0,6.3-0.3,9.1-0.9
		c2.8-0.6,5.4-1.5,7.9-2.7s4.9-2.7,7.1-4.4c2.3-1.7,4.6-3.8,7-6.2v-22.3c-9.4,0-17.2,0.6-23.5,1.8c-6.3,1.2-11.3,2.7-15.1,4.5
		c-3.8,1.8-6.5,4-8.1,6.4s-2.4,5.1-2.4,8c0,5.7,1.7,9.7,5,12.2C1278.4,1791.1,1282.8,1792.4,1288.2,1792.4z"/>
	<path class="st2" d="M1382.1,1812.4V1679h19.6c4.2,0,6.9,2,8.2,5.8l2.2,10.5c2.7-2.8,5.5-5.3,8.5-7.5c3-2.3,6.2-4.2,9.5-5.8
		c3.3-1.6,6.9-2.9,10.7-3.8c3.8-0.9,8-1.3,12.5-1.3c7.3,0,13.7,1.2,19.4,3.7c5.6,2.5,10.3,5.9,14.1,10.4c3.8,4.5,6.6,9.8,8.6,16
		s2.9,13,2.9,20.5v84.9h-32.1v-84.9c0-8.1-1.9-14.5-5.7-18.9c-3.8-4.5-9.4-6.7-17-6.7c-5.5,0-10.7,1.3-15.6,3.8s-9.4,5.9-13.8,10.3
		v96.5L1382.1,1812.4L1382.1,1812.4z"/>
	<path class="st2" d="M1623.7,1707.2c-1,1.2-1.9,2.2-2.8,2.9c-0.9,0.7-2.2,1-4,1c-1.6,0-3.2-0.5-4.8-1.5c-1.6-1-3.4-2.1-5.6-3.4
		s-4.7-2.4-7.7-3.4s-6.7-1.5-11.1-1.5c-5.6,0-10.6,1-14.8,3.1c-4.2,2-7.8,5-10.6,8.8c-2.8,3.8-4.9,8.4-6.3,13.8s-2.1,11.5-2.1,18.4
		c0,7.1,0.8,13.4,2.3,19c1.5,5.5,3.7,10.2,6.6,14s6.3,6.6,10.4,8.6s8.7,2.9,13.8,2.9c5.1,0,9.3-0.6,12.4-1.9c3.2-1.3,5.8-2.6,8-4.2
		c2.2-1.5,4.1-2.9,5.7-4.2c1.6-1.3,3.4-1.9,5.4-1.9c2.6,0,4.6,1,5.9,3l9.2,11.7c-3.6,4.2-7.4,7.6-11.6,10.5
		c-4.2,2.8-8.5,5.1-12.9,6.8c-4.5,1.7-9.1,2.9-13.8,3.6c-4.8,0.7-9.5,1-14.2,1c-8.2,0-16-1.5-23.3-4.6s-13.6-7.6-19-13.5
		s-9.7-13.1-12.9-21.6c-3.2-8.5-4.7-18.3-4.7-29.2c0-9.8,1.4-18.9,4.2-27.2c2.8-8.4,7-15.6,12.4-21.7c5.5-6.1,12.2-10.9,20.3-14.4
		c8.1-3.5,17.3-5.2,27.8-5.2c10,0,18.7,1.6,26.2,4.8c7.5,3.2,14.2,7.8,20.2,13.8L1623.7,1707.2z"/>
	<path class="st2" d="M1709.1,1676.9c8.4,0,16.1,1.3,23.2,4s13.2,6.6,18.3,11.8c5.1,5.2,9.1,11.5,12,19s4.3,16.1,4.3,25.7
		c0,2.4-0.1,4.4-0.3,6c-0.2,1.6-0.6,2.9-1.2,3.8s-1.3,1.6-2.3,2s-2.2,0.6-3.6,0.6H1677c1,13.7,4.6,23.7,11,30.2
		c6.4,6.4,14.9,9.6,25.5,9.6c5.2,0,9.7-0.6,13.5-1.8c3.8-1.2,7.1-2.6,9.9-4c2.8-1.5,5.3-2.8,7.4-4s4.2-1.8,6.2-1.8
		c1.3,0,2.4,0.3,3.4,0.8s1.8,1.3,2.5,2.2l9.4,11.7c-3.6,4.2-7.5,7.6-12,10.5c-4.4,2.8-9,5.1-13.8,6.8c-4.8,1.7-9.7,2.9-14.7,3.6
		s-9.8,1-14.5,1c-9.3,0-17.9-1.5-25.9-4.6s-14.9-7.6-20.8-13.7c-5.9-6-10.5-13.5-13.9-22.4s-5.1-19.2-5.1-30.9
		c0-9.1,1.5-17.7,4.4-25.7s7.2-15,12.7-20.9s12.2-10.6,20.1-14.1C1690.2,1678.7,1699.1,1676.9,1709.1,1676.9z M1709.7,1699.9
		c-9.4,0-16.7,2.6-22,7.9s-8.7,12.8-10.1,22.5h60.3c0-4.2-0.6-8.1-1.7-11.8c-1.1-3.7-2.9-6.9-5.2-9.7c-2.3-2.8-5.3-5-8.8-6.6
		C1718.7,1700.7,1714.5,1699.9,1709.7,1699.9z"/>
</g>
</svg>
