<?xml version="1.0" encoding="utf-8"?>
<!-- Generator: Adobe Illustrator 21.1.0, SVG Export Plug-In . SVG Version: 6.00 Build 0)  -->
<svg version="1.1" id="Calque_1" xmlns="http://www.w3.org/2000/svg" xmlns:xlink="http://www.w3.org/1999/xlink" x="0px" y="0px"
	 viewBox="0 0 292 292" style="enable-background:new 0 0 292 292;" xml:space="preserve">
<style type="text/css">
	.st0{fill:url(#SVGID_1_);}
	.st1{fill:url(#SVGID_2_);}
	.st2{fill:#333333;}
</style>
<linearGradient id="SVGID_1_" gradientUnits="userSpaceOnUse" x1="-1165" y1="814" x2="-1165" y2="542" gradientTransform="matrix(-1 0 0 1 -1019 -532)">
	<stop  offset="0" style="stop-color:#E8E8E8"/>
	<stop  offset="1" style="stop-color:#F9F9F9"/>
</linearGradient>
<path class="st0" d="M10,282V10h257c8,0,15,7,15,15v242c0,8-7,15-15,15H10z"/>
<linearGradient id="SVGID_2_" gradientUnits="userSpaceOnUse" x1="-1165" y1="824" x2="-1165" y2="532" gradientTransform="matrix(-1 0 0 1 -1019 -532)">
	<stop  offset="0" style="stop-color:#BBBBBB"/>
	<stop  offset="1" style="stop-color:#DCDCDC"/>
</linearGradient>
<path class="st1" d="M10,282V10h257c8,0,15,7,15,15v242c0,8-7,15-15,15H10z M267,292c14,0,25-11,25-25V25c0-14-11-25-25-25H0v292
	H267z"/>
<path class="st2" d="M98.4,71.5l8.4-8.4c1-1,2.4-1.6,3.8-1.6s2.9,0.6,3.9,1.6l79,79.1c1.1,1,1.7,2.4,1.7,3.8c0,1.2-0.7,2.8-1.7,3.8
	l-79,79.1c-1.1,1.1-2.7,1.7-3.9,1.7s-2.8-0.7-3.8-1.7l-8.4-8.4c-1.1-1-1.7-2.4-1.7-3.8c0-1.3,0.7-2.9,1.7-3.9l66.8-66.8L98.6,79.1
	c-1.1-1-1.7-2.4-1.7-3.8C96.8,73.8,97.5,72.3,98.4,71.5z"/>
</svg>
