<?xml version="1.0" encoding="utf-8"?>
<!-- Generator: Adobe Illustrator 22.0.1, SVG Export Plug-In . SVG Version: 6.00 Build 0)  -->
<svg version="1.1" id="Calque_1" xmlns="http://www.w3.org/2000/svg" xmlns:xlink="http://www.w3.org/1999/xlink" x="0px" y="0px"
	 viewBox="0 0 731.2 362.4" style="enable-background:new 0 0 731.2 362.4;" xml:space="preserve">
<style type="text/css">
	.st0{fill:#231F20;}
	.st1{fill:none;}
</style>
<g>
	<g>
		<g>
			<path d="M92.3,92.4c3-9.6,4.6-21.5,4.6-33.7c0-7.1-0.5-14-1.6-20.5c-0.1-0.6-0.4-1.1-0.9-1.4c-0.5-0.3-1-0.5-1.6-0.4
				c-0.6,0.1-1.1,0.4-1.4,0.9c-0.3,0.5-0.5,1-0.4,1.6c1,6.3,1.5,13,1.5,19.8c0,12.2-1.7,24.1-4.8,33.5c-0.2,0.7-0.1,1.5,0.4,2.1
				c5.4,6.1,6.1,11.5,4.6,13c-1.9,1.9-8,0.2-13.7-5.2c-0.6-0.6-1.4-0.7-2.2-0.5c-4.9,1.6-15.5,2.7-22.4,2.7c-6.7,0-17-0.9-21.7-2.4
				c-0.7-0.2-1.6,0-2.1,0.5c-5.6,5.2-11.6,6.8-13.5,5c-1.7-1.7-0.6-6.8,3.9-12.2c0.4-0.5,0.6-1,0.5-1.6l0-0.2c0-0.2-0.1-0.3-0.1-0.5
				c-3.2-9.5-5-21.6-5-34.2c0-12.5,1.8-24.6,5-34.1c0.1-0.2,0.1-0.4,0.1-0.6l0-0.2c0.1-0.6-0.1-1.2-0.5-1.6
				c-4.5-5.4-5.5-10.6-3.8-12.2c1.8-1.8,7.8-0.3,13.4,4.9c0.6,0.5,1.4,0.7,2.1,0.5c4.8-1.5,15.1-2.5,21.8-2.5c7,0,17.6,1,22.5,2.7
				c0.8,0.3,1.6,0.1,2.2-0.5c5.7-5.4,11.7-7,13.6-5.1c1.6,1.6,0.9,7-4.6,13c-0.5,0.6-0.7,1.4-0.4,2.1c0.9,2.7,1.6,5.5,2.3,8.6
				c0.1,0.6,0.5,1,0.9,1.4s1.1,0.4,1.6,0.3c0.6-0.1,1-0.5,1.4-0.9s0.4-1.1,0.3-1.6c-0.6-2.7-1.3-5.4-2-7.8c5.8-7,7.3-14.3,3.6-18
				c-3.8-3.8-11.6-2-18.7,4.2c-5.9-1.6-16-2.5-22.7-2.5c-6.5,0-16.4,0.9-22,2.3c-3-2.6-6.3-4.5-9.3-5.4c-3.9-1.1-7.1-0.6-9.2,1.4
				c-3.5,3.5-2.4,10.4,2.9,17.1c-3.1,9.8-4.9,22-4.9,34.6c0,12.6,1.7,24.8,4.9,34.6c-5.2,6.8-6.4,13.6-2.9,17.1c1.3,1.3,3.2,2,5.3,2
				c1.2,0,2.5-0.2,3.9-0.6c3-0.9,6.4-2.8,9.3-5.4c5.5,1.4,15.4,2.3,21.8,2.3c6.6,0,16.7-0.9,22.6-2.5c7.1,6.3,15,8.1,18.8,4.3
				C99.5,106.7,98,99.4,92.3,92.4z"/>
			<path d="M29.4,58.6v26.8c0,0.9,0.7,1.7,1.7,1.7h47.2c0.9,0,1.7-0.7,1.7-1.7V58.6c0-0.9-0.7-1.7-1.7-1.7H31.1
				C30.2,56.9,29.4,57.7,29.4,58.6z M32.8,60.3h43.9v23.5H32.8V60.3z"/>
			<path d="M43.4,67.4h22c0.9,0,1.7-0.7,1.7-1.7s-0.7-1.7-1.7-1.7h-22c-0.9,0-1.7,0.7-1.7,1.7C41.8,66.7,42.5,67.4,43.4,67.4z"/>
			<path d="M72.3,70.4h-3.7c-0.9,0-1.7,0.7-1.7,1.7c0,0.9,0.7,1.7,1.7,1.7h3.7c0.9,0,1.7-0.7,1.7-1.7C74,71.1,73.2,70.4,72.3,70.4z"
				/>
			<path d="M36.6,73.7h26.9c0.9,0,1.7-0.7,1.7-1.7c0-0.9-0.7-1.7-1.7-1.7H36.6c-0.9,0-1.7,0.7-1.7,1.7
				C34.9,72.9,35.7,73.7,36.6,73.7z"/>
			<path d="M72.3,77.1H45.6c-0.9,0-1.7,0.7-1.7,1.7s0.7,1.7,1.7,1.7h26.7c0.9,0,1.7-0.7,1.7-1.7C74,77.8,73.2,77.1,72.3,77.1z"/>
			<path d="M40.9,77.1h-4.3c-0.9,0-1.7,0.7-1.7,1.7s0.7,1.7,1.7,1.7h4.3c0.9,0,1.7-0.7,1.7-1.7C42.5,77.8,41.8,77.1,40.9,77.1z"/>
			<path d="M40.2,34.4c-0.5,0.2-0.9,0.5-1.1,1c-0.2,0.5-0.1,1,0.2,1.5c0.1,0.2,3.7,5.5,10.5,5.5c0,0,0,0,0,0c1.7,0,3.4-0.3,5.2-1
				c0.4,0.9,0.8,1.8,1,2.8c0,0.1,0,0.2,0.1,0.2c0.7,2.4,1.1,4.8,1.1,7.4c0,0.9,0.7,1.7,1.7,1.7c0.9,0,1.7-0.7,1.7-1.7
				c0-2.2-0.3-4.4-0.8-6.6c3-0.7,5.3-2,6.8-4.1c2.8-3.7,2.1-8.2,2-8.3c-0.1-0.4-0.3-0.8-0.7-1.1c-0.4-0.3-0.8-0.3-1.3-0.3
				c-5.7,1.2-8.3,4.3-9.5,6.8c-1-1.9-2.1-3.6-3.5-5.3c-3.4-4.2-6.7-6.4-6.9-6.4c-0.8-0.5-1.8-0.3-2.3,0.5c-0.5,0.8-0.3,1.8,0.5,2.3
				c0,0,2.6,1.7,5.4,4.9c-1.3-0.4-2.9-0.6-4.6-0.6C44,33.5,42.1,33.8,40.2,34.4z M49.8,39.1C49.8,39.1,49.8,39.1,49.8,39.1
				c-2.6,0-4.6-1.1-5.9-2.1c0.6-0.1,1.3-0.1,1.9-0.1c3,0,5.3,1,6.7,1.9C51.6,38.9,50.7,39.1,49.8,39.1z M60,39.8
				c1-2.2,2.7-3.8,5.3-4.7c-0.1,1.1-0.5,2.6-1.4,3.9c-1,1.3-2.5,2.2-4.4,2.7C59.5,41.2,59.7,40.5,60,39.8z"/>
		</g>
		<g>
			<path class="st0" d="M5.7,143.4v7.1H1.9v-20.2h6.6c1.4,0,2.5,0.2,3.5,0.5s1.8,0.8,2.5,1.3c0.6,0.6,1.1,1.3,1.4,2
				c0.3,0.8,0.5,1.7,0.5,2.6c0,1-0.2,1.9-0.5,2.7s-0.8,1.5-1.5,2.1c-0.7,0.6-1.5,1-2.5,1.4c-1,0.3-2.1,0.5-3.4,0.5H5.7z M5.7,140.5
				h2.8c0.7,0,1.3-0.1,1.8-0.3s0.9-0.4,1.3-0.7c0.3-0.3,0.6-0.7,0.8-1.2s0.3-1,0.3-1.5c0-0.5-0.1-1-0.3-1.5s-0.4-0.8-0.8-1.1
				c-0.3-0.3-0.8-0.5-1.3-0.7s-1.1-0.2-1.8-0.2H5.7V140.5z"/>
			<path class="st0" d="M19.1,150.6v-14.4h2c0.4,0,0.6,0.1,0.7,0.2c0.1,0.1,0.2,0.4,0.3,0.7l0.2,1.7c0.5-0.9,1.1-1.6,1.8-2.1
				c0.7-0.5,1.5-0.8,2.3-0.8c0.7,0,1.3,0.2,1.8,0.5l-0.4,2.6c0,0.2-0.1,0.3-0.2,0.4c-0.1,0.1-0.2,0.1-0.4,0.1c-0.1,0-0.3,0-0.6-0.1
				s-0.6-0.1-1-0.1c-0.7,0-1.3,0.2-1.8,0.6c-0.5,0.4-0.9,1-1.3,1.7v8.9H19.1z"/>
			<path class="st0" d="M36.7,136c1.1,0,2,0.2,2.9,0.5c0.9,0.3,1.6,0.8,2.2,1.5c0.6,0.6,1.1,1.4,1.4,2.3c0.3,0.9,0.5,1.9,0.5,3.1
				c0,1.1-0.2,2.2-0.5,3.1s-0.8,1.7-1.4,2.3c-0.6,0.6-1.4,1.1-2.2,1.5c-0.9,0.3-1.8,0.5-2.9,0.5s-2-0.2-2.9-0.5
				c-0.9-0.3-1.6-0.8-2.2-1.5c-0.6-0.6-1.1-1.4-1.4-2.3c-0.3-0.9-0.5-1.9-0.5-3.1c0-1.1,0.2-2.2,0.5-3.1c0.3-0.9,0.8-1.7,1.4-2.3
				c0.6-0.6,1.4-1.1,2.2-1.5C34.6,136.1,35.6,136,36.7,136z M36.7,148.1c1.2,0,2.1-0.4,2.7-1.2c0.6-0.8,0.9-2,0.9-3.5
				c0-1.5-0.3-2.7-0.9-3.5c-0.6-0.8-1.5-1.2-2.7-1.2c-1.2,0-2.1,0.4-2.7,1.2s-0.9,2-0.9,3.5s0.3,2.7,0.9,3.5
				C34.6,147.7,35.5,148.1,36.7,148.1z"/>
			<path class="st0" d="M56.6,150.6c-0.4,0-0.7-0.2-0.9-0.6l-0.3-1.4c-0.3,0.3-0.6,0.6-0.9,0.9c-0.3,0.3-0.7,0.5-1.1,0.7
				c-0.4,0.2-0.8,0.3-1.2,0.5s-0.9,0.2-1.4,0.2c-0.8,0-1.5-0.2-2.2-0.5c-0.7-0.3-1.2-0.8-1.7-1.4c-0.5-0.6-0.8-1.4-1.1-2.3
				c-0.3-0.9-0.4-2-0.4-3.1c0-1.1,0.1-2.1,0.4-3c0.3-0.9,0.7-1.7,1.2-2.4c0.5-0.7,1.2-1.2,1.9-1.6c0.8-0.4,1.6-0.6,2.5-0.6
				c0.8,0,1.5,0.1,2.1,0.4s1.1,0.6,1.5,1v-7.6h3.5v20.8H56.6z M52,148c0.7,0,1.3-0.1,1.8-0.4c0.5-0.3,1-0.7,1.4-1.3v-6.4
				c-0.4-0.5-0.8-0.8-1.3-1s-1-0.3-1.5-0.3c-0.5,0-1,0.1-1.4,0.3s-0.8,0.5-1.1,0.9c-0.3,0.4-0.5,0.9-0.7,1.5s-0.2,1.3-0.2,2.2
				c0,0.8,0.1,1.6,0.2,2.1s0.3,1.1,0.6,1.4c0.3,0.4,0.6,0.6,0.9,0.8C51.1,147.9,51.5,148,52,148z"/>
			<path class="st0" d="M65.6,136.2v9.1c0,0.9,0.2,1.6,0.6,2c0.4,0.5,1,0.7,1.8,0.7c0.6,0,1.2-0.1,1.7-0.4c0.5-0.3,1-0.6,1.5-1.1
				v-10.4h3.5v14.4h-2.1c-0.4,0-0.7-0.2-0.9-0.6l-0.2-1.1c-0.3,0.3-0.6,0.6-0.9,0.8c-0.3,0.2-0.7,0.5-1,0.6s-0.7,0.3-1.2,0.4
				c-0.4,0.1-0.9,0.1-1.3,0.1c-0.8,0-1.5-0.1-2.1-0.4c-0.6-0.3-1.1-0.6-1.5-1.1s-0.7-1.1-0.9-1.7c-0.2-0.7-0.3-1.4-0.3-2.2v-9.1
				H65.6z"/>
			<path class="st0" d="M82.6,132c0,0.3-0.1,0.6-0.2,0.8c-0.1,0.3-0.3,0.5-0.5,0.7c-0.2,0.2-0.4,0.4-0.7,0.5
				c-0.3,0.1-0.6,0.2-0.9,0.2c-0.3,0-0.6-0.1-0.8-0.2c-0.3-0.1-0.5-0.3-0.7-0.5c-0.2-0.2-0.4-0.4-0.5-0.7c-0.1-0.3-0.2-0.5-0.2-0.8
				c0-0.3,0.1-0.6,0.2-0.9s0.3-0.5,0.5-0.7c0.2-0.2,0.4-0.4,0.7-0.5c0.3-0.1,0.5-0.2,0.8-0.2c0.3,0,0.6,0.1,0.9,0.2
				c0.3,0.1,0.5,0.3,0.7,0.5s0.4,0.4,0.5,0.7C82.5,131.4,82.6,131.7,82.6,132z M82,136.2v14.4h-3.5v-14.4H82z"/>
			<path class="st0" d="M90.7,150.8c-1.2,0-2.2-0.4-2.9-1.1c-0.7-0.7-1-1.7-1-2.9v-8h-1.5c-0.2,0-0.3-0.1-0.5-0.2s-0.2-0.3-0.2-0.5
				v-1.4l2.3-0.4l0.7-3.9c0-0.2,0.1-0.3,0.3-0.4c0.1-0.1,0.3-0.2,0.5-0.2h1.8v4.5H94v2.5h-3.8v7.8c0,0.4,0.1,0.8,0.3,1
				s0.5,0.4,0.9,0.4c0.2,0,0.4,0,0.5-0.1c0.1-0.1,0.3-0.1,0.4-0.2c0.1-0.1,0.2-0.1,0.3-0.2c0.1-0.1,0.2-0.1,0.3-0.1
				c0.1,0,0.2,0,0.3,0.1c0.1,0.1,0.1,0.1,0.2,0.2l1,1.7c-0.5,0.4-1.1,0.7-1.7,1C92,150.7,91.4,150.8,90.7,150.8z"/>
			<path class="st0" d="M105.3,139c-0.1,0.1-0.2,0.3-0.3,0.3c-0.1,0.1-0.2,0.1-0.4,0.1c-0.2,0-0.3,0-0.5-0.1
				c-0.2-0.1-0.4-0.2-0.7-0.3c-0.3-0.1-0.5-0.2-0.9-0.3c-0.3-0.1-0.7-0.1-1.1-0.1c-0.7,0-1.2,0.1-1.6,0.4s-0.6,0.7-0.6,1.1
				c0,0.3,0.1,0.6,0.3,0.8s0.5,0.4,0.8,0.6c0.3,0.2,0.7,0.3,1.1,0.4c0.4,0.1,0.8,0.3,1.3,0.4c0.4,0.1,0.9,0.3,1.3,0.5
				c0.4,0.2,0.8,0.4,1.1,0.7s0.6,0.6,0.8,1.1c0.2,0.4,0.3,0.9,0.3,1.5c0,0.7-0.1,1.3-0.4,1.9c-0.3,0.6-0.6,1.1-1.1,1.5
				c-0.5,0.4-1.1,0.8-1.8,1c-0.7,0.2-1.5,0.4-2.5,0.4c-0.5,0-1,0-1.4-0.1c-0.5-0.1-0.9-0.2-1.4-0.4c-0.4-0.2-0.8-0.3-1.2-0.6
				s-0.7-0.4-1-0.7l0.8-1.3c0.1-0.2,0.2-0.3,0.4-0.4s0.3-0.1,0.5-0.1c0.2,0,0.4,0.1,0.6,0.2c0.2,0.1,0.4,0.3,0.7,0.4
				c0.3,0.1,0.5,0.3,0.9,0.4s0.8,0.2,1.3,0.2c0.4,0,0.8,0,1.1-0.1c0.3-0.1,0.5-0.2,0.7-0.4c0.2-0.2,0.3-0.3,0.4-0.6s0.1-0.4,0.1-0.7
				c0-0.3-0.1-0.6-0.3-0.8s-0.5-0.4-0.8-0.6c-0.3-0.2-0.7-0.3-1.1-0.4c-0.4-0.1-0.9-0.3-1.3-0.4s-0.9-0.3-1.3-0.5
				c-0.4-0.2-0.8-0.5-1.1-0.8c-0.3-0.3-0.6-0.7-0.8-1.1s-0.3-1-0.3-1.6c0-0.6,0.1-1.1,0.4-1.7s0.6-1,1-1.4c0.5-0.4,1-0.7,1.7-1
				c0.7-0.2,1.5-0.4,2.3-0.4c1,0,1.9,0.2,2.7,0.5c0.8,0.3,1.5,0.8,2,1.3L105.3,139z"/>
		</g>
	</g>
	<g>
		<g>
			<g>
				<path d="M237.8,28.9c0.4,0.2,0.8,0.4,1.2,0.4c0.7,0,1.3-0.3,1.7-0.9c0.8-1.1,3.6-4.8,7-3c2.6,1.4,5,2.2,7.2,2.6
					c0,0,0.2,0,0.3,0.1c2.6,0.4,5,0.4,7.6,0.2c0.9-0.1,1.8,0.1,2.5,0.6c1,0.6,2.3,0.3,2.9-0.7c0.6-1,0.3-2.3-0.7-2.9
					c-1.5-0.9-3.2-1.3-5.1-1.2c-1.5,0.1-2.9,0.2-4.3,0.1c1.4-3.6,4.2-6.6,7.8-8.1c1.1-0.5,1.6-1.7,1.1-2.8c-0.5-1.1-1.7-1.6-2.8-1.1
					c-1,0.4-1.9,0.9-2.8,1.5c-0.2-2.1-0.9-4.1-2.1-5.8c-2.6-3.7-6.9-5.6-11.4-5c-0.7,0.1-1.2,0.5-1.6,1.1c-2.1,4-1.8,8.7,0.7,12.4
					c1.8,2.6,4.6,4.4,7.6,5c-0.3,0.7-0.6,1.4-0.9,2.2c-1.4-0.4-2.8-1-4.3-1.8c-4.3-2.2-9.1-0.5-12.4,4.4
					C236.6,26.9,236.9,28.2,237.8,28.9L237.8,28.9z M250.7,13.8c-1.4-2.1-1.8-4.7-0.9-7c2.5,0,4.8,1.2,6.3,3.3
					c1.5,2.1,1.8,4.8,1,7.1C254.5,17.2,252.1,15.9,250.7,13.8L250.7,13.8z M263.2,34.5c-0.4,0.6-1.1,0.9-1.7,0.9
					c-0.4,0-0.8-0.1-1.2-0.4c-0.2-0.2-0.5-0.2-0.8-0.2c-1.2,0.1-2.2-0.8-2.2-2c-0.1-1.2,0.8-2.2,2-2.2c1.3-0.1,2.5,0.3,3.5,0.9
					C263.6,32.2,263.9,33.5,263.2,34.5L263.2,34.5z M302.4,7c-3.6-2.6-8.4-3-12.4-1c-1.9,1-3.5,2.4-4.6,4.1
					c-0.5-0.9-1.1-1.8-1.7-2.6c-0.7-0.9-2-1.1-3-0.3c-0.9,0.7-1,2-0.3,3c2.6,3.2,3.6,7.3,3,11.3c-2.3-0.3-4.6,0.2-6.6,1.3
					c-2.8,1.4-4.8,3.9-5.7,6.8l-1.4,4.3c-4.5,0.2-8.9,3.9-11.1,9.7c-0.4,1.1,0.1,2.3,1.2,2.7c0.2,0.1,0.5,0.1,0.7,0.1
					c0.8,0,1.6-0.5,2-1.4c1.7-4.5,5.3-7.5,8.2-6.9c1.1,0.2,2.1-0.4,2.4-1.4l1.9-5.9c0.6-1.9,1.9-3.4,3.6-4.3
					c1.8-0.9,3.8-1.1,5.6-0.5c0,0,0,0,0,0c3.9,1.2,6.1,5.4,4.8,9.3l-1.9,6c-0.3,1,0.2,2.1,1.2,2.6c0.7,0.3,1.4,0.9,1.9,1.7
					c0.6,1,1.9,1.2,2.9,0.6c1-0.6,1.2-1.9,0.6-2.9c-0.6-0.9-1.3-1.6-2.1-2.2l1.4-4.4c1.7-5.5-0.8-11.3-5.8-13.8
					c0.2-0.8,0.3-1.7,0.3-2.6c1.1,0.3,2.3,0.5,3.5,0.5c1.9,0,3.8-0.4,5.6-1.3c4-2,6.5-6.1,6.5-10.6C303.2,8,302.9,7.4,302.4,7
					L302.4,7z M294.8,15.6c-2.3,1.2-5,1.2-7.2,0.1c0.4-2.4,2-4.7,4.3-5.8c2.3-1.1,4.9-1.1,7.1,0C298.6,12.3,297.1,14.4,294.8,15.6
					L294.8,15.6z M283.7,41.6c-0.3,0.9-0.4,1.7-0.3,2.5c0.1,1.2-0.7,2.2-1.9,2.3c-0.1,0-0.2,0-0.2,0c-1.1,0-2-0.8-2.1-1.9
					c-0.2-1.7,0.2-3.2,0.5-4.2l2.4-7.5c0.3-1.1,1.5-1.7,2.6-1.4c1.1,0.3,1.7,1.5,1.4,2.6L283.7,41.6z M210,33.6
					c1.4,0.5,2.9,0.8,4.3,0.8c1.6,0,3.3-0.3,4.8-1c0.1,0.8,0.3,1.5,0.5,2.3c-1.3,0.4-2.8,0.8-4.6,1c-3.7,0.5-6.4,3-7.4,7.1
					c-0.3,1.1,0.4,2.3,1.6,2.5c0.2,0,0.3,0.1,0.5,0.1c0.9,0,1.8-0.6,2-1.6c0.4-1.6,1.4-3.6,3.8-3.9c2.9-0.4,5.3-1,7.4-1.9
					c0,0,0.1,0,0.1-0.1c0.1,0,0.1-0.1,0.2-0.1c2.3-1.1,4.4-2.5,6.4-4.1c1.2-1,2.6-1.2,4.2-0.7c3.1,1,6,4.4,7.1,8.3
					c0.2,0.7,0.4,1.5,0.5,2.3c0.1,1.2,1.2,2,2.3,1.8c1.2-0.1,2-1.2,1.8-2.3c-0.1-1-0.3-1.9-0.6-2.9c-1.5-5.3-5.5-9.8-9.9-11.2
					c-2.9-0.9-5.8-0.4-8.1,1.5c-1.2,1-2.3,1.8-3.5,2.5c-0.9-3.8-0.3-7.8,1.8-11.1c0.6-1,0.3-2.3-0.6-2.9c-1-0.6-2.3-0.3-2.9,0.6
					c-0.6,0.9-1,1.8-1.4,2.8c-1.3-1.6-3.1-2.8-5.1-3.6C211,18.1,206.4,19,203,22c-0.5,0.5-0.7,1.1-0.7,1.8
					C202.9,28.3,205.8,32,210,33.6L210,33.6z M213.8,23.6c2.4,0.9,4.2,3,4.9,5.3c-2.1,1.4-4.8,1.7-7.2,0.7c-2.4-0.9-4.1-2.9-4.7-5.3
					C208.8,23,211.4,22.7,213.8,23.6L213.8,23.6z M238.5,43.7c0.3,1.1-0.4,2.3-1.5,2.6c-0.2,0.1-0.4,0.1-0.6,0.1
					c-0.9,0-1.8-0.6-2-1.5c-0.4-1.4-1.4-2.6-2.5-3c-0.7-0.2-1.1,0-1.4,0.2c-0.9,0.7-2.2,0.6-2.9-0.4c-0.7-0.9-0.6-2.2,0.4-2.9
					c1.5-1.2,3.4-1.5,5.3-0.9C235.7,38.6,237.8,40.9,238.5,43.7L238.5,43.7z M213.5,90c1.2,0,2.1,0.9,2.1,2.1v0.5
					c0,1.2-0.9,2.1-2.1,2.1c-1.2,0-2.1-0.9-2.1-2.1v-0.5C211.4,90.9,212.3,90,213.5,90L213.5,90z M288,94.7c-1.2,0-2.1-0.9-2.1-2.1
					v-0.5c0-1.2,0.9-2.1,2.1-2.1c1.2,0,2.1,0.9,2.1,2.1v0.5C290.1,93.8,289.2,94.7,288,94.7L288,94.7z M213.5,73.6
					c1.2,0,2.1,0.9,2.1,2.1v0.5c0,1.2-0.9,2.1-2.1,2.1c-1.2,0-2.1-0.9-2.1-2.1v-0.5C211.4,74.5,212.3,73.6,213.5,73.6L213.5,73.6z
					 M288,78.3c-1.2,0-2.1-0.9-2.1-2.1v-0.5c0-1.2,0.9-2.1,2.1-2.1c1.2,0,2.1,0.9,2.1,2.1v0.5C290.1,77.4,289.2,78.3,288,78.3
					L288,78.3z M292.2,49.2h-82.8c-3.3,0-6,2.7-6,6v8.7c0,1.5,0.5,2.8,1.4,3.9c-0.9,1-1.4,2.4-1.4,3.9v8.7c0,1.5,0.5,2.8,1.4,3.9
					c-0.9,1-1.4,2.4-1.4,3.9v8.7c0,3.3,2.7,6,6,6h35.9c1.2,0,2.1-0.9,2.1-2.1c0-1.2-0.9-2.1-2.1-2.1h-35.9c-1,0-1.8-0.8-1.8-1.8V88
					c0-1,0.8-1.8,1.8-1.8h50.1c1.2,0,2.1-0.9,2.1-2.1s-0.9-2.1-2.1-2.1h-50.1c-1,0-1.8-0.8-1.8-1.8v-8.7c0-1,0.8-1.8,1.8-1.8h82.8
					c1,0,1.8,0.8,1.8,1.8v8.7c0,1-0.8,1.8-1.8,1.8h-14.6c-1.2,0-2.1,0.9-2.1,2.1s0.9,2.1,2.1,2.1h14.6c1,0,1.8,0.8,1.8,1.8v8.7
					c0,1-0.8,1.8-1.8,1.8h-7.1c-1.2,0-2.1,0.9-2.1,2.1c0,1.2,0.9,2.1,2.1,2.1h7.1c3.3,0,6-2.7,6-6V88c0-1.5-0.5-2.8-1.4-3.9
					c0.9-1,1.4-2.4,1.4-3.9v-8.7c0-1.5-0.5-2.8-1.4-3.9c0.9-1,1.4-2.4,1.4-3.9v-8.7C298.1,51.9,295.4,49.2,292.2,49.2L292.2,49.2z
					 M207.6,55.2c0-1,0.8-1.8,1.8-1.8h82.8c1,0,1.8,0.8,1.8,1.8v8.7c0,1-0.8,1.8-1.8,1.8h-82.8c-1,0-1.8-0.8-1.8-1.8V55.2z
					 M211.4,59.8v-0.5c0-1.2,0.9-2.1,2.1-2.1c1.2,0,2.1,0.9,2.1,2.1v0.5c0,1.2-0.9,2.1-2.1,2.1C212.3,61.9,211.4,60.9,211.4,59.8
					L211.4,59.8z M285.9,59.8v-0.5c0-1.2,0.9-2.1,2.1-2.1c1.2,0,2.1,0.9,2.1,2.1v0.5c0,1.2-0.9,2.1-2.1,2.1
					C286.8,61.9,285.9,60.9,285.9,59.8L285.9,59.8z M276.4,91.4c-1.9-1.6-4.2-2.2-6.5-1.5h0c-0.8,0.2-1.6,0.4-2.3,0.5
					c0.6-2.4,2.1-4.6,4.2-6c1-0.6,1.2-1.9,0.6-2.9c-0.6-1-2-1.2-2.9-0.6c-3.3,2.2-5.5,5.7-6.2,9.6c-0.9-0.1-1.8-0.3-2.8-0.6
					c-2.3-0.7-4.5-0.2-6.4,1.4c-2.8,2.4-4.3,6.9-3.7,11.2c0.9,6.8,6.3,12.2,12.3,12.2c0.8,0,1.7-0.1,2.5-0.3
					c0.8,0.2,1.6,0.3,2.5,0.3c6,0,11.4-5.3,12.3-12.2C280.5,98.2,279.1,93.7,276.4,91.4L276.4,91.4z M275.8,101.9
					c-0.6,4.6-4.4,8.5-8.2,8.5c-0.6,0-1.2-0.1-1.7-0.3c-0.2-0.1-0.5-0.1-0.7-0.1s-0.5,0-0.7,0.1c-0.5,0.2-1.1,0.3-1.7,0.3
					c-3.8,0-7.5-3.9-8.2-8.5c-0.4-2.9,0.5-6,2.2-7.5c0.8-0.7,1.6-0.9,2.5-0.6c2.2,0.7,4,0.9,5.8,0.9c0,0,0.2,0,0.2,0
					c2,0,3.8-0.4,5.7-0.9h0c0.9-0.3,1.8,0,2.6,0.7C275.3,96,276.2,99,275.8,101.9L275.8,101.9z M275.8,101.9"/>
			</g>
		</g>
		<g>
			<path class="st0" d="M204.3,142.6v7.9h-3.8v-20.2h6.2c1.4,0,2.6,0.1,3.5,0.4c1,0.3,1.8,0.7,2.4,1.2c0.6,0.5,1.1,1.1,1.4,1.8
				s0.4,1.5,0.4,2.4c0,0.7-0.1,1.3-0.3,1.9c-0.2,0.6-0.5,1.2-0.9,1.7s-0.8,0.9-1.4,1.3c-0.6,0.4-1.2,0.7-1.9,0.9
				c0.5,0.3,0.9,0.7,1.2,1.2l5.1,7.5H213c-0.3,0-0.6-0.1-0.8-0.2c-0.2-0.1-0.4-0.3-0.6-0.6l-4.3-6.5c-0.2-0.2-0.3-0.4-0.5-0.5
				c-0.2-0.1-0.5-0.2-0.8-0.2H204.3z M204.3,139.9h2.4c0.7,0,1.3-0.1,1.9-0.3s1-0.4,1.3-0.7c0.3-0.3,0.6-0.7,0.8-1.1
				c0.2-0.4,0.3-0.9,0.3-1.4c0-1-0.3-1.8-1-2.4s-1.7-0.8-3.1-0.8h-2.4V139.9z"/>
			<path class="st0" d="M224.5,136c0.9,0,1.7,0.1,2.5,0.4c0.8,0.3,1.4,0.7,2,1.3c0.6,0.6,1,1.2,1.3,2s0.5,1.7,0.5,2.8
				c0,0.3,0,0.5,0,0.7s-0.1,0.3-0.1,0.4c-0.1,0.1-0.1,0.2-0.2,0.2c-0.1,0-0.2,0.1-0.4,0.1H221c0.1,1.5,0.5,2.6,1.2,3.2
				c0.7,0.7,1.6,1,2.7,1c0.6,0,1-0.1,1.4-0.2c0.4-0.1,0.8-0.3,1.1-0.4c0.3-0.2,0.6-0.3,0.8-0.4c0.2-0.1,0.5-0.2,0.7-0.2
				c0.1,0,0.3,0,0.4,0.1c0.1,0.1,0.2,0.1,0.3,0.2l1,1.3c-0.4,0.4-0.8,0.8-1.3,1.1c-0.5,0.3-1,0.5-1.5,0.7c-0.5,0.2-1,0.3-1.6,0.4
				c-0.5,0.1-1.1,0.1-1.6,0.1c-1,0-1.9-0.2-2.8-0.5c-0.9-0.3-1.6-0.8-2.2-1.5s-1.1-1.5-1.5-2.4c-0.4-1-0.5-2.1-0.5-3.3
				c0-1,0.2-1.9,0.5-2.8s0.8-1.6,1.4-2.3c0.6-0.6,1.3-1.1,2.2-1.5C222.5,136.2,223.4,136,224.5,136z M224.6,138.4
				c-1,0-1.8,0.3-2.4,0.9s-0.9,1.4-1.1,2.4h6.5c0-0.4-0.1-0.9-0.2-1.3c-0.1-0.4-0.3-0.7-0.6-1s-0.6-0.5-1-0.7
				C225.5,138.5,225.1,138.4,224.6,138.4z M229.4,130.1l-3.5,3.7c-0.2,0.2-0.3,0.3-0.5,0.4c-0.2,0.1-0.4,0.1-0.6,0.1h-2.1l2-3.4
				c0.1-0.2,0.3-0.4,0.5-0.6c0.2-0.1,0.5-0.2,0.8-0.2H229.4z"/>
			<path class="st0" d="M243.6,139.2c-0.1,0.1-0.2,0.2-0.3,0.3c-0.1,0.1-0.2,0.1-0.4,0.1c-0.2,0-0.4-0.1-0.5-0.2
				c-0.2-0.1-0.4-0.2-0.6-0.4c-0.2-0.1-0.5-0.3-0.8-0.4c-0.3-0.1-0.7-0.2-1.2-0.2c-0.6,0-1.1,0.1-1.6,0.3c-0.5,0.2-0.8,0.5-1.1,0.9
				c-0.3,0.4-0.5,0.9-0.7,1.5c-0.1,0.6-0.2,1.2-0.2,2c0,0.8,0.1,1.4,0.2,2c0.2,0.6,0.4,1.1,0.7,1.5s0.7,0.7,1.1,0.9
				c0.4,0.2,0.9,0.3,1.5,0.3s1-0.1,1.3-0.2c0.3-0.1,0.6-0.3,0.9-0.4c0.2-0.2,0.4-0.3,0.6-0.4c0.2-0.1,0.4-0.2,0.6-0.2
				c0.3,0,0.5,0.1,0.6,0.3l1,1.3c-0.4,0.4-0.8,0.8-1.2,1.1c-0.4,0.3-0.9,0.5-1.4,0.7c-0.5,0.2-1,0.3-1.5,0.4c-0.5,0.1-1,0.1-1.5,0.1
				c-0.9,0-1.7-0.2-2.5-0.5c-0.8-0.3-1.5-0.8-2.1-1.4c-0.6-0.6-1-1.4-1.4-2.3c-0.3-0.9-0.5-2-0.5-3.1c0-1.1,0.2-2,0.5-2.9
				c0.3-0.9,0.7-1.7,1.3-2.3c0.6-0.7,1.3-1.2,2.2-1.5c0.9-0.4,1.9-0.6,3-0.6c1.1,0,2,0.2,2.8,0.5c0.8,0.3,1.5,0.8,2.2,1.5
				L243.6,139.2z"/>
			<path class="st0" d="M253,136c1.1,0,2,0.2,2.9,0.5c0.9,0.3,1.6,0.8,2.2,1.5c0.6,0.6,1.1,1.4,1.4,2.3c0.3,0.9,0.5,1.9,0.5,3.1
				c0,1.1-0.2,2.2-0.5,3.1s-0.8,1.7-1.4,2.3c-0.6,0.6-1.4,1.1-2.2,1.5c-0.9,0.3-1.8,0.5-2.9,0.5s-2-0.2-2.9-0.5
				c-0.9-0.3-1.6-0.8-2.2-1.5c-0.6-0.6-1.1-1.4-1.4-2.3c-0.3-0.9-0.5-1.9-0.5-3.1c0-1.1,0.2-2.2,0.5-3.1c0.3-0.9,0.8-1.7,1.4-2.3
				c0.6-0.6,1.4-1.1,2.2-1.5C251,136.1,251.9,136,253,136z M253,148.1c1.2,0,2.1-0.4,2.7-1.2c0.6-0.8,0.9-2,0.9-3.5
				c0-1.5-0.3-2.7-0.9-3.5c-0.6-0.8-1.5-1.2-2.7-1.2c-1.2,0-2.1,0.4-2.7,1.2s-0.9,2-0.9,3.5s0.3,2.7,0.9,3.5
				C250.9,147.7,251.8,148.1,253,148.1z"/>
			<path class="st0" d="M266.5,129.8v20.8H263v-20.8H266.5z"/>
			<path class="st0" d="M275.1,150.8c-1.2,0-2.2-0.4-2.9-1.1c-0.7-0.7-1-1.7-1-2.9v-8h-1.5c-0.2,0-0.3-0.1-0.5-0.2s-0.2-0.3-0.2-0.5
				v-1.4l2.3-0.4l0.7-3.9c0-0.2,0.1-0.3,0.3-0.4c0.1-0.1,0.3-0.2,0.5-0.2h1.8v4.5h3.8v2.5h-3.8v7.8c0,0.4,0.1,0.8,0.3,1
				s0.5,0.4,0.9,0.4c0.2,0,0.4,0,0.5-0.1c0.1-0.1,0.3-0.1,0.4-0.2c0.1-0.1,0.2-0.1,0.3-0.2c0.1-0.1,0.2-0.1,0.3-0.1
				c0.1,0,0.2,0,0.3,0.1c0.1,0.1,0.1,0.1,0.2,0.2l1,1.7c-0.5,0.4-1.1,0.7-1.7,1C276.5,150.7,275.8,150.8,275.1,150.8z"/>
			<path class="st0" d="M287.2,136c0.9,0,1.7,0.1,2.5,0.4c0.8,0.3,1.4,0.7,2,1.3c0.6,0.6,1,1.2,1.3,2s0.5,1.7,0.5,2.8
				c0,0.3,0,0.5,0,0.7s-0.1,0.3-0.1,0.4c-0.1,0.1-0.1,0.2-0.2,0.2c-0.1,0-0.2,0.1-0.4,0.1h-8.9c0.1,1.5,0.5,2.6,1.2,3.2
				c0.7,0.7,1.6,1,2.7,1c0.6,0,1-0.1,1.4-0.2c0.4-0.1,0.8-0.3,1.1-0.4c0.3-0.2,0.6-0.3,0.8-0.4c0.2-0.1,0.5-0.2,0.7-0.2
				c0.1,0,0.3,0,0.4,0.1c0.1,0.1,0.2,0.1,0.3,0.2l1,1.3c-0.4,0.4-0.8,0.8-1.3,1.1c-0.5,0.3-1,0.5-1.5,0.7c-0.5,0.2-1,0.3-1.6,0.4
				c-0.5,0.1-1.1,0.1-1.6,0.1c-1,0-1.9-0.2-2.8-0.5c-0.9-0.3-1.6-0.8-2.2-1.5s-1.1-1.5-1.5-2.4c-0.4-1-0.5-2.1-0.5-3.3
				c0-1,0.2-1.9,0.5-2.8s0.8-1.6,1.4-2.3c0.6-0.6,1.3-1.1,2.2-1.5C285.1,136.2,286.1,136,287.2,136z M287.2,138.4
				c-1,0-1.8,0.3-2.4,0.9s-0.9,1.4-1.1,2.4h6.5c0-0.4-0.1-0.9-0.2-1.3c-0.1-0.4-0.3-0.7-0.6-1s-0.6-0.5-1-0.7
				C288.2,138.5,287.7,138.4,287.2,138.4z"/>
			<path class="st0" d="M304.7,139c-0.1,0.1-0.2,0.3-0.3,0.3c-0.1,0.1-0.2,0.1-0.4,0.1c-0.2,0-0.3,0-0.5-0.1
				c-0.2-0.1-0.4-0.2-0.7-0.3c-0.3-0.1-0.5-0.2-0.9-0.3c-0.3-0.1-0.7-0.1-1.1-0.1c-0.7,0-1.2,0.1-1.6,0.4s-0.6,0.7-0.6,1.1
				c0,0.3,0.1,0.6,0.3,0.8s0.5,0.4,0.8,0.6c0.3,0.2,0.7,0.3,1.1,0.4c0.4,0.1,0.8,0.3,1.3,0.4c0.4,0.1,0.9,0.3,1.3,0.5
				c0.4,0.2,0.8,0.4,1.1,0.7s0.6,0.6,0.8,1.1c0.2,0.4,0.3,0.9,0.3,1.5c0,0.7-0.1,1.3-0.4,1.9c-0.3,0.6-0.6,1.1-1.1,1.5
				c-0.5,0.4-1.1,0.8-1.8,1c-0.7,0.2-1.5,0.4-2.5,0.4c-0.5,0-1,0-1.4-0.1c-0.5-0.1-0.9-0.2-1.4-0.4c-0.4-0.2-0.8-0.3-1.2-0.6
				s-0.7-0.4-1-0.7l0.8-1.3c0.1-0.2,0.2-0.3,0.4-0.4s0.3-0.1,0.5-0.1c0.2,0,0.4,0.1,0.6,0.2c0.2,0.1,0.4,0.3,0.7,0.4
				c0.3,0.1,0.5,0.3,0.9,0.4s0.8,0.2,1.3,0.2c0.4,0,0.8,0,1.1-0.1c0.3-0.1,0.5-0.2,0.7-0.4c0.2-0.2,0.3-0.3,0.4-0.6s0.1-0.4,0.1-0.7
				c0-0.3-0.1-0.6-0.3-0.8s-0.5-0.4-0.8-0.6c-0.3-0.2-0.7-0.3-1.1-0.4c-0.4-0.1-0.9-0.3-1.3-0.4s-0.9-0.3-1.3-0.5
				c-0.4-0.2-0.8-0.5-1.1-0.8c-0.3-0.3-0.6-0.7-0.8-1.1s-0.3-1-0.3-1.6c0-0.6,0.1-1.1,0.4-1.7s0.6-1,1-1.4c0.5-0.4,1-0.7,1.7-1
				c0.7-0.2,1.5-0.4,2.3-0.4c1,0,1.9,0.2,2.7,0.5c0.8,0.3,1.5,0.8,2,1.3L304.7,139z"/>
		</g>
	</g>
	<g>
		<g>
			<path d="M501.1,46.7h-1.8v-5.3h1.8c1.4,0,2.5-1.1,2.5-2.5V24.8c0-1.4-1.1-2.5-2.5-2.5h-1.8v-3.2c0-4.5-3.7-8.2-8.2-8.2
				c-1.4,0-2.5,1.1-2.5,2.5c0,1.4,1.1,2.5,2.5,2.5c1.8,0,3.2,1.4,3.2,3.2v3.2h-1.8c-1.4,0-2.5,1.1-2.5,2.5V39c0,1.4,1.1,2.5,2.5,2.5
				h1.8v5.3H475l-14.9-30.3c-1.3-2.6-3.8-4.2-6.7-4.2h-33.5c-6.9,0-12.5,5.6-12.5,12.5v30c-6.1,5.7-9.5,13.6-9.5,21.9
				c0,16.5,13.4,29.9,29.9,29.9c10.1,0,19.6-5.2,25.1-13.6h28.4c0.9,7.6,7.4,13.6,15.2,13.6c7.9,0,14.4-5.9,15.2-13.6h3.7
				c1.4,0,2.5-1.1,2.5-2.5V63.5C517.9,54.3,510.4,46.7,501.1,46.7L501.1,46.7z M495,27.2h3.6v9.2H495V27.2z M459,25.4l10.5,21.3
				h-22.3V25.4H459z M412.4,24.7c0-4.1,3.4-7.5,7.5-7.5h33.5c1,0,1.8,0.5,2.2,1.4l0.9,1.8h-35.9c-2.7,0-5,2.2-5,5v21.3
				c0,0.8,0.2,1.6,0.6,2.3c-1.3,0.6-2.6,1.2-3.8,1.9V24.7z M442.2,25.4v21.3h-21.6V25.4H442.2z M449.3,89.2
				c-4.5,7.6-12.7,12.4-21.5,12.4c-13.7,0-24.9-11.2-24.9-24.9c0-7.3,3.2-14.1,8.7-18.9c4.5-3.9,10.3-6,16.2-6h0.1
				c13.7,0,24.9,11.2,24.9,24.9C452.7,81,451.6,85.4,449.3,89.2L449.3,89.2z M444.3,51.7h17.6c-1.9,2.3-3,5.3-3,8.5v14h-1.3
				C456.8,64.8,451.7,56.6,444.3,51.7L444.3,51.7z M496.5,101.5c-5.7,0-10.4-4.6-10.4-10.4c0-5.7,4.7-10.4,10.4-10.4
				c5.7,0,10.4,4.6,10.4,10.4C506.9,96.9,502.2,101.5,496.5,101.5L496.5,101.5z M512.9,88h-1.5c-1.5-6.9-7.6-12.1-15-12.1
				c-7.4,0-13.5,5.2-15,12.1h-26c1.2-2.8,1.9-5.8,2.1-8.9h3.8c1.4,0,2.5-1.1,2.5-2.5V60.2c0-4.7,3.8-8.5,8.4-8.5h28.8
				c6.5,0,11.9,5.3,11.9,11.9L512.9,88L512.9,88z M512.9,88"/>
			<path d="M493.9,57.4h-13.1c-1.4,0-2.5,1.1-2.5,2.5c0,1.4,1.1,2.5,2.5,2.5h13.1c1.4,0,2.5-1.1,2.5-2.5
				C496.4,58.5,495.3,57.4,493.9,57.4L493.9,57.4z M493.9,57.4"/>
			<path d="M493.9,65.8h-13.1c-1.4,0-2.5,1.1-2.5,2.5c0,1.4,1.1,2.5,2.5,2.5h13.1c1.4,0,2.5-1.1,2.5-2.5
				C496.4,66.9,495.3,65.8,493.9,65.8L493.9,65.8z M493.9,65.8"/>
			<path d="M427.8,60.3c-9,0-16.3,7.3-16.3,16.3c0,9,7.3,16.3,16.3,16.3c9,0,16.3-7.3,16.3-16.3C444.1,67.6,436.8,60.3,427.8,60.3
				L427.8,60.3z M427.8,88c-6.3,0-11.3-5.1-11.3-11.3c0-6.3,5.1-11.3,11.3-11.3c6.3,0,11.3,5.1,11.3,11.3
				C439.2,82.9,434.1,88,427.8,88L427.8,88z M427.8,88"/>
		</g>
		<g>
			<path class="st0" d="M394.4,130.3v3h-9v5.6h7.1v2.9h-7.1v5.7h9v3h-12.8v-20.2H394.4z M393.6,125.5l-4.1,3
				c-0.1,0.1-0.2,0.1-0.3,0.2c-0.1,0-0.2,0.1-0.3,0.1c-0.1,0-0.2,0-0.3,0.1c-0.1,0-0.2,0-0.3,0h-2.7l2.7-2.8
				c0.1-0.1,0.2-0.2,0.3-0.3c0.1-0.1,0.2-0.1,0.3-0.2s0.2-0.1,0.4-0.1c0.1,0,0.3,0,0.5,0H393.6z"/>
			<path class="st0" d="M409.7,136.2v19.1h-3.5v-6.5c-0.3,0.3-0.6,0.6-0.9,0.8c-0.3,0.2-0.7,0.5-1,0.6c-0.4,0.2-0.8,0.3-1.2,0.4
				c-0.4,0.1-0.9,0.1-1.3,0.1c-0.8,0-1.5-0.2-2.2-0.5c-0.7-0.3-1.2-0.8-1.7-1.4c-0.5-0.6-0.8-1.4-1.1-2.3c-0.3-0.9-0.4-2-0.4-3.1
				c0-1.1,0.1-2.1,0.4-3c0.3-0.9,0.7-1.7,1.2-2.4s1.2-1.2,1.9-1.6c0.8-0.4,1.6-0.6,2.5-0.6c0.4,0,0.9,0,1.2,0.1
				c0.4,0.1,0.7,0.2,1,0.3s0.6,0.3,0.9,0.5c0.3,0.2,0.5,0.4,0.8,0.7l0.2-0.8c0-0.2,0.1-0.4,0.3-0.5c0.2-0.1,0.4-0.2,0.6-0.2H409.7z
				 M402.9,148c0.7,0,1.3-0.1,1.8-0.4c0.5-0.3,1-0.7,1.4-1.3v-6.4c-0.4-0.5-0.8-0.8-1.3-1c-0.5-0.2-1-0.3-1.5-0.3
				c-0.5,0-1,0.1-1.4,0.3c-0.4,0.2-0.8,0.5-1.1,0.9c-0.3,0.4-0.5,0.9-0.7,1.5c-0.2,0.6-0.2,1.3-0.2,2.2c0,0.8,0.1,1.6,0.2,2.1
				c0.1,0.6,0.3,1.1,0.6,1.4c0.3,0.4,0.6,0.6,0.9,0.8C402.1,147.9,402.5,148,402.9,148z"/>
			<path class="st0" d="M416.6,136.2v9.1c0,0.9,0.2,1.6,0.6,2c0.4,0.5,1,0.7,1.8,0.7c0.6,0,1.2-0.1,1.7-0.4c0.5-0.3,1-0.6,1.5-1.1
				v-10.4h3.5v14.4h-2.1c-0.4,0-0.7-0.2-0.9-0.6l-0.2-1.1c-0.3,0.3-0.6,0.6-0.9,0.8c-0.3,0.2-0.7,0.5-1,0.6s-0.7,0.3-1.2,0.4
				c-0.4,0.1-0.9,0.1-1.3,0.1c-0.8,0-1.5-0.1-2.1-0.4c-0.6-0.3-1.1-0.6-1.5-1.1c-0.4-0.5-0.7-1.1-0.9-1.7c-0.2-0.7-0.3-1.4-0.3-2.2
				v-9.1H416.6z"/>
			<path class="st0" d="M433.5,132c0,0.3-0.1,0.6-0.2,0.8c-0.1,0.3-0.3,0.5-0.5,0.7c-0.2,0.2-0.4,0.4-0.7,0.5
				c-0.3,0.1-0.6,0.2-0.9,0.2c-0.3,0-0.6-0.1-0.8-0.2c-0.3-0.1-0.5-0.3-0.7-0.5c-0.2-0.2-0.4-0.4-0.5-0.7c-0.1-0.3-0.2-0.5-0.2-0.8
				c0-0.3,0.1-0.6,0.2-0.9c0.1-0.3,0.3-0.5,0.5-0.7s0.4-0.4,0.7-0.5c0.3-0.1,0.5-0.2,0.8-0.2c0.3,0,0.6,0.1,0.9,0.2
				c0.3,0.1,0.5,0.3,0.7,0.5c0.2,0.2,0.4,0.4,0.5,0.7C433.4,131.4,433.5,131.7,433.5,132z M433,136.2v14.4h-3.5v-14.4H433z"/>
			<path class="st0" d="M436.9,155.2v-19.1h2.1c0.2,0,0.4,0.1,0.6,0.2c0.2,0.1,0.3,0.3,0.3,0.5l0.3,1.3c0.6-0.7,1.2-1.2,2-1.6
				c0.8-0.4,1.6-0.6,2.6-0.6c0.8,0,1.5,0.2,2.2,0.5c0.6,0.3,1.2,0.8,1.7,1.4c0.5,0.6,0.8,1.4,1.1,2.3c0.3,0.9,0.4,2,0.4,3.1
				c0,1.1-0.1,2.1-0.4,3c-0.3,0.9-0.7,1.7-1.2,2.4c-0.5,0.7-1.2,1.2-1.9,1.6c-0.8,0.4-1.6,0.6-2.6,0.6c-0.8,0-1.5-0.1-2.1-0.4
				c-0.6-0.2-1.1-0.6-1.5-1v5.9H436.9z M443.6,138.7c-0.7,0-1.3,0.2-1.8,0.5c-0.5,0.3-1,0.7-1.4,1.3v6.4c0.4,0.5,0.8,0.8,1.3,1
				c0.5,0.2,1,0.3,1.5,0.3c0.5,0,1-0.1,1.4-0.3c0.4-0.2,0.8-0.5,1.1-0.9c0.3-0.4,0.5-0.9,0.7-1.5c0.2-0.6,0.2-1.3,0.2-2.2
				c0-0.8-0.1-1.6-0.2-2.1c-0.1-0.6-0.3-1.1-0.6-1.4c-0.3-0.4-0.6-0.6-0.9-0.8S444.1,138.7,443.6,138.7z"/>
			<path class="st0" d="M458.7,136c0.9,0,1.7,0.1,2.5,0.4c0.8,0.3,1.4,0.7,2,1.3c0.6,0.6,1,1.2,1.3,2s0.5,1.7,0.5,2.8
				c0,0.3,0,0.5,0,0.7s-0.1,0.3-0.1,0.4c-0.1,0.1-0.1,0.2-0.2,0.2c-0.1,0-0.2,0.1-0.4,0.1h-8.9c0.1,1.5,0.5,2.6,1.2,3.2
				c0.7,0.7,1.6,1,2.7,1c0.6,0,1-0.1,1.4-0.2s0.8-0.3,1.1-0.4c0.3-0.2,0.6-0.3,0.8-0.4c0.2-0.1,0.5-0.2,0.7-0.2c0.1,0,0.3,0,0.4,0.1
				c0.1,0.1,0.2,0.1,0.3,0.2l1,1.3c-0.4,0.4-0.8,0.8-1.3,1.1c-0.5,0.3-1,0.5-1.5,0.7c-0.5,0.2-1,0.3-1.6,0.4
				c-0.5,0.1-1.1,0.1-1.6,0.1c-1,0-1.9-0.2-2.8-0.5c-0.9-0.3-1.6-0.8-2.2-1.5s-1.1-1.5-1.5-2.4c-0.4-1-0.5-2.1-0.5-3.3
				c0-1,0.2-1.9,0.5-2.8c0.3-0.9,0.8-1.6,1.4-2.3c0.6-0.6,1.3-1.1,2.2-1.5C456.6,136.2,457.6,136,458.7,136z M458.7,138.4
				c-1,0-1.8,0.3-2.4,0.9c-0.6,0.6-0.9,1.4-1.1,2.4h6.5c0-0.4-0.1-0.9-0.2-1.3c-0.1-0.4-0.3-0.7-0.6-1s-0.6-0.5-1-0.7
				C459.7,138.5,459.3,138.4,458.7,138.4z"/>
			<path class="st0" d="M467.7,150.6v-14.4h2.1c0.4,0,0.7,0.2,0.9,0.6l0.2,1.1c0.3-0.3,0.5-0.5,0.8-0.8c0.3-0.2,0.6-0.4,0.9-0.6
				s0.6-0.3,1-0.4c0.4-0.1,0.8-0.1,1.2-0.1c0.9,0,1.6,0.2,2.2,0.7c0.6,0.5,1,1.1,1.3,2c0.2-0.5,0.5-0.9,0.8-1.2s0.7-0.6,1.1-0.8
				s0.8-0.4,1.3-0.5c0.5-0.1,0.9-0.2,1.4-0.2c0.8,0,1.5,0.1,2.1,0.4c0.6,0.2,1.1,0.6,1.6,1.1s0.7,1,1,1.7c0.2,0.7,0.3,1.4,0.3,2.3
				v9.1h-3.5v-9.1c0-0.9-0.2-1.6-0.6-2.1s-1-0.7-1.8-0.7c-0.4,0-0.7,0.1-1,0.2s-0.6,0.3-0.8,0.5c-0.2,0.2-0.4,0.5-0.5,0.9
				c-0.1,0.3-0.2,0.7-0.2,1.2v9.1h-3.5v-9.1c0-1-0.2-1.7-0.6-2.1c-0.4-0.4-1-0.7-1.7-0.7c-0.5,0-1,0.1-1.4,0.4
				c-0.4,0.2-0.8,0.6-1.2,1v10.5H467.7z"/>
			<path class="st0" d="M497.2,136c0.9,0,1.7,0.1,2.5,0.4c0.8,0.3,1.4,0.7,2,1.3c0.6,0.6,1,1.2,1.3,2c0.3,0.8,0.5,1.7,0.5,2.8
				c0,0.3,0,0.5,0,0.7s-0.1,0.3-0.1,0.4c-0.1,0.1-0.1,0.2-0.2,0.2s-0.2,0.1-0.4,0.1h-8.9c0.1,1.5,0.5,2.6,1.2,3.2s1.6,1,2.7,1
				c0.6,0,1-0.1,1.4-0.2c0.4-0.1,0.8-0.3,1.1-0.4c0.3-0.2,0.6-0.3,0.8-0.4c0.2-0.1,0.5-0.2,0.7-0.2c0.1,0,0.3,0,0.4,0.1
				c0.1,0.1,0.2,0.1,0.3,0.2l1,1.3c-0.4,0.4-0.8,0.8-1.3,1.1c-0.5,0.3-1,0.5-1.5,0.7s-1,0.3-1.6,0.4c-0.5,0.1-1.1,0.1-1.6,0.1
				c-1,0-1.9-0.2-2.8-0.5c-0.9-0.3-1.6-0.8-2.2-1.5s-1.1-1.5-1.5-2.4s-0.5-2.1-0.5-3.3c0-1,0.2-1.9,0.5-2.8s0.8-1.6,1.4-2.3
				s1.3-1.1,2.2-1.5C495.2,136.2,496.1,136,497.2,136z M497.3,138.4c-1,0-1.8,0.3-2.4,0.9s-0.9,1.4-1.1,2.4h6.5
				c0-0.4-0.1-0.9-0.2-1.3c-0.1-0.4-0.3-0.7-0.6-1s-0.6-0.5-1-0.7C498.2,138.5,497.8,138.4,497.3,138.4z"/>
			<path class="st0" d="M506.2,150.6v-14.4h2.1c0.4,0,0.7,0.2,0.9,0.6l0.2,1.1c0.3-0.3,0.6-0.6,0.9-0.8c0.3-0.2,0.7-0.5,1-0.6
				c0.4-0.2,0.7-0.3,1.2-0.4c0.4-0.1,0.9-0.1,1.3-0.1c0.8,0,1.5,0.1,2.1,0.4c0.6,0.3,1.1,0.6,1.5,1.1c0.4,0.5,0.7,1.1,0.9,1.7
				c0.2,0.7,0.3,1.4,0.3,2.2v9.1h-3.5v-9.1c0-0.9-0.2-1.6-0.6-2c-0.4-0.5-1-0.7-1.8-0.7c-0.6,0-1.2,0.1-1.7,0.4
				c-0.5,0.3-1,0.6-1.5,1.1v10.4H506.2z"/>
			<path class="st0" d="M526.9,150.8c-1.2,0-2.2-0.4-2.9-1.1c-0.7-0.7-1-1.7-1-2.9v-8h-1.5c-0.2,0-0.3-0.1-0.5-0.2s-0.2-0.3-0.2-0.5
				v-1.4l2.3-0.4l0.7-3.9c0-0.2,0.1-0.3,0.3-0.4c0.1-0.1,0.3-0.2,0.5-0.2h1.8v4.5h3.8v2.5h-3.8v7.8c0,0.4,0.1,0.8,0.3,1
				c0.2,0.3,0.5,0.4,0.9,0.4c0.2,0,0.4,0,0.5-0.1c0.1-0.1,0.3-0.1,0.4-0.2c0.1-0.1,0.2-0.1,0.3-0.2c0.1-0.1,0.2-0.1,0.3-0.1
				c0.1,0,0.2,0,0.3,0.1c0.1,0.1,0.1,0.1,0.2,0.2l1,1.7c-0.5,0.4-1.1,0.7-1.7,1C528.3,150.7,527.6,150.8,526.9,150.8z"/>
			<path class="st0" d="M541.5,139c-0.1,0.1-0.2,0.3-0.3,0.3s-0.2,0.1-0.4,0.1c-0.2,0-0.3,0-0.5-0.1c-0.2-0.1-0.4-0.2-0.7-0.3
				c-0.3-0.1-0.5-0.2-0.9-0.3c-0.3-0.1-0.7-0.1-1.1-0.1c-0.7,0-1.2,0.1-1.6,0.4s-0.6,0.7-0.6,1.1c0,0.3,0.1,0.6,0.3,0.8
				s0.5,0.4,0.8,0.6c0.3,0.2,0.7,0.3,1.1,0.4c0.4,0.1,0.8,0.3,1.3,0.4c0.4,0.1,0.9,0.3,1.3,0.5c0.4,0.2,0.8,0.4,1.1,0.7
				s0.6,0.6,0.8,1.1c0.2,0.4,0.3,0.9,0.3,1.5c0,0.7-0.1,1.3-0.4,1.9c-0.3,0.6-0.6,1.1-1.1,1.5s-1.1,0.8-1.8,1
				c-0.7,0.2-1.5,0.4-2.5,0.4c-0.5,0-1,0-1.4-0.1s-0.9-0.2-1.4-0.4c-0.4-0.2-0.8-0.3-1.2-0.6c-0.4-0.2-0.7-0.4-1-0.7l0.8-1.3
				c0.1-0.2,0.2-0.3,0.4-0.4s0.3-0.1,0.5-0.1s0.4,0.1,0.6,0.2c0.2,0.1,0.4,0.3,0.7,0.4c0.3,0.1,0.5,0.3,0.9,0.4
				c0.3,0.1,0.8,0.2,1.3,0.2c0.4,0,0.8,0,1.1-0.1c0.3-0.1,0.5-0.2,0.7-0.4c0.2-0.2,0.3-0.3,0.4-0.6c0.1-0.2,0.1-0.4,0.1-0.7
				c0-0.3-0.1-0.6-0.3-0.8c-0.2-0.2-0.5-0.4-0.8-0.6c-0.3-0.2-0.7-0.3-1.1-0.4c-0.4-0.1-0.9-0.3-1.3-0.4s-0.9-0.3-1.3-0.5
				c-0.4-0.2-0.8-0.5-1.1-0.8c-0.3-0.3-0.6-0.7-0.8-1.1c-0.2-0.4-0.3-1-0.3-1.6c0-0.6,0.1-1.1,0.4-1.7c0.2-0.5,0.6-1,1-1.4
				c0.5-0.4,1-0.7,1.7-1c0.7-0.2,1.5-0.4,2.3-0.4c1,0,1.9,0.2,2.7,0.5c0.8,0.3,1.5,0.8,2,1.3L541.5,139z"/>
		</g>
	</g>
	<g>
		<g>
			<path class="st1" d="M714.8,47.1c-2.7-1.5-5.4-2.3-6.2-2.3c-0.4,0-1.4,0.7-2,1.2c-1.5,1.1-3.6,2.7-6.1,2.4
				c-0.2,1.5-0.3,3-0.5,4.7c1.3,1.9,3.8,3.9,8.9,2.9c2.4-0.5,5-1.6,7.1-3c2-1.3,2.8-2.3,3-2.6C718.7,49.9,717.8,48.7,714.8,47.1z"/>
			<path class="st1" d="M690.3,27.2c-3.6-1.6-10.5-2.6-17.5-2.6c-7,0-13.9,1-17.5,2.6c-4.1,1.8-7,6-6.8,9.8c0,0,0,0.1,0,0.2
				c0,2.7,1,14.2,2.8,26.7c1.2,8.6,3.3,20.3,6,28.7c1.3-4,4.9-6.8,9.1-6.8l12.7,0.1c4.1,0,7.9,2.7,9.3,6.4
				c2.7-8.4,4.7-19.9,5.9-28.3c1.8-12.1,2.7-23.5,2.8-26.5c0-0.2,0-0.5,0-0.7C697.1,32.9,694.3,28.9,690.3,27.2z M655.6,57.2
				C655.6,57.2,655.6,57.2,655.6,57.2c-1.7,0-3.1-1.4-3.1-3.1c0-1.7,1.4-3.1,3.1-3.1c0,0,0,0,0,0c1.7,0,3.1,1.4,3.1,3.1
				C658.7,55.7,657.3,57.1,655.6,57.2z M670.9,38.5L670.9,38.5c-0.5,0-0.9-0.2-1.2-0.6c-0.3-0.4-0.4-0.9-0.3-1.3l0.7-2.7
				c-4.4,2.1-11.7,4.8-17.7,4.8h0c-0.9,0-1.5-0.7-1.6-1.5c0-0.9,0.7-1.6,1.5-1.6c7.1-0.1,16.7-4.3,19.1-6.1c0.5-0.4,1.2-0.4,1.8,0
				c0.5,0.4,0.8,1,0.6,1.7l-1,4c4.6-0.9,11-4.3,12.2-5.6c0.6-0.6,1.6-0.7,2.2-0.1c0.6,0.6,0.7,1.6,0.1,2.2
				C685.4,33.8,676.3,38.4,670.9,38.5z M687,35.5c0.9-0.6,2.3-2.2,2.8-2.8c0.5-0.7,1.5-0.8,2.2-0.2c0.7,0.5,0.8,1.5,0.2,2.2
				c-0.2,0.2-2,2.4-3.4,3.4c-0.3,0.2-0.6,0.3-0.9,0.3c-0.5,0-1-0.2-1.3-0.7C686.1,37,686.3,36,687,35.5z M691.8,55.9
				c-0.6,0.6-1.4,0.9-2.2,0.9c0,0,0,0,0,0c-1.7,0-3.1-1.4-3.1-3.1c0-0.8,0.3-1.6,0.9-2.2c0.6-0.6,1.4-0.9,2.2-0.9
				c0.8,0,1.6,0.3,2.2,0.9c0.6,0.6,0.9,1.4,0.9,2.2C692.7,54.6,692.3,55.3,691.8,55.9z"/>
			<path class="st1" d="M718.5,19.3c-0.6,2.3-1.2,4-1.8,5.1c-0.8,1.4-2.7,3-11.4,4.4h0c-2.3,0.4-4.5,0.7-6.1,0.8
				c0.9,1.5,1.6,3.1,1.9,4.7c6.9-2.1,14.7-5.1,16.9-7.6C719,25.5,719.2,22.8,718.5,19.3z"/>
			<path class="st1" d="M640.4,28.8c-8.7-1.4-10.6-3-11.4-4.4c-0.6-1.1-1.2-2.8-1.8-5.1c-0.7,3.5-0.5,6.2,0.6,7.5
				c2.2,2.5,10.3,5.7,16.8,7.7c0.3-1.6,1-3.3,1.9-4.8C644.8,29.5,642.6,29.2,640.4,28.8z"/>
			<path class="st1" d="M626.8,51.1c0.2,0.3,1,1.3,3,2.6c2.2,1.4,4.8,2.4,7.2,2.9c5.1,0.9,7.6-1.1,8.9-3c-0.2-1.7-0.4-3.2-0.5-4.7
				c-2.6,0.4-4.7-1.1-6.3-2.2c-0.7-0.5-1.7-1.2-2-1.2c-0.8,0-3.5,0.9-6.2,2.4C627.8,49.4,626.9,50.7,626.8,51.1z"/>
			<path class="st1" d="M663.9,104.3C663.9,104.3,663.9,104.3,663.9,104.3l18.2,0c1.3,0,2.4-0.6,3.2-1.6c0.8-1,1-2.3,0.7-3.5l-1.3-5
				c-0.1-0.5-0.3-0.9-0.5-1.4c-0.1,0.2-0.2,0.4-0.3,0.6c-0.4,0.7-1.1,1.3-1.7,1.9c-0.6,0.6-0.9,0.9-1,1.1c0.1,0.1,0.3,0.3,0.7,0.5
				c0.5,0.3,0.8,0.8,0.9,1.3c0.1,0.5,0,1.1-0.3,1.5c-0.6,0.9-1.9,1.2-2.8,0.6c-1.6-1.1-2.4-2.2-2.5-3.6c-0.2-2,1.3-3.4,2.3-4.4
				c0.4-0.4,0.8-0.8,1-1.1c0.1-0.1,0.1-0.6,0-0.9c-0.2-0.5-1-0.6-1.5-0.6l-12.2-0.1c-0.4,0-1.1,0.2-1.4,0.6c-0.2,0.3-0.1,0.8,0,0.9
				c0.2,0.3,0.7,0.7,1.1,1.1c1.1,1,2.6,2.4,2.5,4.4c-0.1,1.3-0.9,2.5-2.4,3.6c-0.9,0.6-2.2,0.4-2.9-0.5c-0.6-0.9-0.4-2.2,0.5-2.9
				c0.3-0.2,0.5-0.4,0.6-0.5c-0.2-0.2-0.5-0.5-1.1-1c-0.6-0.6-1.3-1.2-1.8-1.9c-0.1-0.2-0.2-0.3-0.3-0.5c-0.2,0.4-0.3,0.8-0.4,1.2
				l-1.2,5c-0.3,1.2,0,2.5,0.8,3.5C661.5,103.7,662.6,104.3,663.9,104.3z"/>
			<path d="M655.6,51C655.6,51,655.6,51,655.6,51c-1.7,0-3.1,1.4-3.1,3.1c0,1.7,1.4,3.1,3.1,3.1c0,0,0,0,0,0c1.7,0,3.1-1.4,3.1-3.1
				C658.7,52.3,657.3,51,655.6,51z"/>
			<path d="M689.5,50.7c-0.8,0-1.6,0.3-2.2,0.9c-0.6,0.6-0.9,1.4-0.9,2.2c0,1.7,1.4,3.1,3.1,3.1c0,0,0,0,0,0c0.8,0,1.6-0.3,2.2-0.9
				c0.6-0.6,0.9-1.4,0.9-2.2c0-0.8-0.3-1.6-0.9-2.2C691.1,51,690.4,50.7,689.5,50.7z"/>
			<path d="M716.7,43.5c-2.5-1.3-6.1-2.7-8.2-2.7c-1.7,0-3.1,1-4.4,2c-1.5,1.1-2.4,1.7-3.3,1.5c0.2-2.3,0.4-4.3,0.4-5.7
				c5.1-1.5,16.4-5.1,19.8-9.2c2.1-2.5,2.5-6.5,1.3-12.1c-0.9-3.9-2.3-7.1-2.3-7.1c-0.4-0.8-1.2-1.3-2.2-1.2
				c-0.9,0.1-1.6,0.8-1.8,1.7c-0.3,2.2-1.6,9.2-2.9,11.6c0,0-1.2,1.2-8.7,2.5c-3.9,0.6-7.6,1-8.3,1c-0.1,0-0.2,0-0.2,0
				c-1.2-1-2.5-1.8-3.9-2.4c-5-2.2-13.2-3-19.2-3s-14.2,0.8-19.2,3c-1.4,0.6-2.7,1.4-3.9,2.4c-0.1,0-0.2,0-0.3,0
				c-0.7-0.1-4.4-0.4-8.3-1c-7.4-1.2-8.6-2.4-8.6-2.4v0c-1.4-2.5-2.6-9.2-3-11.6c-0.1-0.9-0.9-1.6-1.8-1.7c-0.9-0.1-1.8,0.4-2.2,1.2
				c-0.1,0.1-1.4,3.3-2.3,7.1c-1.3,5.5-0.9,9.6,1.3,12.1c3.6,4.2,15.6,8,19.8,9.2c0.1,1.5,0.3,3.6,0.5,6c-0.9,0.2-1.8-0.3-3.5-1.5
				c-1.3-0.9-2.8-2-4.5-1.9c-2.1,0-5.7,1.5-8.1,2.9c-4.1,2.3-6.2,4.7-6.2,7c0,3.3,5.9,7.2,11.3,8.8c4.9,1.4,9.3,1,12.5-1.3
				c1.5,11.4,4.5,30.9,9.2,40.8c0,0,0,0,0,0c-0.1,2,0.5,4.1,1.8,5.7c1.6,2,3.9,3.1,6.4,3.1c0,0,0,0,0.1,0l18.2,0
				c2.6,0,4.9-1.2,6.5-3.2c1.4-1.8,1.9-4,1.6-6.2c4.6-10.1,7.6-29.5,9-40.8c3.2,2.3,7.7,2.7,12.6,1.2c5.4-1.7,11.2-5.7,11.1-9
				C723,48,720.8,45.7,716.7,43.5z M718.9,50.3c-0.2,0.3-1,1.3-3,2.6c-2.2,1.4-4.8,2.5-7.1,3c-5.1,1-7.6-1-8.9-2.9
				c0.2-1.7,0.4-3.2,0.5-4.7c2.6,0.3,4.6-1.2,6.1-2.4c0.6-0.5,1.6-1.2,2-1.2c0.8,0,3.5,0.8,6.2,2.3
				C717.8,48.7,718.7,49.9,718.9,50.3z M701,34.3c-0.3-1.6-1-3.2-1.9-4.7c1.6-0.2,3.8-0.5,6.1-0.8h0c8.7-1.4,10.6-3,11.4-4.4
				c0.6-1.1,1.2-2.8,1.8-5.1c0.7,3.5,0.5,6.2-0.6,7.5C715.8,29.2,707.9,32.3,701,34.3z M697.1,37.3c-0.1,3-1,14.3-2.8,26.5
				c-1.2,8.4-3.2,19.9-5.9,28.3c-1.4-3.8-5.2-6.4-9.3-6.4l-12.7-0.1c-4.2,0-7.8,2.8-9.1,6.8c-2.8-8.4-4.8-20.1-6-28.7
				c-1.8-12.4-2.8-23.9-2.8-26.7c0-0.1,0-0.1,0-0.2c-0.2-3.8,2.7-8,6.8-9.8c3.6-1.6,10.5-2.6,17.5-2.6c7,0,13.9,1,17.5,2.6
				c3.9,1.7,6.8,5.7,6.8,9.4C697.1,36.8,697.1,37.1,697.1,37.3z M659.9,99.2l1.2-5c0.1-0.4,0.3-0.9,0.4-1.2c0.1,0.2,0.2,0.3,0.3,0.5
				c0.5,0.8,1.1,1.4,1.8,1.9c0.6,0.5,0.9,0.9,1.1,1c-0.1,0.1-0.3,0.3-0.6,0.5c-0.9,0.6-1.2,1.9-0.5,2.9c0.6,0.9,2,1.1,2.9,0.5
				c1.5-1.1,2.3-2.3,2.4-3.6c0.1-2-1.4-3.4-2.5-4.4c-0.4-0.4-0.9-0.8-1.1-1.1c-0.1-0.1-0.2-0.6,0-0.9c0.2-0.5,1-0.6,1.4-0.6
				l12.2,0.1c0.4,0,1.2,0.2,1.5,0.6c0.2,0.3,0.1,0.8,0,0.9c-0.2,0.3-0.6,0.7-1,1.1c-1,1-2.5,2.4-2.3,4.4c0.1,1.3,1,2.5,2.5,3.6
				c0.9,0.6,2.2,0.3,2.8-0.6c0.3-0.5,0.4-1,0.3-1.5c-0.1-0.5-0.4-1-0.9-1.3c-0.4-0.2-0.6-0.4-0.7-0.5c0.1-0.2,0.4-0.5,1-1.1
				c0.6-0.6,1.2-1.2,1.7-1.9c0.1-0.2,0.2-0.4,0.3-0.6c0.2,0.4,0.4,0.9,0.5,1.4l1.3,5c0.3,1.2,0.1,2.5-0.7,3.5c-0.8,1-2,1.6-3.2,1.6
				l-18.2,0c0,0,0,0,0,0c-1.3,0-2.5-0.6-3.2-1.6C659.9,101.7,659.6,100.4,659.9,99.2z M627.7,26.7c-1.1-1.3-1.3-3.9-0.6-7.5
				c0.6,2.3,1.2,4,1.8,5.1c0.8,1.4,2.7,3,11.4,4.4c2.3,0.4,4.5,0.6,6.1,0.8c-0.9,1.5-1.6,3.1-1.9,4.8
				C638,32.4,629.9,29.3,627.7,26.7z M639,46.6c1.6,1.1,3.7,2.6,6.3,2.2c0.2,1.5,0.3,3.1,0.5,4.7c-1.2,1.9-3.8,3.9-8.9,3
				c-2.4-0.4-5-1.5-7.2-2.9c-2-1.3-2.8-2.3-3-2.6c0.1-0.4,1.1-1.7,4-3.3c2.7-1.5,5.4-2.4,6.2-2.4C637.4,45.4,638.4,46.1,639,46.6z"
				/>
			<path d="M687.3,29.5c-0.6-0.6-1.6-0.5-2.2,0.1c-1.2,1.3-7.6,4.7-12.2,5.6l1-4c0.2-0.6-0.1-1.3-0.6-1.7c-0.5-0.4-1.2-0.3-1.8,0
				c-2.4,1.7-12,6-19.1,6.1c-0.9,0-1.5,0.7-1.5,1.6c0,0.9,0.7,1.5,1.6,1.5h0c5.9-0.1,13.3-2.7,17.7-4.8l-0.7,2.7
				c-0.1,0.5,0,1,0.3,1.3c0.3,0.4,0.7,0.6,1.2,0.6h0c5.5,0,14.5-4.7,16.5-6.8C688,31,687.9,30.1,687.3,29.5z"/>
			<path d="M687.8,38.3c0.3,0,0.6-0.1,0.9-0.3c1.4-1,3.2-3.2,3.4-3.4c0.5-0.7,0.4-1.6-0.2-2.2c-0.7-0.5-1.6-0.4-2.2,0.2
				c-0.5,0.6-1.9,2.2-2.8,2.8c-0.7,0.5-0.9,1.5-0.4,2.2C686.9,38.1,687.4,38.3,687.8,38.3z"/>
		</g>
		<g>
			<path d="M636.3,150.6h-2.9c-0.3,0-0.6-0.1-0.8-0.2c-0.2-0.2-0.4-0.4-0.5-0.6l-1.5-4.1h-8.4l-1.5,4.1c-0.1,0.2-0.2,0.4-0.4,0.6
				c-0.2,0.2-0.5,0.3-0.8,0.3h-2.9l8-20.2h3.8L636.3,150.6z M623.2,142.9h6.5l-2.5-6.7c-0.1-0.3-0.2-0.7-0.4-1.1
				c-0.1-0.4-0.3-0.8-0.4-1.3c-0.1,0.5-0.3,0.9-0.4,1.3c-0.1,0.4-0.2,0.8-0.4,1.1L623.2,142.9z"/>
			<path d="M638.2,150.6v-14.4h2.1c0.4,0,0.7,0.2,0.9,0.6l0.2,1.1c0.3-0.3,0.6-0.6,0.9-0.8c0.3-0.2,0.7-0.5,1-0.6
				c0.4-0.2,0.7-0.3,1.2-0.4c0.4-0.1,0.9-0.1,1.3-0.1c0.8,0,1.5,0.1,2.1,0.4c0.6,0.3,1.1,0.6,1.5,1.1c0.4,0.5,0.7,1.1,0.9,1.7
				c0.2,0.7,0.3,1.4,0.3,2.2v9.1h-3.5v-9.1c0-0.9-0.2-1.6-0.6-2s-1-0.7-1.8-0.7c-0.6,0-1.2,0.1-1.7,0.4s-1,0.6-1.5,1.1v10.4H638.2z"
				/>
			<path d="M658.3,132c0,0.3-0.1,0.6-0.2,0.8c-0.1,0.3-0.3,0.5-0.5,0.7c-0.2,0.2-0.4,0.4-0.7,0.5c-0.3,0.1-0.6,0.2-0.9,0.2
				c-0.3,0-0.6-0.1-0.8-0.2c-0.3-0.1-0.5-0.3-0.7-0.5c-0.2-0.2-0.4-0.4-0.5-0.7c-0.1-0.3-0.2-0.5-0.2-0.8c0-0.3,0.1-0.6,0.2-0.9
				c0.1-0.3,0.3-0.5,0.5-0.7c0.2-0.2,0.4-0.4,0.7-0.5c0.3-0.1,0.5-0.2,0.8-0.2c0.3,0,0.6,0.1,0.9,0.2c0.3,0.1,0.5,0.3,0.7,0.5
				c0.2,0.2,0.4,0.4,0.5,0.7C658.3,131.4,658.3,131.7,658.3,132z M657.8,136.2v14.4h-3.5v-14.4H657.8z"/>
			<path d="M661.7,150.6v-14.4h2.1c0.4,0,0.7,0.2,0.9,0.6l0.2,1.1c0.3-0.3,0.5-0.5,0.8-0.8c0.3-0.2,0.6-0.4,0.9-0.6
				c0.3-0.2,0.6-0.3,1-0.4c0.4-0.1,0.8-0.1,1.2-0.1c0.9,0,1.7,0.2,2.2,0.7c0.6,0.5,1,1.1,1.3,2c0.2-0.5,0.5-0.9,0.8-1.2
				c0.3-0.3,0.7-0.6,1.1-0.8s0.8-0.4,1.3-0.5c0.5-0.1,0.9-0.2,1.4-0.2c0.8,0,1.5,0.1,2.1,0.4c0.6,0.2,1.1,0.6,1.6,1.1s0.7,1,1,1.7
				c0.2,0.7,0.3,1.4,0.3,2.3v9.1h-3.5v-9.1c0-0.9-0.2-1.6-0.6-2.1s-1-0.7-1.8-0.7c-0.4,0-0.7,0.1-1,0.2s-0.6,0.3-0.8,0.5
				c-0.2,0.2-0.4,0.5-0.5,0.9c-0.1,0.3-0.2,0.7-0.2,1.2v9.1h-3.5v-9.1c0-1-0.2-1.7-0.6-2.1c-0.4-0.4-1-0.7-1.7-0.7
				c-0.5,0-1,0.1-1.4,0.4c-0.4,0.2-0.8,0.6-1.2,1v10.5H661.7z"/>
			<path d="M696.6,150.6H695c-0.3,0-0.6,0-0.8-0.1c-0.2-0.1-0.3-0.3-0.4-0.6l-0.3-1c-0.4,0.3-0.7,0.6-1.1,0.9
				c-0.4,0.2-0.7,0.5-1.1,0.6c-0.4,0.2-0.8,0.3-1.2,0.4s-0.9,0.1-1.4,0.1c-0.6,0-1.2-0.1-1.7-0.2c-0.5-0.2-1-0.4-1.3-0.7
				c-0.4-0.3-0.7-0.7-0.9-1.2c-0.2-0.5-0.3-1.1-0.3-1.7c0-0.5,0.1-1.1,0.4-1.6c0.3-0.5,0.8-1,1.4-1.4c0.7-0.4,1.5-0.8,2.6-1.1
				c1.1-0.3,2.5-0.4,4.1-0.4v-0.8c0-1-0.2-1.7-0.6-2.2c-0.4-0.5-1-0.7-1.8-0.7c-0.6,0-1,0.1-1.4,0.2c-0.4,0.1-0.7,0.3-1,0.4
				s-0.5,0.3-0.8,0.4c-0.2,0.1-0.5,0.2-0.8,0.2c-0.2,0-0.4-0.1-0.6-0.2s-0.3-0.3-0.4-0.4l-0.6-1.1c1.7-1.5,3.6-2.3,6-2.3
				c0.8,0,1.6,0.1,2.2,0.4s1.2,0.7,1.7,1.1c0.5,0.5,0.8,1.1,1,1.8c0.2,0.7,0.4,1.4,0.4,2.2V150.6z M689.8,148.4c0.4,0,0.7,0,1-0.1
				c0.3-0.1,0.6-0.2,0.8-0.3s0.5-0.3,0.8-0.5c0.2-0.2,0.5-0.4,0.7-0.7v-2.4c-1,0-1.9,0.1-2.5,0.2s-1.2,0.3-1.6,0.5
				c-0.4,0.2-0.7,0.4-0.9,0.7c-0.2,0.3-0.3,0.5-0.3,0.9c0,0.6,0.2,1,0.5,1.3S689.3,148.4,689.8,148.4z"/>
			<path d="M703.1,136.2v9.1c0,0.9,0.2,1.6,0.6,2c0.4,0.5,1,0.7,1.8,0.7c0.6,0,1.2-0.1,1.7-0.4s1-0.6,1.5-1.1v-10.4h3.5v14.4h-2.1
				c-0.4,0-0.7-0.2-0.9-0.6l-0.2-1.1c-0.3,0.3-0.6,0.6-0.9,0.8s-0.7,0.5-1,0.6c-0.4,0.2-0.7,0.3-1.2,0.4c-0.4,0.1-0.9,0.1-1.3,0.1
				c-0.8,0-1.5-0.1-2.1-0.4c-0.6-0.3-1.1-0.6-1.5-1.1c-0.4-0.5-0.7-1.1-0.9-1.7c-0.2-0.7-0.3-1.4-0.3-2.2v-9.1H703.1z"/>
			<path d="M719.3,143.1l-4.7-7h3.3c0.3,0,0.4,0,0.6,0.1c0.1,0.1,0.2,0.2,0.3,0.3l3,4.8c0-0.2,0.1-0.3,0.2-0.5
				c0.1-0.2,0.2-0.3,0.3-0.5l2.4-3.8c0.1-0.2,0.2-0.3,0.3-0.4s0.3-0.1,0.4-0.1h3.2l-4.7,6.8l4.9,7.6h-3.3c-0.3,0-0.5-0.1-0.6-0.2
				c-0.2-0.1-0.3-0.3-0.4-0.4l-3.1-5c-0.1,0.3-0.2,0.6-0.4,0.8l-2.7,4.2c-0.1,0.2-0.2,0.3-0.4,0.4c-0.1,0.1-0.3,0.2-0.6,0.2h-3.1
				L719.3,143.1z"/>
		</g>
	</g>
</g>
<g>
	<g>
		<g>
			<path d="M614.7,269.4l-12.4-5.5c-0.9-0.4-1.4-1.3-1.4-2.2v-3.4c4.2-3.3,6.9-8.4,6.9-14.2v-4.8c1.4-0.8,2.3-2.2,2.3-3.9v-0.5
				c0-10-8.1-18.1-18.1-18.1h-4.6c-10,0-18.1,8.1-18.1,18.1v4.2c0,1.4,0.6,2.8,1.7,3.6c0.2,0.1,0.4,0.3,0.6,0.4v0.9
				c0,5.7,2.7,10.9,6.9,14.2v3.4c0,1-0.6,1.8-1.4,2.2l-12.4,5.5c-4.1,1.8-6.7,5.9-6.7,10.3v28.3c0,1.2,1,2.1,2.1,2.1
				c1.2,0,2.1-1,2.1-2.1v-28.3c0-0.2,0-0.5,0-0.7l5.7,5.7c0.9,0.9,1.4,2.1,1.4,3.3v20c0,1.2,1,2.1,2.1,2.1c1.2,0,2.1-1,2.1-2.1v-20
				c0-2.4-0.9-4.7-2.6-6.4l-6.8-6.8c0.6-0.6,1.4-1.2,2.2-1.5l12.2-5.4l9.1,9.1v31.1c0,1.2,1,2.1,2.1,2.1c1.2,0,2.1-1,2.1-2.1v-31.1
				l9.1-9.1l12.2,5.4c0.8,0.4,1.6,0.9,2.2,1.5l-6.8,6.8c-1.7,1.7-2.6,4-2.6,6.4v20c0,1.2,1,2.1,2.1,2.1s2.1-1,2.1-2.1v-20
				c0-1.3,0.5-2.4,1.4-3.3l5.7-5.7c0,0.2,0,0.5,0,0.7v28.3c0,1.2,1,2.1,2.1,2.1c1.2,0,2.1-1,2.1-2.1v-28.3
				C621.4,275.3,618.7,271.2,614.7,269.4z M575.7,244v-1c1.3-0.5,2.6-1.4,3.9-2.5c0.9-0.8,0.9-2.2,0.1-3c-0.8-0.9-2.2-0.9-3-0.1
				c-1.1,1-2.1,1.6-3.2,1.9c0,0,0,0-0.1,0c0,0,0-0.1,0-0.2v-4.2c0-7.6,6.2-13.9,13.9-13.9h4.6c7.6,0,13.9,6.2,13.9,13.9v0.5
				c0,0.1,0,0.1-0.1,0.1c-12.8,2.5-19.2-2.2-21.4-4.4c-0.8-0.8-2.2-0.8-3,0c-0.8,0.8-0.8,2.2,0,3c6.6,6.6,16.3,6.8,22.2,6.1v3.9
				c0,7.6-6.2,13.9-13.9,13.9C581.9,257.9,575.7,251.7,575.7,244z M589.5,262.2c2.5,0,4.8-0.5,7-1.4v0.9c0,1.2,0.3,2.4,0.9,3.4l-8,8
				l-8-8c0.6-1,0.9-2.2,0.9-3.4v-0.9C584.7,261.7,587,262.2,589.5,262.2z"/>
			<path d="M555.1,253.2c0-5.6-2.9-10.5-7.3-13.3c0.3-0.9,0.4-1.8,0.4-2.7c0-5-4-9-9-9s-9,4-9,9c0,0.9,0.1,1.8,0.4,2.7
				c-4.4,2.8-7.3,7.7-7.3,13.3v4.6c0,5.4,2.7,10.2,6.9,13v4.7c0,0.9-0.5,1.8-1.3,2.2l-7.4,3.7c-3.1,1.5-5,4.6-5,8v18.6
				c0,1.2,1,2.1,2.1,2.1c1.2,0,2.1-1,2.1-2.1v-17.7l3.5,3.5c0.9,0.9,1.4,2.1,1.4,3.3v10.9c0,1.2,1,2.1,2.1,2.1c1.2,0,2.1-1,2.1-2.1
				v-10.9c0-2.4-0.9-4.7-2.6-6.4l-4.8-4.8c0,0,0,0-0.1-0.1c0.3-0.3,0.6-0.5,1-0.7l7.4-3.7c0.4-0.2,0.7-0.4,1.1-0.7l5.2,5.2v22
				c0,1.2,1,2.1,2.1,2.1c1.2,0,2.1-1,2.1-2.1v-22l5.2-5.2c0.3,0.2,0.7,0.5,1.1,0.7l2,1c0.3,0.2,0.6,0.2,1,0.2c0.8,0,1.5-0.4,1.9-1.2
				c0.5-1.1,0.1-2.3-1-2.9l-2-1c-0.8-0.4-1.3-1.2-1.3-2.2v-4.7c4.1-2.9,6.9-7.6,6.9-13V253.2L555.1,253.2z M534.5,237.2
				c0-2.6,2.1-4.7,4.7-4.7c2.6,0,4.7,2.1,4.7,4.7c0,0.3,0,0.6-0.1,0.8c-1.5-0.5-3-0.7-4.6-0.7c-1.6,0-3.2,0.2-4.6,0.7
				C534.5,237.8,534.5,237.5,534.5,237.2z M539.2,241.6c6.4,0,11.6,5.2,11.6,11.6v0.8c-8.9,2.7-14.2-4-14.4-4.3
				c-0.4-0.5-0.9-0.8-1.6-0.9c-0.6,0-1.2,0.2-1.7,0.6c-2,2-4,3-5.5,3.5C527.8,246.6,532.9,241.6,539.2,241.6z M544.2,277.2l-4.9,4.9
				l-4.9-4.9c0.1-0.6,0.2-1.1,0.2-1.7v-2.6c1.5,0.5,3.1,0.7,4.7,0.7s3.2-0.3,4.7-0.7v2.6C543.9,276.1,544,276.7,544.2,277.2z
				 M539.2,269.3c-6.4,0-11.6-5.2-11.6-11.6v-0.4c1.7-0.4,4.2-1.3,6.9-3.4c0.9,0.9,2.3,2,4,2.9c2,1.1,4.8,2.1,8.2,2.1
				c1.3,0,2.7-0.1,4.1-0.5C550.5,264.5,545.4,269.3,539.2,269.3z"/>
			<path d="M657.5,276.8l-12-6c-0.8-0.4-1.3-1.2-1.3-2.2v-3c2.8-2.5,4.6-6.1,4.6-10.1V253c0,0,0.1,0,0.1,0c1.2,0,2.1-1,2.1-2.1v-4.6
				c0-7.5-6.1-13.6-13.6-13.6h-4.6c-7.5,0-13.6,6.1-13.6,13.6v4.6c0,1.2,1,2.1,2.1,2.1c0,0,0.1,0,0.1,0v2.4c0,4,1.8,7.7,4.6,10.1v3
				c0,0.9-0.5,1.8-1.3,2.2c-1.1,0.5-1.5,1.8-1,2.9c0.4,0.7,1.1,1.2,1.9,1.2c0.3,0,0.6-0.1,1-0.2c0.4-0.2,0.7-0.4,1.1-0.7l5.2,5.2
				v28.8c0,1.2,1,2.1,2.1,2.1c1.2,0,2.1-1,2.1-2.1v-28.8l5.2-5.2c0.3,0.2,0.7,0.5,1.1,0.7l11.6,5.8l-3.5,3.5c-1.7,1.7-2.6,4-2.6,6.4
				v17.7c0,1.2,1,2.1,2.1,2.1c1.2,0,2.1-1,2.1-2.1v-17.7c0-1.3,0.5-2.4,1.4-3.3l3.3-3.3c0.1,0.4,0.2,0.8,0.2,1.2v23.2
				c0,1.2,1,2.1,2.1,2.1c1.2,0,2.1-1,2.1-2.1v-23.2C662.5,281.4,660.6,278.3,657.5,276.8z M623.7,246.3c0-5.1,4.2-9.3,9.3-9.3h4.6
				c5.1,0,9.3,4.2,9.3,9.3v2.4c-9.3-0.5-14.9-4.1-15-4.2c-0.4-0.2-0.8-0.4-1.2-0.4c-0.6,0-1.1,0.2-1.5,0.6c-2,2-4.1,3-5.5,3.5
				L623.7,246.3L623.7,246.3z M625.9,252c1.5-0.6,3.2-1.6,5-3.1c2.2,1.2,6.9,3.2,13.6,3.9v2.7c0,5.1-4.2,9.3-9.3,9.3
				c-5.1,0-9.3-4.2-9.3-9.3V252L625.9,252z M635.2,269c1.7,0,3.2-0.3,4.7-0.8v0.5c0,0.6,0.1,1.2,0.2,1.7l-4.9,4.9l-4.9-4.9
				c0.1-0.6,0.2-1.1,0.2-1.7v-0.5C632,268.7,633.6,269,635.2,269z"/>
		</g>
		<g>
			<path class="st0" d="M515.7,348.1c0.1,0.3,0.3,0.6,0.4,1c0.1-0.3,0.3-0.7,0.4-1c0.1-0.3,0.3-0.6,0.4-0.9l6-11.2
				c0.1-0.1,0.2-0.3,0.2-0.3c0.1-0.1,0.2-0.1,0.3-0.2s0.2-0.1,0.3-0.1c0.1,0,0.3,0,0.4,0h2.8v20.2h-3.3v-13.1c0-0.2,0-0.5,0-0.8
				c0-0.3,0-0.6,0.1-0.9l-6.1,11.5c-0.1,0.3-0.3,0.5-0.5,0.6s-0.5,0.2-0.8,0.2h-0.5c-0.3,0-0.6-0.1-0.8-0.2s-0.4-0.3-0.5-0.6
				l-6.2-11.5c0,0.3,0.1,0.6,0.1,0.9c0,0.3,0,0.6,0,0.8v13.1h-3.3v-20.2h2.8c0.2,0,0.3,0,0.4,0c0.1,0,0.2,0,0.3,0.1
				c0.1,0,0.2,0.1,0.3,0.2s0.2,0.2,0.2,0.3l6,11.2C515.4,347.5,515.5,347.8,515.7,348.1z"/>
			<path class="st0" d="M542.2,355.6h-1.6c-0.3,0-0.6,0-0.8-0.1c-0.2-0.1-0.3-0.3-0.4-0.6l-0.3-1c-0.4,0.3-0.7,0.6-1.1,0.9
				c-0.4,0.2-0.7,0.5-1.1,0.6c-0.4,0.2-0.8,0.3-1.2,0.4s-0.9,0.1-1.4,0.1c-0.6,0-1.2-0.1-1.7-0.2c-0.5-0.2-1-0.4-1.3-0.7
				c-0.4-0.3-0.7-0.7-0.9-1.2c-0.2-0.5-0.3-1.1-0.3-1.7c0-0.5,0.1-1.1,0.4-1.6c0.3-0.5,0.8-1,1.4-1.4c0.7-0.4,1.5-0.8,2.6-1.1
				c1.1-0.3,2.5-0.4,4.1-0.4v-0.8c0-1-0.2-1.7-0.6-2.2c-0.4-0.5-1-0.7-1.8-0.7c-0.6,0-1,0.1-1.4,0.2s-0.7,0.3-1,0.4
				c-0.3,0.2-0.5,0.3-0.8,0.4c-0.2,0.1-0.5,0.2-0.8,0.2c-0.2,0-0.4-0.1-0.6-0.2s-0.3-0.3-0.4-0.4l-0.6-1.1c1.7-1.5,3.6-2.3,6-2.3
				c0.8,0,1.6,0.1,2.2,0.4s1.2,0.7,1.7,1.1c0.5,0.5,0.8,1.1,1,1.8c0.2,0.7,0.4,1.4,0.4,2.2V355.6z M535.5,353.4c0.4,0,0.7,0,1-0.1
				c0.3-0.1,0.6-0.2,0.8-0.3c0.3-0.1,0.5-0.3,0.8-0.5c0.2-0.2,0.5-0.4,0.7-0.7v-2.4c-1,0-1.9,0.1-2.5,0.2s-1.2,0.3-1.6,0.5
				c-0.4,0.2-0.7,0.4-0.9,0.7c-0.2,0.3-0.3,0.5-0.3,0.9c0,0.6,0.2,1,0.5,1.3S534.9,353.4,535.5,353.4z"/>
			<path class="st0" d="M549.8,337c0,0.3-0.1,0.6-0.2,0.8c-0.1,0.3-0.3,0.5-0.5,0.7c-0.2,0.2-0.4,0.4-0.7,0.5
				c-0.3,0.1-0.6,0.2-0.9,0.2c-0.3,0-0.6-0.1-0.8-0.2c-0.3-0.1-0.5-0.3-0.7-0.5c-0.2-0.2-0.4-0.4-0.5-0.7c-0.1-0.3-0.2-0.5-0.2-0.8
				c0-0.3,0.1-0.6,0.2-0.9c0.1-0.3,0.3-0.5,0.5-0.7c0.2-0.2,0.4-0.4,0.7-0.5c0.3-0.1,0.5-0.2,0.8-0.2c0.3,0,0.6,0.1,0.9,0.2
				c0.3,0.1,0.5,0.3,0.7,0.5c0.2,0.2,0.4,0.4,0.5,0.7S549.8,336.7,549.8,337z M549.3,341.2v14.4h-3.5v-14.4H549.3z"/>
			<path class="st0" d="M553.2,355.6v-14.4h2.1c0.4,0,0.7,0.2,0.9,0.6l0.2,1.1c0.3-0.3,0.6-0.6,0.9-0.8c0.3-0.2,0.7-0.5,1-0.6
				c0.4-0.2,0.7-0.3,1.2-0.4c0.4-0.1,0.9-0.1,1.3-0.1c0.8,0,1.5,0.1,2.1,0.4c0.6,0.3,1.1,0.6,1.5,1.1c0.4,0.5,0.7,1.1,0.9,1.7
				c0.2,0.7,0.3,1.4,0.3,2.2v9.1h-3.5v-9.1c0-0.9-0.2-1.6-0.6-2c-0.4-0.5-1-0.7-1.8-0.7c-0.6,0-1.2,0.1-1.7,0.4s-1,0.6-1.5,1.1v10.4
				H553.2z"/>
			<path class="st0" d="M584.6,355.6c-0.4,0-0.7-0.2-0.9-0.6l-0.3-1.4c-0.3,0.3-0.6,0.6-0.9,0.9c-0.3,0.3-0.7,0.5-1.1,0.7
				c-0.4,0.2-0.8,0.3-1.2,0.5c-0.4,0.1-0.9,0.2-1.4,0.2c-0.8,0-1.5-0.2-2.2-0.5c-0.7-0.3-1.2-0.8-1.7-1.4c-0.5-0.6-0.8-1.4-1.1-2.3
				c-0.3-0.9-0.4-2-0.4-3.1c0-1.1,0.1-2.1,0.4-3c0.3-0.9,0.7-1.7,1.2-2.4c0.5-0.7,1.2-1.2,1.9-1.6c0.8-0.4,1.6-0.6,2.5-0.6
				c0.8,0,1.5,0.1,2.1,0.4s1.1,0.6,1.5,1v-7.6h3.5v20.8H584.6z M580,353c0.7,0,1.3-0.1,1.8-0.4c0.5-0.3,1-0.7,1.4-1.3v-6.4
				c-0.4-0.5-0.8-0.8-1.3-1s-1-0.3-1.5-0.3c-0.5,0-1,0.1-1.4,0.3s-0.8,0.5-1.1,0.9c-0.3,0.4-0.5,0.9-0.7,1.5
				c-0.2,0.6-0.2,1.3-0.2,2.2c0,0.8,0.1,1.6,0.2,2.1c0.1,0.6,0.3,1.1,0.6,1.4c0.3,0.4,0.6,0.6,0.9,0.8
				C579.1,352.9,579.5,353,580,353z"/>
			<path class="st0" d="M592.9,334.1c0.3,0.5,0.6,1,0.7,1.6c0.2,0.5,0.2,1,0.2,1.6c0,0.9-0.2,1.8-0.7,2.7c-0.5,0.8-1.2,1.6-2,2.4
				l-1.1-0.7c-0.1-0.1-0.2-0.1-0.2-0.2c0-0.1-0.1-0.2-0.1-0.2c0-0.2,0.1-0.3,0.2-0.4c0.1-0.1,0.2-0.3,0.4-0.5
				c0.1-0.2,0.3-0.4,0.4-0.6c0.1-0.2,0.2-0.5,0.3-0.7c0.1-0.3,0.1-0.5,0.1-0.8c0-0.3-0.1-0.7-0.2-1c-0.1-0.4-0.3-0.7-0.5-1.1
				c-0.1-0.1-0.1-0.2-0.1-0.4c0-0.3,0.2-0.5,0.5-0.6L592.9,334.1z"/>
			<path class="st0" d="M611.4,341c0.8,0,1.6,0.2,2.3,0.5s1.3,0.8,1.8,1.4c0.5,0.6,0.9,1.3,1.2,2.1s0.4,1.8,0.4,2.8
				c0,0.3,0,0.5,0,0.7c0,0.2-0.1,0.3-0.1,0.4c-0.1,0.1-0.1,0.2-0.2,0.2c-0.1,0-0.2,0.1-0.4,0.1h-8.4c0.1,1.4,0.5,2.4,1.2,3
				c0.6,0.6,1.5,1,2.5,1c0.5,0,1-0.1,1.3-0.2s0.7-0.3,1-0.4c0.3-0.2,0.5-0.3,0.8-0.4c0.2-0.1,0.4-0.2,0.7-0.2c0.2,0,0.4,0.1,0.6,0.3
				l1,1.3c-0.4,0.4-0.8,0.8-1.3,1.1c-0.5,0.3-0.9,0.5-1.4,0.7s-1,0.3-1.5,0.4c-0.5,0.1-1,0.1-1.5,0.1c-1,0-2-0.2-2.8-0.7
				c-0.9-0.5-1.6-1.2-2.2-2.1c-0.6,0.9-1.3,1.6-2.2,2.1c-0.9,0.5-1.9,0.7-3.1,0.7c-1,0-1.8-0.2-2.6-0.5c-0.8-0.3-1.5-0.8-2.1-1.5
				c-0.6-0.6-1-1.4-1.4-2.3c-0.3-0.9-0.5-1.9-0.5-3.1c0-1.1,0.2-2.2,0.5-3.1c0.3-0.9,0.8-1.7,1.4-2.3s1.3-1.1,2.1-1.5
				c0.8-0.3,1.7-0.5,2.7-0.5c1.2,0,2.2,0.2,3,0.7c0.9,0.5,1.6,1.2,2.1,2.1c0.5-0.8,1.2-1.5,2.1-2S610.2,341,611.4,341z M601.3,353.1
				c1.1,0,1.9-0.4,2.5-1.2s0.8-2,0.8-3.5c0-1.5-0.3-2.7-0.8-3.5c-0.5-0.8-1.3-1.2-2.5-1.2c-1.1,0-1.9,0.4-2.5,1.2
				c-0.5,0.8-0.8,2-0.8,3.5c0,1.5,0.3,2.7,0.8,3.5S600.1,353.1,601.3,353.1z M611.2,343.4c-1,0-1.7,0.3-2.3,0.9
				c-0.5,0.6-0.9,1.5-1,2.6h6.1c0-0.5-0.1-0.9-0.2-1.3c-0.1-0.4-0.3-0.8-0.5-1.1c-0.2-0.3-0.5-0.6-0.9-0.8
				C612.1,343.5,611.7,343.4,611.2,343.4z"/>
			<path class="st0" d="M623.1,341.2v9.1c0,0.9,0.2,1.6,0.6,2c0.4,0.5,1,0.7,1.8,0.7c0.6,0,1.2-0.1,1.7-0.4s1-0.6,1.5-1.1v-10.4h3.5
				v14.4H630c-0.4,0-0.7-0.2-0.9-0.6l-0.2-1.1c-0.3,0.3-0.6,0.6-0.9,0.8s-0.7,0.5-1,0.6s-0.7,0.3-1.2,0.4c-0.4,0.1-0.9,0.1-1.3,0.1
				c-0.8,0-1.5-0.1-2.1-0.4c-0.6-0.3-1.1-0.6-1.5-1.1c-0.4-0.5-0.7-1.1-0.9-1.7c-0.2-0.7-0.3-1.4-0.3-2.2v-9.1H623.1z"/>
			<path class="st0" d="M643,355.6h-3.1l-5.7-14.4h2.9c0.3,0,0.5,0.1,0.6,0.2s0.3,0.3,0.4,0.5l2.8,7.7c0.2,0.4,0.3,0.9,0.4,1.3
				c0.1,0.4,0.2,0.9,0.3,1.3c0.1-0.4,0.2-0.9,0.3-1.3c0.1-0.4,0.2-0.9,0.4-1.3l2.8-7.7c0.1-0.2,0.2-0.3,0.3-0.5s0.4-0.2,0.6-0.2h2.7
				L643,355.6z"/>
			<path class="st0" d="M650.7,355.6v-14.4h2c0.4,0,0.6,0.1,0.7,0.2s0.2,0.4,0.3,0.7l0.2,1.7c0.5-0.9,1.1-1.6,1.8-2.1
				c0.7-0.5,1.5-0.8,2.3-0.8c0.7,0,1.3,0.2,1.8,0.5l-0.4,2.6c0,0.2-0.1,0.3-0.2,0.4c-0.1,0.1-0.2,0.1-0.4,0.1c-0.1,0-0.3,0-0.6-0.1
				c-0.2-0.1-0.6-0.1-1-0.1c-0.7,0-1.3,0.2-1.8,0.6c-0.5,0.4-0.9,1-1.3,1.7v8.9H650.7z"/>
			<path class="st0" d="M668.1,341c0.9,0,1.7,0.1,2.5,0.4c0.8,0.3,1.4,0.7,2,1.3c0.6,0.6,1,1.2,1.3,2c0.3,0.8,0.5,1.7,0.5,2.8
				c0,0.3,0,0.5,0,0.7s-0.1,0.3-0.1,0.4c-0.1,0.1-0.1,0.2-0.2,0.2s-0.2,0.1-0.4,0.1h-8.9c0.1,1.5,0.5,2.6,1.2,3.2s1.6,1,2.7,1
				c0.6,0,1-0.1,1.4-0.2s0.8-0.3,1.1-0.4c0.3-0.2,0.6-0.3,0.8-0.4c0.2-0.1,0.5-0.2,0.7-0.2c0.1,0,0.3,0,0.4,0.1
				c0.1,0.1,0.2,0.1,0.3,0.2l1,1.3c-0.4,0.4-0.8,0.8-1.3,1.1c-0.5,0.3-1,0.5-1.5,0.7s-1,0.3-1.6,0.4c-0.5,0.1-1.1,0.1-1.6,0.1
				c-1,0-1.9-0.2-2.8-0.5c-0.9-0.3-1.6-0.8-2.2-1.5s-1.1-1.5-1.5-2.4s-0.5-2.1-0.5-3.3c0-1,0.2-1.9,0.5-2.8s0.8-1.6,1.4-2.3
				s1.3-1.1,2.2-1.5C666.1,341.2,667,341,668.1,341z M668.2,343.4c-1,0-1.8,0.3-2.4,0.9s-0.9,1.4-1.1,2.4h6.5c0-0.4-0.1-0.9-0.2-1.3
				c-0.1-0.4-0.3-0.7-0.6-1s-0.6-0.5-1-0.7C669.1,343.5,668.7,343.4,668.2,343.4z"/>
		</g>
	</g>
	<g>
		<g>
			<path d="M351,302.9"/>
			<path class="st0" d="M428.1,308H274c-1.6,0-2.9-1-2.9-2.3c0-1.3,1.3-2.3,2.9-2.3h154.2c1.6,0,2.9,1,2.9,2.3
				C431,307,429.7,308,428.1,308z"/>
			<g>
				<path d="M341.5,248.7h9.1c1.2,0,2.2-1,2.2-2.2v-9c0-1.2-1-2.2-2.2-2.2h-9c-1.2,0-2.2,1-2.2,2.2v9.1
					C339.3,247.7,340.3,248.7,341.5,248.7L341.5,248.7z M343.6,239.6h4.8c0,0,0,0,0,0v4.8c0,0,0,0,0,0h-4.8c0,0,0,0,0,0L343.6,239.6
					C343.6,239.6,343.6,239.6,343.6,239.6z M343.6,239.6"/>
				<path d="M323.2,248.7h9.1c1.2,0,2.2-1,2.2-2.2v-9c0-1.2-1-2.2-2.2-2.2h-9c-1.2,0-2.2,1-2.2,2.2v9.1
					C321.1,247.7,322,248.7,323.2,248.7L323.2,248.7z M325.4,239.6h4.8c0,0,0,0,0,0v4.8c0,0,0,0,0,0h-4.8c0,0,0,0,0,0L325.4,239.6
					C325.4,239.6,325.4,239.6,325.4,239.6z M325.4,239.6"/>
				<path d="M359.7,248.7h9.1c1.2,0,2.2-1,2.2-2.2v-9c0-1.2-1-2.2-2.2-2.2h-9c-1.2,0-2.2,1-2.2,2.2v9.1
					C357.6,247.7,358.5,248.7,359.7,248.7L359.7,248.7z M361.9,239.6h4.8c0,0,0,0,0,0v4.8c0,0,0,0,0,0h-4.8c0,0,0,0,0,0L361.9,239.6
					C361.8,239.6,361.9,239.6,361.9,239.6z M361.8,239.6"/>
				<path d="M392.2,275.9h-82.3c0,0,0,0,0,0v-4.8c0,0,0,0,0,0h82.3c0,0,0,0,0,0L392.2,275.9C392.2,275.9,392.2,275.9,392.2,275.9z
					 M309.9,280.2h82.3c0,0,0,0,0,0v4.8c0,0,0,0,0,0h-82.3c0,0,0,0,0,0L309.9,280.2C309.9,280.2,309.9,280.2,309.9,280.2z
					 M392.2,266.8h-82.3c0,0,0,0,0,0V262c0,0,0,0,0,0h82.3c0,0,0,0,0,0L392.2,266.8C392.2,266.8,392.2,266.8,392.2,266.8z
					 M309.9,289.3h82.3c0,0,0,0,0,0v4.8c0,0,0,0,0,0h-82.3c0,0,0,0,0,0L309.9,289.3C309.9,289.3,309.9,289.3,309.9,289.3z
					 M309.9,303.2v-4.8c0,0,0,0,0,0h82.3c0,0,0,0,0,0v4.8c0,0,0,0,0,0L309.9,303.2C309.9,303.3,309.9,303.2,309.9,303.2z
					 M293.8,252.4l24-20.3c0,0,0,0,0,0l33.2-8.8c0,0,0,0,0,0l33.2,8.8c0,0,0,0,0,0l24,20.3c0,0.2-0.1,0.3-0.1,0.5v50.3c0,0,0,0,0,0
					h-11.6c0,0,0,0,0,0v-43.4c0-1.2-1-2.2-2.2-2.2h-86.6c-1.2,0-2.2,1-2.2,2.2v43.4c0,0,0,0,0,0h-11.6c0,0,0,0,0,0V253
					C293.9,252.8,293.9,252.6,293.8,252.4L293.8,252.4z M411.9,306.9c0.7-0.7,0.6-1.4,0.6-1.4V256l1,0.9c0.4,0.3,0.9,0.5,1.4,0.5
					c0.6,0,1.2-0.3,1.6-0.8c0.8-0.9,0.6-2.2-0.3-3l-29.6-25.1c-0.2-0.2-0.5-0.4-0.8-0.4l-34.2-9.1c-0.4-0.1-0.7-0.1-1.1,0l-34.2,9.1
					c-0.3,0.1-0.6,0.2-0.8,0.4l-29.6,25.1c-1,0.8-1,2.3-0.1,3.2c0.8,0.8,2.1,0.7,3,0l0.9-0.8v51.5c0,0,0,0,0,0h120.7
					C410.4,307.5,411.1,307.6,411.9,306.9z"/>
			</g>
		</g>
		<g>
			<path class="st0" d="M290.8,355.6v-20.2h7c1.3,0,2.5,0.1,3.4,0.4s1.7,0.6,2.3,1.1s1,1,1.3,1.7c0.3,0.7,0.4,1.4,0.4,2.2
				c0,0.5-0.1,0.9-0.2,1.4c-0.1,0.4-0.4,0.8-0.7,1.2c-0.3,0.4-0.7,0.7-1.1,1c-0.5,0.3-1,0.6-1.6,0.8c2.8,0.6,4.2,2.1,4.2,4.5
				c0,0.9-0.2,1.7-0.5,2.4c-0.3,0.7-0.8,1.4-1.4,1.9c-0.6,0.5-1.4,0.9-2.3,1.2c-0.9,0.3-2,0.4-3.1,0.4H290.8z M294.5,344.1h3
				c1.3,0,2.2-0.2,2.9-0.7s1-1.2,1-2.2c0-1.1-0.3-1.8-0.9-2.3c-0.6-0.4-1.5-0.7-2.8-0.7h-3.2V344.1z M294.5,346.7v5.9h3.8
				c0.7,0,1.3-0.1,1.8-0.3c0.5-0.2,0.8-0.4,1.1-0.7c0.3-0.3,0.5-0.6,0.6-1s0.2-0.8,0.2-1.2c0-0.4-0.1-0.8-0.2-1.2
				c-0.1-0.4-0.4-0.6-0.7-0.9c-0.3-0.2-0.7-0.4-1.1-0.6s-1-0.2-1.7-0.2H294.5z"/>
			<path class="st0" d="M320.1,355.6h-1.6c-0.3,0-0.6,0-0.8-0.1c-0.2-0.1-0.3-0.3-0.4-0.6l-0.3-1c-0.4,0.3-0.7,0.6-1.1,0.9
				c-0.4,0.2-0.7,0.5-1.1,0.6c-0.4,0.2-0.8,0.3-1.2,0.4s-0.9,0.1-1.4,0.1c-0.6,0-1.2-0.1-1.7-0.2c-0.5-0.2-1-0.4-1.3-0.7
				c-0.4-0.3-0.7-0.7-0.9-1.2c-0.2-0.5-0.3-1.1-0.3-1.7c0-0.5,0.1-1.1,0.4-1.6s0.8-1,1.4-1.4c0.7-0.4,1.5-0.8,2.6-1.1
				c1.1-0.3,2.5-0.4,4.1-0.4v-0.8c0-1-0.2-1.7-0.6-2.2c-0.4-0.5-1-0.7-1.8-0.7c-0.6,0-1,0.1-1.4,0.2c-0.4,0.1-0.7,0.3-1,0.4
				c-0.3,0.2-0.5,0.3-0.8,0.4c-0.2,0.1-0.5,0.2-0.8,0.2c-0.2,0-0.4-0.1-0.6-0.2s-0.3-0.3-0.4-0.4l-0.6-1.1c1.7-1.5,3.6-2.3,6-2.3
				c0.8,0,1.6,0.1,2.2,0.4c0.7,0.3,1.2,0.7,1.7,1.1c0.5,0.5,0.8,1.1,1,1.8c0.2,0.7,0.4,1.4,0.4,2.2V355.6z M319.5,339.2h-2.3
				c-0.3,0-0.5-0.1-0.7-0.3l-1.5-1.3c0,0-0.1-0.1-0.1-0.1c-0.1,0-0.1-0.1-0.1-0.2c0,0.1-0.1,0.1-0.1,0.2c-0.1,0-0.1,0.1-0.1,0.1
				l-1.5,1.3c-0.1,0.1-0.2,0.1-0.3,0.2c-0.1,0.1-0.3,0.1-0.4,0.1h-2.4l3.2-3.9h3.2L319.5,339.2z M313.4,353.4c0.4,0,0.7,0,1-0.1
				c0.3-0.1,0.6-0.2,0.8-0.3s0.5-0.3,0.8-0.5c0.2-0.2,0.5-0.4,0.7-0.7v-2.4c-1,0-1.9,0.1-2.5,0.2c-0.7,0.1-1.2,0.3-1.6,0.5
				s-0.7,0.4-0.9,0.7c-0.2,0.3-0.3,0.5-0.3,0.9c0,0.6,0.2,1,0.5,1.3S312.8,353.4,313.4,353.4z"/>
			<path class="st0" d="M328.2,355.8c-1.2,0-2.2-0.4-2.9-1.1c-0.7-0.7-1-1.7-1-2.9v-8h-1.5c-0.2,0-0.3-0.1-0.5-0.2s-0.2-0.3-0.2-0.5
				v-1.4l2.3-0.4l0.7-3.9c0-0.2,0.1-0.3,0.3-0.4c0.1-0.1,0.3-0.2,0.5-0.2h1.8v4.5h3.8v2.5h-3.8v7.8c0,0.4,0.1,0.8,0.3,1
				s0.5,0.4,0.9,0.4c0.2,0,0.4,0,0.5-0.1c0.1-0.1,0.3-0.1,0.4-0.2c0.1-0.1,0.2-0.1,0.3-0.2c0.1-0.1,0.2-0.1,0.3-0.1
				c0.1,0,0.2,0,0.3,0.1c0.1,0.1,0.1,0.1,0.2,0.2l1,1.7c-0.5,0.4-1.1,0.7-1.7,1C329.6,355.7,328.9,355.8,328.2,355.8z"/>
			<path class="st0" d="M338.5,337c0,0.3-0.1,0.6-0.2,0.8c-0.1,0.3-0.3,0.5-0.5,0.7c-0.2,0.2-0.4,0.4-0.7,0.5
				c-0.3,0.1-0.6,0.2-0.9,0.2c-0.3,0-0.6-0.1-0.8-0.2c-0.3-0.1-0.5-0.3-0.7-0.5c-0.2-0.2-0.4-0.4-0.5-0.7c-0.1-0.3-0.2-0.5-0.2-0.8
				c0-0.3,0.1-0.6,0.2-0.9s0.3-0.5,0.5-0.7c0.2-0.2,0.4-0.4,0.7-0.5c0.3-0.1,0.5-0.2,0.8-0.2c0.3,0,0.6,0.1,0.9,0.2
				c0.3,0.1,0.5,0.3,0.7,0.5s0.4,0.4,0.5,0.7C338.5,336.4,338.5,336.7,338.5,337z M338,341.2v14.4h-3.5v-14.4H338z"/>
			<path class="st0" d="M341.9,355.6v-14.4h2.1c0.4,0,0.7,0.2,0.9,0.6l0.2,1.1c0.3-0.3,0.5-0.5,0.8-0.8c0.3-0.2,0.6-0.4,0.9-0.6
				c0.3-0.2,0.6-0.3,1-0.4c0.4-0.1,0.8-0.1,1.2-0.1c0.9,0,1.6,0.2,2.2,0.7c0.6,0.5,1,1.1,1.3,2c0.2-0.5,0.5-0.9,0.8-1.2
				s0.7-0.6,1.1-0.8s0.8-0.4,1.3-0.5c0.5-0.1,0.9-0.2,1.4-0.2c0.8,0,1.5,0.1,2.1,0.4c0.6,0.2,1.1,0.6,1.6,1.1s0.7,1,1,1.7
				s0.3,1.4,0.3,2.3v9.1h-3.5v-9.1c0-0.9-0.2-1.6-0.6-2.1s-1-0.7-1.8-0.7c-0.4,0-0.7,0.1-1,0.2s-0.6,0.3-0.8,0.5
				c-0.2,0.2-0.4,0.5-0.5,0.9c-0.1,0.3-0.2,0.7-0.2,1.2v9.1h-3.5v-9.1c0-1-0.2-1.7-0.6-2.1c-0.4-0.4-1-0.7-1.7-0.7
				c-0.5,0-1,0.1-1.4,0.4c-0.4,0.2-0.8,0.6-1.2,1v10.5H341.9z"/>
			<path class="st0" d="M371.4,341c0.9,0,1.7,0.1,2.5,0.4c0.8,0.3,1.4,0.7,2,1.3c0.6,0.6,1,1.2,1.3,2c0.3,0.8,0.5,1.7,0.5,2.8
				c0,0.3,0,0.5,0,0.7s-0.1,0.3-0.1,0.4c-0.1,0.1-0.1,0.2-0.2,0.2s-0.2,0.1-0.4,0.1H368c0.1,1.5,0.5,2.6,1.2,3.2s1.6,1,2.7,1
				c0.6,0,1-0.1,1.4-0.2s0.8-0.3,1.1-0.4c0.3-0.2,0.6-0.3,0.8-0.4c0.2-0.1,0.5-0.2,0.7-0.2c0.1,0,0.3,0,0.4,0.1
				c0.1,0.1,0.2,0.1,0.3,0.2l1,1.3c-0.4,0.4-0.8,0.8-1.3,1.1c-0.5,0.3-1,0.5-1.5,0.7s-1,0.3-1.6,0.4c-0.5,0.1-1.1,0.1-1.6,0.1
				c-1,0-1.9-0.2-2.8-0.5c-0.9-0.3-1.6-0.8-2.2-1.5s-1.1-1.5-1.5-2.4c-0.4-1-0.5-2.1-0.5-3.3c0-1,0.2-1.9,0.5-2.8s0.8-1.6,1.4-2.3
				s1.3-1.1,2.2-1.5C369.4,341.2,370.3,341,371.4,341z M371.5,343.4c-1,0-1.8,0.3-2.4,0.9s-0.9,1.4-1.1,2.4h6.5
				c0-0.4-0.1-0.9-0.2-1.3c-0.1-0.4-0.3-0.7-0.6-1s-0.6-0.5-1-0.7C372.5,343.5,372,343.4,371.5,343.4z"/>
			<path class="st0" d="M380.4,355.6v-14.4h2.1c0.4,0,0.7,0.2,0.9,0.6l0.2,1.1c0.3-0.3,0.6-0.6,0.9-0.8c0.3-0.2,0.7-0.5,1-0.6
				c0.4-0.2,0.7-0.3,1.2-0.4c0.4-0.1,0.9-0.1,1.3-0.1c0.8,0,1.5,0.1,2.1,0.4c0.6,0.3,1.1,0.6,1.5,1.1c0.4,0.5,0.7,1.1,0.9,1.7
				c0.2,0.7,0.3,1.4,0.3,2.2v9.1h-3.5v-9.1c0-0.9-0.2-1.6-0.6-2c-0.4-0.5-1-0.7-1.8-0.7c-0.6,0-1.2,0.1-1.7,0.4s-1,0.6-1.5,1.1v10.4
				H380.4z"/>
			<path class="st0" d="M401.1,355.8c-1.2,0-2.2-0.4-2.9-1.1c-0.7-0.7-1-1.7-1-2.9v-8h-1.5c-0.2,0-0.3-0.1-0.5-0.2
				c-0.1-0.1-0.2-0.3-0.2-0.5v-1.4l2.3-0.4l0.7-3.9c0-0.2,0.1-0.3,0.3-0.4c0.1-0.1,0.3-0.2,0.5-0.2h1.8v4.5h3.8v2.5h-3.8v7.8
				c0,0.4,0.1,0.8,0.3,1c0.2,0.3,0.5,0.4,0.9,0.4c0.2,0,0.4,0,0.5-0.1c0.1-0.1,0.3-0.1,0.4-0.2c0.1-0.1,0.2-0.1,0.3-0.2
				c0.1-0.1,0.2-0.1,0.3-0.1c0.1,0,0.2,0,0.3,0.1c0.1,0.1,0.1,0.1,0.2,0.2l1,1.7c-0.5,0.4-1.1,0.7-1.7,1
				C402.5,355.7,401.8,355.8,401.1,355.8z"/>
			<path class="st0" d="M415.7,344c-0.1,0.1-0.2,0.3-0.3,0.3s-0.2,0.1-0.4,0.1c-0.2,0-0.3,0-0.5-0.1c-0.2-0.1-0.4-0.2-0.7-0.3
				c-0.3-0.1-0.5-0.2-0.9-0.3c-0.3-0.1-0.7-0.1-1.1-0.1c-0.7,0-1.2,0.1-1.6,0.4c-0.4,0.3-0.6,0.7-0.6,1.1c0,0.3,0.1,0.6,0.3,0.8
				c0.2,0.2,0.5,0.4,0.8,0.6c0.3,0.2,0.7,0.3,1.1,0.4c0.4,0.1,0.8,0.3,1.3,0.4c0.4,0.1,0.9,0.3,1.3,0.5c0.4,0.2,0.8,0.4,1.1,0.7
				s0.6,0.6,0.8,1.1c0.2,0.4,0.3,0.9,0.3,1.5c0,0.7-0.1,1.3-0.4,1.9c-0.3,0.6-0.6,1.1-1.1,1.5s-1.1,0.8-1.8,1s-1.5,0.4-2.5,0.4
				c-0.5,0-1,0-1.4-0.1s-0.9-0.2-1.4-0.4c-0.4-0.2-0.8-0.3-1.2-0.6c-0.4-0.2-0.7-0.4-1-0.7l0.8-1.3c0.1-0.2,0.2-0.3,0.4-0.4
				c0.1-0.1,0.3-0.1,0.5-0.1s0.4,0.1,0.6,0.2c0.2,0.1,0.4,0.3,0.7,0.4c0.3,0.1,0.5,0.3,0.9,0.4s0.8,0.2,1.3,0.2c0.4,0,0.8,0,1.1-0.1
				c0.3-0.1,0.5-0.2,0.7-0.4c0.2-0.2,0.3-0.3,0.4-0.6s0.1-0.4,0.1-0.7c0-0.3-0.1-0.6-0.3-0.8c-0.2-0.2-0.5-0.4-0.8-0.6
				c-0.3-0.2-0.7-0.3-1.1-0.4c-0.4-0.1-0.9-0.3-1.3-0.4s-0.9-0.3-1.3-0.5c-0.4-0.2-0.8-0.5-1.1-0.8c-0.3-0.3-0.6-0.7-0.8-1.1
				c-0.2-0.4-0.3-1-0.3-1.6c0-0.6,0.1-1.1,0.4-1.7s0.6-1,1-1.4c0.5-0.4,1-0.7,1.7-1c0.7-0.2,1.5-0.4,2.3-0.4c1,0,1.9,0.2,2.7,0.5
				c0.8,0.3,1.5,0.8,2,1.3L415.7,344z"/>
		</g>
	</g>
	<g>
		<g>
			<path d="M126.6,210.5c1.2,0,2.2-1,2.2-2.2v-0.1c0-1.2-1-2.2-2.2-2.2c-1.2,0-2.2,1-2.2,2.2v0.1
				C124.3,209.5,125.3,210.5,126.6,210.5z"/>
			<path d="M167,216.8c1.2,0,2.2-1,2.2-2.2v-0.1c0-1.2-1-2.2-2.2-2.2c-1.2,0-2.2,1-2.2,2.2v0.1C164.7,215.7,165.7,216.8,167,216.8z"
				/>
			<path d="M86.2,216.8c1.2,0,2.2-1,2.2-2.2v-0.1c0-1.2-1-2.2-2.2-2.2c-1.2,0-2.2,1-2.2,2.2v0.1C83.9,215.7,85,216.8,86.2,216.8z"/>
			<path d="M101.1,221.6c-1.2,0-2.2,1-2.2,2.2v6.4c-1.4,0.8-2.8,1.5-3.9,2.2c-2.6,1.4-4.8,2.5-6.4,4V221c0-1.2-1-2.2-2.2-2.2
				c-1.2,0-2.2,1-2.2,2.2v15.5c-1.7-1.5-3.8-2.6-6.4-4c-1.2-0.6-2.5-1.3-3.9-2.2v-6.4c0-1.2-1-2.2-2.2-2.2c-1.2,0-2.2,1-2.2,2.2v7.7
				c0,4.8,0.3,8,1.1,10.5c-0.7,0.4-1.1,1.1-1.1,1.9c0,4.8,0.3,8,1.1,10.5c-0.7,0.4-1.1,1.1-1.1,1.9c0,4.8,0.3,8,1.1,10.5
				c-0.7,0.4-1.1,1.1-1.1,1.9c0,4.8,0.3,8,1.1,10.5c-0.7,0.4-1.1,1.1-1.1,1.9c0,6.8,0.7,10.6,2.4,13.3c1.8,2.9,4.6,4.4,8.5,6.4
				c1.2,0.6,2.5,1.3,3.9,2.2v9.1c0,1.2,1,2.2,2.2,2.2c1.2,0,2.2-1,2.2-2.2v-9.2c1.4-0.8,2.8-1.5,3.9-2.2c3.9-2.1,6.7-3.6,8.5-6.4
				c1.7-2.7,2.4-6.5,2.4-13.3c0-0.8-0.4-1.5-1.1-1.9c0.8-2.5,1.1-5.7,1.1-10.5c0-0.8-0.4-1.5-1.1-1.9c0.8-2.5,1.1-5.7,1.1-10.5
				c0-0.8-0.4-1.5-1.1-1.9c0.8-2.5,1.1-5.7,1.1-10.5c0-0.8-0.4-1.5-1.1-1.9c0.8-2.5,1.1-5.7,1.1-10.5v-7.7
				C103.3,222.6,102.3,221.6,101.1,221.6z M75.4,248.9c6.3,3.4,8.1,4.3,8.5,11.9c-0.6-0.3-1.2-0.6-1.8-0.9
				c-6.3-3.4-8.1-4.3-8.5-11.9C74.3,248.3,74.8,248.6,75.4,248.9z M75.4,261.4c6.3,3.4,8.1,4.3,8.5,11.9c-0.6-0.3-1.2-0.6-1.8-0.9
				c-6.3-3.4-8.1-4.3-8.5-11.9C74.3,260.7,74.8,261.1,75.4,261.4z M75.4,273.8c6.3,3.4,8.1,4.3,8.5,11.9c-0.6-0.3-1.2-0.6-1.8-0.9
				c-6.3-3.4-8.1-4.3-8.5-11.9C74.3,273.2,74.8,273.5,75.4,273.8z M88.5,285.7c0.4-7.6,2.2-8.5,8.5-11.9c0.6-0.3,1.1-0.6,1.8-0.9
				c-0.4,7.6-2.2,8.5-8.5,11.9C89.7,285.1,89.1,285.4,88.5,285.7z M90.3,272.3c-0.6,0.3-1.1,0.6-1.8,0.9c0.4-7.6,2.2-8.5,8.5-11.9
				c0.6-0.3,1.1-0.6,1.8-0.9C98.4,268,96.6,269,90.3,272.3z M90.3,259.9c-0.6,0.3-1.1,0.6-1.8,0.9c0.4-7.6,2.2-8.5,8.5-11.9
				c0.6-0.3,1.1-0.6,1.8-0.9C98.4,255.5,96.6,256.5,90.3,259.9z M97,236.4c0.6-0.3,1.1-0.6,1.8-0.9c-0.4,7.6-2.2,8.5-8.5,11.9
				c-0.6,0.3-1.1,0.6-1.8,0.9C88.9,240.8,90.7,239.8,97,236.4z M75.4,236.4c6.3,3.4,8.1,4.3,8.5,11.9c-0.6-0.3-1.2-0.6-1.8-0.9
				c-6.3-3.4-8.1-4.3-8.5-11.9C74.3,235.8,74.8,236.1,75.4,236.4z M82.1,297.2c-6.3-3.4-8.1-4.3-8.5-11.9c0.6,0.3,1.2,0.6,1.8,0.9
				c6.3,3.4,8.1,4.3,8.5,11.9C83.3,297.8,82.7,297.5,82.1,297.2z M90.3,297.2c-0.6,0.3-1.1,0.6-1.8,0.9c0.4-7.6,2.2-8.5,8.5-11.9
				c0.6-0.3,1.1-0.6,1.8-0.9C98.4,292.9,96.6,293.9,90.3,297.2z"/>
			<path d="M184.1,223.9c0-1.2-1-2.2-2.2-2.2c-1.2,0-2.2,1-2.2,2.2v6.4c-1.4,0.8-2.8,1.5-3.9,2.2c-2.6,1.4-4.8,2.5-6.4,4V221
				c0-1.2-1-2.2-2.2-2.2c-1.2,0-2.2,1-2.2,2.2v15.5c-1.7-1.5-3.8-2.6-6.4-4c-1.2-0.6-2.5-1.3-3.9-2.2v-6.4c0-1.2-1-2.2-2.2-2.2
				c-1.2,0-2.2,1-2.2,2.2v7.7c0,4.8,0.3,8,1.1,10.5c-0.7,0.4-1.1,1.1-1.1,1.9c0,4.8,0.3,8,1.1,10.5c-0.7,0.4-1.1,1.1-1.1,1.9
				c0,4.8,0.3,8,1.1,10.5c-0.7,0.4-1.1,1.1-1.1,1.9c0,4.8,0.3,8,1.1,10.5c-0.7,0.4-1.1,1.1-1.1,1.9c0,6.8,0.7,10.6,2.4,13.3
				c1.8,2.9,4.6,4.4,8.5,6.4c1.2,0.6,2.5,1.3,3.9,2.2v9.1c0,1.2,1,2.2,2.2,2.2c1.2,0,2.2-1,2.2-2.2v-9.2c1.4-0.8,2.8-1.5,3.9-2.2
				c3.9-2.1,6.7-3.6,8.5-6.4c1.7-2.7,2.4-6.5,2.4-13.3c0-0.8-0.4-1.5-1.1-1.9c0.8-2.5,1.1-5.7,1.1-10.5c0-0.8-0.4-1.5-1.1-1.9
				c0.8-2.5,1.1-5.7,1.1-10.5c0-0.8-0.4-1.5-1.1-1.9c0.8-2.5,1.1-5.7,1.1-10.5c0-0.8-0.4-1.5-1.1-1.9c0.8-2.5,1.1-5.7,1.1-10.5
				V223.9z M156.2,248.9c6.3,3.4,8.1,4.3,8.5,11.9c-0.6-0.3-1.2-0.6-1.8-0.9c-6.3-3.4-8.1-4.3-8.5-11.9
				C155,248.3,155.6,248.6,156.2,248.9z M156.2,261.4c6.3,3.4,8.1,4.3,8.5,11.9c-0.6-0.3-1.2-0.6-1.8-0.9c-6.3-3.4-8.1-4.3-8.5-11.9
				C155,260.7,155.6,261.1,156.2,261.4z M156.2,273.8c6.3,3.4,8.1,4.3,8.5,11.9c-0.6-0.3-1.2-0.6-1.8-0.9c-6.3-3.4-8.1-4.3-8.5-11.9
				C155,273.2,155.6,273.5,156.2,273.8z M169.3,285.7c0.4-7.6,2.2-8.5,8.5-11.9c0.6-0.3,1.1-0.6,1.8-0.9c-0.4,7.6-2.2,8.5-8.5,11.9
				C170.5,285.1,169.9,285.4,169.3,285.7z M171,272.3c-0.6,0.3-1.1,0.6-1.8,0.9c0.4-7.6,2.2-8.5,8.5-11.9c0.6-0.3,1.1-0.6,1.8-0.9
				C179.1,268,177.3,269,171,272.3z M171,259.9c-0.6,0.3-1.1,0.6-1.8,0.9c0.4-7.6,2.2-8.5,8.5-11.9c0.6-0.3,1.1-0.6,1.8-0.9
				C179.1,255.5,177.3,256.5,171,259.9z M177.8,236.4c0.6-0.3,1.1-0.6,1.8-0.9c-0.4,7.6-2.2,8.5-8.5,11.9c-0.6,0.3-1.1,0.6-1.8,0.9
				C169.7,240.8,171.5,239.8,177.8,236.4z M156.2,236.4c6.3,3.4,8.1,4.3,8.5,11.9c-0.6-0.3-1.2-0.6-1.8-0.9
				c-6.3-3.4-8.1-4.3-8.5-11.9C155,235.8,155.6,236.1,156.2,236.4z M162.9,297.2c-6.3-3.4-8.1-4.3-8.5-11.9c0.6,0.3,1.2,0.6,1.8,0.9
				c6.3,3.4,8.1,4.3,8.5,11.9C164,297.8,163.4,297.5,162.9,297.2z M171,297.2c-0.6,0.3-1.1,0.6-1.8,0.9c0.4-7.6,2.2-8.5,8.5-11.9
				c0.6-0.3,1.1-0.6,1.8-0.9C179.1,292.9,177.3,293.9,171,297.2z"/>
			<path d="M141.4,215.4c-1.2,0-2.2,1-2.2,2.2v6.4c-1.4,0.8-2.8,1.5-3.9,2.2c-2.6,1.4-4.8,2.5-6.4,4v-15.5c0-1.2-1-2.2-2.2-2.2
				c-1.2,0-2.2,1-2.2,2.2v15.5c-1.7-1.5-3.8-2.6-6.4-4c-1.2-0.6-2.5-1.3-3.9-2.2v-6.4c0-1.2-1-2.2-2.2-2.2c-1.2,0-2.2,1-2.2,2.2v7.7
				c0,4.8,0.3,8,1.1,10.5c-0.7,0.4-1.1,1.1-1.1,1.9c0,4.8,0.3,8,1.1,10.5c-0.7,0.4-1.1,1.1-1.1,1.9c0,4.8,0.3,8,1.1,10.5
				c-0.7,0.4-1.1,1.1-1.1,1.9c0,4.8,0.3,8,1.1,10.5c-0.7,0.4-1.1,1.1-1.1,1.9c0,4.8,0.3,8,1.1,10.5c-0.7,0.4-1.1,1.1-1.1,1.9
				c0,6.8,0.7,10.6,2.4,13.3c1.8,2.9,4.6,4.4,8.5,6.4c1.2,0.6,2.5,1.3,3.9,2.2v9.2c0,1.2,1,2.2,2.2,2.2c1.2,0,2.2-1,2.2-2.2v-9.2
				c1.4-0.8,2.8-1.5,3.9-2.2c3.9-2.1,6.7-3.6,8.5-6.4c1.7-2.7,2.4-6.5,2.4-13.3c0-0.8-0.4-1.5-1.1-1.9c0.8-2.5,1.1-5.7,1.1-10.5
				c0-0.8-0.4-1.5-1.1-1.9c0.8-2.5,1.1-5.7,1.1-10.5c0-0.8-0.4-1.5-1.1-1.9c0.8-2.5,1.1-5.7,1.1-10.5c0-0.8-0.4-1.5-1.1-1.9
				c0.8-2.5,1.1-5.7,1.1-10.5c0-0.8-0.4-1.5-1.1-1.9c0.8-2.5,1.1-5.7,1.1-10.5v-7.7C143.7,216.4,142.7,215.4,141.4,215.4z
				 M115.8,242.7c6.3,3.4,8.1,4.3,8.5,11.9c-0.6-0.3-1.2-0.6-1.8-0.9c-6.3-3.4-8.1-4.3-8.5-11.9
				C114.6,242.1,115.2,242.4,115.8,242.7z M115.8,255.1c6.3,3.4,8.1,4.3,8.5,11.9c-0.6-0.3-1.2-0.6-1.8-0.9
				c-6.3-3.4-8.1-4.3-8.5-11.9C114.6,254.5,115.2,254.8,115.8,255.1z M115.8,267.6c6.3,3.4,8.1,4.3,8.5,11.9
				c-0.6-0.3-1.2-0.6-1.8-0.9c-6.3-3.4-8.1-4.3-8.5-11.9C114.6,267,115.2,267.3,115.8,267.6z M115.8,280c6.3,3.4,8.1,4.3,8.5,11.9
				c-0.6-0.3-1.2-0.6-1.8-0.9c-6.3-3.4-8.1-4.3-8.5-11.9C114.6,279.4,115.2,279.7,115.8,280z M128.9,291.9c0.4-7.6,2.2-8.5,8.5-11.9
				c0.6-0.3,1.1-0.6,1.8-0.9c-0.4,7.6-2.2,8.5-8.5,11.9C130.1,291.3,129.5,291.6,128.9,291.9z M130.7,278.5
				c-0.6,0.3-1.1,0.6-1.8,0.9c0.4-7.6,2.2-8.5,8.5-11.9c0.6-0.3,1.1-0.6,1.8-0.9C138.8,274.2,137,275.2,130.7,278.5z M130.7,266.1
				c-0.6,0.3-1.1,0.6-1.8,0.9c0.4-7.6,2.2-8.5,8.5-11.9c0.6-0.3,1.1-0.6,1.8-0.9C138.8,261.8,137,262.7,130.7,266.1z M130.7,253.6
				c-0.6,0.3-1.1,0.6-1.8,0.9c0.4-7.6,2.2-8.5,8.5-11.9c0.6-0.3,1.1-0.6,1.8-0.9C138.8,249.3,137,250.3,130.7,253.6z M137.4,230.2
				c0.6-0.3,1.1-0.6,1.8-0.9c-0.4,7.6-2.2,8.5-8.5,11.9c-0.6,0.3-1.1,0.6-1.8,0.9C129.3,234.5,131.1,233.6,137.4,230.2z
				 M115.8,230.2c6.3,3.4,8.1,4.3,8.5,11.9c-0.6-0.3-1.2-0.6-1.8-0.9c-6.3-3.4-8.1-4.3-8.5-11.9
				C114.6,229.6,115.2,229.9,115.8,230.2z M122.5,303.5c-6.3-3.4-8.1-4.3-8.5-11.9c0.6,0.3,1.2,0.6,1.8,0.9
				c6.3,3.4,8.1,4.3,8.5,11.9C123.6,304.1,123.1,303.8,122.5,303.5z M130.7,303.5c-0.6,0.3-1.1,0.6-1.8,0.9
				c0.4-7.6,2.2-8.5,8.5-11.9c0.6-0.3,1.1-0.6,1.8-0.9C138.8,299.1,137,300.1,130.7,303.5z"/>
		</g>
		<g>
			<path class="st0" d="M66.7,335.3h3c0.3,0,0.6,0.1,0.8,0.2c0.2,0.2,0.4,0.4,0.5,0.6l4.8,12.3c0.2,0.4,0.3,0.8,0.5,1.3
				s0.3,1,0.4,1.5c0.2-1.1,0.5-2,0.8-2.8l4.7-12.3c0.1-0.2,0.2-0.4,0.4-0.6c0.2-0.2,0.5-0.3,0.8-0.3h3l-8.2,20.2h-3.4L66.7,335.3z"
				/>
			<path class="st0" d="M92.5,341c0.9,0,1.7,0.1,2.5,0.4c0.8,0.3,1.4,0.7,2,1.3c0.6,0.6,1,1.2,1.3,2s0.5,1.7,0.5,2.8
				c0,0.3,0,0.5,0,0.7s-0.1,0.3-0.1,0.4c-0.1,0.1-0.1,0.2-0.2,0.2c-0.1,0-0.2,0.1-0.4,0.1h-8.9c0.1,1.5,0.5,2.6,1.2,3.2
				c0.7,0.7,1.6,1,2.7,1c0.6,0,1-0.1,1.4-0.2c0.4-0.1,0.8-0.3,1.1-0.4c0.3-0.2,0.6-0.3,0.8-0.4c0.2-0.1,0.5-0.2,0.7-0.2
				c0.1,0,0.3,0,0.4,0.1c0.1,0.1,0.2,0.1,0.3,0.2l1,1.3c-0.4,0.4-0.8,0.8-1.3,1.1c-0.5,0.3-1,0.5-1.5,0.7c-0.5,0.2-1,0.3-1.6,0.4
				c-0.5,0.1-1.1,0.1-1.6,0.1c-1,0-1.9-0.2-2.8-0.5c-0.9-0.3-1.6-0.8-2.2-1.5s-1.1-1.5-1.5-2.4c-0.4-1-0.5-2.1-0.5-3.3
				c0-1,0.2-1.9,0.5-2.8s0.8-1.6,1.4-2.3c0.6-0.6,1.3-1.1,2.2-1.5C90.5,341.1,91.5,341,92.5,341z M92.6,343.4c-1,0-1.8,0.3-2.4,0.9
				s-0.9,1.4-1.1,2.4h6.5c0-0.4-0.1-0.9-0.2-1.3c-0.1-0.4-0.3-0.7-0.6-1s-0.6-0.5-1-0.7C93.6,343.5,93.1,343.4,92.6,343.4z
				 M97.5,335.1l-3.5,3.7c-0.2,0.2-0.3,0.3-0.5,0.4c-0.2,0.1-0.4,0.1-0.6,0.1h-2.1l2-3.4c0.1-0.2,0.3-0.4,0.5-0.6
				c0.2-0.1,0.5-0.2,0.8-0.2H97.5z"/>
			<path class="st0" d="M106.5,340.9c0.6,0,1.2,0.1,1.7,0.2c0.5,0.1,1,0.3,1.5,0.6h4.1v1.3c0,0.2-0.1,0.4-0.2,0.5s-0.3,0.2-0.6,0.3
				l-1.3,0.2c0.1,0.2,0.2,0.5,0.2,0.8c0.1,0.3,0.1,0.6,0.1,0.9c0,0.7-0.1,1.4-0.4,1.9s-0.7,1.1-1.2,1.5c-0.5,0.4-1.1,0.7-1.8,0.9
				c-0.7,0.2-1.4,0.3-2.2,0.3c-0.5,0-1.1-0.1-1.6-0.2c-0.4,0.3-0.7,0.6-0.7,0.9c0,0.3,0.1,0.5,0.4,0.6c0.3,0.1,0.6,0.2,1.1,0.3
				c0.4,0.1,0.9,0.1,1.5,0.1c0.6,0,1.1,0,1.7,0.1c0.6,0,1.1,0.1,1.7,0.2s1,0.3,1.5,0.6s0.8,0.6,1,1c0.3,0.4,0.4,1,0.4,1.7
				c0,0.6-0.2,1.3-0.5,1.9c-0.3,0.6-0.8,1.1-1.4,1.6c-0.6,0.5-1.3,0.8-2.2,1.1c-0.9,0.3-1.8,0.4-2.9,0.4c-1.1,0-2-0.1-2.8-0.3
				s-1.5-0.5-2-0.8c-0.5-0.4-0.9-0.8-1.2-1.2c-0.3-0.5-0.4-0.9-0.4-1.4c0-0.7,0.2-1.2,0.6-1.7c0.4-0.5,1-0.8,1.7-1.1
				c-0.4-0.2-0.6-0.5-0.9-0.8c-0.2-0.3-0.3-0.8-0.3-1.3c0-0.2,0-0.4,0.1-0.7s0.2-0.5,0.3-0.7c0.2-0.2,0.3-0.4,0.6-0.6
				c0.2-0.2,0.5-0.4,0.8-0.5c-0.7-0.4-1.3-0.9-1.7-1.6c-0.4-0.7-0.6-1.4-0.6-2.3c0-0.7,0.1-1.4,0.4-1.9c0.3-0.6,0.7-1.1,1.2-1.5
				c0.5-0.4,1.1-0.7,1.8-0.9S105.7,340.9,106.5,340.9z M110.3,356.1c0-0.3-0.1-0.5-0.3-0.7c-0.2-0.2-0.4-0.3-0.7-0.4
				c-0.3-0.1-0.6-0.2-1-0.2c-0.4,0-0.8-0.1-1.2-0.1c-0.4,0-0.9,0-1.3,0s-0.9-0.1-1.3-0.2c-0.4,0.2-0.7,0.5-0.9,0.8
				c-0.2,0.3-0.4,0.6-0.4,1c0,0.3,0.1,0.5,0.2,0.7c0.1,0.2,0.3,0.4,0.6,0.6c0.3,0.2,0.6,0.3,1.1,0.4c0.4,0.1,1,0.1,1.6,0.1
				c0.6,0,1.2,0,1.7-0.2c0.5-0.1,0.9-0.2,1.2-0.4s0.5-0.4,0.7-0.6C110.3,356.7,110.3,356.4,110.3,356.1z M106.5,348
				c0.4,0,0.8-0.1,1.1-0.2c0.3-0.1,0.6-0.3,0.8-0.5c0.2-0.2,0.4-0.5,0.5-0.7c0.1-0.3,0.2-0.6,0.2-1c0-0.7-0.2-1.3-0.6-1.7
				c-0.4-0.4-1.1-0.6-1.9-0.6s-1.5,0.2-1.9,0.6c-0.4,0.4-0.6,1-0.6,1.7c0,0.3,0.1,0.6,0.2,0.9c0.1,0.3,0.3,0.5,0.5,0.7
				c0.2,0.2,0.5,0.4,0.8,0.5C105.8,348,106.1,348,106.5,348z"/>
			<path class="st0" d="M122,341c0.9,0,1.7,0.1,2.5,0.4c0.8,0.3,1.4,0.7,2,1.3c0.6,0.6,1,1.2,1.3,2s0.5,1.7,0.5,2.8
				c0,0.3,0,0.5,0,0.7s-0.1,0.3-0.1,0.4c-0.1,0.1-0.1,0.2-0.2,0.2c-0.1,0-0.2,0.1-0.4,0.1h-8.9c0.1,1.5,0.5,2.6,1.2,3.2
				c0.7,0.7,1.6,1,2.7,1c0.6,0,1-0.1,1.4-0.2c0.4-0.1,0.8-0.3,1.1-0.4c0.3-0.2,0.6-0.3,0.8-0.4c0.2-0.1,0.5-0.2,0.7-0.2
				c0.1,0,0.3,0,0.4,0.1c0.1,0.1,0.2,0.1,0.3,0.2l1,1.3c-0.4,0.4-0.8,0.8-1.3,1.1c-0.5,0.3-1,0.5-1.5,0.7c-0.5,0.2-1,0.3-1.6,0.4
				c-0.5,0.1-1.1,0.1-1.6,0.1c-1,0-1.9-0.2-2.8-0.5c-0.9-0.3-1.6-0.8-2.2-1.5s-1.1-1.5-1.5-2.4c-0.4-1-0.5-2.1-0.5-3.3
				c0-1,0.2-1.9,0.5-2.8s0.8-1.6,1.4-2.3c0.6-0.6,1.3-1.1,2.2-1.5C120,341.1,120.9,341,122,341z M122.1,343.4c-1,0-1.8,0.3-2.4,0.9
				s-0.9,1.4-1.1,2.4h6.5c0-0.4-0.1-0.9-0.2-1.3c-0.1-0.4-0.3-0.7-0.6-1s-0.6-0.5-1-0.7C123,343.5,122.6,343.4,122.1,343.4z
				 M126.9,335.1l-3.5,3.7c-0.2,0.2-0.3,0.3-0.5,0.4c-0.2,0.1-0.4,0.1-0.6,0.1h-2.1l2-3.4c0.1-0.2,0.3-0.4,0.5-0.6
				c0.2-0.1,0.5-0.2,0.8-0.2H126.9z"/>
			<path class="st0" d="M135.8,355.8c-1.2,0-2.2-0.4-2.9-1.1c-0.7-0.7-1-1.7-1-2.9v-8h-1.5c-0.2,0-0.3-0.1-0.5-0.2s-0.2-0.3-0.2-0.5
				v-1.4l2.3-0.4l0.7-3.9c0-0.2,0.1-0.3,0.3-0.4c0.1-0.1,0.3-0.2,0.5-0.2h1.8v4.5h3.8v2.5h-3.8v7.8c0,0.4,0.1,0.8,0.3,1
				s0.5,0.4,0.9,0.4c0.2,0,0.4,0,0.5-0.1c0.1-0.1,0.3-0.1,0.4-0.2c0.1-0.1,0.2-0.1,0.3-0.2c0.1-0.1,0.2-0.1,0.3-0.1
				c0.1,0,0.2,0,0.3,0.1c0.1,0.1,0.1,0.1,0.2,0.2l1,1.7c-0.5,0.4-1.1,0.7-1.7,1C137.1,355.7,136.5,355.8,135.8,355.8z"/>
			<path class="st0" d="M153.1,355.5h-1.6c-0.3,0-0.6,0-0.8-0.1c-0.2-0.1-0.3-0.3-0.4-0.6l-0.3-1c-0.4,0.3-0.7,0.6-1.1,0.9
				c-0.4,0.2-0.7,0.5-1.1,0.6c-0.4,0.2-0.8,0.3-1.2,0.4s-0.9,0.1-1.4,0.1c-0.6,0-1.2-0.1-1.7-0.2c-0.5-0.2-1-0.4-1.3-0.7
				c-0.4-0.3-0.7-0.7-0.9-1.2c-0.2-0.5-0.3-1.1-0.3-1.7c0-0.5,0.1-1.1,0.4-1.6s0.8-1,1.4-1.4c0.7-0.4,1.5-0.8,2.6-1.1
				c1.1-0.3,2.5-0.4,4.1-0.4v-0.8c0-1-0.2-1.7-0.6-2.2c-0.4-0.5-1-0.7-1.8-0.7c-0.6,0-1,0.1-1.4,0.2c-0.4,0.1-0.7,0.3-1,0.4
				c-0.3,0.2-0.5,0.3-0.8,0.4c-0.2,0.1-0.5,0.2-0.8,0.2c-0.2,0-0.4-0.1-0.6-0.2s-0.3-0.3-0.4-0.4l-0.6-1.1c1.7-1.5,3.6-2.3,6-2.3
				c0.8,0,1.6,0.1,2.2,0.4c0.7,0.3,1.2,0.7,1.7,1.1c0.5,0.5,0.8,1.1,1,1.8c0.2,0.7,0.4,1.4,0.4,2.2V355.5z M146.4,353.4
				c0.4,0,0.7,0,1-0.1c0.3-0.1,0.6-0.2,0.8-0.3s0.5-0.3,0.8-0.5c0.2-0.2,0.5-0.4,0.7-0.7v-2.4c-1,0-1.9,0.1-2.5,0.2
				c-0.7,0.1-1.2,0.3-1.6,0.5s-0.7,0.4-0.9,0.7c-0.2,0.3-0.3,0.5-0.3,0.9c0,0.6,0.2,1,0.5,1.3S145.8,353.4,146.4,353.4z"/>
			<path class="st0" d="M159.7,341.2v9.1c0,0.9,0.2,1.6,0.6,2c0.4,0.5,1,0.7,1.8,0.7c0.6,0,1.2-0.1,1.7-0.4c0.5-0.3,1-0.6,1.5-1.1
				v-10.4h3.5v14.4h-2.1c-0.4,0-0.7-0.2-0.9-0.6l-0.2-1.1c-0.3,0.3-0.6,0.6-0.9,0.8c-0.3,0.2-0.7,0.5-1,0.6s-0.7,0.3-1.2,0.4
				c-0.4,0.1-0.9,0.1-1.3,0.1c-0.8,0-1.5-0.1-2.1-0.4c-0.6-0.3-1.1-0.6-1.5-1.1s-0.7-1.1-0.9-1.7c-0.2-0.7-0.3-1.4-0.3-2.2v-9.1
				H159.7z"/>
			<path class="st0" d="M175.8,348.1l-4.7-7h3.3c0.3,0,0.4,0,0.6,0.1c0.1,0.1,0.2,0.2,0.3,0.3l3,4.8c0-0.2,0.1-0.3,0.2-0.5
				c0.1-0.2,0.2-0.3,0.3-0.5l2.4-3.8c0.1-0.2,0.2-0.3,0.4-0.4s0.3-0.1,0.4-0.1h3.2l-4.7,6.8l4.9,7.6H182c-0.3,0-0.5-0.1-0.6-0.2
				c-0.2-0.1-0.3-0.3-0.4-0.4l-3.1-5c-0.1,0.3-0.2,0.6-0.3,0.8l-2.7,4.2c-0.1,0.2-0.2,0.3-0.4,0.4c-0.1,0.1-0.3,0.2-0.6,0.2h-3.1
				L175.8,348.1z"/>
		</g>
	</g>
</g>
</svg>
