<?xml version="1.0" encoding="utf-8"?>
<!-- Generator: Adobe Illustrator 21.1.0, SVG Export Plug-In . SVG Version: 6.00 Build 0)  -->
<svg version="1.1" xmlns="http://www.w3.org/2000/svg" xmlns:xlink="http://www.w3.org/1999/xlink" x="0px" y="0px"
	 viewBox="0 0 2798 1354" style="enable-background:new 0 0 2798 1354;" xml:space="preserve">
<style type="text/css">
	.st0{fill:#3A3A3C;}
	.st1{opacity:0.5894;}
	.st2{fill:#FFFFFF;}
	.st3{fill:#FF0000;}
	.st4{fill:#83E054;}
</style>
<g id="Calque_1">
	<path class="st0" d="M1987.6,0.1H253.4c-16.6,0-30,13.4-30,30v1104.3c0,16.6,13.4,30,30,30h678.2c-0.4,17.9-4.3,36.4-11.6,55.2
		c-7.8,20-15.5,37.6-23.3,52.6c-2.2,4.3-4.1,8.2-5.7,11.9H739.7c-19.2,0-34.7,16-34.7,35.8s15.5,35.8,34.7,35.8h748.6
		c19.2,0,34.7-16,34.7-35.8s-15.5-35.8-34.7-35.8h-143.5c-1.5-3.5-3.4-7.3-5.5-11.5c-7.8-15.3-15.5-33.1-23.3-53.3
		c-7.3-19.1-11.2-37.4-11.6-54.9h683.2c16.6,0,30-13.4,30-30V30.1C2017.6,13.5,2004.2,0.1,1987.6,0.1z M1958,1085H278V61h1680V1085z
		"/>
	<g id="rect5090" class="st1">
		<rect x="249" y="707.5" class="st2" width="74" height="5.5"/>
	</g>
	<path class="st0" d="M441.9,663.3H130.1c-12.9,0-23.3,10.5-23.3,23.3v643.9c0,12.9,10.5,23.3,23.3,23.3h311.9
		c12.9,0,23.3-10.5,23.3-23.3V686.6C465.2,673.7,454.8,663.3,441.9,663.3z M286,1332c-17.7,0-32-14.3-32-32s14.3-32,32-32
		c17.7,0,32,14.3,32,32S303.7,1332,286,1332z M430,1246H135V721h295V1246z"/>
	<path class="st0" d="M2741.8,601.6h-1080c-31.2,0-56.5,25.4-56.5,56.5v640c0,31.2,25.4,56.5,56.5,56.5h1080
		c31.2,0,56.5-25.4,56.5-56.5v-640C2798.3,626.9,2773,601.6,2741.8,601.6z M2634,1291h-968V663h968V1291z M2719,1018
		c-22.1,0-40-17.9-40-40c0-22.1,17.9-40,40-40s40,17.9,40,40C2759,1000.1,2741.1,1018,2719,1018z"/>
	<g>
		<rect x="135.5" y="721.5" class="st2" width="294" height="524"/>
		<path d="M429,722v523H136V722H429 M430,721H135v525h295V721L430,721z"/>
	</g>
	<g>
		<rect x="1666.5" y="663.5" class="st2" width="967" height="627"/>
		<path d="M2633,664v626h-966V664H2633 M2634,663h-968v628h968V663L2634,663z"/>
	</g>
	<path class="st3" d="M2436.4,750.4l-229.9,228.1l229.9,228.1L2379,1264l-229.9-228.1L1921,1264l-57.4-57.4l228.1-228.1
		l-228.1-228.1L1921,693l228.1,228.1L2379,693L2436.4,750.4z"/>
	<path class="st3" d="M572.4,755.4L342.5,983.5l229.9,228.1L515,1269l-229.9-228.1L57,1269l-57.4-57.4l228.1-228.1L-0.4,755.4
		L57,698l228.1,228.1L515,698L572.4,755.4z"/>
	<g>
		<g id="check_x5F_alt">
			<path class="st4" d="M1120,288c-156.8,0-285,128.3-285,285s128.3,285,285,285s285-128.3,285-285S1276.8,288,1120,288z
				 M1075.5,704.8L945.4,573l49.9-49.9l80.2,80.2l171-171l49.9,49.9L1075.5,704.8z"/>
		</g>
	</g>
</g>
<g id="Layer_2">
</g>
</svg>
