<?xml version="1.0" encoding="utf-8"?>
<!-- Generator: Adobe Illustrator 22.0.1, SVG Export Plug-In . SVG Version: 6.00 Build 0)  -->
<svg version="1.1" id="Calque_1" xmlns="http://www.w3.org/2000/svg" xmlns:xlink="http://www.w3.org/1999/xlink" x="0px" y="0px"
	 viewBox="0 0 774.6 785.7" style="enable-background:new 0 0 774.6 785.7;" xml:space="preserve">
<path d="M654.9,438.4V586c0,73.9-59.9,133.7-133.7,133.7H135C61.2,719.7,1.3,659.8,1.3,586V199.7C1.3,125.9,61.2,66,135,66h386.3
	c18.6,0,37.1,3.7,54.3,11.6c4.2,1.8,7.4,6,8.3,10.6c1,5.2-0.4,9.7-4.2,13.5L557,124.4c-2.8,2.8-7,4.7-10.7,4.7
	c-1.3,0-2.7-0.4-4.2-0.9c-7-1.8-13.9-2.7-20.9-2.7H135c-40.8,0-74.3,33.4-74.3,74.2V586c0,40.8,33.4,74.3,74.3,74.3h386.3
	c40.8,0,74.3-33.4,74.3-74.3V468.1c0-3.7,1.4-7.4,4.2-10.2l29.7-29.7c3.2-3.2,7-4.7,10.7-4.7c1.8,0,3.7,0.5,5.6,1.4
	C651.3,427.2,654.9,432.3,654.9,438.4z M762.2,211.4L384.3,589.2c-14.9,14.9-38.1,14.9-52.9,0L131.7,389.6
	c-14.8-14.9-14.8-38.1,0-52.9l51.1-51.1c14.8-14.9,38.1-14.9,52.9,0l122.1,122l300.3-300.3c14.9-14.9,38.1-14.9,52.9,0l51.1,51.1
	C777,173.3,777,196.5,762.2,211.4L762.2,211.4z"/>
</svg>
