<?xml version="1.0" encoding="utf-8"?>
<!-- Generator: Adobe Illustrator 23.0.2, SVG Export Plug-In . SVG Version: 6.00 Build 0)  -->
<svg version="1.1" id="Calque_1" xmlns="http://www.w3.org/2000/svg" xmlns:xlink="http://www.w3.org/1999/xlink" x="0px" y="0px"
	 viewBox="0 0 810 329" style="enable-background:new 0 0 810 329;" xml:space="preserve">
<style type="text/css">
	.st0{fill:#FFFFFF;}
	.st1{fill:#00CC66;}
	.st2{fill:none;stroke:#000000;stroke-miterlimit:10;stroke-dasharray:10,10;}
	.st3{fill:#FF9900;}
</style>
<g>
	<rect x="218.9000092" y="90.3657455" class="st0" width="149.5" height="149.5"/>
	<path d="M368.1000061,90.5657501v149h-149v-149H368.1000061 M368.7000122,90.0657501h-150v150h150V90.0657501
		L368.7000122,90.0657501z"/>
</g>
<path class="st1" d="M487.5,32.5657463c0,0.4000015,0.1000061,0.7999992,0.2999878,1.0999985L509.5,71.1657486
	c0.3999939,0.6999969,1.1000061,1.0999985,1.8999939,1.0999985c0.7999573,0,1.4999695-0.4000015,1.8999939-1.0999985
	l21.6999512-37.5000038c0.2000122-0.2999992,0.2999878-0.7000008,0.2999878-1.0999985
	c0-0.4000015-0.0999756-0.7999992-0.2999878-1.0999985c-0.4000244-0.7000008-1.0999756-1.1000023-1.9000244-1.1000023h-43.2999573
	c-0.7999878,0-1.5,0.4000015-1.8999939,1.1000023C487.6000061,31.7657471,487.5,32.1657448,487.5,32.5657463z"/>
<g>
	<g>
		<polyline class="st2" points="379.2000122,244.8657532 379.2000122,249.8657532 374.2000122,249.8657532 		"/>
		<line class="st2" x1="364.2999878" y1="249.8657532" x2="11.2000055" y2="249.8657532"/>
		<polyline class="st2" points="6.200006,249.8657532 1.2000061,249.8657532 1.2000061,244.8657532 		"/>
		<line class="st2" x1="1.2000061" y1="235.465744" x2="1.2000061" y2="89.5657501"/>
		<polyline class="st2" points="1.2000061,84.8657532 1.2000061,79.8657532 6.200006,79.8657532 		"/>
		<line class="st2" x1="16.2000065" y1="79.8657532" x2="369.2999878" y2="79.8657532"/>
		<polyline class="st2" points="374.2000122,79.8657532 379.2000122,79.8657532 379.2000122,84.8657532 		"/>
		<line class="st2" x1="379.2000122" y1="94.2657471" x2="379.2000122" y2="240.1657562"/>
	</g>
</g>
<g>
	<g>
		<polyline class="st2" points="808.7999878,244.8657532 808.7999878,249.8657532 803.7999878,249.8657532 		"/>
		<line class="st2" x1="793.7999878" y1="249.8657532" x2="440.7000122" y2="249.8657532"/>
		<polyline class="st2" points="435.7999878,249.8657532 430.7999878,249.8657532 430.7999878,244.8657532 		"/>
		<line class="st2" x1="430.7999878" y1="235.465744" x2="430.7999878" y2="89.5657501"/>
		<polyline class="st2" points="430.7999878,84.8657532 430.7999878,79.8657532 435.7999878,79.8657532 		"/>
		<line class="st2" x1="445.7000122" y1="79.8657532" x2="798.7999878" y2="79.8657532"/>
		<polyline class="st2" points="803.7999878,79.8657532 808.7999878,79.8657532 808.7999878,84.8657532 		"/>
		<line class="st2" x1="808.7999878" y1="94.2657471" x2="808.7999878" y2="240.1657562"/>
	</g>
</g>
<g>
	<rect x="11.0000057" y="90.6657486" class="st0" width="149.5" height="149.5"/>
	<path d="M160.1999969,90.8657532v149h-149v-149H160.1999969 M160.8000031,90.3657532h-150v150h150V90.3657532
		L160.8000031,90.3657532z"/>
</g>
<g>
	<rect x="441" y="90.6657486" class="st0" width="149.5" height="149.5"/>
	<path d="M590.2000122,90.8657532v149h-149v-149H590.2000122 M590.7999878,90.3657532h-150v150h150V90.3657532
		L590.7999878,90.3657532z"/>
</g>
<g>
	<rect x="649" y="89.6657486" class="st0" width="149.5" height="149.5"/>
	<path d="M798.2000122,89.8657532v149h-149v-149H798.2000122 M798.7999878,89.3657532h-150v150h150V89.3657532
		L798.7999878,89.3657532z"/>
</g>
<g>
	<path d="M661.5,173.4157257h-3v-15.8999939h3V173.4157257z"/>
	<path d="M665,173.4157257v-11.3000031h1.7000122c0.4000244,0,0.5999756,0.1999969,0.7000122,0.5l0.2000122,0.8999939
		c0.2000122-0.1999969,0.5-0.3999939,0.7000122-0.6000061c0.2999878-0.1999969,0.5-0.3999939,0.7999878-0.5
		s0.5999756-0.1999969,0.9000244-0.3000031s0.7000122-0.1000061,1.0999756-0.1000061
		c0.5999756,0,1.2000122,0.1000061,1.5999756,0.3000031c0.5,0.1999969,0.9000244,0.5,1.2000122,0.8999939
		s0.5999756,0.8000031,0.7000122,1.3999939c0.2000122,0.5,0.2000122,1.1000061,0.2000122,1.6999969v7.1999969h-2.7000122v-7.1999969
		c0-0.6999969-0.2000122-1.1999969-0.5-1.6000061s-0.7999878-0.6000061-1.4000244-0.6000061
		c-0.5,0-0.9000244,0.1000061-1.2999878,0.3000031c-0.4000244,0.1999969-0.7999878,0.5-1.2000122,0.8999939v8.1999969
		L665,173.4157257L665,173.4157257z"/>
	<path d="M681.2000122,173.5157318c-1,0-1.7000122-0.3000031-2.2999878-0.8000031
		c-0.5-0.6000061-0.7999878-1.3000031-0.7999878-2.3000031v-6.3000031H677c-0.0999756,0-0.2999878,0-0.4000244-0.1000061
		c-0.0999756-0.1000061-0.2000122-0.1999969-0.2000122-0.3999939v-1.1000061l1.7999878-0.3000031l0.5999756-3.1000061
		c0-0.1000061,0.0999756-0.3000031,0.2000122-0.3000031c0.0999756-0.1000061,0.2000122-0.1000061,0.4000244-0.1000061h1.4000244
		v3.6000061h3v1.8999939h-3v6.1000061c0,0.3999939,0.0999756,0.6000061,0.2999878,0.8000031
		s0.4000244,0.3000031,0.7000122,0.3000031c0.2000122,0,0.2999878,0,0.4000244-0.1000061
		c0.0999756-0.1000061,0.2000122-0.1000061,0.2999878-0.1000061s0.2000122-0.1000061,0.2000122-0.1000061
		c0.0999756,0,0.0999756-0.1000061,0.2000122-0.1000061c0.0999756,0,0.0999756,0,0.2000122,0.1000061
		c0.0999756,0,0.0999756,0.1000061,0.2000122,0.1999969l0.7999878,1.3000031
		c-0.4000244,0.3000031-0.9000244,0.6000061-1.4000244,0.6999969
		C682.2999878,173.5157318,681.7000122,173.5157318,681.2000122,173.5157318z"/>
	<path d="M690.5999756,161.9157257c0.7000122,0,1.4000244,0.1000061,2,0.3000031s1.0999756,0.6000061,1.5,1s0.7999878,1,1,1.6000061
		S695.5,166.2157288,695.5,167.0157318c0,0.1999969,0,0.3999939,0,0.5s-0.0999756,0.1999969-0.0999756,0.3000031
		s-0.0999756,0.1000061-0.2000122,0.1999969c-0.0999756,0-0.2000122,0-0.2999878,0h-7
		c0.0999756,1.1999969,0.4000244,2,0.9000244,2.6000061s1.2999878,0.8000031,2.2000122,0.8000031
		c0.4000244,0,0.7999878-0.1000061,1.0999756-0.1999969c0.2999878-0.1000061,0.5999756-0.1999969,0.7999878-0.3000031
		s0.4000244-0.1999969,0.5999756-0.3000031c0.2000122-0.1000061,0.4000244-0.1999969,0.5-0.1999969s0.2000122,0,0.2999878,0.1000061
		S694.5,170.6157532,694.5,170.715744l0.7999878,1c-0.2999878,0.3999939-0.5999756,0.6000061-1,0.8999939
		c-0.4000244,0.3000031-0.7999878,0.3999939-1.2000122,0.6000061c-0.4000244,0.1000061-0.7999878,0.1999969-1.2000122,0.3000031
		s-0.7999878,0.1000061-1.2000122,0.1000061c-0.7999878,0-1.5-0.1000061-2.2000122-0.3999939
		s-1.2999878-0.6000061-1.7999878-1.1999969c-0.5-0.5-0.9000244-1.1000061-1.2000122-1.8999939
		c-0.2999878-0.8000031-0.4000244-1.6000061-0.4000244-2.6000061c0-0.8000031,0.0999756-1.5,0.4000244-2.1999969
		c0.2000122-0.6999969,0.5999756-1.3000031,1.0999756-1.8000031s1-0.8999939,1.7000122-1.1999969
		C689,162.1157379,689.7999878,161.9157257,690.5999756,161.9157257z M690.7000122,163.9157257
		c-0.7999878,0-1.4000244,0.1999969-1.9000244,0.6999969s-0.7000122,1.1000061-0.9000244,1.8999939h5.0999756
		c0-0.3999939,0-0.6999969-0.0999756-1s-0.2000122-0.6000061-0.4000244-0.8000031s-0.4000244-0.3999939-0.7000122-0.6000061
		C691.5,163.9157257,691.0999756,163.9157257,690.7000122,163.9157257z"/>
	<path d="M697.7000122,173.4157257v-11.3000031h1.5999756c0.2999878,0,0.5,0.1000061,0.5999756,0.1999969
		s0.2000122,0.3000031,0.2000122,0.5l0.2000122,1.3999939c0.4000244-0.6999969,0.9000244-1.1999969,1.4000244-1.6000061
		s1.2000122-0.6000061,1.7999878-0.6000061s1,0.1000061,1.4000244,0.3999939l-0.4000244,2
		c0,0.1000061-0.0999756,0.1999969-0.0999756,0.3000031c-0.0999756,0.1000061-0.2000122,0.1000061-0.2999878,0.1000061
		s-0.2999878,0-0.5-0.1000061s-0.4000244-0.1000061-0.7999878-0.1000061c-0.5999756,0-1,0.1999969-1.5,0.5
		s-0.7000122,0.8000031-1,1.3999939v7L697.7000122,173.4157257L697.7000122,173.4157257L697.7000122,173.4157257z"/>
	<path d="M712.4000244,173.4157257h-2.5l-4.5-11.3000031h2.2999878c0.2000122,0,0.4000244,0,0.5,0.1000061
		s0.2000122,0.1999969,0.2999878,0.3999939l2.2000122,6c0.0999756,0.3999939,0.2000122,0.6999969,0.2999878,1
		s0.2000122,0.6999969,0.2000122,1c0.0999756-0.3000031,0.0999756-0.6999969,0.2000122-1
		c0.0999756-0.3000031,0.2000122-0.6999969,0.2999878-1l2.2000122-6C714,162.5157166,714,162.3157196,714.2000122,162.2157288
		c0.0999756-0.1000061,0.2999878-0.1000061,0.5-0.1000061h2.0999756L712.4000244,173.4157257z"/>
	<path d="M722.7999878,161.9157257c0.7000122,0,1.4000244,0.1000061,2,0.3000031s1.0999756,0.6000061,1.5,1s0.7999878,1,1,1.6000061
		s0.4000244,1.3999939,0.4000244,2.1999969c0,0.1999969,0,0.3999939,0,0.5s-0.0999756,0.1999969-0.0999756,0.3000031
		s-0.0999756,0.1000061-0.2000122,0.1999969c-0.0999756,0-0.2000122,0-0.2999878,0h-7
		c0.0999756,1.1999969,0.4000244,2,0.9000244,2.6000061c0.5,0.5,1.2999878,0.8000031,2.2000122,0.8000031
		c0.4000244,0,0.7999878-0.1000061,1.0999756-0.1999969c0.2999878-0.1000061,0.5999756-0.1999969,0.7999878-0.3000031
		s0.4000244-0.1999969,0.5999756-0.3000031c0.2000122-0.1000061,0.4000244-0.1999969,0.5-0.1999969s0.2000122,0,0.2999878,0.1000061
		c0.0999756,0,0.2000122,0.1000061,0.2000122,0.1999969l0.7999878,1c-0.2999878,0.3999939-0.5999756,0.6000061-1,0.8999939
		c-0.4000244,0.1999969-0.7999878,0.3999939-1.2000122,0.6000061c-0.4000244,0.1000061-0.7999878,0.1999969-1.2000122,0.3000031
		s-0.7999878,0.1000061-1.2000122,0.1000061c-0.7999878,0-1.5-0.1000061-2.2000122-0.3999939
		s-1.2999878-0.6000061-1.7999878-1.1999969c-0.5-0.5-0.9000244-1.1000061-1.2000122-1.8999939
		c-0.2999878-0.8000031-0.4000244-1.6000061-0.4000244-2.6000061c0-0.8000031,0.0999756-1.5,0.4000244-2.1999969
		c0.2000122-0.6999969,0.5999756-1.3000031,1.0999756-1.8000031s1-0.8999939,1.7000122-1.1999969
		C721.2000122,162.1157379,721.9000244,161.9157257,722.7999878,161.9157257z M722.7999878,163.9157257
		c-0.7999878,0-1.4000244,0.1999969-1.9000244,0.6999969s-0.7000122,1.1000061-0.9000244,1.8999939h5.0999756
		c0-0.3999939,0-0.6999969-0.0999756-1s-0.2000122-0.6000061-0.4000244-0.8000031s-0.4000244-0.3999939-0.7000122-0.6000061
		C723.5999756,163.9157257,723.2000122,163.9157257,722.7999878,163.9157257z"/>
	<path d="M729.9000244,173.4157257v-11.3000031h1.7000122c0.4000244,0,0.5999756,0.1999969,0.7000122,0.5l0.2000122,0.8999939
		c0.2000122-0.1999969,0.5-0.3999939,0.7000122-0.6000061s0.5-0.3999939,0.7999878-0.5s0.5999756-0.1999969,0.9000244-0.3000031
		c0.2999878-0.1000061,0.7000122-0.1000061,1.0999756-0.1000061c0.5999756,0,1.2000122,0.1000061,1.5999756,0.3000031
		c0.5,0.1999969,0.9000244,0.5,1.2000122,0.8999939s0.5999756,0.8000031,0.7000122,1.3999939
		c0.0999756,0.6000061,0.2000122,1.1000061,0.2000122,1.6999969v7.1999969H737v-7.1999969
		c0-0.6999969-0.2000122-1.1999969-0.5-1.6000061s-0.7999878-0.6000061-1.4000244-0.6000061
		c-0.5,0-0.9000244,0.1000061-1.2999878,0.3000031c-0.4000244,0.1999969-0.7999878,0.5-1.2000122,0.8999939v8.1999969
		L729.9000244,173.4157257L729.9000244,173.4157257L729.9000244,173.4157257z"/>
	<path d="M746.0999756,173.5157318c-1,0-1.7000122-0.3000031-2.2999878-0.8000031
		c-0.5-0.6000061-0.7999878-1.3000031-0.7999878-2.3000031v-6.3000031h-1.0999756c-0.0999756,0-0.2999878,0-0.4000244-0.1000061
		c-0.0999756-0.1000061-0.2000122-0.1999969-0.2000122-0.3999939v-1.1000061l1.7999878-0.3000031l0.5999756-3.1000061
		c0-0.1000061,0.0999756-0.3000031,0.2000122-0.3000031c0.0999756-0.1000061,0.2000122-0.1000061,0.4000244-0.1000061h1.4000244
		v3.6000061h3v1.8999939h-3v6.1000061c0,0.3999939,0.0999756,0.6000061,0.2999878,0.8000031
		s0.4000244,0.3000031,0.7000122,0.3000031c0.2000122,0,0.2999878,0,0.4000244-0.1000061
		c0.0999756,0,0.2000122-0.1000061,0.2999878-0.1000061s0.2000122-0.1000061,0.2000122-0.1000061
		c0.0999756,0,0.0999756-0.1000061,0.2000122-0.1000061c0.0999756,0,0.0999756,0,0.2000122,0.1000061
		c0.0999756,0,0.0999756,0.1000061,0.2000122,0.1999969l0.7999878,1.3000031
		c-0.4000244,0.3000031-0.9000244,0.6000061-1.4000244,0.6999969
		C747.0999756,173.4157257,746.5999756,173.5157318,746.0999756,173.5157318z"/>
	<path d="M754.2000122,158.8157349c0,0.1999969,0,0.5-0.0999756,0.6999969s-0.2000122,0.3999939-0.4000244,0.5
		s-0.2999878,0.3000031-0.5999756,0.3999939c-0.2000122,0.1000061-0.4000244,0.1000061-0.7000122,0.1000061
		c-0.2000122,0-0.5,0-0.7000122-0.1000061s-0.4000244-0.1999969-0.5-0.3999939s-0.2999878-0.3000031-0.4000244-0.5
		s-0.0999756-0.3999939-0.0999756-0.6999969c0-0.1999969,0-0.5,0.0999756-0.6999969s0.2000122-0.3999939,0.4000244-0.5
		c0.2000122-0.1999969,0.2999878-0.3000031,0.5-0.3999939c0.2000122-0.1000061,0.4000244-0.1000061,0.7000122-0.1000061
		c0.2000122,0,0.5,0,0.7000122,0.1000061s0.4000244,0.1999969,0.5999756,0.3999939
		c0.2000122,0.1999969,0.2999878,0.3000031,0.4000244,0.5C754.0999756,158.3157349,754.2000122,158.6157379,754.2000122,158.8157349
		z M753.7999878,162.1157379v11.3000031h-2.7000122v-11.3000031H753.7999878z"/>
	<path d="M761.7000122,161.9157257c0.7999878,0,1.5999756,0.1000061,2.2999878,0.3999939s1.2999878,0.6999969,1.7999878,1.1999969
		s0.9000244,1.1000061,1.0999756,1.8000031c0.2999878,0.6999969,0.4000244,1.5,0.4000244,2.3999939
		s-0.0999756,1.6999969-0.4000244,2.3999939c-0.2999878,0.6999969-0.5999756,1.3000031-1.0999756,1.8000031
		S764.7000122,172.8157043,764,173.1157074s-1.5,0.3999939-2.2999878,0.3999939s-1.5999756-0.1000061-2.2999878-0.3999939
		s-1.2999878-0.6999969-1.7999878-1.1999969s-0.9000244-1.1000061-1.0999756-1.8000031s-0.4000244-1.5-0.4000244-2.3999939
		s0.0999756-1.6999969,0.4000244-2.3999939s0.5999756-1.3000031,1.0999756-1.8000031s1.0999756-0.8999939,1.7999878-1.1999969
		S760.7999878,161.9157257,761.7000122,161.9157257z M761.7000122,171.4157257c0.9000244,0,1.5999756-0.3000031,2.0999756-0.8999939
		S764.5,168.9157257,764.5,167.7157288s-0.2000122-2.1000061-0.7000122-2.8000031c-0.5-0.6000061-1.0999756-1-2.0999756-1
		s-1.7000122,0.3000031-2.0999756,1c-0.5,0.6000061-0.7000122,1.6000061-0.7000122,2.8000031
		s0.2000122,2.1000061,0.7000122,2.8000031C760,171.1157379,760.7000122,171.4157257,761.7000122,171.4157257z"/>
	<path d="M769.2999878,173.4157257v-11.3000031H771c0.4000244,0,0.5999756,0.1999969,0.7000122,0.5l0.2000122,0.8999939
		c0.2000122-0.1999969,0.5-0.3999939,0.7000122-0.6000061c0.2999878-0.1999969,0.5-0.3999939,0.7999878-0.5
		s0.5999756-0.1999969,0.9000244-0.3000031s0.7000122-0.1000061,1.0999756-0.1000061
		c0.5999756,0,1.2000122,0.1000061,1.5999756,0.3000031c0.5,0.1999969,0.9000244,0.5,1.2000122,0.8999939
		s0.5999756,0.8000031,0.7000122,1.3999939c0.2000122,0.5,0.2000122,1.1000061,0.2000122,1.6999969v7.1999969h-2.7000122v-7.1999969
		c0-0.6999969-0.2000122-1.1999969-0.5-1.6000061s-0.7999878-0.6000061-1.4000244-0.6000061
		c-0.5,0-0.9000244,0.1000061-1.2999878,0.3000031c-0.4000244,0.1999969-0.7999878,0.5-1.2000122,0.8999939v8.1999969
		L769.2999878,173.4157257L769.2999878,173.4157257z"/>
	<path d="M788.5999756,164.3157349c-0.0999756,0.1000061-0.2000122,0.1999969-0.2000122,0.1999969
		c-0.0999756,0-0.2000122,0.1000061-0.2999878,0.1000061s-0.2999878,0-0.4000244-0.1000061s-0.2999878-0.1999969-0.5-0.1999969
		c-0.2000122-0.1000061-0.4000244-0.1999969-0.7000122-0.1999969s-0.5999756-0.1000061-0.9000244-0.1000061
		c-0.5,0-1,0.1000061-1.2999878,0.3000031s-0.5,0.5-0.5,0.8999939c0,0.1999969,0.0999756,0.3999939,0.2000122,0.6000061
		c0.0999756,0.1999969,0.4000244,0.3000031,0.5999756,0.3999939s0.5999756,0.1999969,0.9000244,0.3000031
		c0.2999878,0.1000061,0.7000122,0.1999969,1,0.3000031s0.7000122,0.3000031,1,0.3999939
		c0.2999878,0.1000061,0.5999756,0.3000031,0.9000244,0.6000061c0.2999878,0.1999969,0.5,0.5,0.5999756,0.8000031
		c0.2000122,0.3000031,0.2000122,0.6999969,0.2000122,1.1999969s-0.0999756,1-0.2999878,1.5s-0.5,0.8999939-0.9000244,1.1999969
		s-0.9000244,0.6000061-1.4000244,0.8000031s-1.2000122,0.3000031-1.9000244,0.3000031
		c-0.4000244,0-0.7999878,0-1.0999756-0.1000061s-0.7000122-0.1999969-1.0999756-0.3000031
		c-0.2999878-0.1000061-0.7000122-0.3000031-0.9000244-0.3999939c-0.2999878-0.1999969-0.5-0.3999939-0.7999878-0.5l0.5999756-1
		c0.0999756-0.1000061,0.2000122-0.1999969,0.2999878-0.3000031s0.2000122-0.1000061,0.4000244-0.1000061s0.2999878,0,0.5,0.1000061
		s0.2999878,0.1999969,0.5,0.3000031s0.4000244,0.1999969,0.7000122,0.3000031s0.5999756,0.1000061,1,0.1000061
		c0.2999878,0,0.5999756,0,0.7999878-0.1000061s0.4000244-0.1999969,0.5999756-0.3000031
		c0.2000122-0.1000061,0.2999878-0.3000031,0.2999878-0.3999939c0.0999756-0.1999969,0.0999756-0.3000031,0.0999756-0.5
		c0-0.3000031-0.0999756-0.5-0.2000122-0.6000061c-0.2000122-0.1999969-0.4000244-0.3000031-0.5999756-0.3999939
		c-0.2999878-0.1000061-0.5999756-0.1999969-0.9000244-0.3000031c-0.2999878-0.1000061-0.7000122-0.1999969-1-0.3000031
		s-0.7000122-0.3000031-1-0.3999939c-0.2999878-0.1999969-0.5999756-0.3999939-0.9000244-0.6000061
		c-0.2999878-0.1999969-0.5-0.5-0.5999756-0.8999939c-0.2000122-0.3999939-0.2000122-0.8000031-0.2000122-1.3000031
		s0.0999756-0.8999939,0.2999878-1.3000031s0.5-0.8000031,0.7999878-1.1000061s0.7999878-0.6000061,1.2999878-0.6999969
		c0.5-0.1999969,1.0999756-0.3000031,1.7999878-0.3000031c0.7999878,0,1.5,0.1000061,2.0999756,0.3999939
		s1.2000122,0.6000061,1.5999756,1L788.5999756,164.3157349z"/>
</g>
<g>
	<path d="M33.4000092,167.965744c0.2000008,0,0.2999992,0.1000061,0.4000015,0.1999969l1.2000008,1.3000031
		c-0.5999985,0.8000031-1.4000015,1.3999939-2.4000015,1.8000031c-0.9000015,0.3999939-2.1000023,0.6000061-3.4000015,0.6000061
		c-1.2000008,0-2.2000008-0.1999969-3.2000008-0.6000061c-1-0.3999939-1.7000008-1-2.3999996-1.6999969
		c-0.7000008-0.6999969-1.2000008-1.6000061-1.5-2.6000061c-0.3999996-1-0.5-2.1000061-0.5-3.3000031
		s0.2000008-2.3000031,0.6000004-3.3000031s1-1.8000031,1.7000008-2.6000061
		c0.7000008-0.6999969,1.6000004-1.3000031,2.6000004-1.6999969s2.1000004-0.6000061,3.2999992-0.6000061
		c1.2000008,0,2.2000027,0.1999969,3.1000004,0.6000061c0.9000015,0.3999939,1.5999985,0.8999939,2.2999992,1.5l-1,1.3999939
		c-0.0999985,0.1000061-0.0999985,0.1999969-0.2000008,0.1999969c-0.0999985,0.1000061-0.2000008,0.1000061-0.4000015,0.1000061
		s-0.2999992-0.1000061-0.5-0.1999969c-0.2000008-0.1000061-0.4000015-0.3000031-0.7000008-0.3999939
		c-0.2999992-0.1999969-0.6000023-0.3000031-1.0000019-0.3999939c-0.3999996-0.1000061-0.8999996-0.1999969-1.6000004-0.1999969
		s-1.3999996,0.1000061-2.1000004,0.3999939c-0.6000004,0.3000031-1.2000008,0.6000061-1.6000004,1.1000061
		c-0.5,0.5-0.7999992,1.1000061-1.1000004,1.8000031c-0.2999992,0.6999969-0.3999996,1.5-0.3999996,2.3000031
		c0,0.8999939,0.1000004,1.6999969,0.3999996,2.3999939s0.6000004,1.3000031,1,1.8000031s0.8999996,0.8000031,1.5,1.1000061
		s1.2000008,0.3999939,1.8999996,0.3999939c0.3999996,0,0.7999992,0,1.1000004-0.1000061
		c0.2999992,0,0.6000004-0.1000061,0.8999996-0.1999969c0.2999992-0.1000061,0.5-0.1999969,0.8000031-0.3999939
		c0.2999992-0.1999969,0.5-0.3000031,0.7000008-0.6000061c0.0999985-0.1000061,0.2000008-0.1000061,0.2000008-0.1999969
		C33.1000061,167.7657471,33.3000069,167.965744,33.4000092,167.965744z"/>
	<path d="M41.9000092,160.2657471c0.7999992,0,1.5999985,0.1000061,2.2999992,0.3999939s1.2999992,0.6999969,1.7999992,1.1999969
		s0.9000015,1.1000061,1.0999985,1.8000031s0.4000015,1.5,0.4000015,2.3999939s-0.0999985,1.6999969-0.4000015,2.3999939
		s-0.5999985,1.3000031-1.0999985,1.8000031s-1.0999985,0.8999939-1.7999992,1.1999969s-1.5,0.3999939-2.2999992,0.3999939
		s-1.5999985-0.1000061-2.2999992-0.3999939c-0.7000008-0.3000031-1.2999992-0.6999969-1.7999992-1.1999969
		s-0.9000015-1.1000061-1.0999985-1.8000031c-0.2999992-0.6999969-0.4000015-1.5-0.4000015-2.3999939
		s0.0999985-1.6999969,0.4000015-2.3999939c0.2999992-0.6999969,0.5999985-1.3000031,1.0999985-1.8000031
		s1.0999985-0.8999939,1.7999992-1.1999969C40.2000084,160.3657532,41.0000076,160.2657471,41.9000092,160.2657471z
		 M41.9000092,169.7657471c0.9000015,0,1.5999985-0.3000031,2.0999985-0.8999939s0.7000008-1.6000061,0.7000008-2.8000031
		s-0.2000008-2.1000061-0.7000008-2.8000031c-0.5-0.6000061-1.0999985-1-2.0999985-1s-1.7000008,0.3000031-2.0999985,1
		c-0.5,0.6000061-0.7000008,1.6000061-0.7000008,2.8000031s0.2000008,2.1000061,0.7000008,2.8000031
		C40.2000084,169.465744,40.9000092,169.7657471,41.9000092,169.7657471z"/>
	<path d="M49.5000076,171.6657562v-11.3000031h1.7000008c0.4000015,0,0.5999985,0.1999969,0.7000008,0.5l0.2000008,0.8000031
		c0.2000008-0.1999969,0.4000015-0.3999939,0.5999985-0.6000061c0.2000008-0.1999969,0.4000015-0.3000031,0.7000008-0.5
		s0.5-0.1999969,0.7999992-0.3000031s0.5999985-0.1000061,0.9000015-0.1000061c0.7000008,0,1.2999992,0.1999969,1.7999992,0.6000061
		c0.5,0.3999939,0.7999992,0.8999939,1,1.5c0.2000008-0.3999939,0.4000015-0.6999969,0.7000008-1s0.5999985-0.5,0.9000015-0.6999969
		c0.2999992-0.1999969,0.7000008-0.3000031,1-0.3999939s0.7000008-0.1000061,1.0999985-0.1000061
		c0.5999985,0,1.2000008,0.1000061,1.7000008,0.3000031s0.9000015,0.5,1.1999969,0.8000031
		c0.3000031,0.3999939,0.5999985,0.8000031,0.8000031,1.3000031s0.3000031,1.1000061,0.3000031,1.8000031v7.1999969H62.900013
		v-7.1999969c0-0.6999969-0.2000008-1.3000031-0.5-1.6000061c-0.2999992-0.3999939-0.7999992-0.5-1.4000015-0.5
		c-0.2999992,0-0.5,0-0.7999992,0.1000061c-0.2000008,0.1000061-0.4000015,0.1999969-0.5999985,0.3999939
		c-0.2000008,0.1999969-0.2999992,0.3999939-0.4000015,0.6999969s-0.2000008,0.6000061-0.2000008,0.8999939v7.1999969h-2.7000008
		v-7.1999969c0-0.8000031-0.2000008-1.3000031-0.5-1.6999969s-0.8000031-0.5-1.3000031-0.5
		c-0.4000015,0-0.7999992,0.1000061-1.0999985,0.3000031s-0.7000008,0.5-1,0.8000031v8.3000031h-2.9000015
		C49.5000076,171.465744,49.5000076,171.6657562,49.5000076,171.6657562z"/>
	<path d="M68.1000061,175.3657532v-15h1.6999969c0.1999969,0,0.3000031,0,0.5,0.1000061S70.5,160.6657562,70.5,160.8657532
		l0.1999969,1c0.5-0.5,1-0.8999939,1.5999985-1.3000031c0.5999985-0.3000031,1.3000031-0.5,2.0999985-0.5
		c0.5999985,0,1.1999969,0.1000061,1.6999969,0.3999939c0.5,0.3000031,0.9000015,0.6000061,1.3000031,1.1000061
		s0.6999969,1.1000061,0.9000015,1.8000031c0.1999969,0.6999969,0.3000031,1.5,0.3000031,2.5
		c0,0.8000031-0.0999985,1.6000061-0.3000031,2.3000031c-0.1999969,0.6999969-0.5999985,1.3000031-1,1.8999939
		c-0.4000015,0.5-0.9000015,0.8999939-1.5,1.1999969s-1.3000031,0.3999939-2,0.3999939
		c-0.5999985,0-1.1999969-0.1000061-1.5999985-0.3000031s-0.8000031-0.5-1.1999969-0.8000031v4.6000061h-2.9000015
		C68.1000061,175.1657562,68.1000061,175.3657532,68.1000061,175.3657532z M73.3000107,162.3657532
		c-0.5999985,0-1,0.1000061-1.4000015,0.3999939c-0.4000015,0.1999969-0.8000031,0.6000061-1.0999985,1v5.1000061
		c0.3000031,0.3999939,0.5999985,0.6000061,1,0.8000031s0.8000031,0.1999969,1.1999969,0.1999969
		c0.4000015,0,0.8000031-0.1000061,1.0999985-0.1999969c0.3000031-0.1999969,0.5999985-0.3999939,0.8000031-0.6999969
		s0.4000015-0.6999969,0.5-1.1999969s0.1999969-1,0.1999969-1.6999969s-0.0999985-1.1999969-0.1999969-1.6999969
		s-0.3000031-0.8000031-0.5-1.1000061s-0.4000015-0.5-0.6999969-0.6000061
		C74.0000076,162.3657532,73.7000046,162.3657532,73.3000107,162.3657532z"/>
	<path d="M84.2000046,171.8657532c-1,0-1.6999969-0.3000031-2.3000031-0.8000031
		c-0.5-0.6000061-0.8000031-1.3000031-0.8000031-2.3000031v-6.3000031h-1.0999908c-0.0999985,0-0.3000031,0-0.4000015-0.1000061
		s-0.1999969-0.1999969-0.1999969-0.3999939v-1.1000061l1.8000031-0.3000031l0.5999985-3.1000061
		c0-0.1000061,0.0999985-0.3000031,0.1999969-0.3000031c0.0999985-0.1000061,0.1999969-0.1000061,0.4000015-0.1000061h1.4000015
		v3.6000061h3v1.8999939h-3v6.1000061c0,0.3999939,0.0999985,0.6000061,0.3000031,0.8000031
		c0.1999969,0.1999969,0.4000015,0.3000031,0.6999969,0.3000031c0.1999969,0,0.3000031,0,0.4000015-0.1000061
		c0.0999985,0,0.1999969-0.1000061,0.3000031-0.1000061c0.0999985,0,0.1999969-0.1000061,0.1999969-0.1000061
		c0.0999985,0,0.0999985-0.1000061,0.1999969-0.1000061s0.0999985,0,0.1999969,0.1000061
		c0.0999985,0,0.0999985,0.1000061,0.1999969,0.1999969l0.8000031,1.3000031
		c-0.4000015,0.3000031-0.9000015,0.6000061-1.4000015,0.6999969
		C85.2000046,171.7657471,84.8000107,171.8657532,84.2000046,171.8657532z"/>
	<path d="M97.9000092,171.6657562h-1.1999969c-0.3000031,0-0.5,0-0.5999985-0.1000061s-0.3000031-0.1999969-0.3000031-0.5
		l-0.1999969-0.8000031c-0.3000031,0.3000031-0.5999985,0.5-0.8000031,0.6999969
		c-0.3000031,0.1999969-0.5999985,0.3999939-0.9000015,0.5s-0.5999985,0.1999969-0.9000015,0.3000031
		c-0.5,0.1000061-0.9000015,0.1000061-1.3000031,0.1000061c-0.5,0-0.9000015-0.1000061-1.3000031-0.1999969
		s-0.8000031-0.3000031-1-0.6000061c-0.3000031-0.3000031-0.5-0.6000061-0.6999969-1s-0.1999969-0.8000031-0.1999969-1.3000031
		c0-0.3999939,0.0999985-0.8000031,0.3000031-1.3000031c0.1999969-0.3999939,0.5999985-0.8000031,1.0999985-1.1000061
		s1.1999969-0.6000061,2.0999985-0.8000031s1.9000015-0.3000031,3.1999969-0.3000031v-0.6999969
		c0-0.8000031-0.1999969-1.3000031-0.5-1.6999969s-0.8000031-0.5-1.4000015-0.5
		c-0.4000015,0-0.8000031,0.1000061-1.0999985,0.1999969c-0.3000031,0.1000061-0.5,0.1999969-0.8000031,0.3000031
		C91.2000046,162.965744,91,163.0657349,90.8000031,163.165741s-0.4000015,0.1999969-0.5999985,0.1999969
		s-0.3000031,0-0.5-0.1000061c-0.0999985-0.1000061-0.1999969-0.1999969-0.3000031-0.3999939L89,161.965744
		c1.3000031-1.1999969,2.9000015-1.8000031,4.6999969-1.8000031c0.6999969,0,1.1999969,0.1000061,1.8000031,0.3000031
		c0.5,0.1999969,1,0.5,1.3000031,0.8999939s0.5999985,0.8000031,0.8000031,1.3999939
		c0.1999969,0.6000061,0.3000031,1.1000061,0.3000031,1.8000031V171.6657562z M92.6000061,169.965744
		c0.3000031,0,0.5,0,0.8000031-0.1000061c0.1999969-0.1000061,0.5-0.1000061,0.6999969-0.1999969
		s0.4000015-0.1999969,0.5999985-0.3999939c0.1999969-0.1000061,0.4000015-0.3000031,0.5999985-0.5v-1.8999939
		c-0.8000031,0-1.5,0-2,0.1000061s-1,0.1999969-1.3000031,0.3999939s-0.5999985,0.3000031-0.6999969,0.5
		s-0.1999969,0.3999939-0.1999969,0.6999969c0,0.5,0.0999985,0.8000031,0.4000015,1
		C91.8000107,169.8657532,92.1000061,169.965744,92.6000061,169.965744z"/>
	<path d="M100.6000061,171.6657562v-16.3000031h2.6999969v6.3999939c0.4000015-0.5,1-0.8999939,1.5-1.1000061
		c0.5999985-0.3000031,1.1999969-0.3999939,2-0.3999939c0.5999985,0,1.1999969,0.1000061,1.6999969,0.3999939
		s0.9000015,0.6000061,1.3000031,1.1000061s0.6999969,1.1000061,0.9000015,1.8000031
		c0.1999969,0.6999969,0.3000031,1.5,0.3000031,2.5c0,0.8000031-0.0999985,1.6000061-0.3000031,2.3000031
		c-0.1999969,0.6999969-0.5999985,1.3000031-1,1.8999939c-0.4000015,0.5-0.9000015,0.8999939-1.5,1.1999969
		s-1.3000031,0.3999939-2,0.3999939c-0.3000031,0-0.6999969,0-0.9000015-0.1000061
		c-0.3000031-0.1000061-0.5-0.1999969-0.8000031-0.3000031c-0.1999969-0.1000061-0.5-0.3000031-0.6999969-0.5
		s-0.4000015-0.3999939-0.5999985-0.6000061l-0.0999985,0.8000031c0,0.1999969-0.0999985,0.3000031-0.1999969,0.3999939
		s-0.3000031,0.1000061-0.4000015,0.1000061C102.5000076,171.6657562,100.6000061,171.6657562,100.6000061,171.6657562z
		 M105.8000107,162.3657532c-0.5999985,0-1,0.1000061-1.4000015,0.3999939c-0.4000015,0.1999969-0.8000031,0.6000061-1.0999985,1
		v5.1000061c0.3000031,0.3999939,0.5999985,0.6000061,1,0.8000031s0.8000031,0.1999969,1.1999969,0.1999969
		c0.4000015,0,0.8000031-0.1000061,1.0999985-0.1999969c0.3000031-0.1999969,0.5999985-0.3999939,0.8000031-0.6999969
		c0.1999969-0.3000031,0.4000015-0.6999969,0.5-1.1999969s0.1999969-1,0.1999969-1.6999969
		s-0.0999985-1.1999969-0.1999969-1.6999969s-0.3000031-0.8000031-0.5-1.1000061s-0.4000015-0.5-0.6999969-0.6000061
		C106.5000076,162.3657532,106.2000046,162.3657532,105.8000107,162.3657532z"/>
	<path d="M116.4000092,157.1657562c0,0.1999969,0,0.5-0.0999985,0.6999969s-0.1999969,0.3999939-0.4000015,0.5
		s-0.3000031,0.3000031-0.5999985,0.3999939c-0.1999969,0.1000061-0.4000015,0.1000061-0.6999969,0.1000061
		c-0.1999969,0-0.5,0-0.6999969-0.1000061s-0.4000015-0.1999969-0.5-0.3999939
		c-0.1999969-0.1999969-0.3000031-0.3000031-0.4000015-0.5s-0.0999985-0.3999939-0.0999985-0.6999969
		c0-0.1999969,0-0.5,0.0999985-0.6999969s0.1999969-0.3999939,0.4000015-0.5c0.1999969-0.1999969,0.3000031-0.3000031,0.5-0.3999939
		c0.1999969-0.1000061,0.4000015-0.1000061,0.6999969-0.1000061c0.1999969,0,0.5,0,0.6999969,0.1000061
		s0.4000015,0.1999969,0.5999985,0.3999939s0.3000031,0.3000031,0.4000015,0.5S116.4000092,156.8657532,116.4000092,157.1657562z
		 M116.0000076,160.3657532v11.3000031h-2.6999969v-11.3000031H116.0000076z"/>
	<path d="M121.9000092,155.3657532v16.3000031h-2.6999969v-16.3000031H121.9000092z"/>
	<path d="M128.3000031,157.1657562c0,0.1999969,0,0.5-0.1000061,0.6999969s-0.1999969,0.3999939-0.3999939,0.5
		c-0.2000046,0.1000061-0.3000031,0.3000031-0.5999985,0.3999939c-0.1999969,0.1000061-0.4000015,0.1000061-0.6999969,0.1000061
		c-0.1999969,0-0.5,0-0.6999969-0.1000061s-0.4000015-0.1999969-0.5-0.3999939
		c-0.1999969-0.1999969-0.3000031-0.3000031-0.4000015-0.5s-0.0999985-0.3999939-0.0999985-0.6999969
		c0-0.1999969,0-0.5,0.0999985-0.6999969s0.1999969-0.3999939,0.4000015-0.5c0.1999969-0.1999969,0.3000031-0.3000031,0.5-0.3999939
		c0.1999969-0.1000061,0.4000015-0.1000061,0.6999969-0.1000061c0.1999969,0,0.5,0,0.6999969,0.1000061
		s0.4000015,0.1999969,0.5999985,0.3999939s0.2999878,0.3000031,0.3999939,0.5S128.3000031,156.8657532,128.3000031,157.1657562z
		 M127.9000092,160.3657532v11.3000031h-2.6999969v-11.3000031H127.9000092z"/>
	<path d="M134.6999969,171.8657532c-1,0-1.6999969-0.3000031-2.3000031-0.8000031
		c-0.5-0.6000061-0.8000031-1.3000031-0.8000031-2.3000031v-6.3000031h-1.1000061c-0.1000061,0-0.3000031,0-0.3999939-0.1000061
		c-0.1000061-0.1000061-0.1999969-0.1999969-0.1999969-0.3999939v-1.1000061l1.8000031-0.3000031l0.6000061-3.1000061
		c0-0.1000061,0.1000061-0.3000031,0.1999969-0.3000031c0.1000061-0.1000061,0.1999969-0.1000061,0.3999939-0.1000061h1.3999939
		v3.6000061h3v1.8999939h-3v6.1000061c0,0.3999939,0.1000061,0.6000061,0.3000031,0.8000031
		s0.3999939,0.3000031,0.6999969,0.3000031c0.1999969,0,0.3000031,0,0.3999939-0.1000061
		c0.1000061,0,0.1999969-0.1000061,0.3000031-0.1000061s0.1999969-0.1000061,0.1999969-0.1000061
		c0.1000061,0,0.1000061-0.1000061,0.1999969-0.1000061c0.1000061,0,0.1000061,0,0.1999969,0.1000061
		c0.1000061,0,0.1000061,0.1000061,0.1999969,0.1999969l0.8000031,1.3000031
		c-0.3999939,0.3000031-0.8999939,0.6000061-1.3999939,0.6999969
		C135.6999969,171.7657471,135.1999969,171.8657532,134.6999969,171.8657532z"/>
	<path d="M144.1000061,160.2657471c0.6999969,0,1.3999939,0.1000061,2,0.3000031s1.1000061,0.6000061,1.5,1s0.8000031,1,1,1.6000061
		S149,164.5657501,149,165.3657532c0,0.1999969,0,0.3999939,0,0.5s-0.1000061,0.1999969-0.1000061,0.3000031
		s-0.1000061,0.1000061-0.1999969,0.1999969c-0.1000061,0-0.1999969,0-0.3000031,0h-7
		c0.1000061,1.1999969,0.3999939,2,0.8999939,2.6000061c0.5,0.5,1.3000031,0.8000031,2.1999969,0.8000031
		c0.3999939,0,0.8000031-0.1000061,1.1000061-0.1999969c0.3000031-0.1000061,0.6000061-0.1999969,0.8000031-0.3000031
		s0.3999939-0.1999969,0.6000061-0.3000031c0.1999969-0.1000061,0.3999939-0.1999969,0.5-0.1999969s0.1999969,0,0.3000031,0.1000061
		S148,168.9657745,148,169.0657654l0.8000031,1c-0.3000031,0.3999939-0.6000061,0.6000061-1,0.8999939
		c-0.3999939,0.3000031-0.8000031,0.3999939-1.1999969,0.6000061c-0.3999939,0.1000061-0.8000031,0.1999969-1.1999969,0.3000031
		s-0.8000031,0.1000061-1.1999969,0.1000061c-0.8000031,0-1.5-0.1000061-2.1999969-0.3999939
		s-1.3000031-0.6000061-1.8000031-1.1999969c-0.5-0.5-0.8999939-1.1000061-1.1999969-1.8999939
		c-0.3000031-0.8000031-0.3999939-1.6000061-0.3999939-2.6000061c0-0.8000031,0.1000061-1.5,0.3999939-2.1999969
		c0.1999969-0.6999969,0.6000061-1.3000031,1.1000061-1.8000031s1-0.8999939,1.6999969-1.1999969
		C142.5,160.3657532,143.3000031,160.2657471,144.1000061,160.2657471z M144.1999969,162.1657562
		c-0.8000031,0-1.3999939,0.1999969-1.8999939,0.6999969s-0.6999969,1.1000061-0.8999939,1.8999939h5.1000061
		c0-0.3999939,0-0.6999969-0.1000061-1s-0.1999969-0.6000061-0.3999939-0.8000031s-0.3999939-0.3999939-0.6999969-0.6000061
		S144.6000061,162.1657562,144.1999969,162.1657562z M148,155.5657501l-2.6999969,2.8999939
		c-0.1000061,0.1000061-0.3000031,0.1999969-0.3999939,0.3000031c-0.1000061,0.1000061-0.3000031,0.1000061-0.5,0.1000061
		h-1.6000061l1.6000061-2.6999969c0.1000061-0.1999969,0.1999969-0.3000031,0.3999939-0.3999939
		c0.1000061-0.1000061,0.3999939-0.1000061,0.6999969-0.1000061h2.5V155.5657501z"/>
</g>
<g>
	<path d="M275.5,173.4657288h-2.2999878c-0.2999878,0-0.5-0.1000061-0.6000061-0.1999969s-0.2999878-0.3000031-0.3999939-0.5
		L271,169.5657349h-6.6000061l-1.2000122,3.1999969c-0.1000061,0.1999969-0.2000122,0.3000031-0.2999878,0.5
		c-0.1000061,0.1999969-0.3999939,0.1999969-0.6000061,0.1999969H260l6.2000122-15.8999939h3L275.5,173.4657288z
		 M265.2000122,167.4657288h5.1000061l-1.8999939-5.3000031c-0.1000061-0.1999969-0.2000122-0.5-0.2999878-0.8000031
		c-0.1000061-0.3000031-0.2000122-0.6999969-0.2999878-1c-0.1000061,0.4000092-0.2000122,0.6999969-0.2999878,1
		s-0.2000122,0.6000061-0.2999878,0.8000031L265.2000122,167.4657288z"/>
	<path d="M285,164.5657349c-0.1000061,0.1000061-0.2000122,0.1999969-0.2000122,0.1999969
		c-0.1000061,0.1000061-0.2000122,0.1000061-0.2999878,0.1000061c-0.1000061,0-0.2999878,0-0.3999939-0.1000061
		c-0.1000061-0.0999908-0.2999878-0.1999969-0.5-0.3000031c-0.2000122-0.0999908-0.3999939-0.1999969-0.7000122-0.3000031
		c-0.2999878-0.0999908-0.6000061-0.0999908-0.8999939-0.0999908c-0.5,0-0.8999939,0.0999908-1.2999878,0.3000031
		c-0.3999939,0.1999969-0.7000122,0.3999939-0.8999939,0.6999969c-0.1999817,0.2999878-0.3999939,0.6999969-0.5,1.1999969
		s-0.2000122,1-0.2000122,1.6000061s0.1000061,1.1000061,0.2000122,1.6000061s0.2999878,0.8999939,0.6000061,1.1999969
		c0.2000122,0.3000031,0.5,0.6000061,0.8999939,0.6999969s0.7000122,0.1999969,1.2000122,0.1999969
		s0.7999878-0.1000061,1.1000061-0.1999969s0.5-0.1999969,0.7000122-0.3999939
		c0.2000122-0.1000061,0.2999878-0.1999969,0.5-0.3999939c0.1000061-0.1000061,0.2999878-0.1999969,0.5-0.1999969
		s0.3999939,0.1000061,0.5,0.3000031l0.7999878,1c-0.2999878,0.3999939-0.6000061,0.6000061-1,0.8999939
		s-0.7000122,0.3999939-1.1000061,0.6000061c-0.3999939,0.1000061-0.7999878,0.1999969-1.2000122,0.3000031
		c-0.3999939,0.1000061-0.7999878,0.1000061-1.2000122,0.1000061c-0.7000122,0-1.3999939-0.1000061-2-0.3999939
		C279,172.8657684,278.3999939,172.5657654,278,172.0657654c-0.5-0.5-0.7999878-1.1000061-1.1000061-1.8000031
		c-0.2999878-0.6999969-0.3999939-1.5-0.3999939-2.5c0-0.8000031,0.1000061-1.6000061,0.3999939-2.3000031
		C277.1000061,164.7657623,277.5,164.1657562,278,163.6657562s1-0.8999939,1.7000122-1.1999969
		c0.7000122-0.2999878,1.5-0.3999939,2.3999939-0.3999939c0.7999878,0,1.6000061,0.0999908,2.2000122,0.3999939
		s1.2000122,0.6999969,1.7000122,1.1999969L285,164.5657349z"/>
	<path d="M287.5,173.4657288v-16.3999939h2.7000122v6.3000031c0.3999939-0.3999939,0.8999939-0.8000031,1.5-1
		c0.5-0.3000031,1.1000061-0.3999939,1.8999939-0.3999939c0.6000061,0,1.2000122,0.0999908,1.6000061,0.3000031
		c0.5,0.1999969,0.8999939,0.5,1.2000122,0.8999939c0.2999878,0.4000092,0.6000061,0.8000031,0.7000122,1.4000092
		c0.1000061,0.5999908,0.2000122,1.0999908,0.2000122,1.6999969v7.1999969h-2.7000122v-7.1999969
		c0-0.6999969-0.2000122-1.1999969-0.5-1.5999908c-0.2999878-0.4000092-0.7999878-0.6000061-1.3999939-0.6000061
		c-0.5,0-0.8999939,0.1000061-1.2999878,0.3000031s-0.7999878,0.5-1.2000122,0.9000092v8.1999969
		C290.2000122,173.4657288,287.5,173.4657288,287.5,173.4657288z"/>
	<path d="M308.8999939,173.4657288h-1.2000122c-0.2999878,0-0.5,0-0.6000061-0.1000061s-0.2999878-0.1999969-0.2999878-0.5
		l-0.2000122-0.8000031c-0.2999878,0.3000031-0.6000061,0.5-0.7999878,0.6999969
		c-0.2000122,0.1999969-0.6000061,0.3999939-0.8999939,0.5S304.2999878,173.4657135,304,173.5657196
		s-0.7000122,0.1000061-1.1000061,0.1000061c-0.5,0-0.8999939-0.1000061-1.2999878-0.1999969
		c-0.3999939-0.1000061-0.7999878-0.3000031-1-0.6000061c-0.2999878-0.3000031-0.5-0.6000061-0.7000122-1
		s-0.2000122-0.8000031-0.2000122-1.3000031c0-0.3999939,0.1000061-0.8000031,0.2999878-1.3000031
		s0.6000061-0.8000031,1.1000061-1.1000061s1.2000122-0.6000061,2.1000061-0.8000031s1.8999939-0.3000031,3.2000122-0.3000031
		v-0.6999969c0-0.8000031-0.2000122-1.3000031-0.5-1.6999969s-0.7999878-0.5-1.3999939-0.5
		c-0.3999939,0-0.7999878,0.1000061-1.1000061,0.1999969c-0.2999878,0.1000061-0.5,0.1999969-0.7999878,0.3000031
		c-0.2000122,0.1000061-0.3999939,0.1999969-0.6000061,0.3000031s-0.3999939,0.1999969-0.6000061,0.1999969
		s-0.2999878,0-0.5-0.0999908c-0.1000061-0.1000061-0.2000122-0.1999969-0.2999878-0.4000092l-0.5-0.8999939
		c1.2999878-1.1999969,2.8999939-1.8000031,4.7000122-1.8000031c0.7000122,0,1.2000122,0.0999908,1.7999878,0.3000031
		c0.5999756,0.1999969,1,0.5,1.2999878,0.8999939c0.3999939,0.4000092,0.6000061,0.8000031,0.7999878,1.4000092
		c0.2000122,0.5,0.2999878,1.0999908,0.2999878,1.7999878L308.8999939,173.4657288L308.8999939,173.4657288z
		 M303.6000061,171.7657318c0.2999878,0,0.5,0,0.7999878-0.1000061c0.2000122-0.1000061,0.5-0.1000061,0.7000122-0.1999969
		s0.3999939-0.1999969,0.6000061-0.3999939c0.2000122-0.1000061,0.3999939-0.3000031,0.6000061-0.5v-1.8999939
		c-0.7999878,0-1.5,0-2,0.1000061s-1,0.1999969-1.2999878,0.3999939s-0.6000061,0.3000031-0.7000122,0.5
		s-0.2000122,0.3999939-0.2000122,0.6999969c0,0.5,0.1000061,0.8000031,0.3999939,1
		C302.7999878,171.665741,303.1000061,171.7657318,303.6000061,171.7657318z"/>
	<path d="M315.2000122,173.665741c-1,0-1.7000122-0.3000031-2.2999878-0.8000031
		c-0.5-0.6000061-0.7999878-1.3000031-0.7999878-2.3000031v-6.3000031H311c-0.1000061,0-0.2999878,0-0.3999939-0.0999908
		c-0.1000061-0.1000061-0.2000122-0.1999969-0.2000122-0.4000092v-1.0999908l1.7999878-0.3000031l0.6000061-3.1000061
		c0-0.0999908,0.1000061-0.3000031,0.2000122-0.3000031c0.1000061-0.0999908,0.2000122-0.0999908,0.3999939-0.0999908h1.3999939
		v3.5999908h3v1.9000092h-3v6.0999908c0,0.3999939,0.1000061,0.6000061,0.2999878,0.8000031
		c0.2000122,0.1999969,0.3999939,0.3000031,0.7000122,0.3000031c0.2000122,0,0.2999878,0,0.3999939-0.1000061
		c0.1000061,0,0.2000122-0.1000061,0.2999878-0.1000061c0.1000061,0,0.2000122-0.1000061,0.2000122-0.1000061
		c0.1000061,0,0.1000061-0.1000061,0.2000122-0.1000061s0.1000061,0,0.2000122,0.1000061
		c0.1000061,0,0.1000061,0.1000061,0.2000122,0.1999969l0.7999878,1.3000031
		c-0.3999939,0.3000031-0.8999939,0.6000061-1.3999939,0.6999969
		C316.2999878,173.5657349,315.7999878,173.665741,315.2000122,173.665741z"/>
	<path d="M326.7999878,164.3657379c-0.1000061,0.1000061-0.2000122,0.1999969-0.2000122,0.1999969
		s-0.2000122,0.1000061-0.2999878,0.1000061c-0.1000061,0-0.2999878,0-0.3999939-0.1000061
		c-0.1000061-0.0999908-0.2999878-0.1999969-0.5-0.1999969c-0.2000122-0.0999908-0.3999939-0.1999969-0.7000122-0.1999969
		c-0.2999878-0.0999908-0.6000061-0.0999908-0.8999939-0.0999908c-0.5,0-1,0.0999908-1.2999878,0.3000031
		c-0.2999878,0.1999969-0.5,0.5-0.5,0.8999939c0,0.1999969,0.1000061,0.4000092,0.2000122,0.6000061
		s0.3999939,0.2999878,0.6000061,0.3999939c0.2999878,0.1000061,0.6000061,0.1999969,0.8999939,0.3000031
		s0.7000122,0.1999969,1,0.3000031s0.7000122,0.3000031,1,0.3999939c0.2999878,0.1000061,0.6000061,0.3000031,0.8999939,0.6000061
		c0.2999878,0.1999969,0.5,0.5,0.6000061,0.8000031c0.2000122,0.3000031,0.2000122,0.6999969,0.2000122,1.1999969
		s-0.1000061,1-0.2999878,1.5c-0.2000122,0.5-0.5,0.8999939-0.8999939,1.1999969s-0.8999939,0.6000061-1.3999939,0.8000031
		s-1.2000122,0.3000031-1.8999939,0.3000031c-0.3999939,0-0.7999878,0-1.1000061-0.1000061
		c-0.3999939-0.1000061-0.7000122-0.1999969-1.1000061-0.3000031c-0.2999878-0.1000061-0.7000122-0.3000031-0.8999939-0.3999939
		c-0.2999878-0.1999969-0.5-0.3999939-0.7999878-0.5l0.6000061-1c0.1000061-0.1000061,0.2000122-0.1999969,0.2999878-0.3000031
		c0.1000061-0.1000061,0.2000122-0.1000061,0.3999939-0.1000061c0.2000122,0,0.2999878,0,0.5,0.1000061
		s0.2999878,0.1999969,0.5,0.3000031s0.3999939,0.1999969,0.7000122,0.3000031c0.2999878,0.1000061,0.6000061,0.1000061,1,0.1000061
		c0.2999878,0,0.6000061,0,0.7999878-0.1000061c0.2000122-0.1000061,0.3999939-0.1999969,0.6000061-0.3000031
		c0.1000061-0.1000061,0.2999878-0.3000031,0.2999878-0.3999939c0.1000061-0.1999969,0.1000061-0.3000031,0.1000061-0.5
		c0-0.3000031-0.1000061-0.5-0.2000122-0.6000061c-0.2000122-0.1999969-0.3999939-0.3000031-0.6000061-0.3999939
		c-0.2999878-0.1000061-0.6000061-0.1999969-0.8999939-0.3000031s-0.7000122-0.1999969-1-0.3000031
		s-0.7000122-0.3000031-1-0.3999939c-0.2999878-0.1000061-0.6000061-0.3999939-0.8999939-0.6000061s-0.5-0.5-0.6000061-0.8999939
		s-0.2000122-0.8000031-0.2000122-1.3000031s0.1000061-0.8999939,0.2999878-1.3000031
		c0.1999817-0.3999939,0.5-0.8000031,0.7999878-1.0999908c0.3999939-0.3000031,0.7999878-0.6000061,1.2999878-0.6999969
		c0.5-0.1000061,1.1000061-0.3000031,1.7999878-0.3000031c0.7999878,0,1.5,0.0999908,2.1000061,0.3999939
		s1.2000122,0.6000061,1.6000061,1L326.7999878,164.3657379z"/>
</g>
<g>
	<path d="M489.2999878,160.465744c-0.1000061,0.1999969-0.2000122,0.3000031-0.2999878,0.3000031
		c-0.1000061,0.1000061-0.2000122,0.1000061-0.3999939,0.1000061c-0.1000061,0-0.2999878-0.1000061-0.5-0.1999969
		s-0.3999939-0.1999969-0.6000061-0.3999939c-0.2000122-0.1000061-0.5-0.3000031-0.8999939-0.3999939
		c-0.2999878-0.1000061-0.7000122-0.1999969-1.2000122-0.1999969c-0.3999939,0-0.7999878,0-1.1000061,0.1000061
		C484,159.8657837,483.6999817,159.9657745,483.5,160.1657715c-0.2000122,0.1999969-0.3999939,0.3999939-0.5,0.6000061
		c-0.1000061,0.1999969-0.2000122,0.5-0.2000122,0.8000031c0,0.3999939,0.1000061,0.6999969,0.2999878,0.8999939
		c0.2000122,0.1999969,0.5,0.5,0.7999878,0.6000061c0.2999878,0.1999969,0.7000122,0.3000031,1.2000122,0.5
		s0.8999939,0.3000031,1.2999878,0.3999939c0.5,0.1999969,0.8999939,0.3000031,1.2999878,0.6000061
		c0.3999939,0.1999969,0.7999878,0.5,1.2000122,0.8000031c0.2999878,0.3000031,0.6000061,0.6999969,0.7999878,1.1999969
		s0.2999878,1,0.2999878,1.6999969s-0.1000061,1.3999939-0.3999939,2s-0.6000061,1.1999969-1.1000061,1.6000061
		c-0.5,0.5-1.1000061,0.8000031-1.7000122,1.1000061c-0.7000122,0.3000031-1.5,0.3999939-2.2999878,0.3999939
		c-0.5,0-1,0-1.5-0.1000061s-1-0.1999969-1.3999939-0.3999939c-0.5-0.1999969-0.8999939-0.3999939-1.2999878-0.6999969
		s-0.7000122-0.5-1.1000061-0.8999939l0.8999939-1.3999939c0.1000061-0.1000061,0.2000122-0.1999969,0.2999878-0.3000031
		s0.2000122-0.1000061,0.3999939-0.1000061c0.2000122,0,0.3999939,0.1000061,0.6000061,0.1999969
		c0.2000122,0.1999969,0.5,0.3000031,0.7999878,0.5s0.6000061,0.3999939,1,0.5
		c0.3999939,0.1999969,0.8999939,0.1999969,1.3999939,0.1999969c0.7999878,0,1.5-0.1999969,2-0.6000061
		s0.7000122-1,0.7000122-1.6999969c0-0.3999939-0.1000061-0.8000031-0.2999878-1c-0.2000122-0.3000031-0.5-0.5-0.7999878-0.6999969
		s-0.7000122-0.3000031-1.2000122-0.5s-0.8999939-0.3000031-1.2999878-0.3999939c-0.5-0.1000061-0.8999939-0.3000031-1.2999878-0.5
		s-0.7999878-0.5-1.2000122-0.8000031c-0.2999878-0.3000031-0.6000061-0.6999969-0.7999878-1.1999969
		s-0.2999878-1.1000061-0.2999878-1.8000031c0-0.6000061,0.1000061-1.1000061,0.2999878-1.6999969
		c0.2000122-0.6000061,0.6000061-1,1-1.5c0.3999939-0.3999939,1-0.8000031,1.6000061-1
		c0.6000061-0.3000031,1.3999939-0.3999939,2.2000122-0.3999939c0.8999939,0,1.7999878,0.1000061,2.6000061,0.3999939
		c0.7999878,0.3000031,1.5,0.6999969,2,1.1999969L489.2999878,160.465744z"/>
	<path d="M496.2000122,173.6657562c-1,0-1.7000122-0.3000031-2.2999878-0.8000031
		c-0.5-0.6000061-0.7999878-1.3000031-0.7999878-2.3000031v-6.3000031H492c-0.1000061,0-0.2999878,0-0.3999939-0.1000061
		s-0.2000122-0.1999969-0.2000122-0.3999939v-1.1000061l1.7999878-0.3000031l0.6000061-3.1000061
		c0-0.1000061,0.1000061-0.3000031,0.2000122-0.3000031c0.1000061-0.1000061,0.2000122-0.1000061,0.3999939-0.1000061h1.3999939
		v3.6000061h3v1.8999939h-3v6.1000061c0,0.3999939,0.1000061,0.6000061,0.2999878,0.8000031
		c0.2000122,0.1999969,0.3999939,0.3000031,0.7000122,0.3000031c0.2000122,0,0.2999878,0,0.3999939-0.1000061
		c0.1000061,0,0.2000122-0.1000061,0.2999878-0.1000061c0.1000061,0,0.2000122-0.1000061,0.2000122-0.1000061
		c0.1000061,0,0.1000061-0.1000061,0.2000122-0.1000061s0.1000061,0,0.2000122,0.1000061
		c0.1000061,0,0.1000061,0.1000061,0.2000122,0.1999969l0.7999878,1.3000031
		c-0.3999939,0.3000031-0.8999939,0.6000061-1.3999939,0.6999969
		C497.2999878,173.5657501,496.7000122,173.6657562,496.2000122,173.6657562z"/>
	<path d="M505.7999878,161.965744c0.7999878,0,1.6000061,0.1000061,2.2999878,0.3999939
		c0.7000122,0.3000031,1.2999878,0.6999969,1.7999878,1.1999969s0.8999939,1.1000061,1.1000061,1.8000031
		c0.2999878,0.6999969,0.3999939,1.5,0.3999939,2.3999939s-0.1000061,1.6999969-0.3999939,2.3999939
		s-0.6000061,1.3000031-1.1000061,1.8000031s-1.1000061,0.8999939-1.7999878,1.1999969
		c-0.7000122,0.3000031-1.3999939,0.3999939-2.2999878,0.3999939s-1.6000061-0.1000061-2.2999878-0.3999939
		c-0.7000122-0.3000031-1.2999878-0.6999969-1.7999878-1.1999969s-0.8999939-1.1000061-1.1000061-1.8000031
		c-0.2999878-0.6999969-0.3999939-1.5-0.3999939-2.3999939s0.1000061-1.6999969,0.3999939-2.3999939
		s0.6000061-1.3000031,1.1000061-1.8000031s1.1000061-0.8999939,1.7999878-1.1999969
		C504.2000122,162.1657562,505,161.965744,505.7999878,161.965744z M505.7999878,171.5657501
		c0.8999939,0,1.6000061-0.3000031,2.1000061-0.8999939c0.5-0.6000061,0.7000122-1.6000061,0.7000122-2.8000031
		s-0.2000122-2.1000061-0.7000122-2.8000031c-0.5-0.6000061-1.1000061-1-2.1000061-1s-1.7000122,0.3000031-2.1000061,1
		c-0.5,0.6000061-0.7000122,1.6000061-0.7000122,2.8000031s0.2000122,2.1000061,0.7000122,2.8000031
		C504.1000061,171.1657562,504.8999939,171.5657501,505.7999878,171.5657501z"/>
	<path d="M521.4000244,164.5657501c-0.0999756,0.1000061-0.2000122,0.1999969-0.2000122,0.1999969
		c-0.0999756,0.1000061-0.2000122,0.1000061-0.2999878,0.1000061s-0.2999878,0-0.4000244-0.1000061
		c-0.0999756-0.1000061-0.2999878-0.1999969-0.5-0.3000031s-0.4000244-0.1999969-0.7000122-0.3000031
		s-0.5999756-0.1000061-0.9000244-0.1000061c-0.5,0-0.9000244,0.1000061-1.2999878,0.3000031
		c-0.4000244,0.1999969-0.7000122,0.3999939-0.9000244,0.6999969s-0.4000244,0.6999969-0.5,1.1999969
		s-0.2000122,1-0.2000122,1.6000061s0.0999756,1.1000061,0.2000122,1.6000061s0.2999878,0.8999939,0.5999756,1.1999969
		s0.5,0.6000061,0.9000244,0.6999969c0.4000244,0.1000061,0.7000122,0.1999969,1.2000122,0.1999969s0.7999878-0.1000061,1-0.1999969
		c0.2000122-0.1000061,0.5-0.1999969,0.7000122-0.3999939c0.2000122-0.1000061,0.2999878-0.1999969,0.5-0.3999939
		c0.0999756-0.1000061,0.2999878-0.1999969,0.5-0.1999969s0.4000244,0.1000061,0.5,0.3000031l0.7999878,1
		c-0.2999878,0.3999939-0.5999756,0.6000061-1,0.8999939s-0.7000122,0.3999939-1.0999756,0.6000061
		c-0.4000244,0.1000061-0.7999878,0.1999969-1.2000122,0.3000031s-0.7999878,0.1000061-1.2000122,0.1000061
		c-0.7000122,0-1.4000244-0.1000061-2-0.3999939c-0.5999756-0.3000031-1.2000122-0.6000061-1.5999756-1.1000061
		c-0.5-0.5-0.7999878-1.1000061-1.0999756-1.8000031s-0.4000244-1.5-0.4000244-2.5
		c0-0.8000031,0.0999756-1.6000061,0.4000244-2.3000031c0.2000122-0.6999969,0.5999756-1.3000031,1.0999756-1.8000031
		s1-0.8999939,1.7000122-1.1999969s1.5-0.3999939,2.4000244-0.3999939c0.7999878,0,1.5999756,0.1000061,2.2000122,0.3999939
		c0.5999756,0.3000031,1.2000122,0.6999969,1.7000122,1.1999969L521.4000244,164.5657501z"/>
	<path d="M526.7000122,157.0657501v9.3999939h0.5c0.2000122,0,0.2999878,0,0.4000244-0.1000061
		c0.0999756-0.1000061,0.2000122-0.1000061,0.2999878-0.3000031l2.7999878-3.5
		c0.0999756-0.1000061,0.2999878-0.3000031,0.4000244-0.3000031c0.0999756-0.1000061,0.2999878-0.1000061,0.5-0.1000061h2.5
		l-3.5,4.1999969c-0.0999756,0.1999969-0.2999878,0.3000031-0.4000244,0.3999939
		c-0.0999756,0.1000061-0.2999878,0.1999969-0.4000244,0.3000031c0.2000122,0.1000061,0.2999878,0.1999969,0.4000244,0.3999939
		c0.0999756,0.1000061,0.2000122,0.3000031,0.4000244,0.5l3.7999878,5.5H532c-0.2000122,0-0.4000244,0-0.5-0.1000061
		s-0.2999878-0.1999969-0.4000244-0.3999939l-2.9000244-4.3000031c-0.0999756-0.1999969-0.2000122-0.3000031-0.2999878-0.3000031
		c-0.0999756-0.1000061-0.2999878-0.1000061-0.5-0.1000061h-0.5999756v5.1999969H524v-16.3999481H526.7000122
		L526.7000122,157.0657501z"/>
	<path d="M542.7999878,164.3657532c-0.0999756,0.1000061-0.2000122,0.1999969-0.2000122,0.1999969
		c-0.0999756,0-0.2000122,0.1000061-0.2999878,0.1000061s-0.2999878,0-0.4000244-0.1000061s-0.2999878-0.1999969-0.5-0.1999969
		c-0.2000122-0.1000061-0.4000244-0.1999969-0.7000122-0.1999969c-0.2999878-0.1000061-0.5999756-0.1000061-0.9000244-0.1000061
		c-0.5,0-1,0.1000061-1.2999878,0.3000031s-0.5,0.5-0.5,0.8999939c0,0.1999969,0.0999756,0.3999939,0.2000122,0.6000061
		c0.2000122,0.1999969,0.4000244,0.3000031,0.5999756,0.3999939c0.2999878,0.1000061,0.5999756,0.1999969,0.9000244,0.3000031
		c0.2999878,0.1000061,0.7000122,0.1999969,1,0.3000031s0.7000122,0.3000031,1,0.3999939
		c0.2999878,0.1000061,0.5999756,0.3000031,0.9000244,0.6000061c0.2999878,0.1999969,0.5,0.5,0.5999756,0.8000031
		c0.2000122,0.3000031,0.2000122,0.6999969,0.2000122,1.1999969s-0.0999756,1-0.2999878,1.5s-0.5,0.8999939-0.9000244,1.1999969
		s-0.9000244,0.6000061-1.4000244,0.8000031c-0.5999756,0.1999969-1.2000122,0.3000031-1.9000244,0.3000031
		c-0.4000244,0-0.7999878,0-1.0999756-0.1000061c-0.4000244-0.1000061-0.7000122-0.1999969-1.0999756-0.3000031
		c-0.2999878-0.1000061-0.7000122-0.3000031-0.9000244-0.3999939c-0.2999878-0.1999969-0.5-0.3999939-0.7999878-0.5l0.5999756-1
		c0.0999756-0.1000061,0.2000122-0.1999969,0.2999878-0.3000031s0.2000122-0.1000061,0.4000244-0.1000061s0.2999878,0,0.5,0.1000061
		s0.2999878,0.1999969,0.5,0.3000031s0.4000244,0.1999969,0.7000122,0.3000031s0.5999756,0.1000061,1,0.1000061
		c0.2999878,0,0.5999756,0,0.7999878-0.1000061s0.4000244-0.1999969,0.5999756-0.3000031
		c0.0999756-0.1000061,0.2999878-0.3000031,0.2999878-0.3999939c0-0.1000061,0.0999756-0.3000031,0.0999756-0.5
		c0-0.3000031-0.0999756-0.5-0.2000122-0.6000061c-0.2000122-0.1999969-0.4000244-0.3000031-0.5999756-0.3999939
		c-0.2999878-0.1000061-0.5999756-0.1999969-0.9000244-0.3000031c-0.2999878-0.1000061-0.7000122-0.1999969-1-0.3000031
		s-0.7000122-0.3000031-1-0.3999939s-0.5999756-0.3999939-0.9000244-0.6000061c-0.2999878-0.1999969-0.5-0.5-0.5999756-0.8999939
		c-0.2000122-0.3999939-0.2000122-0.8000031-0.2000122-1.3000031s0.0999756-0.8999939,0.2999878-1.3000031
		s0.5-0.8000031,0.7999878-1.1000061c0.4000244-0.3000031,0.7999878-0.6000061,1.2999878-0.6999969
		c0.5-0.1000061,1.0999756-0.3000031,1.7999878-0.3000031c0.7999878,0,1.5,0.1000061,2.0999756,0.3999939
		s1.2000122,0.6000061,1.5999756,1L542.7999878,164.3657532z"/>
</g>
<path class="st1" d="M208.5,189.2657471c-0.3999939,0-0.8000031-0.1000061-1.1000061-0.3000031l-37.5-21.6999969
	c-0.6999969-0.3999939-1.1000061-1.1000061-1.1000061-1.8999939c0-0.8000031,0.3999939-1.5,1.1000061-1.8999939l37.5-21.6999969
	c0.3000031-0.1999969,0.6999969-0.3000031,1.1000061-0.3000031c0.3999939,0,0.8000031,0.1000061,1.1000061,0.3000031
	c0.6999969,0.3999939,1.1000061,1.1000061,1.1000061,1.8999939v43.3000031c0,0.8000031-0.3999939,1.5-1.1000061,1.8999939
	C209.3000031,189.1657562,208.8999939,189.2657471,208.5,189.2657471z"/>
<g>
	<path class="st1" d="M601,159.2657471c0.4000244,0,0.7999878-0.1000061,1.0999756-0.3000031l37.5-21.6999969
		c0.7000122-0.3999939,1.0999756-1.1000061,1.0999756-1.8999939c0-0.8000031-0.4000244-1.5-1.0999756-1.8999939l-37.5-21.6999969
		c-0.2999878-0.1999969-0.7000122-0.3000031-1.0999756-0.3000031c-0.4000244,0-0.7999878,0.0999985-1.0999756,0.3000031
		c-0.7000122,0.4000015-1.0999756,1.0999985-1.0999756,1.9000015v43.2999954c0,0.8000031,0.4000244,1.5,1.0999756,1.8999939
		C600.2000122,159.1657562,600.5999756,159.2657471,601,159.2657471z"/>
	<path class="st3" d="M601,217.2657471c0.4000244,0,0.7999878-0.1000061,1.0999756-0.3000031l37.5-21.6999969
		c0.7000122-0.3999939,1.0999756-1.1000061,1.0999756-1.8999939c0-0.8000031-0.4000244-1.5-1.0999756-1.8999939l-37.5-21.6999969
		c-0.2999878-0.1999969-0.7000122-0.3000031-1.0999756-0.3000031c-0.4000244,0-0.7999878,0.1000061-1.0999756,0.3000031
		c-0.7000122,0.3999939-1.0999756,1.1000061-1.0999756,1.8999939v43.3000031c0,0.8000031,0.4000244,1.5,1.0999756,1.8999939
		C600.2000122,217.1657562,600.5999756,217.2657471,601,217.2657471z"/>
</g>
<path class="st1" d="M423.5,140.8657532c-0.3999939,0-0.7999878,0.1000061-1.1000061,0.3000031l-37.5,21.6999969
	c-0.7000122,0.3999939-1.1000061,1.1000061-1.1000061,1.8999939c0,0.8000031,0.3999939,1.5,1.1000061,1.8999939l37.5,21.6999969
	c0.2999878,0.1999969,0.7000122,0.3000031,1.1000061,0.3000031s0.7999878-0.1000061,1.1000061-0.3000031
	c0.7000122-0.3999939,1.1000061-1.1000061,1.1000061-1.8999939V143.165741c0-0.8000031-0.3999939-1.5-1.1000061-1.8999939
	C424.2999878,140.965744,423.8999939,140.8657532,423.5,140.8657532z"/>
<g>
	<path d="M424.0253906,310.7317505c0.0957031,0.0117188,0.1816406,0.0361328,0.2578125,0.0722656
		s0.1503906,0.0878906,0.2226562,0.1552734c0.0712891,0.0683594,0.1513672,0.1582031,0.2392578,0.2705078l9.1083984,11.6035156
		c-0.0332031-0.2792969-0.0546875-0.5537109-0.0664062-0.8212891c-0.0117188-0.2685547-0.0175781-0.5185547-0.0175781-0.75
		v-10.5478516h2.84375v17.3515625h-1.6679688c-0.2558594,0-0.46875-0.0400391-0.6367188-0.1201172
		s-0.3320312-0.2236328-0.4921875-0.4316406l-9.0712891-11.5566406c0.0244141,0.2568359,0.0419922,0.5107422,0.0546875,0.7626953
		c0.0117188,0.2519531,0.0175781,0.4814453,0.0175781,0.6894531v10.65625h-2.84375v-17.3515625h1.6914062
		C423.8095703,310.7141724,423.9296875,310.7200317,424.0253906,310.7317505z"/>
	<path d="M445.2050781,315.5618286c0.9199219,0,1.7539062,0.1484375,2.5019531,0.4443359s1.3857422,0.7158203,1.9140625,1.2597656
		s0.9365234,1.2080078,1.2246094,1.9921875c0.2871094,0.7841797,0.4316406,1.6601562,0.4316406,2.6279297
		c0,0.9755859-0.1445312,1.8554688-0.4316406,2.6396484c-0.2880859,0.7841797-0.6962891,1.4521484-1.2246094,2.0039062
		s-1.1660156,0.9765625-1.9140625,1.2724609s-1.5820312,0.4433594-2.5019531,0.4433594s-1.7558594-0.1474609-2.5078125-0.4433594
		s-1.3945312-0.7207031-1.9257812-1.2724609c-0.5322266-0.5517578-0.9443359-1.2197266-1.2363281-2.0039062
		s-0.4375-1.6640625-0.4375-2.6396484c0-0.9677734,0.1455078-1.84375,0.4375-2.6279297s0.7041016-1.4482422,1.2363281-1.9921875
		c0.53125-0.5439453,1.1738281-0.9638672,1.9257812-1.2597656S444.2851562,315.5618286,445.2050781,315.5618286z
		 M445.2050781,325.9661255c1.0244141,0,1.7822266-0.3447266,2.2744141-1.0322266
		c0.4921875-0.6884766,0.7373047-1.6962891,0.7373047-3.0244141c0-1.3271484-0.2451172-2.3398438-0.7373047-3.0361328
		c-0.4921875-0.6953125-1.25-1.0439453-2.2744141-1.0439453c-1.0400391,0-1.8076172,0.3505859-2.3037109,1.0507812
		c-0.4960938,0.6992188-0.7441406,1.7099609-0.7441406,3.0292969c0,1.3203125,0.2480469,2.3261719,0.7441406,3.0185547
		C443.3974609,325.6194458,444.1650391,325.9661255,445.2050781,325.9661255z"/>
	<path d="M456.3046875,315.7542114v7.8232422c0,0.7519531,0.1738281,1.3339844,0.5224609,1.7460938
		c0.3476562,0.4121094,0.8701172,0.6181641,1.5654297,0.6181641c0.5117188,0,0.9921875-0.1142578,1.4404297-0.3417969
		c0.4472656-0.2285156,0.8720703-0.5419922,1.2714844-0.9423828v-8.9033203h2.9638672v12.3115234h-1.8115234
		c-0.3837891,0-0.6357422-0.1796875-0.7558594-0.5400391l-0.2041016-0.984375
		c-0.2558594,0.2568359-0.5205078,0.4902344-0.7919922,0.7021484c-0.2724609,0.2119141-0.5625,0.3925781-0.8701172,0.5400391
		c-0.3076172,0.1484375-0.6396484,0.2646484-0.9960938,0.3486328c-0.3554688,0.0839844-0.7382812,0.1259766-1.1455078,0.1259766
		c-0.6728516,0-1.2666016-0.1142578-1.7822266-0.3427734c-0.5166016-0.2275391-0.9501953-0.5498047-1.3017578-0.9658203
		c-0.3525391-0.4160156-0.6181641-0.9101562-0.7988281-1.4814453c-0.1796875-0.5722656-0.2695312-1.2021484-0.2695312-1.890625
		v-7.8232422H456.3046875z"/>
	<path d="M473.4052734,328.0657349h-2.6875l-4.8964844-12.3115234h2.4599609c0.2158203,0,0.3974609,0.0517578,0.5458984,0.1552734
		c0.1484375,0.1044922,0.25,0.2363281,0.3066406,0.3964844l2.3759766,6.5761719
		c0.1357422,0.3837891,0.2490234,0.7597656,0.3417969,1.1279297c0.0917969,0.3681641,0.1738281,0.7353516,0.2460938,1.1035156
		c0.0712891-0.3681641,0.1533203-0.7353516,0.2460938-1.1035156c0.0917969-0.3681641,0.2099609-0.7441406,0.3535156-1.1279297
		l2.4365234-6.5761719c0.0556641-0.1601562,0.1552734-0.2919922,0.2998047-0.3964844
		c0.1435547-0.1035156,0.3154297-0.1552734,0.515625-0.1552734h2.3398438L473.4052734,328.0657349z"/>
	<path d="M484.7324219,315.5618286c0.7763672,0,1.4902344,0.1240234,2.1425781,0.3720703
		c0.6513672,0.2480469,1.2138672,0.6103516,1.6855469,1.0859375s0.8398438,1.0595703,1.1035156,1.7519531
		c0.2646484,0.6923828,0.3964844,1.4824219,0.3964844,2.3701172c0,0.2236328-0.0097656,0.4101562-0.0302734,0.5576172
		c-0.0195312,0.1484375-0.0556641,0.2646484-0.1074219,0.3486328c-0.0527344,0.0839844-0.1220703,0.1435547-0.2099609,0.1796875
		c-0.0888672,0.0361328-0.2001953,0.0537109-0.3359375,0.0537109h-7.6083984
		c0.0878906,1.2646484,0.4277344,2.1923828,1.0195312,2.7841797c0.5927734,0.5917969,1.3759766,0.8876953,2.3525391,0.8876953
		c0.4794922,0,0.8935547-0.0556641,1.2421875-0.1679688c0.3476562-0.1113281,0.6513672-0.2353516,0.9121094-0.3720703
		c0.2597656-0.1357422,0.4873047-0.2597656,0.6835938-0.3720703c0.1962891-0.1113281,0.3857422-0.1679688,0.5703125-0.1679688
		c0.1201172,0,0.2236328,0.0244141,0.3115234,0.0722656s0.1640625,0.1162109,0.2285156,0.2041016l0.8632812,1.0800781
		c-0.328125,0.3837891-0.6953125,0.7060547-1.1035156,0.9658203s-0.8339844,0.4677734-1.2783203,0.6240234
		c-0.4433594,0.15625-0.8955078,0.265625-1.3554688,0.3300781c-0.4599609,0.0634766-0.90625,0.0957031-1.3378906,0.0957031
		c-0.8564453,0-1.6523438-0.1416016-2.3886719-0.4257812s-1.3759766-0.7041016-1.9199219-1.2597656
		s-0.9716797-1.2441406-1.2841797-2.0644531c-0.3115234-0.8193359-0.4677734-1.7695312-0.4677734-2.8496094
		c0-0.8398438,0.1357422-1.6298828,0.4082031-2.3701172c0.2714844-0.7402344,0.6621094-1.3837891,1.1699219-1.9316406
		s1.1279297-0.9824219,1.8603516-1.3027344C482.9863281,315.7219849,483.8125,315.5618286,484.7324219,315.5618286z
		 M484.7929688,317.6858521c-0.8642578,0-1.5410156,0.2441406-2.0283203,0.7314453
		c-0.4882812,0.4882812-0.7998047,1.1806641-0.9365234,2.0761719h5.5683594c0-0.3837891-0.0517578-0.7460938-0.15625-1.0859375
		c-0.1035156-0.3398438-0.2636719-0.6376953-0.4794922-0.8935547s-0.4882812-0.4580078-0.8164062-0.6064453
		C485.6162109,317.7600708,485.2324219,317.6858521,484.7929688,317.6858521z"/>
	<path d="M495.6289062,310.2337036v17.8320312h-2.9638672v-17.8320312H495.6289062z"/>
	<path d="M502.1328125,310.2337036v17.8320312h-2.9638672v-17.8320312H502.1328125z"/>
	<path d="M510.5683594,315.5618286c0.7763672,0,1.4902344,0.1240234,2.1425781,0.3720703
		c0.6513672,0.2480469,1.2138672,0.6103516,1.6855469,1.0859375s0.8398438,1.0595703,1.1035156,1.7519531
		c0.2646484,0.6923828,0.3964844,1.4824219,0.3964844,2.3701172c0,0.2236328-0.0097656,0.4101562-0.0302734,0.5576172
		c-0.0195312,0.1484375-0.0556641,0.2646484-0.1074219,0.3486328c-0.0527344,0.0839844-0.1220703,0.1435547-0.2099609,0.1796875
		c-0.0888672,0.0361328-0.2001953,0.0537109-0.3359375,0.0537109h-7.6083984
		c0.0878906,1.2646484,0.4277344,2.1923828,1.0195312,2.7841797c0.5927734,0.5917969,1.3759766,0.8876953,2.3525391,0.8876953
		c0.4794922,0,0.8935547-0.0556641,1.2421875-0.1679688c0.3476562-0.1113281,0.6513672-0.2353516,0.9121094-0.3720703
		c0.2597656-0.1357422,0.4873047-0.2597656,0.6835938-0.3720703c0.1962891-0.1113281,0.3857422-0.1679688,0.5703125-0.1679688
		c0.1201172,0,0.2236328,0.0244141,0.3115234,0.0722656s0.1640625,0.1162109,0.2285156,0.2041016l0.8632812,1.0800781
		c-0.328125,0.3837891-0.6953125,0.7060547-1.1035156,0.9658203s-0.8339844,0.4677734-1.2783203,0.6240234
		c-0.4433594,0.15625-0.8955078,0.265625-1.3554688,0.3300781c-0.4599609,0.0634766-0.90625,0.0957031-1.3378906,0.0957031
		c-0.8564453,0-1.6523438-0.1416016-2.3886719-0.4257812s-1.3759766-0.7041016-1.9199219-1.2597656
		s-0.9716797-1.2441406-1.2841797-2.0644531c-0.3115234-0.8193359-0.4677734-1.7695312-0.4677734-2.8496094
		c0-0.8398438,0.1357422-1.6298828,0.4082031-2.3701172c0.2714844-0.7402344,0.6621094-1.3837891,1.1699219-1.9316406
		s1.1279297-0.9824219,1.8603516-1.3027344C508.8222656,315.7219849,509.6484375,315.5618286,510.5683594,315.5618286z
		 M510.6289062,317.6858521c-0.8642578,0-1.5410156,0.2441406-2.0283203,0.7314453
		c-0.4882812,0.4882812-0.7998047,1.1806641-0.9365234,2.0761719h5.5683594c0-0.3837891-0.0517578-0.7460938-0.15625-1.0859375
		c-0.1035156-0.3398438-0.2636719-0.6376953-0.4794922-0.8935547s-0.4882812-0.4580078-0.8164062-0.6064453
		C511.4521484,317.7600708,511.0683594,317.6858521,510.6289062,317.6858521z"/>
	<path d="M522.9394531,328.0657349v-12.3115234h1.8125c0.3837891,0,0.6357422,0.1796875,0.7558594,0.5390625l0.1914062,0.9121094
		c0.2158203-0.2392578,0.4423828-0.4599609,0.6787109-0.6591797c0.2353516-0.2001953,0.4873047-0.3720703,0.7558594-0.5166016
		c0.2675781-0.1435547,0.5556641-0.2578125,0.8632812-0.3417969c0.3085938-0.0839844,0.6464844-0.1259766,1.0146484-0.1259766
		c0.7753906,0,1.4140625,0.2099609,1.9140625,0.6298828s0.8740234,0.9775391,1.1220703,1.6738281
		c0.1914062-0.4082031,0.4316406-0.7578125,0.7197266-1.0498047s0.6035156-0.5302734,0.9482422-0.7138672
		c0.34375-0.1835938,0.7099609-0.3203125,1.0976562-0.4082031s0.7783203-0.1318359,1.1699219-0.1318359
		c0.6796875,0,1.2841797,0.1035156,1.8125,0.3115234c0.5273438,0.2089844,0.9716797,0.5126953,1.3320312,0.9121094
		c0.359375,0.4003906,0.6337891,0.8886719,0.8212891,1.4638672c0.1884766,0.5761719,0.2822266,1.2363281,0.2822266,1.9804688
		v7.8359375h-2.9638672v-7.8359375c0-0.7841797-0.171875-1.3740234-0.515625-1.7705078
		c-0.3447266-0.3955078-0.8486328-0.59375-1.5126953-0.59375c-0.3037109,0-0.5859375,0.0527344-0.8457031,0.15625
		c-0.2597656,0.1044922-0.4882812,0.2539062-0.6845703,0.4501953c-0.1953125,0.1962891-0.3496094,0.4414062-0.4619141,0.7373047
		c-0.1113281,0.296875-0.1679688,0.6367188-0.1679688,1.0205078v7.8359375h-2.9755859v-7.8359375
		c0-0.8242188-0.1660156-1.4238281-0.4980469-1.7998047s-0.8222656-0.5644531-1.4697266-0.5644531
		c-0.4248047,0-0.8222656,0.1064453-1.1943359,0.3183594s-0.7177734,0.5019531-1.0380859,0.8701172v9.0117188H522.9394531z"/>
	<path d="M552.7958984,328.0657349h-1.3320312c-0.2802734,0-0.5-0.0419922-0.6601562-0.1259766
		s-0.2802734-0.2539062-0.3603516-0.5097656l-0.2636719-0.8759766c-0.3125,0.2802734-0.6181641,0.5253906-0.9179688,0.7373047
		c-0.2998047,0.2128906-0.6103516,0.390625-0.9306641,0.5341797c-0.3193359,0.1445312-0.6591797,0.2519531-1.0195312,0.3242188
		s-0.7597656,0.1083984-1.2001953,0.1083984c-0.5195312,0-1-0.0703125-1.4394531-0.2109375
		c-0.4404297-0.140625-0.8183594-0.3515625-1.1347656-0.6318359c-0.3154297-0.28125-0.5615234-0.6308594-0.7373047-1.0478516
		c-0.1767578-0.4169922-0.2646484-0.9033203-0.2646484-1.4570312c0-0.4658203,0.1220703-0.9248047,0.3662109-1.3789062
		c0.2441406-0.453125,0.6503906-0.8623047,1.2177734-1.2275391c0.5683594-0.3652344,1.3242188-0.6679688,2.2685547-0.9091797
		c0.9433594-0.2402344,2.1152344-0.3613281,3.515625-0.3613281v-0.7255859c0-0.8300781-0.1738281-1.4443359-0.5214844-1.84375
		c-0.3486328-0.3994141-0.8544922-0.5986328-1.5185547-0.5986328c-0.4794922,0-0.8798828,0.0566406-1.2001953,0.1679688
		c-0.3193359,0.1123047-0.5976562,0.2382812-0.8339844,0.3779297c-0.2353516,0.140625-0.4541016,0.2666016-0.6533203,0.3779297
		c-0.2001953,0.1123047-0.4199219,0.1679688-0.6601562,0.1679688c-0.2001953,0-0.3720703-0.0517578-0.5166016-0.1552734
		c-0.1435547-0.1044922-0.2597656-0.2324219-0.3476562-0.3847656l-0.5400391-0.9472656
		c1.4160156-1.2958984,3.1240234-1.9443359,5.1240234-1.9443359c0.7197266,0,1.3623047,0.1181641,1.9257812,0.3544922
		c0.5644531,0.2353516,1.0419922,0.5634766,1.4345703,0.9833984c0.3916016,0.4199219,0.6894531,0.921875,0.8935547,1.5058594
		s0.3066406,1.2246094,0.3066406,1.9199219V328.0657349z M547.0351562,326.2180786
		c0.3046875,0,0.5839844-0.0283203,0.8398438-0.0830078c0.2568359-0.0546875,0.4980469-0.1376953,0.7265625-0.2480469
		c0.2275391-0.1103516,0.4482422-0.2460938,0.6601562-0.4072266c0.2119141-0.1621094,0.4257812-0.3525391,0.6416016-0.5732422
		v-2.0605469c-0.8642578,0-1.5859375,0.0537109-2.1660156,0.1630859c-0.5800781,0.1083984-1.0458984,0.2480469-1.3974609,0.4169922
		c-0.3525391,0.1689453-0.6025391,0.3662109-0.75,0.5917969c-0.1484375,0.2255859-0.2226562,0.4716797-0.2226562,0.7373047
		c0,0.5234375,0.1542969,0.8984375,0.4619141,1.1240234C546.1376953,326.1047974,546.5390625,326.2180786,547.0351562,326.2180786z"
		/>
	<path d="M559.7558594,328.2581177c-1.0644531,0-1.8837891-0.3027344-2.4599609-0.90625
		c-0.5761719-0.6044922-0.8642578-1.4384766-0.8642578-2.5019531v-6.8759766h-1.2480469
		c-0.1601562,0-0.2978516-0.0517578-0.4140625-0.15625c-0.1152344-0.1035156-0.1738281-0.2597656-0.1738281-0.4677734v-1.1757812
		l1.9804688-0.3242188l0.6240234-3.3603516c0.03125-0.1601562,0.1054688-0.2841797,0.2216797-0.3720703
		s0.2617188-0.1318359,0.4384766-0.1318359h1.5351562v3.8759766h3.2402344v2.1123047h-3.2402344v6.671875
		c0,0.3837891,0.0966797,0.6835938,0.2880859,0.9003906c0.1923828,0.2158203,0.4482422,0.3232422,0.7685547,0.3232422
		c0.1835938,0,0.3378906-0.0214844,0.4619141-0.0654297s0.2314453-0.0898438,0.3242188-0.1386719
		c0.0917969-0.0478516,0.1738281-0.09375,0.2460938-0.1376953c0.0712891-0.0439453,0.1435547-0.0654297,0.2158203-0.0654297
		c0.0878906,0,0.1601562,0.0214844,0.2158203,0.0654297s0.1162109,0.1103516,0.1796875,0.1982422l0.8886719,1.4394531
		c-0.4326172,0.3603516-0.9287109,0.6328125-1.4882812,0.8164062
		C560.9355469,328.1653442,560.3554688,328.2581177,559.7558594,328.2581177z"/>
	<path d="M568.5996094,312.1653442c0,0.2568359-0.0517578,0.4960938-0.1552734,0.7207031
		c-0.1044922,0.2236328-0.2421875,0.4199219-0.4140625,0.5878906c-0.1728516,0.1679688-0.3740234,0.3017578-0.6064453,0.4013672
		c-0.2324219,0.1005859-0.4794922,0.1503906-0.7441406,0.1503906c-0.2558594,0-0.4980469-0.0498047-0.7255859-0.1503906
		c-0.2285156-0.0996094-0.4257812-0.2333984-0.59375-0.4013672s-0.3027344-0.3642578-0.4023438-0.5878906
		c-0.1005859-0.2246094-0.1503906-0.4638672-0.1503906-0.7207031c0-0.2636719,0.0498047-0.5117188,0.1503906-0.7431641
		c0.0996094-0.2324219,0.234375-0.4326172,0.4023438-0.6005859s0.3652344-0.3017578,0.59375-0.4023438
		c0.2275391-0.0996094,0.4697266-0.1494141,0.7255859-0.1494141c0.2646484,0,0.5117188,0.0498047,0.7441406,0.1494141
		c0.2324219,0.1005859,0.4335938,0.234375,0.6064453,0.4023438c0.171875,0.1679688,0.3095703,0.3681641,0.4140625,0.6005859
		C568.5478516,311.6536255,568.5996094,311.9016724,568.5996094,312.1653442z M568.15625,315.7542114v12.3115234h-2.9638672
		v-12.3115234H568.15625z"/>
	<path d="M576.5917969,315.5618286c0.7763672,0,1.4902344,0.1240234,2.1425781,0.3720703
		c0.6513672,0.2480469,1.2138672,0.6103516,1.6855469,1.0859375s0.8398438,1.0595703,1.1035156,1.7519531
		c0.2646484,0.6923828,0.3964844,1.4824219,0.3964844,2.3701172c0,0.2236328-0.0097656,0.4101562-0.0302734,0.5576172
		c-0.0195312,0.1484375-0.0556641,0.2646484-0.1074219,0.3486328c-0.0527344,0.0839844-0.1220703,0.1435547-0.2099609,0.1796875
		c-0.0888672,0.0361328-0.2001953,0.0537109-0.3359375,0.0537109h-7.6083984
		c0.0878906,1.2646484,0.4277344,2.1923828,1.0195312,2.7841797c0.5927734,0.5917969,1.3759766,0.8876953,2.3525391,0.8876953
		c0.4794922,0,0.8935547-0.0556641,1.2421875-0.1679688c0.3476562-0.1113281,0.6513672-0.2353516,0.9121094-0.3720703
		c0.2597656-0.1357422,0.4873047-0.2597656,0.6835938-0.3720703c0.1962891-0.1113281,0.3857422-0.1679688,0.5703125-0.1679688
		c0.1201172,0,0.2236328,0.0244141,0.3115234,0.0722656s0.1640625,0.1162109,0.2285156,0.2041016l0.8632812,1.0800781
		c-0.328125,0.3837891-0.6953125,0.7060547-1.1035156,0.9658203s-0.8339844,0.4677734-1.2783203,0.6240234
		c-0.4433594,0.15625-0.8955078,0.265625-1.3554688,0.3300781c-0.4599609,0.0634766-0.90625,0.0957031-1.3378906,0.0957031
		c-0.8564453,0-1.6523438-0.1416016-2.3886719-0.4257812s-1.3759766-0.7041016-1.9199219-1.2597656
		s-0.9716797-1.2441406-1.2841797-2.0644531c-0.3115234-0.8193359-0.4677734-1.7695312-0.4677734-2.8496094
		c0-0.8398438,0.1357422-1.6298828,0.4082031-2.3701172c0.2714844-0.7402344,0.6621094-1.3837891,1.1699219-1.9316406
		s1.1279297-0.9824219,1.8603516-1.3027344C574.8457031,315.7219849,575.671875,315.5618286,576.5917969,315.5618286z
		 M575.5957031,310.5217896c0.328125,0,0.5703125,0.0537109,0.7265625,0.1621094
		c0.1552734,0.1074219,0.2939453,0.265625,0.4140625,0.4736328l1.7158203,2.9160156h-1.6923828
		c-0.2236328,0-0.40625-0.0302734-0.5458984-0.0898438s-0.2822266-0.1699219-0.4257812-0.3300781l-2.9638672-3.1318359H575.5957031z
		 M576.6523438,317.6858521c-0.8642578,0-1.5410156,0.2441406-2.0283203,0.7314453
		c-0.4882812,0.4882812-0.7998047,1.1806641-0.9365234,2.0761719h5.5683594c0-0.3837891-0.0517578-0.7460938-0.15625-1.0859375
		c-0.1035156-0.3398438-0.2636719-0.6376953-0.4794922-0.8935547s-0.4882812-0.4580078-0.8164062-0.6064453
		C577.4755859,317.7600708,577.0917969,317.6858521,576.6523438,317.6858521z"/>
	<path d="M584.3310547,328.0657349v-12.3115234h1.7402344c0.3037109,0,0.515625,0.0556641,0.6357422,0.1679688
		c0.1201172,0.1113281,0.2001953,0.3037109,0.2402344,0.5751953l0.1796875,1.4882812
		c0.4404297-0.7597656,0.9560547-1.359375,1.5478516-1.7998047s1.2558594-0.6601562,1.9921875-0.6601562
		c0.6083984,0,1.1123047,0.1396484,1.5117188,0.4199219l-0.3837891,2.2197266
		c-0.0234375,0.1445312-0.0761719,0.2460938-0.15625,0.3066406c-0.0800781,0.0595703-0.1875,0.0898438-0.3232422,0.0898438
		c-0.1201172,0-0.2841797-0.0283203-0.4921875-0.0839844s-0.484375-0.0839844-0.828125-0.0839844
		c-0.6162109,0-1.1445312,0.1699219-1.5839844,0.5097656c-0.4404297,0.3398438-0.8125,0.8378906-1.1162109,1.4941406v7.6679688
		H584.3310547z"/>
	<path d="M599.2226562,315.5618286c0.7763672,0,1.4902344,0.1240234,2.1425781,0.3720703
		c0.6513672,0.2480469,1.2138672,0.6103516,1.6855469,1.0859375s0.8398438,1.0595703,1.1035156,1.7519531
		c0.2646484,0.6923828,0.3964844,1.4824219,0.3964844,2.3701172c0,0.2236328-0.0097656,0.4101562-0.0302734,0.5576172
		c-0.0195312,0.1484375-0.0556641,0.2646484-0.1074219,0.3486328c-0.0527344,0.0839844-0.1220703,0.1435547-0.2099609,0.1796875
		c-0.0888672,0.0361328-0.2001953,0.0537109-0.3359375,0.0537109h-7.6083984
		c0.0878906,1.2646484,0.4277344,2.1923828,1.0195312,2.7841797c0.5927734,0.5917969,1.3759766,0.8876953,2.3525391,0.8876953
		c0.4794922,0,0.8935547-0.0556641,1.2421875-0.1679688c0.3476562-0.1113281,0.6513672-0.2353516,0.9121094-0.3720703
		c0.2597656-0.1357422,0.4873047-0.2597656,0.6835938-0.3720703c0.1962891-0.1113281,0.3857422-0.1679688,0.5703125-0.1679688
		c0.1201172,0,0.2236328,0.0244141,0.3115234,0.0722656s0.1640625,0.1162109,0.2285156,0.2041016l0.8632812,1.0800781
		c-0.328125,0.3837891-0.6953125,0.7060547-1.1035156,0.9658203s-0.8339844,0.4677734-1.2783203,0.6240234
		c-0.4433594,0.15625-0.8955078,0.265625-1.3554688,0.3300781c-0.4599609,0.0634766-0.90625,0.0957031-1.3378906,0.0957031
		c-0.8564453,0-1.6523438-0.1416016-2.3886719-0.4257812s-1.3759766-0.7041016-1.9199219-1.2597656
		s-0.9716797-1.2441406-1.2841797-2.0644531c-0.3115234-0.8193359-0.4677734-1.7695312-0.4677734-2.8496094
		c0-0.8398438,0.1357422-1.6298828,0.4082031-2.3701172c0.2714844-0.7402344,0.6621094-1.3837891,1.1699219-1.9316406
		s1.1279297-0.9824219,1.8603516-1.3027344C597.4765625,315.7219849,598.3027344,315.5618286,599.2226562,315.5618286z
		 M599.2832031,317.6858521c-0.8642578,0-1.5410156,0.2441406-2.0283203,0.7314453
		c-0.4882812,0.4882812-0.7998047,1.1806641-0.9365234,2.0761719h5.5683594c0-0.3837891-0.0517578-0.7460938-0.15625-1.0859375
		c-0.1035156-0.3398438-0.2636719-0.6376953-0.4794922-0.8935547s-0.4882812-0.4580078-0.8164062-0.6064453
		C600.1064453,317.7600708,599.7226562,317.6858521,599.2832031,317.6858521z"/>
</g>
<g>
	<path class="st3" d="M534.8999634,297.558136c-0.4000244,0.6999817-1.0999756,1.1000061-1.9000244,1.1000061h-43.2999878
		c-0.7999878,0-1.5-0.4000244-1.8999939-1.1000061c-0.2000122-0.3000183-0.2999878-0.7000122-0.2999878-1.1000061
		s0.1000061-0.7999878,0.2999878-1.1000061l21.6999817-37.5c0.4000244-0.6999817,1.0999756-1.1000061,1.9000244-1.1000061
		s1.5,0.4000244,1.9000244,1.1000061l21.7000122,37.5c0.2000122,0.3000183,0.2999878,0.7000122,0.2999878,1.1000061
		S535.1999512,297.2581482,534.8999634,297.558136z"/>
</g>
<g>
	<path d="M461.4868774,11.794116v6.7797861h-3.2275391V1.2218504h5.2919922c1.1835938,0,2.1972656,0.1220703,3.0419922,0.3662109
		c0.84375,0.2441406,1.5361328,0.5859375,2.0751953,1.0258789c0.5400391,0.4399414,0.9365234,0.9658203,1.1884766,1.578125
		c0.2519531,0.6118164,0.3779297,1.2861328,0.3779297,2.0219727c0,0.5839844-0.0859375,1.1357422-0.2578125,1.6557617
		s-0.4199219,0.9921875-0.7441406,1.4160156c-0.3242188,0.4243164-0.7236328,0.7963867-1.2001953,1.1162109
		c-0.4755859,0.3198242-1.0175781,0.5756836-1.6259766,0.7680664c0.4082031,0.2319336,0.7597656,0.5639648,1.0566406,0.9956055
		l4.34375,6.4082041h-2.9042969c-0.2802734,0-0.5175781-0.0556641-0.7138672-0.1679688
		c-0.1962891-0.1118164-0.3623047-0.2719727-0.4980469-0.4799805l-3.6484375-5.5561533
		c-0.1357422-0.2080078-0.2861328-0.355957-0.4492188-0.4438477c-0.1640625-0.0878906-0.40625-0.1318359-0.7265625-0.1318359
		H461.4868774z M461.4868774,9.4777098h2.015625c0.6083984,0,1.1386719-0.0756836,1.5908203-0.2280273
		c0.4511719-0.1518555,0.8232422-0.3618164,1.1152344-0.6298828s0.5107422-0.5859375,0.6542969-0.9541016
		c0.1445312-0.3676758,0.2158203-0.7719727,0.2158203-1.2119141c0-0.8798828-0.2900391-1.5556641-0.8701172-2.027832
		s-1.4658203-0.7080078-2.6572266-0.7080078h-2.0644531V9.4777098z"/>
	<path d="M478.7905884,6.0699949c0.7763672,0,1.4902344,0.1240234,2.1425781,0.3720703
		c0.6513672,0.2480469,1.2138672,0.6098633,1.6855469,1.0859375s0.8398438,1.0600586,1.1035156,1.7519531
		c0.2646484,0.6918945,0.3964844,1.4819336,0.3964844,2.3701172c0,0.2241211-0.0097656,0.409668-0.0302734,0.5576172
		c-0.0195312,0.1484375-0.0556641,0.2641602-0.1074219,0.3481445c-0.0527344,0.0839844-0.1220703,0.144043-0.2099609,0.1801758
		c-0.0888672,0.0361328-0.2001953,0.0537109-0.3359375,0.0537109h-7.6083984
		c0.0878906,1.2641602,0.4277344,2.1923828,1.0195312,2.7841797c0.5927734,0.5922861,1.3759766,0.8881845,2.3525391,0.8881845
		c0.4794922,0,0.8935547-0.0561523,1.2421875-0.1679688c0.3476562-0.1123047,0.6513672-0.2363281,0.9121094-0.3720713
		c0.2597656-0.1362305,0.4873047-0.2602539,0.6835938-0.3720703s0.3857422-0.1679688,0.5703125-0.1679688
		c0.1201172,0,0.2236328,0.0239258,0.3115234,0.0717773c0.0878906,0.0483398,0.1640625,0.1162109,0.2285156,0.2041016
		l0.8632812,1.0800791c-0.328125,0.3837891-0.6953125,0.7060547-1.1035156,0.9658203
		c-0.4082031,0.2602539-0.8339844,0.4682617-1.2783203,0.6240234c-0.4433594,0.15625-0.8955078,0.2661133-1.3554688,0.3300781
		s-0.90625,0.0961914-1.3378906,0.0961914c-0.8564453,0-1.6523438-0.1420898-2.3886719-0.4262695
		c-0.7363281-0.2836914-1.3759766-0.7036133-1.9199219-1.2597656s-0.9716797-1.2441416-1.2841797-2.0639658
		c-0.3115234-0.8203125-0.4677734-1.7700195-0.4677734-2.8500977c0-0.8398438,0.1357422-1.6298828,0.4082031-2.3701172
		c0.2714844-0.7397461,0.6621094-1.3837891,1.1699219-1.9321289c0.5078125-0.5478516,1.1279297-0.9819336,1.8603516-1.3017578
		C477.0444946,6.2301512,477.8706665,6.0699949,478.7905884,6.0699949z M478.8511353,8.1940184
		c-0.8642578,0-1.5410156,0.2441406-2.0283203,0.7319336c-0.4882812,0.487793-0.7998047,1.1801758-0.9365234,2.0761719h5.5683594
		c0-0.3842773-0.0517578-0.7460938-0.15625-1.0864258c-0.1035156-0.3398438-0.2636719-0.6376953-0.4794922-0.8935547
		c-0.2158203-0.2563477-0.4882812-0.4580078-0.8164062-0.6064453
		C479.6743774,8.2677488,479.2905884,8.1940184,478.8511353,8.1940184z M483.0151978,1.0299559l-2.9648438,3.1318359
		c-0.1513672,0.1601562-0.2978516,0.2700195-0.4375,0.3300781c-0.140625,0.0600586-0.3222656,0.0898438-0.5458984,0.0898438
		h-1.7763672l1.7041016-2.9160156c0.1201172-0.2075195,0.2597656-0.3657227,0.4199219-0.4736328
		c0.1601562-0.1083984,0.4003906-0.1621094,0.7197266-0.1621094H483.0151978z"/>
	<path d="M495.1831665,8.8658934c-0.0888672,0.1123047-0.1748047,0.2001953-0.2587891,0.2641602
		s-0.2060547,0.0957031-0.3652344,0.0957031c-0.1523438,0-0.3007812-0.0458984-0.4443359-0.1376953
		s-0.3164062-0.1962891-0.515625-0.3120117c-0.2001953-0.1162109-0.4384766-0.2202148-0.7138672-0.3120117
		c-0.2763672-0.0917969-0.6181641-0.1381836-1.0263672-0.1381836c-0.5205078,0-0.9765625,0.0942383-1.3681641,0.2822266
		s-0.7177734,0.4580078-0.9775391,0.8100586c-0.2607422,0.3520508-0.4541016,0.777832-0.5820312,1.277832
		c-0.1289062,0.5-0.1923828,1.065918-0.1923828,1.6977539c0,0.65625,0.0703125,1.2402344,0.2099609,1.7519531
		c0.1396484,0.512207,0.3417969,0.9423828,0.6064453,1.2900391c0.2636719,0.3481445,0.5830078,0.6123056,0.9599609,0.7919931
		c0.3759766,0.1801758,0.7998047,0.2700195,1.2714844,0.2700195s0.8544922-0.0576172,1.1464844-0.1738281
		c0.2919922-0.1157227,0.5380859-0.2441406,0.7373047-0.38379c0.2001953-0.1401367,0.3740234-0.2680664,0.5224609-0.3842773
		c0.1474609-0.1157227,0.3134766-0.1738281,0.4980469-0.1738281c0.2402344,0,0.4199219,0.0917969,0.5400391,0.2758789
		l0.8515625,1.0800791c-0.328125,0.3837891-0.6835938,0.7060547-1.0673828,0.9658203
		c-0.3847656,0.2602539-0.7822266,0.4682617-1.1943359,0.6240234c-0.4121094,0.15625-0.8378906,0.2661133-1.2783203,0.3300781
		c-0.4394531,0.0639648-0.8759766,0.0961914-1.3076172,0.0961914c-0.7597656,0-1.4765625-0.1420898-2.1484375-0.4262695
		c-0.671875-0.2836914-1.2578125-0.6977539-1.7578125-1.2416992s-0.8955078-1.2099619-1.1875-1.9980478
		s-0.4384766-1.6860352-0.4384766-2.6943359c0-0.9038086,0.1298828-1.7416992,0.390625-2.5136719
		c0.2597656-0.7719727,0.6416016-1.4399414,1.1455078-2.0043945c0.5039062-0.5639648,1.1279297-1.0058594,1.8720703-1.3256836
		s1.5996094-0.4799805,2.5683594-0.4799805c0.9199219,0,1.7255859,0.1479492,2.4179688,0.4438477
		c0.6914062,0.2958984,1.3134766,0.7202148,1.8652344,1.2719727L495.1831665,8.8658934z"/>
	<path d="M503.065979,6.0699949c0.7763672,0,1.4902344,0.1240234,2.1425781,0.3720703
		c0.6513672,0.2480469,1.2138672,0.6098633,1.6855469,1.0859375s0.8398438,1.0600586,1.1035156,1.7519531
		c0.2646484,0.6918945,0.3964844,1.4819336,0.3964844,2.3701172c0,0.2241211-0.0097656,0.409668-0.0302734,0.5576172
		c-0.0195312,0.1484375-0.0556641,0.2641602-0.1074219,0.3481445c-0.0527344,0.0839844-0.1220703,0.144043-0.2099609,0.1801758
		c-0.0888672,0.0361328-0.2001953,0.0537109-0.3359375,0.0537109h-7.6083984
		c0.0878906,1.2641602,0.4277344,2.1923828,1.0195312,2.7841797c0.5927734,0.5922861,1.3759766,0.8881845,2.3525391,0.8881845
		c0.4794922,0,0.8935547-0.0561523,1.2421875-0.1679688c0.3476562-0.1123047,0.6513672-0.2363281,0.9121094-0.3720713
		c0.2597656-0.1362305,0.4873047-0.2602539,0.6835938-0.3720703s0.3857422-0.1679688,0.5703125-0.1679688
		c0.1201172,0,0.2236328,0.0239258,0.3115234,0.0717773c0.0878906,0.0483398,0.1640625,0.1162109,0.2285156,0.2041016
		l0.8632812,1.0800791c-0.328125,0.3837891-0.6953125,0.7060547-1.1035156,0.9658203
		c-0.4082031,0.2602539-0.8339844,0.4682617-1.2783203,0.6240234c-0.4433594,0.15625-0.8955078,0.2661133-1.3554688,0.3300781
		s-0.90625,0.0961914-1.3378906,0.0961914c-0.8564453,0-1.6523438-0.1420898-2.3886719-0.4262695
		c-0.7363281-0.2836914-1.3759766-0.7036133-1.9199219-1.2597656s-0.9716797-1.2441416-1.2841797-2.0639658
		c-0.3115234-0.8203125-0.4677734-1.7700195-0.4677734-2.8500977c0-0.8398438,0.1357422-1.6298828,0.4082031-2.3701172
		c0.2714844-0.7397461,0.6621094-1.3837891,1.1699219-1.9321289c0.5078125-0.5478516,1.1279297-0.9819336,1.8603516-1.3017578
		C501.3198853,6.2301512,502.1460571,6.0699949,503.065979,6.0699949z M503.1265259,8.1940184
		c-0.8642578,0-1.5410156,0.2441406-2.0283203,0.7319336c-0.4882812,0.487793-0.7998047,1.1801758-0.9365234,2.0761719h5.5683594
		c0-0.3842773-0.0517578-0.7460938-0.15625-1.0864258c-0.1035156-0.3398438-0.2636719-0.6376953-0.4794922-0.8935547
		c-0.2158203-0.2563477-0.4882812-0.4580078-0.8164062-0.6064453C503.9497681,8.2677488,503.565979,8.1940184,503.1265259,8.1940184
		z"/>
	<path d="M510.8062134,22.5939217V6.2618895h1.8125c0.1914062,0,0.3554688,0.0439453,0.4912109,0.1318359
		c0.1367188,0.0883789,0.2246094,0.2241211,0.2646484,0.4082031l0.2392578,1.1401367
		c0.4960938-0.5678711,1.0664062-1.027832,1.7099609-1.3803711c0.6445312-0.3515625,1.3984375-0.527832,2.2626953-0.527832
		c0.671875,0,1.2851562,0.1401367,1.8417969,0.4199219c0.5556641,0.2802734,1.0361328,0.6860352,1.4404297,1.2182617
		c0.4033203,0.5317383,0.7158203,1.1879883,0.9355469,1.9677734c0.2197266,0.7802734,0.3300781,1.6743164,0.3300781,2.6821289
		c0,0.9199219-0.1240234,1.7719727-0.3720703,2.5561523c-0.2480469,0.7836914-0.6025391,1.4638681-1.0625,2.04004
		c-0.4599609,0.5756836-1.015625,1.0258789-1.6679688,1.3496094c-0.6513672,0.3242188-1.3818359,0.4863281-2.1894531,0.4863281
		c-0.6962891,0-1.2861328-0.1064453-1.7705078-0.3183594c-0.4833984-0.2119141-0.9179688-0.5058594-1.3017578-0.8818359v5.0400391
		H510.8062134z M516.565979,8.3737059c-0.6162109,0-1.1416016,0.1303711-1.578125,0.3901367
		c-0.4355469,0.2602539-0.8417969,0.6259766-1.2177734,1.0981445v5.5200195
		c0.3359375,0.4160156,0.7021484,0.7060556,1.0986328,0.8701181c0.3955078,0.1640625,0.8212891,0.2456055,1.2773438,0.2456055
		c0.4482422,0,0.8544922-0.0839844,1.2177734-0.2519531c0.3642578-0.1679688,0.6728516-0.4238291,0.9248047-0.7680674
		c0.2519531-0.34375,0.4453125-0.777832,0.5820312-1.3017578c0.1357422-0.5239258,0.203125-1.1420898,0.203125-1.8540039
		c0-0.7202148-0.0576172-1.3300781-0.1738281-1.8300781s-0.28125-0.9057617-0.4980469-1.2177734
		c-0.2158203-0.3120117-0.4775391-0.5400391-0.7861328-0.684082C517.3081665,8.4459715,516.9585571,8.3737059,516.565979,8.3737059z
		"/>
	<path d="M528.4214478,18.7657967c-1.0644531,0-1.8837891-0.3017578-2.4599609-0.9057617s-0.8642578-1.4379883-0.8642578-2.5019541
		V8.4821043h-1.2480469c-0.1601562,0-0.2978516-0.0522461-0.4140625-0.15625
		c-0.1152344-0.1040039-0.1738281-0.2597656-0.1738281-0.4677734V6.6818113l1.9804688-0.3237305l0.6240234-3.3603516
		c0.03125-0.159668,0.1054688-0.2836914,0.2216797-0.3720703c0.1162109-0.0878906,0.2617188-0.1318359,0.4384766-0.1318359
		h1.5351562v3.8759766h3.2402344v2.1123047h-3.2402344v6.671875c0,0.3837891,0.0966797,0.684082,0.2880859,0.8999033
		c0.1923828,0.2158203,0.4482422,0.3242188,0.7685547,0.3242188c0.1835938,0,0.3378906-0.0219727,0.4619141-0.0664062
		c0.1240234-0.043457,0.2314453-0.0898438,0.3242188-0.1376953c0.0917969-0.0483398,0.1738281-0.0942383,0.2460938-0.1381836
		c0.0712891-0.0439463,0.1435547-0.0659189,0.2158203-0.0659189c0.0878906,0,0.1601562,0.0219727,0.2158203,0.0659189
		c0.0556641,0.0439453,0.1162109,0.1103516,0.1796875,0.1982422l0.8886719,1.4399414
		c-0.4326172,0.3598633-0.9287109,0.6318359-1.4882812,0.815918
		C529.6011353,18.6739998,529.0210571,18.7657967,528.4214478,18.7657967z"/>
	<path d="M537.2651978,2.6739988c0,0.2558594-0.0517578,0.4960938-0.1552734,0.7197266
		c-0.1044922,0.2241211-0.2421875,0.4204102-0.4140625,0.5883789c-0.1728516,0.1679688-0.3740234,0.3017578-0.6064453,0.4018555
		s-0.4794922,0.1499023-0.7441406,0.1499023c-0.2558594,0-0.4980469-0.0498047-0.7255859-0.1499023
		c-0.2285156-0.1000977-0.4257812-0.2338867-0.59375-0.4018555s-0.3027344-0.3642578-0.4023438-0.5883789
		c-0.1005859-0.2236328-0.1503906-0.4638672-0.1503906-0.7197266c0-0.2641602,0.0498047-0.512207,0.1503906-0.7441406
		c0.0996094-0.2319336,0.234375-0.4321289,0.4023438-0.6000977s0.3652344-0.3017578,0.59375-0.4018555
		c0.2275391-0.1000977,0.4697266-0.1499023,0.7255859-0.1499023c0.2646484,0,0.5117188,0.0498047,0.7441406,0.1499023
		s0.4335938,0.2338867,0.6064453,0.4018555c0.171875,0.1679688,0.3095703,0.3681641,0.4140625,0.6000977
		C537.2134399,2.1617918,537.2651978,2.4098387,537.2651978,2.6739988z M536.8218384,6.2618895v12.3120127h-2.9638672V6.2618895
		H536.8218384z"/>
	<path d="M545.425354,6.0699949c0.9199219,0,1.7539062,0.1479492,2.5019531,0.4438477s1.3857422,0.7163086,1.9140625,1.2602539
		s0.9365234,1.2080078,1.2246094,1.9916992c0.2871094,0.7841797,0.4316406,1.6601562,0.4316406,2.6279297
		c0,0.9760742-0.1445312,1.8564453-0.4316406,2.6401367c-0.2880859,0.7841797-0.6962891,1.4521494-1.2246094,2.0039072
		c-0.5283203,0.5522461-1.1660156,0.9760742-1.9140625,1.2719727s-1.5820312,0.4443359-2.5019531,0.4443359
		s-1.7558594-0.1484375-2.5078125-0.4443359s-1.3945312-0.7197266-1.9257812-1.2719727
		c-0.5322266-0.5517578-0.9443359-1.2197275-1.2363281-2.0039072c-0.2919922-0.7836914-0.4375-1.6640625-0.4375-2.6401367
		c0-0.9677734,0.1455078-1.84375,0.4375-2.6279297c0.2919922-0.7836914,0.7041016-1.4477539,1.2363281-1.9916992
		c0.53125-0.5439453,1.1738281-0.9643555,1.9257812-1.2602539S544.5054321,6.0699949,545.425354,6.0699949z M545.425354,16.4738045
		c1.0244141,0,1.7822266-0.34375,2.2744141-1.0317392c0.4921875-0.6879883,0.7373047-1.6962891,0.7373047-3.0239258
		c0-1.328125-0.2451172-2.340332-0.7373047-3.0361328c-0.4921875-0.6962891-1.25-1.0439453-2.2744141-1.0439453
		c-1.0400391,0-1.8076172,0.3500977-2.3037109,1.0498047c-0.4960938,0.7001953-0.7441406,1.7099609-0.7441406,3.0302734
		c0,1.3198242,0.2480469,2.3256836,0.7441406,3.0175781C543.6177368,16.1281013,544.3853149,16.4738045,545.425354,16.4738045z"/>
	<path d="M553.8130493,18.5739021V6.2618895h1.8125c0.3837891,0,0.6357422,0.1801758,0.7558594,0.5400391l0.2041016,0.972168
		c0.2470703-0.2563477,0.5097656-0.4882812,0.7851562-0.6962891c0.2763672-0.2080078,0.5683594-0.3876953,0.8759766-0.5400391
		c0.3085938-0.1518555,0.6386719-0.2675781,0.9902344-0.3476562c0.3525391-0.0800781,0.7363281-0.1201172,1.1523438-0.1201172
		c0.671875,0,1.2675781,0.1137695,1.7880859,0.3417969c0.5195312,0.2280273,0.9541016,0.5483398,1.3017578,0.9599609
		c0.3476562,0.4121094,0.6123047,0.9042969,0.7919922,1.4760742c0.1796875,0.5722656,0.2695312,1.2021484,0.2695312,1.8901367
		v7.8359385h-2.9638672v-7.8359385c0-0.7519531-0.1738281-1.3339844-0.5214844-1.7460938
		c-0.3486328-0.4121094-0.8701172-0.6181641-1.5664062-0.6181641c-0.5117188,0-0.9921875,0.1162109-1.4394531,0.3481445
		c-0.4482422,0.2319336-0.8720703,0.5483398-1.2724609,0.9482422v8.9038095H553.8130493z"/>
</g>
</svg>
