<?xml version="1.0" encoding="utf-8"?>
<!-- Generator: Adobe Illustrator 23.0.2, SVG Export Plug-In . SVG Version: 6.00 Build 0)  -->
<svg version="1.1" id="Calque_1" xmlns="http://www.w3.org/2000/svg" xmlns:xlink="http://www.w3.org/1999/xlink" x="0px" y="0px"
	 viewBox="0 0 810 250.8000031" style="enable-background:new 0 0 810 250.8000031;" xml:space="preserve">
<style type="text/css">
	.st0{fill:#FF0000;}
	.st1{fill:none;stroke:#000000;stroke-miterlimit:10;stroke-dasharray:10,10;}
	.st2{fill:#FFFFFF;}
</style>
<path class="st0" d="M470.3999939,32.5c0,0.4000015,0.1000061,0.7999992,0.2999878,1.0999985l21.7000122,37.5
	c0.3999939,0.6999969,1.1000061,1.0999985,1.8999939,1.0999985s1.5-0.4000015,1.8999939-1.0999985l21.6999817-37.5
	c0.2000122-0.2999992,0.2999878-0.7000008,0.2999878-1.0999985c0-0.4000015-0.0999756-0.7999992-0.2999878-1.1000004
	c-0.4000244-0.7000008-1.0999756-1.1000004-1.9000244-1.1000004h-43.2999878c-0.7999878,0-1.5,0.3999996-1.8999939,1.1000004
	C470.5,31.7000008,470.3999939,32.0999985,470.3999939,32.5z"/>
<g>
	<path class="st0" d="M555.2999878,71.0999985c-0.4000244,0.6999969-1.0999756,1.0999985-1.9000244,1.0999985h-43.2999878
		c-0.7999878,0-1.5-0.4000015-1.8999939-1.0999985c-0.2000122-0.3000031-0.2999878-0.6999969-0.2999878-1.0999985
		S508,69.1999969,508.1999817,68.9000015l21.6999817-37.5c0.4000244-0.7000008,1.0999756-1.1000004,1.9000244-1.1000004
		s1.5,0.3999996,1.9000244,1.1000004l21.7000122,37.5c0.2000122,0.3000031,0.2999878,0.6999969,0.2999878,1.0999985
		S555.5999756,70.8000031,555.2999878,71.0999985z"/>
</g>
<g>
	<g>
		<polyline class="st1" points="379.2000122,244.8000031 379.2000122,249.8000031 374.2000122,249.8000031 		"/>
		<line class="st1" x1="364.2999878" y1="249.8000031" x2="11.1999998" y2="249.8000031"/>
		<polyline class="st1" points="6.1999998,249.8000031 1.2,249.8000031 1.2,244.8000031 		"/>
		<line class="st1" x1="1.2" y1="235.3999939" x2="1.2" y2="89.5"/>
		<polyline class="st1" points="1.2,84.8000031 1.2,79.8000031 6.1999998,79.8000031 		"/>
		<line class="st1" x1="16.2000008" y1="79.8000031" x2="369.2999878" y2="79.8000031"/>
		<polyline class="st1" points="374.2000122,79.8000031 379.2000122,79.8000031 379.2000122,84.8000031 		"/>
		<line class="st1" x1="379.2000122" y1="94.1999969" x2="379.2000122" y2="240.1000061"/>
	</g>
</g>
<g>
	<g>
		<polyline class="st1" points="808.7999878,244.8000031 808.7999878,249.8000031 803.7999878,249.8000031 		"/>
		<line class="st1" x1="793.7999878" y1="249.8000031" x2="440.7000122" y2="249.8000031"/>
		<polyline class="st1" points="435.7999878,249.8000031 430.7999878,249.8000031 430.7999878,244.8000031 		"/>
		<line class="st1" x1="430.7999878" y1="235.3999939" x2="430.7999878" y2="89.5"/>
		<polyline class="st1" points="430.7999878,84.8000031 430.7999878,79.8000031 435.7999878,79.8000031 		"/>
		<line class="st1" x1="445.7000122" y1="79.8000031" x2="798.7999878" y2="79.8000031"/>
		<polyline class="st1" points="803.7999878,79.8000031 808.7999878,79.8000031 808.7999878,84.8000031 		"/>
		<line class="st1" x1="808.7999878" y1="94.1999969" x2="808.7999878" y2="240.1000061"/>
	</g>
</g>
<g>
	<g>
		<rect x="11" y="90.5999985" class="st2" width="149.5" height="149.5"/>
		<path d="M160.1999969,90.8000031v149h-149v-149H160.1999969 M160.8000031,90.3000031h-150v150h150V90.3000031
			L160.8000031,90.3000031z"/>
	</g>
	<g>
		<rect x="219" y="90" class="st2" width="149.5" height="74.5"/>
		<path d="M368.2000122,90.3000031v74h-149v-74H368.2000122 M368.7999878,89.8000031h-150v75h150V89.8000031L368.7999878,89.8000031
			z"/>
	</g>
	<g>
		<rect x="219" y="165" class="st2" width="149.5" height="74.5"/>
		<path d="M368.2000122,165.3000031v74h-149v-74H368.2000122 M368.7999878,164.8000031h-150v75h150V164.8000031
			L368.7999878,164.8000031z"/>
	</g>
	<g>
		<rect x="441" y="90.5999985" class="st2" width="149.5" height="149.5"/>
		<path d="M590.2000122,90.8000031v149h-149v-149H590.2000122 M590.7999878,90.3000031h-150v150h150V90.3000031
			L590.7999878,90.3000031z"/>
	</g>
	<g>
		<rect x="649" y="89.5999985" class="st2" width="149.5" height="149.5"/>
		<path d="M798.2000122,89.8000031v149h-149v-149H798.2000122 M798.7999878,89.3000031h-150v150h150V89.3000031
			L798.7999878,89.3000031z"/>
	</g>
	<g>
		<path d="M661.5,172.3999939h-3V156.5h3V172.3999939z"/>
		<path d="M665,172.3999939v-11.3000031h1.7000122c0.4000244,0,0.5999756,0.1999969,0.7000122,0.5l0.2000122,0.8999939
			c0.2000122-0.1999969,0.5-0.3999939,0.7000122-0.6000061c0.2999878-0.1999969,0.5-0.3999939,0.7999878-0.5
			s0.5999756-0.1999969,0.9000244-0.3000031s0.7000122-0.1000061,1.0999756-0.1000061
			c0.5999756,0,1.2000122,0.1000061,1.5999756,0.3000031c0.5,0.1999969,0.9000244,0.5,1.2000122,0.8999939
			s0.5999756,0.8000031,0.7000122,1.3999939c0.2000122,0.5,0.2000122,1.1000061,0.2000122,1.6999969v7.1999969h-2.7000122
			v-7.1999969c0-0.6999969-0.2000122-1.1999969-0.5-1.6000061s-0.7999878-0.6000061-1.4000244-0.6000061
			c-0.5,0-0.9000244,0.1000061-1.2999878,0.3000031c-0.4000244,0.1999969-0.7999878,0.5-1.2000122,0.8999939v8.1999969
			L665,172.3999939L665,172.3999939z"/>
		<path d="M681.2000122,172.5c-1,0-1.7000122-0.3000031-2.2999878-0.8000031
			c-0.5-0.6000061-0.7999878-1.3000031-0.7999878-2.3000031v-6.3000031H677c-0.0999756,0-0.2999878,0-0.4000244-0.1000061
			c-0.0999756-0.1000061-0.2000122-0.1999969-0.2000122-0.3999939v-1.1000061l1.7999878-0.3000031l0.5999756-3.1000061
			c0-0.1000061,0.0999756-0.3000031,0.2000122-0.3000031c0.0999756-0.1000061,0.2000122-0.1000061,0.4000244-0.1000061h1.4000244
			v3.6000061h3v1.8999939h-3v6.1000061c0,0.3999939,0.0999756,0.6000061,0.2999878,0.8000031
			s0.4000244,0.3000031,0.7000122,0.3000031c0.2000122,0,0.2999878,0,0.4000244-0.1000061
			c0.0999756-0.1000061,0.2000122-0.1000061,0.2999878-0.1000061s0.2000122-0.1000061,0.2000122-0.1000061
			c0.0999756,0,0.0999756-0.1000061,0.2000122-0.1000061c0.0999756,0,0.0999756,0,0.2000122,0.1000061
			c0.0999756,0,0.0999756,0.1000061,0.2000122,0.1999969l0.7999878,1.3000031
			c-0.4000244,0.3000031-0.9000244,0.6000061-1.4000244,0.6999969C682.2999878,172.5,681.7000122,172.5,681.2000122,172.5z"/>
		<path d="M690.5999756,160.8999939c0.7000122,0,1.4000244,0.1000061,2,0.3000031s1.0999756,0.6000061,1.5,1
			s0.7999878,1,1,1.6000061S695.5,165.1999969,695.5,166c0,0.1999969,0,0.3999939,0,0.5s-0.0999756,0.1999969-0.0999756,0.3000031
			S695.3000488,166.9000092,695.2000122,167c-0.0999756,0-0.2000122,0-0.2999878,0h-7
			c0.0999756,1.1999969,0.4000244,2,0.9000244,2.6000061s1.2999878,0.8000031,2.2000122,0.8000031
			c0.4000244,0,0.7999878-0.1000061,1.0999756-0.1999969c0.2999878-0.1000061,0.5999756-0.1999969,0.7999878-0.3000031
			s0.4000244-0.1999969,0.5999756-0.3000031c0.2000122-0.1000061,0.4000244-0.1999969,0.5-0.1999969
			s0.2000122,0,0.2999878,0.1000061S694.5,169.6000214,694.5,169.7000122l0.7999878,1
			c-0.2999878,0.3999939-0.5999756,0.6000061-1,0.8999939C693.8999634,171.9000092,693.5,172,693.0999756,172.2000122
			c-0.4000244,0.1000061-0.7999878,0.1999969-1.2000122,0.3000031s-0.7999878,0.1000061-1.2000122,0.1000061
			c-0.7999878,0-1.5-0.1000061-2.2000122-0.3999939s-1.2999878-0.6000061-1.7999878-1.1999969
			c-0.5-0.5-0.9000244-1.1000061-1.2000122-1.8999939c-0.2999878-0.8000031-0.4000244-1.6000061-0.4000244-2.6000061
			c0-0.8000031,0.0999756-1.5,0.4000244-2.1999969c0.2000122-0.6999969,0.5999756-1.3000031,1.0999756-1.8000031
			s1-0.8999939,1.7000122-1.1999969C689,161.1000061,689.7999878,160.8999939,690.5999756,160.8999939z M690.7000122,162.8999939
			c-0.7999878,0-1.4000244,0.1999969-1.9000244,0.6999969s-0.7000122,1.1000061-0.9000244,1.8999939h5.0999756
			c0-0.3999939,0-0.6999969-0.0999756-1s-0.2000122-0.6000061-0.4000244-0.8000031s-0.4000244-0.3999939-0.7000122-0.6000061
			C691.5,162.8999939,691.0999756,162.8999939,690.7000122,162.8999939z"/>
		<path d="M697.7000122,172.3999939v-11.3000031h1.5999756c0.2999878,0,0.5,0.1000061,0.5999756,0.1999969
			s0.2000122,0.3000031,0.2000122,0.5l0.2000122,1.3999939c0.4000244-0.6999969,0.9000244-1.1999969,1.4000244-1.6000061
			s1.2000122-0.6000061,1.7999878-0.6000061s1,0.1000061,1.4000244,0.3999939l-0.4000244,2
			c0,0.1000061-0.0999756,0.1999969-0.0999756,0.3000031c-0.0999756,0.1000061-0.2000122,0.1000061-0.2999878,0.1000061
			s-0.2999878,0-0.5-0.1000061s-0.4000244-0.1000061-0.7999878-0.1000061c-0.5999756,0-1,0.1999969-1.5,0.5
			s-0.7000122,0.8000031-1,1.3999939v7L697.7000122,172.3999939L697.7000122,172.3999939L697.7000122,172.3999939z"/>
		<path d="M712.4000244,172.3999939h-2.5l-4.5-11.3000031h2.2999878c0.2000122,0,0.4000244,0,0.5,0.1000061
			s0.2000122,0.1999969,0.2999878,0.3999939l2.2000122,6c0.0999756,0.3999939,0.2000122,0.6999969,0.2999878,1
			s0.2000122,0.6999969,0.2000122,1c0.0999756-0.3000031,0.0999756-0.6999969,0.2000122-1
			c0.0999756-0.3000031,0.2000122-0.6999969,0.2999878-1l2.2000122-6C714,161.4999847,714,161.2999878,714.2000122,161.1999969
			c0.0999756-0.1000061,0.2999878-0.1000061,0.5-0.1000061h2.0999756L712.4000244,172.3999939z"/>
		<path d="M722.7999878,160.8999939c0.7000122,0,1.4000244,0.1000061,2,0.3000031s1.0999756,0.6000061,1.5,1
			s0.7999878,1,1,1.6000061s0.4000244,1.3999939,0.4000244,2.1999969c0,0.1999969,0,0.3999939,0,0.5
			s-0.0999756,0.1999969-0.0999756,0.3000031S727.500061,166.9000092,727.4000244,167c-0.0999756,0-0.2000122,0-0.2999878,0h-7
			c0.0999756,1.1999969,0.4000244,2,0.9000244,2.6000061c0.5,0.5,1.2999878,0.8000031,2.2000122,0.8000031
			c0.4000244,0,0.7999878-0.1000061,1.0999756-0.1999969c0.2999878-0.1000061,0.5999756-0.1999969,0.7999878-0.3000031
			s0.4000244-0.1999969,0.5999756-0.3000031c0.2000122-0.1000061,0.4000244-0.1999969,0.5-0.1999969
			s0.2000122,0,0.2999878,0.1000061c0.0999756,0,0.2000122,0.1000061,0.2000122,0.1999969l0.7999878,1
			c-0.2999878,0.3999939-0.5999756,0.6000061-1,0.8999939c-0.4000244,0.1999969-0.7999878,0.3999939-1.2000122,0.6000061
			c-0.4000244,0.1000061-0.7999878,0.1999969-1.2000122,0.3000031s-0.7999878,0.1000061-1.2000122,0.1000061
			c-0.7999878,0-1.5-0.1000061-2.2000122-0.3999939s-1.2999878-0.6000061-1.7999878-1.1999969
			c-0.5-0.5-0.9000244-1.1000061-1.2000122-1.8999939c-0.2999878-0.8000031-0.4000244-1.6000061-0.4000244-2.6000061
			c0-0.8000031,0.0999756-1.5,0.4000244-2.1999969c0.2000122-0.6999969,0.5999756-1.3000031,1.0999756-1.8000031
			s1-0.8999939,1.7000122-1.1999969C721.2000122,161.1000061,721.9000244,160.8999939,722.7999878,160.8999939z
			 M722.7999878,162.8999939c-0.7999878,0-1.4000244,0.1999969-1.9000244,0.6999969s-0.7000122,1.1000061-0.9000244,1.8999939
			h5.0999756c0-0.3999939,0-0.6999969-0.0999756-1s-0.2000122-0.6000061-0.4000244-0.8000031
			s-0.4000244-0.3999939-0.7000122-0.6000061C723.5999756,162.8999939,723.2000122,162.8999939,722.7999878,162.8999939z"/>
		<path d="M729.9000244,172.3999939v-11.3000031h1.7000122c0.4000244,0,0.5999756,0.1999969,0.7000122,0.5l0.2000122,0.8999939
			c0.2000122-0.1999969,0.5-0.3999939,0.7000122-0.6000061s0.5-0.3999939,0.7999878-0.5s0.5999756-0.1999969,0.9000244-0.3000031
			c0.2999878-0.1000061,0.7000122-0.1000061,1.0999756-0.1000061c0.5999756,0,1.2000122,0.1000061,1.5999756,0.3000031
			c0.5,0.1999969,0.9000244,0.5,1.2000122,0.8999939s0.5999756,0.8000031,0.7000122,1.3999939
			c0.0999756,0.6000061,0.2000122,1.1000061,0.2000122,1.6999969v7.1999969H737v-7.1999969
			c0-0.6999969-0.2000122-1.1999969-0.5-1.6000061s-0.7999878-0.6000061-1.4000244-0.6000061
			c-0.5,0-0.9000244,0.1000061-1.2999878,0.3000031c-0.4000244,0.1999969-0.7999878,0.5-1.2000122,0.8999939v8.1999969
			L729.9000244,172.3999939L729.9000244,172.3999939L729.9000244,172.3999939z"/>
		<path d="M746.0999756,172.5c-1,0-1.7000122-0.3000031-2.2999878-0.8000031
			c-0.5-0.6000061-0.7999878-1.3000031-0.7999878-2.3000031v-6.3000031h-1.0999756c-0.0999756,0-0.2999878,0-0.4000244-0.1000061
			c-0.0999756-0.1000061-0.2000122-0.1999969-0.2000122-0.3999939v-1.1000061l1.7999878-0.3000031l0.5999756-3.1000061
			c0-0.1000061,0.0999756-0.3000031,0.2000122-0.3000031c0.0999756-0.1000061,0.2000122-0.1000061,0.4000244-0.1000061h1.4000244
			v3.6000061h3v1.8999939h-3v6.1000061c0,0.3999939,0.0999756,0.6000061,0.2999878,0.8000031
			s0.4000244,0.3000031,0.7000122,0.3000031c0.2000122,0,0.2999878,0,0.4000244-0.1000061
			c0.0999756,0,0.2000122-0.1000061,0.2999878-0.1000061s0.2000122-0.1000061,0.2000122-0.1000061
			c0.0999756,0,0.0999756-0.1000061,0.2000122-0.1000061c0.0999756,0,0.0999756,0,0.2000122,0.1000061
			c0.0999756,0,0.0999756,0.1000061,0.2000122,0.1999969l0.7999878,1.3000031
			c-0.4000244,0.3000031-0.9000244,0.6000061-1.4000244,0.6999969C747.0999756,172.3999939,746.5999756,172.5,746.0999756,172.5z"/>
		<path d="M754.2000122,157.8000031c0,0.1999969,0,0.5-0.0999756,0.6999969s-0.2000122,0.3999939-0.4000244,0.5
			s-0.2999878,0.3000031-0.5999756,0.3999939C752.9000244,159.5,752.7000122,159.5,752.4000244,159.5
			c-0.2000122,0-0.5,0-0.7000122-0.1000061s-0.4000244-0.1999969-0.5-0.3999939s-0.2999878-0.3000031-0.4000244-0.5
			s-0.0999756-0.3999939-0.0999756-0.6999969c0-0.1999969,0-0.5,0.0999756-0.6999969s0.2000122-0.3999939,0.4000244-0.5
			c0.2000122-0.1999969,0.2999878-0.3000031,0.5-0.3999939c0.2000122-0.1000061,0.4000244-0.1000061,0.7000122-0.1000061
			c0.2000122,0,0.5,0,0.7000122,0.1000061s0.4000244,0.1999969,0.5999756,0.3999939
			c0.2000122,0.1999969,0.2999878,0.3000031,0.4000244,0.5
			C754.0999756,157.3000031,754.2000122,157.6000061,754.2000122,157.8000031z M753.7999878,161.1000061v11.3000031h-2.7000122
			v-11.3000031H753.7999878z"/>
		<path d="M761.7000122,160.8999939C762.5,160.8999939,763.2999878,161,764,161.2999878s1.2999878,0.6999969,1.7999878,1.1999969
			s0.9000244,1.1000061,1.0999756,1.8000031c0.2999878,0.6999969,0.4000244,1.5,0.4000244,2.3999939
			s-0.0999756,1.6999969-0.4000244,2.3999939c-0.2999878,0.6999969-0.5999756,1.3000031-1.0999756,1.8000031
			S764.7000122,171.7999725,764,172.0999756s-1.5,0.3999939-2.2999878,0.3999939s-1.5999756-0.1000061-2.2999878-0.3999939
			s-1.2999878-0.6999969-1.7999878-1.1999969s-0.9000244-1.1000061-1.0999756-1.8000031s-0.4000244-1.5-0.4000244-2.3999939
			s0.0999756-1.6999969,0.4000244-2.3999939s0.5999756-1.3000031,1.0999756-1.8000031s1.0999756-0.8999939,1.7999878-1.1999969
			S760.7999878,160.8999939,761.7000122,160.8999939z M761.7000122,170.3999939
			c0.9000244,0,1.5999756-0.3000031,2.0999756-0.8999939S764.5,167.8999939,764.5,166.6999969
			s-0.2000122-2.1000061-0.7000122-2.8000031c-0.5-0.6000061-1.0999756-1-2.0999756-1s-1.7000122,0.3000031-2.0999756,1
			c-0.5,0.6000061-0.7000122,1.6000061-0.7000122,2.8000031s0.2000122,2.1000061,0.7000122,2.8000031
			C760,170.1000061,760.7000122,170.3999939,761.7000122,170.3999939z"/>
		<path d="M769.2999878,172.3999939v-11.3000031H771c0.4000244,0,0.5999756,0.1999969,0.7000122,0.5l0.2000122,0.8999939
			c0.2000122-0.1999969,0.5-0.3999939,0.7000122-0.6000061c0.2999878-0.1999969,0.5-0.3999939,0.7999878-0.5
			s0.5999756-0.1999969,0.9000244-0.3000031s0.7000122-0.1000061,1.0999756-0.1000061
			c0.5999756,0,1.2000122,0.1000061,1.5999756,0.3000031c0.5,0.1999969,0.9000244,0.5,1.2000122,0.8999939
			s0.5999756,0.8000031,0.7000122,1.3999939c0.2000122,0.5,0.2000122,1.1000061,0.2000122,1.6999969v7.1999969h-2.7000122
			v-7.1999969c0-0.6999969-0.2000122-1.1999969-0.5-1.6000061s-0.7999878-0.6000061-1.4000244-0.6000061
			c-0.5,0-0.9000244,0.1000061-1.2999878,0.3000031c-0.4000244,0.1999969-0.7999878,0.5-1.2000122,0.8999939v8.1999969
			L769.2999878,172.3999939L769.2999878,172.3999939z"/>
		<path d="M788.5999756,163.3000031C788.5,163.4000092,788.3999634,163.5,788.3999634,163.5
			c-0.0999756,0-0.2000122,0.1000061-0.2999878,0.1000061s-0.2999878,0-0.4000244-0.1000061s-0.2999878-0.1999969-0.5-0.1999969
			c-0.2000122-0.1000061-0.4000244-0.1999969-0.7000122-0.1999969S785.8999634,163,785.5999146,163
			c-0.5,0-1,0.1000061-1.2999878,0.3000031s-0.5,0.5-0.5,0.8999939c0,0.1999969,0.0999756,0.3999939,0.2000122,0.6000061
			c0.0999756,0.1999969,0.4000244,0.3000031,0.5999756,0.3999939s0.5999756,0.1999969,0.9000244,0.3000031
			c0.2999878,0.1000061,0.7000122,0.1999969,1,0.3000031s0.7000122,0.3000031,1,0.3999939
			c0.2999878,0.1000061,0.5999756,0.3000031,0.9000244,0.6000061c0.2999878,0.1999969,0.5,0.5,0.5999756,0.8000031
			c0.2000122,0.3000031,0.2000122,0.6999969,0.2000122,1.1999969s-0.0999756,1-0.2999878,1.5s-0.5,0.8999939-0.9000244,1.1999969
			s-0.9000244,0.6000061-1.4000244,0.8000031s-1.2000122,0.3000031-1.9000244,0.3000031
			c-0.4000244,0-0.7999878,0-1.0999756-0.1000061s-0.7000122-0.1999969-1.0999756-0.3000031
			c-0.2999878-0.1000061-0.7000122-0.3000031-0.9000244-0.3999939c-0.2999878-0.1999969-0.5-0.3999939-0.7999878-0.5l0.5999756-1
			c0.0999756-0.1000061,0.2000122-0.1999969,0.2999878-0.3000031s0.2000122-0.1000061,0.4000244-0.1000061
			s0.2999878,0,0.5,0.1000061s0.2999878,0.1999969,0.5,0.3000031s0.4000244,0.1999969,0.7000122,0.3000031
			s0.5999756,0.1000061,1,0.1000061c0.2999878,0,0.5999756,0,0.7999878-0.1000061s0.4000244-0.1999969,0.5999756-0.3000031
			c0.2000122-0.1000061,0.2999878-0.3000031,0.2999878-0.3999939c0.0999756-0.1999969,0.0999756-0.3000031,0.0999756-0.5
			c0-0.3000031-0.0999756-0.5-0.2000122-0.6000061c-0.2000122-0.1999969-0.4000244-0.3000031-0.5999756-0.3999939
			c-0.2999878-0.1000061-0.5999756-0.1999969-0.9000244-0.3000031c-0.2999878-0.1000061-0.7000122-0.1999969-1-0.3000031
			s-0.7000122-0.3000031-1-0.3999939c-0.2999878-0.1999969-0.5999756-0.3999939-0.9000244-0.6000061
			c-0.2999878-0.1999969-0.5-0.5-0.5999756-0.8999939c-0.2000122-0.3999939-0.2000122-0.8000031-0.2000122-1.3000031
			s0.0999756-0.8999939,0.2999878-1.3000031s0.5-0.8000031,0.7999878-1.1000061s0.7999878-0.6000061,1.2999878-0.6999969
			c0.5-0.1999969,1.0999756-0.3000031,1.7999878-0.3000031c0.7999878,0,1.5,0.1000061,2.0999756,0.3999939
			s1.2000122,0.6000061,1.5999756,1L788.5999756,163.3000031z"/>
	</g>
	<g>
		<path d="M33.4000015,167.8999939c0.2000008,0,0.2999992,0.1000061,0.4000015,0.1999969l1.2000008,1.3000031
			c-0.5999985,0.8000031-1.4000015,1.3999939-2.4000015,1.8000031c-0.8999996,0.3999939-2.1000004,0.6000061-3.3999996,0.6000061
			c-1.2000008,0-2.2000008-0.1999969-3.2000008-0.6000061c-1-0.3999939-1.7000008-1-2.3999996-1.6999969
			c-0.7000008-0.6999969-1.2000008-1.6000061-1.5-2.6000061c-0.3999996-1-0.5-2.1000061-0.5-3.3000031
			s0.2000008-2.3000031,0.6000004-3.3000031s1-1.8000031,1.7000008-2.6000061
			c0.7000008-0.6999969,1.6000004-1.3000031,2.6000004-1.6999969s2.1000004-0.6000061,3.2999992-0.6000061
			c1.2000008,0,2.2000008,0.1999969,3.0999985,0.6000061c0.9000015,0.3999939,1.5999985,0.8999939,2.2999992,1.5l-1,1.3999939
			c-0.0999985,0.1000061-0.0999985,0.1999969-0.2000008,0.1999969c-0.0999985,0.1000061-0.2000008,0.1000061-0.4000015,0.1000061
			s-0.2999992-0.1000061-0.5-0.1999969c-0.2000008-0.1000061-0.4000015-0.3000031-0.7000008-0.3999939
			c-0.2999992-0.1999969-0.6000004-0.3000031-1-0.3999939C30.9999981,158.0999908,30.4999981,158,29.7999973,158
			s-1.3999996,0.1000061-2.1000004,0.3999939C27.0999966,158.6999969,26.4999962,159,26.0999966,159.5
			c-0.5,0.5-0.7999992,1.1000061-1.1000004,1.8000031c-0.2999992,0.6999969-0.3999996,1.5-0.3999996,2.3000031
			c0,0.8999939,0.1000004,1.6999969,0.3999996,2.3999939s0.6000004,1.3000031,1,1.8000031s0.8999996,0.8000031,1.5,1.1000061
			s1.2000008,0.3999939,1.8999996,0.3999939c0.3999996,0,0.7999992,0,1.1000004-0.1000061
			c0.2999992,0,0.6000004-0.1000061,0.8999996-0.1999969c0.2999992-0.1000061,0.5-0.1999969,0.8000011-0.3999939
			c0.2999992-0.1999969,0.5-0.3000031,0.7000008-0.6000061c0.0999985-0.1000061,0.2000008-0.1000061,0.2000008-0.1999969
			C33.0999985,167.6999969,33.2999992,167.8999939,33.4000015,167.8999939z"/>
		<path d="M41.9000015,160.1999969c0.7999992,0,1.5999985,0.1000061,2.2999992,0.3999939S45.5,161.2999878,46,161.7999878
			s0.9000015,1.1000061,1.0999985,1.8000031s0.4000015,1.5,0.4000015,2.3999939s-0.0999985,1.6999969-0.4000015,2.3999939
			S46.5,169.6999817,46,170.1999817s-1.0999985,0.8999939-1.7999992,1.1999969s-1.5,0.3999939-2.2999992,0.3999939
			s-1.5999985-0.1000061-2.2999992-0.3999939c-0.7000008-0.3000031-1.2999992-0.6999969-1.7999992-1.1999969
			s-0.9000015-1.1000061-1.0999985-1.8000031c-0.2999992-0.6999969-0.4000015-1.5-0.4000015-2.3999939
			s0.0999985-1.6999969,0.4000015-2.3999939c0.2999992-0.6999969,0.5999985-1.3000031,1.0999985-1.8000031
			s1.0999985-0.8999939,1.7999992-1.1999969C40.2000008,160.3000031,41,160.1999969,41.9000015,160.1999969z
			 M41.9000015,169.6999969c0.9000015,0,1.5999985-0.3000031,2.0999985-0.8999939S44.7000008,167.1999969,44.7000008,166
			S44.5,163.8999939,44,163.1999969c-0.5-0.6000061-1.0999985-1-2.0999985-1s-1.7000008,0.3000031-2.0999985,1
			c-0.5,0.6000061-0.7000008,1.6000061-0.7000008,2.8000031s0.2000008,2.1000061,0.7000008,2.8000031
			C40.2000008,169.3999939,40.9000015,169.6999969,41.9000015,169.6999969z"/>
		<path d="M49.5,171.6000061v-11.3000031h1.7000008c0.4000015,0,0.5999985,0.1999969,0.7000008,0.5l0.2000008,0.8000031
			c0.2000008-0.1999969,0.4000015-0.3999939,0.5999985-0.6000061c0.2000008-0.1999969,0.4000015-0.3000031,0.7000008-0.5
			s0.5-0.1999969,0.7999992-0.3000031s0.5999985-0.1000061,0.9000015-0.1000061
			c0.7000008,0,1.2999992,0.1999969,1.7999992,0.6000061c0.5,0.3999939,0.7999992,0.8999939,1,1.5
			c0.2000008-0.3999939,0.4000015-0.6999969,0.7000008-1s0.5999985-0.5,0.9000015-0.6999969
			c0.2999992-0.1999969,0.7000008-0.3000031,1-0.3999939S61.2000046,160,61.6000023,160
			c0.5999985,0,1.2000008,0.1000061,1.7000008,0.3000031s0.9000015,0.5,1.1999969,0.8000031
			c0.3000031,0.3999939,0.5999985,0.8000031,0.8000031,1.3000031s0.3000031,1.1000061,0.3000031,1.8000031v7.1999969h-2.7000008
			v-7.1999969c0-0.6999969-0.2000008-1.3000031-0.5-1.6000061c-0.2999992-0.3999939-0.7999992-0.5-1.4000015-0.5
			c-0.2999992,0-0.5,0-0.7999992,0.1000061c-0.2000008,0.1000061-0.4000015,0.1999969-0.5999985,0.3999939
			c-0.2000008,0.1999969-0.2999992,0.3999939-0.4000015,0.6999969s-0.2000008,0.6000061-0.2000008,0.8999939v7.1999969h-2.7000008
			v-7.1999969c0-0.8000031-0.2000008-1.3000031-0.5-1.6999969S55,162,54.5,162
			c-0.4000015,0-0.7999992,0.1000061-1.0999985,0.3000031s-0.7000008,0.5-1,0.8000031v8.3000031H49.5
			C49.5,171.3999939,49.5,171.6000061,49.5,171.6000061z"/>
		<path d="M68.0999985,175.3000031v-15h1.6999969c0.1999969,0,0.3000031,0,0.5,0.1000061s0.1999969,0.1999969,0.1999969,0.3999939
			l0.1999969,1c0.5-0.5,1-0.8999939,1.5999985-1.3000031c0.5999985-0.3000031,1.3000031-0.5,2.0999985-0.5
			c0.5999985,0,1.1999969,0.1000061,1.6999969,0.3999939c0.5,0.3000031,0.9000015,0.6000061,1.3000031,1.1000061
			s0.6999969,1.1000061,0.9000015,1.8000031c0.1999969,0.6999969,0.3000031,1.5,0.3000031,2.5
			c0,0.8000031-0.0999985,1.6000061-0.3000031,2.3000031c-0.1999969,0.6999969-0.5999985,1.3000031-1,1.8999939
			c-0.4000015,0.5-0.9000015,0.8999939-1.5,1.1999969s-1.3000031,0.3999939-2,0.3999939
			c-0.5999985,0-1.1999969-0.1000061-1.5999985-0.3000031s-0.8000031-0.5-1.1999969-0.8000031v4.6000061h-2.9000015
			C68.0999985,175.1000061,68.0999985,175.3000031,68.0999985,175.3000031z M73.3000031,162.3000031
			c-0.5999985,0-1,0.1000061-1.4000015,0.3999939c-0.4000015,0.1999969-0.8000031,0.6000061-1.0999985,1v5.1000061
			c0.3000031,0.3999939,0.5999985,0.6000061,1,0.8000031S72.6000061,169.8000031,73,169.8000031
			c0.4000015,0,0.8000031-0.1000061,1.0999985-0.1999969c0.3000031-0.1999969,0.5999985-0.3999939,0.8000031-0.6999969
			s0.4000015-0.6999969,0.5-1.1999969s0.1999969-1,0.1999969-1.6999969S75.5,164.8000183,75.4000015,164.3000183
			s-0.3000031-0.8000031-0.5-1.1000061s-0.4000015-0.5-0.6999969-0.6000061
			C74,162.3000031,73.6999969,162.3000031,73.3000031,162.3000031z"/>
		<path d="M84.1999969,171.8000031c-1,0-1.6999969-0.3000031-2.3000031-0.8000031
			c-0.5-0.6000061-0.8000031-1.3000031-0.8000031-2.3000031v-6.3000031H80c-0.0999985,0-0.3000031,0-0.4000015-0.1000061
			s-0.1999969-0.1999969-0.1999969-0.3999939v-1.1000061l1.8000031-0.3000031l0.5999985-3.1000061
			c0-0.1000061,0.0999985-0.3000031,0.1999969-0.3000031c0.0999985-0.1000061,0.1999969-0.1000061,0.4000015-0.1000061h1.4000015
			v3.6000061h3v1.8999939h-3v6.1000061c0,0.3999939,0.0999985,0.6000061,0.3000031,0.8000031
			c0.1999969,0.1999969,0.4000015,0.3000031,0.6999969,0.3000031c0.1999969,0,0.3000031,0,0.4000015-0.1000061
			c0.0999985,0,0.1999969-0.1000061,0.3000031-0.1000061c0.0999985,0,0.1999969-0.1000061,0.1999969-0.1000061
			c0.0999985,0,0.0999985-0.1000061,0.1999969-0.1000061s0.0999985,0,0.1999969,0.1000061
			c0.0999985,0,0.0999985,0.1000061,0.1999969,0.1999969l0.8000031,1.3000031
			c-0.4000015,0.3000031-0.9000015,0.6000061-1.4000015,0.6999969
			C85.1999969,171.6999969,84.8000031,171.8000031,84.1999969,171.8000031z"/>
		<path d="M97.9000015,171.6000061h-1.1999969c-0.3000031,0-0.5,0-0.5999985-0.1000061s-0.3000031-0.1999969-0.3000031-0.5
			l-0.1999969-0.8000031c-0.3000031,0.3000031-0.5999985,0.5-0.8000031,0.6999969
			c-0.3000031,0.1999969-0.5999985,0.3999939-0.9000015,0.5S93.3000031,171.5999908,93,171.6999969
			c-0.5,0.1000061-0.9000015,0.1000061-1.3000031,0.1000061c-0.5,0-0.9000015-0.1000061-1.3000031-0.1999969
			s-0.8000031-0.3000031-1-0.6000061c-0.3000031-0.3000031-0.5-0.6000061-0.6999969-1S88.5,169.1999969,88.5,168.6999969
			c0-0.3999939,0.0999985-0.8000031,0.3000031-1.3000031C89,167,89.4000015,166.5999908,89.9000015,166.2999878
			S91.0999985,165.6999817,92,165.4999847s1.9000015-0.3000031,3.1999969-0.3000031v-0.6999969
			c0-0.8000031-0.1999969-1.3000031-0.5-1.6999969s-0.8000031-0.5-1.4000015-0.5
			c-0.4000015,0-0.8000031,0.1000061-1.0999985,0.1999969c-0.3000031,0.1000061-0.5,0.1999969-0.8000031,0.3000031
			c-0.1999969,0.1000061-0.4000015,0.1999969-0.5999985,0.3000031s-0.4000015,0.1999969-0.5999985,0.1999969
			s-0.3000031,0-0.5-0.1000061c-0.0999985-0.1000061-0.1999969-0.1999969-0.3000031-0.3999939l-0.4000015-0.8999939
			c1.3000031-1.1999969,2.9000015-1.8000031,4.6999969-1.8000031c0.6999969,0,1.1999969,0.1000061,1.8000031,0.3000031
			c0.5,0.1999969,1,0.5,1.3000031,0.8999939s0.5999985,0.8000031,0.8000031,1.3999939
			c0.1999969,0.6000061,0.3000031,1.1000061,0.3000031,1.8000031V171.6000061z M92.5999985,169.8999939
			c0.3000031,0,0.5,0,0.8000031-0.1000061c0.1999969-0.1000061,0.5-0.1000061,0.6999969-0.1999969
			s0.4000015-0.1999969,0.5999985-0.3999939c0.1999969-0.1000061,0.4000015-0.3000031,0.5999985-0.5v-1.8999939
			c-0.8000031,0-1.5,0-2,0.1000061s-1,0.1999969-1.3000031,0.3999939s-0.5999985,0.3000031-0.6999969,0.5
			S91.0999985,168.1999969,91.0999985,168.5c0,0.5,0.0999985,0.8000031,0.4000015,1
			C91.8000031,169.8000031,92.0999985,169.8999939,92.5999985,169.8999939z"/>
		<path d="M100.5999985,171.6000061v-16.3000031h2.6999969v6.3999939c0.4000015-0.5,1-0.8999939,1.5-1.1000061
			c0.5999985-0.3000031,1.1999969-0.3999939,2-0.3999939c0.5999985,0,1.1999969,0.1000061,1.6999969,0.3999939
			s0.9000015,0.6000061,1.3000031,1.1000061s0.6999969,1.1000061,0.9000015,1.8000031C110.8999939,164.1999969,111,165,111,166
			c0,0.8000031-0.0999985,1.6000061-0.3000031,2.3000031c-0.1999969,0.6999969-0.5999985,1.3000031-1,1.8999939
			c-0.4000015,0.5-0.9000015,0.8999939-1.5,1.1999969s-1.3000031,0.3999939-2,0.3999939
			c-0.3000031,0-0.6999969,0-0.9000015-0.1000061c-0.3000031-0.1000061-0.5-0.1999969-0.8000031-0.3000031
			c-0.1999969-0.1000061-0.5-0.3000031-0.6999969-0.5s-0.4000015-0.3999939-0.5999985-0.6000061l-0.0999985,0.8000031
			c0,0.1999969-0.0999985,0.3000031-0.1999969,0.3999939s-0.3000031,0.1000061-0.4000015,0.1000061
			C102.5,171.6000061,100.5999985,171.6000061,100.5999985,171.6000061z M105.8000031,162.3000031
			c-0.5999985,0-1,0.1000061-1.4000015,0.3999939c-0.4000015,0.1999969-0.8000031,0.6000061-1.0999985,1v5.1000061
			c0.3000031,0.3999939,0.5999985,0.6000061,1,0.8000031s0.8000031,0.1999969,1.1999969,0.1999969
			c0.4000015,0,0.8000031-0.1000061,1.0999985-0.1999969c0.3000031-0.1999969,0.5999985-0.3999939,0.8000031-0.6999969
			c0.1999969-0.3000031,0.4000015-0.6999969,0.5-1.1999969s0.1999969-1,0.1999969-1.6999969
			S108,164.8000183,107.9000015,164.3000183s-0.3000031-0.8000031-0.5-1.1000061s-0.4000015-0.5-0.6999969-0.6000061
			C106.5,162.3000031,106.1999969,162.3000031,105.8000031,162.3000031z"/>
		<path d="M116.4000015,157.1000061c0,0.1999969,0,0.5-0.0999985,0.6999969s-0.1999969,0.3999939-0.4000015,0.5
			s-0.3000031,0.3000031-0.5999985,0.3999939c-0.1999969,0.1000061-0.4000015,0.1000061-0.6999969,0.1000061
			c-0.1999969,0-0.5,0-0.6999969-0.1000061s-0.4000015-0.1999969-0.5-0.3999939
			c-0.1999969-0.1999969-0.3000031-0.3000031-0.4000015-0.5s-0.0999985-0.3999939-0.0999985-0.6999969
			c0-0.1999969,0-0.5,0.0999985-0.6999969s0.1999969-0.3999939,0.4000015-0.5
			c0.1999969-0.1999969,0.3000031-0.3000031,0.5-0.3999939c0.1999969-0.1000061,0.4000015-0.1000061,0.6999969-0.1000061
			c0.1999969,0,0.5,0,0.6999969,0.1000061s0.4000015,0.1999969,0.5999985,0.3999939s0.3000031,0.3000031,0.4000015,0.5
			S116.4000015,156.8000031,116.4000015,157.1000061z M116,160.3000031v11.3000031h-2.6999969v-11.3000031H116z"/>
		<path d="M121.9000015,155.3000031v16.3000031h-2.6999969v-16.3000031H121.9000015z"/>
		<path d="M128.3000031,157.1000061c0,0.1999969,0,0.5-0.1000061,0.6999969s-0.1999969,0.3999939-0.4000015,0.5
			s-0.3000031,0.3000031-0.5999985,0.3999939C127,158.8000031,126.7999954,158.8000031,126.5,158.8000031
			c-0.1999969,0-0.5,0-0.6999969-0.1000061s-0.4000015-0.1999969-0.5-0.3999939
			c-0.1999969-0.1999969-0.3000031-0.3000031-0.4000015-0.5s-0.0999985-0.3999939-0.0999985-0.6999969
			c0-0.1999969,0-0.5,0.0999985-0.6999969s0.1999969-0.3999939,0.4000015-0.5
			c0.1999969-0.1999969,0.3000031-0.3000031,0.5-0.3999939C126,155.4000092,126.2000046,155.4000092,126.5,155.4000092
			c0.1999969,0,0.5,0,0.6999969,0.1000061s0.4000015,0.1999969,0.5999985,0.3999939s0.2999954,0.3000031,0.4000015,0.5
			S128.3000031,156.8000031,128.3000031,157.1000061z M127.9000015,160.3000031v11.3000031h-2.6999969v-11.3000031H127.9000015z"/>
		<path d="M134.6999969,171.8000031c-1,0-1.6999969-0.3000031-2.3000031-0.8000031
			c-0.5-0.6000061-0.8000031-1.3000031-0.8000031-2.3000031v-6.3000031h-1.1000061c-0.1000061,0-0.3000031,0-0.3999939-0.1000061
			c-0.1000061-0.1000061-0.1999969-0.1999969-0.1999969-0.3999939v-1.1000061l1.8000031-0.3000031l0.6000061-3.1000061
			c0-0.1000061,0.1000061-0.3000031,0.1999969-0.3000031c0.1000061-0.1000061,0.1999969-0.1000061,0.3999939-0.1000061h1.3999939
			v3.6000061h3v1.8999939h-3v6.1000061c0,0.3999939,0.1000061,0.6000061,0.3000031,0.8000031
			s0.3999939,0.3000031,0.6999969,0.3000031c0.1999969,0,0.3000031,0,0.3999939-0.1000061
			c0.1000061,0,0.1999969-0.1000061,0.3000031-0.1000061s0.1999969-0.1000061,0.1999969-0.1000061
			c0.1000061,0,0.1000061-0.1000061,0.1999969-0.1000061c0.1000061,0,0.1000061,0,0.1999969,0.1000061
			c0.1000061,0,0.1000061,0.1000061,0.1999969,0.1999969l0.8000031,1.3000031
			c-0.3999939,0.3000031-0.8999939,0.6000061-1.3999939,0.6999969
			C135.6999969,171.6999969,135.1999969,171.8000031,134.6999969,171.8000031z"/>
		<path d="M144.1000061,160.1999969c0.6999969,0,1.3999939,0.1000061,2,0.3000031s1.1000061,0.6000061,1.5,1
			s0.8000031,1,1,1.6000061S149,164.5,149,165.3000031c0,0.1999969,0,0.3999939,0,0.5S148.8999939,166,148.8999939,166.1000061
			s-0.1000061,0.1000061-0.1999969,0.1999969c-0.1000061,0-0.1999969,0-0.3000031,0h-7
			c0.1000061,1.1999969,0.3999939,2,0.8999939,2.6000061c0.5,0.5,1.3000031,0.8000031,2.1999969,0.8000031
			c0.3999939,0,0.8000031-0.1000061,1.1000061-0.1999969c0.3000031-0.1000061,0.6000061-0.1999969,0.8000031-0.3000031
			s0.3999939-0.1999969,0.6000061-0.3000031c0.1999969-0.1000061,0.3999939-0.1999969,0.5-0.1999969
			s0.1999969,0,0.3000031,0.1000061S148,168.9000244,148,169.0000153l0.8000031,1
			c-0.3000031,0.3999939-0.6000061,0.6000061-1,0.8999939c-0.3999939,0.3000031-0.8000031,0.3999939-1.1999969,0.6000061
			c-0.3999939,0.1000061-0.8000031,0.1999969-1.1999969,0.3000031s-0.8000031,0.1000061-1.1999969,0.1000061
			c-0.8000031,0-1.5-0.1000061-2.1999969-0.3999939s-1.3000031-0.6000061-1.8000031-1.1999969
			c-0.5-0.5-0.8999939-1.1000061-1.1999969-1.8999939c-0.3000031-0.8000031-0.3999939-1.6000061-0.3999939-2.6000061
			c0-0.8000031,0.1000061-1.5,0.3999939-2.1999969c0.1999969-0.6999969,0.6000061-1.3000031,1.1000061-1.8000031
			s1-0.8999939,1.6999969-1.1999969C142.5,160.3000031,143.3000031,160.1999969,144.1000061,160.1999969z M144.1999969,162.1000061
			c-0.8000031,0-1.3999939,0.1999969-1.8999939,0.6999969s-0.6999969,1.1000061-0.8999939,1.8999939h5.1000061
			c0-0.3999939,0-0.6999969-0.1000061-1s-0.1999969-0.6000061-0.3999939-0.8000031s-0.3999939-0.3999939-0.6999969-0.6000061
			S144.6000061,162.1000061,144.1999969,162.1000061z M148,155.5l-2.6999969,2.8999939
			C145.1999969,158.5,145,158.5999908,144.9000092,158.6999969c-0.1000061,0.1000061-0.3000031,0.1000061-0.5,0.1000061h-1.6000061
			l1.6000061-2.6999969c0.1000061-0.1999969,0.1999969-0.3000031,0.3999939-0.3999939
			c0.1000061-0.1000061,0.3999939-0.1000061,0.6999969-0.1000061h2.5V155.5z"/>
	</g>
	<g>
		<path d="M275.5,135.3999939h-2.2999878c-0.2999878,0-0.5-0.1000061-0.6000061-0.1999969s-0.2999878-0.3000031-0.3999939-0.5
			L271,131.5h-6.6000061l-1.2000122,3.1999969c-0.1000061,0.1999969-0.2000122,0.3000031-0.2999878,0.5
			c-0.1000061,0.1999969-0.3999939,0.1999969-0.6000061,0.1999969H260l6.2000122-15.9000015h3L275.5,135.3999939z
			 M265.2000122,129.3999939h5.1000061l-1.8999939-5.3000031c-0.1000061-0.1999969-0.2000122-0.5-0.2999878-0.8000031
			c-0.1000061-0.3000031-0.2000122-0.6999969-0.2999878-1c-0.1000061,0.4000015-0.2000122,0.6999969-0.2999878,1
			s-0.2000122,0.5999985-0.2999878,0.8000031L265.2000122,129.3999939z"/>
		<path d="M285,126.5c-0.1000061,0.0999985-0.2000122,0.1999969-0.2000122,0.1999969
			c-0.1000061,0.0999985-0.2000122,0.0999985-0.2999878,0.0999985c-0.1000061,0-0.2999878,0-0.3999939-0.0999985
			s-0.2999878-0.1999969-0.5-0.3000031c-0.2000122-0.0999985-0.3999939-0.1999969-0.7000122-0.3000031
			c-0.2999878-0.0999985-0.6000061-0.0999985-0.8999939-0.0999985c-0.5,0-0.8999939,0.0999985-1.2999878,0.3000031
			c-0.3999939,0.1999969-0.7000122,0.4000015-0.8999939,0.6999969s-0.3999939,0.6999969-0.5,1.2000046
			c-0.1000061,0.5-0.2000122,1-0.2000122,1.6000061s0.1000061,1.1000061,0.2000122,1.6000061
			s0.2999878,0.8999939,0.6000061,1.1999969c0.2000122,0.3000031,0.5,0.6000061,0.8999939,0.6999969
			S281.5000305,133.5,282.0000305,133.5s0.7999878-0.1000061,1.1000061-0.1999969s0.5-0.1999969,0.7000122-0.3999939
			c0.2000122-0.1000061,0.2999878-0.1999969,0.5-0.3999939c0.1000061-0.1000061,0.2999878-0.1999969,0.5-0.1999969
			s0.3999939,0.1000061,0.5,0.3000031l0.7999878,1c-0.2999878,0.3999939-0.6000061,0.6000061-1,0.8999939
			s-0.7000122,0.3999939-1.1000061,0.6000061c-0.3999939,0.1000061-0.7999878,0.1999969-1.2000122,0.3000031
			c-0.3999939,0.1000061-0.7999878,0.1000061-1.2000122,0.1000061c-0.7000122,0-1.3999939-0.1000061-2-0.3999939
			C279,134.8000336,278.3999939,134.5000305,278,134.0000305c-0.5-0.5-0.7999878-1.1000061-1.1000061-1.8000031
			c-0.2999878-0.6999969-0.3999939-1.5-0.3999939-2.5c0-0.8000031,0.1000061-1.6000061,0.3999939-2.3000031
			C277.1000061,126.7000275,277.5,126.1000214,278,125.6000214s1-0.9000015,1.7000122-1.1999969s1.5-0.4000015,2.3999939-0.4000015
			c0.7999878,0,1.6000061,0.0999985,2.2000122,0.4000015s1.2000122,0.6999969,1.7000122,1.1999969L285,126.5z"/>
		<path d="M287.5,135.3999939V119h2.7000122v6.3000031c0.3999939-0.4000015,0.8999939-0.8000031,1.5-1
			c0.5-0.3000031,1.1000061-0.4000015,1.8999939-0.4000015c0.6000061,0,1.2000122,0.0999985,1.6000061,0.3000031
			c0.5,0.1999969,0.8999939,0.5,1.2000122,0.9000015c0.2999878,0.4000015,0.6000061,0.8000031,0.7000122,1.4000015
			s0.2000122,1.0999985,0.2000122,1.7000046v7.1999969h-2.7000122v-7.1999969c0-0.6999969-0.2000122-1.1999969-0.5-1.5999985
			s-0.7999878-0.5999985-1.3999939-0.5999985c-0.5,0-0.8999939,0.0999985-1.2999878,0.3000031
			c-0.3999939,0.1999969-0.7999878,0.5-1.2000122,0.9000015v8.2000046C290.2000122,135.3999939,287.5,135.3999939,287.5,135.3999939
			z"/>
		<path d="M308.8999939,135.3999939h-1.2000122c-0.2999878,0-0.5,0-0.6000061-0.1000061s-0.2999878-0.1999969-0.2999878-0.5
			l-0.2000122-0.8000031c-0.2999878,0.3000031-0.6000061,0.5-0.7999878,0.6999969
			c-0.2000122,0.1999969-0.6000061,0.3999939-0.8999939,0.5S304.2999878,135.3999786,304,135.4999847
			s-0.7000122,0.1000061-1.1000061,0.1000061c-0.5,0-0.8999939-0.1000061-1.2999878-0.1999969
			c-0.3999939-0.1000061-0.7999878-0.3000031-1-0.6000061c-0.2999878-0.3000031-0.5-0.6000061-0.7000122-1
			s-0.2000122-0.8000031-0.2000122-1.3000031c0-0.3999939,0.1000061-0.8000031,0.2999878-1.3000031
			s0.6000061-0.8000031,1.1000061-1.1000061s1.2000122-0.6000061,2.1000061-0.8000031s1.8999939-0.3000031,3.2000122-0.3000031
			v-0.6999969c0-0.8000031-0.2000122-1.3000031-0.5-1.6999969s-0.7999878-0.5-1.3999939-0.5
			c-0.3999939,0-0.7999878,0.0999985-1.1000061,0.1999969c-0.2999878,0.0999985-0.5,0.1999969-0.7999878,0.3000031
			c-0.2000122,0.0999985-0.3999939,0.1999969-0.6000061,0.3000031c-0.2000122,0.0999985-0.3999939,0.1999969-0.6000061,0.1999969
			s-0.2999878,0-0.5-0.0999985c-0.1000061-0.0999985-0.2000122-0.1999969-0.2999878-0.4000015l-0.5-0.9000015
			c1.2999878-1.1999969,2.8999939-1.8000031,4.7000122-1.8000031c0.7000122,0,1.2000122,0.0999985,1.7999878,0.3000031
			s1,0.5,1.2999878,0.9000015c0.3999939,0.4000015,0.6000061,0.8000031,0.7999878,1.4000015
			c0.2000122,0.5,0.2999878,1.0999985,0.2999878,1.7999954L308.8999939,135.3999939L308.8999939,135.3999939z
			 M303.6000061,133.6999969c0.2999878,0,0.5,0,0.7999878-0.1000061c0.2000122-0.1000061,0.5-0.1000061,0.7000122-0.1999969
			S305.5,133.1999969,305.7000122,133c0.2000122-0.1000061,0.3999939-0.3000031,0.6000061-0.5v-1.8999939
			c-0.7999878,0-1.5,0-2,0.1000061s-1,0.1999969-1.2999878,0.3999939s-0.6000061,0.3000031-0.7000122,0.5
			S302.1000061,132,302.1000061,132.3000031c0,0.5,0.1000061,0.8000031,0.3999939,1
			C302.7999878,133.6000061,303.1000061,133.6999969,303.6000061,133.6999969z"/>
		<path d="M315.2000122,135.6000061c-1,0-1.7000122-0.3000031-2.2999878-0.8000031
			c-0.5-0.6000061-0.7999878-1.3000031-0.7999878-2.3000031v-6.3000031H311c-0.1000061,0-0.2999878,0-0.3999939-0.0999985
			s-0.2000122-0.1999969-0.2000122-0.4000015v-1.0999985l1.7999878-0.3000031l0.6000061-3.0999985
			c0-0.0999985,0.1000061-0.3000031,0.2000122-0.3000031c0.1000061-0.0999985,0.2000122-0.0999985,0.3999939-0.0999985h1.3999939
			v3.5999985h3v1.9000015h-3v6.0999985c0,0.3999939,0.1000061,0.6000061,0.2999878,0.8000031
			c0.2000122,0.1999969,0.3999939,0.3000031,0.7000122,0.3000031c0.2000122,0,0.2999878,0,0.3999939-0.1000061
			c0.1000061,0,0.2000122-0.1000061,0.2999878-0.1000061c0.1000061,0,0.2000122-0.1000061,0.2000122-0.1000061
			c0.1000061,0,0.1000061-0.1000061,0.2000122-0.1000061s0.1000061,0,0.2000122,0.1000061
			c0.1000061,0,0.1000061,0.1000061,0.2000122,0.1999969l0.7999878,1.3000031
			c-0.3999939,0.3000031-0.8999939,0.6000061-1.3999939,0.6999969
			C316.2999878,135.5,315.7999878,135.6000061,315.2000122,135.6000061z"/>
		<path d="M326.7999878,126.3000031C326.6999817,126.4000015,326.5999756,126.5,326.5999756,126.5
			s-0.2000122,0.0999985-0.2999878,0.0999985c-0.1000061,0-0.2999878,0-0.3999939-0.0999985s-0.2999878-0.1999969-0.5-0.1999969
			c-0.2000122-0.0999985-0.3999939-0.1999969-0.7000122-0.1999969c-0.2999878-0.0999985-0.6000061-0.0999985-0.8999939-0.0999985
			c-0.5,0-1,0.0999985-1.2999878,0.3000031s-0.5,0.5-0.5,0.9000015c0,0.1999969,0.1000061,0.4000015,0.2000122,0.5999985
			c0.1000061,0.2000046,0.3999939,0.2999954,0.6000061,0.4000015c0.2999878,0.1000061,0.6000061,0.1999969,0.8999939,0.3000031
			s0.7000122,0.1999969,1,0.3000031s0.7000122,0.3000031,1,0.3999939c0.2999878,0.1000061,0.6000061,0.3000031,0.8999939,0.6000061
			c0.2999878,0.1999969,0.5,0.5,0.6000061,0.8000031c0.2000122,0.3000031,0.2000122,0.6999969,0.2000122,1.1999969
			s-0.1000061,1-0.2999878,1.5c-0.2000122,0.5-0.5,0.8999939-0.8999939,1.1999969s-0.8999939,0.6000061-1.3999939,0.8000031
			s-1.2000122,0.3000031-1.8999939,0.3000031c-0.3999939,0-0.7999878,0-1.1000061-0.1000061
			c-0.3999939-0.1000061-0.7000122-0.1999969-1.1000061-0.3000031c-0.2999878-0.1000061-0.7000122-0.3000031-0.8999939-0.3999939
			c-0.2999878-0.1999969-0.5-0.3999939-0.7999878-0.5l0.6000061-1c0.1000061-0.1000061,0.2000122-0.1999969,0.2999878-0.3000031
			c0.1000061-0.1000061,0.2000122-0.1000061,0.3999939-0.1000061c0.2000122,0,0.2999878,0,0.5,0.1000061
			s0.2999878,0.1999969,0.5,0.3000031s0.3999939,0.1999969,0.7000122,0.3000031
			c0.2999878,0.1000061,0.6000061,0.1000061,1,0.1000061c0.2999878,0,0.6000061,0,0.7999878-0.1000061
			c0.2000122-0.1000061,0.3999939-0.1999969,0.6000061-0.3000031c0.1000061-0.1000061,0.2999878-0.3000031,0.2999878-0.3999939
			c0.1000061-0.1999969,0.1000061-0.3000031,0.1000061-0.5c0-0.3000031-0.1000061-0.5-0.2000122-0.6000061
			c-0.2000122-0.1999969-0.3999939-0.3000031-0.6000061-0.3999939c-0.2999878-0.1000061-0.6000061-0.1999969-0.8999939-0.3000031
			s-0.7000122-0.1999969-1-0.3000031s-0.7000122-0.3000031-1-0.3999939
			c-0.2999878-0.1000061-0.6000061-0.3999939-0.8999939-0.6000061s-0.5-0.5-0.6000061-0.8999939
			s-0.2000122-0.8000031-0.2000122-1.3000031s0.1000061-0.9000015,0.2999878-1.3000031s0.5-0.8000031,0.7999878-1.0999985
			c0.3999939-0.3000031,0.7999878-0.5999985,1.2999878-0.6999969s1.1000061-0.3000031,1.7999878-0.3000031
			c0.7999878,0,1.5,0.0999985,2.1000061,0.4000015s1.2000122,0.5999985,1.6000061,1L326.7999878,126.3000031z"/>
	</g>
	<g>
		<path d="M259.6000061,194.3000031H262c0.2999878,0,0.5,0.1000061,0.6000061,0.1999969
			c0.2000122,0.1000061,0.2999878,0.3000031,0.3999939,0.5l3.7000122,9.6999969
			c0.1000061,0.3000031,0.2000122,0.6999969,0.3999939,1c0.1000061,0.3999939,0.2000122,0.8000031,0.2999878,1.1999969
			c0.2000122-0.8000031,0.3999939-1.6000061,0.6000061-2.1999969L271.7000122,195
			c0.1000061-0.1999969,0.2000122-0.3000031,0.3999939-0.5c0.2000122-0.1000061,0.3999939-0.1999969,0.6000061-0.1999969h2.3999939
			l-6.3999939,15.8999939H266L259.6000061,194.3000031z"/>
		<path d="M279.8999939,198.6999969c0.7000122,0,1.3999939,0.1000061,2,0.3000031s1.1000061,0.6000061,1.5,1
			s0.7999878,1,1,1.6000061s0.3999939,1.3999939,0.3999939,2.1999969c0,0.1999969,0,0.3999939,0,0.5
			s-0.1000061,0.1999969-0.1000061,0.3000031s-0.1000061,0.1000061-0.2000122,0.1999969c-0.1000061,0-0.2000122,0-0.2999878,0h-7
			c0.1000061,1.1999969,0.3999939,2,0.8999939,2.6000061c0.5,0.5,1.2999878,0.8000031,2.2000122,0.8000031
			c0.3999939,0,0.7999878-0.1000061,1.1000061-0.1999969s0.6000061-0.1999969,0.7999878-0.3000031
			c0.2000122-0.1000061,0.3999939-0.1999969,0.6000061-0.3000031s0.3999939-0.1999969,0.5-0.1999969
			s0.2000122,0,0.2999878,0.1000061s0.2000122,0.1000061,0.2000122,0.1999969l0.7999878,1
			c-0.2999878,0.3999939-0.6000061,0.6000061-1,0.8999939s-0.7999878,0.3999939-1.2000122,0.6000061
			c-0.3999939,0.1000061-0.7999878,0.1999969-1.2000122,0.3000031c-0.3999939,0.1000061-0.7999878,0.1000061-1.2000122,0.1000061
			c-0.7999878,0-1.5-0.1000061-2.2000122-0.3999939c-0.7000122-0.3000031-1.2999878-0.6000061-1.7999878-1.1999969
			c-0.5-0.5-0.8999939-1.1000061-1.2000122-1.8999939c-0.2999878-0.8000031-0.3999939-1.6000061-0.3999939-2.6000061
			c0-0.8000031,0.1000061-1.5,0.3999939-2.1999969c0.2000122-0.6999969,0.6000061-1.3000031,1.1000061-1.8000031
			s1-0.8999939,1.7000122-1.1999969C278.2999878,198.8000031,279.1000061,198.6999969,279.8999939,198.6999969z M280,200.6000061
			c-0.7999878,0-1.3999939,0.1999969-1.8999939,0.6999969c-0.3999939,0.3999939-0.7000122,1.1000061-0.8999939,1.8999939h5.1000061
			c0-0.3999939,0-0.6999969-0.1000061-1S282,201.5999908,281.8000183,201.3999939
			c-0.2000122-0.1999969-0.3999939-0.3999939-0.7000122-0.6000061S280.3999939,200.6000061,280,200.6000061z"/>
		<path d="M287,210.1999969v-11.3000031h1.7000122c0.3999939,0,0.6000061,0.1999969,0.7000122,0.5l0.2000122,0.8999939
			c0.2000122-0.1999969,0.5-0.3999939,0.7000122-0.6000061c0.2999878-0.1999969,0.5-0.3999939,0.7999878-0.5
			s0.6000061-0.1999969,0.8999939-0.3000031s0.7000122-0.1000061,1.1000061-0.1000061
			c0.6000061,0,1.2000122,0.1000061,1.6000061,0.3000031c0.5,0.1999969,0.8999939,0.5,1.2000122,0.8999939
			c0.2999878,0.3999939,0.6000061,0.8000031,0.7000122,1.3999939c0.1000061,0.6000061,0.2000122,1.1000061,0.2000122,1.6999969
			v7.1999969h-2.7000122v-7.1999969c0-0.6999969-0.2000122-1.1999969-0.5-1.6000061
			c-0.2999878-0.3999939-0.7999878-0.6000061-1.3999939-0.6000061c-0.5,0-0.8999939,0.1000061-1.2999878,0.3000031
			s-0.7999878,0.5-1.2000122,0.8999939v8.1999969L287,210.1999969L287,210.1999969z"/>
		<path d="M303.2000122,210.3000031c-1,0-1.7000122-0.3000031-2.2999878-0.8000031
			c-0.5-0.6000061-0.7999878-1.3000031-0.7999878-2.3000031v-6.3000031H299c-0.1000061,0-0.2999878,0-0.3999939-0.1000061
			s-0.2000122-0.1999969-0.2000122-0.3999939v-1.1000061l1.7999878-0.3000031l0.6000061-3.1000061
			c0-0.1000061,0.1000061-0.3000031,0.2000122-0.3000031c0.1000061-0.1000061,0.2000122-0.1000061,0.3999939-0.1000061h1.3999939
			v3.6000061h3v1.8999939h-3v6.1000061c0,0.3999939,0.1000061,0.6000061,0.2999878,0.8000031
			c0.2000122,0.1999969,0.3999939,0.3000031,0.7000122,0.3000031c0.2000122,0,0.2999878,0,0.3999939-0.1000061
			c0.1000061,0,0.2000122-0.1000061,0.2999878-0.1000061c0.1000061,0,0.2000122-0.1000061,0.2000122-0.1000061
			c0.1000061,0,0.1000061-0.1000061,0.2000122-0.1000061s0.1000061,0,0.2000122,0.1000061
			c0.1000061,0,0.1000061,0.1000061,0.2000122,0.1999969l0.7999878,1.3000031
			c-0.3999939,0.3000031-0.8999939,0.6000061-1.3999939,0.6999969
			C304.2999878,210.3000031,303.7999878,210.3000031,303.2000122,210.3000031z"/>
		<path d="M312.7000122,198.6999969c0.7000122,0,1.3999939,0.1000061,2,0.3000031s1.1000061,0.6000061,1.5,1
			s0.7999878,1,1,1.6000061s0.3999939,1.3999939,0.3999939,2.1999969c0,0.1999969,0,0.3999939,0,0.5S317.5,204.5,317.5,204.6000061
			s-0.1000061,0.1000061-0.2000122,0.1999969c-0.1000061,0-0.2000122,0-0.2999878,0h-7
			c0.1000061,1.1999969,0.3999939,2,0.8999939,2.6000061c0.5,0.5,1.2999878,0.8000031,2.2000122,0.8000031
			c0.3999939,0,0.7999878-0.1000061,1.1000061-0.1999969s0.6000061-0.1999969,0.7999878-0.3000031
			c0.2000122-0.1000061,0.3999939-0.1999969,0.6000061-0.3000031s0.3999939-0.1999969,0.5-0.1999969
			s0.2000122,0,0.2999878,0.1000061s0.2000122,0.1000061,0.2000122,0.1999969l0.7999878,1
			c-0.2999878,0.3999939-0.6000061,0.6000061-1,0.8999939s-0.7999878,0.3999939-1.2000122,0.6000061
			c-0.3999939,0.1000061-0.7999878,0.1999969-1.2000122,0.3000031c-0.3999939,0.1000061-0.7999878,0.1000061-1.2000122,0.1000061
			c-0.7999878,0-1.5-0.1000061-2.2000122-0.3999939c-0.7000122-0.3000031-1.2999878-0.6000061-1.7999878-1.1999969
			c-0.5-0.5-0.8999939-1.1000061-1.2000122-1.8999939c-0.2999878-0.8000031-0.3999939-1.6000061-0.3999939-2.6000061
			c0-0.8000031,0.1000061-1.5,0.3999939-2.1999969c0.2000122-0.6999969,0.6000061-1.3000031,1.1000061-1.8000031
			s1-0.8999939,1.7000122-1.1999969C311.1000061,198.8000031,311.8999939,198.6999969,312.7000122,198.6999969z
			 M312.7999878,200.6000061c-0.7999878,0-1.3999939,0.1999969-1.8999939,0.6999969
			C310.5,201.6999969,310.1999817,202.4000092,310,203.1999969h5.1000061c0-0.3999939,0-0.6999969-0.1000061-1
			s-0.2000122-0.6000061-0.3999939-0.8000031c-0.2000122-0.1999969-0.3999939-0.3999939-0.7000122-0.6000061
			S313.2000122,200.6000061,312.7999878,200.6000061z"/>
		<path d="M326.5,201.1000061c-0.1000061,0.1000061-0.2000122,0.1999969-0.2000122,0.1999969
			S326.0999756,201.4000092,326,201.4000092c-0.1000061,0-0.2999878,0-0.3999939-0.1000061s-0.2999878-0.1999969-0.5-0.1999969
			c-0.2000122-0.1000061-0.3999939-0.1999969-0.7000122-0.1999969c-0.2999878-0.1000061-0.6000061-0.1000061-0.8999939-0.1000061
			c-0.5,0-1,0.1000061-1.2999878,0.3000031s-0.5,0.5-0.5,0.8999939c0,0.1999969,0.1000061,0.3999939,0.2000122,0.6000061
			c0.1000061,0.1999969,0.3999939,0.3000031,0.6000061,0.3999939c0.2999878,0.1000061,0.6000061,0.1999969,0.8999939,0.3000031
			s0.7000122,0.1999969,1,0.3000031s0.7000122,0.3000031,1,0.3999939c0.2999878,0.1000061,0.6000061,0.3000031,0.8999939,0.6000061
			c0.2999878,0.1999969,0.5,0.5,0.6000061,0.8000031c0.2000122,0.3000031,0.2000122,0.6999969,0.2000122,1.1999969
			s-0.1000061,1-0.2999878,1.5c-0.2000122,0.5-0.5,0.8999939-0.8999939,1.1999969s-0.8999939,0.6000061-1.3999939,0.8000031
			s-1.2000122,0.3000031-1.8999939,0.3000031c-0.3999939,0-0.7999878,0-1.1000061-0.1000061
			c-0.3999939-0.1000061-0.7000122-0.1999969-1.1000061-0.3000031c-0.2999878-0.1000061-0.7000122-0.3000031-0.8999939-0.3999939
			c-0.2999878-0.1999969-0.5-0.3999939-0.7999878-0.5l0.6000061-1c0.1000061-0.1000061,0.2000122-0.1999969,0.2999878-0.3000031
			c0.1000061-0.1000061,0.2000122-0.1000061,0.3999939-0.1000061c0.2000122,0,0.2999878,0,0.5,0.1000061
			s0.2999878,0.1999969,0.5,0.3000031s0.3999939,0.1999969,0.7000122,0.3000031
			c0.2999878,0.1000061,0.6000061,0.1000061,1,0.1000061c0.2999878,0,0.6000061,0,0.7999878-0.1000061
			c0.2000122-0.1000061,0.3999939-0.1999969,0.6000061-0.3000031c0.1000061-0.1000061,0.2999878-0.3000031,0.2999878-0.3999939
			c0.1000061-0.1999969,0.1000061-0.3000031,0.1000061-0.5c0-0.3000031-0.1000061-0.5-0.2000122-0.6000061
			c-0.2000122-0.1999969-0.3999939-0.3000031-0.6000061-0.3999939c-0.2999878-0.1000061-0.6000061-0.1999969-0.8999939-0.3000031
			s-0.7000122-0.1999969-1-0.3000031s-0.7000122-0.3000031-1-0.3999939
			c-0.2999878-0.1000061-0.6000061-0.3999939-0.8999939-0.6000061s-0.5-0.5-0.6000061-0.8999939
			s-0.2000122-0.8000031-0.2000122-1.3000031s0.1000061-0.8999939,0.2999878-1.3000031
			c0.2000122-0.3999939,0.5-0.8000031,0.7999878-1.1000061C320.6000061,199.6999969,321,199.3999939,321.5,199.3000031
			S322.6000061,199,323.2999878,199c0.7999878,0,1.5,0.1000061,2.1000061,0.3999939
			C326,199.6999969,326.6000061,200,327,200.3999939L326.5,201.1000061z"/>
	</g>
	<g>
		<path d="M489.2999878,160.3999939c-0.1000061,0.1999969-0.2000122,0.3000031-0.2999878,0.3000031
			c-0.1000061,0.1000061-0.2000122,0.1000061-0.3999939,0.1000061c-0.1000061,0-0.2999878-0.1000061-0.5-0.1999969
			s-0.3999939-0.1999969-0.6000061-0.3999939c-0.2000122-0.1000061-0.5-0.3000031-0.8999939-0.3999939
			c-0.2999878-0.1000061-0.7000122-0.1999969-1.2000122-0.1999969c-0.3999939,0-0.7999878,0-1.1000061,0.1000061
			C484,159.8000336,483.6999817,159.9000244,483.5,160.1000214c-0.2000122,0.1999969-0.3999939,0.3999939-0.5,0.6000061
			c-0.1000061,0.1999969-0.2000122,0.5-0.2000122,0.8000031c0,0.3999939,0.1000061,0.6999969,0.2999878,0.8999939
			c0.2000122,0.1999969,0.5,0.5,0.7999878,0.6000061c0.2999878,0.1999969,0.7000122,0.3000031,1.2000122,0.5
			s0.8999939,0.3000031,1.2999878,0.3999939c0.5,0.1999969,0.8999939,0.3000031,1.2999878,0.6000061
			c0.3999939,0.1999969,0.7999878,0.5,1.2000122,0.8000031c0.2999878,0.3000031,0.6000061,0.6999969,0.7999878,1.1999969
			s0.2999878,1,0.2999878,1.6999969s-0.1000061,1.3999939-0.3999939,2s-0.6000061,1.1999969-1.1000061,1.6000061
			c-0.5,0.5-1.1000061,0.8000031-1.7000122,1.1000061c-0.7000122,0.3000031-1.5,0.3999939-2.2999878,0.3999939
			c-0.5,0-1,0-1.5-0.1000061s-1-0.1999969-1.3999939-0.3999939c-0.5-0.1999969-0.8999939-0.3999939-1.2999878-0.6999969
			s-0.7000122-0.5-1.1000061-0.8999939l0.8999939-1.3999939c0.1000061-0.1000061,0.2000122-0.1999969,0.2999878-0.3000031
			s0.2000122-0.1000061,0.3999939-0.1000061c0.2000122,0,0.3999939,0.1000061,0.6000061,0.1999969
			c0.2000122,0.1999969,0.5,0.3000031,0.7999878,0.5s0.6000061,0.3999939,1,0.5
			c0.3999939,0.1999969,0.8999939,0.1999969,1.3999939,0.1999969c0.7999878,0,1.5-0.1999969,2-0.6000061
			s0.7000122-1,0.7000122-1.6999969c0-0.3999939-0.1000061-0.8000031-0.2999878-1c-0.2000122-0.3000031-0.5-0.5-0.7999878-0.6999969
			s-0.7000122-0.3000031-1.2000122-0.5s-0.8999939-0.3000031-1.2999878-0.3999939c-0.5-0.1000061-0.8999939-0.3000031-1.2999878-0.5
			s-0.7999878-0.5-1.2000122-0.8000031c-0.2999878-0.3000031-0.6000061-0.6999969-0.7999878-1.1999969
			s-0.2999878-1.1000061-0.2999878-1.8000031c0-0.6000061,0.1000061-1.1000061,0.2999878-1.6999969
			c0.2000122-0.6000061,0.6000061-1,1-1.5c0.3999939-0.3999939,1-0.8000031,1.6000061-1
			c0.6000061-0.3000031,1.3999939-0.3999939,2.2000122-0.3999939c0.8999939,0,1.7999878,0.1000061,2.6000061,0.3999939
			c0.7999878,0.3000031,1.5,0.6999969,2,1.1999969L489.2999878,160.3999939z"/>
		<path d="M496.2000122,173.6000061c-1,0-1.7000122-0.3000031-2.2999878-0.8000031
			c-0.5-0.6000061-0.7999878-1.3000031-0.7999878-2.3000031v-6.3000031H492c-0.1000061,0-0.2999878,0-0.3999939-0.1000061
			s-0.2000122-0.1999969-0.2000122-0.3999939v-1.1000061l1.7999878-0.3000031l0.6000061-3.1000061
			c0-0.1000061,0.1000061-0.3000031,0.2000122-0.3000031c0.1000061-0.1000061,0.2000122-0.1000061,0.3999939-0.1000061h1.3999939
			v3.6000061h3v1.8999939h-3v6.1000061c0,0.3999939,0.1000061,0.6000061,0.2999878,0.8000031
			c0.2000122,0.1999969,0.3999939,0.3000031,0.7000122,0.3000031c0.2000122,0,0.2999878,0,0.3999939-0.1000061
			c0.1000061,0,0.2000122-0.1000061,0.2999878-0.1000061c0.1000061,0,0.2000122-0.1000061,0.2000122-0.1000061
			c0.1000061,0,0.1000061-0.1000061,0.2000122-0.1000061s0.1000061,0,0.2000122,0.1000061
			c0.1000061,0,0.1000061,0.1000061,0.2000122,0.1999969l0.7999878,1.3000031
			c-0.3999939,0.3000031-0.8999939,0.6000061-1.3999939,0.6999969
			C497.2999878,173.5,496.7000122,173.6000061,496.2000122,173.6000061z"/>
		<path d="M505.7999878,161.8999939c0.7999878,0,1.6000061,0.1000061,2.2999878,0.3999939
			c0.7000122,0.3000031,1.2999878,0.6999969,1.7999878,1.1999969s0.8999939,1.1000061,1.1000061,1.8000031
			c0.2999878,0.6999969,0.3999939,1.5,0.3999939,2.3999939s-0.1000061,1.6999969-0.3999939,2.3999939
			s-0.6000061,1.3000031-1.1000061,1.8000031s-1.1000061,0.8999939-1.7999878,1.1999969
			c-0.7000122,0.3000031-1.3999939,0.3999939-2.2999878,0.3999939s-1.6000061-0.1000061-2.2999878-0.3999939
			c-0.7000122-0.3000031-1.2999878-0.6999969-1.7999878-1.1999969s-0.8999939-1.1000061-1.1000061-1.8000031
			c-0.2999878-0.6999969-0.3999939-1.5-0.3999939-2.3999939s0.1000061-1.6999969,0.3999939-2.3999939
			s0.6000061-1.3000031,1.1000061-1.8000031s1.1000061-0.8999939,1.7999878-1.1999969
			C504.2000122,162.1000061,505,161.8999939,505.7999878,161.8999939z M505.7999878,171.5
			c0.8999939,0,1.6000061-0.3000031,2.1000061-0.8999939c0.5-0.6000061,0.7000122-1.6000061,0.7000122-2.8000031
			S508.3999939,165.6999969,507.8999939,165c-0.5-0.6000061-1.1000061-1-2.1000061-1s-1.7000122,0.3000031-2.1000061,1
			c-0.5,0.6000061-0.7000122,1.6000061-0.7000122,2.8000031s0.2000122,2.1000061,0.7000122,2.8000031
			C504.1000061,171.1000061,504.8999939,171.5,505.7999878,171.5z"/>
		<path d="M521.4000244,164.5c-0.0999756,0.1000061-0.2000122,0.1999969-0.2000122,0.1999969
			c-0.0999756,0.1000061-0.2000122,0.1000061-0.2999878,0.1000061s-0.2999878,0-0.4000244-0.1000061
			c-0.0999756-0.1000061-0.2999878-0.1999969-0.5-0.3000031s-0.4000244-0.1999969-0.7000122-0.3000031
			s-0.5999756-0.1000061-0.9000244-0.1000061c-0.5,0-0.9000244,0.1000061-1.2999878,0.3000031
			c-0.4000244,0.1999969-0.7000122,0.3999939-0.9000244,0.6999969s-0.4000244,0.6999969-0.5,1.1999969
			s-0.2000122,1-0.2000122,1.6000061s0.0999756,1.1000061,0.2000122,1.6000061s0.2999878,0.8999939,0.5999756,1.1999969
			s0.5,0.6000061,0.9000244,0.6999969c0.4000244,0.1000061,0.7000122,0.1999969,1.2000122,0.1999969
			s0.7999878-0.1000061,1-0.1999969c0.2000122-0.1000061,0.5-0.1999969,0.7000122-0.3999939
			c0.2000122-0.1000061,0.2999878-0.1999969,0.5-0.3999939c0.0999756-0.1000061,0.2999878-0.1999969,0.5-0.1999969
			s0.4000244,0.1000061,0.5,0.3000031l0.7999878,1c-0.2999878,0.3999939-0.5999756,0.6000061-1,0.8999939
			s-0.7000122,0.3999939-1.0999756,0.6000061c-0.4000244,0.1000061-0.7999878,0.1999969-1.2000122,0.3000031
			s-0.7999878,0.1000061-1.2000122,0.1000061c-0.7000122,0-1.4000244-0.1000061-2-0.3999939
			c-0.5999756-0.3000031-1.2000122-0.6000061-1.5999756-1.1000061c-0.5-0.5-0.7999878-1.1000061-1.0999756-1.8000031
			s-0.4000244-1.5-0.4000244-2.5c0-0.8000031,0.0999756-1.6000061,0.4000244-2.3000031
			c0.2000122-0.6999969,0.5999756-1.3000031,1.0999756-1.8000031s1-0.8999939,1.7000122-1.1999969
			s1.5-0.3999939,2.4000244-0.3999939c0.7999878,0,1.5999756,0.1000061,2.2000122,0.3999939
			c0.5999756,0.3000031,1.2000122,0.6999969,1.7000122,1.1999969L521.4000244,164.5z"/>
		<path d="M526.7000122,157v9.3999939h0.5c0.2000122,0,0.2999878,0,0.4000244-0.1000061
			c0.0999756-0.1000061,0.2000122-0.1000061,0.2999878-0.3000031l2.7999878-3.5
			c0.0999756-0.1000061,0.2999878-0.3000031,0.4000244-0.3000031c0.0999756-0.1000061,0.2999878-0.1000061,0.5-0.1000061h2.5
			l-3.5,4.1999969c-0.0999756,0.1999969-0.2999878,0.3000031-0.4000244,0.3999939
			c-0.0999756,0.1000061-0.2999878,0.1999969-0.4000244,0.3000031c0.2000122,0.1000061,0.2999878,0.1999969,0.4000244,0.3999939
			c0.0999756,0.1000061,0.2000122,0.3000031,0.4000244,0.5l3.7999878,5.5H532c-0.2000122,0-0.4000244,0-0.5-0.1000061
			s-0.2999878-0.1999969-0.4000244-0.3999939l-2.9000244-4.3000031c-0.0999756-0.1999969-0.2000122-0.3000031-0.2999878-0.3000031
			c-0.0999756-0.1000061-0.2999878-0.1000061-0.5-0.1000061h-0.5999756v5.1999969H524V157H526.7000122L526.7000122,157z"/>
		<path d="M542.7999878,164.3000031C542.7000122,164.4000092,542.5999756,164.5,542.5999756,164.5
			c-0.0999756,0-0.2000122,0.1000061-0.2999878,0.1000061s-0.2999878,0-0.4000244-0.1000061s-0.2999878-0.1999969-0.5-0.1999969
			c-0.2000122-0.1000061-0.4000244-0.1999969-0.7000122-0.1999969C540.3999634,164,540.0999756,164,539.7999268,164
			c-0.5,0-1,0.1000061-1.2999878,0.3000031s-0.5,0.5-0.5,0.8999939c0,0.1999969,0.0999756,0.3999939,0.2000122,0.6000061
			c0.2000122,0.1999969,0.4000244,0.3000031,0.5999756,0.3999939c0.2999878,0.1000061,0.5999756,0.1999969,0.9000244,0.3000031
			c0.2999878,0.1000061,0.7000122,0.1999969,1,0.3000031s0.7000122,0.3000031,1,0.3999939
			c0.2999878,0.1000061,0.5999756,0.3000031,0.9000244,0.6000061c0.2999878,0.1999969,0.5,0.5,0.5999756,0.8000031
			c0.2000122,0.3000031,0.2000122,0.6999969,0.2000122,1.1999969s-0.0999756,1-0.2999878,1.5s-0.5,0.8999939-0.9000244,1.1999969
			s-0.9000244,0.6000061-1.4000244,0.8000031c-0.5999756,0.1999969-1.2000122,0.3000031-1.9000244,0.3000031
			c-0.4000244,0-0.7999878,0-1.0999756-0.1000061c-0.4000244-0.1000061-0.7000122-0.1999969-1.0999756-0.3000031
			c-0.2999878-0.1000061-0.7000122-0.3000031-0.9000244-0.3999939c-0.2999878-0.1999969-0.5-0.3999939-0.7999878-0.5l0.5999756-1
			c0.0999756-0.1000061,0.2000122-0.1999969,0.2999878-0.3000031s0.2000122-0.1000061,0.4000244-0.1000061
			s0.2999878,0,0.5,0.1000061s0.2999878,0.1999969,0.5,0.3000031s0.4000244,0.1999969,0.7000122,0.3000031
			s0.5999756,0.1000061,1,0.1000061c0.2999878,0,0.5999756,0,0.7999878-0.1000061s0.4000244-0.1999969,0.5999756-0.3000031
			c0.0999756-0.1000061,0.2999878-0.3000031,0.2999878-0.3999939c0-0.1000061,0.0999756-0.3000031,0.0999756-0.5
			c0-0.3000031-0.0999756-0.5-0.2000122-0.6000061c-0.2000122-0.1999969-0.4000244-0.3000031-0.5999756-0.3999939
			c-0.2999878-0.1000061-0.5999756-0.1999969-0.9000244-0.3000031c-0.2999878-0.1000061-0.7000122-0.1999969-1-0.3000031
			s-0.7000122-0.3000031-1-0.3999939s-0.5999756-0.3999939-0.9000244-0.6000061c-0.2999878-0.1999969-0.5-0.5-0.5999756-0.8999939
			c-0.2000122-0.3999939-0.2000122-0.8000031-0.2000122-1.3000031s0.0999756-0.8999939,0.2999878-1.3000031
			s0.5-0.8000031,0.7999878-1.1000061c0.4000244-0.3000031,0.7999878-0.6000061,1.2999878-0.6999969
			c0.5-0.1000061,1.0999756-0.3000031,1.7999878-0.3000031c0.7999878,0,1.5,0.1000061,2.0999756,0.3999939
			s1.2000122,0.6000061,1.5999756,1L542.7999878,164.3000031z"/>
	</g>
	<path class="st0" d="M208.5,189.1999969c-0.3999939,0-0.8000031-0.1000061-1.1000061-0.3000031l-37.5-21.6999969
		c-0.6999969-0.3999939-1.1000061-1.1000061-1.1000061-1.8999939c0-0.8000031,0.3999939-1.5,1.1000061-1.8999939l37.5-21.6999969
		c0.3000031-0.1999969,0.6999969-0.3000031,1.1000061-0.3000031c0.3999939,0,0.8000031,0.1000061,1.1000061,0.3000031
		c0.6999969,0.3999939,1.1000061,1.1000061,1.1000061,1.8999939v43.3000031c0,0.8000031-0.3999939,1.5-1.1000061,1.8999939
		C209.3000031,189.1000061,208.8999939,189.1999969,208.5,189.1999969z"/>
	<g>
		<path class="st0" d="M601,167.1999969c0.4000244,0,0.7999878-0.1000061,1.0999756-0.3000031l37.5-21.6999969
			c0.7000122-0.3999939,1.0999756-1.1000061,1.0999756-1.8999939c0-0.8000031-0.4000244-1.5-1.0999756-1.8999939l-37.5-21.6999969
			c-0.2999878-0.1999969-0.7000122-0.3000031-1.0999756-0.3000031c-0.4000244,0-0.7999878,0.0999985-1.0999756,0.3000031
			c-0.7000122,0.4000015-1.0999756,1.0999985-1.0999756,1.9000015v43.2999954c0,0.8000031,0.4000244,1.5,1.0999756,1.8999939
			C600.2000122,167.1000061,600.5999756,167.1999969,601,167.1999969z"/>
		<path class="st0" d="M638.5,205.1999969c-0.4000244,0-0.7999878-0.1000061-1.0999756-0.3000031l-37.5-21.6999969
			c-0.7000122-0.3999939-1.0999756-1.1000061-1.0999756-1.8999939c0-0.8000031,0.4000244-1.5,1.0999756-1.8999939l37.5-21.6999969
			c0.2999878-0.1999969,0.7000122-0.3000031,1.0999756-0.3000031c0.4000244,0,0.7999878,0.1000061,1.0999756,0.3000031
			c0.7000122,0.3999939,1.0999756,1.1000061,1.0999756,1.8999939v43.3000031c0,0.8000031-0.4000244,1.5-1.0999756,1.8999939
			C639.2999878,205.1000061,638.9000244,205.1999969,638.5,205.1999969z"/>
	</g>
	<g>
		<path class="st0" d="M386,167.1999969c0.3999939,0,0.7999878-0.1000061,1.1000061-0.3000031l37.5-21.6999969
			c0.7000122-0.3999939,1.1000061-1.1000061,1.1000061-1.8999939c0-0.8000031-0.3999939-1.5-1.1000061-1.8999939l-37.5-21.6999969
			c-0.2999878-0.1999969-0.7000122-0.3000031-1.1000061-0.3000031s-0.7999878,0.0999985-1.1000061,0.3000031
			c-0.7000122,0.4000015-1.1000061,1.0999985-1.1000061,1.9000015v43.2999954c0,0.8000031,0.3999939,1.5,1.1000061,1.8999939
			C385.2000122,167.1000061,385.6000061,167.1999969,386,167.1999969z"/>
		<path class="st0" d="M423.5,205.1999969c-0.3999939,0-0.7999878-0.1000061-1.1000061-0.3000031l-37.5-21.6999969
			c-0.7000122-0.3999939-1.1000061-1.1000061-1.1000061-1.8999939c0-0.8000031,0.3999939-1.5,1.1000061-1.8999939l37.5-21.6999969
			c0.2999878-0.1999969,0.7000122-0.3000031,1.1000061-0.3000031s0.7999878,0.1000061,1.1000061,0.3000031
			c0.7000122,0.3999939,1.1000061,1.1000061,1.1000061,1.8999939v43.3000031c0,0.8000031-0.3999939,1.5-1.1000061,1.8999939
			C424.2999878,205.1000061,423.8999939,205.1999969,423.5,205.1999969z"/>
	</g>
</g>
<g>
	<path d="M389.353363,11.5202141v6.7797852h-3.2275391V0.9479485h5.2919922c1.1835938,0,2.1972656,0.1220703,3.0419922,0.3662109
		c0.84375,0.2441406,1.5361328,0.5859375,2.0751953,1.0258789c0.5400391,0.4399414,0.9365234,0.9658203,1.1884766,1.578125
		c0.2519531,0.6118164,0.3779297,1.2861328,0.3779297,2.0219727c0,0.5839844-0.0859375,1.1357422-0.2578125,1.6557617
		s-0.4199219,0.9921875-0.7441406,1.4160156c-0.3242188,0.4243164-0.7236328,0.7963867-1.2001953,1.1162109
		c-0.4755859,0.3198242-1.0175781,0.5756836-1.6259766,0.7680664c0.4082031,0.2319336,0.7597656,0.5639648,1.0566406,0.9956055
		l4.34375,6.4082031h-2.9042969c-0.2802734,0-0.5175781-0.0556641-0.7138672-0.1679688
		c-0.1962891-0.1118164-0.3623047-0.2719727-0.4980469-0.4799805l-3.6484375-5.5561523
		c-0.1357422-0.2080078-0.2861328-0.355957-0.4492188-0.4438477c-0.1640625-0.0878906-0.40625-0.1318359-0.7265625-0.1318359
		H389.353363z M389.353363,9.2038078h2.015625c0.6083984,0,1.1386719-0.0756836,1.5908203-0.2280273
		c0.4511719-0.1518555,0.8232422-0.3618164,1.1152344-0.6298828s0.5107422-0.5859375,0.6542969-0.9541016
		c0.1445312-0.3676758,0.2158203-0.7719727,0.2158203-1.2119141c0-0.8798828-0.2900391-1.5556641-0.8701172-2.027832
		s-1.4658203-0.7080078-2.6572266-0.7080078h-2.0644531V9.2038078z"/>
	<path d="M406.657074,5.796093c0.7763672,0,1.4902344,0.1240234,2.1425781,0.3720703
		c0.6513672,0.2480469,1.2138672,0.6098633,1.6855469,1.0859375s0.8398438,1.0600586,1.1035156,1.7519531
		c0.2646484,0.6918945,0.3964844,1.4819336,0.3964844,2.3701172c0,0.2241211-0.0097656,0.409668-0.0302734,0.5576172
		c-0.0195312,0.1484375-0.0556641,0.2641602-0.1074219,0.3481445c-0.0527344,0.0839844-0.1220703,0.144043-0.2099609,0.1801758
		c-0.0888672,0.0361328-0.2001953,0.0537109-0.3359375,0.0537109h-7.6083984
		c0.0878906,1.2641602,0.4277344,2.1923828,1.0195312,2.7841797c0.5927734,0.5922852,1.3759766,0.8881836,2.3525391,0.8881836
		c0.4794922,0,0.8935547-0.0561523,1.2421875-0.1679688c0.3476562-0.1123047,0.6513672-0.2363281,0.9121094-0.3720703
		c0.2597656-0.1362305,0.4873047-0.2602539,0.6835938-0.3720703s0.3857422-0.1679688,0.5703125-0.1679688
		c0.1201172,0,0.2236328,0.0239258,0.3115234,0.0717773c0.0878906,0.0483398,0.1640625,0.1162109,0.2285156,0.2041016
		l0.8632812,1.0800781c-0.328125,0.3837891-0.6953125,0.7060547-1.1035156,0.9658203
		c-0.4082031,0.2602539-0.8339844,0.4682617-1.2783203,0.6240234c-0.4433594,0.15625-0.8955078,0.2661133-1.3554688,0.3300781
		s-0.90625,0.0961914-1.3378906,0.0961914c-0.8564453,0-1.6523438-0.1420898-2.3886719-0.4262695
		c-0.7363281-0.2836914-1.3759766-0.7036133-1.9199219-1.2597656s-0.9716797-1.2441406-1.2841797-2.0639648
		c-0.3115234-0.8203125-0.4677734-1.7700195-0.4677734-2.8500977c0-0.8398438,0.1357422-1.6298828,0.4082031-2.3701172
		c0.2714844-0.7397461,0.6621094-1.3837891,1.1699219-1.9321289c0.5078125-0.5478516,1.1279297-0.9819336,1.8603516-1.3017578
		C404.9109802,5.9562492,405.7371521,5.796093,406.657074,5.796093z M406.7176208,7.9201164
		c-0.8642578,0-1.5410156,0.2441406-2.0283203,0.7319336c-0.4882812,0.487793-0.7998047,1.1801758-0.9365234,2.0761719h5.5683594
		c0-0.3842773-0.0517578-0.7460938-0.15625-1.0864258c-0.1035156-0.3398438-0.2636719-0.6376953-0.4794922-0.8935547
		c-0.2158203-0.2563477-0.4882812-0.4580078-0.8164062-0.6064453C407.540863,7.9938469,407.157074,7.9201164,406.7176208,7.9201164z
		 M410.8816833,0.7560539l-2.9648438,3.1318359c-0.1513672,0.1601562-0.2978516,0.2700195-0.4375,0.3300781
		c-0.140625,0.0600586-0.3222656,0.0898438-0.5458984,0.0898438h-1.7763672l1.7041016-2.9160156
		c0.1201172-0.2075195,0.2597656-0.3657227,0.4199219-0.4736328c0.1601562-0.1083984,0.4003906-0.1621094,0.7197266-0.1621094
		H410.8816833z"/>
	<path d="M423.0496521,8.5919914c-0.0888672,0.1123047-0.1748047,0.2001953-0.2587891,0.2641602
		s-0.2060547,0.0957031-0.3652344,0.0957031c-0.1523438,0-0.3007812-0.0458984-0.4443359-0.1376953
		s-0.3164062-0.1962891-0.515625-0.3120117c-0.2001953-0.1162109-0.4384766-0.2202148-0.7138672-0.3120117
		c-0.2763672-0.0917969-0.6181641-0.1381836-1.0263672-0.1381836c-0.5205078,0-0.9765625,0.0942383-1.3681641,0.2822266
		s-0.7177734,0.4580078-0.9775391,0.8100586c-0.2607422,0.3520508-0.4541016,0.777832-0.5820312,1.277832
		c-0.1289062,0.5-0.1923828,1.065918-0.1923828,1.6977539c0,0.65625,0.0703125,1.2402344,0.2099609,1.7519531
		c0.1396484,0.512207,0.3417969,0.9423828,0.6064453,1.2900391c0.2636719,0.3481445,0.5830078,0.6123047,0.9599609,0.7919922
		c0.3759766,0.1801758,0.7998047,0.2700195,1.2714844,0.2700195s0.8544922-0.0576172,1.1464844-0.1738281
		c0.2919922-0.1157227,0.5380859-0.2441406,0.7373047-0.3837891c0.2001953-0.1401367,0.3740234-0.2680664,0.5224609-0.3842773
		c0.1474609-0.1157227,0.3134766-0.1738281,0.4980469-0.1738281c0.2402344,0,0.4199219,0.0917969,0.5400391,0.2758789
		l0.8515625,1.0800781c-0.328125,0.3837891-0.6835938,0.7060547-1.0673828,0.9658203
		c-0.3847656,0.2602539-0.7822266,0.4682617-1.1943359,0.6240234c-0.4121094,0.15625-0.8378906,0.2661133-1.2783203,0.3300781
		c-0.4394531,0.0639648-0.8759766,0.0961914-1.3076172,0.0961914c-0.7597656,0-1.4765625-0.1420898-2.1484375-0.4262695
		c-0.671875-0.2836914-1.2578125-0.6977539-1.7578125-1.2416992s-0.8955078-1.2099609-1.1875-1.9980469
		s-0.4384766-1.6860352-0.4384766-2.6943359c0-0.9038086,0.1298828-1.7416992,0.390625-2.5136719
		c0.2597656-0.7719727,0.6416016-1.4399414,1.1455078-2.0043945c0.5039062-0.5639648,1.1279297-1.0058594,1.8720703-1.3256836
		s1.5996094-0.4799805,2.5683594-0.4799805c0.9199219,0,1.7255859,0.1479492,2.4179688,0.4438477
		c0.6914062,0.2958984,1.3134766,0.7202148,1.8652344,1.2719727L423.0496521,8.5919914z"/>
	<path d="M430.9324646,5.796093c0.7763672,0,1.4902344,0.1240234,2.1425781,0.3720703
		c0.6513672,0.2480469,1.2138672,0.6098633,1.6855469,1.0859375s0.8398438,1.0600586,1.1035156,1.7519531
		c0.2646484,0.6918945,0.3964844,1.4819336,0.3964844,2.3701172c0,0.2241211-0.0097656,0.409668-0.0302734,0.5576172
		c-0.0195312,0.1484375-0.0556641,0.2641602-0.1074219,0.3481445c-0.0527344,0.0839844-0.1220703,0.144043-0.2099609,0.1801758
		c-0.0888672,0.0361328-0.2001953,0.0537109-0.3359375,0.0537109h-7.6083984
		c0.0878906,1.2641602,0.4277344,2.1923828,1.0195312,2.7841797c0.5927734,0.5922852,1.3759766,0.8881836,2.3525391,0.8881836
		c0.4794922,0,0.8935547-0.0561523,1.2421875-0.1679688c0.3476562-0.1123047,0.6513672-0.2363281,0.9121094-0.3720703
		c0.2597656-0.1362305,0.4873047-0.2602539,0.6835938-0.3720703s0.3857422-0.1679688,0.5703125-0.1679688
		c0.1201172,0,0.2236328,0.0239258,0.3115234,0.0717773c0.0878906,0.0483398,0.1640625,0.1162109,0.2285156,0.2041016
		l0.8632812,1.0800781c-0.328125,0.3837891-0.6953125,0.7060547-1.1035156,0.9658203
		c-0.4082031,0.2602539-0.8339844,0.4682617-1.2783203,0.6240234c-0.4433594,0.15625-0.8955078,0.2661133-1.3554688,0.3300781
		s-0.90625,0.0961914-1.3378906,0.0961914c-0.8564453,0-1.6523438-0.1420898-2.3886719-0.4262695
		c-0.7363281-0.2836914-1.3759766-0.7036133-1.9199219-1.2597656s-0.9716797-1.2441406-1.2841797-2.0639648
		c-0.3115234-0.8203125-0.4677734-1.7700195-0.4677734-2.8500977c0-0.8398438,0.1357422-1.6298828,0.4082031-2.3701172
		c0.2714844-0.7397461,0.6621094-1.3837891,1.1699219-1.9321289c0.5078125-0.5478516,1.1279297-0.9819336,1.8603516-1.3017578
		C429.1863708,5.9562492,430.0125427,5.796093,430.9324646,5.796093z M430.9930115,7.9201164
		c-0.8642578,0-1.5410156,0.2441406-2.0283203,0.7319336c-0.4882812,0.487793-0.7998047,1.1801758-0.9365234,2.0761719h5.5683594
		c0-0.3842773-0.0517578-0.7460938-0.15625-1.0864258c-0.1035156-0.3398438-0.2636719-0.6376953-0.4794922-0.8935547
		c-0.2158203-0.2563477-0.4882812-0.4580078-0.8164062-0.6064453
		C431.8162537,7.9938469,431.4324646,7.9201164,430.9930115,7.9201164z"/>
	<path d="M438.672699,22.3200188V5.9879875h1.8125c0.1914062,0,0.3554688,0.0439453,0.4912109,0.1318359
		c0.1367188,0.0883789,0.2246094,0.2241211,0.2646484,0.4082031l0.2392578,1.1401367
		c0.4960938-0.5678711,1.0664062-1.027832,1.7099609-1.3803711c0.6445312-0.3515625,1.3984375-0.527832,2.2626953-0.527832
		c0.671875,0,1.2851562,0.1401367,1.8417969,0.4199219c0.5556641,0.2802734,1.0361328,0.6860352,1.4404297,1.2182617
		c0.4033203,0.5317383,0.7158203,1.1879883,0.9355469,1.9677734c0.2197266,0.7802734,0.3300781,1.6743164,0.3300781,2.6821289
		c0,0.9199219-0.1240234,1.7719727-0.3720703,2.5561523c-0.2480469,0.7836914-0.6025391,1.4638672-1.0625,2.0400391
		c-0.4599609,0.5756836-1.015625,1.0258789-1.6679688,1.3496094c-0.6513672,0.3242188-1.3818359,0.4863281-2.1894531,0.4863281
		c-0.6962891,0-1.2861328-0.1064453-1.7705078-0.3183594c-0.4833984-0.2119141-0.9179688-0.5058594-1.3017578-0.8818359v5.0400391
		H438.672699z M444.4324646,8.0998039c-0.6162109,0-1.1416016,0.1303711-1.578125,0.3901367
		c-0.4355469,0.2602539-0.8417969,0.6259766-1.2177734,1.0981445v5.5200195
		c0.3359375,0.4160156,0.7021484,0.7060547,1.0986328,0.8701172c0.3955078,0.1640625,0.8212891,0.2456055,1.2773438,0.2456055
		c0.4482422,0,0.8544922-0.0839844,1.2177734-0.2519531c0.3642578-0.1679688,0.6728516-0.4238281,0.9248047-0.7680664
		c0.2519531-0.34375,0.4453125-0.777832,0.5820312-1.3017578c0.1357422-0.5239258,0.203125-1.1420898,0.203125-1.8540039
		c0-0.7202148-0.0576172-1.3300781-0.1738281-1.8300781s-0.28125-0.9057617-0.4980469-1.2177734
		c-0.2158203-0.3120117-0.4775391-0.5400391-0.7861328-0.684082C445.1746521,8.1720695,444.8250427,8.0998039,444.4324646,8.0998039
		z"/>
	<path d="M456.2879333,18.4918938c-1.0644531,0-1.8837891-0.3017578-2.4599609-0.9057617s-0.8642578-1.4379883-0.8642578-2.5019531
		V8.2082024h-1.2480469c-0.1601562,0-0.2978516-0.0522461-0.4140625-0.15625
		c-0.1152344-0.1040039-0.1738281-0.2597656-0.1738281-0.4677734V6.4079094l1.9804688-0.3237305l0.6240234-3.3603516
		c0.03125-0.159668,0.1054688-0.2836914,0.2216797-0.3720703c0.1162109-0.0878906,0.2617188-0.1318359,0.4384766-0.1318359
		h1.5351562v3.8759766h3.2402344v2.1123047h-3.2402344v6.671875c0,0.3837891,0.0966797,0.684082,0.2880859,0.8999023
		c0.1923828,0.2158203,0.4482422,0.3242188,0.7685547,0.3242188c0.1835938,0,0.3378906-0.0219727,0.4619141-0.0664062
		c0.1240234-0.043457,0.2314453-0.0898438,0.3242188-0.1376953c0.0917969-0.0483398,0.1738281-0.0942383,0.2460938-0.1381836
		c0.0712891-0.0439453,0.1435547-0.065918,0.2158203-0.065918c0.0878906,0,0.1601562,0.0219727,0.2158203,0.065918
		s0.1162109,0.1103516,0.1796875,0.1982422l0.8886719,1.4399414c-0.4326172,0.3598633-0.9287109,0.6318359-1.4882812,0.815918
		C457.4676208,18.4000969,456.8875427,18.4918938,456.2879333,18.4918938z"/>
	<path d="M465.1316833,2.4000969c0,0.2558594-0.0517578,0.4960938-0.1552734,0.7197266
		c-0.1044922,0.2241211-0.2421875,0.4204102-0.4140625,0.5883789c-0.1728516,0.1679688-0.3740234,0.3017578-0.6064453,0.4018555
		s-0.4794922,0.1499023-0.7441406,0.1499023c-0.2558594,0-0.4980469-0.0498047-0.7255859-0.1499023
		c-0.2285156-0.1000977-0.4257812-0.2338867-0.59375-0.4018555s-0.3027344-0.3642578-0.4023438-0.5883789
		c-0.1005859-0.2236328-0.1503906-0.4638672-0.1503906-0.7197266c0-0.2641602,0.0498047-0.512207,0.1503906-0.7441406
		c0.0996094-0.2319336,0.234375-0.4321289,0.4023438-0.6000977s0.3652344-0.3017578,0.59375-0.4018555
		c0.2275391-0.1000977,0.4697266-0.1499023,0.7255859-0.1499023c0.2646484,0,0.5117188,0.0498047,0.7441406,0.1499023
		s0.4335938,0.2338867,0.6064453,0.4018555c0.171875,0.1679688,0.3095703,0.3681641,0.4140625,0.6000977
		C465.0799255,1.8878899,465.1316833,2.1359367,465.1316833,2.4000969z M464.688324,5.9879875v12.3120117h-2.9638672V5.9879875
		H464.688324z"/>
	<path d="M473.2918396,5.796093c0.9199219,0,1.7539062,0.1479492,2.5019531,0.4438477s1.3857422,0.7163086,1.9140625,1.2602539
		s0.9365234,1.2080078,1.2246094,1.9916992c0.2871094,0.7841797,0.4316406,1.6601562,0.4316406,2.6279297
		c0,0.9760742-0.1445312,1.8564453-0.4316406,2.6401367c-0.2880859,0.7841797-0.6962891,1.4521484-1.2246094,2.0039062
		c-0.5283203,0.5522461-1.1660156,0.9760742-1.9140625,1.2719727s-1.5820312,0.4443359-2.5019531,0.4443359
		s-1.7558594-0.1484375-2.5078125-0.4443359s-1.3945312-0.7197266-1.9257812-1.2719727
		c-0.5322266-0.5517578-0.9443359-1.2197266-1.2363281-2.0039062c-0.2919922-0.7836914-0.4375-1.6640625-0.4375-2.6401367
		c0-0.9677734,0.1455078-1.84375,0.4375-2.6279297c0.2919922-0.7836914,0.7041016-1.4477539,1.2363281-1.9916992
		c0.53125-0.5439453,1.1738281-0.9643555,1.9257812-1.2602539S472.3719177,5.796093,473.2918396,5.796093z M473.2918396,16.1999016
		c1.0244141,0,1.7822266-0.34375,2.2744141-1.0317383s0.7373047-1.6962891,0.7373047-3.0239258
		c0-1.328125-0.2451172-2.340332-0.7373047-3.0361328c-0.4921875-0.6962891-1.25-1.0439453-2.2744141-1.0439453
		c-1.0400391,0-1.8076172,0.3500977-2.3037109,1.0498047c-0.4960938,0.7001953-0.7441406,1.7099609-0.7441406,3.0302734
		c0,1.3198242,0.2480469,2.3256836,0.7441406,3.0175781C471.4842224,15.8541985,472.2518005,16.1999016,473.2918396,16.1999016z"/>
	<path d="M481.6795349,18.2999992V5.9879875h1.8125c0.3837891,0,0.6357422,0.1801758,0.7558594,0.5400391l0.2041016,0.972168
		c0.2470703-0.2563477,0.5097656-0.4882812,0.7851562-0.6962891c0.2763672-0.2080078,0.5683594-0.3876953,0.8759766-0.5400391
		c0.3085938-0.1518555,0.6386719-0.2675781,0.9902344-0.3476562c0.3525391-0.0800781,0.7363281-0.1201172,1.1523438-0.1201172
		c0.671875,0,1.2675781,0.1137695,1.7880859,0.3417969c0.5195312,0.2280273,0.9541016,0.5483398,1.3017578,0.9599609
		c0.3476562,0.4121094,0.6123047,0.9042969,0.7919922,1.4760742c0.1796875,0.5722656,0.2695312,1.2021484,0.2695312,1.8901367
		v7.8359375h-2.9638672v-7.8359375c0-0.7519531-0.1738281-1.3339844-0.5214844-1.7460938
		c-0.3486328-0.4121094-0.8701172-0.6181641-1.5664062-0.6181641c-0.5117188,0-0.9921875,0.1162109-1.4394531,0.3481445
		c-0.4482422,0.2319336-0.8720703,0.5483398-1.2724609,0.9482422v8.9038086H481.6795349z"/>
	<path d="M502.6316833,8.3878899c-0.0800781,0.1279297-0.1640625,0.2182617-0.2519531,0.2700195
		c-0.0878906,0.0522461-0.2001953,0.078125-0.3359375,0.078125c-0.1435547,0-0.2978516-0.0400391-0.4619141-0.1201172
		c-0.1640625-0.0795898-0.3535156-0.1699219-0.5693359-0.2700195c-0.2167969-0.0996094-0.4628906-0.1899414-0.7382812-0.2700195
		c-0.2763672-0.0795898-0.6025391-0.1201172-0.9785156-0.1201172c-0.5839844,0-1.0439453,0.1245117-1.3798828,0.3720703
		c-0.3359375,0.2480469-0.5039062,0.5722656-0.5039062,0.972168c0,0.2641602,0.0859375,0.4858398,0.2578125,0.6660156
		s0.4003906,0.3378906,0.6845703,0.4741211c0.2832031,0.1362305,0.6054688,0.2578125,0.9658203,0.3657227
		s0.7275391,0.2260742,1.1035156,0.3540039c0.3759766,0.128418,0.7441406,0.2744141,1.1044922,0.4379883
		c0.3603516,0.1640625,0.6816406,0.3720703,0.9658203,0.6240234s0.5117188,0.5541992,0.6845703,0.90625
		c0.171875,0.3520508,0.2578125,0.7758789,0.2578125,1.2719727c0,0.5917969-0.1083984,1.1381836-0.3242188,1.6376953
		c-0.2158203,0.5004883-0.5322266,0.9321289-0.9482422,1.2963867c-0.4160156,0.3637695-0.9296875,0.6479492-1.5419922,0.8520508
		c-0.6123047,0.2036133-1.3134766,0.3056641-2.1054688,0.3056641c-0.4248047,0-0.8388672-0.0380859-1.2421875-0.1137695
		c-0.4042969-0.0761719-0.7919922-0.1821289-1.1640625-0.3183594c-0.3720703-0.1357422-0.7158203-0.2954102-1.0322266-0.4799805
		c-0.3164062-0.1835938-0.59375-0.3837891-0.8339844-0.5996094l0.6845703-1.128418
		c0.0878906-0.1357422,0.1914062-0.2397461,0.3115234-0.3115234c0.1201172-0.0722656,0.2714844-0.1083984,0.4560547-0.1083984
		c0.1835938,0,0.3574219,0.0522461,0.5214844,0.15625s0.3544922,0.2158203,0.5703125,0.3359375
		s0.4697266,0.2319336,0.7617188,0.3359375s0.6621094,0.15625,1.1103516,0.15625c0.3515625,0,0.6542969-0.0419922,0.90625-0.1259766
		c0.2519531-0.0844727,0.4599609-0.1943359,0.6240234-0.3300781c0.1640625-0.1362305,0.2832031-0.2939453,0.359375-0.4741211
		s0.1142578-0.3662109,0.1142578-0.5581055c0-0.2880859-0.0859375-0.5239258-0.2578125-0.7080078
		s-0.4003906-0.34375-0.6835938-0.4799805c-0.2841797-0.1357422-0.6083984-0.2578125-0.9726562-0.3657227
		c-0.3642578-0.1083984-0.7363281-0.2260742-1.1162109-0.3540039s-0.7519531-0.2783203-1.1152344-0.4501953
		c-0.3642578-0.171875-0.6884766-0.3901367-0.9726562-0.6538086c-0.2841797-0.2641602-0.5117188-0.5883789-0.6835938-0.972168
		c-0.171875-0.3842773-0.2578125-0.8481445-0.2578125-1.3920898c0-0.5039062,0.0996094-0.9838867,0.2998047-1.4399414
		s0.4941406-0.8540039,0.8818359-1.1938477c0.3876953-0.340332,0.8720703-0.6123047,1.4521484-0.8164062
		c0.5800781-0.2036133,1.25-0.3056641,2.0097656-0.3056641c0.8476562,0,1.6201172,0.1401367,2.3164062,0.4199219
		c0.6953125,0.2802734,1.2753906,0.6479492,1.7402344,1.1040039L502.6316833,8.3878899z"/>
	<path d="M506.8435974,18.336132c-0.0722656,0.1835938-0.1640625,0.34375-0.2763672,0.4799805
		c-0.1123047,0.1357422-0.2402344,0.25-0.3837891,0.3417969c-0.1445312,0.0917969-0.2958984,0.1621094-0.4560547,0.2099609
		c-0.1601562,0.0483398-0.3164062,0.0722656-0.4677734,0.0722656h-1.2480469l7.0078125-17.9282227
		c0.1357422-0.3359375,0.3320312-0.59375,0.5878906-0.7739258s0.5644836-0.2700195,0.9238586-0.2700195h1.2607422
		L506.8435974,18.336132z"/>
	<path d="M526.211792,0.9479485v2.5678711h-7.6923828v4.8120117h6.0605469v2.484375h-6.0605469v4.9077148h7.6923828v2.5800781
		h-10.9443359V0.9479485H526.211792z"/>
	<path d="M531.7557373,11.9518547l-4.0439453-5.9638672h2.8554688c0.2167969,0,0.3759766,0.0297852,0.4804688,0.0898438
		c0.1035156,0.0600586,0.1962891,0.1582031,0.2763672,0.2939453l2.5800781,4.1162109
		c0.0390625-0.1357422,0.0898438-0.2719727,0.1494141-0.4082031c0.0605469-0.1357422,0.1337891-0.2714844,0.2216797-0.4077148
		l2.0761719-3.2402344c0.0966797-0.1518555,0.1962891-0.2636719,0.3007812-0.3359375
		c0.1035156-0.0717773,0.2314453-0.1079102,0.3837891-0.1079102h2.7236328l-4.0556641,5.8320312l4.2236328,6.4799805h-2.8554688
		c-0.2167969,0-0.390625-0.0556641-0.5224609-0.1679688c-0.1318359-0.1118164-0.2421875-0.2402344-0.3300781-0.3837891
		l-2.6162109-4.2841797c-0.0712891,0.2880859-0.171875,0.527832-0.2998047,0.7197266l-2.3037109,3.5644531
		c-0.0878906,0.1357422-0.1962891,0.2617188-0.3242188,0.3779297c-0.1279297,0.1157227-0.2880859,0.1738281-0.4794922,0.1738281
		h-2.6523438L531.7557373,11.9518547z"/>
	<path d="M541.7996826,22.3200188V5.9879875h1.8125c0.1914062,0,0.3554688,0.0439453,0.4912109,0.1318359
		c0.1367188,0.0883789,0.2246094,0.2241211,0.2646484,0.4082031l0.2392578,1.1401367
		c0.4960938-0.5678711,1.0664062-1.027832,1.7099609-1.3803711c0.6445312-0.3515625,1.3984375-0.527832,2.2626953-0.527832
		c0.671875,0,1.2851562,0.1401367,1.8417969,0.4199219c0.5556641,0.2802734,1.0361328,0.6860352,1.4404297,1.2182617
		c0.4033203,0.5317383,0.7158203,1.1879883,0.9355469,1.9677734c0.2197266,0.7802734,0.3300781,1.6743164,0.3300781,2.6821289
		c0,0.9199219-0.1240234,1.7719727-0.3720703,2.5561523c-0.2480469,0.7836914-0.6025391,1.4638672-1.0625,2.0400391
		c-0.4599609,0.5756836-1.015625,1.0258789-1.6679688,1.3496094c-0.6513672,0.3242188-1.3818359,0.4863281-2.1894531,0.4863281
		c-0.6962891,0-1.2861328-0.1064453-1.7705078-0.3183594c-0.4833984-0.2119141-0.9179688-0.5058594-1.3017578-0.8818359v5.0400391
		H541.7996826z M547.5594482,8.0998039c-0.6162109,0-1.1416016,0.1303711-1.578125,0.3901367
		c-0.4355469,0.2602539-0.8417969,0.6259766-1.2177734,1.0981445v5.5200195
		c0.3359375,0.4160156,0.7021484,0.7060547,1.0986328,0.8701172c0.3955078,0.1640625,0.8212891,0.2456055,1.2773438,0.2456055
		c0.4482422,0,0.8544922-0.0839844,1.2177734-0.2519531c0.3642578-0.1679688,0.6728516-0.4238281,0.9248047-0.7680664
		c0.2519531-0.34375,0.4453125-0.777832,0.5820312-1.3017578c0.1357422-0.5239258,0.203125-1.1420898,0.203125-1.8540039
		c0-0.7202148-0.0576172-1.3300781-0.1738281-1.8300781s-0.28125-0.9057617-0.4980469-1.2177734
		c-0.2158203-0.3120117-0.4775391-0.5400391-0.7861328-0.684082C548.3016357,8.1720695,547.9520264,8.0998039,547.5594482,8.0998039
		z"/>
	<path d="M560.4588623,5.796093c0.7763672,0,1.4902344,0.1240234,2.1425781,0.3720703
		c0.6513672,0.2480469,1.2138672,0.6098633,1.6855469,1.0859375s0.8398438,1.0600586,1.1035156,1.7519531
		c0.2646484,0.6918945,0.3964844,1.4819336,0.3964844,2.3701172c0,0.2241211-0.0097656,0.409668-0.0302734,0.5576172
		c-0.0195312,0.1484375-0.0556641,0.2641602-0.1074219,0.3481445c-0.0527344,0.0839844-0.1220703,0.144043-0.2099609,0.1801758
		c-0.0888672,0.0361328-0.2001953,0.0537109-0.3359375,0.0537109h-7.6083984
		c0.0878906,1.2641602,0.4277344,2.1923828,1.0195312,2.7841797c0.5927734,0.5922852,1.3759766,0.8881836,2.3525391,0.8881836
		c0.4794922,0,0.8935547-0.0561523,1.2421875-0.1679688c0.3476562-0.1123047,0.6513672-0.2363281,0.9121094-0.3720703
		c0.2597656-0.1362305,0.4873047-0.2602539,0.6835938-0.3720703s0.3857422-0.1679688,0.5703125-0.1679688
		c0.1201172,0,0.2236328,0.0239258,0.3115234,0.0717773c0.0878906,0.0483398,0.1640625,0.1162109,0.2285156,0.2041016
		l0.8632812,1.0800781c-0.328125,0.3837891-0.6953125,0.7060547-1.1035156,0.9658203
		c-0.4082031,0.2602539-0.8339844,0.4682617-1.2783203,0.6240234c-0.4433594,0.15625-0.8955078,0.2661133-1.3554688,0.3300781
		s-0.90625,0.0961914-1.3378906,0.0961914c-0.8564453,0-1.6523438-0.1420898-2.3886719-0.4262695
		c-0.7363281-0.2836914-1.3759766-0.7036133-1.9199219-1.2597656s-0.9716797-1.2441406-1.2841797-2.0639648
		c-0.3115234-0.8203125-0.4677734-1.7700195-0.4677734-2.8500977c0-0.8398438,0.1357422-1.6298828,0.4082031-2.3701172
		c0.2714844-0.7397461,0.6621094-1.3837891,1.1699219-1.9321289c0.5078125-0.5478516,1.1279297-0.9819336,1.8603516-1.3017578
		C558.7127686,5.9562492,559.5389404,5.796093,560.4588623,5.796093z M560.5194092,7.9201164
		c-0.8642578,0-1.5410156,0.2441406-2.0283203,0.7319336c-0.4882812,0.487793-0.7998047,1.1801758-0.9365234,2.0761719h5.5683594
		c0-0.3842773-0.0517578-0.7460938-0.15625-1.0864258c-0.1035156-0.3398438-0.2636719-0.6376953-0.4794922-0.8935547
		c-0.2158203-0.2563477-0.4882812-0.4580078-0.8164062-0.6064453
		C561.3426514,7.9938469,560.9588623,7.9201164,560.5194092,7.9201164z M564.6834717,0.7560539l-2.9648438,3.1318359
		c-0.1513672,0.1601562-0.2978516,0.2700195-0.4375,0.3300781c-0.140625,0.0600586-0.3222656,0.0898438-0.5458984,0.0898438
		h-1.7763672l1.7041016-2.9160156c0.1201172-0.2075195,0.2597656-0.3657227,0.4199219-0.4736328
		c0.1601562-0.1083984,0.4003906-0.1621094,0.7197266-0.1621094H564.6834717z"/>
	<path d="M576.8631592,18.2999992c-0.3837891,0-0.6357422-0.1801758-0.7558594-0.5400391l-0.2402344-1.1879883
		c-0.2558594,0.2880859-0.5244141,0.5478516-0.8037109,0.7797852c-0.2802734,0.2324219-0.5820312,0.4321289-0.90625,0.6000977
		s-0.671875,0.2983398-1.0439453,0.3901367s-0.7744141,0.1381836-1.2060547,0.1381836
		c-0.671875,0-1.2880859-0.1401367-1.8476562-0.4204102c-0.5605469-0.2797852-1.0419922-0.6855469-1.4462891-1.2177734
		c-0.4042969-0.5317383-0.7158203-1.1899414-0.9365234-1.9741211c-0.2197266-0.7836914-0.3291016-1.6796875-0.3291016-2.6879883
		c0-0.9121094,0.1230469-1.7597656,0.3710938-2.5439453c0.2480469-0.7836914,0.6044922-1.4638672,1.0683594-2.0400391
		c0.4638672-0.5756836,1.0205078-1.0258789,1.6679688-1.3500977c0.6484375-0.3237305,1.3759766-0.4858398,2.1845703-0.4858398
		c0.6875,0,1.2753906,0.1098633,1.7636719,0.3300781c0.4873047,0.2202148,0.9238281,0.5141602,1.3076172,0.8818359V0.467968
		h2.9638672v17.8320312H576.8631592z M572.914917,16.1281242c0.6162109,0,1.140625-0.1279297,1.5722656-0.3842773
		c0.4316406-0.2558594,0.8398438-0.6196289,1.2236328-1.0917969V9.1320305
		c-0.3359375-0.4082031-0.7021484-0.6958008-1.0976562-0.8642578c-0.3964844-0.1679688-0.8222656-0.2519531-1.2783203-0.2519531
		c-0.4482422,0-0.8535156,0.0839844-1.2177734,0.2519531c-0.3642578,0.168457-0.671875,0.4223633-0.9238281,0.762207
		c-0.2519531,0.340332-0.4462891,0.7719727-0.5820312,1.2958984c-0.1357422,0.5244141-0.2041016,1.1420898-0.2041016,1.8540039
		c0,0.7202148,0.0576172,1.3300781,0.1738281,1.8300781s0.2822266,0.9082031,0.4980469,1.2241211
		s0.4804688,0.5439453,0.7919922,0.684082C572.1834717,16.0583,572.5311279,16.1281242,572.914917,16.1281242z"/>
	<path d="M585.4783936,2.4000969c0,0.2558594-0.0517578,0.4960938-0.1552734,0.7197266
		c-0.1044922,0.2241211-0.2421875,0.4204102-0.4140625,0.5883789c-0.1728516,0.1679688-0.3740234,0.3017578-0.6064453,0.4018555
		s-0.4794922,0.1499023-0.7441406,0.1499023c-0.2558594,0-0.4980469-0.0498047-0.7255859-0.1499023
		c-0.2285156-0.1000977-0.4257812-0.2338867-0.59375-0.4018555s-0.3027344-0.3642578-0.4023438-0.5883789
		c-0.1005859-0.2236328-0.1503906-0.4638672-0.1503906-0.7197266c0-0.2641602,0.0498047-0.512207,0.1503906-0.7441406
		c0.0996094-0.2319336,0.234375-0.4321289,0.4023438-0.6000977s0.3652344-0.3017578,0.59375-0.4018555
		c0.2275391-0.1000977,0.4697266-0.1499023,0.7255859-0.1499023c0.2646484,0,0.5117188,0.0498047,0.7441406,0.1499023
		s0.4335938,0.2338867,0.6064453,0.4018555c0.171875,0.1679688,0.3095703,0.3681641,0.4140625,0.6000977
		C585.4266357,1.8878899,585.4783936,2.1359367,585.4783936,2.4000969z M585.0350342,5.9879875v12.3120117h-2.9638672V5.9879875
		H585.0350342z"/>
	<path d="M592.4266357,18.4918938c-1.0644531,0-1.8837891-0.3017578-2.4599609-0.9057617s-0.8642578-1.4379883-0.8642578-2.5019531
		V8.2082024h-1.2480469c-0.1601562,0-0.2978516-0.0522461-0.4140625-0.15625
		c-0.1152344-0.1040039-0.1738281-0.2597656-0.1738281-0.4677734V6.4079094l1.9804688-0.3237305l0.6240234-3.3603516
		c0.03125-0.159668,0.1054688-0.2836914,0.2216797-0.3720703c0.1162109-0.0878906,0.2617188-0.1318359,0.4384766-0.1318359
		h1.5351562v3.8759766h3.2402344v2.1123047h-3.2402344v6.671875c0,0.3837891,0.0966797,0.684082,0.2880859,0.8999023
		c0.1923828,0.2158203,0.4482422,0.3242188,0.7685547,0.3242188c0.1835938,0,0.3378906-0.0219727,0.4619141-0.0664062
		c0.1240234-0.043457,0.2314453-0.0898438,0.3242188-0.1376953c0.0917969-0.0483398,0.1738281-0.0942383,0.2460938-0.1381836
		c0.0712891-0.0439453,0.1435547-0.065918,0.2158203-0.065918c0.0878906,0,0.1601562,0.0219727,0.2158203,0.065918
		s0.1162109,0.1103516,0.1796875,0.1982422l0.8886719,1.4399414c-0.4326172,0.3598633-0.9287109,0.6318359-1.4882812,0.815918
		C593.6063232,18.4000969,593.0262451,18.4918938,592.4266357,18.4918938z"/>
	<path d="M601.2694092,2.4000969c0,0.2558594-0.0517578,0.4960938-0.1552734,0.7197266
		c-0.1044922,0.2241211-0.2421875,0.4204102-0.4140625,0.5883789c-0.1728516,0.1679688-0.3740234,0.3017578-0.6064453,0.4018555
		s-0.4794922,0.1499023-0.7441406,0.1499023c-0.2558594,0-0.4980469-0.0498047-0.7255859-0.1499023
		c-0.2285156-0.1000977-0.4257812-0.2338867-0.59375-0.4018555s-0.3027344-0.3642578-0.4023438-0.5883789
		c-0.1005859-0.2236328-0.1503906-0.4638672-0.1503906-0.7197266c0-0.2641602,0.0498047-0.512207,0.1503906-0.7441406
		c0.0996094-0.2319336,0.234375-0.4321289,0.4023438-0.6000977s0.3652344-0.3017578,0.59375-0.4018555
		c0.2275391-0.1000977,0.4697266-0.1499023,0.7255859-0.1499023c0.2646484,0,0.5117188,0.0498047,0.7441406,0.1499023
		s0.4335938,0.2338867,0.6064453,0.4018555c0.171875,0.1679688,0.3095703,0.3681641,0.4140625,0.6000977
		C601.2176514,1.8878899,601.2694092,2.1359367,601.2694092,2.4000969z M600.8260498,5.9879875v12.3120117h-2.9638672V5.9879875
		H600.8260498z"/>
	<path d="M609.4295654,5.796093c0.9199219,0,1.7539062,0.1479492,2.5019531,0.4438477s1.3857422,0.7163086,1.9140625,1.2602539
		s0.9365234,1.2080078,1.2246094,1.9916992c0.2871094,0.7841797,0.4316406,1.6601562,0.4316406,2.6279297
		c0,0.9760742-0.1445312,1.8564453-0.4316406,2.6401367c-0.2880859,0.7841797-0.6962891,1.4521484-1.2246094,2.0039062
		c-0.5283203,0.5522461-1.1660156,0.9760742-1.9140625,1.2719727s-1.5820312,0.4443359-2.5019531,0.4443359
		s-1.7558594-0.1484375-2.5078125-0.4443359s-1.3945312-0.7197266-1.9257812-1.2719727
		c-0.5322266-0.5517578-0.9443359-1.2197266-1.2363281-2.0039062c-0.2919922-0.7836914-0.4375-1.6640625-0.4375-2.6401367
		c0-0.9677734,0.1455078-1.84375,0.4375-2.6279297c0.2919922-0.7836914,0.7041016-1.4477539,1.2363281-1.9916992
		c0.53125-0.5439453,1.1738281-0.9643555,1.9257812-1.2602539S608.5096436,5.796093,609.4295654,5.796093z M609.4295654,16.1999016
		c1.0244141,0,1.7822266-0.34375,2.2744141-1.0317383s0.7373047-1.6962891,0.7373047-3.0239258
		c0-1.328125-0.2451172-2.340332-0.7373047-3.0361328c-0.4921875-0.6962891-1.25-1.0439453-2.2744141-1.0439453
		c-1.0400391,0-1.8076172,0.3500977-2.3037109,1.0498047c-0.4960938,0.7001953-0.7441406,1.7099609-0.7441406,3.0302734
		c0,1.3198242,0.2480469,2.3256836,0.7441406,3.0175781C607.6219482,15.8541985,608.3895264,16.1999016,609.4295654,16.1999016z"/>
	<path d="M617.8182373,18.2999992V5.9879875h1.8125c0.3837891,0,0.6357422,0.1801758,0.7558594,0.5400391l0.2041016,0.972168
		c0.2470703-0.2563477,0.5097656-0.4882812,0.7851562-0.6962891c0.2763672-0.2080078,0.5683594-0.3876953,0.8759766-0.5400391
		c0.3085938-0.1518555,0.6386719-0.2675781,0.9902344-0.3476562c0.3525391-0.0800781,0.7363281-0.1201172,1.1523438-0.1201172
		c0.671875,0,1.2675781,0.1137695,1.7880859,0.3417969c0.5195312,0.2280273,0.9541016,0.5483398,1.3017578,0.9599609
		c0.3476562,0.4121094,0.6123047,0.9042969,0.7919922,1.4760742c0.1796875,0.5722656,0.2695312,1.2021484,0.2695312,1.8901367
		v7.8359375h-2.9638672v-7.8359375c0-0.7519531-0.1738281-1.3339844-0.5214844-1.7460938
		c-0.3486328-0.4121094-0.8701172-0.6181641-1.5664062-0.6181641c-0.5117188,0-0.9921875,0.1162109-1.4394531,0.3481445
		c-0.4482422,0.2319336-0.8720703,0.5483398-1.2724609,0.9482422v8.9038086H617.8182373z"/>
	<path d="M638.7694092,8.3878899c-0.0800781,0.1279297-0.1640625,0.2182617-0.2519531,0.2700195
		c-0.0878906,0.0522461-0.2001953,0.078125-0.3359375,0.078125c-0.1435547,0-0.2978516-0.0400391-0.4619141-0.1201172
		c-0.1640625-0.0795898-0.3535156-0.1699219-0.5693359-0.2700195c-0.2167969-0.0996094-0.4628906-0.1899414-0.7382812-0.2700195
		c-0.2763672-0.0795898-0.6025391-0.1201172-0.9785156-0.1201172c-0.5839844,0-1.0439453,0.1245117-1.3798828,0.3720703
		c-0.3359375,0.2480469-0.5039062,0.5722656-0.5039062,0.972168c0,0.2641602,0.0859375,0.4858398,0.2578125,0.6660156
		s0.4003906,0.3378906,0.6845703,0.4741211c0.2832031,0.1362305,0.6054688,0.2578125,0.9658203,0.3657227
		s0.7275391,0.2260742,1.1035156,0.3540039c0.3759766,0.128418,0.7441406,0.2744141,1.1044922,0.4379883
		c0.3603516,0.1640625,0.6816406,0.3720703,0.9658203,0.6240234s0.5117188,0.5541992,0.6845703,0.90625
		c0.171875,0.3520508,0.2578125,0.7758789,0.2578125,1.2719727c0,0.5917969-0.1083984,1.1381836-0.3242188,1.6376953
		c-0.2158203,0.5004883-0.5322266,0.9321289-0.9482422,1.2963867c-0.4160156,0.3637695-0.9296875,0.6479492-1.5419922,0.8520508
		c-0.6123047,0.2036133-1.3134766,0.3056641-2.1054688,0.3056641c-0.4248047,0-0.8388672-0.0380859-1.2421875-0.1137695
		c-0.4042969-0.0761719-0.7919922-0.1821289-1.1640625-0.3183594c-0.3720703-0.1357422-0.7158203-0.2954102-1.0322266-0.4799805
		c-0.3164062-0.1835938-0.59375-0.3837891-0.8339844-0.5996094l0.6845703-1.128418
		c0.0878906-0.1357422,0.1914062-0.2397461,0.3115234-0.3115234c0.1201172-0.0722656,0.2714844-0.1083984,0.4560547-0.1083984
		c0.1835938,0,0.3574219,0.0522461,0.5214844,0.15625s0.3544922,0.2158203,0.5703125,0.3359375
		s0.4697266,0.2319336,0.7617188,0.3359375s0.6621094,0.15625,1.1103516,0.15625c0.3515625,0,0.6542969-0.0419922,0.90625-0.1259766
		c0.2519531-0.0844727,0.4599609-0.1943359,0.6240234-0.3300781c0.1640625-0.1362305,0.2832031-0.2939453,0.359375-0.4741211
		s0.1142578-0.3662109,0.1142578-0.5581055c0-0.2880859-0.0859375-0.5239258-0.2578125-0.7080078
		s-0.4003906-0.34375-0.6835938-0.4799805c-0.2841797-0.1357422-0.6083984-0.2578125-0.9726562-0.3657227
		c-0.3642578-0.1083984-0.7363281-0.2260742-1.1162109-0.3540039s-0.7519531-0.2783203-1.1152344-0.4501953
		c-0.3642578-0.171875-0.6884766-0.3901367-0.9726562-0.6538086c-0.2841797-0.2641602-0.5117188-0.5883789-0.6835938-0.972168
		c-0.171875-0.3842773-0.2578125-0.8481445-0.2578125-1.3920898c0-0.5039062,0.0996094-0.9838867,0.2998047-1.4399414
		s0.4941406-0.8540039,0.8818359-1.1938477c0.3876953-0.340332,0.8720703-0.6123047,1.4521484-0.8164062
		c0.5800781-0.2036133,1.25-0.3056641,2.0097656-0.3056641c0.8476562,0,1.6201172,0.1401367,2.3164062,0.4199219
		c0.6953125,0.2802734,1.2753906,0.6479492,1.7402344,1.1040039L638.7694092,8.3878899z"/>
</g>
</svg>
