<?xml version="1.0" encoding="utf-8"?>
<!-- Generator: Adobe Illustrator 21.1.0, SVG Export Plug-In . SVG Version: 6.00 Build 0)  -->
<svg version="1.1" id="Calque_1" xmlns="http://www.w3.org/2000/svg" xmlns:xlink="http://www.w3.org/1999/xlink" x="0px" y="0px"
	 viewBox="0 0 642.9 785.7" style="enable-background:new 0 0 642.9 785.7;" xml:space="preserve">
<style type="text/css">
	.st0{fill:#7499DD;}
</style>
<path class="st0" d="M178.6,357.2h285.7V250c0-78.7-64.2-142.8-142.9-142.8S178.6,171.3,178.6,250L178.6,357.2L178.6,357.2z
	 M642.9,410.7v321.5c0,29.5-24,53.5-53.6,53.5H53.6C24,785.7,0,761.7,0,732.2V410.7c0-29.5,24-53.5,53.6-53.5h17.8V250
	c0-137.2,112.8-250,250-250s250,112.8,250,250v107.2h17.9C618.9,357.2,642.9,381.2,642.9,410.7L642.9,410.7z"/>
</svg>
