<?xml version="1.0" encoding="utf-8"?>
<!-- Generator: Adobe Illustrator 22.0.1, SVG Export Plug-In . SVG Version: 6.00 Build 0)  -->
<svg version="1.1" id="Calque_1" xmlns="http://www.w3.org/2000/svg" xmlns:xlink="http://www.w3.org/1999/xlink" x="0px" y="0px"
	 viewBox="0 0 1049.5 337" style="enable-background:new 0 0 1049.5 337;" xml:space="preserve">
<style type="text/css">
	.st0{fill:#CC0033;}
	.st1{fill:#666666;}
	.st2{fill:none;stroke:#000000;stroke-miterlimit:10;}
	.st3{fill:none;stroke:#000000;stroke-miterlimit:10;stroke-dasharray:10.0345,10.0345;}
	.st4{fill:none;stroke:#000000;stroke-miterlimit:10;stroke-dasharray:9.8182,9.8182;}
	.st5{fill:#FF9900;}
	.st6{fill:#00CC66;}
	.st7{fill:none;stroke:#000000;stroke-miterlimit:10;stroke-dasharray:10,10;}
</style>
<g>
	<g>
		<path class="st0" d="M153.8,13.3l-8.5,29.8h-11.2V20.2h-4.9v22.7l-16.1,2l1.3,14.9h-9v15.7h6.2c0,0.3,0,0.7,0,1
			c0,7.9,6.5,14.2,14.2,14.2s14.2-6.2,14.2-14.2c0-2.8-0.8-5.3-2.2-7.5h15.4c1.1,12.3,11.6,21.6,23.7,21.6
			c12.8,0,23.9-10.4,23.9-23.9c0-10.7-7-19.5-16.3-22.6V13.3H153.8L153.8,13.3z M158.5,19.2h19.3V43c-0.3,0-0.7,0-1,0
			c-2.9,0-5.7,0.5-8.2,1.5l-16.5-1.3L158.5,19.2L158.5,19.2z M176.9,57.2c6.1,0,9.7,4.5,9.7,9.5s-3.6,9.5-9.7,9.5
			c-6.1,0-9.7-4.5-9.7-9.5S170.8,57.2,176.9,57.2z M125.7,69.6c4.2,0,7.3,3.2,7.3,6.9s-3.1,6.9-7.3,6.9c-4.2,0-7.3-3.2-7.3-6.9
			S121.4,69.6,125.7,69.6z"/>
		<path class="st1" d="M155.2,245.8l20-17.2c0.5-0.4,0.7-0.9,0.7-1.4s-0.2-1-0.7-1.4s-1-0.6-1.7-0.6h-16.6v-53h-6.7v53h-16.7
			c-0.6,0-1.2,0.2-1.7,0.6c-0.5,0.4-0.7,0.9-0.7,1.4s0.2,1,0.7,1.4l20,17.2c0.5,0.4,1,0.6,1.7,0.6
			C154.2,246.4,154.8,246.2,155.2,245.8z"/>
		<g>
			<path d="M46.2,118.4h1.9c0.2,0,0.4,0.1,0.5,0.2s0.2,0.2,0.3,0.4l4.9,12.1c0.1,0.3,0.2,0.6,0.3,0.9c0.1,0.3,0.2,0.7,0.3,1
				c0.1-0.3,0.1-0.7,0.2-1c0.1-0.3,0.2-0.6,0.3-0.9l4.8-12.1c0.1-0.1,0.2-0.3,0.3-0.4c0.1-0.1,0.3-0.2,0.5-0.2h1.9l-7,17.2h-2.1
				L46.2,118.4z"/>
			<path d="M71.8,135.6h-0.9c-0.2,0-0.4,0-0.5-0.1c-0.1-0.1-0.2-0.2-0.3-0.4l-0.2-1.1c-0.3,0.3-0.6,0.5-0.9,0.8
				c-0.3,0.2-0.6,0.4-1,0.6c-0.3,0.2-0.7,0.3-1.1,0.4c-0.4,0.1-0.8,0.1-1.3,0.1c-0.5,0-0.9-0.1-1.3-0.2c-0.4-0.1-0.8-0.3-1.1-0.6
				c-0.3-0.3-0.5-0.6-0.7-1c-0.2-0.4-0.3-0.9-0.3-1.4c0-0.5,0.1-0.9,0.4-1.4c0.3-0.4,0.7-0.8,1.3-1.2c0.6-0.3,1.4-0.6,2.3-0.8
				s2.1-0.3,3.5-0.3v-1c0-1-0.2-1.7-0.6-2.2c-0.4-0.5-1-0.7-1.8-0.7c-0.5,0-1,0.1-1.3,0.2c-0.4,0.1-0.7,0.3-0.9,0.4
				s-0.5,0.3-0.7,0.4c-0.2,0.1-0.4,0.2-0.6,0.2c-0.1,0-0.3,0-0.4-0.1c-0.1-0.1-0.2-0.2-0.3-0.3l-0.4-0.7c0.7-0.6,1.4-1.1,2.2-1.5
				c0.8-0.3,1.6-0.5,2.6-0.5c0.7,0,1.3,0.1,1.8,0.3c0.5,0.2,1,0.5,1.3,0.9c0.4,0.4,0.6,0.9,0.8,1.5s0.3,1.2,0.3,1.9V135.6z
				 M66.2,134.3c0.4,0,0.7,0,1-0.1s0.6-0.2,0.9-0.3c0.3-0.1,0.5-0.3,0.8-0.5c0.3-0.2,0.5-0.4,0.7-0.7v-2.5c-1,0-1.8,0.1-2.5,0.2
				c-0.7,0.1-1.2,0.3-1.7,0.5s-0.7,0.4-0.9,0.7c-0.2,0.3-0.3,0.6-0.3,0.9c0,0.3,0.1,0.6,0.2,0.8s0.2,0.4,0.4,0.6s0.4,0.3,0.6,0.3
				C65.7,134.2,65.9,134.3,66.2,134.3z"/>
			<path d="M75,135.6v-12.2h1.2c0.2,0,0.4,0,0.5,0.1c0.1,0.1,0.1,0.2,0.2,0.5l0.1,1.9c0.4-0.8,0.9-1.5,1.5-2
				c0.6-0.5,1.3-0.7,2.2-0.7c0.3,0,0.6,0,0.9,0.1c0.3,0.1,0.5,0.2,0.8,0.3l-0.3,1.6c-0.1,0.2-0.2,0.3-0.4,0.3c-0.1,0-0.3,0-0.5-0.1
				c-0.2-0.1-0.6-0.1-1-0.1c-0.7,0-1.4,0.2-1.9,0.6s-0.9,1.1-1.3,1.9v7.7H75z"/>
			<path d="M87.5,119.6c0,0.2,0,0.4-0.1,0.6c-0.1,0.2-0.2,0.3-0.3,0.5c-0.1,0.1-0.3,0.3-0.5,0.3c-0.2,0.1-0.4,0.1-0.6,0.1
				s-0.4,0-0.6-0.1c-0.2-0.1-0.3-0.2-0.5-0.3c-0.1-0.1-0.2-0.3-0.3-0.5c-0.1-0.2-0.1-0.4-0.1-0.6c0-0.2,0-0.4,0.1-0.6
				c0.1-0.2,0.2-0.4,0.3-0.5c0.1-0.1,0.3-0.2,0.5-0.3c0.2-0.1,0.4-0.1,0.6-0.1s0.4,0,0.6,0.1c0.2,0.1,0.3,0.2,0.5,0.3
				c0.1,0.1,0.3,0.3,0.3,0.5S87.5,119.4,87.5,119.6z M87,123.4v12.2h-2.1v-12.2H87z"/>
			<path d="M99.7,135.6h-0.9c-0.2,0-0.4,0-0.5-0.1c-0.1-0.1-0.2-0.2-0.3-0.4l-0.2-1.1c-0.3,0.3-0.6,0.5-0.9,0.8
				c-0.3,0.2-0.6,0.4-1,0.6c-0.3,0.2-0.7,0.3-1.1,0.4c-0.4,0.1-0.8,0.1-1.3,0.1c-0.5,0-0.9-0.1-1.3-0.2c-0.4-0.1-0.8-0.3-1.1-0.6
				c-0.3-0.3-0.5-0.6-0.7-1c-0.2-0.4-0.3-0.9-0.3-1.4c0-0.5,0.1-0.9,0.4-1.4c0.3-0.4,0.7-0.8,1.3-1.2c0.6-0.3,1.4-0.6,2.3-0.8
				s2.1-0.3,3.5-0.3v-1c0-1-0.2-1.7-0.6-2.2c-0.4-0.5-1-0.7-1.8-0.7c-0.5,0-1,0.1-1.3,0.2c-0.4,0.1-0.7,0.3-0.9,0.4
				s-0.5,0.3-0.7,0.4c-0.2,0.1-0.4,0.2-0.6,0.2c-0.1,0-0.3,0-0.4-0.1c-0.1-0.1-0.2-0.2-0.3-0.3l-0.4-0.7c0.7-0.6,1.4-1.1,2.2-1.5
				c0.8-0.3,1.6-0.5,2.6-0.5c0.7,0,1.3,0.1,1.8,0.3c0.5,0.2,1,0.5,1.3,0.9c0.4,0.4,0.6,0.9,0.8,1.5s0.3,1.2,0.3,1.9V135.6z
				 M94.2,134.3c0.4,0,0.7,0,1-0.1s0.6-0.2,0.9-0.3c0.3-0.1,0.5-0.3,0.8-0.5c0.3-0.2,0.5-0.4,0.7-0.7v-2.5c-1,0-1.8,0.1-2.5,0.2
				c-0.7,0.1-1.2,0.3-1.7,0.5s-0.7,0.4-0.9,0.7c-0.2,0.3-0.3,0.6-0.3,0.9c0,0.3,0.1,0.6,0.2,0.8s0.2,0.4,0.4,0.6s0.4,0.3,0.6,0.3
				C93.7,134.2,93.9,134.3,94.2,134.3z"/>
			<path d="M103,135.6v-12.2h1.3c0.3,0,0.5,0.1,0.6,0.4l0.2,1.3c0.5-0.6,1.1-1.1,1.8-1.4c0.7-0.4,1.4-0.5,2.3-0.5
				c0.7,0,1.2,0.1,1.8,0.3c0.5,0.2,0.9,0.5,1.3,0.9c0.3,0.4,0.6,0.9,0.8,1.5c0.2,0.6,0.3,1.2,0.3,1.9v7.7H111v-7.7
				c0-0.9-0.2-1.6-0.6-2.1c-0.4-0.5-1.1-0.8-1.9-0.8c-0.6,0-1.2,0.2-1.8,0.5c-0.5,0.3-1.1,0.7-1.5,1.2v9H103z"/>
			<path d="M120,135.8c-1,0-1.7-0.3-2.2-0.8c-0.5-0.5-0.8-1.3-0.8-2.3v-7.4h-1.5c-0.1,0-0.2,0-0.3-0.1c-0.1-0.1-0.1-0.2-0.1-0.4
				v-0.9l2-0.3l0.5-3.8c0-0.1,0.1-0.2,0.2-0.3c0.1-0.1,0.2-0.1,0.3-0.1h1.1v4.2h3.5v1.5h-3.5v7.3c0,0.5,0.1,0.9,0.4,1.1
				c0.2,0.2,0.6,0.4,1,0.4c0.2,0,0.4,0,0.6-0.1s0.3-0.1,0.4-0.2c0.1-0.1,0.2-0.1,0.3-0.2s0.2-0.1,0.2-0.1c0.1,0,0.2,0.1,0.3,0.2
				l0.6,1c-0.4,0.3-0.8,0.6-1.3,0.8S120.6,135.8,120,135.8z"/>
			<path d="M130.1,123.2c0.7,0,1.4,0.1,2,0.4c0.6,0.2,1.1,0.6,1.6,1.1c0.4,0.5,0.8,1,1.1,1.7c0.3,0.7,0.4,1.4,0.4,2.3
				c0,0.3,0,0.6-0.1,0.7c-0.1,0.1-0.2,0.2-0.4,0.2h-8.1c0,0.8,0.1,1.4,0.3,2s0.5,1,0.8,1.4s0.7,0.7,1.2,0.9c0.5,0.2,1,0.3,1.6,0.3
				c0.5,0,1-0.1,1.4-0.2c0.4-0.1,0.7-0.3,1-0.4c0.3-0.1,0.5-0.3,0.7-0.4s0.3-0.2,0.5-0.2c0.2,0,0.3,0.1,0.4,0.2l0.6,0.8
				c-0.3,0.3-0.6,0.6-0.9,0.8c-0.4,0.2-0.8,0.4-1.2,0.6c-0.4,0.2-0.9,0.3-1.3,0.3c-0.4,0.1-0.9,0.1-1.3,0.1c-0.8,0-1.6-0.1-2.3-0.4
				c-0.7-0.3-1.3-0.7-1.8-1.2s-0.9-1.2-1.2-2c-0.3-0.8-0.4-1.7-0.4-2.8c0-0.8,0.1-1.6,0.4-2.4c0.3-0.7,0.6-1.4,1.1-1.9
				c0.5-0.5,1.1-1,1.8-1.3C128.4,123.4,129.2,123.2,130.1,123.2z M130.1,124.8c-1,0-1.8,0.3-2.4,0.9c-0.6,0.6-1,1.4-1.1,2.5h6.6
				c0-0.5-0.1-1-0.2-1.4c-0.1-0.4-0.3-0.8-0.6-1.1c-0.3-0.3-0.6-0.5-1-0.7S130.6,124.8,130.1,124.8z"/>
			<path d="M142.4,129.4v-0.3l3-4.7l0.7,0.3c0.1,0.1,0.2,0.1,0.3,0.2c0.1,0.1,0.1,0.2,0.1,0.3c0,0.1,0,0.3-0.1,0.4l-1.9,3.1
				c-0.1,0.2-0.2,0.3-0.3,0.4c0.1,0.1,0.2,0.3,0.3,0.4l1.9,3.1c0,0.1,0.1,0.1,0.1,0.2c0,0.1,0,0.1,0,0.2c0,0.2-0.1,0.4-0.3,0.5
				l-0.7,0.3L142.4,129.4z M145.9,129.4v-0.3l3-4.7l0.7,0.3c0.1,0.1,0.2,0.1,0.3,0.2c0.1,0.1,0.1,0.2,0.1,0.3c0,0.1,0,0.3-0.1,0.4
				l-1.9,3.1c-0.1,0.2-0.2,0.3-0.3,0.4c0.1,0.1,0.2,0.3,0.3,0.4l1.9,3.1c0,0.1,0.1,0.1,0.1,0.2c0,0.1,0,0.1,0,0.2
				c0,0.2-0.1,0.4-0.3,0.5l-0.7,0.3L145.9,129.4z"/>
			<path d="M170.3,118.4v2h-5.6v15.2h-2.3v-15.2h-5.6v-2H170.3z"/>
			<path d="M170.5,135.6v-12.2h1.2c0.2,0,0.4,0,0.5,0.1c0.1,0.1,0.1,0.2,0.2,0.5l0.1,1.9c0.4-0.8,0.9-1.5,1.5-2
				c0.6-0.5,1.3-0.7,2.2-0.7c0.3,0,0.6,0,0.9,0.1c0.3,0.1,0.5,0.2,0.8,0.3l-0.3,1.6c-0.1,0.2-0.2,0.3-0.4,0.3c-0.1,0-0.3,0-0.5-0.1
				c-0.2-0.1-0.6-0.1-1-0.1c-0.7,0-1.4,0.2-1.9,0.6s-0.9,1.1-1.3,1.9v7.7H170.5z"/>
			<path d="M188.6,135.6h-0.9c-0.2,0-0.4,0-0.5-0.1c-0.1-0.1-0.2-0.2-0.3-0.4l-0.2-1.1c-0.3,0.3-0.6,0.5-0.9,0.8
				c-0.3,0.2-0.6,0.4-1,0.6c-0.3,0.2-0.7,0.3-1.1,0.4c-0.4,0.1-0.8,0.1-1.3,0.1c-0.5,0-0.9-0.1-1.3-0.2c-0.4-0.1-0.8-0.3-1.1-0.6
				c-0.3-0.3-0.5-0.6-0.7-1c-0.2-0.4-0.3-0.9-0.3-1.4c0-0.5,0.1-0.9,0.4-1.4c0.3-0.4,0.7-0.8,1.3-1.2c0.6-0.3,1.4-0.6,2.3-0.8
				s2.1-0.3,3.5-0.3v-1c0-1-0.2-1.7-0.6-2.2c-0.4-0.5-1-0.7-1.8-0.7c-0.5,0-1,0.1-1.3,0.2c-0.4,0.1-0.7,0.3-0.9,0.4
				s-0.5,0.3-0.7,0.4c-0.2,0.1-0.4,0.2-0.6,0.2c-0.1,0-0.3,0-0.4-0.1c-0.1-0.1-0.2-0.2-0.3-0.3l-0.4-0.7c0.7-0.6,1.4-1.1,2.2-1.5
				c0.8-0.3,1.6-0.5,2.6-0.5c0.7,0,1.3,0.1,1.8,0.3c0.5,0.2,1,0.5,1.3,0.9c0.4,0.4,0.6,0.9,0.8,1.5s0.3,1.2,0.3,1.9V135.6z
				 M183.1,134.3c0.4,0,0.7,0,1-0.1s0.6-0.2,0.9-0.3c0.3-0.1,0.5-0.3,0.8-0.5c0.3-0.2,0.5-0.4,0.7-0.7v-2.5c-1,0-1.8,0.1-2.5,0.2
				c-0.7,0.1-1.2,0.3-1.7,0.5s-0.7,0.4-0.9,0.7c-0.2,0.3-0.3,0.6-0.3,0.9c0,0.3,0.1,0.6,0.2,0.8s0.2,0.4,0.4,0.6s0.4,0.3,0.6,0.3
				C182.5,134.2,182.8,134.3,183.1,134.3z"/>
			<path d="M200.1,125.6c-0.1,0.1-0.1,0.2-0.2,0.2s-0.2,0.1-0.3,0.1c-0.1,0-0.3,0-0.4-0.1c-0.1-0.1-0.3-0.2-0.5-0.3
				c-0.2-0.1-0.5-0.2-0.8-0.3c-0.3-0.1-0.7-0.2-1.1-0.2c-0.6,0-1.1,0.1-1.6,0.3s-0.8,0.5-1.1,0.9c-0.3,0.4-0.5,0.9-0.7,1.5
				c-0.2,0.6-0.2,1.2-0.2,1.9c0,0.7,0.1,1.4,0.3,2c0.2,0.6,0.4,1.1,0.7,1.4c0.3,0.4,0.7,0.7,1.1,0.9s0.9,0.3,1.5,0.3
				c0.5,0,0.9-0.1,1.3-0.2c0.3-0.1,0.6-0.3,0.8-0.4c0.2-0.2,0.4-0.3,0.6-0.4s0.3-0.2,0.4-0.2c0.2,0,0.3,0.1,0.4,0.2l0.6,0.8
				c-0.5,0.6-1.2,1.1-2,1.4c-0.8,0.3-1.6,0.5-2.5,0.5c-0.8,0-1.5-0.1-2.1-0.4c-0.7-0.3-1.2-0.7-1.7-1.2c-0.5-0.5-0.9-1.2-1.1-2
				c-0.3-0.8-0.4-1.7-0.4-2.7c0-0.9,0.1-1.7,0.4-2.5c0.3-0.8,0.6-1.4,1.1-2c0.5-0.6,1.1-1,1.8-1.3c0.7-0.3,1.5-0.5,2.4-0.5
				c0.8,0,1.6,0.1,2.3,0.4c0.7,0.3,1.2,0.7,1.7,1.2L200.1,125.6z"/>
			<path d="M206.7,135.8c-1,0-1.7-0.3-2.2-0.8c-0.5-0.5-0.8-1.3-0.8-2.3v-7.4h-1.5c-0.1,0-0.2,0-0.3-0.1c-0.1-0.1-0.1-0.2-0.1-0.4
				v-0.9l2-0.3l0.5-3.8c0-0.1,0.1-0.2,0.2-0.3c0.1-0.1,0.2-0.1,0.3-0.1h1.1v4.2h3.5v1.5h-3.5v7.3c0,0.5,0.1,0.9,0.4,1.1
				c0.2,0.2,0.6,0.4,1,0.4c0.2,0,0.4,0,0.6-0.1s0.3-0.1,0.4-0.2c0.1-0.1,0.2-0.1,0.3-0.2s0.2-0.1,0.2-0.1c0.1,0,0.2,0.1,0.3,0.2
				l0.6,1c-0.4,0.3-0.8,0.6-1.3,0.8S207.3,135.8,206.7,135.8z"/>
			<path d="M216.8,123.2c0.7,0,1.4,0.1,2,0.4c0.6,0.2,1.1,0.6,1.6,1.1c0.4,0.5,0.8,1,1.1,1.7c0.3,0.7,0.4,1.4,0.4,2.3
				c0,0.3,0,0.6-0.1,0.7c-0.1,0.1-0.2,0.2-0.4,0.2h-8.1c0,0.8,0.1,1.4,0.3,2s0.5,1,0.8,1.4s0.7,0.7,1.2,0.9c0.5,0.2,1,0.3,1.6,0.3
				c0.5,0,1-0.1,1.4-0.2c0.4-0.1,0.7-0.3,1-0.4c0.3-0.1,0.5-0.3,0.7-0.4s0.3-0.2,0.5-0.2c0.2,0,0.3,0.1,0.4,0.2l0.6,0.8
				c-0.3,0.3-0.6,0.6-0.9,0.8c-0.4,0.2-0.8,0.4-1.2,0.6c-0.4,0.2-0.9,0.3-1.3,0.3c-0.4,0.1-0.9,0.1-1.3,0.1c-0.8,0-1.6-0.1-2.3-0.4
				c-0.7-0.3-1.3-0.7-1.8-1.2s-0.9-1.2-1.2-2c-0.3-0.8-0.4-1.7-0.4-2.8c0-0.8,0.1-1.6,0.4-2.4c0.3-0.7,0.6-1.4,1.1-1.9
				c0.5-0.5,1.1-1,1.8-1.3C215.2,123.4,215.9,123.2,216.8,123.2z M216.9,124.8c-1,0-1.8,0.3-2.4,0.9c-0.6,0.6-1,1.4-1.1,2.5h6.6
				c0-0.5-0.1-1-0.2-1.4c-0.1-0.4-0.3-0.8-0.6-1.1c-0.3-0.3-0.6-0.5-1-0.7S217.4,124.8,216.9,124.8z"/>
			<path d="M226.4,123.4v7.8c0,0.9,0.2,1.6,0.6,2.1c0.4,0.5,1.1,0.8,1.9,0.8c0.6,0,1.2-0.1,1.8-0.4c0.6-0.3,1.1-0.7,1.5-1.2v-9h2.1
				v12.2h-1.3c-0.3,0-0.5-0.1-0.6-0.4l-0.2-1.3c-0.5,0.6-1.1,1.1-1.8,1.4c-0.7,0.4-1.4,0.5-2.3,0.5c-0.7,0-1.3-0.1-1.8-0.3
				c-0.5-0.2-0.9-0.5-1.3-0.9c-0.3-0.4-0.6-0.9-0.8-1.5c-0.2-0.6-0.3-1.2-0.3-1.9v-7.8H226.4z"/>
			<path d="M237.9,135.6v-12.2h1.2c0.2,0,0.4,0,0.5,0.1s0.1,0.2,0.2,0.5l0.1,1.9c0.4-0.8,0.9-1.5,1.5-2c0.6-0.5,1.3-0.7,2.2-0.7
				c0.3,0,0.6,0,0.9,0.1c0.3,0.1,0.5,0.2,0.8,0.3l-0.3,1.6c-0.1,0.2-0.2,0.3-0.4,0.3c-0.1,0-0.3,0-0.5-0.1c-0.2-0.1-0.6-0.1-1-0.1
				c-0.7,0-1.4,0.2-1.9,0.6s-0.9,1.1-1.3,1.9v7.7H237.9z"/>
			<path d="M253.3,134l-0.7-0.3c-0.2-0.1-0.3-0.3-0.3-0.5c0-0.1,0-0.3,0.1-0.4l1.9-3.1c0.1-0.2,0.2-0.3,0.3-0.4
				c-0.1-0.1-0.2-0.2-0.3-0.4l-1.9-3.1c-0.1-0.1-0.1-0.3-0.1-0.4c0-0.2,0.1-0.4,0.3-0.5l0.7-0.3l3,4.7v0.3L253.3,134z M259.9,129.1
				v0.3l-3,4.7l-0.7-0.3c-0.2-0.1-0.3-0.3-0.3-0.5c0-0.1,0-0.3,0.1-0.4l1.9-3.1c0.1-0.2,0.2-0.3,0.3-0.4c-0.1-0.1-0.2-0.2-0.3-0.4
				l-1.9-3.1c-0.1-0.1-0.1-0.3-0.1-0.4c0-0.2,0.1-0.4,0.3-0.5l0.7-0.3L259.9,129.1z"/>
		</g>
		<g>
			<path d="M61.6,292c0.1,0,0.2,0.1,0.3,0.2l0.9,1c-0.7,0.8-1.6,1.5-2.6,1.9s-2.2,0.7-3.6,0.7c-1.2,0-2.4-0.2-3.4-0.6
				c-1-0.4-1.9-1-2.6-1.8c-0.7-0.8-1.3-1.7-1.7-2.8c-0.4-1.1-0.6-2.3-0.6-3.6c0-1.3,0.2-2.5,0.6-3.6c0.4-1.1,1-2,1.8-2.8
				c0.8-0.8,1.7-1.4,2.7-1.8c1.1-0.4,2.2-0.6,3.5-0.6c1.3,0,2.4,0.2,3.3,0.6c0.9,0.4,1.7,0.9,2.4,1.6l-0.8,1.1
				c-0.1,0.1-0.1,0.1-0.2,0.2c-0.1,0.1-0.2,0.1-0.3,0.1c-0.1,0-0.2,0-0.3-0.1c-0.1-0.1-0.3-0.2-0.4-0.3c-0.2-0.1-0.3-0.2-0.6-0.4
				c-0.2-0.1-0.5-0.2-0.8-0.4c-0.3-0.1-0.6-0.2-1-0.3s-0.8-0.1-1.4-0.1c-0.9,0-1.8,0.2-2.5,0.5c-0.8,0.3-1.4,0.8-2,1.4
				c-0.6,0.6-1,1.3-1.3,2.1c-0.3,0.8-0.5,1.8-0.5,2.8c0,1.1,0.2,2,0.5,2.9c0.3,0.8,0.7,1.6,1.3,2.1c0.5,0.6,1.2,1,1.9,1.3
				c0.7,0.3,1.5,0.5,2.4,0.5c0.5,0,1,0,1.4-0.1c0.4-0.1,0.8-0.2,1.1-0.3s0.7-0.3,1-0.5c0.3-0.2,0.6-0.4,0.9-0.7
				C61.4,292.1,61.5,292,61.6,292z"/>
			<path d="M65.6,295.6v-12.2h1.2c0.2,0,0.4,0,0.5,0.1c0.1,0.1,0.1,0.2,0.2,0.5l0.1,1.9c0.4-0.8,0.9-1.5,1.5-2
				c0.6-0.5,1.3-0.7,2.2-0.7c0.3,0,0.6,0,0.9,0.1c0.3,0.1,0.5,0.2,0.8,0.3l-0.3,1.6c-0.1,0.2-0.2,0.3-0.4,0.3c-0.1,0-0.3,0-0.5-0.1
				c-0.2-0.1-0.6-0.1-1-0.1c-0.7,0-1.4,0.2-1.9,0.6s-0.9,1.1-1.3,1.9v7.7H65.6z"/>
			<path d="M80.1,283.2c0.7,0,1.4,0.1,2,0.4c0.6,0.2,1.1,0.6,1.6,1.1c0.4,0.5,0.8,1,1.1,1.7c0.3,0.7,0.4,1.4,0.4,2.3
				c0,0.3,0,0.6-0.1,0.7c-0.1,0.1-0.2,0.2-0.4,0.2h-8.1c0,0.8,0.1,1.4,0.3,2s0.5,1,0.8,1.4s0.7,0.7,1.2,0.9c0.5,0.2,1,0.3,1.6,0.3
				c0.5,0,1-0.1,1.4-0.2c0.4-0.1,0.7-0.3,1-0.4c0.3-0.1,0.5-0.3,0.7-0.4s0.3-0.2,0.5-0.2c0.2,0,0.3,0.1,0.4,0.2l0.6,0.8
				c-0.3,0.3-0.6,0.6-0.9,0.8c-0.4,0.2-0.8,0.4-1.2,0.6c-0.4,0.2-0.9,0.3-1.3,0.3c-0.4,0.1-0.9,0.1-1.3,0.1c-0.8,0-1.6-0.1-2.3-0.4
				c-0.7-0.3-1.3-0.7-1.8-1.2s-0.9-1.2-1.2-2c-0.3-0.8-0.4-1.7-0.4-2.8c0-0.8,0.1-1.6,0.4-2.4c0.3-0.7,0.6-1.4,1.1-1.9
				c0.5-0.5,1.1-1,1.8-1.3C78.4,283.4,79.2,283.2,80.1,283.2z M80.1,284.8c-1,0-1.8,0.3-2.4,0.9c-0.6,0.6-1,1.4-1.1,2.5h6.6
				c0-0.5-0.1-1-0.2-1.4c-0.1-0.4-0.3-0.8-0.6-1.1c-0.3-0.3-0.6-0.5-1-0.7S80.6,284.8,80.1,284.8z M83.6,278.2l-2.8,3.1
				c-0.1,0.1-0.2,0.2-0.3,0.3c-0.1,0.1-0.2,0.1-0.4,0.1h-1.3l1.8-2.9c0.1-0.2,0.2-0.3,0.4-0.4c0.1-0.1,0.3-0.1,0.6-0.1H83.6z"/>
			<path d="M96.8,295.6h-0.9c-0.2,0-0.4,0-0.5-0.1c-0.1-0.1-0.2-0.2-0.3-0.4l-0.2-1.1c-0.3,0.3-0.6,0.5-0.9,0.8
				c-0.3,0.2-0.6,0.4-1,0.6c-0.3,0.2-0.7,0.3-1.1,0.4c-0.4,0.1-0.8,0.1-1.3,0.1c-0.5,0-0.9-0.1-1.3-0.2c-0.4-0.1-0.8-0.3-1.1-0.6
				c-0.3-0.3-0.5-0.6-0.7-1c-0.2-0.4-0.3-0.9-0.3-1.4c0-0.5,0.1-0.9,0.4-1.4c0.3-0.4,0.7-0.8,1.3-1.2c0.6-0.3,1.4-0.6,2.3-0.8
				s2.1-0.3,3.5-0.3v-1c0-1-0.2-1.7-0.6-2.2c-0.4-0.5-1-0.7-1.8-0.7c-0.5,0-1,0.1-1.3,0.2c-0.4,0.1-0.7,0.3-0.9,0.4
				s-0.5,0.3-0.7,0.4c-0.2,0.1-0.4,0.2-0.6,0.2c-0.1,0-0.3,0-0.4-0.1c-0.1-0.1-0.2-0.2-0.3-0.3l-0.4-0.7c0.7-0.6,1.4-1.1,2.2-1.5
				c0.8-0.3,1.6-0.5,2.6-0.5c0.7,0,1.3,0.1,1.8,0.3c0.5,0.2,1,0.5,1.3,0.9c0.4,0.4,0.6,0.9,0.8,1.5s0.3,1.2,0.3,1.9V295.6z
				 M91.2,294.3c0.4,0,0.7,0,1-0.1s0.6-0.2,0.9-0.3c0.3-0.1,0.5-0.3,0.8-0.5c0.3-0.2,0.5-0.4,0.7-0.7v-2.5c-1,0-1.8,0.1-2.5,0.2
				c-0.7,0.1-1.2,0.3-1.7,0.5s-0.7,0.4-0.9,0.7c-0.2,0.3-0.3,0.6-0.3,0.9c0,0.3,0.1,0.6,0.2,0.8s0.2,0.4,0.4,0.6s0.4,0.3,0.6,0.3
				C90.7,294.2,91,294.3,91.2,294.3z"/>
			<path d="M103.7,295.8c-1,0-1.7-0.3-2.2-0.8c-0.5-0.5-0.8-1.3-0.8-2.3v-7.4h-1.5c-0.1,0-0.2,0-0.3-0.1c-0.1-0.1-0.1-0.2-0.1-0.4
				v-0.9l2-0.3l0.5-3.8c0-0.1,0.1-0.2,0.2-0.3c0.1-0.1,0.2-0.1,0.3-0.1h1.1v4.2h3.5v1.5h-3.5v7.3c0,0.5,0.1,0.9,0.4,1.1
				c0.2,0.2,0.6,0.4,1,0.4c0.2,0,0.4,0,0.6-0.1s0.3-0.1,0.4-0.2c0.1-0.1,0.2-0.1,0.3-0.2s0.2-0.1,0.2-0.1c0.1,0,0.2,0.1,0.3,0.2
				l0.6,1c-0.4,0.3-0.8,0.6-1.3,0.8S104.3,295.8,103.7,295.8z"/>
			<path d="M111.8,279.6c0,0.2,0,0.4-0.1,0.6c-0.1,0.2-0.2,0.3-0.3,0.5c-0.1,0.1-0.3,0.3-0.5,0.3c-0.2,0.1-0.4,0.1-0.6,0.1
				s-0.4,0-0.6-0.1c-0.2-0.1-0.3-0.2-0.5-0.3c-0.1-0.1-0.2-0.3-0.3-0.5c-0.1-0.2-0.1-0.4-0.1-0.6c0-0.2,0-0.4,0.1-0.6
				c0.1-0.2,0.2-0.4,0.3-0.5c0.1-0.1,0.3-0.2,0.5-0.3c0.2-0.1,0.4-0.1,0.6-0.1s0.4,0,0.6,0.1c0.2,0.1,0.3,0.2,0.5,0.3
				c0.1,0.1,0.3,0.3,0.3,0.5S111.8,279.4,111.8,279.6z M111.3,283.4v12.2h-2.1v-12.2H111.3z"/>
			<path d="M120,283.2c0.9,0,1.7,0.1,2.4,0.4c0.7,0.3,1.3,0.7,1.8,1.3s0.9,1.2,1.2,2c0.3,0.8,0.4,1.6,0.4,2.6c0,1-0.1,1.8-0.4,2.6
				c-0.3,0.8-0.7,1.4-1.2,2s-1.1,1-1.8,1.3c-0.7,0.3-1.5,0.4-2.4,0.4c-0.9,0-1.7-0.1-2.4-0.4c-0.7-0.3-1.3-0.7-1.8-1.3
				s-0.9-1.2-1.2-2c-0.3-0.8-0.4-1.6-0.4-2.6c0-1,0.1-1.8,0.4-2.6s0.7-1.4,1.2-2s1.1-1,1.8-1.3C118.3,283.4,119.1,283.2,120,283.2z
				 M120,294.1c1.2,0,2.1-0.4,2.7-1.2c0.6-0.8,0.9-1.9,0.9-3.4c0-1.4-0.3-2.6-0.9-3.4c-0.6-0.8-1.5-1.2-2.7-1.2
				c-0.6,0-1.1,0.1-1.6,0.3s-0.8,0.5-1.1,0.9c-0.3,0.4-0.5,0.9-0.7,1.4c-0.1,0.6-0.2,1.2-0.2,1.9c0,0.7,0.1,1.4,0.2,1.9
				c0.1,0.6,0.4,1,0.7,1.4c0.3,0.4,0.7,0.7,1.1,0.9S119.4,294.1,120,294.1z"/>
			<path d="M128.5,295.6v-12.2h1.3c0.3,0,0.5,0.1,0.6,0.4l0.2,1.3c0.5-0.6,1.1-1.1,1.8-1.4c0.7-0.4,1.4-0.5,2.3-0.5
				c0.7,0,1.2,0.1,1.8,0.3c0.5,0.2,0.9,0.5,1.3,0.9c0.3,0.4,0.6,0.9,0.8,1.5c0.2,0.6,0.3,1.2,0.3,1.9v7.7h-2.1v-7.7
				c0-0.9-0.2-1.6-0.6-2.1c-0.4-0.5-1.1-0.8-1.9-0.8c-0.6,0-1.2,0.2-1.8,0.5c-0.5,0.3-1.1,0.7-1.5,1.2v9H128.5z"/>
			<path d="M146.4,295.6v-12.2h1.3c0.3,0,0.5,0.1,0.6,0.4l0.2,1.3c0.5-0.6,1.1-1.1,1.8-1.4c0.7-0.4,1.4-0.5,2.3-0.5
				c0.7,0,1.2,0.1,1.8,0.3c0.5,0.2,0.9,0.5,1.3,0.9c0.3,0.4,0.6,0.9,0.8,1.5c0.2,0.6,0.3,1.2,0.3,1.9v7.7h-2.1v-7.7
				c0-0.9-0.2-1.6-0.6-2.1c-0.4-0.5-1.1-0.8-1.9-0.8c-0.6,0-1.2,0.2-1.8,0.5c-0.5,0.3-1.1,0.7-1.5,1.2v9H146.4z"/>
			<path d="M164.7,283.2c0.9,0,1.7,0.1,2.4,0.4c0.7,0.3,1.3,0.7,1.8,1.3s0.9,1.2,1.2,2c0.3,0.8,0.4,1.6,0.4,2.6c0,1-0.1,1.8-0.4,2.6
				c-0.3,0.8-0.7,1.4-1.2,2s-1.1,1-1.8,1.3c-0.7,0.3-1.5,0.4-2.4,0.4c-0.9,0-1.7-0.1-2.4-0.4c-0.7-0.3-1.3-0.7-1.8-1.3
				s-0.9-1.2-1.2-2c-0.3-0.8-0.4-1.6-0.4-2.6c0-1,0.1-1.8,0.4-2.6s0.7-1.4,1.2-2s1.1-1,1.8-1.3C163,283.4,163.8,283.2,164.7,283.2z
				 M164.7,294.1c1.2,0,2.1-0.4,2.7-1.2c0.6-0.8,0.9-1.9,0.9-3.4c0-1.4-0.3-2.6-0.9-3.4c-0.6-0.8-1.5-1.2-2.7-1.2
				c-0.6,0-1.1,0.1-1.6,0.3s-0.8,0.5-1.1,0.9c-0.3,0.4-0.5,0.9-0.7,1.4c-0.1,0.6-0.2,1.2-0.2,1.9c0,0.7,0.1,1.4,0.2,1.9
				c0.1,0.6,0.4,1,0.7,1.4c0.3,0.4,0.7,0.7,1.1,0.9S164.1,294.1,164.7,294.1z"/>
			<path d="M175,283.4v7.8c0,0.9,0.2,1.6,0.6,2.1c0.4,0.5,1.1,0.8,1.9,0.8c0.6,0,1.2-0.1,1.8-0.4c0.6-0.3,1.1-0.7,1.5-1.2v-9h2.1
				v12.2h-1.3c-0.3,0-0.5-0.1-0.6-0.4l-0.2-1.3c-0.5,0.6-1.1,1.1-1.8,1.4c-0.7,0.4-1.4,0.5-2.3,0.5c-0.7,0-1.3-0.1-1.8-0.3
				c-0.5-0.2-0.9-0.5-1.3-0.9c-0.3-0.4-0.6-0.9-0.8-1.5c-0.2-0.6-0.3-1.2-0.3-1.9v-7.8H175z"/>
			<path d="M184.9,283.4h1.8c0.2,0,0.3,0,0.4,0.1c0.1,0.1,0.2,0.2,0.2,0.3l3.1,7.8c0.1,0.3,0.2,0.6,0.3,0.9s0.1,0.6,0.2,0.9
				c0.1-0.3,0.1-0.6,0.2-0.9c0.1-0.3,0.2-0.6,0.3-0.9l3.1-7.8c0-0.1,0.1-0.2,0.2-0.3c0.1-0.1,0.2-0.1,0.4-0.1h1.7l-5,12.2h-1.9
				L184.9,283.4z"/>
			<path d="M203.3,283.2c0.7,0,1.4,0.1,2,0.4c0.6,0.2,1.1,0.6,1.6,1.1c0.4,0.5,0.8,1,1.1,1.7c0.3,0.7,0.4,1.4,0.4,2.3
				c0,0.3,0,0.6-0.1,0.7c-0.1,0.1-0.2,0.2-0.4,0.2h-8.1c0,0.8,0.1,1.4,0.3,2s0.5,1,0.8,1.4s0.7,0.7,1.2,0.9c0.5,0.2,1,0.3,1.6,0.3
				c0.5,0,1-0.1,1.4-0.2c0.4-0.1,0.7-0.3,1-0.4c0.3-0.1,0.5-0.3,0.7-0.4s0.3-0.2,0.5-0.2c0.2,0,0.3,0.1,0.4,0.2l0.6,0.8
				c-0.3,0.3-0.6,0.6-0.9,0.8c-0.4,0.2-0.8,0.4-1.2,0.6c-0.4,0.2-0.9,0.3-1.3,0.3c-0.4,0.1-0.9,0.1-1.3,0.1c-0.8,0-1.6-0.1-2.3-0.4
				c-0.7-0.3-1.3-0.7-1.8-1.2s-0.9-1.2-1.2-2c-0.3-0.8-0.4-1.7-0.4-2.8c0-0.8,0.1-1.6,0.4-2.4c0.3-0.7,0.6-1.4,1.1-1.9
				c0.5-0.5,1.1-1,1.8-1.3C201.6,283.4,202.4,283.2,203.3,283.2z M203.3,284.8c-1,0-1.8,0.3-2.4,0.9c-0.6,0.6-1,1.4-1.1,2.5h6.6
				c0-0.5-0.1-1-0.2-1.4c-0.1-0.4-0.3-0.8-0.6-1.1c-0.3-0.3-0.6-0.5-1-0.7S203.8,284.8,203.3,284.8z"/>
			<path d="M213.4,277.9v17.7h-2.1v-17.7H213.4z"/>
			<path d="M219.5,277.9v17.7h-2.1v-17.7H219.5z"/>
			<path d="M228.1,283.2c0.7,0,1.4,0.1,2,0.4c0.6,0.2,1.1,0.6,1.6,1.1c0.4,0.5,0.8,1,1.1,1.7c0.3,0.7,0.4,1.4,0.4,2.3
				c0,0.3,0,0.6-0.1,0.7c-0.1,0.1-0.2,0.2-0.4,0.2h-8.1c0,0.8,0.1,1.4,0.3,2s0.5,1,0.8,1.4s0.7,0.7,1.2,0.9c0.5,0.2,1,0.3,1.6,0.3
				c0.5,0,1-0.1,1.4-0.2c0.4-0.1,0.7-0.3,1-0.4c0.3-0.1,0.5-0.3,0.7-0.4s0.3-0.2,0.5-0.2c0.2,0,0.3,0.1,0.4,0.2l0.6,0.8
				c-0.3,0.3-0.6,0.6-0.9,0.8c-0.4,0.2-0.8,0.4-1.2,0.6c-0.4,0.2-0.9,0.3-1.3,0.3c-0.4,0.1-0.9,0.1-1.3,0.1c-0.8,0-1.6-0.1-2.3-0.4
				c-0.7-0.3-1.3-0.7-1.8-1.2s-0.9-1.2-1.2-2c-0.3-0.8-0.4-1.7-0.4-2.8c0-0.8,0.1-1.6,0.4-2.4c0.3-0.7,0.6-1.4,1.1-1.9
				c0.5-0.5,1.1-1,1.8-1.3C226.4,283.4,227.2,283.2,228.1,283.2z M228.2,284.8c-1,0-1.8,0.3-2.4,0.9c-0.6,0.6-1,1.4-1.1,2.5h6.6
				c0-0.5-0.1-1-0.2-1.4c-0.1-0.4-0.3-0.8-0.6-1.1c-0.3-0.3-0.6-0.5-1-0.7S228.7,284.8,228.2,284.8z"/>
			<path d="M47.6,312.2h1.8c0.2,0,0.3,0,0.4,0.1c0.1,0.1,0.2,0.2,0.2,0.3l3.1,7.8c0.1,0.3,0.2,0.6,0.3,0.9s0.1,0.6,0.2,0.9
				c0.1-0.3,0.1-0.6,0.2-0.9c0.1-0.3,0.2-0.6,0.3-0.9l3.1-7.8c0-0.1,0.1-0.2,0.2-0.3c0.1-0.1,0.2-0.1,0.4-0.1h1.7l-5,12.2h-1.9
				L47.6,312.2z"/>
			<path d="M70.4,324.4h-0.9c-0.2,0-0.4,0-0.5-0.1c-0.1-0.1-0.2-0.2-0.3-0.4l-0.2-1.1c-0.3,0.3-0.6,0.5-0.9,0.8
				c-0.3,0.2-0.6,0.4-1,0.6c-0.3,0.2-0.7,0.3-1.1,0.4c-0.4,0.1-0.8,0.1-1.3,0.1c-0.5,0-0.9-0.1-1.3-0.2c-0.4-0.1-0.8-0.3-1.1-0.6
				c-0.3-0.3-0.5-0.6-0.7-1c-0.2-0.4-0.3-0.9-0.3-1.4c0-0.5,0.1-0.9,0.4-1.4c0.3-0.4,0.7-0.8,1.3-1.2c0.6-0.3,1.4-0.6,2.3-0.8
				c1-0.2,2.1-0.3,3.5-0.3v-1c0-1-0.2-1.7-0.6-2.2c-0.4-0.5-1-0.7-1.8-0.7c-0.5,0-1,0.1-1.3,0.2c-0.4,0.1-0.7,0.3-0.9,0.4
				s-0.5,0.3-0.7,0.4c-0.2,0.1-0.4,0.2-0.6,0.2c-0.1,0-0.3,0-0.4-0.1c-0.1-0.1-0.2-0.2-0.3-0.3l-0.4-0.7c0.7-0.6,1.4-1.1,2.2-1.5
				c0.8-0.3,1.6-0.5,2.6-0.5c0.7,0,1.3,0.1,1.8,0.3c0.5,0.2,1,0.5,1.3,0.9c0.4,0.4,0.6,0.9,0.8,1.5s0.3,1.2,0.3,1.9V324.4z
				 M64.8,323.1c0.4,0,0.7,0,1-0.1s0.6-0.2,0.9-0.3c0.3-0.1,0.5-0.3,0.8-0.5c0.3-0.2,0.5-0.4,0.7-0.7v-2.5c-1,0-1.8,0.1-2.5,0.2
				c-0.7,0.1-1.2,0.3-1.7,0.5c-0.4,0.2-0.7,0.4-0.9,0.7c-0.2,0.3-0.3,0.6-0.3,0.9c0,0.3,0.1,0.6,0.2,0.8s0.2,0.4,0.4,0.6
				s0.4,0.3,0.6,0.3C64.3,323,64.6,323.1,64.8,323.1z"/>
			<path d="M73.6,324.4v-12.2h1.2c0.2,0,0.4,0,0.5,0.1c0.1,0.1,0.1,0.2,0.2,0.5l0.1,1.9c0.4-0.8,0.9-1.5,1.5-2
				c0.6-0.5,1.3-0.7,2.2-0.7c0.3,0,0.6,0,0.9,0.1c0.3,0.1,0.5,0.2,0.8,0.3l-0.3,1.6c-0.1,0.2-0.2,0.3-0.4,0.3c-0.1,0-0.3,0-0.5-0.1
				c-0.2-0.1-0.6-0.1-1-0.1c-0.7,0-1.4,0.2-1.9,0.6s-0.9,1.1-1.3,1.9v7.7H73.6z"/>
			<path d="M86.1,308.4c0,0.2,0,0.4-0.1,0.6c-0.1,0.2-0.2,0.3-0.3,0.5c-0.1,0.1-0.3,0.3-0.5,0.3c-0.2,0.1-0.4,0.1-0.6,0.1
				s-0.4,0-0.6-0.1c-0.2-0.1-0.3-0.2-0.5-0.3c-0.1-0.1-0.2-0.3-0.3-0.5c-0.1-0.2-0.1-0.4-0.1-0.6c0-0.2,0-0.4,0.1-0.6
				c0.1-0.2,0.2-0.4,0.3-0.5c0.1-0.1,0.3-0.2,0.5-0.3c0.2-0.1,0.4-0.1,0.6-0.1s0.4,0,0.6,0.1c0.2,0.1,0.3,0.2,0.5,0.3
				c0.1,0.1,0.3,0.3,0.3,0.5S86.1,308.2,86.1,308.4z M85.7,312.2v12.2h-2.1v-12.2H85.7z"/>
			<path d="M98.4,324.4h-0.9c-0.2,0-0.4,0-0.5-0.1c-0.1-0.1-0.2-0.2-0.3-0.4l-0.2-1.1c-0.3,0.3-0.6,0.5-0.9,0.8
				c-0.3,0.2-0.6,0.4-1,0.6c-0.3,0.2-0.7,0.3-1.1,0.4c-0.4,0.1-0.8,0.1-1.3,0.1c-0.5,0-0.9-0.1-1.3-0.2c-0.4-0.1-0.8-0.3-1.1-0.6
				c-0.3-0.3-0.5-0.6-0.7-1c-0.2-0.4-0.3-0.9-0.3-1.4c0-0.5,0.1-0.9,0.4-1.4c0.3-0.4,0.7-0.8,1.3-1.2c0.6-0.3,1.4-0.6,2.3-0.8
				s2.1-0.3,3.5-0.3v-1c0-1-0.2-1.7-0.6-2.2c-0.4-0.5-1-0.7-1.8-0.7c-0.5,0-1,0.1-1.3,0.2c-0.4,0.1-0.7,0.3-0.9,0.4
				s-0.5,0.3-0.7,0.4c-0.2,0.1-0.4,0.2-0.6,0.2c-0.1,0-0.3,0-0.4-0.1c-0.1-0.1-0.2-0.2-0.3-0.3l-0.4-0.7c0.7-0.6,1.4-1.1,2.2-1.5
				c0.8-0.3,1.6-0.5,2.6-0.5c0.7,0,1.3,0.1,1.8,0.3c0.5,0.2,1,0.5,1.3,0.9c0.4,0.4,0.6,0.9,0.8,1.5s0.3,1.2,0.3,1.9V324.4z
				 M92.8,323.1c0.4,0,0.7,0,1-0.1s0.6-0.2,0.9-0.3c0.3-0.1,0.5-0.3,0.8-0.5c0.3-0.2,0.5-0.4,0.7-0.7v-2.5c-1,0-1.8,0.1-2.5,0.2
				c-0.7,0.1-1.2,0.3-1.7,0.5s-0.7,0.4-0.9,0.7c-0.2,0.3-0.3,0.6-0.3,0.9c0,0.3,0.1,0.6,0.2,0.8s0.2,0.4,0.4,0.6s0.4,0.3,0.6,0.3
				C92.3,323,92.5,323.1,92.8,323.1z"/>
			<path d="M101.6,324.4v-12.2h1.3c0.3,0,0.5,0.1,0.6,0.4l0.2,1.3c0.5-0.6,1.1-1.1,1.8-1.4c0.7-0.4,1.4-0.5,2.3-0.5
				c0.7,0,1.2,0.1,1.8,0.3c0.5,0.2,0.9,0.5,1.3,0.9c0.3,0.4,0.6,0.9,0.8,1.5c0.2,0.6,0.3,1.2,0.3,1.9v7.7h-2.1v-7.7
				c0-0.9-0.2-1.6-0.6-2.1c-0.4-0.5-1.1-0.8-1.9-0.8c-0.6,0-1.2,0.2-1.8,0.5c-0.5,0.3-1.1,0.7-1.5,1.2v9H101.6z"/>
			<path d="M118.6,324.6c-1,0-1.7-0.3-2.2-0.8c-0.5-0.5-0.8-1.3-0.8-2.3V314h-1.5c-0.1,0-0.2,0-0.3-0.1c-0.1-0.1-0.1-0.2-0.1-0.4
				v-0.9l2-0.3l0.5-3.8c0-0.1,0.1-0.2,0.2-0.3c0.1-0.1,0.2-0.1,0.3-0.1h1.1v4.2h3.5v1.5h-3.5v7.3c0,0.5,0.1,0.9,0.4,1.1
				c0.2,0.2,0.6,0.4,1,0.4c0.2,0,0.4,0,0.6-0.1s0.3-0.1,0.4-0.2c0.1-0.1,0.2-0.1,0.3-0.2s0.2-0.1,0.2-0.1c0.1,0,0.2,0.1,0.3,0.2
				l0.6,1c-0.4,0.3-0.8,0.6-1.3,0.8S119.2,324.6,118.6,324.6z"/>
			<path d="M128.7,312c0.7,0,1.4,0.1,2,0.4c0.6,0.2,1.1,0.6,1.6,1.1c0.4,0.5,0.8,1,1.1,1.7c0.3,0.7,0.4,1.4,0.4,2.3
				c0,0.3,0,0.6-0.1,0.7c-0.1,0.1-0.2,0.2-0.4,0.2h-8.1c0,0.8,0.1,1.4,0.3,2s0.5,1,0.8,1.4s0.7,0.7,1.2,0.9c0.5,0.2,1,0.3,1.6,0.3
				c0.5,0,1-0.1,1.4-0.2c0.4-0.1,0.7-0.3,1-0.4c0.3-0.1,0.5-0.3,0.7-0.4s0.3-0.2,0.5-0.2c0.2,0,0.3,0.1,0.4,0.2l0.6,0.8
				c-0.3,0.3-0.6,0.6-0.9,0.8c-0.4,0.2-0.8,0.4-1.2,0.6c-0.4,0.2-0.9,0.3-1.3,0.3c-0.4,0.1-0.9,0.1-1.3,0.1c-0.8,0-1.6-0.1-2.3-0.4
				c-0.7-0.3-1.3-0.7-1.8-1.2s-0.9-1.2-1.2-2c-0.3-0.8-0.4-1.7-0.4-2.8c0-0.8,0.1-1.6,0.4-2.4c0.3-0.7,0.6-1.4,1.1-1.9
				c0.5-0.5,1.1-1,1.8-1.3C127,312.2,127.8,312,128.7,312z M128.8,313.6c-1,0-1.8,0.3-2.4,0.9c-0.6,0.6-1,1.4-1.1,2.5h6.6
				c0-0.5-0.1-1-0.2-1.4c-0.1-0.4-0.3-0.8-0.6-1.1c-0.3-0.3-0.6-0.5-1-0.7S129.2,313.6,128.8,313.6z"/>
			<path d="M141,318.2v-0.3l3-4.7l0.7,0.3c0.1,0.1,0.2,0.1,0.3,0.2c0.1,0.1,0.1,0.2,0.1,0.3c0,0.1,0,0.3-0.1,0.4l-1.9,3.1
				c-0.1,0.2-0.2,0.3-0.3,0.4c0.1,0.1,0.2,0.3,0.3,0.4l1.9,3.1c0,0.1,0.1,0.1,0.1,0.2c0,0.1,0,0.1,0,0.2c0,0.2-0.1,0.4-0.3,0.5
				l-0.7,0.3L141,318.2z M144.6,318.2v-0.3l3-4.7l0.7,0.3c0.1,0.1,0.2,0.1,0.3,0.2c0.1,0.1,0.1,0.2,0.1,0.3c0,0.1,0,0.3-0.1,0.4
				l-1.9,3.1c-0.1,0.2-0.2,0.3-0.3,0.4c0.1,0.1,0.2,0.3,0.3,0.4l1.9,3.1c0,0.1,0.1,0.1,0.1,0.2c0,0.1,0,0.1,0,0.2
				c0,0.2-0.1,0.4-0.3,0.5l-0.7,0.3L144.6,318.2z"/>
			<path d="M168.9,307.2v2h-5.6v15.2H161v-15.2h-5.6v-2H168.9z"/>
			<path d="M169.1,324.4v-12.2h1.2c0.2,0,0.4,0,0.5,0.1c0.1,0.1,0.1,0.2,0.2,0.5l0.1,1.9c0.4-0.8,0.9-1.5,1.5-2
				c0.6-0.5,1.3-0.7,2.2-0.7c0.3,0,0.6,0,0.9,0.1c0.3,0.1,0.5,0.2,0.8,0.3l-0.3,1.6c-0.1,0.2-0.2,0.3-0.4,0.3c-0.1,0-0.3,0-0.5-0.1
				c-0.2-0.1-0.6-0.1-1-0.1c-0.7,0-1.4,0.2-1.9,0.6s-0.9,1.1-1.3,1.9v7.7H169.1z"/>
			<path d="M187.2,324.4h-0.9c-0.2,0-0.4,0-0.5-0.1c-0.1-0.1-0.2-0.2-0.3-0.4l-0.2-1.1c-0.3,0.3-0.6,0.5-0.9,0.8
				c-0.3,0.2-0.6,0.4-1,0.6c-0.3,0.2-0.7,0.3-1.1,0.4c-0.4,0.1-0.8,0.1-1.3,0.1c-0.5,0-0.9-0.1-1.3-0.2c-0.4-0.1-0.8-0.3-1.1-0.6
				c-0.3-0.3-0.5-0.6-0.7-1c-0.2-0.4-0.3-0.9-0.3-1.4c0-0.5,0.1-0.9,0.4-1.4c0.3-0.4,0.7-0.8,1.3-1.2c0.6-0.3,1.4-0.6,2.3-0.8
				s2.1-0.3,3.5-0.3v-1c0-1-0.2-1.7-0.6-2.2c-0.4-0.5-1-0.7-1.8-0.7c-0.5,0-1,0.1-1.3,0.2c-0.4,0.1-0.7,0.3-0.9,0.4
				s-0.5,0.3-0.7,0.4c-0.2,0.1-0.4,0.2-0.6,0.2c-0.1,0-0.3,0-0.4-0.1c-0.1-0.1-0.2-0.2-0.3-0.3l-0.4-0.7c0.7-0.6,1.4-1.1,2.2-1.5
				c0.8-0.3,1.6-0.5,2.6-0.5c0.7,0,1.3,0.1,1.8,0.3c0.5,0.2,1,0.5,1.3,0.9c0.4,0.4,0.6,0.9,0.8,1.5s0.3,1.2,0.3,1.9V324.4z
				 M181.7,323.1c0.4,0,0.7,0,1-0.1s0.6-0.2,0.9-0.3c0.3-0.1,0.5-0.3,0.8-0.5c0.3-0.2,0.5-0.4,0.7-0.7v-2.5c-1,0-1.8,0.1-2.5,0.2
				c-0.7,0.1-1.2,0.3-1.7,0.5s-0.7,0.4-0.9,0.7c-0.2,0.3-0.3,0.6-0.3,0.9c0,0.3,0.1,0.6,0.2,0.8s0.2,0.4,0.4,0.6s0.4,0.3,0.6,0.3
				C181.1,323,181.4,323.1,181.7,323.1z"/>
			<path d="M198.8,314.4c-0.1,0.1-0.1,0.2-0.2,0.2s-0.2,0.1-0.3,0.1c-0.1,0-0.3,0-0.4-0.1c-0.1-0.1-0.3-0.2-0.5-0.3
				c-0.2-0.1-0.5-0.2-0.8-0.3c-0.3-0.1-0.7-0.2-1.1-0.2c-0.6,0-1.1,0.1-1.6,0.3s-0.8,0.5-1.1,0.9c-0.3,0.4-0.5,0.9-0.7,1.5
				c-0.2,0.6-0.2,1.2-0.2,1.9c0,0.7,0.1,1.4,0.3,2c0.2,0.6,0.4,1.1,0.7,1.4c0.3,0.4,0.7,0.7,1.1,0.9s0.9,0.3,1.5,0.3
				c0.5,0,0.9-0.1,1.3-0.2c0.3-0.1,0.6-0.3,0.8-0.4c0.2-0.2,0.4-0.3,0.6-0.4s0.3-0.2,0.4-0.2c0.2,0,0.3,0.1,0.4,0.2l0.6,0.8
				c-0.5,0.6-1.2,1.1-2,1.4c-0.8,0.3-1.6,0.5-2.5,0.5c-0.8,0-1.5-0.1-2.1-0.4c-0.7-0.3-1.2-0.7-1.7-1.2c-0.5-0.5-0.9-1.2-1.1-2
				c-0.3-0.8-0.4-1.7-0.4-2.7c0-0.9,0.1-1.7,0.4-2.5c0.3-0.8,0.6-1.4,1.1-2c0.5-0.6,1.1-1,1.8-1.3c0.7-0.3,1.5-0.5,2.4-0.5
				c0.8,0,1.6,0.1,2.3,0.4c0.7,0.3,1.2,0.7,1.7,1.2L198.8,314.4z"/>
			<path d="M205.4,324.6c-1,0-1.7-0.3-2.2-0.8c-0.5-0.5-0.8-1.3-0.8-2.3V314h-1.5c-0.1,0-0.2,0-0.3-0.1c-0.1-0.1-0.1-0.2-0.1-0.4
				v-0.9l2-0.3l0.5-3.8c0-0.1,0.1-0.2,0.2-0.3c0.1-0.1,0.2-0.1,0.3-0.1h1.1v4.2h3.5v1.5h-3.5v7.3c0,0.5,0.1,0.9,0.4,1.1
				c0.2,0.2,0.6,0.4,1,0.4c0.2,0,0.4,0,0.6-0.1s0.3-0.1,0.4-0.2c0.1-0.1,0.2-0.1,0.3-0.2s0.2-0.1,0.2-0.1c0.1,0,0.2,0.1,0.3,0.2
				l0.6,1c-0.4,0.3-0.8,0.6-1.3,0.8S205.9,324.6,205.4,324.6z"/>
			<path d="M215.4,312c0.7,0,1.4,0.1,2,0.4c0.6,0.2,1.1,0.6,1.6,1.1c0.4,0.5,0.8,1,1.1,1.7c0.3,0.7,0.4,1.4,0.4,2.3
				c0,0.3,0,0.6-0.1,0.7c-0.1,0.1-0.2,0.2-0.4,0.2h-8.1c0,0.8,0.1,1.4,0.3,2s0.5,1,0.8,1.4s0.7,0.7,1.2,0.9c0.5,0.2,1,0.3,1.6,0.3
				c0.5,0,1-0.1,1.4-0.2c0.4-0.1,0.7-0.3,1-0.4c0.3-0.1,0.5-0.3,0.7-0.4s0.3-0.2,0.5-0.2c0.2,0,0.3,0.1,0.4,0.2l0.6,0.8
				c-0.3,0.3-0.6,0.6-0.9,0.8c-0.4,0.2-0.8,0.4-1.2,0.6c-0.4,0.2-0.9,0.3-1.3,0.3c-0.4,0.1-0.9,0.1-1.3,0.1c-0.8,0-1.6-0.1-2.3-0.4
				c-0.7-0.3-1.3-0.7-1.8-1.2s-0.9-1.2-1.2-2c-0.3-0.8-0.4-1.7-0.4-2.8c0-0.8,0.1-1.6,0.4-2.4c0.3-0.7,0.6-1.4,1.1-1.9
				c0.5-0.5,1.1-1,1.8-1.3C213.8,312.2,214.6,312,215.4,312z M215.5,313.6c-1,0-1.8,0.3-2.4,0.9c-0.6,0.6-1,1.4-1.1,2.5h6.6
				c0-0.5-0.1-1-0.2-1.4c-0.1-0.4-0.3-0.8-0.6-1.1c-0.3-0.3-0.6-0.5-1-0.7S216,313.6,215.5,313.6z"/>
			<path d="M225.1,312.2v7.8c0,0.9,0.2,1.6,0.6,2.1c0.4,0.5,1.1,0.8,1.9,0.8c0.6,0,1.2-0.1,1.8-0.4c0.6-0.3,1.1-0.7,1.5-1.2v-9h2.1
				v12.2h-1.3c-0.3,0-0.5-0.1-0.6-0.4l-0.2-1.3c-0.5,0.6-1.1,1.1-1.8,1.4c-0.7,0.4-1.4,0.5-2.3,0.5c-0.7,0-1.3-0.1-1.8-0.3
				c-0.5-0.2-0.9-0.5-1.3-0.9c-0.3-0.4-0.6-0.9-0.8-1.5c-0.2-0.6-0.3-1.2-0.3-1.9v-7.8H225.1z"/>
			<path d="M236.6,324.4v-12.2h1.2c0.2,0,0.4,0,0.5,0.1c0.1,0.1,0.1,0.2,0.2,0.5l0.1,1.9c0.4-0.8,0.9-1.5,1.5-2
				c0.6-0.5,1.3-0.7,2.2-0.7c0.3,0,0.6,0,0.9,0.1c0.3,0.1,0.5,0.2,0.8,0.3l-0.3,1.6c-0.1,0.2-0.2,0.3-0.4,0.3c-0.1,0-0.3,0-0.5-0.1
				c-0.2-0.1-0.6-0.1-1-0.1c-0.7,0-1.4,0.2-1.9,0.6s-0.9,1.1-1.3,1.9v7.7H236.6z"/>
			<path d="M251.9,322.8l-0.7-0.3c-0.2-0.1-0.3-0.3-0.3-0.5c0-0.1,0-0.3,0.1-0.4l1.9-3.1c0.1-0.2,0.2-0.3,0.3-0.4
				c-0.1-0.1-0.2-0.2-0.3-0.4l-1.9-3.1c-0.1-0.1-0.1-0.3-0.1-0.4c0-0.2,0.1-0.4,0.3-0.5l0.7-0.3l3,4.7v0.3L251.9,322.8z
				 M258.5,317.9v0.3l-3,4.7l-0.7-0.3c-0.2-0.1-0.3-0.3-0.3-0.5c0-0.1,0-0.3,0.1-0.4l1.9-3.1c0.1-0.2,0.2-0.3,0.3-0.4
				c-0.1-0.1-0.2-0.2-0.3-0.4l-1.9-3.1c-0.1-0.1-0.1-0.3-0.1-0.4c0-0.2,0.1-0.4,0.3-0.5l0.7-0.3L258.5,317.9z"/>
		</g>
	</g>
	<g>
		<g>
			<g>
				<polyline class="st2" points="303.5,330.5 303.5,335.5 298.5,335.5 				"/>
				<line class="st3" x1="288.5" y1="335.5" x2="12.5" y2="335.5"/>
				<polyline class="st2" points="7.5,335.5 2.5,335.5 2.5,330.5 				"/>
				<line class="st4" x1="2.5" y1="320.7" x2="2.5" y2="11.4"/>
				<polyline class="st2" points="2.5,6.5 2.5,1.5 7.5,1.5 				"/>
				<line class="st3" x1="17.5" y1="1.5" x2="293.5" y2="1.5"/>
				<polyline class="st2" points="298.5,1.5 303.5,1.5 303.5,6.5 				"/>
				<line class="st4" x1="303.5" y1="16.3" x2="303.5" y2="325.6"/>
			</g>
		</g>
	</g>
</g>
<path class="st1" d="M389.5,299.6l-17.3-20c-0.4-0.5-0.9-0.7-1.4-0.7s-1,0.2-1.4,0.7s-0.6,1-0.6,1.7v16.6h-53v6.7h53v16.6
	c0,0.6,0.2,1.2,0.6,1.7s0.9,0.7,1.4,0.7s1-0.2,1.4-0.7l17.2-20c0.4-0.5,0.6-1,0.6-1.7C390.1,300.6,389.9,300.1,389.5,299.6z"/>
<path class="st1" d="M389.5,126.6l-17.3-20c-0.4-0.5-0.9-0.7-1.4-0.7s-1,0.2-1.4,0.7s-0.6,1-0.6,1.7v16.6h-53v6.7h53v16.6
	c0,0.6,0.2,1.2,0.6,1.7s0.9,0.7,1.4,0.7s1-0.2,1.4-0.7l17.2-20c0.4-0.5,0.6-1,0.6-1.7C390.1,127.6,389.9,127.1,389.5,126.6z"/>
<path class="st5" d="M508.8,13.3l-8.5,29.8H489V20.2h-4.8v22.7l-16.1,2l1.3,14.9h-9v15.7h6.2c0,0.3,0,0.7,0,1
	c0,7.9,6.5,14.2,14.2,14.2s14.2-6.2,14.2-14.2c0-2.8-0.8-5.3-2.2-7.5h15.4c1.1,12.3,11.6,21.6,23.7,21.6c12.8,0,23.9-10.4,23.9-23.9
	c0-10.7-7-19.5-16.3-22.6V13.3H508.8L508.8,13.3z M513.7,19.2H533V43c-0.3,0-0.7,0-1,0c-2.9,0-5.7,0.5-8.2,1.5l-16.6-1.3L513.7,19.2
	L513.7,19.2z M532,57.2c6.1,0,9.7,4.5,9.7,9.5s-3.6,9.5-9.7,9.5c-6.1,0-9.7-4.5-9.7-9.5S525.8,57.2,532,57.2z M480.8,69.6
	c4.2,0,7.3,3.2,7.3,6.9s-3.1,6.9-7.3,6.9c-4.2,0-7.3-3.2-7.3-6.9S476.6,69.6,480.8,69.6z"/>
<g>
	<path d="M457.4,118.2v2h-5.6v15.2h-2.3v-15.2h-5.6v-2H457.4z"/>
	<path d="M457.6,135.4v-12.2h1.2c0.2,0,0.4,0,0.5,0.1c0.1,0.1,0.1,0.2,0.2,0.5l0.1,1.9c0.4-0.8,0.9-1.5,1.5-2s1.3-0.7,2.2-0.7
		c0.3,0,0.6,0,0.9,0.1c0.3,0.1,0.5,0.2,0.8,0.3l-0.3,1.6c-0.1,0.2-0.2,0.3-0.4,0.3c-0.1,0-0.3,0-0.5-0.1c-0.2-0.1-0.6-0.1-1-0.1
		c-0.7,0-1.4,0.2-1.9,0.6c-0.5,0.4-0.9,1.1-1.3,1.9v7.7L457.6,135.4L457.6,135.4z"/>
	<path d="M475.7,135.4h-0.9c-0.2,0-0.4,0-0.5-0.1s-0.2-0.2-0.3-0.4l-0.2-1.1c-0.3,0.3-0.6,0.5-0.9,0.8c-0.3,0.2-0.6,0.4-1,0.6
		c-0.3,0.2-0.7,0.3-1.1,0.4c-0.4,0.1-0.8,0.1-1.3,0.1s-0.9-0.1-1.3-0.2c-0.4-0.1-0.8-0.3-1.1-0.6c-0.3-0.3-0.5-0.6-0.7-1
		s-0.3-0.9-0.3-1.4s0.1-0.9,0.4-1.4c0.3-0.4,0.7-0.8,1.3-1.2c0.6-0.3,1.4-0.6,2.3-0.8s2.1-0.3,3.5-0.3v-1c0-1-0.2-1.7-0.6-2.2
		s-1-0.7-1.8-0.7c-0.5,0-1,0.1-1.3,0.2c-0.4,0.1-0.7,0.3-0.9,0.4c-0.2,0.1-0.5,0.3-0.7,0.4c-0.2,0.1-0.4,0.2-0.6,0.2
		c-0.1,0-0.3,0-0.4-0.1c-0.1-0.1-0.2-0.2-0.3-0.3l-0.4-0.7c0.7-0.6,1.4-1.1,2.2-1.5c0.8-0.3,1.6-0.5,2.6-0.5c0.7,0,1.3,0.1,1.8,0.3
		s1,0.5,1.3,0.9c0.4,0.4,0.6,0.9,0.8,1.5c0.2,0.6,0.3,1.2,0.3,1.9L475.7,135.4L475.7,135.4z M470.2,134.1c0.4,0,0.7,0,1-0.1
		s0.6-0.2,0.9-0.3s0.5-0.3,0.8-0.5s0.5-0.4,0.7-0.7V130c-1,0-1.8,0.1-2.5,0.2c-0.7,0.1-1.2,0.3-1.7,0.5s-0.7,0.4-0.9,0.7
		s-0.3,0.6-0.3,0.9c0,0.3,0.1,0.6,0.2,0.8s0.2,0.4,0.4,0.6c0.2,0.2,0.4,0.3,0.6,0.3C469.7,134,469.9,134.1,470.2,134.1z"/>
	<path d="M487.2,125.4c-0.1,0.1-0.1,0.2-0.2,0.2s-0.2,0.1-0.3,0.1s-0.3,0-0.4-0.1c-0.1-0.1-0.3-0.2-0.5-0.3s-0.5-0.2-0.8-0.3
		s-0.7-0.2-1.1-0.2c-0.6,0-1.1,0.1-1.6,0.3c-0.5,0.2-0.8,0.5-1.1,0.9c-0.3,0.4-0.5,0.9-0.7,1.5c-0.2,0.6-0.2,1.2-0.2,1.9
		s0.1,1.4,0.3,2c0.2,0.6,0.4,1.1,0.7,1.4c0.3,0.4,0.7,0.7,1.1,0.9s0.9,0.3,1.5,0.3c0.5,0,0.9-0.1,1.3-0.2c0.3-0.1,0.6-0.3,0.8-0.4
		c0.2-0.2,0.4-0.3,0.6-0.4s0.3-0.2,0.4-0.2c0.2,0,0.3,0.1,0.4,0.2l0.6,0.8c-0.5,0.6-1.2,1.1-2,1.4c-0.8,0.3-1.6,0.5-2.5,0.5
		c-0.8,0-1.5-0.1-2.1-0.4c-0.7-0.3-1.2-0.7-1.7-1.2s-0.9-1.2-1.1-2c-0.3-0.8-0.4-1.7-0.4-2.7c0-0.9,0.1-1.7,0.4-2.5s0.6-1.4,1.1-2
		c0.5-0.6,1.1-1,1.8-1.3c0.7-0.3,1.5-0.5,2.4-0.5c0.8,0,1.6,0.1,2.3,0.4s1.2,0.7,1.7,1.2L487.2,125.4z"/>
	<path d="M493.9,135.6c-1,0-1.7-0.3-2.2-0.8s-0.8-1.3-0.8-2.3v-7.4h-1.5c-0.1,0-0.2,0-0.3-0.1c-0.1-0.1-0.1-0.2-0.1-0.4v-0.9l2-0.3
		l0.5-3.8c0-0.1,0.1-0.2,0.2-0.3s0.2-0.1,0.3-0.1h1.1v4.2h3.5v1.5H493v7.3c0,0.5,0.1,0.9,0.4,1.1c0.2,0.2,0.6,0.4,1,0.4
		c0.2,0,0.4,0,0.6-0.1s0.3-0.1,0.4-0.2c0.1-0.1,0.2-0.1,0.3-0.2s0.2-0.1,0.2-0.1c0.1,0,0.2,0.1,0.3,0.2l0.6,1
		c-0.4,0.3-0.8,0.6-1.3,0.8S494.4,135.6,493.9,135.6z"/>
	<path d="M504,123c0.7,0,1.4,0.1,2,0.4c0.6,0.2,1.1,0.6,1.6,1.1c0.4,0.5,0.8,1,1.1,1.7s0.4,1.4,0.4,2.3c0,0.3,0,0.6-0.1,0.7
		c-0.1,0.1-0.2,0.2-0.4,0.2h-8.1c0,0.8,0.1,1.4,0.3,2c0.2,0.6,0.5,1,0.8,1.4s0.7,0.7,1.2,0.9s1,0.3,1.6,0.3c0.5,0,1-0.1,1.4-0.2
		c0.4-0.1,0.7-0.3,1-0.4c0.3-0.1,0.5-0.3,0.7-0.4s0.3-0.2,0.5-0.2s0.3,0.1,0.4,0.2l0.6,0.8c-0.3,0.3-0.6,0.6-0.9,0.8
		c-0.4,0.2-0.8,0.4-1.2,0.6c-0.4,0.2-0.9,0.3-1.3,0.3c-0.4,0.1-0.9,0.1-1.3,0.1c-0.8,0-1.6-0.1-2.3-0.4c-0.7-0.3-1.3-0.7-1.8-1.2
		s-0.9-1.2-1.2-2s-0.4-1.7-0.4-2.8c0-0.8,0.1-1.6,0.4-2.4c0.3-0.7,0.6-1.4,1.1-1.9s1.1-1,1.8-1.3C502.2,123.2,503.1,123,504,123z
		 M504,124.6c-1,0-1.8,0.3-2.4,0.9c-0.6,0.6-1,1.4-1.1,2.5h6.6c0-0.5-0.1-1-0.2-1.4c-0.1-0.4-0.3-0.8-0.6-1.1
		c-0.3-0.3-0.6-0.5-1-0.7C504.9,124.6,504.5,124.6,504,124.6z"/>
	<path d="M513.5,123.2v7.8c0,0.9,0.2,1.6,0.6,2.1c0.4,0.5,1.1,0.8,1.9,0.8c0.6,0,1.2-0.1,1.8-0.4c0.6-0.3,1.1-0.7,1.5-1.2v-9h2.1
		v12.2h-1.3c-0.3,0-0.5-0.1-0.6-0.4l-0.2-1.3c-0.5,0.6-1.1,1.1-1.8,1.4c-0.7,0.4-1.4,0.5-2.3,0.5c-0.7,0-1.3-0.1-1.8-0.3
		s-0.9-0.5-1.3-0.9c-0.3-0.4-0.6-0.9-0.8-1.5c-0.2-0.6-0.3-1.2-0.3-1.9v-7.8h2.5L513.5,123.2L513.5,123.2z"/>
	<path d="M525,135.4v-12.2h1.2c0.2,0,0.4,0,0.5,0.1c0.1,0.1,0.1,0.2,0.2,0.5l0.1,1.9c0.4-0.8,0.9-1.5,1.5-2c0.6-0.5,1.3-0.7,2.2-0.7
		c0.3,0,0.6,0,0.9,0.1c0.3,0.1,0.5,0.2,0.8,0.3l-0.3,1.6c-0.1,0.2-0.2,0.3-0.4,0.3c-0.1,0-0.3,0-0.5-0.1c-0.2-0.1-0.6-0.1-1-0.1
		c-0.7,0-1.4,0.2-1.9,0.6c-0.5,0.4-0.9,1.1-1.3,1.9v7.7L525,135.4L525,135.4z"/>
	<path d="M539.3,135.4v-12.2h1.3c0.3,0,0.5,0.1,0.6,0.4l0.2,1.3c0.5-0.6,1.1-1.1,1.8-1.4c0.7-0.4,1.4-0.5,2.3-0.5
		c0.7,0,1.2,0.1,1.8,0.3c0.5,0.2,0.9,0.5,1.3,0.9c0.3,0.4,0.6,0.9,0.8,1.5c0.2,0.6,0.3,1.2,0.3,1.9v7.7h-2.1v-7.7
		c0-0.9-0.2-1.6-0.6-2.1c-0.4-0.5-1.1-0.8-1.9-0.8c-0.6,0-1.2,0.2-1.8,0.5c-0.5,0.3-1.1,0.7-1.5,1.2v9L539.3,135.4L539.3,135.4z"/>
	<path d="M550.8,121.9c0-0.5,0.1-1,0.3-1.5c0.2-0.5,0.5-0.9,0.8-1.2c0.4-0.3,0.8-0.6,1.2-0.8c0.5-0.2,1-0.3,1.5-0.3s1.1,0.1,1.5,0.3
		c0.5,0.2,0.9,0.5,1.2,0.8c0.4,0.3,0.6,0.8,0.8,1.2c0.2,0.5,0.3,1,0.3,1.5s-0.1,1-0.3,1.5c-0.2,0.5-0.5,0.9-0.8,1.2
		c-0.4,0.3-0.8,0.6-1.2,0.8c-0.5,0.2-1,0.3-1.5,0.3s-1.1-0.1-1.5-0.3c-0.5-0.2-0.9-0.5-1.2-0.8c-0.4-0.3-0.6-0.8-0.8-1.2
		C551,123,550.8,122.4,550.8,121.9z M552.5,121.9c0,0.3,0.1,0.6,0.2,0.9c0.1,0.3,0.3,0.5,0.5,0.8c0.2,0.2,0.5,0.4,0.8,0.5
		c0.3,0.1,0.6,0.2,0.9,0.2s0.6-0.1,0.9-0.2c0.3-0.1,0.5-0.3,0.8-0.5c0.2-0.2,0.4-0.5,0.5-0.8c0.1-0.3,0.2-0.6,0.2-0.9
		s-0.1-0.7-0.2-0.9c-0.1-0.3-0.3-0.6-0.5-0.8c-0.2-0.2-0.5-0.4-0.8-0.5c-0.3-0.1-0.6-0.2-0.9-0.2s-0.7,0.1-0.9,0.2
		c-0.3,0.1-0.5,0.3-0.8,0.5c-0.2,0.2-0.4,0.5-0.5,0.8C552.5,121.2,552.5,121.5,552.5,121.9z"/>
	<path d="M563,133.8h3.7v-11.7c0-0.4,0-0.7,0-1.1l-3.1,2.6c-0.1,0.1-0.2,0.1-0.2,0.1c-0.1,0-0.2,0-0.2,0c-0.1,0-0.2,0-0.3-0.1
		c-0.1-0.1-0.2-0.1-0.2-0.2l-0.7-0.9l5.1-4.4h1.7v15.7h3.4v1.6H563V133.8z"/>
</g>
<path class="st5" d="M880.8,13.3l-8.5,29.8H861V20.2h-4.8v22.7l-16.1,2l1.3,14.9h-9v15.7h6.2c0,0.3,0,0.7,0,1
	c0,7.9,6.5,14.2,14.2,14.2s14.2-6.2,14.2-14.2c0-2.8-0.8-5.3-2.2-7.5h15.4c1.1,12.3,11.6,21.6,23.7,21.6c12.8,0,23.9-10.4,23.9-23.9
	c0-10.7-7-19.5-16.3-22.6V13.3H880.8L880.8,13.3z M885.7,19.2H905V43c-0.3,0-0.7,0-1,0c-2.9,0-5.7,0.5-8.2,1.5l-16.6-1.3L885.7,19.2
	L885.7,19.2z M904,57.2c6.1,0,9.7,4.5,9.7,9.5s-3.6,9.5-9.7,9.5c-6.1,0-9.7-4.5-9.7-9.5S897.9,57.2,904,57.2z M852.8,69.6
	c4.2,0,7.3,3.2,7.3,6.9s-3.1,6.9-7.3,6.9s-7.3-3.2-7.3-6.9S848.5,69.6,852.8,69.6z"/>
<g>
	<path d="M784.2,132.2c0.1,0,0.2,0.1,0.3,0.2l0.9,1c-0.7,0.8-1.6,1.5-2.6,1.9s-2.2,0.7-3.6,0.7c-1.2,0-2.4-0.2-3.4-0.6
		c-1-0.4-1.9-1-2.6-1.8s-1.3-1.7-1.7-2.8s-0.6-2.3-0.6-3.6s0.2-2.5,0.6-3.6c0.4-1.1,1-2,1.8-2.8s1.7-1.4,2.7-1.8
		c1.1-0.4,2.2-0.6,3.5-0.6s2.4,0.2,3.3,0.6s1.7,0.9,2.4,1.6l-0.8,1.1c-0.1,0.1-0.1,0.1-0.2,0.2c-0.1,0.1-0.2,0.1-0.3,0.1
		s-0.2,0-0.3-0.1s-0.3-0.2-0.4-0.3c-0.2-0.1-0.3-0.2-0.6-0.4c-0.2-0.1-0.5-0.2-0.8-0.4c-0.3-0.1-0.6-0.2-1-0.3
		c-0.4-0.1-0.8-0.1-1.4-0.1c-0.9,0-1.8,0.2-2.5,0.5c-0.8,0.3-1.4,0.8-2,1.4s-1,1.3-1.3,2.1c-0.3,0.8-0.5,1.8-0.5,2.8
		c0,1.1,0.2,2,0.5,2.9c0.3,0.8,0.7,1.6,1.3,2.1c0.5,0.6,1.2,1,1.9,1.3s1.5,0.5,2.4,0.5c0.5,0,1,0,1.4-0.1s0.8-0.2,1.1-0.3
		s0.7-0.3,1-0.5s0.6-0.4,0.9-0.7C784,132.3,784.2,132.2,784.2,132.2z"/>
	<path d="M793.2,123.4c0.9,0,1.7,0.1,2.4,0.4s1.3,0.7,1.8,1.3s0.9,1.2,1.2,2s0.4,1.6,0.4,2.6s-0.1,1.8-0.4,2.6
		c-0.3,0.8-0.7,1.4-1.2,2s-1.1,1-1.8,1.3s-1.5,0.4-2.4,0.4s-1.7-0.1-2.4-0.4s-1.3-0.7-1.8-1.3s-0.9-1.2-1.2-2s-0.4-1.6-0.4-2.6
		s0.1-1.8,0.4-2.6c0.3-0.8,0.7-1.4,1.2-2s1.1-1,1.8-1.3S792.4,123.4,793.2,123.4z M793.2,134.3c1.2,0,2.1-0.4,2.7-1.2
		c0.6-0.8,0.9-1.9,0.9-3.4c0-1.4-0.3-2.6-0.9-3.4c-0.6-0.8-1.5-1.2-2.7-1.2c-0.6,0-1.1,0.1-1.6,0.3s-0.8,0.5-1.1,0.9
		s-0.5,0.9-0.7,1.4c-0.1,0.6-0.2,1.2-0.2,1.9s0.1,1.4,0.2,1.9c0.1,0.6,0.4,1,0.7,1.4s0.7,0.7,1.1,0.9S792.5,134.3,793.2,134.3z"/>
	<path d="M803.5,123.6v7.8c0,0.9,0.2,1.6,0.6,2.1s1.1,0.8,1.9,0.8c0.6,0,1.2-0.1,1.8-0.4c0.6-0.3,1.1-0.7,1.5-1.2v-9h2.1v12.2H810
		c-0.3,0-0.5-0.1-0.6-0.4l-0.2-1.3c-0.5,0.6-1.1,1.1-1.8,1.4c-0.7,0.4-1.4,0.5-2.3,0.5c-0.7,0-1.2-0.1-1.8-0.3
		c-0.5-0.2-0.9-0.5-1.3-0.9s-0.6-0.9-0.8-1.5s-0.3-1.2-0.3-1.9v-7.8h2.5L803.5,123.6L803.5,123.6z M810.2,121.8h-1.4
		c-0.2,0-0.3-0.1-0.5-0.2l-1.5-1.5l-0.2-0.2l-0.2,0.2l-1.5,1.5c0,0-0.1,0.1-0.2,0.1s-0.2,0.1-0.3,0.1h-1.5l2.7-3.2h2L810.2,121.8z"
		/>
	<path d="M818.7,136c-1,0-1.7-0.3-2.2-0.8s-0.8-1.3-0.8-2.3v-7.4h-1.5c-0.1,0-0.2,0-0.3-0.1s-0.1-0.2-0.1-0.4v-0.9l2-0.3l0.5-3.8
		c0-0.1,0.1-0.2,0.2-0.3c0.1-0.1,0.2-0.1,0.3-0.1h1.1v4.2h3.5v1.5h-3.5v7.3c0,0.5,0.1,0.9,0.4,1.1c0.2,0.2,0.6,0.4,1,0.4
		c0.2,0,0.4,0,0.6-0.1s0.3-0.1,0.4-0.2c0.1-0.1,0.2-0.1,0.3-0.2s0.2-0.1,0.2-0.1c0.1,0,0.2,0.1,0.3,0.2l0.6,1
		c-0.4,0.3-0.8,0.6-1.3,0.8C819.8,135.9,819.2,136,818.7,136z"/>
	<path d="M837.2,135.8c-0.3,0-0.5-0.1-0.6-0.4l-0.2-1.5c-0.5,0.6-1.1,1.1-1.8,1.5s-1.4,0.6-2.3,0.6c-0.7,0-1.3-0.1-1.9-0.4
		c-0.6-0.3-1.1-0.7-1.5-1.2s-0.7-1.2-0.9-1.9s-0.3-1.7-0.3-2.7c0-0.9,0.1-1.7,0.4-2.5s0.6-1.4,1-2s1-1,1.7-1.3
		c0.6-0.3,1.4-0.5,2.2-0.5c0.7,0,1.4,0.1,1.9,0.4s1,0.6,1.4,1.1v-6.7h2.1V136h-1.2L837.2,135.8L837.2,135.8z M833,134.2
		c0.7,0,1.3-0.2,1.8-0.5s1-0.8,1.4-1.4v-5.9c-0.4-0.5-0.8-0.9-1.3-1.1s-1-0.3-1.6-0.3c-1.1,0-2,0.4-2.6,1.2s-0.9,2-0.9,3.5
		c0,0.8,0.1,1.5,0.2,2c0.1,0.6,0.3,1,0.6,1.4s0.6,0.6,1,0.8S832.5,134.2,833,134.2z"/>
	<path d="M843.5,117.7c0.2,0.4,0.4,0.8,0.5,1.2c0.1,0.4,0.2,0.8,0.2,1.2c0,0.7-0.2,1.4-0.5,2.1c-0.4,0.7-0.8,1.3-1.5,1.8l-0.7-0.4
		c-0.1,0-0.1-0.1-0.1-0.1v-0.1c0-0.1,0-0.2,0.1-0.3c0.1-0.2,0.3-0.3,0.4-0.5c0.1-0.2,0.2-0.4,0.3-0.6s0.2-0.4,0.2-0.6
		s0.1-0.4,0.1-0.7c0-0.3,0-0.5-0.1-0.8s-0.2-0.6-0.4-0.9c-0.1-0.1-0.1-0.2-0.1-0.3c0-0.2,0.1-0.3,0.3-0.4L843.5,117.7z"/>
	<path d="M849,123.6v7.8c0,0.9,0.2,1.6,0.6,2.1s1.1,0.8,1.9,0.8c0.6,0,1.2-0.1,1.8-0.4c0.6-0.3,1.1-0.7,1.5-1.2v-9h2.1v12.2h-1.3
		c-0.3,0-0.5-0.1-0.6-0.4l-0.2-1.3c-0.5,0.6-1.1,1.1-1.8,1.4c-0.7,0.4-1.4,0.5-2.3,0.5c-0.7,0-1.2-0.1-1.8-0.3
		c-0.5-0.2-0.9-0.5-1.3-0.9s-0.6-0.9-0.8-1.5s-0.3-1.2-0.3-1.9v-7.8h2.5L849,123.6L849,123.6z"/>
	<path d="M864,136c-1,0-1.7-0.3-2.2-0.8s-0.8-1.3-0.8-2.3v-7.4h-1.5c-0.1,0-0.2,0-0.3-0.1s-0.1-0.2-0.1-0.4v-0.9l2-0.3l0.5-3.8
		c0-0.1,0.1-0.2,0.2-0.3c0.1-0.1,0.2-0.1,0.3-0.1h1.1v4.2h3.5v1.5h-3.5v7.3c0,0.5,0.1,0.9,0.4,1.1c0.2,0.2,0.6,0.4,1,0.4
		c0.2,0,0.4,0,0.6-0.1s0.3-0.1,0.4-0.2c0.1-0.1,0.2-0.1,0.3-0.2s0.2-0.1,0.2-0.1c0.1,0,0.2,0.1,0.3,0.2l0.6,1
		c-0.4,0.3-0.8,0.6-1.3,0.8C865.2,135.9,864.7,136,864,136z"/>
	<path d="M872.2,119.8c0,0.2,0,0.4-0.1,0.6s-0.2,0.3-0.3,0.5c-0.1,0.1-0.3,0.3-0.5,0.3c-0.2,0.1-0.4,0.1-0.6,0.1s-0.4,0-0.6-0.1
		c-0.2-0.1-0.3-0.2-0.5-0.3c-0.1-0.1-0.2-0.3-0.3-0.5s-0.1-0.4-0.1-0.6s0-0.4,0.1-0.6s0.2-0.4,0.3-0.5s0.3-0.2,0.5-0.3
		c0.2-0.1,0.4-0.1,0.6-0.1s0.4,0,0.6,0.1c0.2,0.1,0.3,0.2,0.5,0.3c0.1,0.1,0.3,0.3,0.3,0.5S872.2,119.6,872.2,119.8z M871.8,123.6
		v12.2h-2.1v-12.2H871.8z"/>
	<path d="M877.9,118.1v17.7h-2.1v-17.7C875.8,118.1,877.9,118.1,877.9,118.1z"/>
	<path d="M884.5,119.8c0,0.2,0,0.4-0.1,0.6s-0.2,0.3-0.3,0.5c-0.1,0.1-0.3,0.3-0.5,0.3c-0.2,0.1-0.4,0.1-0.6,0.1s-0.4,0-0.6-0.1
		c-0.2-0.1-0.3-0.2-0.5-0.3c-0.1-0.1-0.2-0.3-0.3-0.5s-0.1-0.4-0.1-0.6s0-0.4,0.1-0.6s0.2-0.4,0.3-0.5s0.3-0.2,0.5-0.3
		c0.2-0.1,0.4-0.1,0.6-0.1s0.4,0,0.6,0.1c0.2,0.1,0.3,0.2,0.5,0.3c0.1,0.1,0.3,0.3,0.3,0.5S884.5,119.6,884.5,119.8z M884,123.6
		v12.2H882v-12.2H884z"/>
	<path d="M894.8,125.6c-0.1,0.2-0.2,0.3-0.4,0.3c-0.1,0-0.3,0-0.4-0.1c-0.2-0.1-0.3-0.2-0.6-0.3c-0.2-0.1-0.5-0.2-0.8-0.3
		c-0.3-0.1-0.7-0.1-1.1-0.1c-0.4,0-0.7,0-1,0.1s-0.5,0.2-0.7,0.4s-0.4,0.3-0.5,0.6c-0.1,0.2-0.2,0.4-0.2,0.7s0.1,0.6,0.3,0.8
		s0.4,0.4,0.7,0.5c0.3,0.1,0.6,0.3,1,0.4s0.8,0.2,1.2,0.4c0.4,0.1,0.8,0.3,1.2,0.4c0.4,0.2,0.7,0.4,1,0.6c0.3,0.2,0.5,0.5,0.7,0.9
		c0.2,0.3,0.3,0.8,0.3,1.3c0,0.6-0.1,1.1-0.3,1.6s-0.5,0.9-0.9,1.2s-0.9,0.6-1.4,0.8c-0.6,0.2-1.2,0.3-2,0.3s-1.6-0.1-2.3-0.4
		c-0.7-0.3-1.3-0.6-1.8-1.1l0.5-0.8c0.1-0.1,0.1-0.2,0.2-0.2c0.1-0.1,0.2-0.1,0.3-0.1s0.3,0.1,0.5,0.2c0.2,0.1,0.4,0.2,0.6,0.4
		c0.2,0.1,0.5,0.3,0.8,0.4c0.3,0.1,0.7,0.2,1.2,0.2c0.4,0,0.8-0.1,1.1-0.2c0.3-0.1,0.6-0.3,0.8-0.4s0.4-0.4,0.5-0.6
		c0.1-0.2,0.2-0.5,0.2-0.8s-0.1-0.6-0.3-0.8s-0.4-0.4-0.7-0.6c-0.3-0.2-0.6-0.3-1-0.4c-0.4-0.1-0.8-0.2-1.2-0.4
		c-0.4-0.1-0.8-0.3-1.2-0.4s-0.7-0.4-1-0.6c-0.3-0.2-0.5-0.6-0.7-0.9c-0.2-0.4-0.3-0.8-0.3-1.3s0.1-0.9,0.3-1.3s0.5-0.8,0.8-1.1
		c0.4-0.3,0.8-0.6,1.4-0.8c0.5-0.2,1.1-0.3,1.8-0.3c0.8,0,1.5,0.1,2.2,0.4c0.6,0.3,1.2,0.6,1.7,1L894.8,125.6z"/>
	<path d="M907.2,135.8h-0.9c-0.2,0-0.4,0-0.5-0.1s-0.2-0.2-0.3-0.4l-0.2-1.1c-0.3,0.3-0.6,0.5-0.9,0.8c-0.3,0.2-0.6,0.4-1,0.6
		c-0.3,0.2-0.7,0.3-1.1,0.4c-0.4,0.1-0.8,0.1-1.3,0.1s-0.9-0.1-1.3-0.2c-0.4-0.1-0.8-0.3-1.1-0.6s-0.5-0.6-0.7-1s-0.3-0.9-0.3-1.4
		s0.1-0.9,0.4-1.4c0.3-0.4,0.7-0.8,1.3-1.2s1.4-0.6,2.3-0.8s2.1-0.3,3.5-0.3v-1c0-1-0.2-1.7-0.6-2.2c-0.4-0.5-1-0.7-1.8-0.7
		c-0.5,0-1,0.1-1.3,0.2c-0.4,0.1-0.7,0.3-0.9,0.4s-0.5,0.3-0.7,0.4s-0.4,0.2-0.6,0.2c-0.1,0-0.3,0-0.4-0.1c-0.1-0.1-0.2-0.2-0.3-0.3
		l-0.4-0.7c0.7-0.6,1.4-1.1,2.2-1.5c0.8-0.3,1.6-0.5,2.6-0.5c0.7,0,1.3,0.1,1.8,0.3c0.5,0.2,1,0.5,1.3,0.9c0.4,0.4,0.6,0.9,0.8,1.5
		s0.3,1.2,0.3,1.9v7.8L907.2,135.8L907.2,135.8z M901.5,134.5c0.4,0,0.7,0,1-0.1s0.6-0.2,0.9-0.3c0.3-0.1,0.5-0.3,0.8-0.5
		s0.5-0.4,0.7-0.7v-2.5c-1,0-1.8,0.1-2.5,0.2c-0.7,0.1-1.2,0.3-1.7,0.5c-0.4,0.2-0.7,0.4-0.9,0.7s-0.3,0.6-0.3,0.9
		c0,0.3,0.1,0.6,0.2,0.8c0.1,0.2,0.2,0.4,0.4,0.6s0.4,0.3,0.6,0.3S901.4,134.5,901.5,134.5z"/>
	<path d="M914,136c-1,0-1.7-0.3-2.2-0.8s-0.8-1.3-0.8-2.3v-7.4h-1.5c-0.1,0-0.2,0-0.3-0.1s-0.1-0.2-0.1-0.4v-0.9l2-0.3l0.5-3.8
		c0-0.1,0.1-0.2,0.2-0.3c0.1-0.1,0.2-0.1,0.3-0.1h1.1v4.2h3.5v1.5h-3.5v7.3c0,0.5,0.1,0.9,0.4,1.1c0.2,0.2,0.6,0.4,1,0.4
		c0.2,0,0.4,0,0.6-0.1s0.3-0.1,0.4-0.2c0.1-0.1,0.2-0.1,0.3-0.2s0.2-0.1,0.2-0.1c0.1,0,0.2,0.1,0.3,0.2l0.6,1
		c-0.4,0.3-0.8,0.6-1.3,0.8C915.2,135.9,914.5,136,914,136z"/>
	<path d="M922.2,119.8c0,0.2,0,0.4-0.1,0.6s-0.2,0.3-0.3,0.5c-0.1,0.1-0.3,0.3-0.5,0.3c-0.2,0.1-0.4,0.1-0.6,0.1s-0.4,0-0.6-0.1
		c-0.2-0.1-0.3-0.2-0.5-0.3c-0.1-0.1-0.2-0.3-0.3-0.5s-0.1-0.4-0.1-0.6s0-0.4,0.1-0.6s0.2-0.4,0.3-0.5s0.3-0.2,0.5-0.3
		c0.2-0.1,0.4-0.1,0.6-0.1s0.4,0,0.6,0.1c0.2,0.1,0.3,0.2,0.5,0.3c0.1,0.1,0.3,0.3,0.3,0.5S922.2,119.6,922.2,119.8z M921.7,123.6
		v12.2h-2.1v-12.2C919.5,123.6,921.7,123.6,921.7,123.6z"/>
	<path d="M930.4,123.4c0.9,0,1.7,0.1,2.4,0.4s1.3,0.7,1.8,1.3s0.9,1.2,1.2,2s0.4,1.6,0.4,2.6s-0.1,1.8-0.4,2.6
		c-0.3,0.8-0.7,1.4-1.2,2s-1.1,1-1.8,1.3s-1.5,0.4-2.4,0.4s-1.7-0.1-2.4-0.4s-1.3-0.7-1.8-1.3s-0.9-1.2-1.2-2s-0.4-1.6-0.4-2.6
		s0.1-1.8,0.4-2.6c0.3-0.8,0.7-1.4,1.2-2s1.1-1,1.8-1.3S929.5,123.4,930.4,123.4z M930.4,134.3c1.2,0,2.1-0.4,2.7-1.2
		c0.6-0.8,0.9-1.9,0.9-3.4c0-1.4-0.3-2.6-0.9-3.4c-0.6-0.8-1.5-1.2-2.7-1.2c-0.6,0-1.1,0.1-1.6,0.3s-0.8,0.5-1.1,0.9
		s-0.5,0.9-0.7,1.4c-0.1,0.6-0.2,1.2-0.2,1.9s0.1,1.4,0.2,1.9c0.1,0.6,0.4,1,0.7,1.4s0.7,0.7,1.1,0.9S929.8,134.3,930.4,134.3z"/>
	<path d="M938.9,135.8v-12.2h1.3c0.3,0,0.5,0.1,0.6,0.4l0.2,1.3c0.5-0.6,1.1-1.1,1.8-1.4c0.7-0.4,1.4-0.5,2.3-0.5
		c0.7,0,1.2,0.1,1.8,0.3c0.5,0.2,0.9,0.5,1.3,0.9c0.3,0.4,0.6,0.9,0.8,1.5s0.3,1.2,0.3,1.9v7.7h-2.1V128c0-0.9-0.2-1.6-0.6-2.1
		c-0.4-0.5-1.1-0.8-1.9-0.8c-0.6,0-1.2,0.2-1.8,0.5c-0.5,0.3-1.1,0.7-1.5,1.2v9L938.9,135.8L938.9,135.8z"/>
	<path d="M956.8,135.8v-12.2h1.3c0.3,0,0.5,0.1,0.6,0.4l0.2,1.3c0.5-0.6,1.1-1.1,1.8-1.4s1.4-0.5,2.3-0.5c0.7,0,1.2,0.1,1.8,0.3
		c0.5,0.2,0.9,0.5,1.3,0.9c0.3,0.4,0.6,0.9,0.8,1.5s0.3,1.2,0.3,1.9v7.7H965V128c0-0.9-0.2-1.6-0.6-2.1c-0.4-0.5-1.1-0.8-1.9-0.8
		c-0.6,0-1.2,0.2-1.8,0.5c-0.5,0.3-1.1,0.7-1.5,1.2v9L956.8,135.8L956.8,135.8z"/>
	<path d="M968.4,122.3c0-0.5,0.1-1,0.3-1.5s0.5-0.9,0.8-1.2c0.4-0.3,0.8-0.6,1.2-0.8c0.5-0.2,1-0.3,1.5-0.3s1.1,0.1,1.5,0.3
		c0.5,0.2,0.9,0.5,1.2,0.8c0.4,0.3,0.6,0.8,0.8,1.2c0.2,0.5,0.3,1,0.3,1.5s-0.1,1-0.3,1.5s-0.5,0.9-0.8,1.2
		c-0.4,0.3-0.8,0.6-1.2,0.8c-0.5,0.2-1,0.3-1.5,0.3s-1.1-0.1-1.5-0.3c-0.5-0.2-0.9-0.5-1.2-0.8c-0.4-0.3-0.6-0.8-0.8-1.2
		S968.4,122.8,968.4,122.3z M969.9,122.3c0,0.3,0.1,0.6,0.2,0.9s0.3,0.5,0.5,0.8c0.2,0.2,0.5,0.4,0.8,0.5s0.6,0.2,0.9,0.2
		s0.6-0.1,0.9-0.2s0.5-0.3,0.8-0.5c0.2-0.2,0.4-0.5,0.5-0.8s0.2-0.6,0.2-0.9s-0.1-0.7-0.2-0.9c-0.1-0.3-0.3-0.6-0.5-0.8
		c-0.2-0.2-0.5-0.4-0.8-0.5s-0.6-0.2-0.9-0.2s-0.7,0.1-0.9,0.2c-0.3,0.1-0.5,0.3-0.8,0.5c-0.2,0.2-0.4,0.5-0.5,0.8
		C970,121.6,969.9,121.9,969.9,122.3z"/>
	<path d="M980.5,134.2h3.7v-11.7c0-0.4,0-0.7,0-1.1l-3.1,2.6c-0.1,0.1-0.2,0.1-0.2,0.1c-0.1,0-0.2,0-0.2,0c-0.1,0-0.2,0-0.3-0.1
		s-0.2-0.1-0.2-0.2l-0.7-0.9l5.1-4.4h1.7v15.7h3.4v1.6h-9.2V134.2z"/>
</g>
<path class="st5" d="M962.7,93.8h13.8v-3.5h-4.6V74.2h-4.1l-5.3,4.9l2.8,2.9c0.9-0.8,1.4-1.2,2-2h0.1v10.4h-4.6v3.4H962.7z
	 M981,84.6c0,6.5-4,14.9-11.5,14.9S958,91.1,958,84.6s3.9-15,11.5-15C977,69.6,981,78,981,84.6z M999.5,93.8V75.4
	c-5.1,0-9.2-4.1-9.2-9.2h-41.4c0,5.1-4.1,9.2-9.2,9.2v18.4c5.1,0,9.2,4.1,9.2,9.2h41.4C990.2,97.9,994.4,93.8,999.5,93.8L999.5,93.8
	z M1004,63.9v41.4c0,1.3-1,2.3-2.3,2.3h-64.4c-1.3,0-2.3-1-2.3-2.3V63.9c0-1.3,1-2.3,2.3-2.3h64.4C1003,61.6,1004,62.6,1004,63.9z"
	/>
<path class="st1" d="M732.2,126.6l-17.3-20c-0.4-0.5-0.9-0.7-1.4-0.7s-1,0.2-1.4,0.7s-0.6,1-0.6,1.7v16.6h-53v6.7h53v16.6
	c0,0.6,0.2,1.2,0.6,1.7c0.4,0.5,0.9,0.7,1.4,0.7s1-0.2,1.4-0.7l17.2-20c0.4-0.5,0.6-1,0.6-1.7C732.9,127.6,732.7,127.1,732.2,126.6z
	"/>
<path class="st6" d="M508.8,186.3l-8.5,29.8H489v-22.9h-4.8v22.7l-16.1,2l1.3,14.9h-9v15.7h6.2c0,0.3,0,0.7,0,1
	c0,7.9,6.5,14.2,14.2,14.2s14.2-6.2,14.2-14.2c0-2.8-0.8-5.3-2.2-7.5h15.4c1.1,12.3,11.6,21.7,23.8,21.7c12.8,0,23.9-10.4,23.9-23.9
	c0-10.7-7-19.5-16.3-22.6v-30.8L508.8,186.3L508.8,186.3z M513.7,192.2H533V216c-0.3,0-0.7,0-1,0c-2.9,0-5.7,0.5-8.2,1.5l-16.6-1.3
	L513.7,192.2L513.7,192.2z M532,230.2c6.1,0,9.7,4.5,9.7,9.5s-3.6,9.5-9.7,9.5c-6.1,0-9.7-4.5-9.7-9.5S525.8,230.2,532,230.2z
	 M480.8,242.6c4.2,0,7.3,3.2,7.3,6.9s-3.1,6.9-7.3,6.9c-4.2,0-7.3-3.2-7.3-6.9S476.6,242.6,480.8,242.6z"/>
<g>
	<path d="M457.4,290.8v2h-5.6V308h-2.3v-15.2h-5.6v-2H457.4z"/>
	<path d="M457.6,308v-12.2h1.2c0.2,0,0.4,0,0.5,0.1s0.1,0.2,0.2,0.5l0.1,1.9c0.4-0.8,0.9-1.5,1.5-2s1.3-0.7,2.2-0.7
		c0.3,0,0.6,0,0.9,0.1s0.5,0.2,0.8,0.3l-0.3,1.6c-0.1,0.2-0.2,0.3-0.4,0.3c-0.1,0-0.3,0-0.5-0.1s-0.6-0.1-1-0.1
		c-0.7,0-1.4,0.2-1.9,0.6s-0.9,1.1-1.3,1.9v7.7h-2L457.6,308L457.6,308z"/>
	<path d="M475.7,308h-0.9c-0.2,0-0.4,0-0.5-0.1s-0.2-0.2-0.3-0.4l-0.2-1.1c-0.3,0.3-0.6,0.5-0.9,0.8c-0.3,0.2-0.6,0.4-1,0.6
		c-0.3,0.2-0.7,0.3-1.1,0.4s-0.8,0.1-1.3,0.1s-0.9-0.1-1.3-0.2s-0.8-0.3-1.1-0.6c-0.3-0.3-0.5-0.6-0.7-1s-0.3-0.9-0.3-1.4
		s0.1-0.9,0.4-1.4s0.7-0.8,1.3-1.2c0.6-0.3,1.4-0.6,2.3-0.8c0.9-0.2,2.1-0.3,3.5-0.3v-1c0-1-0.2-1.7-0.6-2.2s-1-0.7-1.8-0.7
		c-0.5,0-1,0.1-1.3,0.2c-0.4,0.1-0.7,0.3-0.9,0.4c-0.2,0.1-0.5,0.3-0.7,0.4s-0.4,0.2-0.6,0.2c-0.1,0-0.3,0-0.4-0.1s-0.2-0.2-0.3-0.3
		l-0.4-0.7c0.7-0.6,1.4-1.1,2.2-1.5c0.8-0.4,1.6-0.5,2.6-0.5c0.7,0,1.3,0.1,1.8,0.3c0.5,0.2,1,0.5,1.3,0.9c0.4,0.4,0.6,0.9,0.8,1.5
		s0.3,1.2,0.3,1.9L475.7,308L475.7,308z M470.2,306.7c0.4,0,0.7,0,1-0.1s0.6-0.2,0.9-0.3c0.3-0.1,0.5-0.3,0.8-0.5s0.5-0.4,0.7-0.7
		v-2.5c-1,0-1.8,0.1-2.5,0.2s-1.2,0.3-1.7,0.5s-0.7,0.4-0.9,0.7c-0.2,0.3-0.3,0.6-0.3,0.9s0.1,0.6,0.2,0.8c0.1,0.2,0.2,0.4,0.4,0.6
		c0.2,0.1,0.4,0.3,0.6,0.3C469.7,306.6,469.9,306.7,470.2,306.7z"/>
	<path d="M487.2,298c-0.1,0.1-0.1,0.2-0.2,0.2s-0.2,0.1-0.3,0.1s-0.3,0-0.4-0.2c-0.1-0.1-0.3-0.2-0.5-0.3c-0.2-0.1-0.5-0.2-0.8-0.3
		c-0.3-0.1-0.7-0.2-1.1-0.2c-0.6,0-1.1,0.1-1.6,0.3s-0.8,0.5-1.1,0.9c-0.3,0.4-0.5,0.9-0.7,1.5s-0.2,1.2-0.2,1.9
		c0,0.7,0.1,1.4,0.3,2c0.2,0.6,0.4,1.1,0.7,1.4c0.3,0.3,0.7,0.7,1.1,0.9c0.4,0.2,0.9,0.3,1.5,0.3c0.5,0,0.9-0.1,1.3-0.2
		c0.3-0.1,0.6-0.3,0.8-0.4c0.2-0.2,0.4-0.3,0.6-0.4s0.3-0.2,0.4-0.2c0.2,0,0.3,0.1,0.4,0.2l0.6,0.8c-0.5,0.6-1.2,1.1-2,1.4
		s-1.6,0.5-2.5,0.5c-0.8,0-1.5-0.1-2.1-0.4c-0.7-0.3-1.2-0.7-1.7-1.2s-0.9-1.2-1.1-2c-0.3-0.8-0.4-1.7-0.4-2.7
		c0-0.9,0.1-1.7,0.4-2.5s0.6-1.4,1.1-2s1.1-1,1.8-1.3c0.7-0.3,1.5-0.5,2.4-0.5c0.8,0,1.6,0.1,2.3,0.4s1.2,0.7,1.7,1.2L487.2,298z"/>
	<path d="M493.9,308.2c-1,0-1.7-0.3-2.2-0.8s-0.8-1.3-0.8-2.3v-7.4h-1.5c-0.1,0-0.2,0-0.3-0.1c-0.1-0.1-0.1-0.2-0.1-0.4v-0.9l2-0.3
		l0.5-3.8c0-0.1,0.1-0.2,0.2-0.3c0.1-0.1,0.2-0.1,0.3-0.1h1.1v4.2h3.5v1.5H493v7.3c0,0.5,0.1,0.9,0.4,1.1s0.6,0.4,1,0.4
		c0.2,0,0.4,0,0.6-0.1s0.3-0.1,0.4-0.2s0.2-0.1,0.3-0.2s0.2-0.1,0.2-0.1c0.1,0,0.2,0.1,0.3,0.2l0.6,1c-0.4,0.3-0.8,0.6-1.3,0.8
		C495,308.1,494.4,308.2,493.9,308.2z"/>
	<path d="M504,295.6c0.7,0,1.4,0.1,2,0.4c0.6,0.2,1.1,0.6,1.6,1.1c0.4,0.5,0.8,1,1.1,1.7c0.3,0.7,0.4,1.4,0.4,2.3
		c0,0.3,0,0.6-0.1,0.7s-0.2,0.2-0.4,0.2h-8.1c0,0.8,0.1,1.4,0.3,2c0.2,0.6,0.5,1,0.8,1.4s0.7,0.7,1.2,0.9c0.5,0.2,1,0.3,1.6,0.3
		c0.5,0,1-0.1,1.4-0.2s0.7-0.3,1-0.4s0.5-0.3,0.7-0.4s0.3-0.2,0.5-0.2s0.3,0.1,0.4,0.2l0.6,0.8c-0.3,0.3-0.6,0.6-0.9,0.8
		c-0.4,0.2-0.8,0.4-1.2,0.6s-0.9,0.3-1.3,0.3c-0.4,0.1-0.9,0.1-1.3,0.1c-0.8,0-1.6-0.1-2.3-0.4c-0.7-0.3-1.3-0.7-1.8-1.2
		s-0.9-1.2-1.2-2s-0.4-1.7-0.4-2.8c0-0.8,0.1-1.6,0.4-2.4c0.3-0.7,0.6-1.4,1.1-1.9s1.1-1,1.8-1.3S503.1,295.6,504,295.6z M504,297.2
		c-1,0-1.8,0.3-2.4,0.9s-1,1.4-1.1,2.5h6.6c0-0.5-0.1-1-0.2-1.4s-0.3-0.8-0.6-1.1c-0.3-0.3-0.6-0.5-1-0.7
		C504.9,297.2,504.5,297.2,504,297.2z"/>
	<path d="M513.5,295.8v7.8c0,0.9,0.2,1.6,0.6,2.1c0.4,0.5,1.1,0.8,1.9,0.8c0.6,0,1.2-0.1,1.8-0.4s1.1-0.7,1.5-1.2v-9h2.1v12.2h-1.3
		c-0.3,0-0.5-0.1-0.6-0.4l-0.2-1.3c-0.5,0.6-1.1,1.1-1.8,1.4c-0.7,0.4-1.4,0.5-2.3,0.5c-0.7,0-1.3-0.1-1.8-0.3s-0.9-0.5-1.3-0.9
		c-0.3-0.4-0.6-0.9-0.8-1.5c-0.2-0.6-0.3-1.2-0.3-1.9v-7.8h2.5L513.5,295.8L513.5,295.8z"/>
	<path d="M525,308v-12.2h1.2c0.2,0,0.4,0,0.5,0.1c0.1,0.1,0.1,0.2,0.2,0.5l0.1,1.9c0.4-0.8,0.9-1.5,1.5-2c0.6-0.5,1.3-0.7,2.2-0.7
		c0.3,0,0.6,0,0.9,0.1s0.5,0.2,0.8,0.3l-0.3,1.6c-0.1,0.2-0.2,0.3-0.4,0.3c-0.1,0-0.3,0-0.5-0.1s-0.6-0.1-1-0.1
		c-0.7,0-1.4,0.2-1.9,0.6s-0.9,1.1-1.3,1.9v7.7h-2L525,308L525,308z"/>
	<path d="M539.3,308v-12.2h1.3c0.3,0,0.5,0.1,0.6,0.4l0.2,1.3c0.5-0.6,1.1-1.1,1.8-1.4c0.7-0.4,1.4-0.5,2.3-0.5
		c0.7,0,1.2,0.1,1.8,0.3c0.5,0.2,0.9,0.5,1.3,0.9c0.3,0.4,0.6,0.9,0.8,1.5c0.2,0.6,0.3,1.2,0.3,1.9v7.7h-2.1v-7.7
		c0-0.9-0.2-1.6-0.6-2.1c-0.4-0.5-1.1-0.8-1.9-0.8c-0.6,0-1.2,0.2-1.8,0.5c-0.5,0.3-1.1,0.7-1.5,1.2v9L539.3,308L539.3,308z"/>
	<path d="M550.8,294.5c0-0.5,0.1-1,0.3-1.5c0.2-0.5,0.5-0.9,0.8-1.2c0.4-0.3,0.8-0.6,1.2-0.8c0.5-0.2,1-0.3,1.5-0.3s1.1,0.1,1.5,0.3
		c0.5,0.2,0.9,0.5,1.2,0.8c0.4,0.3,0.6,0.8,0.8,1.2c0.2,0.5,0.3,1,0.3,1.5s-0.1,1-0.3,1.5c-0.2,0.5-0.5,0.9-0.8,1.2
		c-0.4,0.3-0.8,0.6-1.2,0.8c-0.5,0.2-1,0.3-1.5,0.3s-1.1-0.1-1.5-0.3c-0.5-0.2-0.9-0.5-1.2-0.8c-0.4-0.3-0.6-0.8-0.8-1.2
		C551,295.6,550.8,295,550.8,294.5z M552.5,294.5c0,0.3,0.1,0.6,0.2,0.9c0.1,0.3,0.3,0.5,0.5,0.8c0.2,0.2,0.5,0.4,0.8,0.5
		s0.6,0.2,0.9,0.2s0.6-0.1,0.9-0.2s0.5-0.3,0.8-0.5c0.2-0.2,0.4-0.5,0.5-0.8c0.1-0.3,0.2-0.6,0.2-0.9s-0.1-0.7-0.2-0.9
		c-0.1-0.3-0.3-0.6-0.5-0.8c-0.2-0.2-0.5-0.4-0.8-0.5s-0.6-0.2-0.9-0.2s-0.7,0.1-0.9,0.2c-0.2,0.1-0.5,0.3-0.8,0.5
		c-0.2,0.2-0.4,0.5-0.5,0.8C552.5,293.9,552.5,294.1,552.5,294.5z"/>
	<path d="M566.8,290.6c0.7,0,1.4,0.1,2,0.3s1.2,0.5,1.6,0.9c0.5,0.4,0.8,0.9,1.1,1.5s0.4,1.3,0.4,2c0,0.6-0.1,1.2-0.3,1.8
		c-0.2,0.5-0.5,1.1-0.8,1.6s-0.7,1-1.1,1.5s-0.9,0.9-1.4,1.4l-4.5,4.6c0.3-0.1,0.6-0.2,1-0.2c0.3-0.1,0.6-0.1,0.9-0.1h5.8
		c0.2,0,0.4,0.1,0.6,0.2c0.1,0.1,0.2,0.3,0.2,0.5v1.3h-11.5v-0.7c0-0.2,0-0.3,0.1-0.5c0.1-0.2,0.2-0.3,0.3-0.4l5.5-5.5
		c0.5-0.5,0.9-0.9,1.2-1.3c0.4-0.4,0.7-0.9,1-1.3s0.5-0.9,0.6-1.3s0.2-0.9,0.2-1.4s-0.1-0.9-0.2-1.3c-0.2-0.4-0.4-0.7-0.7-0.9
		s-0.6-0.4-1-0.6c-0.4-0.1-0.8-0.2-1.2-0.2s-0.8,0.1-1.2,0.2s-0.7,0.3-1,0.5s-0.5,0.5-0.7,0.8s-0.3,0.7-0.4,1
		c-0.1,0.2-0.2,0.4-0.3,0.5s-0.3,0.2-0.5,0.2h-0.1c0,0-0.1,0-0.2,0l-1.1-0.2c0.1-0.8,0.3-1.5,0.6-2.1c0.3-0.6,0.7-1.1,1.2-1.5
		s1.1-0.7,1.7-0.9S566,290.6,566.8,290.6z"/>
</g>
<path class="st6" d="M880.8,186.3l-8.5,29.8H861v-22.9h-4.8v22.7l-16.1,2l1.3,14.9h-9v15.7h6.2c0,0.3,0,0.7,0,1
	c0,7.9,6.5,14.2,14.2,14.2s14.2-6.2,14.2-14.2c0-2.8-0.8-5.3-2.2-7.5h15.4c1.1,12.3,11.6,21.7,23.8,21.7c12.8,0,23.9-10.4,23.9-23.9
	c0-10.7-7-19.5-16.3-22.6v-30.8L880.8,186.3L880.8,186.3z M885.7,192.2H905V216c-0.3,0-0.7,0-1,0c-2.9,0-5.7,0.5-8.2,1.5l-16.6-1.3
	L885.7,192.2L885.7,192.2z M904,230.2c6.1,0,9.7,4.5,9.7,9.5s-3.6,9.5-9.7,9.5c-6.1,0-9.7-4.5-9.7-9.5S897.9,230.2,904,230.2z
	 M852.8,242.6c4.2,0,7.3,3.2,7.3,6.9s-3.1,6.9-7.3,6.9s-7.3-3.2-7.3-6.9S848.5,242.6,852.8,242.6z"/>
<g>
	<path d="M784.2,304.8c0.1,0,0.2,0.1,0.3,0.2l0.9,1c-0.7,0.8-1.6,1.5-2.6,1.9s-2.2,0.7-3.6,0.7c-1.2,0-2.4-0.2-3.4-0.6
		s-1.9-1-2.6-1.8c-0.7-0.8-1.3-1.7-1.7-2.8c-0.4-1.1-0.6-2.3-0.6-3.6s0.2-2.5,0.6-3.6c0.4-1.1,1-2,1.8-2.8s1.7-1.4,2.7-1.8
		c1.1-0.4,2.2-0.6,3.5-0.6s2.4,0.2,3.3,0.6c0.9,0.4,1.7,0.9,2.4,1.6l-0.8,1.1c-0.1,0.1-0.1,0.1-0.2,0.2s-0.2,0.1-0.3,0.1
		s-0.2,0-0.3-0.1s-0.3-0.2-0.4-0.3c-0.2-0.1-0.3-0.2-0.6-0.4c-0.2-0.1-0.5-0.2-0.8-0.4c-0.3-0.1-0.6-0.2-1-0.3
		c-0.4-0.1-0.8-0.1-1.4-0.1c-0.9,0-1.8,0.2-2.5,0.5c-0.8,0.3-1.4,0.8-2,1.3s-1,1.3-1.3,2.1c-0.3,0.8-0.5,1.8-0.5,2.8
		c0,1.1,0.2,2,0.5,2.9c0.3,0.8,0.7,1.5,1.3,2.1c0.5,0.6,1.2,1,1.9,1.3s1.5,0.5,2.4,0.5c0.5,0,1,0,1.4-0.1s0.8-0.2,1.1-0.3
		c0.3-0.1,0.7-0.3,1-0.5s0.6-0.4,0.9-0.7C784,304.9,784.2,304.8,784.2,304.8z"/>
	<path d="M793.2,296c0.9,0,1.7,0.1,2.4,0.4s1.3,0.7,1.8,1.3s0.9,1.2,1.2,2s0.4,1.6,0.4,2.6s-0.1,1.8-0.4,2.6c-0.3,0.8-0.7,1.4-1.2,2
		s-1.1,1-1.8,1.3s-1.5,0.4-2.4,0.4s-1.7-0.1-2.4-0.4s-1.3-0.7-1.8-1.3s-0.9-1.2-1.2-2s-0.4-1.6-0.4-2.6s0.1-1.8,0.4-2.6
		c0.3-0.8,0.7-1.4,1.2-2s1.1-1,1.8-1.3S792.4,296,793.2,296z M793.2,306.9c1.2,0,2.1-0.4,2.7-1.2c0.6-0.8,0.9-1.9,0.9-3.4
		c0-1.4-0.3-2.6-0.9-3.4c-0.6-0.8-1.5-1.2-2.7-1.2c-0.6,0-1.1,0.1-1.6,0.3s-0.8,0.5-1.1,0.9s-0.5,0.9-0.7,1.4
		c-0.1,0.6-0.2,1.2-0.2,1.9c0,0.7,0.1,1.4,0.2,1.9c0.1,0.6,0.4,1,0.7,1.4s0.7,0.7,1.1,0.9S792.5,306.9,793.2,306.9z"/>
	<path d="M803.5,296.2v7.8c0,0.9,0.2,1.6,0.6,2.1s1.1,0.8,1.9,0.8c0.6,0,1.2-0.1,1.8-0.4s1.1-0.7,1.5-1.2v-9h2.1v12.2H810
		c-0.3,0-0.5-0.1-0.6-0.4l-0.2-1.3c-0.5,0.6-1.1,1.1-1.8,1.4s-1.4,0.5-2.3,0.5c-0.7,0-1.2-0.1-1.8-0.3s-0.9-0.5-1.3-0.9
		c-0.3-0.4-0.6-0.9-0.8-1.5s-0.3-1.2-0.3-1.9v-7.8h2.5L803.5,296.2L803.5,296.2z M810.2,294.4h-1.4c-0.2,0-0.3-0.1-0.5-0.2l-1.5-1.5
		l-0.2-0.2l-0.2,0.2l-1.5,1.5c0,0-0.1,0.1-0.2,0.1s-0.2,0.1-0.3,0.1h-1.5l2.7-3.2h2L810.2,294.4z"/>
	<path d="M818.7,308.6c-1,0-1.7-0.3-2.2-0.8s-0.8-1.3-0.8-2.3v-7.4h-1.5c-0.1,0-0.2,0-0.3-0.1s-0.1-0.2-0.1-0.4v-0.9l2-0.3l0.5-3.8
		c0-0.1,0.1-0.2,0.2-0.3c0.1-0.1,0.2-0.1,0.3-0.1h1.1v4.2h3.5v1.5h-3.5v7.3c0,0.5,0.1,0.9,0.4,1.1s0.6,0.4,1,0.4
		c0.2,0,0.4,0,0.6-0.1c0.2-0.1,0.3-0.1,0.4-0.2c0.1-0.1,0.2-0.1,0.3-0.2s0.2-0.1,0.2-0.1c0.1,0,0.2,0.1,0.3,0.2l0.6,1
		c-0.4,0.3-0.8,0.6-1.3,0.8C819.8,308.5,819.2,308.6,818.7,308.6z"/>
	<path d="M837.2,308.4c-0.3,0-0.5-0.1-0.6-0.4l-0.2-1.5c-0.5,0.6-1.1,1.1-1.8,1.5s-1.4,0.6-2.3,0.6c-0.7,0-1.3-0.1-1.9-0.4
		c-0.6-0.3-1.1-0.7-1.5-1.2s-0.7-1.2-0.9-1.9c-0.2-0.8-0.3-1.7-0.3-2.7c0-0.9,0.1-1.7,0.4-2.5c0.2-0.8,0.6-1.4,1-2
		c0.5-0.6,1-1,1.7-1.3c0.6-0.3,1.4-0.5,2.2-0.5c0.7,0,1.4,0.1,1.9,0.4s1,0.6,1.4,1.1v-6.7h2.1v17.7h-1.2L837.2,308.4L837.2,308.4z
		 M833,306.8c0.7,0,1.3-0.2,1.8-0.5s1-0.8,1.4-1.4V299c-0.4-0.5-0.8-0.9-1.3-1.1s-1-0.3-1.6-0.3c-1.1,0-2,0.4-2.6,1.2
		c-0.6,0.8-0.9,2-0.9,3.5c0,0.8,0.1,1.5,0.2,2c0.1,0.6,0.3,1,0.6,1.4s0.6,0.6,1,0.8S832.5,306.8,833,306.8z"/>
	<path d="M843.5,290.3c0.2,0.4,0.4,0.8,0.5,1.2c0.1,0.4,0.2,0.8,0.2,1.2c0,0.7-0.2,1.4-0.5,2.1c-0.4,0.7-0.8,1.3-1.5,1.8l-0.7-0.4
		c-0.1,0-0.1-0.1-0.1-0.1V296c0-0.1,0-0.2,0.1-0.3c0.1-0.2,0.3-0.3,0.4-0.5c0.1-0.2,0.2-0.4,0.3-0.6s0.2-0.4,0.2-0.6
		s0.1-0.4,0.1-0.7c0-0.3,0-0.5-0.1-0.8s-0.2-0.6-0.4-0.9c-0.1-0.1-0.1-0.2-0.1-0.3c0-0.2,0.1-0.3,0.3-0.4L843.5,290.3z"/>
	<path d="M849,296.2v7.8c0,0.9,0.2,1.6,0.6,2.1s1.1,0.8,1.9,0.8c0.6,0,1.2-0.1,1.8-0.4s1.1-0.7,1.5-1.2v-9h2.1v12.2h-1.3
		c-0.3,0-0.5-0.1-0.6-0.4l-0.2-1.3c-0.5,0.6-1.1,1.1-1.8,1.4s-1.4,0.5-2.3,0.5c-0.7,0-1.2-0.1-1.8-0.3s-0.9-0.5-1.3-0.9
		c-0.3-0.4-0.6-0.9-0.8-1.5s-0.3-1.2-0.3-1.9v-7.8h2.5L849,296.2L849,296.2z"/>
	<path d="M864,308.6c-1,0-1.7-0.3-2.2-0.8s-0.8-1.3-0.8-2.3v-7.4h-1.5c-0.1,0-0.2,0-0.3-0.1s-0.1-0.2-0.1-0.4v-0.9l2-0.3l0.5-3.8
		c0-0.1,0.1-0.2,0.2-0.3c0.1-0.1,0.2-0.1,0.3-0.1h1.1v4.2h3.5v1.5h-3.5v7.3c0,0.5,0.1,0.9,0.4,1.1s0.6,0.4,1,0.4
		c0.2,0,0.4,0,0.6-0.1c0.2-0.1,0.3-0.1,0.4-0.2s0.2-0.1,0.3-0.2s0.2-0.1,0.2-0.1c0.1,0,0.2,0.1,0.3,0.2l0.6,1
		c-0.4,0.3-0.8,0.6-1.3,0.8C865.2,308.5,864.7,308.6,864,308.6z"/>
	<path d="M872.2,292.4c0,0.2,0,0.4-0.1,0.6s-0.2,0.3-0.3,0.5c-0.1,0.1-0.3,0.3-0.5,0.3c-0.2,0.1-0.4,0.1-0.6,0.1s-0.4,0-0.6-0.1
		c-0.2-0.1-0.3-0.2-0.5-0.3c-0.1-0.1-0.2-0.3-0.3-0.5s-0.1-0.4-0.1-0.6s0-0.4,0.1-0.6s0.2-0.4,0.3-0.5s0.3-0.2,0.5-0.3
		s0.4-0.1,0.6-0.1s0.4,0,0.6,0.1s0.3,0.2,0.5,0.3c0.1,0.1,0.3,0.3,0.3,0.5S872.2,292.2,872.2,292.4z M871.8,296.2v12.2h-2.1v-12.2
		H871.8z"/>
	<path d="M877.9,290.7v17.7h-2.1v-17.7H877.9z"/>
	<path d="M884.5,292.4c0,0.2,0,0.4-0.1,0.6s-0.2,0.3-0.3,0.5c-0.1,0.1-0.3,0.3-0.5,0.3c-0.2,0.1-0.4,0.1-0.6,0.1s-0.4,0-0.6-0.1
		c-0.2-0.1-0.3-0.2-0.5-0.3c-0.1-0.1-0.2-0.3-0.3-0.5s-0.1-0.4-0.1-0.6s0-0.4,0.1-0.6s0.2-0.4,0.3-0.5s0.3-0.2,0.5-0.3
		c0.2-0.1,0.4-0.1,0.6-0.1s0.4,0,0.6,0.1c0.2,0.1,0.3,0.2,0.5,0.3s0.3,0.3,0.3,0.5C884.5,292,884.5,292.2,884.5,292.4z M884,296.2
		v12.2H882v-12.2H884z"/>
	<path d="M894.8,298.2c-0.1,0.2-0.2,0.3-0.4,0.3c-0.1,0-0.3,0-0.4-0.1c-0.2-0.1-0.3-0.2-0.6-0.3c-0.2-0.1-0.5-0.2-0.8-0.3
		c-0.3-0.1-0.7-0.1-1.1-0.1c-0.4,0-0.7,0-1,0.1s-0.5,0.2-0.7,0.4s-0.4,0.3-0.5,0.6c-0.1,0.2-0.2,0.4-0.2,0.7c0,0.3,0.1,0.6,0.3,0.8
		s0.4,0.4,0.7,0.5c0.3,0.2,0.6,0.3,1,0.4s0.8,0.2,1.2,0.4c0.4,0.1,0.8,0.3,1.2,0.4c0.4,0.2,0.7,0.4,1,0.6s0.5,0.5,0.7,0.9
		c0.2,0.3,0.3,0.8,0.3,1.3c0,0.6-0.1,1.1-0.3,1.6s-0.5,0.9-0.9,1.2c-0.4,0.3-0.9,0.6-1.4,0.8c-0.6,0.2-1.2,0.3-2,0.3
		s-1.6-0.1-2.3-0.4s-1.3-0.6-1.8-1.1l0.5-0.8c0.1-0.1,0.1-0.2,0.2-0.2c0.1-0.1,0.2-0.1,0.3-0.1s0.3,0.1,0.5,0.2s0.4,0.2,0.6,0.4
		c0.2,0.1,0.5,0.3,0.8,0.4s0.7,0.2,1.2,0.2c0.4,0,0.8-0.1,1.1-0.2s0.6-0.3,0.8-0.4c0.2-0.2,0.4-0.4,0.5-0.6s0.2-0.5,0.2-0.8
		s-0.1-0.6-0.3-0.8s-0.4-0.4-0.7-0.6s-0.6-0.3-1-0.4s-0.8-0.2-1.2-0.4c-0.4-0.1-0.8-0.3-1.2-0.4s-0.7-0.4-1-0.6s-0.5-0.6-0.7-0.9
		c-0.2-0.4-0.3-0.8-0.3-1.3s0.1-0.9,0.3-1.3s0.5-0.8,0.8-1.1c0.4-0.3,0.8-0.6,1.4-0.8c0.5-0.2,1.1-0.3,1.8-0.3
		c0.8,0,1.5,0.1,2.2,0.4c0.6,0.3,1.2,0.6,1.7,1L894.8,298.2z"/>
	<path d="M907.2,308.4h-0.9c-0.2,0-0.4,0-0.5-0.1s-0.2-0.2-0.3-0.4l-0.2-1.1c-0.3,0.3-0.6,0.5-0.9,0.8c-0.3,0.2-0.6,0.4-1,0.6
		c-0.3,0.2-0.7,0.3-1.1,0.4c-0.4,0.1-0.8,0.1-1.3,0.1s-0.9-0.1-1.3-0.2c-0.4-0.1-0.8-0.3-1.1-0.6c-0.3-0.3-0.5-0.6-0.7-1
		s-0.3-0.9-0.3-1.4s0.1-0.9,0.4-1.4c0.3-0.4,0.7-0.8,1.3-1.2c0.6-0.3,1.4-0.6,2.3-0.8s2.1-0.3,3.5-0.3v-1c0-1-0.2-1.7-0.6-2.2
		c-0.4-0.5-1-0.7-1.8-0.7c-0.5,0-1,0.1-1.3,0.2c-0.4,0.1-0.7,0.3-0.9,0.4s-0.5,0.3-0.7,0.4s-0.4,0.2-0.6,0.2c-0.1,0-0.3,0-0.4-0.1
		c-0.1-0.1-0.2-0.2-0.3-0.3l-0.4-0.7c0.7-0.6,1.4-1.1,2.2-1.5c0.8-0.3,1.6-0.5,2.6-0.5c0.7,0,1.3,0.1,1.8,0.3c0.5,0.2,1,0.5,1.3,0.9
		c0.4,0.4,0.6,0.9,0.8,1.5s0.3,1.2,0.3,1.9v7.8L907.2,308.4L907.2,308.4z M901.5,307.1c0.4,0,0.7,0,1-0.1s0.6-0.2,0.9-0.3
		c0.3-0.1,0.5-0.3,0.8-0.5s0.5-0.4,0.7-0.7V303c-1,0-1.8,0.1-2.5,0.2s-1.2,0.3-1.7,0.5c-0.4,0.2-0.7,0.4-0.9,0.7s-0.3,0.6-0.3,0.9
		s0.1,0.6,0.2,0.8c0.1,0.2,0.2,0.4,0.4,0.6c0.2,0.1,0.4,0.3,0.6,0.3S901.4,307.1,901.5,307.1z"/>
	<path d="M914,308.6c-1,0-1.7-0.3-2.2-0.8s-0.8-1.3-0.8-2.3v-7.4h-1.5c-0.1,0-0.2,0-0.3-0.1s-0.1-0.2-0.1-0.4v-0.9l2-0.3l0.5-3.8
		c0-0.1,0.1-0.2,0.2-0.3c0.1-0.1,0.2-0.1,0.3-0.1h1.1v4.2h3.5v1.5h-3.5v7.3c0,0.5,0.1,0.9,0.4,1.1s0.6,0.4,1,0.4
		c0.2,0,0.4,0,0.6-0.1c0.2-0.1,0.3-0.1,0.4-0.2s0.2-0.1,0.3-0.2s0.2-0.1,0.2-0.1c0.1,0,0.2,0.1,0.3,0.2l0.6,1
		c-0.4,0.3-0.8,0.6-1.3,0.8C915.2,308.5,914.5,308.6,914,308.6z"/>
	<path d="M922.2,292.4c0,0.2,0,0.4-0.1,0.6s-0.2,0.3-0.3,0.5c-0.1,0.1-0.3,0.3-0.5,0.3c-0.2,0.1-0.4,0.1-0.6,0.1s-0.4,0-0.6-0.1
		c-0.2-0.1-0.3-0.2-0.5-0.3c-0.1-0.1-0.2-0.3-0.3-0.5s-0.1-0.4-0.1-0.6s0-0.4,0.1-0.6s0.2-0.4,0.3-0.5s0.3-0.2,0.5-0.3
		s0.4-0.1,0.6-0.1s0.4,0,0.6,0.1s0.3,0.2,0.5,0.3c0.1,0.1,0.3,0.3,0.3,0.5C922.2,292,922.2,292.2,922.2,292.4z M921.7,296.2v12.2
		h-2.1v-12.2H921.7z"/>
	<path d="M930.4,296c0.9,0,1.7,0.1,2.4,0.4s1.3,0.7,1.8,1.3s0.9,1.2,1.2,2s0.4,1.6,0.4,2.6s-0.1,1.8-0.4,2.6c-0.3,0.8-0.7,1.4-1.2,2
		s-1.1,1-1.8,1.3s-1.5,0.4-2.4,0.4s-1.7-0.1-2.4-0.4s-1.3-0.7-1.8-1.3s-0.9-1.2-1.2-2s-0.4-1.6-0.4-2.6s0.1-1.8,0.4-2.6
		c0.3-0.8,0.7-1.4,1.2-2s1.1-1,1.8-1.3S929.5,296,930.4,296z M930.4,306.9c1.2,0,2.1-0.4,2.7-1.2c0.6-0.8,0.9-1.9,0.9-3.4
		c0-1.4-0.3-2.6-0.9-3.4c-0.6-0.8-1.5-1.2-2.7-1.2c-0.6,0-1.1,0.1-1.6,0.3s-0.8,0.5-1.1,0.9s-0.5,0.9-0.7,1.4
		c-0.1,0.6-0.2,1.2-0.2,1.9c0,0.7,0.1,1.4,0.2,1.9c0.1,0.6,0.4,1,0.7,1.4s0.7,0.7,1.1,0.9S929.8,306.9,930.4,306.9z"/>
	<path d="M938.9,308.4v-12.2h1.3c0.3,0,0.5,0.1,0.6,0.4l0.2,1.3c0.5-0.6,1.1-1.1,1.8-1.4c0.7-0.4,1.4-0.5,2.3-0.5
		c0.7,0,1.2,0.1,1.8,0.3s0.9,0.5,1.3,0.9c0.3,0.4,0.6,0.9,0.8,1.5s0.3,1.2,0.3,1.9v7.7h-2.1v-7.7c0-0.9-0.2-1.6-0.6-2.1
		s-1.1-0.8-1.9-0.8c-0.6,0-1.2,0.2-1.8,0.5c-0.5,0.3-1.1,0.7-1.5,1.2v9L938.9,308.4L938.9,308.4z"/>
	<path d="M956.8,308.4v-12.2h1.3c0.3,0,0.5,0.1,0.6,0.4l0.2,1.3c0.5-0.6,1.1-1.1,1.8-1.4c0.7-0.4,1.4-0.5,2.3-0.5
		c0.7,0,1.2,0.1,1.8,0.3c0.5,0.2,0.9,0.5,1.3,0.9c0.3,0.4,0.6,0.9,0.8,1.5s0.3,1.2,0.3,1.9v7.7H965v-7.7c0-0.9-0.2-1.6-0.6-2.1
		s-1.1-0.8-1.9-0.8c-0.6,0-1.2,0.2-1.8,0.5s-1.1,0.7-1.5,1.2v9L956.8,308.4L956.8,308.4z"/>
	<path d="M968.4,294.9c0-0.5,0.1-1,0.3-1.5s0.5-0.9,0.8-1.2c0.4-0.3,0.8-0.6,1.2-0.8c0.5-0.2,1-0.3,1.5-0.3s1.1,0.1,1.5,0.3
		c0.5,0.2,0.9,0.5,1.2,0.8c0.4,0.3,0.6,0.8,0.8,1.2c0.2,0.5,0.3,1,0.3,1.5s-0.1,1-0.3,1.5s-0.5,0.9-0.8,1.2
		c-0.4,0.3-0.8,0.6-1.2,0.8c-0.5,0.2-1,0.3-1.5,0.3s-1.1-0.1-1.5-0.3c-0.5-0.2-0.9-0.5-1.2-0.8c-0.4-0.3-0.6-0.8-0.8-1.2
		S968.4,295.4,968.4,294.9z M969.9,294.9c0,0.3,0.1,0.6,0.2,0.9s0.3,0.5,0.5,0.8c0.2,0.2,0.5,0.4,0.8,0.5s0.6,0.2,0.9,0.2
		s0.6-0.1,0.9-0.2s0.5-0.3,0.8-0.5c0.2-0.2,0.4-0.5,0.5-0.8s0.2-0.6,0.2-0.9s-0.1-0.7-0.2-0.9c-0.1-0.3-0.3-0.6-0.5-0.8
		c-0.2-0.2-0.5-0.4-0.8-0.5s-0.6-0.2-0.9-0.2s-0.7,0.1-0.9,0.2s-0.5,0.3-0.8,0.5c-0.2,0.2-0.4,0.5-0.5,0.8S969.9,294.5,969.9,294.9z
		"/>
	<path d="M984.2,291c0.7,0,1.4,0.1,2,0.3s1.2,0.5,1.6,0.9c0.5,0.4,0.8,0.9,1.1,1.5s0.4,1.3,0.4,2c0,0.6-0.1,1.2-0.3,1.8
		c-0.2,0.5-0.5,1.1-0.8,1.6s-0.7,1-1.1,1.5s-0.9,0.9-1.4,1.4l-4.5,4.6c0.3-0.1,0.6-0.2,1-0.2c0.3-0.1,0.6-0.1,0.9-0.1h5.8
		c0.2,0,0.4,0.1,0.6,0.2c0.1,0.1,0.2,0.3,0.2,0.5v1.3h-11.5v-0.7c0-0.2,0-0.3,0.1-0.5s0.2-0.3,0.3-0.4l5.5-5.5
		c0.5-0.5,0.9-0.9,1.2-1.3c0.4-0.4,0.7-0.9,1-1.3s0.5-0.9,0.6-1.3s0.2-0.9,0.2-1.4s-0.1-0.9-0.2-1.3c-0.2-0.4-0.4-0.7-0.7-0.9
		s-0.6-0.4-1-0.6c-0.4-0.1-0.8-0.2-1.2-0.2s-0.8,0.1-1.2,0.2s-0.7,0.3-1,0.5s-0.5,0.5-0.7,0.8s-0.3,0.7-0.4,1
		c-0.1,0.2-0.2,0.4-0.3,0.5s-0.3,0.2-0.5,0.2h-0.1c0,0-0.1,0-0.2,0l-1.1-0.2c0.1-0.8,0.3-1.5,0.6-2.1s0.7-1.1,1.2-1.5
		s1.1-0.7,1.7-0.9S983.5,291,984.2,291z"/>
</g>
<path class="st6" d="M962.7,266.8h13.8v-3.5h-4.6v-16.1h-4.1l-5.3,4.9l2.8,2.9c0.9-0.8,1.4-1.2,2-2h0.1v10.4h-4.6v3.4L962.7,266.8
	L962.7,266.8z M981,257.6c0,6.5-4,14.9-11.5,14.9s-11.5-8.4-11.5-14.9s4-14.9,11.5-14.9C977,242.6,981,251,981,257.6z M999.5,266.8
	v-18.4c-5.1,0-9.2-4.1-9.2-9.2h-41.4c0,5.1-4.1,9.2-9.2,9.2v18.4c5.1,0,9.2,4.1,9.2,9.2h41.4C990.2,270.9,994.4,266.8,999.5,266.8
	L999.5,266.8z M1004,236.9v41.4c0,1.3-1,2.3-2.3,2.3h-64.4c-1.3,0-2.3-1-2.3-2.3v-41.4c0-1.3,1-2.3,2.3-2.3h64.4
	C1003,234.6,1004,235.6,1004,236.9z"/>
<path class="st1" d="M732.2,299.6l-17.3-20c-0.4-0.5-0.9-0.7-1.4-0.7s-1,0.2-1.4,0.7s-0.6,1-0.6,1.7v16.6h-53v6.7h53v16.6
	c0,0.6,0.2,1.2,0.6,1.7c0.4,0.5,0.9,0.7,1.4,0.7s1-0.2,1.4-0.7l17.2-20c0.4-0.5,0.6-1,0.6-1.7C732.9,300.6,732.7,300.1,732.2,299.6z
	"/>
<g>
	<g>
		<polyline class="st7" points="401,330.5 401,335.5 406,335.5 		"/>
		<line class="st7" x1="416.1" y1="335.5" x2="1036.8" y2="335.5"/>
		<polyline class="st7" points="1041.9,335.5 1046.9,335.5 1046.9,330.5 		"/>
		<line class="st7" x1="1046.9" y1="320.7" x2="1046.9" y2="11.4"/>
		<polyline class="st7" points="1046.9,6.5 1046.9,1.5 1041.9,1.5 		"/>
		<line class="st7" x1="1031.8" y1="1.5" x2="411" y2="1.5"/>
		<polyline class="st7" points="406,1.5 401,1.5 401,6.5 		"/>
		<line class="st7" x1="401" y1="16.3" x2="401" y2="325.6"/>
	</g>
</g>
<path class="st1" d="M389.5,299.6l-17.3-20c-0.4-0.5-0.9-0.7-1.4-0.7s-1,0.2-1.4,0.7s-0.6,1-0.6,1.7v16.6h-53v6.7h53v16.6
	c0,0.6,0.2,1.2,0.6,1.7s0.9,0.7,1.4,0.7s1-0.2,1.4-0.7l17.2-20c0.4-0.5,0.6-1,0.6-1.7C390,300.6,389.9,300.1,389.5,299.6z"/>
<path class="st1" d="M389.5,126.6l-17.3-20c-0.4-0.5-0.9-0.7-1.4-0.7s-1,0.2-1.4,0.7s-0.6,1-0.6,1.7v16.6h-53v6.7h53v16.6
	c0,0.6,0.2,1.2,0.6,1.7s0.9,0.7,1.4,0.7s1-0.2,1.4-0.7l17.2-20c0.4-0.5,0.6-1,0.6-1.7C390,127.6,389.9,127.1,389.5,126.6z"/>
</svg>
