<?xml version="1.0" encoding="utf-8"?>
<!-- Generator: Adobe Illustrator 21.1.0, SVG Export Plug-In . SVG Version: 6.00 Build 0)  -->
<svg version="1.1" id="Calque_1" xmlns="http://www.w3.org/2000/svg" xmlns:xlink="http://www.w3.org/1999/xlink" x="0px" y="0px"
	 viewBox="0 0 928.6 785.7" style="enable-background:new 0 0 928.6 785.7;" xml:space="preserve">
<style type="text/css">
	.st0{fill:#7499DD;}
</style>
<path class="st0" d="M928.6,250v142.9c0,19.5-16.2,35.7-35.7,35.7h-35.8c-19.5,0-35.7-16.2-35.7-35.7V250
	c0-78.7-64.1-142.8-142.8-142.8S535.7,171.3,535.7,250v107.2h53.6c29.6,0,53.6,24,53.6,53.5v321.5c0,29.5-24,53.5-53.6,53.5H53.6
	C24,785.7,0,761.7,0,732.2V410.7c0-29.5,24-53.5,53.6-53.5h375V250c0-137.8,112.1-250,250-250S928.6,112.2,928.6,250L928.6,250z"/>
</svg>
