<?xml version="1.0" encoding="utf-8"?>
<!-- Generator: Adobe Illustrator 21.1.0, SVG Export Plug-In . SVG Version: 6.00 Build 0)  -->
<svg version="1.1" id="Calque_1" xmlns="http://www.w3.org/2000/svg" xmlns:xlink="http://www.w3.org/1999/xlink" x="0px" y="0px"
	 viewBox="0 0 569 292" style="enable-background:new 0 0 569 292;" xml:space="preserve">
<style type="text/css">
	.st0{fill:url(#SVGID_1_);}
	.st1{fill:url(#SVGID_2_);}
	.st2{fill:#333333;}
</style>
<linearGradient id="SVGID_1_" gradientUnits="userSpaceOnUse" x1="284.5" y1="292" x2="284.5" y2="-4.999542e-02">
	<stop  offset="0" style="stop-color:#BBBBBB"/>
	<stop  offset="1" style="stop-color:#DCDCDC"/>
</linearGradient>
<rect x="0" y="0" class="st0" width="569" height="292"/>
<linearGradient id="SVGID_2_" gradientUnits="userSpaceOnUse" x1="284.5" y1="282" x2="284.5" y2="9.95">
	<stop  offset="0" style="stop-color:#E8E8E8"/>
	<stop  offset="1" style="stop-color:#F9F9F9"/>
</linearGradient>
<rect x="10" y="10" class="st1" width="549" height="272"/>
<g>
	<path class="st2" d="M121.3,72.2c6.3,0,12.1,0.9,17.4,2.8c5.3,1.9,9.8,4.5,13.5,7.9c3.7,3.4,6.6,7.5,8.7,12.3
		c2.1,4.8,3.1,10.2,3.1,16.1c0,5.1-0.7,9.8-2.2,14.1c-1.5,4.3-3.5,8.4-6,12.4c-2.5,3.9-5.4,7.7-8.8,11.4c-3.4,3.7-6.9,7.4-10.5,11.2
		l-31,31.6c3-0.9,6-1.6,8.9-2c2.9-0.5,5.7-0.7,8.4-0.7h35.2c2.5,0,4.5,0.7,6,2.1c1.5,1.4,2.2,3.3,2.2,5.7v14.1H72.1v-7.8
		c0-1.6,0.3-3.2,1-4.9s1.7-3.3,3.2-4.8l41.7-41.8c3.5-3.5,6.6-6.9,9.4-10.2c2.8-3.2,5.1-6.4,6.9-9.6c1.9-3.2,3.3-6.4,4.3-9.6
		c1-3.3,1.5-6.7,1.5-10.3c0-3.3-0.5-6.2-1.4-8.7c-1-2.5-2.3-4.6-4.1-6.3c-1.8-1.7-3.9-3-6.3-3.8c-2.4-0.9-5.2-1.3-8.2-1.3
		c-5.6,0-10.3,1.4-13.9,4.3c-3.6,2.9-6.2,6.7-7.6,11.5c-0.7,2.4-1.7,4.1-3.1,5.2c-1.4,1-3.2,1.6-5.3,1.6c-0.9,0-2-0.1-3.1-0.3
		L74.5,112c1-6.6,2.8-12.4,5.5-17.3c2.7-5,6.1-9.1,10.2-12.4c4.1-3.3,8.8-5.8,14.1-7.5C109.5,73.1,115.2,72.2,121.3,72.2z"/>
	<path class="st2" d="M279.8,142.4c0,12-1.3,22.4-3.8,31.2c-2.6,8.8-6.1,16.1-10.6,21.9c-4.5,5.8-9.9,10.1-16.1,12.9
		s-12.8,4.2-20,4.2c-7.2,0-13.8-1.4-19.9-4.2c-6.1-2.8-11.4-7.1-15.9-12.9c-4.5-5.8-8-13.1-10.5-21.9c-2.5-8.8-3.8-19.2-3.8-31.2
		c0-12,1.3-22.5,3.8-31.3c2.5-8.8,6-16.1,10.5-21.9c4.5-5.8,9.8-10.1,15.9-12.9c6.1-2.8,12.7-4.2,19.9-4.2c7.2,0,13.8,1.4,20,4.2
		c6.2,2.8,11.5,7.1,16.1,12.9c4.5,5.8,8.1,13,10.6,21.9C278.5,120,279.8,130.4,279.8,142.4z M255.5,142.4c0-9.9-0.7-18.2-2.2-24.7
		c-1.5-6.5-3.4-11.7-5.8-15.6c-2.4-3.9-5.2-6.6-8.4-8.1c-3.2-1.6-6.5-2.3-9.9-2.3c-3.4,0-6.6,0.8-9.7,2.3c-3.1,1.6-5.9,4.3-8.3,8.1
		c-2.4,3.9-4.3,9.1-5.7,15.6c-1.4,6.5-2.1,14.8-2.1,24.7c0,9.9,0.7,18.2,2.1,24.7c1.4,6.5,3.3,11.7,5.7,15.6
		c2.4,3.9,5.2,6.6,8.3,8.1c3.1,1.6,6.4,2.3,9.7,2.3c3.4,0,6.7-0.8,9.9-2.3c3.2-1.6,6-4.3,8.4-8.1c2.4-3.9,4.4-9.1,5.8-15.6
		C254.8,160.6,255.5,152.4,255.5,142.4z"/>
	<path class="st2" d="M310.1,193.5h27.8v-80.1c0-3.1,0.1-6.4,0.3-9.8l-19.8,16.5c-0.8,0.7-1.7,1.2-2.5,1.4c-0.9,0.3-1.7,0.4-2.5,0.4
		c-1.3,0-2.4-0.3-3.5-0.8c-1-0.5-1.8-1.2-2.3-1.9l-7.4-10.2l41.9-35.6h19.3v120h24.7v17.6h-76V193.5z"/>
	<path class="st2" d="M449.8,212.6c-7.1,0-13.6-1-19.4-2.8c-5.9-1.9-10.9-4.6-15.1-8.1c-4.2-3.5-7.4-7.7-9.7-12.6
		c-2.3-4.9-3.5-10.5-3.5-16.5c0-8.1,2-15,6-20.6c4-5.6,10.2-9.8,18.6-12.5c-6.7-2.8-11.7-6.7-15.1-11.9c-3.3-5.1-5-11.3-5-18.5
		c0-5.2,1.1-10,3.2-14.5c2.1-4.5,5.1-8.4,8.9-11.7c3.8-3.3,8.3-5.9,13.6-7.8c5.3-1.9,11.1-2.8,17.4-2.8s12.1,0.9,17.4,2.8
		c5.3,1.9,9.8,4.5,13.6,7.8c3.8,3.3,6.8,7.2,8.9,11.7c2.1,4.5,3.2,9.3,3.2,14.5c0,7.2-1.7,13.4-5,18.5c-3.4,5.1-8.4,9.1-15,11.9
		c8.4,2.7,14.6,6.9,18.6,12.5c4,5.6,6,12.5,6,20.6c0,6.1-1.2,11.6-3.5,16.5c-2.3,4.9-5.6,9.2-9.7,12.6c-4.2,3.5-9.2,6.2-15.1,8.1
		C463.4,211.7,456.9,212.6,449.8,212.6z M449.8,194.3c3.9,0,7.3-0.6,10.2-1.7c2.9-1.1,5.4-2.6,7.4-4.6c2-2,3.5-4.3,4.5-7
		c1-2.7,1.5-5.7,1.5-8.8c0-7.5-2.1-13.2-6.3-17.1c-4.2-3.9-9.9-5.8-17.3-5.8c-7.3,0-13.1,1.9-17.3,5.8c-4.2,3.9-6.3,9.6-6.3,17.1
		c0,3.2,0.5,6.1,1.5,8.8c1,2.7,2.5,5.1,4.5,7c2,2,4.4,3.5,7.4,4.6C442.6,193.7,445.9,194.3,449.8,194.3z M449.8,130.8
		c3.8,0,7-0.6,9.6-1.8c2.6-1.2,4.7-2.8,6.3-4.8c1.6-2,2.7-4.3,3.4-6.8c0.7-2.6,1-5.2,1-7.9c0-2.6-0.4-5.1-1.2-7.4
		c-0.8-2.3-2.1-4.4-3.7-6.2c-1.6-1.8-3.7-3.2-6.3-4.3c-2.5-1.1-5.5-1.6-9-1.6c-3.5,0-6.5,0.5-9,1.6c-2.5,1.1-4.6,2.5-6.3,4.3
		c-1.7,1.8-2.9,3.9-3.7,6.2c-0.8,2.3-1.2,4.8-1.2,7.4c0,2.7,0.3,5.4,1,7.9c0.7,2.6,1.8,4.8,3.4,6.8c1.6,2,3.7,3.6,6.3,4.8
		C442.8,130.2,446,130.8,449.8,130.8z"/>
</g>
</svg>
