<?xml version="1.0" encoding="utf-8"?>
<!-- Generator: Adobe Illustrator 21.1.0, SVG Export Plug-In . SVG Version: 6.00 Build 0)  -->
<svg version="1.1" id="Calque_1" xmlns="http://www.w3.org/2000/svg" xmlns:xlink="http://www.w3.org/1999/xlink" x="0px" y="0px"
	 viewBox="0 0 928.6 785.7" style="enable-background:new 0 0 928.6 785.7;" xml:space="preserve">
<path d="M785.7,447.6V625c0,88.8-72,160.7-160.7,160.7H160.7C72,785.7,0,713.8,0,625V160.7C0,72,72,0,160.7,0H625
	c22.3,0,44.6,4.5,65.3,14c5,2.2,8.9,7.2,10,12.8c1.2,6.2-0.5,11.7-5,16.2L668,70.3c-3.4,3.4-8.4,5.6-12.9,5.6c-1.6,0-3.3-0.5-5-1.1
	c-8.4-2.2-16.7-3.3-25.1-3.3H160.7c-49.1,0-89.3,40.1-89.3,89.2V625c0,49.1,40.2,89.3,89.3,89.3H625c49.1,0,89.3-40.2,89.3-89.3
	V483.3c0-4.5,1.7-8.9,5-12.3l35.7-35.7c3.9-3.9,8.4-5.6,12.9-5.6c2.2,0,4.4,0.6,6.7,1.7C781.3,434.2,785.7,440.3,785.7,447.6z
	 M914.6,174.7L460.4,628.9c-17.9,17.9-45.8,17.9-63.6,0L156.8,389c-17.8-17.9-17.8-45.8,0-63.6l61.4-61.4
	c17.8-17.9,45.8-17.9,63.6,0l146.8,146.7l361-361c17.9-17.9,45.8-17.9,63.6,0l61.4,61.4C932.5,128.9,932.5,156.8,914.6,174.7
	L914.6,174.7z"/>
</svg>
