<?xml version="1.0" encoding="utf-8"?>
<!-- Generator: Adobe Illustrator 21.1.0, SVG Export Plug-In . SVG Version: 6.00 Build 0)  -->
<svg version="1.1" id="Calque_1" xmlns="http://www.w3.org/2000/svg" xmlns:xlink="http://www.w3.org/1999/xlink" x="0px" y="0px"
	 viewBox="0 0 1002 235" style="enable-background:new 0 0 1002 235;" xml:space="preserve">
<style type="text/css">
	.st0{fill:#CC0033;}
	.st1{fill:#00CC66;}
	.st2{fill:#FFFFFF;}
	.st3{fill:#FF9900;}
	.st4{fill:none;stroke:#000000;stroke-width:0.9839;stroke-linecap:square;stroke-miterlimit:10;}
	.st5{fill:none;stroke:#000000;stroke-width:0.9839;stroke-miterlimit:10;}
</style>
<rect x="325.2" y="217.3" class="st0" width="25" height="15"/>
<rect x="251" y="99.8" class="st1" width="100" height="48.4"/>
<rect x="851" y="148.2" class="st2" width="50" height="48.4"/>
<rect x="901" y="148.2" class="st2" width="50" height="48.4"/>
<rect x="851" y="148.2" class="st0" width="75" height="48.8"/>
<rect x="651" y="99.8" class="st2" width="50" height="48.4"/>
<rect x="701" y="99.8" class="st2" width="50" height="48.4"/>
<rect x="676" y="99.8" class="st0" width="75" height="48.8"/>
<rect x="551" y="148.2" class="st2" width="50" height="48.4"/>
<rect x="601" y="148.2" class="st2" width="50" height="48.4"/>
<rect x="551" y="148.2" class="st1" width="75" height="48.4"/>
<rect x="301" y="148.2" class="st3" width="250" height="48.4"/>
<rect x="401" y="3" class="st2" width="600" height="48.4"/>
<rect x="101" y="3" class="st2" width="300" height="48.4"/>
<rect x="1.2" y="99.6" class="st2" width="100" height="48.4"/>
<rect x="1" y="148.2" class="st2" width="100" height="48.4"/>
<rect x="101" y="51.4" class="st2" width="50" height="48.4"/>
<rect x="101" y="99.8" class="st2" width="50" height="48.4"/>
<rect x="101" y="148.2" class="st2" width="50" height="48.4"/>
<rect x="151" y="51.4" class="st2" width="50" height="48.4"/>
<rect x="151" y="99.8" class="st2" width="50" height="48.4"/>
<rect x="151" y="148.2" class="st2" width="50" height="48.4"/>
<rect x="201" y="51.4" class="st2" width="50" height="48.4"/>
<rect x="201" y="99.8" class="st3" width="50" height="48.4"/>
<rect x="201" y="148.2" class="st2" width="50" height="48.4"/>
<rect x="251" y="51.4" class="st2" width="50" height="48.4"/>
<rect x="251" y="148.2" class="st2" width="50" height="48.4"/>
<rect x="301" y="51.4" class="st2" width="50" height="48.4"/>
<rect x="351" y="51.4" class="st2" width="50" height="48.4"/>
<rect x="351" y="99.8" class="st2" width="50" height="48.4"/>
<rect x="401" y="51.4" class="st2" width="50" height="48.4"/>
<rect x="401" y="99.8" class="st2" width="50" height="48.4"/>
<rect x="451" y="51.4" class="st2" width="50" height="48.4"/>
<rect x="451" y="99.8" class="st2" width="50" height="48.4"/>
<rect x="501" y="51.4" class="st2" width="50" height="48.4"/>
<rect x="501" y="99.8" class="st2" width="50" height="48.4"/>
<rect x="551" y="51.4" class="st2" width="50" height="48.4"/>
<rect x="551" y="99.8" class="st2" width="50" height="48.4"/>
<rect x="601" y="51.4" class="st2" width="50" height="48.4"/>
<rect x="601" y="99.8" class="st2" width="50" height="48.4"/>
<rect x="651" y="51.4" class="st2" width="50" height="48.4"/>
<rect x="651" y="148.2" class="st2" width="50" height="48.4"/>
<rect x="701" y="51.4" class="st2" width="50" height="48.4"/>
<rect x="701" y="148.2" class="st2" width="50" height="48.4"/>
<rect x="751" y="51.4" class="st2" width="50" height="48.4"/>
<rect x="751" y="99.8" class="st2" width="50" height="48.4"/>
<rect x="751" y="148.2" class="st2" width="50" height="48.4"/>
<rect x="801" y="51.4" class="st2" width="50" height="48.4"/>
<rect x="801" y="99.8" class="st2" width="50" height="48.4"/>
<rect x="801" y="148.2" class="st2" width="50" height="48.4"/>
<rect x="851" y="51.4" class="st2" width="50" height="48.4"/>
<rect x="851" y="99.8" class="st2" width="50" height="48.4"/>
<rect x="901" y="51.4" class="st2" width="50" height="48.4"/>
<rect x="901" y="99.8" class="st2" width="50" height="48.4"/>
<rect x="951" y="51.4" class="st2" width="50" height="48.4"/>
<rect x="951" y="99.8" class="st2" width="50" height="48.4"/>
<rect x="951" y="148.2" class="st2" width="50" height="48.4"/>
<line class="st4" x1="1.2" y1="148" x2="1001" y2="148.2"/>
<line class="st4" x1="1" y1="196.6" x2="1001" y2="196.6"/>
<line class="st4" x1="1.2" y1="99.6" x2="1001" y2="99.8"/>
<line class="st4" x1="101" y1="51.4" x2="1001" y2="51.4"/>
<line class="st4" x1="101" y1="3" x2="1001" y2="3"/>
<line class="st4" x1="1" y1="196.6" x2="1001" y2="196.6"/>
<line class="st4" x1="101" y1="196.6" x2="101" y2="3"/>
<line class="st4" x1="401" y1="148.2" x2="401" y2="3"/>
<line class="st4" x1="151" y1="51.4" x2="151" y2="99.8"/>
<line class="st4" x1="151" y1="99.8" x2="151" y2="148.2"/>
<line class="st4" x1="201" y1="99.8" x2="201" y2="148.2"/>
<line class="st4" x1="351" y1="99.8" x2="351" y2="148.2"/>
<line class="st4" x1="451" y1="99.8" x2="451" y2="148.2"/>
<line class="st4" x1="501" y1="99.8" x2="501" y2="148.2"/>
<line class="st4" x1="551" y1="99.8" x2="551" y2="148.2"/>
<line class="st4" x1="601" y1="99.8" x2="601" y2="148.2"/>
<line class="st4" x1="651" y1="99.8" x2="651" y2="148.2"/>
<line class="st4" x1="751" y1="99.8" x2="751" y2="148.2"/>
<line class="st4" x1="801" y1="99.8" x2="801" y2="148.2"/>
<line class="st4" x1="851" y1="99.8" x2="851" y2="148.2"/>
<line class="st4" x1="901" y1="99.8" x2="901" y2="148.2"/>
<line class="st4" x1="951" y1="99.8" x2="951" y2="148.2"/>
<line class="st4" x1="151" y1="148.2" x2="151" y2="196.6"/>
<line class="st4" x1="201" y1="148.2" x2="201" y2="196.6"/>
<line class="st4" x1="251" y1="148.2" x2="251" y2="196.6"/>
<line class="st4" x1="301" y1="148.2" x2="301" y2="196.6"/>
<line class="st4" x1="651" y1="148.2" x2="651" y2="196.6"/>
<line class="st4" x1="701" y1="148.2" x2="701" y2="196.6"/>
<line class="st4" x1="751" y1="148.2" x2="751" y2="196.6"/>
<line class="st4" x1="801" y1="148.2" x2="801" y2="196.6"/>
<line class="st4" x1="851" y1="148.2" x2="851" y2="196.6"/>
<line class="st4" x1="951" y1="148.2" x2="951" y2="196.6"/>
<line class="st4" x1="201" y1="51.4" x2="201" y2="99.8"/>
<line class="st5" x1="251" y1="51.4" x2="251" y2="99.8"/>
<line class="st5" x1="301" y1="51.4" x2="301" y2="99.8"/>
<line class="st4" x1="351" y1="51.4" x2="351" y2="99.8"/>
<line class="st4" x1="451" y1="51.4" x2="451" y2="99.8"/>
<line class="st4" x1="501" y1="51.4" x2="501" y2="99.8"/>
<line class="st4" x1="551" y1="51.4" x2="551" y2="99.8"/>
<line class="st4" x1="601" y1="51.4" x2="601" y2="99.8"/>
<line class="st4" x1="651" y1="51.4" x2="651" y2="99.8"/>
<line class="st4" x1="701" y1="51.4" x2="701" y2="99.8"/>
<line class="st4" x1="751" y1="51.4" x2="751" y2="99.8"/>
<line class="st4" x1="801" y1="51.4" x2="801" y2="99.8"/>
<line class="st4" x1="851" y1="51.4" x2="851" y2="99.8"/>
<line class="st4" x1="901" y1="51.4" x2="901" y2="99.8"/>
<line class="st4" x1="951" y1="51.4" x2="951" y2="99.8"/>
<line class="st4" x1="1001" y1="3" x2="1001" y2="196.6"/>
<line class="st4" x1="1.2" y1="99.6" x2="1" y2="196.6"/>
<path d="M116.6,78.5c0,0.7-0.1,1.4-0.3,1.8c-0.2,0.6-0.4,1.1-0.8,1.4c-0.3,0.4-0.8,0.7-1.3,0.9c-0.5,0.2-1.1,0.3-1.7,0.3
	s-1.2-0.1-1.8-0.3c0-0.2,0-0.3,0-0.5c0-0.2,0-0.3,0.1-0.5c0-0.1,0-0.2,0.1-0.2s0.2-0.1,0.3-0.1c0.1,0,0.3,0,0.4,0.1
	c0.2,0.1,0.4,0.1,0.7,0.1c0.4,0,0.7-0.1,1.1-0.2c0.3-0.1,0.6-0.3,0.8-0.6c0.2-0.3,0.4-0.6,0.5-1c0.1-0.4,0.2-0.9,0.2-1.4v-8.2h1.7
	L116.6,78.5L116.6,78.5z"/>
<path d="M120.9,74.1v5.6c0,0.7,0.2,1.2,0.5,1.5s0.8,0.6,1.4,0.6c0.5,0,0.9-0.1,1.3-0.3c0.4-0.2,0.8-0.5,1.1-0.9v-6.5h1.6V83h-1
	c-0.2,0-0.4-0.1-0.4-0.3l-0.1-1c-0.4,0.4-0.8,0.8-1.3,1.1c-0.5,0.3-1.1,0.4-1.7,0.4c-0.5,0-0.9-0.1-1.3-0.2c-0.4-0.2-0.7-0.4-1-0.7
	s-0.5-0.7-0.6-1.1s-0.2-0.9-0.2-1.4v-5.6h1.7V74.1z"/>
<path d="M131.6,71.3c0,0.2,0,0.3-0.1,0.4c-0.1,0.1-0.1,0.3-0.3,0.4c-0.2,0.1-0.2,0.2-0.4,0.2c-0.1,0.1-0.3,0.1-0.4,0.1
	c-0.2,0-0.3,0-0.4-0.1c-0.1-0.1-0.3-0.1-0.4-0.2c-0.1-0.1-0.2-0.2-0.2-0.4c-0.1-0.1-0.1-0.3-0.1-0.4c0-0.2,0-0.3,0.1-0.4
	c0.1-0.1,0.1-0.3,0.2-0.4c0.1-0.1,0.2-0.2,0.4-0.2c0.1-0.1,0.3-0.1,0.4-0.1c0.2,0,0.3,0,0.4,0.1c0.1,0.1,0.3,0.1,0.4,0.2
	c0.1,0.1,0.2,0.2,0.3,0.4C131.6,71,131.6,71.2,131.6,71.3z M131.3,74.1v8.8h-1.6v-8.8H131.3z"/>
<path d="M135.9,70v12.9h-1.6V70H135.9z"/>
<path d="M138.2,81.9c0-0.2,0-0.3,0.1-0.4c0.1-0.1,0.1-0.3,0.2-0.4c0.1-0.1,0.2-0.2,0.4-0.2c0.1-0.1,0.3-0.1,0.4-0.1
	c0.2,0,0.3,0,0.4,0.1c0.1,0.1,0.3,0.1,0.4,0.2c0.1,0.1,0.2,0.2,0.2,0.4c0.1,0.1,0.1,0.3,0.1,0.4c0,0.2,0,0.3-0.1,0.4
	c-0.1,0.1-0.1,0.3-0.2,0.4s-0.2,0.2-0.4,0.2c-0.1,0.1-0.3,0.1-0.4,0.1c-0.2,0-0.3,0-0.4-0.1c-0.1-0.1-0.3-0.1-0.4-0.2
	c-0.1-0.1-0.2-0.2-0.2-0.4C138.2,82.2,138.2,82.1,138.2,81.9z"/>
<path d="M214.2,72.3c-0.1,0.1-0.1,0.2-0.2,0.2c-0.1,0-0.1,0.1-0.2,0.1c-0.1,0-0.2-0.1-0.4-0.2c-0.1-0.1-0.3-0.2-0.5-0.3
	c-0.2-0.1-0.5-0.2-0.7-0.3c-0.2-0.1-0.6-0.2-1.1-0.2c-0.4,0-0.7,0.1-1,0.2c-0.3,0.1-0.6,0.2-0.8,0.4c-0.2,0.2-0.4,0.4-0.5,0.6
	c-0.1,0.2-0.2,0.5-0.2,0.8c0,0.4,0.1,0.7,0.3,0.9c0.2,0.2,0.4,0.4,0.7,0.6s0.6,0.3,1,0.4c0.4,0.1,0.7,0.3,1.1,0.4
	c0.4,0.1,0.8,0.3,1.1,0.4c0.4,0.2,0.7,0.4,1,0.6s0.5,0.6,0.7,0.9c0.2,0.4,0.3,0.8,0.3,1.4c0,0.6-0.1,1.1-0.3,1.5s-0.5,0.9-0.8,1.3
	c-0.4,0.4-0.8,0.7-1.4,0.9s-1.1,0.3-1.8,0.3c-0.8,0-1.6-0.2-2.3-0.5s-1.3-0.7-1.8-1.2l0.5-0.8c0-0.1,0.1-0.1,0.2-0.2
	c0.1,0,0.1-0.1,0.2-0.1c0.1,0,0.3,0.1,0.4,0.2c0.2,0.1,0.4,0.3,0.6,0.4c0.2,0.2,0.5,0.3,0.9,0.4c0.3,0.1,0.8,0.2,1.3,0.2
	c0.4,0,0.8-0.1,1.1-0.2s0.6-0.3,0.8-0.5s0.4-0.5,0.5-0.7c0.1-0.3,0.2-0.6,0.2-1s-0.1-0.7-0.3-1c-0.2-0.2-0.4-0.5-0.7-0.6
	c-0.3-0.2-0.6-0.3-1-0.4c-0.4-0.1-0.7-0.2-1.1-0.4c-0.4-0.1-0.8-0.3-1.1-0.4c-0.4-0.2-0.7-0.4-1-0.6c-0.3-0.3-0.5-0.6-0.7-1
	s-0.3-0.9-0.3-1.4s0.1-0.9,0.3-1.3s0.4-0.8,0.8-1.1c0.3-0.3,0.8-0.6,1.2-0.8c0.5-0.2,1.1-0.3,1.7-0.3c0.7,0,1.4,0.1,2,0.3
	s1.1,0.6,1.6,1L214.2,72.3z"/>
<path d="M220.4,73.9c0.5,0,1.1,0.1,1.5,0.3s0.9,0.4,1.2,0.8c0.3,0.3,0.6,0.8,0.8,1.3s0.3,1.1,0.3,1.6c0,0.3,0,0.4-0.1,0.5
	c-0.1,0.1-0.2,0.1-0.3,0.1h-6.1c0,0.6,0.1,1.1,0.2,1.5c0.1,0.4,0.3,0.8,0.6,1.1s0.6,0.5,0.9,0.6c0.3,0.1,0.7,0.2,1.2,0.2
	c0.4,0,0.7,0,1-0.1c0.3-0.1,0.5-0.2,0.8-0.3c0.2-0.1,0.4-0.2,0.5-0.3c0.1-0.1,0.3-0.1,0.4-0.1c0.1,0,0.2,0.1,0.3,0.2l0.4,0.6
	c-0.2,0.2-0.4,0.4-0.7,0.6c-0.3,0.2-0.6,0.3-0.9,0.4c-0.3,0.1-0.6,0.2-1,0.3c-0.3,0.1-0.7,0.1-1,0.1c-0.6,0-1.2-0.1-1.7-0.3
	s-1-0.5-1.4-0.9c-0.4-0.4-0.7-0.9-0.9-1.5c-0.2-0.6-0.3-1.3-0.3-2c0-0.6,0.1-1.2,0.3-1.7s0.5-1,0.8-1.4c0.4-0.4,0.8-0.7,1.3-1
	C219.2,74.1,219.8,73.9,220.4,73.9z M220.5,75.1c-0.8,0-1.4,0.2-1.8,0.7c-0.4,0.4-0.7,1.1-0.8,1.8h5c0-0.4-0.1-0.7-0.2-1
	c-0.1-0.3-0.3-0.6-0.4-0.8c-0.2-0.2-0.4-0.4-0.7-0.5C221.2,75.2,220.8,75.1,220.5,75.1z"/>
<path d="M226.3,85.9V74.1h1c0.2,0,0.4,0.1,0.4,0.3l0.1,1.1c0.4-0.5,0.8-0.9,1.3-1.1c0.5-0.3,1.1-0.4,1.7-0.4c0.5,0,1,0.1,1.4,0.3
	c0.4,0.2,0.8,0.5,1.1,0.9c0.3,0.4,0.5,0.9,0.7,1.5c0.2,0.6,0.2,1.3,0.2,1.9c0,0.7-0.1,1.3-0.3,1.8c-0.2,0.6-0.4,1.1-0.8,1.5
	c-0.3,0.4-0.7,0.8-1.2,1c-0.5,0.2-1,0.4-1.7,0.4c-0.6,0-1-0.1-1.4-0.3c-0.4-0.2-0.8-0.5-1.1-0.8V86L226.3,85.9L226.3,85.9z
	 M230.3,75.2c-0.5,0-1,0.1-1.4,0.4c-0.4,0.2-0.8,0.6-1.1,1v4.3c0.3,0.4,0.6,0.7,1,0.8c0.4,0.2,0.7,0.2,1.2,0.2c0.8,0,1.5-0.3,2-0.9
	c0.5-0.6,0.7-1.5,0.7-2.5c0-0.6-0.1-1.1-0.2-1.5c-0.1-0.4-0.3-0.8-0.5-1c-0.2-0.3-0.4-0.5-0.7-0.6C231,75.2,230.7,75.2,230.3,75.2z"
	/>
<path d="M239,83c-0.7,0-1.3-0.2-1.7-0.6c-0.4-0.4-0.6-1-0.6-1.6v-5.4h-1.1c-0.1,0-0.2,0-0.2-0.1c-0.1-0.1-0.1-0.1-0.1-0.3v-0.6
	l1.5-0.2l0.4-2.7c0-0.1,0.1-0.2,0.1-0.2c0.1-0.1,0.1-0.1,0.3-0.1h0.8v3h2.6v1.2h-2.6v5.3c0,0.4,0.1,0.7,0.3,0.9
	c0.2,0.2,0.4,0.3,0.7,0.3c0.2,0,0.3,0,0.4-0.1c0.1,0,0.2-0.1,0.3-0.1c0.1-0.1,0.2-0.1,0.2-0.1c0.1,0,0.1-0.1,0.2-0.1
	c0.1,0,0.2,0.1,0.2,0.2l0.5,0.8c-0.3,0.3-0.6,0.5-1,0.6C239.8,83,239.4,83,239,83z"/>
<path d="M242.4,81.9c0-0.2,0-0.3,0.1-0.4c0.1-0.1,0.1-0.3,0.2-0.4c0.1-0.1,0.2-0.2,0.4-0.2c0.1-0.1,0.3-0.1,0.4-0.1
	c0.2,0,0.3,0,0.4,0.1c0.1,0.1,0.3,0.1,0.4,0.2c0.1,0.1,0.2,0.2,0.2,0.4c0.1,0.1,0.1,0.3,0.1,0.4c0,0.2,0,0.3-0.1,0.4
	c-0.1,0.1-0.1,0.3-0.2,0.4s-0.2,0.2-0.4,0.2c-0.1,0.1-0.3,0.1-0.4,0.1c-0.2,0-0.3,0-0.4-0.1c-0.1-0.1-0.3-0.1-0.4-0.2
	c-0.1-0.1-0.2-0.2-0.2-0.4C242.4,82.2,242.4,82.1,242.4,81.9z"/>
<path d="M272.6,76.7c0,1-0.2,1.8-0.5,2.6c-0.3,0.8-0.7,1.5-1.3,2c-0.6,0.6-1.2,1-2,1.4c-0.8,0.3-1.6,0.5-2.6,0.5
	c-0.9,0-1.8-0.2-2.6-0.5c-0.8-0.3-1.4-0.8-2-1.4c-0.6-0.6-1-1.3-1.3-2c-0.3-0.8-0.5-1.6-0.5-2.6s0.2-1.8,0.5-2.6
	c0.3-0.8,0.7-1.5,1.3-2c0.6-0.6,1.2-1,2-1.4c0.8-0.3,1.6-0.5,2.6-0.5c0.9,0,1.8,0.2,2.6,0.5c0.8,0.3,1.5,0.8,2,1.4
	c0.5,0.6,1,1.3,1.3,2S272.6,75.7,272.6,76.7z M270.8,76.7c0-0.8-0.1-1.5-0.3-2c-0.2-0.6-0.5-1.2-0.9-1.5c-0.4-0.4-0.9-0.8-1.4-1
	c-0.6-0.2-1.2-0.4-1.9-0.4c-0.7,0-1.3,0.1-1.9,0.4c-0.6,0.2-1,0.6-1.4,1c-0.4,0.4-0.7,1-0.9,1.5c-0.2,0.6-0.3,1.3-0.3,2
	s0.1,1.5,0.3,2c0.2,0.6,0.5,1.2,0.9,1.5s0.9,0.8,1.4,1s1.2,0.3,1.9,0.3c0.7,0,1.3-0.1,1.9-0.3s1-0.6,1.4-1s0.7-1,0.9-1.5
	C270.7,78.2,270.8,77.4,270.8,76.7z"/>
<path d="M280.9,75.6c0,0.1-0.1,0.1-0.1,0.2c0,0-0.1,0.1-0.2,0.1s-0.2,0-0.3-0.1c-0.1-0.1-0.2-0.2-0.4-0.2c-0.2-0.1-0.4-0.2-0.6-0.2
	s-0.5-0.1-0.9-0.1s-0.8,0.1-1.2,0.2c-0.3,0.2-0.6,0.4-0.9,0.7c-0.2,0.3-0.4,0.7-0.5,1.1c-0.1,0.4-0.2,0.9-0.2,1.4
	c0,0.6,0.1,1,0.2,1.5c0.1,0.4,0.3,0.8,0.5,1.1s0.5,0.5,0.8,0.7c0.3,0.2,0.7,0.2,1.1,0.2s0.7,0,1-0.1c0.3-0.1,0.5-0.2,0.6-0.3
	c0.1-0.1,0.3-0.2,0.4-0.3c0.1-0.1,0.2-0.1,0.3-0.1c0.1,0,0.2,0.1,0.3,0.2l0.5,0.6c-0.4,0.5-0.9,0.8-1.5,1.1
	c-0.6,0.2-1.2,0.3-1.9,0.3c-0.6,0-1.1-0.1-1.6-0.3c-0.5-0.2-0.9-0.5-1.3-0.9s-0.6-0.9-0.9-1.5c-0.2-0.6-0.3-1.2-0.3-1.9
	c0-0.7,0.1-1.3,0.3-1.8c0.2-0.6,0.5-1.1,0.8-1.5c0.4-0.4,0.8-0.7,1.3-1c0.5-0.2,1.1-0.4,1.8-0.4c0.6,0,1.2,0.1,1.7,0.3
	c0.5,0.2,0.9,0.5,1.3,0.9L280.9,75.6z"/>
<path d="M285.9,83c-0.7,0-1.3-0.2-1.7-0.6c-0.4-0.4-0.6-1-0.6-1.6v-5.4h-1.1c-0.1,0-0.2,0-0.2-0.1c-0.1-0.1-0.1-0.1-0.1-0.3v-0.6
	l1.5-0.2l0.4-2.7c0-0.1,0.1-0.2,0.1-0.2c0.1-0.1,0.1-0.1,0.3-0.1h0.8v3h2.6v1.2h-2.6v5.3c0,0.4,0.1,0.7,0.3,0.9
	c0.2,0.2,0.4,0.3,0.7,0.3c0.2,0,0.3,0,0.4-0.1c0.1,0,0.2-0.1,0.3-0.1c0.1-0.1,0.2-0.1,0.2-0.1c0.1,0,0.1-0.1,0.2-0.1
	s0.2,0.1,0.2,0.2l0.5,0.8c-0.3,0.3-0.6,0.5-1,0.6C286.7,83,286.3,83,285.9,83z"/>
<path d="M289.3,81.9c0-0.2,0-0.3,0.1-0.4c0.1-0.1,0.1-0.3,0.2-0.4c0.1-0.1,0.2-0.2,0.4-0.2c0.1-0.1,0.3-0.1,0.4-0.1
	c0.2,0,0.3,0,0.4,0.1c0.1,0.1,0.3,0.1,0.4,0.2c0.1,0.1,0.2,0.2,0.2,0.4c0.1,0.1,0.1,0.3,0.1,0.4c0,0.2,0,0.3-0.1,0.4
	c-0.1,0.1-0.1,0.3-0.2,0.4s-0.2,0.2-0.4,0.2c-0.1,0.1-0.3,0.1-0.4,0.1c-0.2,0-0.3,0-0.4-0.1c-0.1-0.1-0.3-0.1-0.4-0.2
	s-0.2-0.2-0.2-0.4C289.4,82.2,289.3,82.1,289.3,81.9z"/>
<path d="M310.9,70.5c0.1,0,0.2,0.1,0.3,0.2l7.5,9.4c0-0.2,0-0.3,0-0.5s0-0.3,0-0.4v-8.8h1.5v12.5h-1c-0.1,0-0.3,0-0.3-0.1
	c-0.1,0-0.2-0.1-0.3-0.2l-7.5-9.4c0,0.1,0,0.3,0,0.4c0,0.1,0,0.3,0,0.4v8.9h-1.5V70.4h0.9C310.7,70.4,310.8,70.4,310.9,70.5z"/>
<path d="M326.7,73.9c0.7,0,1.3,0.1,1.8,0.3c0.5,0.2,1,0.5,1.4,0.9s0.7,0.9,0.9,1.5c0.2,0.6,0.3,1.2,0.3,1.8c0,0.7-0.1,1.4-0.3,1.8
	c-0.2,0.6-0.5,1.1-0.9,1.5c-0.4,0.4-0.8,0.7-1.4,0.9c-0.5,0.2-1.1,0.3-1.8,0.3s-1.3-0.1-1.8-0.3c-0.5-0.2-1-0.5-1.4-0.9
	c-0.4-0.4-0.7-0.9-0.9-1.5c-0.2-0.6-0.3-1.2-0.3-1.8c0-0.7,0.1-1.4,0.3-1.8c0.2-0.6,0.5-1.1,0.9-1.5s0.8-0.7,1.4-0.9
	C325.4,74.1,326,73.9,326.7,73.9z M326.7,81.8c0.9,0,1.6-0.3,2-0.9c0.4-0.6,0.7-1.4,0.7-2.4c0-1.1-0.2-1.8-0.7-2.4
	c-0.4-0.6-1.1-0.9-2-0.9c-0.5,0-0.9,0.1-1.2,0.2c-0.3,0.2-0.6,0.4-0.8,0.7c-0.2,0.3-0.4,0.7-0.5,1.1s-0.2,0.9-0.2,1.5s0.1,1,0.2,1.4
	c0.1,0.4,0.3,0.8,0.5,1.1s0.5,0.5,0.8,0.7C325.8,81.7,326.2,81.8,326.7,81.8z"/>
<path d="M331.6,74.1h1.3c0.1,0,0.2,0,0.3,0.1c0.1,0.1,0.1,0.1,0.2,0.2l2.3,5.7c0.1,0.2,0.1,0.4,0.2,0.6c0,0.2,0.1,0.4,0.1,0.6
	c0-0.2,0.1-0.4,0.2-0.6c0.1-0.2,0.1-0.4,0.2-0.6l2.3-5.7c0-0.1,0.1-0.2,0.2-0.2s0.2-0.1,0.3-0.1h1.3l-3.7,8.8h-1.4L331.6,74.1z"/>
<path d="M340.3,81.9c0-0.2,0-0.3,0.1-0.4c0.1-0.1,0.1-0.3,0.2-0.4c0.1-0.1,0.2-0.2,0.4-0.2c0.1-0.1,0.3-0.1,0.4-0.1
	c0.2,0,0.3,0,0.4,0.1c0.1,0.1,0.3,0.1,0.4,0.2c0.1,0.1,0.2,0.2,0.2,0.4c0.1,0.1,0.1,0.3,0.1,0.4c0,0.2,0,0.3-0.1,0.4
	c-0.1,0.1-0.1,0.3-0.2,0.4s-0.2,0.2-0.4,0.2c-0.1,0.1-0.3,0.1-0.4,0.1c-0.2,0-0.3,0-0.4-0.1c-0.1-0.1-0.3-0.1-0.4-0.2
	s-0.2-0.2-0.2-0.4C340.3,82.2,340.3,82.1,340.3,81.9z"/>
<path d="M370.8,76.7c0,1-0.2,1.7-0.5,2.5c-0.3,0.8-0.7,1.5-1.3,1.9c-0.6,0.6-1.2,1-2,1.3s-1.6,0.5-2.6,0.5h-4.8V70.4h4.8
	c0.9,0,1.8,0.2,2.6,0.5c0.8,0.3,1.4,0.7,2,1.3c0.6,0.6,1,1.2,1.3,1.9C370.7,74.9,370.8,75.7,370.8,76.7z M369,76.7
	c0-0.8-0.1-1.5-0.3-2c-0.2-0.6-0.5-1.2-0.9-1.5c-0.4-0.4-0.9-0.8-1.4-1s-1.2-0.4-1.9-0.4h-3.1v9.8h3.1c0.7,0,1.3-0.1,1.9-0.3
	s1-0.6,1.4-1s0.7-1,0.9-1.5C368.9,78.2,369,77.4,369,76.7z"/>
<path d="M376.6,73.9c0.5,0,1.1,0.1,1.5,0.3s0.9,0.4,1.2,0.8c0.3,0.3,0.6,0.8,0.8,1.3c0.2,0.5,0.3,1.1,0.3,1.6c0,0.3,0,0.4-0.1,0.5
	c-0.1,0.1-0.2,0.1-0.3,0.1h-6.1c0,0.6,0.1,1.1,0.2,1.5c0.1,0.4,0.3,0.8,0.6,1.1s0.6,0.5,0.9,0.6c0.3,0.1,0.7,0.2,1.2,0.2
	c0.4,0,0.7,0,1-0.1c0.3-0.1,0.5-0.2,0.8-0.3c0.2-0.1,0.4-0.2,0.5-0.3c0.1-0.1,0.3-0.1,0.4-0.1s0.2,0.1,0.3,0.2l0.4,0.6
	c-0.2,0.2-0.4,0.4-0.7,0.6c-0.3,0.2-0.6,0.3-0.9,0.4c-0.3,0.1-0.6,0.2-1,0.3c-0.3,0.1-0.7,0.1-1,0.1c-0.6,0-1.2-0.1-1.7-0.3
	s-1-0.5-1.4-0.9c-0.4-0.4-0.7-0.9-0.9-1.5c-0.2-0.6-0.3-1.3-0.3-2c0-0.6,0.1-1.2,0.3-1.7c0.2-0.6,0.5-1,0.8-1.4
	c0.4-0.4,0.8-0.7,1.3-1C375.3,74.1,375.9,73.9,376.6,73.9z M376.6,75.1c-0.8,0-1.4,0.2-1.8,0.7c-0.4,0.4-0.7,1.1-0.8,1.8h5
	c0-0.4-0.1-0.7-0.2-1c-0.1-0.3-0.3-0.6-0.4-0.8c-0.2-0.2-0.4-0.4-0.7-0.5C377.3,75.2,377,75.1,376.6,75.1z M379.2,70.3l-2.1,2.2
	c-0.1,0.1-0.2,0.2-0.2,0.2s-0.2,0.1-0.3,0.1h-1l1.3-2.1c0.1-0.1,0.2-0.2,0.3-0.3c0.1-0.1,0.2-0.1,0.4-0.1H379.2z"/>
<path d="M388.6,75.6c0,0.1-0.1,0.1-0.1,0.2c0,0-0.1,0.1-0.2,0.1s-0.2,0-0.3-0.1c-0.1-0.1-0.2-0.2-0.4-0.2c-0.2-0.1-0.4-0.2-0.6-0.2
	s-0.5-0.1-0.9-0.1s-0.8,0.1-1.2,0.2c-0.3,0.2-0.6,0.4-0.9,0.7c-0.2,0.3-0.4,0.7-0.5,1.1c-0.1,0.4-0.2,0.9-0.2,1.4
	c0,0.6,0.1,1,0.2,1.5c0.1,0.4,0.3,0.8,0.5,1.1s0.5,0.5,0.8,0.7c0.3,0.2,0.7,0.2,1.1,0.2s0.7,0,1-0.1c0.3-0.1,0.5-0.2,0.6-0.3
	c0.1-0.1,0.3-0.2,0.4-0.3c0.1-0.1,0.2-0.1,0.3-0.1c0.1,0,0.2,0.1,0.3,0.2L389,82c-0.4,0.5-0.9,0.8-1.5,1.1c-0.6,0.2-1.2,0.3-1.9,0.3
	c-0.6,0-1.1-0.1-1.6-0.3c-0.5-0.2-0.9-0.5-1.3-0.9s-0.6-0.9-0.9-1.5c-0.2-0.6-0.3-1.2-0.3-1.9c0-0.7,0.1-1.3,0.3-1.8
	c0.2-0.6,0.5-1.1,0.8-1.5c0.4-0.4,0.8-0.7,1.3-1c0.5-0.2,1.1-0.4,1.8-0.4c0.6,0,1.2,0.1,1.7,0.3c0.5,0.2,0.9,0.5,1.3,0.9L388.6,75.6
	z"/>
<path d="M390.3,81.9c0-0.2,0-0.3,0.1-0.4c0.1-0.1,0.1-0.3,0.2-0.4c0.1-0.1,0.2-0.2,0.4-0.2c0.1-0.1,0.3-0.1,0.4-0.1
	c0.2,0,0.3,0,0.4,0.1c0.1,0.1,0.3,0.1,0.4,0.2c0.1,0.1,0.2,0.2,0.2,0.4c0.1,0.1,0.1,0.3,0.1,0.4c0,0.2,0,0.3-0.1,0.4
	c-0.1,0.1-0.1,0.3-0.2,0.4s-0.2,0.2-0.4,0.2c-0.1,0.1-0.3,0.1-0.4,0.1c-0.2,0-0.3,0-0.4-0.1c-0.1-0.1-0.3-0.1-0.4-0.2
	s-0.2-0.2-0.2-0.4C390.3,82.2,390.3,82.1,390.3,81.9z"/>
<path d="M716.7,78.5c0,0.7-0.1,1.4-0.3,1.8c-0.2,0.6-0.4,1.1-0.8,1.4c-0.3,0.4-0.8,0.7-1.3,0.9c-0.5,0.2-1.1,0.3-1.7,0.3
	c-0.6,0-1.2-0.1-1.8-0.3c0-0.2,0-0.3,0-0.5c0-0.2,0-0.3,0.1-0.5c0-0.1,0-0.2,0.1-0.2c0.1-0.1,0.2-0.1,0.3-0.1s0.3,0,0.4,0.1
	c0.1,0.1,0.4,0.1,0.7,0.1c0.4,0,0.7-0.1,1.1-0.2c0.3-0.1,0.6-0.3,0.8-0.6c0.2-0.3,0.4-0.6,0.5-1c0.1-0.4,0.2-0.9,0.2-1.4v-8.2h1.7
	V78.5z"/>
<path d="M721,74.1v5.6c0,0.7,0.2,1.2,0.5,1.5s0.8,0.6,1.4,0.6c0.5,0,0.9-0.1,1.3-0.3c0.4-0.2,0.8-0.5,1.1-0.9v-6.5h1.6V83h-1
	c-0.2,0-0.4-0.1-0.4-0.3l-0.1-1c-0.4,0.4-0.8,0.8-1.3,1.1c-0.5,0.3-1.1,0.4-1.7,0.4c-0.5,0-0.9-0.1-1.3-0.2c-0.4-0.1-0.7-0.4-1-0.7
	s-0.5-0.7-0.6-1.1s-0.2-0.9-0.2-1.4v-5.6h1.7V74.1z"/>
<path d="M731.7,71.3c0,0.2,0,0.3-0.1,0.4c-0.1,0.1-0.1,0.3-0.3,0.4c-0.1,0.1-0.2,0.2-0.4,0.2c-0.1,0.1-0.3,0.1-0.4,0.1
	c-0.2,0-0.3,0-0.4-0.1c-0.1-0.1-0.3-0.1-0.4-0.2c-0.1-0.1-0.2-0.2-0.2-0.4c-0.1-0.1-0.1-0.3-0.1-0.4c0-0.2,0-0.3,0.1-0.4
	c0.1-0.1,0.1-0.3,0.2-0.4c0.1-0.1,0.2-0.2,0.4-0.2s0.3-0.1,0.4-0.1c0.2,0,0.3,0,0.4,0.1c0.1,0.1,0.3,0.1,0.4,0.2
	c0.1,0.1,0.2,0.2,0.3,0.4C731.7,71,731.7,71.2,731.7,71.3z M731.3,74.1v8.8h-1.6v-8.8H731.3z"/>
<path d="M736,70v12.9h-1.6V70H736z"/>
<path d="M738.2,81.9c0-0.2,0-0.3,0.1-0.4c0.1-0.1,0.1-0.3,0.2-0.4c0.1-0.1,0.2-0.2,0.4-0.2c0.1-0.1,0.3-0.1,0.4-0.1
	c0.2,0,0.3,0,0.4,0.1c0.1,0.1,0.3,0.1,0.4,0.2c0.1,0.1,0.2,0.2,0.2,0.4c0.1,0.1,0.1,0.3,0.1,0.4c0,0.2,0,0.3-0.1,0.4
	c-0.1,0.1-0.1,0.3-0.2,0.4s-0.2,0.2-0.4,0.2c-0.1,0.1-0.3,0.1-0.4,0.1c-0.2,0-0.3,0-0.4-0.1c-0.1-0.1-0.3-0.1-0.4-0.2
	s-0.2-0.2-0.2-0.4C738.2,82.2,738.2,82.1,738.2,81.9z"/>
<path d="M814.2,72.3c-0.1,0.1-0.1,0.2-0.2,0.2c-0.1,0-0.1,0.1-0.2,0.1c-0.1,0-0.2-0.1-0.4-0.2c-0.1-0.1-0.3-0.2-0.5-0.3
	c-0.2-0.1-0.5-0.2-0.7-0.3c-0.2-0.1-0.6-0.2-1.1-0.2c-0.4,0-0.7,0.1-1,0.2c-0.3,0.1-0.6,0.2-0.8,0.4c-0.2,0.2-0.4,0.4-0.5,0.6
	c-0.1,0.2-0.2,0.5-0.2,0.8c0,0.4,0.1,0.7,0.3,0.9c0.2,0.2,0.4,0.4,0.7,0.6s0.6,0.3,1,0.4c0.4,0.1,0.7,0.3,1.1,0.4
	c0.4,0.1,0.8,0.3,1.1,0.4c0.3,0.1,0.7,0.4,1,0.6s0.5,0.6,0.7,0.9c0.2,0.4,0.3,0.8,0.3,1.4c0,0.6-0.1,1.1-0.3,1.5s-0.5,0.9-0.8,1.3
	c-0.4,0.4-0.8,0.7-1.4,0.9s-1.1,0.3-1.8,0.3c-0.8,0-1.6-0.2-2.3-0.5s-1.3-0.7-1.8-1.2l0.5-0.8c0-0.1,0.1-0.1,0.2-0.2
	c0.1,0,0.1-0.1,0.2-0.1c0.1,0,0.3,0.1,0.4,0.2c0.2,0.1,0.4,0.3,0.6,0.4c0.2,0.2,0.5,0.3,0.9,0.4c0.3,0.1,0.8,0.2,1.3,0.2
	c0.4,0,0.8-0.1,1.1-0.2s0.6-0.3,0.8-0.5s0.4-0.5,0.5-0.7c0.1-0.3,0.2-0.6,0.2-1s-0.1-0.7-0.3-1s-0.4-0.5-0.7-0.6
	c-0.3-0.1-0.6-0.3-1-0.4c-0.4-0.1-0.7-0.2-1.1-0.4c-0.4-0.1-0.8-0.3-1.1-0.4c-0.4-0.2-0.7-0.4-1-0.6c-0.3-0.3-0.5-0.6-0.7-1
	S807,74,807,73.5s0.1-0.9,0.3-1.3s0.4-0.8,0.8-1.1c0.3-0.3,0.8-0.6,1.2-0.8c0.5-0.2,1.1-0.3,1.7-0.3c0.7,0,1.4,0.1,2,0.3
	s1.1,0.6,1.6,1L814.2,72.3z"/>
<path d="M820.5,73.9c0.5,0,1.1,0.1,1.5,0.3c0.5,0.2,0.9,0.4,1.2,0.8c0.3,0.3,0.6,0.8,0.8,1.3s0.3,1.1,0.3,1.6c0,0.3,0,0.4-0.1,0.5
	c-0.1,0.1-0.2,0.1-0.3,0.1h-6.1c0,0.6,0.1,1.1,0.2,1.5c0.1,0.4,0.3,0.8,0.6,1.1s0.6,0.5,0.9,0.6c0.3,0.1,0.7,0.2,1.2,0.2
	c0.4,0,0.7,0,1-0.1c0.3-0.1,0.5-0.2,0.8-0.3c0.2-0.1,0.4-0.2,0.5-0.3c0.1-0.1,0.3-0.1,0.4-0.1c0.1,0,0.2,0.1,0.3,0.2l0.5,0.6
	c-0.2,0.2-0.4,0.4-0.7,0.6c-0.3,0.2-0.6,0.3-0.9,0.4c-0.3,0.1-0.6,0.2-1,0.3c-0.3,0.1-0.7,0.1-1,0.1c-0.6,0-1.2-0.1-1.7-0.3
	s-1-0.5-1.4-0.9c-0.4-0.4-0.7-0.9-0.9-1.5c-0.2-0.6-0.3-1.3-0.3-2c0-0.6,0.1-1.2,0.3-1.7s0.5-1,0.8-1.4c0.4-0.4,0.8-0.7,1.3-1
	C819.2,74.1,819.8,73.9,820.5,73.9z M820.5,75.1c-0.8,0-1.4,0.2-1.8,0.7c-0.4,0.4-0.7,1.1-0.8,1.8h5c0-0.4-0.1-0.7-0.2-1
	c-0.1-0.3-0.3-0.6-0.5-0.8s-0.4-0.4-0.7-0.5C821.2,75.2,820.8,75.1,820.5,75.1z"/>
<path d="M826.3,85.9V74.1h1c0.2,0,0.4,0.1,0.4,0.3l0.1,1.1c0.4-0.5,0.8-0.9,1.3-1.1c0.5-0.3,1.1-0.4,1.7-0.4c0.5,0,1,0.1,1.4,0.3
	c0.4,0.2,0.8,0.5,1.1,0.9c0.3,0.4,0.5,0.9,0.7,1.5c0.2,0.6,0.2,1.3,0.2,1.9c0,0.7-0.1,1.3-0.3,1.8c-0.2,0.6-0.4,1.1-0.8,1.5
	c-0.3,0.4-0.7,0.8-1.2,1c-0.5,0.2-1,0.4-1.7,0.4c-0.6,0-1-0.1-1.4-0.3c-0.4-0.2-0.8-0.5-1.1-0.8V86L826.3,85.9L826.3,85.9z
	 M830.3,75.2c-0.5,0-1,0.1-1.4,0.4c-0.4,0.2-0.8,0.6-1.1,1v4.3c0.3,0.4,0.6,0.7,1,0.8c0.4,0.2,0.7,0.2,1.2,0.2c0.8,0,1.5-0.3,2-0.9
	c0.5-0.6,0.7-1.5,0.7-2.5c0-0.6-0.1-1.1-0.2-1.5c-0.1-0.4-0.3-0.8-0.5-1c-0.2-0.3-0.4-0.5-0.7-0.6S830.8,75.2,830.3,75.2z"/>
<path d="M839,83c-0.7,0-1.3-0.2-1.7-0.6c-0.4-0.4-0.6-1-0.6-1.6v-5.4h-1.1c-0.1,0-0.2,0-0.2-0.1c0-0.1-0.1-0.1-0.1-0.3v-0.6l1.5-0.2
	l0.4-2.7c0-0.1,0.1-0.2,0.1-0.2c0.1-0.1,0.2-0.1,0.3-0.1h0.8v3h2.6v1.2h-2.6v5.3c0,0.4,0.1,0.7,0.3,0.9c0.2,0.2,0.4,0.3,0.7,0.3
	c0.2,0,0.3,0,0.4-0.1c0.1,0,0.2-0.1,0.3-0.1c0.1-0.1,0.2-0.1,0.2-0.1c0.1,0,0.1-0.1,0.2-0.1c0.1,0,0.2,0.1,0.2,0.2l0.5,0.8
	c-0.3,0.3-0.6,0.5-1,0.6C839.8,83,839.5,83,839,83z"/>
<path d="M842.5,81.9c0-0.2,0-0.3,0.1-0.4c0.1-0.1,0.1-0.3,0.2-0.4c0.1-0.1,0.2-0.2,0.4-0.2c0.1-0.1,0.3-0.1,0.4-0.1s0.3,0,0.4,0.1
	c0.1,0.1,0.3,0.1,0.4,0.2c0.1,0.1,0.2,0.2,0.2,0.4c0.1,0.1,0.1,0.3,0.1,0.4c0,0.2,0,0.3-0.1,0.4c-0.1,0.1-0.1,0.3-0.2,0.4
	s-0.2,0.2-0.4,0.2c-0.1,0.1-0.3,0.1-0.4,0.1s-0.3,0-0.4-0.1c-0.1-0.1-0.3-0.1-0.4-0.2c-0.1-0.1-0.2-0.2-0.2-0.4
	C842.5,82.2,842.5,82.1,842.5,81.9z"/>
<path d="M872.7,76.7c0,1-0.2,1.8-0.5,2.6c-0.3,0.8-0.7,1.5-1.3,2c-0.6,0.6-1.2,1-2,1.4c-0.8,0.3-1.6,0.5-2.6,0.5
	c-0.9,0-1.8-0.2-2.6-0.5s-1.4-0.8-2-1.4c-0.6-0.6-1-1.3-1.3-2c-0.3-0.8-0.5-1.6-0.5-2.6s0.2-1.8,0.5-2.6s0.7-1.5,1.3-2
	c0.6-0.6,1.2-1,2-1.4c0.8-0.3,1.6-0.5,2.6-0.5c0.9,0,1.8,0.2,2.6,0.5c0.8,0.3,1.5,0.8,2,1.4c0.5,0.6,1,1.3,1.3,2
	S872.7,75.7,872.7,76.7z M870.8,76.7c0-0.8-0.1-1.5-0.3-2c-0.2-0.6-0.5-1.2-0.9-1.5c-0.4-0.4-0.9-0.8-1.4-1
	c-0.6-0.2-1.2-0.4-1.9-0.4s-1.3,0.1-1.9,0.4c-0.6,0.2-1,0.6-1.4,1c-0.4,0.4-0.7,1-0.9,1.5c-0.2,0.6-0.3,1.3-0.3,2s0.1,1.5,0.3,2
	c0.2,0.6,0.5,1.2,0.9,1.5s0.9,0.8,1.4,1s1.2,0.3,1.9,0.3s1.3-0.1,1.9-0.3c0.6-0.2,1-0.6,1.4-1s0.7-1,0.9-1.5
	C870.8,78.2,870.8,77.4,870.8,76.7z"/>
<path d="M881,75.6c0,0.1-0.1,0.1-0.1,0.2c0,0-0.1,0.1-0.2,0.1s-0.2,0-0.3-0.1c-0.1-0.1-0.2-0.2-0.4-0.2c-0.2-0.1-0.4-0.2-0.6-0.2
	c-0.2-0.1-0.5-0.1-0.8-0.1c-0.4,0-0.8,0.1-1.2,0.2c-0.3,0.2-0.6,0.4-0.9,0.7c-0.2,0.3-0.4,0.7-0.5,1.1c-0.1,0.4-0.2,0.9-0.2,1.4
	c0,0.6,0.1,1,0.2,1.5c0.1,0.4,0.3,0.8,0.5,1.1s0.5,0.5,0.8,0.7c0.3,0.2,0.7,0.2,1.1,0.2c0.4,0,0.7,0,1-0.1c0.3-0.1,0.5-0.2,0.6-0.3
	c0.1-0.1,0.3-0.2,0.4-0.3c0.1-0.1,0.2-0.1,0.3-0.1s0.2,0.1,0.3,0.2l0.5,0.6c-0.4,0.5-0.9,0.8-1.5,1.1c-0.6,0.2-1.2,0.3-1.9,0.3
	c-0.6,0-1.1-0.1-1.6-0.3c-0.5-0.2-0.9-0.5-1.3-0.9c-0.4-0.4-0.6-0.9-0.8-1.5s-0.3-1.2-0.3-1.9c0-0.7,0.1-1.3,0.3-1.8
	c0.2-0.6,0.5-1.1,0.8-1.5s0.8-0.7,1.3-1c0.5-0.2,1.1-0.4,1.8-0.4c0.6,0,1.2,0.1,1.7,0.3c0.5,0.2,0.9,0.5,1.3,0.9L881,75.6z"/>
<path d="M886,83c-0.7,0-1.3-0.2-1.7-0.6c-0.4-0.4-0.6-1-0.6-1.6v-5.4h-1.1c-0.1,0-0.2,0-0.2-0.1c0-0.1-0.1-0.1-0.1-0.3v-0.6l1.5-0.2
	l0.4-2.7c0-0.1,0.1-0.2,0.1-0.2c0.1-0.1,0.2-0.1,0.3-0.1h0.8v3h2.6v1.2h-2.6v5.3c0,0.4,0.1,0.7,0.3,0.9c0.2,0.2,0.4,0.3,0.7,0.3
	c0.2,0,0.3,0,0.4-0.1c0.1,0,0.2-0.1,0.3-0.1c0.1-0.1,0.2-0.1,0.2-0.1c0.1,0,0.1-0.1,0.2-0.1c0.1,0,0.2,0.1,0.2,0.2l0.5,0.8
	c-0.3,0.3-0.6,0.5-1,0.6C886.8,83.1,886.3,83,886,83z"/>
<path d="M889.3,81.9c0-0.2,0-0.3,0.1-0.4c0.1-0.1,0.1-0.3,0.2-0.4c0.1-0.1,0.2-0.2,0.4-0.2c0.1-0.1,0.3-0.1,0.4-0.1s0.3,0,0.4,0.1
	c0.1,0.1,0.3,0.1,0.4,0.2c0.1,0.1,0.2,0.2,0.2,0.4c0.1,0.1,0.1,0.3,0.1,0.4c0,0.2,0,0.3-0.1,0.4c-0.1,0.1-0.1,0.3-0.2,0.4
	s-0.2,0.2-0.4,0.2c-0.1,0.1-0.3,0.1-0.4,0.1s-0.3,0-0.4-0.1c-0.1-0.1-0.3-0.1-0.4-0.2c-0.1-0.1-0.2-0.2-0.2-0.4
	C889.5,82.2,889.3,82.1,889.3,81.9z"/>
<path d="M911,70.5c0.1,0,0.2,0.1,0.3,0.2l7.5,9.4c0-0.2,0-0.3,0-0.5s0-0.3,0-0.4v-8.8h1.5v12.5h-1c-0.1,0-0.3,0-0.3-0.1
	c-0.1,0-0.2-0.1-0.3-0.2l-7.5-9.4c0,0.1,0,0.3,0,0.4c0,0.1,0,0.3,0,0.4v8.9h-1.5V70.4h0.9C910.8,70.4,910.8,70.4,911,70.5z"/>
<path d="M926.8,73.9c0.7,0,1.3,0.1,1.8,0.3c0.5,0.2,1,0.5,1.4,0.9s0.7,0.9,0.9,1.5s0.3,1.2,0.3,1.8c0,0.7-0.1,1.4-0.3,1.8
	c-0.2,0.6-0.5,1.1-0.9,1.5c-0.4,0.4-0.8,0.7-1.4,0.9c-0.5,0.2-1.1,0.3-1.8,0.3s-1.3-0.1-1.8-0.3c-0.5-0.2-1-0.5-1.4-0.9
	c-0.4-0.4-0.7-0.9-0.9-1.5c-0.2-0.6-0.3-1.2-0.3-1.8c0-0.7,0.1-1.4,0.3-1.8c0.2-0.6,0.5-1.1,0.9-1.5s0.8-0.7,1.4-0.9
	C925.5,74.1,926,73.9,926.8,73.9z M926.8,81.8c0.9,0,1.6-0.3,2-0.9c0.4-0.6,0.7-1.4,0.7-2.4c0-1.1-0.2-1.8-0.7-2.4
	c-0.4-0.6-1.1-0.9-2-0.9c-0.5,0-0.9,0.1-1.2,0.2c-0.3,0.2-0.6,0.4-0.8,0.7c-0.2,0.3-0.4,0.7-0.5,1.1s-0.2,0.9-0.2,1.5s0.1,1,0.2,1.4
	c0.1,0.4,0.3,0.8,0.5,1.1s0.5,0.5,0.8,0.7C925.8,81.7,926.2,81.8,926.8,81.8z"/>
<path d="M931.7,74.1h1.3c0.1,0,0.2,0,0.3,0.1c0.1,0.1,0.1,0.1,0.2,0.2l2.3,5.7c0.1,0.2,0.1,0.4,0.2,0.6c0,0.2,0.1,0.4,0.1,0.6
	c0-0.2,0.1-0.4,0.2-0.6c0.1-0.2,0.1-0.4,0.2-0.6l2.3-5.7c0-0.1,0.1-0.2,0.2-0.2c0.1-0.1,0.2-0.1,0.3-0.1h1.3l-3.7,8.8h-1.4
	L931.7,74.1z"/>
<path d="M940.3,81.9c0-0.2,0-0.3,0.1-0.4c0.1-0.1,0.1-0.3,0.2-0.4c0.1-0.1,0.2-0.2,0.4-0.2c0.1-0.1,0.3-0.1,0.4-0.1s0.3,0,0.4,0.1
	c0.1,0.1,0.3,0.1,0.4,0.2c0.1,0.1,0.2,0.2,0.2,0.4c0.1,0.1,0.1,0.3,0.1,0.4c0,0.2,0,0.3-0.1,0.4c-0.1,0.1-0.1,0.3-0.2,0.4
	c-0.1,0.1-0.2,0.2-0.4,0.2c-0.1,0.1-0.3,0.1-0.4,0.1s-0.3,0-0.4-0.1c-0.1-0.1-0.3-0.1-0.4-0.2c-0.1-0.1-0.2-0.2-0.2-0.4
	C940.3,82.2,940.3,82.1,940.3,81.9z"/>
<path d="M970.8,76.7c0,1-0.2,1.7-0.5,2.5c-0.3,0.8-0.7,1.5-1.3,1.9c-0.6,0.6-1.2,1-2,1.3s-1.6,0.5-2.6,0.5h-4.8V70.4h4.8
	c0.9,0,1.8,0.2,2.6,0.5c0.8,0.3,1.4,0.7,2,1.3c0.6,0.6,1,1.2,1.3,1.9C970.8,74.9,970.8,75.7,970.8,76.7z M969,76.7
	c0-0.8-0.1-1.5-0.3-2c-0.2-0.6-0.5-1.2-0.9-1.5c-0.4-0.4-0.9-0.8-1.4-1c-0.6-0.2-1.2-0.3-1.9-0.3h-3.1v9.8h3.1
	c0.7,0,1.3-0.1,1.9-0.3c0.6-0.2,1-0.6,1.4-1c0.4-0.4,0.7-1,0.9-1.5C969,78.2,969,77.4,969,76.7z"/>
<path d="M976.7,73.9c0.5,0,1.1,0.1,1.5,0.3c0.5,0.2,0.9,0.4,1.2,0.8c0.3,0.3,0.6,0.8,0.8,1.3s0.3,1.1,0.3,1.6c0,0.3,0,0.4-0.1,0.5
	c-0.1,0.1-0.2,0.1-0.3,0.1H974c0,0.6,0.1,1.1,0.2,1.5c0.1,0.4,0.3,0.8,0.6,1.1s0.6,0.5,0.9,0.6c0.3,0.1,0.7,0.2,1.2,0.2
	c0.4,0,0.7,0,1-0.1c0.3-0.1,0.5-0.2,0.8-0.3c0.2-0.1,0.4-0.2,0.5-0.3c0.1-0.1,0.3-0.1,0.4-0.1c0.1,0,0.2,0.1,0.3,0.2l0.5,0.6
	c-0.2,0.2-0.4,0.4-0.7,0.6c-0.3,0.2-0.6,0.3-0.9,0.4c-0.3,0.1-0.6,0.2-1,0.3c-0.3,0.1-0.7,0.1-1,0.1c-0.6,0-1.2-0.1-1.7-0.3
	s-1-0.5-1.4-0.9c-0.4-0.4-0.7-0.9-0.9-1.5c-0.2-0.6-0.3-1.3-0.3-2c0-0.6,0.1-1.2,0.3-1.7s0.5-1,0.8-1.4c0.4-0.4,0.8-0.7,1.3-1
	C975.3,74.1,976,73.9,976.7,73.9z M976.7,75.1c-0.8,0-1.4,0.2-1.8,0.7c-0.4,0.4-0.7,1.1-0.8,1.8h5c0-0.4-0.1-0.7-0.2-1
	c-0.1-0.3-0.3-0.6-0.5-0.8s-0.4-0.4-0.7-0.5C977.3,75.2,977,75.1,976.7,75.1z M979.2,70.3l-2.1,2.2c-0.1,0.1-0.2,0.2-0.2,0.2
	s-0.2,0.1-0.3,0.1h-1l1.3-2.1c0.1-0.1,0.2-0.2,0.3-0.3c0.1-0.1,0.2-0.1,0.4-0.1H979.2z"/>
<path d="M988.7,75.6c0,0.1-0.1,0.1-0.1,0.2c0,0-0.1,0.1-0.2,0.1c-0.1,0-0.2,0-0.3-0.1c-0.1-0.1-0.2-0.2-0.4-0.2
	c-0.2-0.1-0.4-0.2-0.6-0.2s-0.5-0.1-0.9-0.1s-0.8,0.1-1.2,0.2c-0.3,0.2-0.6,0.4-0.9,0.7c-0.2,0.3-0.4,0.7-0.5,1.1
	c-0.1,0.4-0.2,0.9-0.2,1.4c0,0.6,0.1,1,0.2,1.5c0.1,0.4,0.3,0.8,0.5,1.1s0.5,0.5,0.8,0.7c0.3,0.2,0.7,0.2,1.1,0.2c0.4,0,0.7,0,1-0.1
	c0.3-0.1,0.5-0.2,0.6-0.3c0.1-0.1,0.3-0.2,0.4-0.3c0.1-0.1,0.2-0.1,0.3-0.1s0.2,0.1,0.3,0.2L989,82c-0.4,0.5-0.9,0.8-1.5,1.1
	c-0.6,0.2-1.2,0.3-1.9,0.3c-0.6,0-1.1-0.1-1.6-0.3c-0.5-0.2-0.9-0.5-1.3-0.9c-0.4-0.4-0.6-0.9-0.9-1.5c-0.2-0.6-0.3-1.2-0.3-1.9
	c0-0.7,0.1-1.3,0.3-1.8c0.2-0.6,0.5-1.1,0.8-1.5c0.4-0.4,0.8-0.7,1.3-1c0.5-0.2,1.1-0.4,1.8-0.4c0.6,0,1.2,0.1,1.7,0.3
	c0.5,0.2,0.9,0.5,1.3,0.9L988.7,75.6z"/>
<path d="M990.3,81.9c0-0.2,0-0.3,0.1-0.4c0.1-0.1,0.1-0.3,0.2-0.4c0.1-0.1,0.2-0.2,0.4-0.2c0.1-0.1,0.3-0.1,0.4-0.1
	c0.2,0,0.3,0,0.4,0.1c0.1,0.1,0.3,0.1,0.4,0.2c0.1,0.1,0.2,0.2,0.2,0.4c0.1,0.1,0.1,0.3,0.1,0.4c0,0.2,0,0.3-0.1,0.4
	c-0.1,0.1-0.1,0.3-0.2,0.4s-0.2,0.2-0.4,0.2c-0.1,0.1-0.3,0.1-0.4,0.1c-0.2,0-0.3,0-0.4-0.1c-0.1-0.1-0.3-0.1-0.4-0.2
	s-0.2-0.2-0.2-0.4C990.3,82.2,990.3,82.1,990.3,81.9z"/>
<path d="M416.6,78.5c0,0.7-0.1,1.4-0.3,1.8c-0.2,0.6-0.4,1.1-0.8,1.4c-0.3,0.4-0.8,0.7-1.3,0.9c-0.5,0.2-1.1,0.3-1.7,0.3
	s-1.2-0.1-1.8-0.3c0-0.2,0-0.3,0-0.5c0-0.2,0-0.3,0.1-0.5c0-0.1,0-0.2,0.1-0.2s0.2-0.1,0.3-0.1c0.1,0,0.3,0,0.4,0.1
	c0.2,0.1,0.4,0.1,0.7,0.1c0.4,0,0.7-0.1,1.1-0.2c0.3-0.1,0.6-0.3,0.8-0.6c0.2-0.3,0.4-0.6,0.5-1c0.1-0.4,0.2-0.9,0.2-1.4v-8.2h1.7
	L416.6,78.5L416.6,78.5z"/>
<path d="M426.2,82.9h-0.7c-0.2,0-0.3,0-0.4-0.1c-0.1,0-0.2-0.1-0.2-0.3l-0.2-0.8c-0.2,0.2-0.5,0.4-0.7,0.6c-0.2,0.2-0.5,0.3-0.7,0.4
	c-0.3,0.1-0.5,0.2-0.8,0.3s-0.6,0.1-0.9,0.1c-0.4,0-0.7,0-1-0.1c-0.3-0.1-0.6-0.2-0.8-0.4c-0.2-0.2-0.4-0.5-0.5-0.8
	c-0.1-0.3-0.2-0.7-0.2-1.1s0.1-0.7,0.3-1c0.2-0.3,0.5-0.6,1-0.9s1-0.5,1.7-0.6c0.7-0.1,1.6-0.2,2.6-0.2v-0.7c0-0.7-0.2-1.3-0.5-1.5
	c-0.3-0.4-0.8-0.5-1.3-0.5c-0.4,0-0.7,0-1,0.1s-0.5,0.2-0.7,0.3s-0.4,0.2-0.5,0.3s-0.3,0.1-0.4,0.1s-0.2,0-0.3-0.1
	c-0.1-0.1-0.1-0.1-0.2-0.2l-0.3-0.5c0.5-0.5,1-0.8,1.6-1.1c0.6-0.2,1.2-0.4,1.9-0.4c0.5,0,1,0.1,1.4,0.3c0.4,0.2,0.7,0.4,1,0.7
	c0.3,0.3,0.5,0.7,0.6,1.1s0.2,0.9,0.2,1.4V82.9z M422.1,81.9c0.3,0,0.5,0,0.8-0.1c0.3-0.1,0.5-0.1,0.7-0.2c0.2-0.1,0.4-0.2,0.6-0.4
	s0.4-0.3,0.6-0.5v-1.8c-0.7,0-1.4,0-1.9,0.1c-0.5,0.1-0.9,0.2-1.3,0.4c-0.3,0.2-0.6,0.3-0.7,0.5s-0.2,0.4-0.2,0.7
	c0,0.2,0,0.4,0.1,0.6c0.1,0.2,0.2,0.3,0.3,0.4c0.1,0.1,0.3,0.2,0.5,0.2C421.7,81.9,421.9,81.9,422.1,81.9z"/>
<path d="M428.7,82.9v-8.8h1c0.2,0,0.4,0.1,0.4,0.3l0.1,1c0.4-0.4,0.8-0.8,1.3-1.1c0.5-0.3,1.1-0.4,1.7-0.4c0.5,0,0.9,0.1,1.3,0.2
	c0.4,0.2,0.7,0.4,1,0.7s0.4,0.7,0.6,1.1c0.1,0.4,0.2,0.9,0.2,1.4v5.6h-1.6v-5.6c0-0.7-0.2-1.2-0.5-1.5c-0.3-0.4-0.8-0.6-1.4-0.6
	c-0.5,0-0.9,0.1-1.3,0.3c-0.4,0.2-0.8,0.5-1.1,0.9v6.5h-1.7V82.9z"/>
<path d="M438.1,81.9c0-0.2,0-0.3,0.1-0.4c0.1-0.1,0.1-0.3,0.2-0.4c0.1-0.1,0.2-0.2,0.4-0.2c0.1-0.1,0.3-0.1,0.4-0.1
	c0.2,0,0.3,0,0.4,0.1c0.1,0.1,0.3,0.1,0.4,0.2c0.1,0.1,0.2,0.2,0.2,0.4c0.1,0.1,0.1,0.3,0.1,0.4c0,0.2,0,0.3-0.1,0.4
	c-0.1,0.1-0.1,0.3-0.2,0.4s-0.2,0.2-0.4,0.2c-0.1,0.1-0.3,0.1-0.4,0.1c-0.2,0-0.3,0-0.4-0.1c-0.1-0.1-0.3-0.1-0.4-0.2
	s-0.2-0.2-0.2-0.4C438.2,82.2,438.1,82.1,438.1,81.9z"/>
<path d="M513.5,78.8c0.1,0.2,0.1,0.3,0.2,0.5c0.1-0.2,0.1-0.3,0.2-0.5s0.1-0.3,0.2-0.5l4.4-7.6c0.1-0.1,0.2-0.2,0.2-0.3
	c0.1,0,0.2,0,0.4,0h1.3v12.5H519v-9.2c0-0.1,0-0.3,0-0.4c0-0.1,0-0.3,0-0.4l-4.4,7.8c-0.1,0.3-0.4,0.4-0.6,0.4h-0.3
	c-0.3,0-0.5-0.1-0.6-0.4l-4.5-7.8c0,0.2,0,0.3,0,0.5s0,0.3,0,0.4V83h-1.5V70.4h1.3c0.2,0,0.3,0,0.4,0s0.2,0.1,0.2,0.3l4.5,7.6
	C513.3,78.5,513.5,78.6,513.5,78.8z"/>
<path d="M530,82.9h-0.7c-0.2,0-0.3,0-0.4-0.1c-0.1,0-0.2-0.1-0.2-0.3l-0.2-0.8c-0.2,0.2-0.5,0.4-0.7,0.6c-0.2,0.2-0.5,0.3-0.7,0.4
	c-0.3,0.1-0.5,0.2-0.8,0.3s-0.6,0.1-0.9,0.1c-0.4,0-0.7,0-1-0.1c-0.3-0.1-0.6-0.2-0.8-0.4s-0.4-0.5-0.5-0.8
	c-0.1-0.3-0.2-0.7-0.2-1.1s0.1-0.7,0.3-1s0.5-0.6,1-0.9s1-0.5,1.7-0.6c0.7-0.1,1.6-0.2,2.6-0.2v-0.7c0-0.7-0.2-1.3-0.5-1.5
	c-0.3-0.4-0.8-0.5-1.3-0.5c-0.4,0-0.7,0-1,0.1s-0.5,0.2-0.7,0.3s-0.4,0.2-0.5,0.3s-0.3,0.1-0.4,0.1c-0.1,0-0.2,0-0.3-0.1
	c-0.1-0.1-0.1-0.1-0.2-0.2l-0.3-0.5c0.5-0.5,1-0.8,1.6-1.1c0.6-0.2,1.2-0.4,1.9-0.4c0.5,0,1,0.1,1.4,0.3c0.4,0.2,0.7,0.4,1,0.7
	c0.3,0.3,0.5,0.7,0.6,1.1s0.2,0.9,0.2,1.4L530,82.9L530,82.9z M525.8,81.9c0.3,0,0.5,0,0.8-0.1c0.3-0.1,0.5-0.1,0.7-0.2
	c0.2-0.1,0.4-0.2,0.6-0.4s0.4-0.3,0.6-0.5v-1.8c-0.7,0-1.4,0-1.9,0.1c-0.5,0.1-0.9,0.2-1.3,0.4c-0.3,0.2-0.6,0.3-0.7,0.5
	s-0.2,0.4-0.2,0.7c0,0.2,0,0.4,0.1,0.6c0.1,0.2,0.2,0.3,0.3,0.4c0.1,0.1,0.3,0.2,0.5,0.2C525.3,81.9,525.5,81.9,525.8,81.9z"/>
<path d="M532.3,82.9v-8.8h0.9c0.2,0,0.3,0,0.4,0.1c0.1,0.1,0.1,0.2,0.1,0.3l0.1,1.4c0.3-0.6,0.7-1.1,1.2-1.5s1-0.5,1.6-0.5
	c0.3,0,0.5,0,0.7,0.1c0.2,0.1,0.4,0.1,0.6,0.2l-0.2,1.2c0,0.1-0.1,0.2-0.3,0.2c-0.1,0-0.2,0-0.4-0.1c-0.2-0.1-0.4-0.1-0.7-0.1
	c-0.6,0-1,0.2-1.4,0.5s-0.7,0.8-0.9,1.4v5.6L532.3,82.9L532.3,82.9z"/>
<path d="M544.8,75.5c-0.1,0.1-0.2,0.2-0.3,0.2s-0.2,0-0.3-0.1c-0.1-0.1-0.3-0.1-0.4-0.2c-0.1-0.1-0.4-0.2-0.6-0.2
	c-0.2-0.1-0.5-0.1-0.8-0.1s-0.5,0-0.7,0.1c-0.2,0.1-0.4,0.2-0.6,0.3c-0.2,0.1-0.3,0.3-0.4,0.4c-0.1,0.2-0.1,0.3-0.1,0.5
	c0,0.2,0.1,0.4,0.2,0.6c0.1,0.2,0.3,0.3,0.5,0.4c0.2,0.1,0.5,0.2,0.8,0.3c0.3,0.1,0.6,0.2,0.9,0.3s0.6,0.2,0.9,0.3
	c0.3,0.1,0.5,0.3,0.8,0.4c0.2,0.2,0.4,0.4,0.5,0.7c0.1,0.3,0.2,0.6,0.2,0.9c0,0.4-0.1,0.8-0.2,1.2c-0.1,0.4-0.4,0.7-0.7,0.9
	c-0.3,0.3-0.7,0.5-1.1,0.6c-0.4,0.1-0.9,0.2-1.5,0.2s-1.2-0.1-1.7-0.3s-1-0.5-1.3-0.8l0.4-0.6c0-0.1,0.1-0.1,0.2-0.2
	c0.1-0.1,0.2-0.1,0.3-0.1s0.2,0,0.3,0.1c0.1,0.1,0.3,0.2,0.4,0.3c0.1,0.1,0.4,0.2,0.6,0.3s0.5,0.1,0.9,0.1c0.3,0,0.6,0,0.8-0.1
	s0.4-0.2,0.6-0.3c0.2-0.1,0.3-0.3,0.3-0.5c0.1-0.2,0.1-0.4,0.1-0.6c0-0.3-0.1-0.5-0.2-0.6c-0.1-0.2-0.3-0.3-0.5-0.4
	c-0.2-0.1-0.5-0.2-0.8-0.3c-0.3-0.1-0.6-0.2-0.9-0.3c-0.3-0.1-0.6-0.2-0.9-0.3c-0.3-0.1-0.5-0.3-0.8-0.5c-0.2-0.2-0.4-0.4-0.5-0.7
	c-0.1-0.3-0.2-0.6-0.2-1c0-0.3,0.1-0.7,0.2-1c0.1-0.3,0.4-0.6,0.6-0.8c0.3-0.2,0.6-0.4,1-0.6c0.4-0.1,0.9-0.2,1.4-0.2
	c0.6,0,1.1,0.1,1.6,0.3c0.5,0.2,0.9,0.4,1.2,0.8L544.8,75.5z"/>
<path d="M569.3,82.9H568c-0.2,0-0.3,0-0.4-0.1c-0.1-0.1-0.2-0.2-0.2-0.3l-1.2-3h-5.8l-1.2,3c0,0.1-0.1,0.2-0.2,0.3
	c-0.1,0.1-0.2,0.1-0.4,0.1h-1.4l5.2-12.5h1.8L569.3,82.9z M560.8,78.3h4.8l-2-5c-0.1-0.3-0.3-0.7-0.4-1.2c-0.1,0.2-0.1,0.5-0.2,0.7
	s-0.1,0.4-0.2,0.5L560.8,78.3z"/>
<path d="M568.8,74.1h1.3c0.1,0,0.2,0,0.3,0.1c0.1,0.1,0.1,0.1,0.2,0.2l2.3,5.7c0.1,0.2,0.1,0.4,0.2,0.6c0,0.2,0.1,0.4,0.1,0.6
	c0-0.2,0.1-0.4,0.2-0.6c0.1-0.2,0.1-0.4,0.2-0.6l2.3-5.7c0-0.1,0.1-0.2,0.2-0.2s0.2-0.1,0.3-0.1h1.3l-3.7,8.8h-1.4L568.8,74.1z"/>
<path d="M579.2,82.9v-8.8h0.9c0.2,0,0.3,0,0.4,0.1c0.1,0.1,0.1,0.2,0.1,0.3l0.1,1.4c0.3-0.6,0.7-1.1,1.2-1.5s1-0.5,1.6-0.5
	c0.3,0,0.5,0,0.7,0.1c0.2,0.1,0.4,0.1,0.6,0.2l-0.2,1.2c0,0.1-0.1,0.2-0.3,0.2c-0.1,0-0.2,0-0.4-0.1c-0.2-0.1-0.4-0.1-0.7-0.1
	c-0.6,0-1,0.2-1.4,0.5s-0.7,0.8-0.9,1.4v5.6L579.2,82.9L579.2,82.9z"/>
<path d="M588.5,71.3c0,0.2,0,0.3-0.1,0.4c-0.1,0.1-0.1,0.3-0.3,0.4c-0.1,0.1-0.2,0.2-0.4,0.2c-0.1,0.1-0.3,0.1-0.4,0.1
	c-0.2,0-0.3,0-0.4-0.1c-0.1-0.1-0.3-0.1-0.4-0.2c-0.1-0.1-0.2-0.2-0.2-0.4c-0.1-0.1-0.1-0.3-0.1-0.4c0-0.2,0-0.3,0.1-0.4
	c0.1-0.1,0.1-0.3,0.2-0.4c0.1-0.1,0.2-0.2,0.4-0.2s0.3-0.1,0.4-0.1c0.2,0,0.3,0,0.4,0.1c0.1,0.1,0.3,0.1,0.4,0.2
	c0.1,0.1,0.2,0.2,0.3,0.4C588.5,71,588.5,71.2,588.5,71.3z M588.2,74.1v8.8h-1.6v-8.8H588.2z"/>
<path d="M592.8,70v12.9h-1.6V70H592.8z"/>
<path d="M618.8,78.8c0.1,0.2,0.1,0.3,0.2,0.5c0.1-0.2,0.1-0.3,0.2-0.5c0.1-0.2,0.1-0.3,0.2-0.5l4.4-7.6c0.1-0.1,0.2-0.2,0.2-0.3
	c0.1,0,0.2,0,0.4,0h1.3v12.5h-1.5v-9.2c0-0.1,0-0.3,0-0.4c0-0.1,0-0.3,0-0.4l-4.4,7.8c-0.1,0.3-0.4,0.4-0.6,0.4h-0.3
	c-0.3,0-0.5-0.1-0.6-0.4l-4.5-7.8c0,0.2,0,0.3,0,0.5s0,0.3,0,0.4V83h-1.5V70.4h1.3c0.2,0,0.3,0,0.4,0c0.1,0,0.2,0.1,0.2,0.3l4.5,7.6
	C618.5,78.5,618.7,78.6,618.8,78.8z"/>
<path d="M635.2,82.9h-0.7c-0.2,0-0.3,0-0.4-0.1c-0.1,0-0.2-0.1-0.2-0.3l-0.2-0.8c-0.2,0.2-0.5,0.4-0.7,0.6c-0.2,0.2-0.5,0.3-0.7,0.4
	c-0.3,0.1-0.5,0.2-0.8,0.3s-0.6,0.1-1,0.1s-0.7,0-1-0.1c-0.3-0.1-0.6-0.2-0.8-0.4s-0.4-0.5-0.5-0.8c-0.1-0.3-0.2-0.7-0.2-1.1
	s0.1-0.7,0.3-1s0.5-0.6,1-0.9c0.4-0.3,1-0.5,1.7-0.6c0.7-0.2,1.6-0.2,2.6-0.2v-0.7c0-0.7-0.2-1.3-0.5-1.5c-0.3-0.4-0.8-0.5-1.3-0.5
	c-0.4,0-0.7,0-1,0.1s-0.5,0.2-0.7,0.3c-0.2,0.1-0.4,0.2-0.5,0.3c-0.1,0.1-0.3,0.1-0.4,0.1c-0.1,0-0.2,0-0.3-0.1
	c-0.1-0.1-0.1-0.1-0.2-0.2l-0.3-0.5c0.5-0.5,1-0.8,1.6-1.1c0.6-0.2,1.2-0.4,1.9-0.4c0.5,0,1,0.1,1.4,0.3c0.4,0.2,0.7,0.4,1,0.7
	c0.3,0.3,0.5,0.7,0.6,1.1s0.2,0.9,0.2,1.4v5.5C635,82.9,635.2,82.9,635.2,82.9z M631,81.9c0.3,0,0.5,0,0.8-0.1
	c0.3-0.1,0.5-0.1,0.7-0.2c0.2-0.1,0.4-0.2,0.6-0.4c0.2-0.1,0.4-0.3,0.6-0.5v-1.8c-0.7,0-1.4,0-1.9,0.1c-0.5,0.1-0.9,0.2-1.3,0.4
	s-0.6,0.3-0.7,0.5c-0.1,0.2-0.2,0.4-0.2,0.7c0,0.2,0,0.4,0.1,0.6c0.1,0.2,0.2,0.3,0.3,0.4c0.1,0.1,0.3,0.2,0.5,0.2
	C630.7,81.9,630.8,81.9,631,81.9z"/>
<path d="M639.8,71.3c0,0.2,0,0.3-0.1,0.4c-0.1,0.1-0.1,0.3-0.3,0.4c-0.1,0.1-0.2,0.2-0.4,0.2c-0.1,0.1-0.3,0.1-0.4,0.1
	c-0.2,0-0.3,0-0.4-0.1c-0.1-0.1-0.3-0.1-0.4-0.2c-0.1-0.1-0.2-0.2-0.2-0.4c-0.1-0.1-0.1-0.3-0.1-0.4c0-0.2,0-0.3,0.1-0.4
	c0.1-0.1,0.1-0.3,0.2-0.4c0.1-0.1,0.2-0.2,0.4-0.2s0.3-0.1,0.4-0.1c0.2,0,0.3,0,0.4,0.1c0.1,0.1,0.3,0.1,0.4,0.2
	c0.1,0.1,0.2,0.2,0.3,0.4C639.8,71,639.8,71.2,639.8,71.3z M639.3,74.1v8.8h-1.6v-8.8H639.3z"/>
<path d="M665.8,78.5c0,0.7-0.1,1.4-0.3,1.8c-0.2,0.6-0.4,1.1-0.8,1.4c-0.3,0.4-0.8,0.7-1.3,0.9c-0.5,0.2-1.1,0.3-1.7,0.3
	c-0.6,0-1.2-0.1-1.8-0.3c0-0.2,0-0.3,0-0.5c0-0.2,0-0.3,0.1-0.5c0-0.1,0-0.2,0.1-0.2c0.1-0.1,0.2-0.1,0.3-0.1s0.3,0,0.4,0.1
	c0.2,0.1,0.4,0.1,0.7,0.1c0.4,0,0.7-0.1,1.1-0.2c0.3-0.1,0.6-0.3,0.8-0.6c0.2-0.3,0.4-0.6,0.5-1c0.1-0.4,0.2-0.9,0.2-1.4v-8.2h1.7
	V78.5z"/>
<path d="M670.2,74.1v5.6c0,0.7,0.2,1.2,0.5,1.5s0.8,0.6,1.4,0.6c0.5,0,0.9-0.1,1.3-0.3c0.4-0.2,0.8-0.5,1.1-0.9v-6.5h1.6V83h-1
	c-0.2,0-0.4-0.1-0.4-0.3l-0.1-1c-0.4,0.4-0.8,0.8-1.3,1.1c-0.5,0.3-1.1,0.4-1.7,0.4c-0.5,0-0.9-0.1-1.3-0.2c-0.4-0.2-0.7-0.4-1-0.7
	s-0.5-0.7-0.6-1.1s-0.2-0.9-0.2-1.4v-5.6h1.7V74.1z"/>
<path d="M680.8,71.3c0,0.2,0,0.3-0.1,0.4c-0.1,0.1-0.1,0.3-0.3,0.4c-0.1,0.1-0.2,0.2-0.4,0.2c-0.1,0.1-0.3,0.1-0.4,0.1
	s-0.3,0-0.4-0.1c-0.1-0.1-0.3-0.1-0.4-0.2c-0.1-0.1-0.2-0.2-0.2-0.4c-0.1-0.1-0.1-0.3-0.1-0.4c0-0.2,0-0.3,0.1-0.4
	c0.1-0.1,0.1-0.3,0.2-0.4c0.1-0.1,0.2-0.2,0.4-0.2c0.1-0.1,0.3-0.1,0.4-0.1s0.3,0,0.4,0.1c0.1,0.1,0.3,0.1,0.4,0.2
	c0.1,0.1,0.2,0.2,0.3,0.4C680.8,71,680.8,71.2,680.8,71.3z M680.5,74.1v8.8H679v-8.8H680.5z"/>
<path d="M683.3,82.9v-8.8h1c0.2,0,0.4,0.1,0.4,0.3l0.1,1c0.4-0.4,0.8-0.8,1.3-1.1c0.5-0.3,1.1-0.4,1.7-0.4c0.5,0,0.9,0.1,1.3,0.2
	c0.4,0.2,0.7,0.4,1,0.7s0.4,0.7,0.6,1.1c0.1,0.4,0.2,0.9,0.2,1.4v5.6h-1.6v-5.6c0-0.7-0.2-1.2-0.5-1.5c-0.3-0.4-0.8-0.6-1.4-0.6
	c-0.5,0-0.9,0.1-1.3,0.3s-0.8,0.5-1.1,0.9v6.5h-1.7V82.9z"/>
<path d="M469.9,70.4v1.4h-6.2v4.4h5.3v1.5h-5.3v5.3h-1.8V70.4H469.9z"/>
<path d="M474.9,73.9c0.5,0,1.1,0.1,1.5,0.3s0.9,0.4,1.2,0.8c0.3,0.3,0.6,0.8,0.8,1.3c0.2,0.5,0.3,1.1,0.3,1.6c0,0.3,0,0.4-0.1,0.5
	c-0.1,0.1-0.2,0.1-0.3,0.1h-6.1c0,0.6,0.1,1.1,0.2,1.5c0.1,0.4,0.3,0.8,0.6,1.1s0.6,0.5,0.9,0.6c0.3,0.1,0.7,0.2,1.2,0.2
	c0.4,0,0.7,0,1-0.1c0.3-0.1,0.5-0.2,0.8-0.3c0.2-0.1,0.4-0.2,0.5-0.3c0.1-0.1,0.3-0.1,0.4-0.1s0.2,0.1,0.3,0.2l0.4,0.6
	c-0.2,0.2-0.4,0.4-0.7,0.6c-0.3,0.2-0.6,0.3-0.9,0.4c-0.3,0.1-0.6,0.2-1,0.3c-0.3,0.1-0.7,0.1-1,0.1c-0.6,0-1.2-0.1-1.7-0.3
	s-1-0.5-1.4-0.9c-0.4-0.4-0.7-0.9-0.9-1.5c-0.2-0.6-0.3-1.3-0.3-2c0-0.6,0.1-1.2,0.3-1.7c0.2-0.6,0.5-1,0.8-1.4
	c0.4-0.4,0.8-0.7,1.3-1C473.6,74.1,474.2,73.9,474.9,73.9z M474.9,75.1c-0.8,0-1.4,0.2-1.8,0.7c-0.4,0.4-0.7,1.1-0.8,1.8h5
	c0-0.4-0.1-0.7-0.2-1c-0.1-0.3-0.3-0.6-0.4-0.8c-0.2-0.2-0.4-0.4-0.7-0.5C475.6,75.2,475.3,75.1,474.9,75.1z M477.5,70.3l-2.1,2.2
	c-0.1,0.1-0.2,0.2-0.2,0.2s-0.2,0.1-0.3,0.1h-1l1.3-2.1c0.1-0.1,0.2-0.2,0.3-0.3c0.1-0.1,0.2-0.1,0.4-0.1H477.5z"/>
<path d="M479.3,74.1h1.3c0.1,0,0.2,0,0.3,0.1c0.1,0.1,0.1,0.1,0.2,0.2l2.3,5.7c0.1,0.2,0.1,0.4,0.2,0.6c0,0.2,0.1,0.4,0.1,0.6
	c0-0.2,0.1-0.4,0.2-0.6c0.1-0.2,0.1-0.4,0.2-0.6l2.3-5.7c0-0.1,0.1-0.2,0.2-0.2s0.2-0.1,0.3-0.1h1.3l-3.7,8.8h-1.4L479.3,74.1z"/>
<path d="M488,81.9c0-0.2,0-0.3,0.1-0.4c0.1-0.1,0.1-0.3,0.2-0.4c0.1-0.1,0.2-0.2,0.4-0.2c0.1-0.1,0.3-0.1,0.4-0.1
	c0.2,0,0.3,0,0.4,0.1c0.1,0.1,0.3,0.1,0.4,0.2c0.1,0.1,0.2,0.2,0.2,0.4c0.1,0.1,0.1,0.3,0.1,0.4c0,0.2,0,0.3-0.1,0.4
	c-0.1,0.1-0.1,0.3-0.2,0.4s-0.2,0.2-0.4,0.2c-0.1,0.1-0.3,0.1-0.4,0.1c-0.2,0-0.3,0-0.4-0.1c-0.1-0.1-0.3-0.1-0.4-0.2
	s-0.2-0.2-0.2-0.4C488,82.2,488,82.1,488,81.9z"/>
<path d="M230.4,32.7h-1.9c-0.2,0-0.4-0.1-0.5-0.2c-0.1-0.1-0.2-0.2-0.3-0.4l-1-2.6h-5.4l-1,2.6c0,0.1-0.1,0.3-0.3,0.4
	c-0.1,0.1-0.3,0.2-0.5,0.2h-1.9l5.1-12.6h2.5L230.4,32.7z M221.9,27.9h4.1l-1.6-4.2c-0.1-0.2-0.2-0.4-0.2-0.7
	c-0.1-0.3-0.2-0.5-0.3-0.9c-0.1,0.3-0.2,0.6-0.2,0.9s-0.2,0.5-0.2,0.7L221.9,27.9z"/>
<path d="M231.6,32.7v-8.9h1.4c0.3,0,0.5,0.1,0.6,0.4l0.2,0.7c0.2-0.2,0.4-0.4,0.6-0.5c0.2-0.2,0.4-0.3,0.7-0.4
	c0.2-0.1,0.5-0.2,0.7-0.3s0.6-0.1,0.9-0.1c0.5,0,1,0.1,1.3,0.3s0.7,0.4,1,0.7c0.3,0.3,0.5,0.7,0.6,1.1c0.1,0.4,0.2,0.9,0.2,1.4v5.7
	h-2.2v-5.7c0-0.6-0.1-1-0.4-1.3c-0.3-0.3-0.7-0.5-1.2-0.5c-0.4,0-0.7,0.1-1.1,0.3c-0.3,0.2-0.7,0.4-1,0.7v6.5
	C233.9,32.7,231.6,32.7,231.6,32.7z"/>
<path d="M241.8,32.7v-8.9h1.4c0.3,0,0.5,0.1,0.6,0.4l0.2,0.7c0.2-0.2,0.4-0.4,0.6-0.5c0.2-0.2,0.4-0.3,0.7-0.4
	c0.2-0.1,0.5-0.2,0.7-0.3s0.6-0.1,0.9-0.1c0.5,0,1,0.1,1.3,0.3s0.7,0.4,1,0.7c0.3,0.3,0.5,0.7,0.6,1.1c0.1,0.4,0.2,0.9,0.2,1.4v5.7
	h-2.2v-5.7c0-0.6-0.1-1-0.4-1.3c-0.3-0.3-0.7-0.5-1.2-0.5c-0.4,0-0.7,0.1-1.1,0.3c-0.3,0.2-0.7,0.4-1,0.7v6.5
	C244.1,32.7,241.8,32.7,241.8,32.7z"/>
<path d="M255.9,23.7c0.6,0,1.1,0.1,1.6,0.3c0.5,0.2,0.9,0.5,1.3,0.8c0.4,0.4,0.6,0.8,0.8,1.3c0.2,0.5,0.3,1.1,0.3,1.7
	c0,0.2,0,0.3,0,0.4c0,0.1,0,0.2-0.1,0.3c-0.1,0.1-0.1,0.1-0.2,0.1s-0.1,0-0.3,0h-5.7c0.1,0.9,0.3,1.5,0.8,2c0.4,0.4,1,0.7,1.8,0.7
	c0.4,0,0.7,0,0.9-0.1c0.3-0.1,0.5-0.2,0.7-0.3s0.4-0.2,0.5-0.3c0.1-0.1,0.3-0.1,0.4-0.1s0.2,0,0.2,0.1c0.1,0,0.1,0.1,0.2,0.2
	l0.6,0.8c-0.2,0.3-0.5,0.5-0.8,0.7c-0.3,0.2-0.6,0.4-1,0.5c-0.3,0.1-0.7,0.2-1,0.2s-0.7,0.1-1,0.1c-0.6,0-1.2-0.1-1.8-0.3
	c-0.6-0.2-1-0.5-1.4-0.9c-0.4-0.4-0.7-0.9-1-1.5c-0.2-0.6-0.4-1.3-0.4-2c0-0.6,0.1-1.2,0.3-1.7c0.2-0.6,0.5-1,0.9-1.4
	c0.4-0.4,0.8-0.7,1.4-1C254.5,23.7,255.2,23.7,255.9,23.7z M255.9,25.1c-0.6,0-1.2,0.2-1.5,0.5c-0.4,0.4-0.6,0.9-0.7,1.5h4.2
	c0-0.3,0-0.6-0.1-0.8c-0.1-0.3-0.2-0.5-0.4-0.7c-0.2-0.2-0.4-0.3-0.6-0.5C256.5,25.2,256.2,25.1,255.9,25.1z M259,20l-2.2,2.2
	c-0.1,0.1-0.2,0.2-0.3,0.2s-0.2,0.1-0.4,0.1h-1.3l1.3-2.1c0.1-0.2,0.2-0.3,0.3-0.4c0.1-0.1,0.3-0.1,0.5-0.1L259,20L259,20z"/>
<path d="M265.5,23.7c0.6,0,1.1,0.1,1.6,0.3c0.5,0.2,0.9,0.5,1.3,0.8c0.4,0.4,0.6,0.8,0.8,1.3c0.2,0.5,0.3,1.1,0.3,1.7
	c0,0.2,0,0.3,0,0.4c0,0.1,0,0.2-0.1,0.3c-0.1,0.1-0.1,0.1-0.2,0.1s-0.1,0-0.3,0h-5.7c0.1,0.9,0.3,1.5,0.8,2c0.4,0.4,1,0.7,1.8,0.7
	c0.4,0,0.7,0,0.9-0.1c0.3-0.1,0.5-0.2,0.7-0.3s0.4-0.2,0.5-0.3c0.1-0.1,0.3-0.1,0.4-0.1s0.2,0,0.2,0.1c0.1,0,0.1,0.1,0.2,0.2
	l0.6,0.8c-0.2,0.3-0.5,0.5-0.8,0.7c-0.3,0.2-0.6,0.4-1,0.5c-0.3,0.1-0.7,0.2-1,0.2s-0.7,0.1-1,0.1c-0.6,0-1.2-0.1-1.8-0.3
	c-0.6-0.2-1-0.5-1.4-0.9c-0.4-0.4-0.7-0.9-1-1.5c-0.2-0.6-0.4-1.3-0.4-2c0-0.6,0.1-1.2,0.3-1.7c0.2-0.6,0.5-1,0.9-1.4
	c0.4-0.4,0.8-0.7,1.4-1C264.2,23.7,264.8,23.7,265.5,23.7z M265.5,25.1c-0.6,0-1.2,0.2-1.5,0.5c-0.4,0.4-0.6,0.9-0.7,1.5h4.2
	c0-0.3,0-0.6-0.1-0.8c-0.1-0.3-0.2-0.5-0.4-0.7c-0.2-0.2-0.4-0.3-0.6-0.5C266.1,25.2,265.8,25.1,265.5,25.1z"/>
<path d="M274.8,32.7v-8.9h1.4c0.3,0,0.5,0.1,0.6,0.4l0.2,0.7c0.2-0.2,0.4-0.4,0.6-0.5c0.2-0.2,0.4-0.3,0.7-0.4
	c0.2-0.1,0.5-0.2,0.7-0.3s0.6-0.1,0.9-0.1c0.5,0,1,0.1,1.3,0.3s0.7,0.4,1,0.7c0.3,0.3,0.5,0.7,0.6,1.1c0.1,0.4,0.2,0.9,0.2,1.4v5.7
	h-2.2v-5.7c0-0.6-0.1-1-0.4-1.3s-0.7-0.5-1.2-0.5c-0.4,0-0.7,0.1-1.1,0.3c-0.3,0.2-0.7,0.4-1,0.7v6.5
	C277.1,32.7,274.8,32.7,274.8,32.7z"/>
<path d="M695,32.7H693c-0.2,0-0.4-0.1-0.5-0.2c-0.1-0.1-0.2-0.2-0.3-0.4l-1-2.6h-5.4l-1,2.6c0,0.1-0.1,0.3-0.3,0.4
	c-0.2,0.1-0.3,0.2-0.5,0.2h-1.8l5.1-12.6h2.5L695,32.7z M686.5,27.9h4.1l-1.6-4.2c-0.1-0.2-0.2-0.4-0.2-0.7
	c-0.1-0.3-0.2-0.5-0.3-0.9c-0.1,0.3-0.2,0.6-0.2,0.9c-0.1,0.3-0.2,0.5-0.2,0.7L686.5,27.9z"/>
<path d="M696.2,32.7v-8.9h1.4c0.3,0,0.5,0.1,0.6,0.4l0.2,0.7c0.2-0.2,0.4-0.4,0.6-0.5c0.2-0.2,0.4-0.3,0.7-0.4
	c0.2-0.1,0.5-0.2,0.7-0.3s0.6-0.1,0.9-0.1c0.5,0,1,0.1,1.3,0.3s0.7,0.4,1,0.7c0.3,0.3,0.5,0.7,0.6,1.1c0.1,0.4,0.2,0.9,0.2,1.4v5.7
	h-2.2v-5.7c0-0.6-0.1-1-0.4-1.3c-0.3-0.3-0.7-0.5-1.2-0.5c-0.4,0-0.7,0.1-1.1,0.3c-0.3,0.2-0.7,0.4-1,0.7v6.5
	C698.5,32.7,696.2,32.7,696.2,32.7z"/>
<path d="M706.5,32.7v-8.9h1.4c0.3,0,0.5,0.1,0.6,0.4l0.2,0.7c0.2-0.2,0.4-0.4,0.6-0.5c0.2-0.2,0.4-0.3,0.7-0.4
	c0.2-0.1,0.5-0.2,0.7-0.3c0.3-0.1,0.6-0.1,0.9-0.1c0.5,0,1,0.1,1.3,0.3c0.4,0.2,0.7,0.4,1,0.7c0.3,0.3,0.5,0.7,0.6,1.1
	c0.1,0.4,0.2,0.9,0.2,1.4v5.7h-2.4v-5.7c0-0.6-0.1-1-0.4-1.3c-0.3-0.3-0.7-0.5-1.2-0.5c-0.4,0-0.7,0.1-1.1,0.3
	c-0.3,0.2-0.7,0.4-1,0.7v6.5C708.5,32.7,706.5,32.7,706.5,32.7z"/>
<path d="M720.5,23.7c0.6,0,1.1,0.1,1.6,0.3c0.5,0.2,0.9,0.5,1.3,0.8c0.4,0.4,0.6,0.8,0.8,1.3s0.3,1.1,0.3,1.7c0,0.2,0,0.3,0,0.4
	c0,0.1,0,0.2-0.1,0.3c-0.1,0.1-0.1,0.1-0.2,0.1c-0.1,0-0.1,0-0.3,0h-5.6c0.1,0.9,0.3,1.5,0.8,2c0.4,0.4,1,0.7,1.8,0.7
	c0.4,0,0.7,0,0.9-0.1c0.3-0.1,0.5-0.2,0.7-0.3c0.2-0.1,0.4-0.2,0.5-0.3c0.1-0.1,0.3-0.1,0.4-0.1c0.1,0,0.2,0,0.2,0.1
	c0.1,0,0.1,0.1,0.2,0.2l0.6,0.8c-0.2,0.3-0.5,0.5-0.8,0.7c-0.3,0.2-0.6,0.4-1,0.5c-0.3,0.1-0.7,0.2-1,0.2s-0.7,0.1-1,0.1
	c-0.6,0-1.2-0.1-1.8-0.3c-0.6-0.2-1-0.5-1.4-0.9c-0.4-0.4-0.7-0.9-1-1.5c-0.2-0.6-0.4-1.3-0.4-2c0-0.6,0.1-1.2,0.3-1.7
	c0.2-0.6,0.5-1,0.9-1.4c0.4-0.4,0.8-0.7,1.4-1C719.2,23.7,719.8,23.7,720.5,23.7z M720.5,25.1c-0.6,0-1.2,0.2-1.5,0.5
	c-0.4,0.4-0.6,0.9-0.7,1.5h4.2c0-0.3,0-0.6-0.1-0.8c-0.1-0.3-0.2-0.5-0.4-0.7s-0.4-0.3-0.6-0.5C721.2,25.2,720.8,25.1,720.5,25.1z
	 M723.7,20l-2.2,2.2c-0.1,0.1-0.2,0.2-0.3,0.2s-0.2,0.1-0.4,0.1h-1.3l1.3-2.1c0.1-0.2,0.2-0.3,0.3-0.4c0.1-0.1,0.3-0.1,0.5-0.1
	L723.7,20L723.7,20L723.7,20z"/>
<path d="M730,23.7c0.6,0,1.1,0.1,1.6,0.3c0.5,0.2,0.9,0.5,1.3,0.8c0.4,0.4,0.6,0.8,0.8,1.3s0.3,1.1,0.3,1.7c0,0.2,0,0.3,0,0.4
	c0,0.1,0,0.2-0.1,0.3c-0.1,0.1-0.1,0.1-0.2,0.1c-0.1,0-0.1,0-0.3,0h-5.7c0.1,0.9,0.3,1.5,0.8,2c0.4,0.4,1,0.7,1.8,0.7
	c0.4,0,0.7,0,0.9-0.1c0.3-0.1,0.5-0.2,0.7-0.3c0.2-0.1,0.4-0.2,0.5-0.3c0.1-0.1,0.3-0.1,0.4-0.1c0.1,0,0.2,0,0.2,0.1
	c0.1,0,0.1,0.1,0.2,0.2l0.6,0.8c-0.2,0.3-0.5,0.5-0.8,0.7c-0.3,0.2-0.6,0.4-1,0.5c-0.3,0.1-0.7,0.2-1,0.2s-0.7,0.1-1,0.1
	c-0.6,0-1.2-0.1-1.8-0.3c-0.6-0.2-1-0.5-1.4-0.9c-0.4-0.4-0.7-0.9-1-1.5c-0.2-0.6-0.4-1.3-0.4-2c0-0.6,0.1-1.2,0.3-1.7
	c0.2-0.6,0.5-1,0.9-1.4c0.4-0.4,0.8-0.7,1.4-1C728.8,23.7,729.3,23.7,730,23.7z M730.2,25.1c-0.6,0-1.2,0.2-1.5,0.5
	c-0.4,0.4-0.6,0.9-0.7,1.5h4.2c0-0.3,0-0.6-0.1-0.8c-0.1-0.3-0.2-0.5-0.4-0.7s-0.4-0.3-0.6-0.5C730.8,25.2,730.5,25.1,730.2,25.1z"
	/>
<path d="M739.3,32.7v-8.9h1.4c0.3,0,0.5,0.1,0.6,0.4l0.2,0.7c0.2-0.2,0.4-0.4,0.6-0.5c0.2-0.2,0.4-0.3,0.7-0.4
	c0.2-0.1,0.5-0.2,0.7-0.3c0.3-0.1,0.6-0.1,0.9-0.1c0.5,0,1,0.1,1.3,0.3c0.4,0.2,0.7,0.4,1,0.7c0.3,0.3,0.5,0.7,0.6,1.1
	c0.1,0.4,0.2,0.9,0.2,1.4v5.7h-2.2v-5.7c0-0.6-0.1-1-0.4-1.3s-0.7-0.5-1.2-0.5c-0.4,0-0.7,0.1-1.1,0.3c-0.3,0.2-0.7,0.4-1,0.7v6.5
	C741.7,32.7,739.3,32.7,739.3,32.7z"/>
<path d="M754.5,22.5v3.6h3.5v1.5h-3.5v3.6h-1.8v-3.6h-3.5v-1.5h3.5v-3.6H754.5z"/>
<path d="M761.2,31.1h2.6v-7.4c0-0.3,0-0.6,0-0.9l-1.9,1.5c-0.1,0.1-0.2,0.1-0.2,0.1c-0.1,0-0.2,0-0.2,0c-0.1,0-0.2,0-0.3-0.1
	s-0.2-0.1-0.2-0.2l-0.7-1l4-3.3h1.8v11.1h2.3v1.6h-7.2V31.1z"/>
<path d="M23.6,129.5v-12.6h4.5c0.9,0,1.6,0.1,2.2,0.2c0.6,0.2,1.1,0.4,1.5,0.7c0.4,0.3,0.7,0.7,0.9,1.1c0.2,0.4,0.3,0.9,0.3,1.4
	c0,0.3,0,0.6-0.1,0.9s-0.2,0.5-0.4,0.8c-0.2,0.3-0.4,0.5-0.7,0.7c-0.3,0.2-0.6,0.4-1,0.5c1.8,0.4,2.7,1.4,2.7,2.8
	c0,0.6-0.1,1.1-0.3,1.5s-0.5,0.9-0.9,1.2c-0.4,0.3-0.9,0.6-1.5,0.8c-0.6,0.2-1.3,0.3-2,0.3H23.6z M26,122.3h1.9
	c0.8,0,1.4-0.2,1.9-0.5c0.4-0.3,0.6-0.8,0.6-1.4c0-0.7-0.2-1.2-0.6-1.4s-1-0.4-1.8-0.4h-2.1v3.6C25.9,122.3,26,122.3,26,122.3z
	 M26,123.9v3.7h2.5c0.5,0,0.8-0.1,1.1-0.2c0.3-0.1,0.5-0.3,0.7-0.4c0.2-0.2,0.3-0.4,0.4-0.6c0.1-0.2,0.1-0.5,0.1-0.8
	c0-0.3,0-0.5-0.1-0.8c-0.1-0.2-0.2-0.4-0.4-0.6c-0.2-0.2-0.4-0.3-0.7-0.4c-0.3-0.1-0.7-0.1-1.1-0.1L26,123.9L26,123.9z"/>
<path d="M37.5,116.6v13h-2.2v-13C35.3,116.6,37.5,116.6,37.5,116.6z"/>
<path d="M43.9,120.5c0.6,0,1.1,0.1,1.6,0.3c0.5,0.2,0.9,0.5,1.3,0.8c0.4,0.4,0.6,0.8,0.8,1.3s0.3,1.1,0.3,1.7c0,0.2,0,0.3,0,0.4
	c0,0.1,0,0.2-0.1,0.3c0,0.1-0.1,0.1-0.2,0.1c-0.1,0-0.1,0-0.3,0h-5.7c0.1,0.9,0.3,1.5,0.8,2s1,0.7,1.8,0.7c0.4,0,0.7,0,0.9-0.1
	c0.3-0.1,0.5-0.2,0.7-0.3c0.2-0.1,0.4-0.2,0.5-0.3c0.1-0.1,0.3-0.1,0.4-0.1c0.1,0,0.2,0,0.2,0.1c0.1,0,0.1,0.1,0.2,0.2l0.6,0.8
	c-0.2,0.3-0.5,0.5-0.8,0.7c-0.3,0.2-0.6,0.4-1,0.5c-0.4,0.1-0.7,0.2-1,0.2s-0.7,0.1-1,0.1c-0.6,0-1.2-0.1-1.8-0.3
	c-0.6-0.2-1-0.5-1.4-0.9s-0.7-0.9-1-1.5c-0.2-0.6-0.4-1.3-0.4-2c0-0.6,0.1-1.2,0.3-1.7s0.5-1,0.9-1.4c0.4-0.4,0.8-0.7,1.4-1
	C42.6,120.6,43.2,120.5,43.9,120.5z M43.9,121.9c-0.6,0-1.2,0.2-1.5,0.5c-0.4,0.4-0.6,0.9-0.7,1.5h4.2c0-0.3,0-0.6-0.1-0.8
	c-0.1-0.3-0.2-0.5-0.4-0.7s-0.4-0.3-0.6-0.5C44.5,122,44.2,121.9,43.9,121.9z M47,116.8l-2.2,2.2c-0.1,0.1-0.2,0.2-0.3,0.2
	s-0.2,0.1-0.4,0.1h-1.3l1.3-2.1c0.1-0.2,0.2-0.3,0.3-0.4c0.1-0.1,0.3-0.1,0.5-0.1L47,116.8L47,116.8z"/>
<path d="M59.6,129.5c-0.3,0-0.5-0.1-0.6-0.4l-0.2-0.9c-0.2,0.2-0.4,0.4-0.6,0.6c-0.2,0.2-0.4,0.3-0.7,0.5c-0.2,0.1-0.5,0.2-0.8,0.3
	s-0.6,0.1-0.9,0.1c-0.5,0-1-0.1-1.4-0.3c-0.4-0.2-0.8-0.5-1.1-0.9s-0.5-0.9-0.7-1.5c-0.2-0.6-0.2-1.3-0.2-1.9s0.1-1.3,0.3-1.8
	c0.2-0.6,0.5-1.1,0.8-1.5c0.3-0.4,0.8-0.8,1.3-1s1-0.4,1.6-0.4c0.5,0,1,0.1,1.3,0.2c0.4,0.2,0.7,0.4,1,0.7v-4.7h2.2v13L59.6,129.5
	C59.6,129.6,59.6,129.5,59.6,129.5z M56.7,127.9c0.5,0,0.9-0.1,1.2-0.3s0.6-0.5,0.9-0.8v-4c-0.3-0.3-0.5-0.5-0.8-0.6
	c-0.3-0.1-0.6-0.2-1-0.2c-0.3,0-0.6,0.1-0.9,0.2c-0.3,0.1-0.5,0.3-0.7,0.6s-0.3,0.6-0.4,1s-0.2,0.9-0.2,1.4s0,1,0.1,1.4
	c0.1,0.4,0.2,0.7,0.4,0.9s0.4,0.4,0.6,0.5C56.1,127.8,56.4,127.9,56.7,127.9z"/>
<path d="M65.4,120.6v5.7c0,0.6,0.1,1,0.4,1.3c0.3,0.3,0.7,0.5,1.2,0.5c0.4,0,0.7-0.1,1.1-0.3c0.3-0.2,0.7-0.4,1-0.7v-6.5h2.2v8.9
	h-1.4c-0.3,0-0.5-0.1-0.6-0.4l-0.2-0.7c-0.2,0.2-0.4,0.4-0.6,0.5c-0.2,0.2-0.4,0.3-0.7,0.4c-0.2,0.1-0.5,0.2-0.7,0.3
	c-0.3,0.1-0.6,0.1-0.9,0.1c-0.5,0-0.9-0.1-1.3-0.3c-0.4-0.2-0.7-0.4-1-0.7c-0.3-0.3-0.5-0.7-0.6-1.1c-0.1-0.4-0.2-0.9-0.2-1.4v-5.7
	L65.4,120.6L65.4,120.6z"/>
<path d="M73.6,129.5v-8.9h1.3c0.2,0,0.4,0,0.5,0.1c0.1,0.1,0.1,0.2,0.2,0.4l0.1,1.1c0.3-0.6,0.7-1,1.2-1.4c0.4-0.3,0.9-0.5,1.5-0.5
	c0.5,0,0.8,0.1,1.1,0.3l-0.3,1.6c0,0.1-0.1,0.2-0.1,0.2s-0.1,0.1-0.2,0.1s-0.2,0-0.4-0.1c-0.2,0-0.4-0.1-0.6-0.1
	c-0.5,0-0.9,0.1-1.2,0.4s-0.6,0.6-0.8,1.1v5.6L73.6,129.5C73.6,129.4,73.6,129.5,73.6,129.5z"/>
<path d="M17.5,173.2c0.1,0.2,0.2,0.4,0.3,0.6c0.1-0.2,0.2-0.4,0.3-0.6c0.1-0.2,0.2-0.4,0.3-0.6l3.8-7c0-0.1,0.1-0.2,0.1-0.2
	c0.1-0.1,0.1-0.1,0.2-0.1s0.1,0,0.2,0s0.2,0,0.3,0h1.8V178h-2.1v-8.1c0-0.2,0-0.3,0-0.5s0-0.4,0-0.6l-3.9,7.2
	c-0.1,0.2-0.2,0.3-0.4,0.4c-0.1,0.1-0.3,0.1-0.5,0.1h-0.3c-0.2,0-0.4,0-0.5-0.1c-0.1-0.1-0.3-0.2-0.4-0.4l-4-7.2c0,0.2,0,0.4,0,0.6
	c0,0.2,0,0.4,0,0.5v8.1h-2.1v-12.6h1.8c0.1,0,0.2,0,0.3,0s0.1,0,0.2,0s0.1,0.1,0.2,0.1c0.1,0.1,0.1,0.1,0.2,0.2l3.9,7
	C17.3,172.8,17.4,173,17.5,173.2z"/>
<path d="M34.5,177.9h-1c-0.2,0-0.4,0-0.5-0.1c-0.1-0.1-0.2-0.2-0.3-0.4l-0.2-0.7c-0.2,0.2-0.5,0.4-0.7,0.6c-0.2,0.2-0.5,0.3-0.7,0.4
	c-0.2,0.1-0.5,0.2-0.8,0.2c-0.3,0.1-0.6,0.1-0.9,0.1c-0.4,0-0.8-0.1-1.1-0.2c-0.3-0.1-0.6-0.3-0.9-0.5c-0.2-0.2-0.4-0.5-0.6-0.8
	c-0.1-0.3-0.2-0.7-0.2-1.1c0-0.3,0.1-0.7,0.3-1s0.5-0.6,0.9-0.9c0.4-0.3,1-0.5,1.7-0.7s1.6-0.3,2.6-0.3v-0.5c0-0.6-0.1-1.1-0.4-1.4
	c-0.3-0.3-0.6-0.4-1.1-0.4c-0.4,0-0.7,0-0.9,0.1c-0.2,0.1-0.4,0.2-0.6,0.3c-0.2,0.1-0.3,0.2-0.5,0.3c-0.2,0.1-0.3,0.1-0.5,0.1
	c-0.1,0-0.3,0-0.4-0.1c-0.1-0.1-0.2-0.2-0.3-0.3l-0.4-0.7c1.1-1,2.3-1.5,3.8-1.5c0.5,0,1,0.1,1.4,0.3c0.4,0.2,0.8,0.4,1.1,0.7
	s0.5,0.7,0.7,1.1c0.2,0.4,0.2,0.9,0.2,1.4v5.8L34.5,177.9L34.5,177.9z M30.2,176.5c0.2,0,0.4,0,0.6-0.1c0.2,0,0.4-0.1,0.5-0.2
	c0.2-0.1,0.3-0.2,0.5-0.3c0.2-0.1,0.3-0.3,0.5-0.4v-1.5c-0.6,0-1.2,0-1.6,0.1s-0.8,0.2-1,0.3c-0.2,0.1-0.5,0.3-0.6,0.4
	c-0.1,0.2-0.2,0.4-0.2,0.6c0,0.4,0.1,0.7,0.3,0.8C29.5,176.5,29.8,176.5,30.2,176.5z"/>
<path d="M37.6,166.6c0,0.2,0,0.3-0.1,0.5c-0.1,0.1-0.2,0.3-0.3,0.4s-0.3,0.2-0.4,0.3c-0.2,0.1-0.3,0.1-0.5,0.1s-0.3,0-0.5-0.1
	c-0.1-0.1-0.3-0.1-0.4-0.3c-0.1-0.1-0.2-0.2-0.3-0.4c-0.1-0.1-0.1-0.3-0.1-0.5c0-0.2,0-0.3,0.1-0.5c0.1-0.2,0.2-0.3,0.3-0.4
	c0.1-0.1,0.2-0.2,0.4-0.3c0.1-0.1,0.3-0.1,0.5-0.1s0.3,0,0.5,0.1s0.3,0.2,0.4,0.3c0.1,0.1,0.2,0.2,0.3,0.4
	C37.6,166.3,37.6,166.4,37.6,166.6z M39.1,169v8.9h-2.2V169H39.1z M41,166.6c0,0.2,0,0.3-0.1,0.5c-0.1,0.1-0.2,0.3-0.3,0.4
	s-0.2,0.2-0.4,0.3c-0.2,0.1-0.3,0.1-0.5,0.1s-0.3,0-0.5-0.1c-0.1-0.1-0.3-0.1-0.4-0.3c-0.1-0.1-0.2-0.2-0.3-0.4
	c-0.1-0.1-0.1-0.3-0.1-0.5c0-0.2,0-0.3,0.1-0.5c0.1-0.2,0.2-0.3,0.3-0.4c0.1-0.1,0.2-0.2,0.4-0.3c0.1-0.1,0.3-0.1,0.5-0.1
	s0.3,0,0.5,0.1s0.3,0.2,0.4,0.3c0.1,0.1,0.2,0.2,0.3,0.4C40.9,166.3,41,166.4,41,166.6z"/>
<path d="M47.1,170.7c-0.1,0.1-0.1,0.2-0.2,0.2s-0.1,0.1-0.3,0.1c-0.1,0-0.2,0-0.3-0.1c-0.1-0.1-0.3-0.1-0.4-0.2
	c-0.2-0.1-0.3-0.1-0.6-0.2c-0.3-0.1-0.5-0.1-0.7-0.1c-0.4,0-0.8,0.1-1,0.3c-0.3,0.2-0.4,0.4-0.4,0.7c0,0.2,0.1,0.4,0.2,0.5
	c0.1,0.1,0.3,0.3,0.5,0.4c0.2,0.1,0.5,0.2,0.7,0.3c0.2,0.1,0.5,0.2,0.8,0.3c0.3,0.1,0.6,0.2,0.8,0.3c0.2,0.1,0.5,0.3,0.7,0.5
	s0.4,0.4,0.5,0.7s0.2,0.6,0.2,1s-0.1,0.9-0.2,1.2c-0.2,0.4-0.4,0.7-0.7,1c-0.3,0.3-0.7,0.5-1.2,0.6c-0.5,0.2-1,0.2-1.6,0.2
	c-0.3,0-0.6,0-0.9-0.1c-0.3-0.1-0.6-0.1-0.9-0.2c-0.3-0.1-0.5-0.2-0.8-0.4c-0.3-0.2-0.4-0.3-0.6-0.5l0.5-0.8
	c0.1-0.1,0.1-0.2,0.2-0.2c0.1-0.1,0.2-0.1,0.3-0.1s0.3,0,0.4,0.1c0.1,0.1,0.3,0.2,0.4,0.3c0.1,0.1,0.4,0.2,0.6,0.3
	c0.2,0.1,0.5,0.1,0.8,0.1s0.5,0,0.7-0.1c0.2-0.1,0.3-0.1,0.5-0.2c0.1-0.1,0.2-0.2,0.3-0.4c0.1-0.2,0.1-0.3,0.1-0.4
	c0-0.2-0.1-0.4-0.2-0.5c-0.1-0.1-0.3-0.3-0.5-0.4c-0.2-0.1-0.5-0.2-0.7-0.3c-0.2-0.1-0.6-0.2-0.8-0.3s-0.6-0.2-0.8-0.3
	c-0.3-0.1-0.5-0.3-0.7-0.5c-0.2-0.2-0.4-0.4-0.5-0.7s-0.2-0.6-0.2-1c0-0.4,0.1-0.7,0.2-1.1c0.1-0.3,0.4-0.6,0.7-0.9
	c0.3-0.3,0.7-0.5,1.1-0.6c0.4-0.1,0.9-0.2,1.5-0.2s1.2,0.1,1.7,0.3s1,0.5,1.3,0.8L47.1,170.7z"/>
<path d="M56.1,168.8c0.4,0,0.8,0,1.1,0.1c0.3,0.1,0.7,0.2,1,0.4h2.7v0.8c0,0.1,0,0.2-0.1,0.3s-0.2,0.1-0.4,0.2l-0.8,0.2
	c0.1,0.2,0.1,0.3,0.1,0.5c0,0.2,0,0.4,0,0.5c0,0.5-0.1,0.9-0.3,1.2c-0.2,0.4-0.4,0.7-0.8,0.9c-0.3,0.3-0.7,0.5-1.1,0.6
	c-0.4,0.1-0.9,0.2-1.4,0.2c-0.3,0-0.7,0-1-0.1c-0.3,0.2-0.4,0.4-0.4,0.6c0,0.2,0.1,0.3,0.3,0.4s0.4,0.1,0.7,0.2
	c0.3,0,0.6,0.1,0.9,0.1s0.7,0,1.1,0c0.4,0,0.7,0.1,1.1,0.2c0.4,0.1,0.7,0.2,0.9,0.4c0.3,0.2,0.5,0.4,0.7,0.7s0.3,0.6,0.3,1.1
	c0,0.4-0.1,0.8-0.3,1.2s-0.5,0.7-0.9,1s-0.8,0.5-1.4,0.7c-0.6,0.2-1.2,0.3-1.9,0.3s-1.3-0.1-1.8-0.2c-0.5-0.1-0.9-0.3-1.3-0.5
	c-0.3-0.2-0.6-0.5-0.8-0.8S52,179,52,178.7c0-0.4,0.1-0.8,0.4-1.1c0.3-0.3,0.6-0.5,1.1-0.7c-0.2-0.1-0.4-0.3-0.5-0.5
	c-0.1-0.2-0.2-0.5-0.2-0.8c0-0.1,0-0.3,0.1-0.4c0-0.1,0.1-0.3,0.2-0.4c0.1-0.1,0.2-0.3,0.4-0.4s0.3-0.2,0.5-0.3
	c-0.5-0.3-0.8-0.6-1.1-1s-0.4-0.9-0.4-1.5c0-0.5,0.1-0.9,0.3-1.2c0.2-0.4,0.4-0.7,0.8-0.9c0.3-0.3,0.7-0.5,1.2-0.6
	C55.1,168.9,55.6,168.8,56.1,168.8z M58.6,178.3c0-0.2-0.1-0.3-0.2-0.5c-0.1-0.1-0.3-0.2-0.4-0.3c-0.2-0.1-0.4-0.1-0.7-0.1
	c-0.2,0-0.5,0-0.8,0s-0.6,0-0.9,0c-0.3,0-0.6,0-0.9-0.1c-0.3,0.1-0.5,0.3-0.6,0.5c-0.2,0.2-0.2,0.4-0.2,0.7c0,0.2,0,0.3,0.1,0.5
	c0.1,0.2,0.2,0.3,0.4,0.4s0.4,0.2,0.7,0.2c0.3,0.1,0.6,0.1,1,0.1s0.8,0,1.1-0.1s0.5-0.2,0.7-0.3s0.3-0.2,0.4-0.4
	S58.6,178.4,58.6,178.3z M56.1,173.2c0.3,0,0.5,0,0.7-0.1c0.2-0.1,0.4-0.2,0.5-0.3c0.1-0.1,0.2-0.3,0.3-0.5c0.1-0.2,0.1-0.4,0.1-0.6
	c0-0.5-0.1-0.8-0.4-1.1s-0.7-0.4-1.2-0.4s-1,0.1-1.2,0.4s-0.4,0.6-0.4,1.1c0,0.2,0,0.4,0.1,0.6c0.1,0.2,0.2,0.3,0.3,0.5
	c0.1,0.1,0.3,0.2,0.5,0.3C55.6,173.1,55.9,173.2,56.1,173.2z"/>
<path d="M62.3,177.9V169h1.3c0.2,0,0.4,0,0.5,0.1s0.1,0.2,0.2,0.4l0.1,1.1c0.3-0.6,0.7-1,1.2-1.4c0.4-0.3,0.9-0.5,1.5-0.5
	c0.5,0,0.8,0.1,1.1,0.3l-0.3,1.6c0,0.1-0.1,0.2-0.1,0.2s-0.1,0.1-0.2,0.1s-0.2,0-0.4-0.1c-0.2,0-0.4-0.1-0.6-0.1
	c-0.5,0-0.9,0.1-1.2,0.4s-0.6,0.6-0.8,1.1v5.6L62.3,177.9L62.3,177.9z"/>
<path d="M76.6,177.9h-1c-0.2,0-0.4,0-0.5-0.1c-0.1-0.1-0.2-0.2-0.3-0.4l-0.2-0.7c-0.2,0.2-0.5,0.4-0.7,0.6c-0.2,0.2-0.5,0.3-0.7,0.4
	c-0.2,0.1-0.5,0.2-0.8,0.2c-0.3,0.1-0.6,0.1-0.9,0.1c-0.4,0-0.8-0.1-1.1-0.2c-0.3-0.1-0.6-0.3-0.9-0.5c-0.2-0.2-0.4-0.5-0.6-0.8
	c-0.1-0.3-0.2-0.7-0.2-1.1c0-0.3,0.1-0.7,0.3-1s0.5-0.6,0.9-0.9c0.4-0.3,1-0.5,1.7-0.7s1.6-0.3,2.6-0.3v-0.5c0-0.6-0.1-1.1-0.4-1.4
	c-0.3-0.3-0.6-0.4-1.1-0.4c-0.4,0-0.7,0-0.9,0.1c-0.2,0.1-0.4,0.2-0.6,0.3c-0.2,0.1-0.3,0.2-0.5,0.3c-0.2,0.1-0.3,0.1-0.5,0.1
	c-0.1,0-0.3,0-0.4-0.1c-0.1-0.1-0.2-0.2-0.3-0.3l-0.4-0.7c1.1-1,2.3-1.5,3.8-1.5c0.5,0,1,0.1,1.4,0.3c0.4,0.2,0.8,0.4,1.1,0.7
	c0.3,0.3,0.5,0.7,0.7,1.1c0.2,0.4,0.2,0.9,0.2,1.4v5.8L76.6,177.9L76.6,177.9z M72.3,176.5c0.2,0,0.4,0,0.6-0.1
	c0.2,0,0.4-0.1,0.5-0.2c0.2-0.1,0.3-0.2,0.5-0.3s0.3-0.3,0.5-0.4v-1.5c-0.6,0-1.2,0-1.6,0.1s-0.8,0.2-1,0.3
	c-0.2,0.1-0.5,0.3-0.6,0.4c-0.1,0.2-0.2,0.4-0.2,0.6c0,0.4,0.1,0.7,0.3,0.8C71.6,176.5,71.9,176.5,72.3,176.5z"/>
<path d="M81.5,166.3c0,0.2,0,0.4-0.1,0.5c-0.1,0.1-0.2,0.3-0.3,0.4c-0.1,0.1-0.3,0.2-0.5,0.3c-0.2,0.1-0.4,0.1-0.6,0.1
	s-0.4,0-0.5-0.1c-0.2-0.1-0.3-0.2-0.4-0.3c-0.1-0.1-0.2-0.3-0.3-0.4c-0.1-0.2-0.1-0.3-0.1-0.5c0-0.2,0-0.4,0.1-0.6
	c0.1-0.2,0.2-0.3,0.3-0.4s0.3-0.2,0.4-0.3c0.2-0.1,0.4-0.1,0.5-0.1c0.2,0,0.4,0,0.6,0.1s0.3,0.2,0.5,0.3c0.2,0.1,0.2,0.3,0.3,0.4
	C81.4,166,81.5,166.2,81.5,166.3z M81.1,169v8.9h-2.2V169H81.1z"/>
<path d="M83.6,177.9V169H85c0.3,0,0.5,0.1,0.6,0.4l0.2,0.7c0.2-0.2,0.4-0.4,0.6-0.5c0.2-0.1,0.4-0.3,0.7-0.4
	c0.2-0.1,0.5-0.2,0.7-0.3c0.3-0.1,0.6-0.1,0.9-0.1c0.5,0,1,0.1,1.3,0.3c0.4,0.2,0.7,0.4,1,0.7s0.5,0.7,0.6,1.1
	c0.1,0.4,0.2,0.9,0.2,1.4v5.7h-2.2v-5.7c0-0.6-0.1-1-0.4-1.3s-0.7-0.5-1.2-0.5c-0.4,0-0.7,0.1-1.1,0.3c-0.3,0.2-0.7,0.4-1,0.7v6.5
	L83.6,177.9L83.6,177.9z"/>
<path d="M768.7,82.9h-1.4c-0.2,0-0.3,0-0.4-0.1c-0.1-0.1-0.2-0.2-0.2-0.3l-1.2-3h-5.8l-1.2,3c0,0.1-0.1,0.2-0.2,0.3
	c-0.1,0.1-0.2,0.1-0.4,0.1h-1.4l5.2-12.5h1.8L768.7,82.9z M760.2,78.3h4.8l-2-5c-0.1-0.3-0.3-0.7-0.4-1.2c-0.1,0.2-0.1,0.5-0.2,0.7
	s-0.1,0.4-0.2,0.5L760.2,78.3z"/>
<path d="M773.7,73.9c0.7,0,1.3,0.1,1.8,0.3c0.5,0.2,1,0.5,1.4,0.9s0.7,0.9,0.9,1.5s0.3,1.2,0.3,1.8c0,0.7-0.1,1.4-0.3,1.8
	c-0.2,0.6-0.5,1.1-0.9,1.5c-0.4,0.4-0.8,0.7-1.4,0.9c-0.5,0.2-1.1,0.3-1.8,0.3s-1.3-0.1-1.8-0.3c-0.5-0.2-1-0.5-1.4-0.9
	c-0.4-0.4-0.7-0.9-0.9-1.5c-0.2-0.6-0.3-1.2-0.3-1.8c0-0.7,0.1-1.4,0.3-1.8c0.2-0.6,0.5-1.1,0.9-1.5s0.8-0.7,1.4-0.9
	C772.5,74.1,773,73.9,773.7,73.9z M773.7,81.8c0.9,0,1.6-0.3,2-0.9c0.4-0.6,0.7-1.4,0.7-2.4c0-1.1-0.2-1.8-0.7-2.4
	c-0.4-0.6-1.1-0.9-2-0.9c-0.5,0-0.9,0.1-1.2,0.2c-0.3,0.2-0.6,0.4-0.8,0.7c-0.2,0.3-0.4,0.7-0.5,1.1s-0.2,0.9-0.2,1.5s0.1,1,0.2,1.4
	c0.1,0.4,0.3,0.8,0.5,1.1s0.5,0.5,0.8,0.7C772.8,81.7,773.2,81.8,773.7,81.8z"/>
<path d="M781.3,74.1v5.6c0,0.7,0.2,1.2,0.5,1.5s0.8,0.6,1.4,0.6c0.5,0,0.9-0.1,1.3-0.3c0.4-0.2,0.8-0.5,1.1-0.9v-6.5h1.6V83h-1
	c-0.2,0-0.4-0.1-0.4-0.3l-0.1-1c-0.4,0.4-0.8,0.8-1.3,1.1c-0.5,0.3-1.1,0.4-1.7,0.4c-0.5,0-0.9-0.1-1.3-0.2c-0.4-0.2-0.7-0.4-1-0.7
	s-0.5-0.7-0.6-1.1s-0.2-0.9-0.2-1.4v-5.6h1.7V74.1z M786.3,72.7h-1.1c-0.1,0-0.2,0-0.4-0.1l-1.2-1.1l-0.2-0.2l-0.1,0.2l-1.2,1.1
	c0,0-0.1,0.1-0.2,0.1s-0.1,0-0.2,0h-1.1l2-2.3h1.5L786.3,72.7z"/>
<path d="M792.8,83c-0.7,0-1.3-0.2-1.7-0.6c-0.4-0.4-0.6-1-0.6-1.6v-5.4h-1.1c-0.1,0-0.2,0-0.2-0.1c-0.1-0.1-0.1-0.1-0.1-0.3v-0.6
	l1.5-0.2l0.4-2.7c0-0.1,0.1-0.2,0.1-0.2c0.1-0.1,0.1-0.1,0.3-0.1h0.8v3h2.6v1.2h-2.6v5.3c0,0.4,0.1,0.7,0.3,0.9
	c0.2,0.2,0.4,0.3,0.7,0.3c0.2,0,0.3,0,0.4-0.1c0.1,0,0.2-0.1,0.3-0.1c0.1-0.1,0.2-0.1,0.2-0.1c0.1,0,0.1-0.1,0.2-0.1
	c0.1,0,0.2,0.1,0.2,0.2l0.5,0.8c-0.3,0.3-0.6,0.5-1,0.6C793.5,83,793.2,83,792.8,83z"/>
<path d="M168.6,82.9h-1.4c-0.2,0-0.3,0-0.4-0.1c-0.1-0.1-0.2-0.2-0.2-0.3l-1.2-3h-5.8l-1.2,3c0,0.1-0.1,0.2-0.2,0.3
	c-0.1,0.1-0.2,0.1-0.4,0.1h-1.4l5.2-12.5h1.8L168.6,82.9z M160.1,78.3h4.8l-2-5c-0.1-0.3-0.3-0.7-0.4-1.2c-0.1,0.2-0.1,0.5-0.2,0.7
	s-0.1,0.4-0.2,0.5L160.1,78.3z"/>
<path d="M173.6,73.9c0.7,0,1.3,0.1,1.8,0.3c0.5,0.2,1,0.5,1.4,0.9s0.7,0.9,0.9,1.5s0.3,1.2,0.3,1.8c0,0.7-0.1,1.4-0.3,1.8
	c-0.2,0.6-0.5,1.1-0.9,1.5c-0.4,0.4-0.8,0.7-1.4,0.9c-0.5,0.2-1.1,0.3-1.8,0.3s-1.3-0.1-1.8-0.3c-0.5-0.2-1-0.5-1.4-0.9
	c-0.4-0.4-0.7-0.9-0.9-1.5c-0.2-0.6-0.3-1.2-0.3-1.8c0-0.7,0.1-1.4,0.3-1.8c0.2-0.6,0.5-1.1,0.9-1.5s0.8-0.7,1.4-0.9
	C172.4,74.1,173,73.9,173.6,73.9z M173.6,81.8c0.9,0,1.6-0.3,2-0.9c0.4-0.6,0.7-1.4,0.7-2.4c0-1.1-0.2-1.8-0.7-2.4
	c-0.4-0.6-1.1-0.9-2-0.9c-0.5,0-0.9,0.1-1.2,0.2c-0.3,0.2-0.6,0.4-0.8,0.7c-0.2,0.3-0.4,0.7-0.5,1.1s-0.2,0.9-0.2,1.5s0.1,1,0.2,1.4
	c0.1,0.4,0.3,0.8,0.5,1.1s0.5,0.5,0.8,0.7C172.8,81.7,173.2,81.8,173.6,81.8z"/>
<path d="M181.3,74.1v5.6c0,0.7,0.2,1.2,0.5,1.5s0.8,0.6,1.4,0.6c0.5,0,0.9-0.1,1.3-0.3c0.4-0.2,0.8-0.5,1.1-0.9v-6.5h1.6V83h-1
	c-0.2,0-0.4-0.1-0.4-0.3l-0.1-1c-0.4,0.4-0.8,0.8-1.3,1.1c-0.5,0.3-1.1,0.4-1.7,0.4c-0.5,0-0.9-0.1-1.3-0.2c-0.4-0.2-0.7-0.4-1-0.7
	s-0.5-0.7-0.6-1.1s-0.2-0.9-0.2-1.4v-5.6h1.7V74.1z M186.3,72.7h-1.1c-0.1,0-0.2,0-0.4-0.1l-1.2-1.1l-0.2-0.2l-0.1,0.2l-1.2,1.1
	c0,0-0.1,0.1-0.2,0.1s-0.1,0-0.2,0h-1.1l2-2.3h1.5L186.3,72.7z"/>
<path d="M192.7,83c-0.7,0-1.3-0.2-1.7-0.6c-0.4-0.4-0.6-1-0.6-1.6v-5.4h-1.1c-0.1,0-0.2,0-0.2-0.1c-0.1-0.1-0.1-0.1-0.1-0.3v-0.6
	l1.5-0.2l0.4-2.7c0-0.1,0.1-0.2,0.1-0.2c0.1-0.1,0.1-0.1,0.3-0.1h0.8v3h2.6v1.2h-2.6v5.3c0,0.4,0.1,0.7,0.3,0.9
	c0.2,0.2,0.4,0.3,0.7,0.3c0.2,0,0.3,0,0.4-0.1c0.1,0,0.2-0.1,0.3-0.1c0.1-0.1,0.2-0.1,0.2-0.1c0.1,0,0.1-0.1,0.2-0.1
	c0.1,0,0.2,0.1,0.2,0.2l0.5,0.8c-0.3,0.3-0.6,0.5-1,0.6C193.5,83,193.1,83,192.7,83z"/>
<g>
	<path d="M2.8,229.8h5.6v1.5H1.1v-12.9h1.7V229.8z"/>
	<path d="M16.8,231.3H16c-0.2,0-0.3,0-0.4-0.1c-0.1,0-0.2-0.1-0.2-0.3l-0.2-0.8c-0.2,0.2-0.5,0.4-0.7,0.6s-0.5,0.3-0.7,0.4
		c-0.3,0.1-0.5,0.2-0.8,0.3c-0.3,0.1-0.6,0.1-0.9,0.1c-0.4,0-0.7,0-1-0.1s-0.6-0.2-0.8-0.4c-0.2-0.2-0.4-0.5-0.5-0.8
		c-0.1-0.3-0.2-0.7-0.2-1.1c0-0.4,0.1-0.7,0.3-1c0.2-0.3,0.5-0.6,1-0.9s1-0.5,1.7-0.6s1.6-0.2,2.6-0.2v-0.7c0-0.7-0.2-1.3-0.5-1.6
		c-0.3-0.4-0.8-0.5-1.3-0.5c-0.4,0-0.7,0-1,0.1s-0.5,0.2-0.7,0.3c-0.2,0.1-0.4,0.2-0.5,0.3c-0.1,0.1-0.3,0.1-0.4,0.1
		c-0.1,0-0.2,0-0.3-0.1s-0.1-0.1-0.2-0.2l-0.3-0.5c0.5-0.5,1-0.8,1.6-1.1c0.6-0.2,1.2-0.4,1.9-0.4c0.5,0,1,0.1,1.4,0.3
		s0.7,0.4,1,0.7c0.3,0.3,0.5,0.7,0.6,1.1c0.1,0.4,0.2,0.9,0.2,1.4V231.3z M12.6,230.3c0.3,0,0.5,0,0.8-0.1s0.5-0.1,0.7-0.2
		s0.4-0.2,0.6-0.4s0.4-0.3,0.6-0.5v-1.9c-0.7,0-1.4,0-1.9,0.1c-0.5,0.1-0.9,0.2-1.3,0.4c-0.3,0.2-0.6,0.3-0.7,0.5s-0.2,0.4-0.2,0.7
		c0,0.2,0,0.4,0.1,0.6c0.1,0.2,0.2,0.3,0.3,0.4s0.3,0.2,0.5,0.2C12.2,230.3,12.4,230.3,12.6,230.3z"/>
	<path d="M19.2,231.3V218h1.6v5.5c0.4-0.4,0.8-0.8,1.3-1.1c0.5-0.3,1-0.4,1.7-0.4c0.5,0,1,0.1,1.4,0.3c0.4,0.2,0.8,0.5,1.1,0.9
		c0.3,0.4,0.5,0.9,0.7,1.5c0.2,0.6,0.2,1.2,0.2,2c0,0.7-0.1,1.3-0.3,1.9c-0.2,0.6-0.4,1.1-0.8,1.5c-0.3,0.4-0.8,0.8-1.2,1
		c-0.5,0.2-1,0.4-1.7,0.4c-0.6,0-1.1-0.1-1.5-0.3c-0.4-0.2-0.8-0.5-1.1-1l-0.1,0.8c0,0.2-0.2,0.3-0.4,0.3H19.2z M23.3,223.3
		c-0.5,0-1,0.1-1.4,0.4c-0.4,0.2-0.8,0.6-1.1,1v4.4c0.3,0.4,0.6,0.7,1,0.8s0.7,0.2,1.2,0.2c0.9,0,1.5-0.3,2-0.9
		c0.5-0.6,0.7-1.5,0.7-2.6c0-0.6-0.1-1.1-0.2-1.5c-0.1-0.4-0.3-0.8-0.5-1c-0.2-0.3-0.4-0.5-0.7-0.6S23.7,223.3,23.3,223.3z"/>
	<path d="M32.9,222c0.7,0,1.3,0.1,1.8,0.3c0.5,0.2,1,0.5,1.4,0.9s0.7,0.9,0.9,1.5c0.2,0.6,0.3,1.2,0.3,1.9c0,0.7-0.1,1.4-0.3,1.9
		c-0.2,0.6-0.5,1.1-0.9,1.5c-0.4,0.4-0.8,0.7-1.4,0.9c-0.5,0.2-1.1,0.3-1.8,0.3s-1.3-0.1-1.8-0.3c-0.5-0.2-1-0.5-1.4-0.9
		c-0.4-0.4-0.7-0.9-0.9-1.5c-0.2-0.6-0.3-1.2-0.3-1.9c0-0.7,0.1-1.4,0.3-1.9c0.2-0.6,0.5-1.1,0.9-1.5s0.8-0.7,1.4-0.9
		C31.7,222.2,32.3,222,32.9,222z M32.9,230.2c0.9,0,1.6-0.3,2-0.9c0.4-0.6,0.7-1.4,0.7-2.5c0-1.1-0.2-1.9-0.7-2.5
		c-0.4-0.6-1.1-0.9-2-0.9c-0.5,0-0.9,0.1-1.2,0.2c-0.3,0.2-0.6,0.4-0.8,0.7s-0.4,0.7-0.5,1.1c-0.1,0.4-0.2,0.9-0.2,1.5
		s0.1,1,0.2,1.4c0.1,0.4,0.3,0.8,0.5,1.1s0.5,0.5,0.8,0.7C32.1,230.1,32.5,230.2,32.9,230.2z"/>
	<path d="M40.6,222.2v5.8c0,0.7,0.2,1.2,0.5,1.6c0.3,0.4,0.8,0.6,1.4,0.6c0.5,0,0.9-0.1,1.3-0.3c0.4-0.2,0.8-0.5,1.1-0.9v-6.7h1.6
		v9.1h-1c-0.2,0-0.4-0.1-0.4-0.3l-0.1-1c-0.4,0.4-0.8,0.8-1.3,1.1c-0.5,0.3-1.1,0.4-1.7,0.4c-0.5,0-0.9-0.1-1.3-0.2
		c-0.4-0.2-0.7-0.4-1-0.7c-0.3-0.3-0.5-0.7-0.6-1.1c-0.1-0.4-0.2-0.9-0.2-1.4v-5.8H40.6z"/>
	<path d="M49.3,231.3v-9.1h0.9c0.2,0,0.3,0,0.4,0.1s0.1,0.2,0.1,0.3l0.1,1.4c0.3-0.6,0.7-1.1,1.2-1.5c0.5-0.4,1-0.5,1.6-0.5
		c0.3,0,0.5,0,0.7,0.1s0.4,0.1,0.6,0.2l-0.2,1.2c0,0.1-0.1,0.2-0.3,0.2c-0.1,0-0.2,0-0.4-0.1c-0.2-0.1-0.4-0.1-0.7-0.1
		c-0.6,0-1,0.2-1.4,0.5c-0.4,0.3-0.7,0.8-0.9,1.4v5.8H49.3z"/>
</g>
<rect x="65.2" y="217.3" class="st3" width="25" height="15"/>
<g>
	<path d="M147.2,220.4c-0.1,0.1-0.1,0.2-0.2,0.2c-0.1,0-0.1,0.1-0.2,0.1c-0.1,0-0.2-0.1-0.4-0.2c-0.1-0.1-0.3-0.2-0.5-0.3
		s-0.5-0.2-0.7-0.3s-0.6-0.2-1.1-0.2c-0.4,0-0.7,0.1-1,0.2c-0.3,0.1-0.6,0.2-0.8,0.4c-0.2,0.2-0.4,0.4-0.5,0.6s-0.2,0.5-0.2,0.8
		c0,0.4,0.1,0.7,0.3,0.9c0.2,0.2,0.4,0.4,0.7,0.6s0.6,0.3,1,0.4c0.4,0.1,0.7,0.3,1.1,0.4c0.4,0.1,0.8,0.3,1.1,0.4
		c0.4,0.2,0.7,0.4,1,0.6s0.5,0.6,0.7,0.9c0.2,0.4,0.3,0.8,0.3,1.4c0,0.6-0.1,1.1-0.3,1.6c-0.2,0.5-0.5,0.9-0.8,1.3
		c-0.4,0.4-0.8,0.7-1.4,0.9s-1.1,0.3-1.8,0.3c-0.8,0-1.6-0.2-2.3-0.5c-0.7-0.3-1.3-0.7-1.8-1.2l0.5-0.8c0-0.1,0.1-0.1,0.2-0.2
		c0.1,0,0.1-0.1,0.2-0.1c0.1,0,0.3,0.1,0.4,0.2c0.2,0.1,0.4,0.3,0.6,0.4c0.2,0.2,0.5,0.3,0.9,0.4c0.3,0.1,0.8,0.2,1.3,0.2
		c0.4,0,0.8-0.1,1.1-0.2c0.3-0.1,0.6-0.3,0.8-0.5s0.4-0.5,0.5-0.7c0.1-0.3,0.2-0.6,0.2-1c0-0.4-0.1-0.7-0.3-1
		c-0.2-0.2-0.4-0.5-0.7-0.6c-0.3-0.2-0.6-0.3-1-0.4c-0.4-0.1-0.7-0.2-1.1-0.4c-0.4-0.1-0.8-0.3-1.1-0.4c-0.4-0.2-0.7-0.4-1-0.6
		c-0.3-0.3-0.5-0.6-0.7-1c-0.2-0.4-0.3-0.9-0.3-1.4c0-0.5,0.1-0.9,0.3-1.3c0.2-0.4,0.4-0.8,0.8-1.1c0.3-0.3,0.8-0.6,1.2-0.8
		c0.5-0.2,1.1-0.3,1.7-0.3c0.7,0,1.4,0.1,2,0.3c0.6,0.2,1.1,0.6,1.6,1L147.2,220.4z"/>
	<path d="M153.5,222c0.5,0,1.1,0.1,1.5,0.3s0.9,0.4,1.2,0.8c0.3,0.3,0.6,0.8,0.8,1.3c0.2,0.5,0.3,1.1,0.3,1.7c0,0.3,0,0.4-0.1,0.5
		c-0.1,0.1-0.2,0.1-0.3,0.1h-6.1c0,0.6,0.1,1.1,0.2,1.5c0.1,0.4,0.3,0.8,0.6,1.1s0.6,0.5,0.9,0.6c0.3,0.1,0.7,0.2,1.2,0.2
		c0.4,0,0.7,0,1-0.1c0.3-0.1,0.5-0.2,0.8-0.3c0.2-0.1,0.4-0.2,0.5-0.3c0.1-0.1,0.3-0.1,0.4-0.1c0.1,0,0.2,0.1,0.3,0.2l0.4,0.6
		c-0.2,0.2-0.4,0.4-0.7,0.6c-0.3,0.2-0.6,0.3-0.9,0.4c-0.3,0.1-0.6,0.2-1,0.3c-0.3,0.1-0.7,0.1-1,0.1c-0.6,0-1.2-0.1-1.7-0.3
		c-0.5-0.2-1-0.5-1.4-0.9s-0.7-0.9-0.9-1.5c-0.2-0.6-0.3-1.3-0.3-2.1c0-0.6,0.1-1.2,0.3-1.8c0.2-0.6,0.5-1,0.8-1.4
		c0.4-0.4,0.8-0.7,1.3-1C152.2,222.2,152.8,222,153.5,222z M153.5,223.2c-0.8,0-1.4,0.2-1.8,0.7c-0.4,0.4-0.7,1.1-0.8,1.9h5
		c0-0.4-0.1-0.7-0.2-1c-0.1-0.3-0.3-0.6-0.4-0.8c-0.2-0.2-0.4-0.4-0.7-0.5C154.2,223.3,153.9,223.2,153.5,223.2z"/>
	<path d="M159.3,231.3v-9.1h1c0.2,0,0.4,0.1,0.4,0.3l0.1,0.9c0.3-0.4,0.7-0.8,1.1-1c0.4-0.3,0.9-0.4,1.5-0.4c0.6,0,1.1,0.2,1.5,0.5
		c0.4,0.3,0.7,0.8,0.8,1.4c0.1-0.3,0.3-0.6,0.5-0.9c0.2-0.2,0.4-0.4,0.7-0.6c0.3-0.2,0.5-0.3,0.8-0.3c0.3-0.1,0.6-0.1,0.9-0.1
		c0.5,0,0.9,0.1,1.3,0.2c0.4,0.2,0.7,0.4,1,0.7c0.3,0.3,0.5,0.7,0.6,1.1c0.1,0.4,0.2,0.9,0.2,1.5v5.8h-1.6v-5.8
		c0-0.7-0.2-1.3-0.5-1.6c-0.3-0.4-0.8-0.6-1.4-0.6c-0.3,0-0.5,0-0.8,0.1c-0.2,0.1-0.4,0.2-0.6,0.4c-0.2,0.2-0.3,0.4-0.4,0.7
		s-0.2,0.6-0.2,0.9v5.8h-1.6v-5.8c0-0.7-0.1-1.3-0.4-1.6c-0.3-0.4-0.7-0.5-1.3-0.5c-0.4,0-0.8,0.1-1.1,0.3c-0.3,0.2-0.6,0.5-0.9,0.9
		v6.8H159.3z"/>
	<path d="M176.2,219.3c0,0.2,0,0.3-0.1,0.4c-0.1,0.1-0.1,0.3-0.3,0.4s-0.2,0.2-0.4,0.2c-0.1,0.1-0.3,0.1-0.4,0.1
		c-0.2,0-0.3,0-0.4-0.1c-0.1-0.1-0.3-0.1-0.4-0.2s-0.2-0.2-0.2-0.4c-0.1-0.1-0.1-0.3-0.1-0.4c0-0.2,0-0.3,0.1-0.4
		c0.1-0.1,0.1-0.3,0.2-0.4s0.2-0.2,0.4-0.2c0.1-0.1,0.3-0.1,0.4-0.1c0.2,0,0.3,0,0.4,0.1c0.1,0.1,0.3,0.1,0.4,0.2s0.2,0.2,0.3,0.4
		C176.2,219,176.2,219.2,176.2,219.3z M175.9,222.2v9.1h-1.6v-9.1H175.9z"/>
	<path d="M183.9,223.7c-0.1,0.1-0.2,0.2-0.3,0.2c-0.1,0-0.2,0-0.3-0.1c-0.1-0.1-0.3-0.1-0.4-0.2s-0.4-0.2-0.6-0.2
		c-0.2-0.1-0.5-0.1-0.8-0.1c-0.3,0-0.5,0-0.7,0.1c-0.2,0.1-0.4,0.2-0.6,0.3c-0.2,0.1-0.3,0.3-0.4,0.4c-0.1,0.2-0.1,0.3-0.1,0.5
		c0,0.2,0.1,0.4,0.2,0.6c0.1,0.2,0.3,0.3,0.5,0.4c0.2,0.1,0.5,0.2,0.8,0.3c0.3,0.1,0.6,0.2,0.9,0.3s0.6,0.2,0.9,0.3
		c0.3,0.1,0.5,0.3,0.8,0.4c0.2,0.2,0.4,0.4,0.5,0.7c0.1,0.3,0.2,0.6,0.2,0.9c0,0.4-0.1,0.8-0.2,1.2s-0.4,0.7-0.7,0.9
		c-0.3,0.3-0.7,0.5-1.1,0.6c-0.4,0.1-0.9,0.2-1.5,0.2c-0.6,0-1.2-0.1-1.7-0.3s-1-0.5-1.3-0.8l0.4-0.6c0-0.1,0.1-0.1,0.2-0.2
		s0.2-0.1,0.3-0.1c0.1,0,0.2,0,0.3,0.1s0.3,0.2,0.4,0.3s0.4,0.2,0.6,0.3s0.5,0.1,0.9,0.1c0.3,0,0.6,0,0.8-0.1s0.4-0.2,0.6-0.3
		c0.2-0.1,0.3-0.3,0.3-0.5c0.1-0.2,0.1-0.4,0.1-0.6c0-0.3-0.1-0.5-0.2-0.6c-0.1-0.2-0.3-0.3-0.5-0.4c-0.2-0.1-0.5-0.2-0.8-0.3
		c-0.3-0.1-0.6-0.2-0.9-0.3c-0.3-0.1-0.6-0.2-0.9-0.3c-0.3-0.1-0.5-0.3-0.8-0.5c-0.2-0.2-0.4-0.4-0.5-0.7c-0.1-0.3-0.2-0.6-0.2-1
		c0-0.3,0.1-0.7,0.2-1c0.1-0.3,0.4-0.6,0.6-0.8c0.3-0.2,0.6-0.4,1-0.6c0.4-0.1,0.9-0.2,1.4-0.2c0.6,0,1.1,0.1,1.6,0.3
		c0.5,0.2,0.9,0.4,1.2,0.8L183.9,223.7z"/>
</g>
<rect x="195.2" y="217.3" class="st1" width="25" height="15"/>
<g>
	<path d="M258.5,225.9v5.4h-1.7v-12.9h3.6c0.8,0,1.5,0.1,2.1,0.2c0.6,0.2,1.1,0.4,1.5,0.7c0.4,0.3,0.7,0.7,0.9,1.1
		c0.2,0.4,0.3,0.9,0.3,1.5c0,0.5-0.1,0.9-0.2,1.3s-0.4,0.8-0.6,1.1s-0.6,0.6-1,0.8c-0.4,0.2-0.8,0.4-1.3,0.5
		c0.2,0.1,0.4,0.3,0.6,0.5l3.8,5.1h-1.5c-0.3,0-0.6-0.1-0.7-0.4l-3.3-4.6c-0.1-0.1-0.2-0.2-0.3-0.3c-0.1-0.1-0.3-0.1-0.5-0.1H258.5z
		 M258.5,224.6h1.8c0.5,0,1-0.1,1.3-0.2c0.4-0.1,0.7-0.3,1-0.5c0.3-0.2,0.5-0.5,0.6-0.8c0.1-0.3,0.2-0.7,0.2-1
		c0-0.8-0.3-1.3-0.8-1.7c-0.5-0.4-1.3-0.6-2.3-0.6h-1.9V224.6z"/>
	<path d="M271.5,222c0.5,0,1.1,0.1,1.5,0.3s0.9,0.4,1.2,0.8c0.3,0.3,0.6,0.8,0.8,1.3c0.2,0.5,0.3,1.1,0.3,1.7c0,0.3,0,0.4-0.1,0.5
		c-0.1,0.1-0.2,0.1-0.3,0.1h-6.1c0,0.6,0.1,1.1,0.2,1.5c0.1,0.4,0.3,0.8,0.6,1.1s0.6,0.5,0.9,0.6c0.3,0.1,0.7,0.2,1.2,0.2
		c0.4,0,0.7,0,1-0.1c0.3-0.1,0.5-0.2,0.8-0.3c0.2-0.1,0.4-0.2,0.5-0.3c0.1-0.1,0.3-0.1,0.4-0.1c0.1,0,0.2,0.1,0.3,0.2l0.4,0.6
		c-0.2,0.2-0.4,0.4-0.7,0.6c-0.3,0.2-0.6,0.3-0.9,0.4c-0.3,0.1-0.6,0.2-1,0.3c-0.3,0.1-0.7,0.1-1,0.1c-0.6,0-1.2-0.1-1.7-0.3
		c-0.5-0.2-1-0.5-1.4-0.9s-0.7-0.9-0.9-1.5c-0.2-0.6-0.3-1.3-0.3-2.1c0-0.6,0.1-1.2,0.3-1.8c0.2-0.6,0.5-1,0.8-1.4
		c0.4-0.4,0.8-0.7,1.3-1C270.3,222.2,270.9,222,271.5,222z M271.6,223.2c-0.8,0-1.4,0.2-1.8,0.7c-0.4,0.4-0.7,1.1-0.8,1.9h5
		c0-0.4-0.1-0.7-0.2-1c-0.1-0.3-0.3-0.6-0.4-0.8c-0.2-0.2-0.4-0.4-0.7-0.5C272.3,223.3,271.9,223.2,271.6,223.2z M274.2,218.3
		l-2.1,2.3c-0.1,0.1-0.2,0.2-0.2,0.2s-0.2,0.1-0.3,0.1h-1l1.3-2.2c0.1-0.1,0.2-0.2,0.3-0.3s0.2-0.1,0.4-0.1H274.2z"/>
	<path d="M283.6,223.8c0,0.1-0.1,0.1-0.1,0.2c0,0-0.1,0.1-0.2,0.1c-0.1,0-0.2,0-0.3-0.1c-0.1-0.1-0.2-0.2-0.4-0.2
		c-0.2-0.1-0.4-0.2-0.6-0.2s-0.5-0.1-0.9-0.1c-0.4,0-0.8,0.1-1.2,0.2c-0.3,0.2-0.6,0.4-0.9,0.7c-0.2,0.3-0.4,0.7-0.5,1.1
		c-0.1,0.4-0.2,0.9-0.2,1.4c0,0.6,0.1,1,0.2,1.5c0.1,0.4,0.3,0.8,0.5,1.1c0.2,0.3,0.5,0.5,0.8,0.7c0.3,0.2,0.7,0.2,1.1,0.2
		c0.4,0,0.7,0,1-0.1c0.3-0.1,0.5-0.2,0.6-0.3s0.3-0.2,0.4-0.3c0.1-0.1,0.2-0.1,0.3-0.1c0.1,0,0.2,0.1,0.3,0.2l0.5,0.6
		c-0.4,0.5-0.9,0.8-1.5,1.1c-0.6,0.2-1.2,0.3-1.9,0.3c-0.6,0-1.1-0.1-1.6-0.3c-0.5-0.2-0.9-0.5-1.3-0.9c-0.4-0.4-0.6-0.9-0.9-1.5
		c-0.2-0.6-0.3-1.2-0.3-2c0-0.7,0.1-1.3,0.3-1.9c0.2-0.6,0.5-1.1,0.8-1.5c0.4-0.4,0.8-0.7,1.3-1c0.5-0.2,1.1-0.4,1.8-0.4
		c0.6,0,1.2,0.1,1.7,0.3c0.5,0.2,0.9,0.5,1.3,0.9L283.6,223.8z"/>
	<path d="M289.4,222c0.7,0,1.3,0.1,1.8,0.3c0.5,0.2,1,0.5,1.4,0.9s0.7,0.9,0.9,1.5c0.2,0.6,0.3,1.2,0.3,1.9c0,0.7-0.1,1.4-0.3,1.9
		c-0.2,0.6-0.5,1.1-0.9,1.5c-0.4,0.4-0.8,0.7-1.4,0.9c-0.5,0.2-1.1,0.3-1.8,0.3s-1.3-0.1-1.8-0.3c-0.5-0.2-1-0.5-1.4-0.9
		c-0.4-0.4-0.7-0.9-0.9-1.5c-0.2-0.6-0.3-1.2-0.3-1.9c0-0.7,0.1-1.4,0.3-1.9c0.2-0.6,0.5-1.1,0.9-1.5s0.8-0.7,1.4-0.9
		C288.2,222.2,288.8,222,289.4,222z M289.4,230.2c0.9,0,1.6-0.3,2-0.9c0.4-0.6,0.7-1.4,0.7-2.5c0-1.1-0.2-1.9-0.7-2.5
		c-0.4-0.6-1.1-0.9-2-0.9c-0.5,0-0.9,0.1-1.2,0.2c-0.3,0.2-0.6,0.4-0.8,0.7s-0.4,0.7-0.5,1.1c-0.1,0.4-0.2,0.9-0.2,1.5
		s0.1,1,0.2,1.4c0.1,0.4,0.3,0.8,0.5,1.1s0.5,0.5,0.8,0.7C288.6,230.1,289,230.2,289.4,230.2z"/>
	<path d="M297.5,218v13.3h-1.6V218H297.5z"/>
	<path d="M303.1,231.4c-0.7,0-1.3-0.2-1.7-0.6s-0.6-1-0.6-1.7v-5.6h-1.1c-0.1,0-0.2,0-0.2-0.1c-0.1-0.1-0.1-0.1-0.1-0.3v-0.6
		l1.5-0.2l0.4-2.8c0-0.1,0.1-0.2,0.1-0.2c0.1-0.1,0.1-0.1,0.3-0.1h0.8v3.1h2.6v1.2h-2.6v5.5c0,0.4,0.1,0.7,0.3,0.9
		c0.2,0.2,0.4,0.3,0.7,0.3c0.2,0,0.3,0,0.4-0.1c0.1,0,0.2-0.1,0.3-0.1c0.1-0.1,0.2-0.1,0.2-0.1c0.1,0,0.1-0.1,0.2-0.1
		c0.1,0,0.2,0.1,0.2,0.2l0.5,0.8c-0.3,0.3-0.6,0.5-1,0.6C303.9,231.4,303.5,231.4,303.1,231.4z"/>
	<path d="M310.7,222c0.5,0,1.1,0.1,1.5,0.3s0.9,0.4,1.2,0.8c0.3,0.3,0.6,0.8,0.8,1.3c0.2,0.5,0.3,1.1,0.3,1.7c0,0.3,0,0.4-0.1,0.5
		c-0.1,0.1-0.2,0.1-0.3,0.1H308c0,0.6,0.1,1.1,0.2,1.5c0.1,0.4,0.3,0.8,0.6,1.1s0.6,0.5,0.9,0.6c0.3,0.1,0.7,0.2,1.2,0.2
		c0.4,0,0.7,0,1-0.1c0.3-0.1,0.5-0.2,0.8-0.3c0.2-0.1,0.4-0.2,0.5-0.3c0.1-0.1,0.3-0.1,0.4-0.1c0.1,0,0.2,0.1,0.3,0.2l0.4,0.6
		c-0.2,0.2-0.4,0.4-0.7,0.6c-0.3,0.2-0.6,0.3-0.9,0.4c-0.3,0.1-0.6,0.2-1,0.3c-0.3,0.1-0.7,0.1-1,0.1c-0.6,0-1.2-0.1-1.7-0.3
		c-0.5-0.2-1-0.5-1.4-0.9s-0.7-0.9-0.9-1.5c-0.2-0.6-0.3-1.3-0.3-2.1c0-0.6,0.1-1.2,0.3-1.8c0.2-0.6,0.5-1,0.8-1.4
		c0.4-0.4,0.8-0.7,1.3-1C309.4,222.2,310,222,310.7,222z M310.7,223.2c-0.8,0-1.4,0.2-1.8,0.7c-0.4,0.4-0.7,1.1-0.8,1.9h5
		c0-0.4-0.1-0.7-0.2-1c-0.1-0.3-0.3-0.6-0.4-0.8c-0.2-0.2-0.4-0.4-0.7-0.5C311.4,223.3,311.1,223.2,310.7,223.2z"/>
</g>
</svg>
