<?xml version="1.0" encoding="utf-8"?>
<!-- Generator: Adobe Illustrator 22.0.1, SVG Export Plug-In . SVG Version: 6.00 Build 0)  -->
<svg version="1.1" xmlns="http://www.w3.org/2000/svg" xmlns:xlink="http://www.w3.org/1999/xlink" x="0px" y="0px"
	 viewBox="0 0 1059.9 537.7" style="enable-background:new 0 0 1059.9 537.7;" xml:space="preserve">
<style type="text/css">
	.st0{display:none;}
	.st1{fill:url(#SVGID_1_);}
	.st2{fill:#8DC63F;}
	.st3{fill:#A97C50;stroke:#58595B;stroke-linecap:round;stroke-linejoin:round;stroke-miterlimit:10;}
	.st4{opacity:0.25;fill:#FFFFFF;}
	.st5{fill:none;stroke:#58595B;stroke-linecap:round;stroke-linejoin:round;}
	.st6{fill:none;stroke:#58595B;stroke-linecap:round;stroke-linejoin:round;stroke-dasharray:7.9743,7.9743;}
	.st7{fill:none;stroke:#58595B;stroke-linecap:round;stroke-linejoin:round;stroke-dasharray:7.5654,7.5654;}
	.st8{fill:none;stroke:#58595B;stroke-linecap:round;stroke-linejoin:round;stroke-dasharray:8.0261,8.0261;}
	.st9{fill:none;stroke:#58595B;stroke-linecap:round;stroke-linejoin:round;stroke-dasharray:7.95,7.95;}
	.st10{fill:none;stroke:#58595B;stroke-linecap:round;stroke-linejoin:round;stroke-dasharray:8.0578,8.0578;}
	.st11{fill:none;stroke:#58595B;stroke-linecap:round;stroke-linejoin:round;stroke-dasharray:8.1314,8.1314;}
	.st12{fill:none;stroke:#58595B;stroke-linecap:round;stroke-linejoin:round;stroke-dasharray:7.9216,7.9216;}
	.st13{fill:none;stroke:#000000;stroke-linecap:round;stroke-linejoin:round;stroke-miterlimit:10;}
	.st14{fill:#FFF200;stroke:#58595B;stroke-linecap:round;stroke-linejoin:round;stroke-miterlimit:10;}
	.st15{fill:#FBB040;stroke:#58595B;stroke-linecap:round;stroke-linejoin:round;stroke-miterlimit:10;}
	.st16{fill:#39B54A;stroke:#58595B;stroke-linecap:round;stroke-linejoin:round;stroke-miterlimit:10;}
	.st17{display:inline;}
	.st18{fill:none;stroke:#000000;stroke-linecap:round;stroke-linejoin:round;}
	.st19{fill:none;stroke:#000000;stroke-linecap:round;stroke-linejoin:round;stroke-dasharray:8.0664,8.0664;}
	.st20{fill:none;stroke:#000000;stroke-linecap:round;stroke-linejoin:round;stroke-dasharray:7.3759,7.3759;}
	.st21{fill:none;stroke:#000000;stroke-linecap:round;stroke-linejoin:round;stroke-dasharray:7.7857,7.7857;}
	.st22{fill:none;stroke:#000000;stroke-linecap:round;stroke-linejoin:round;stroke-dasharray:8.2237,8.2237;}
	.st23{fill:none;stroke:#000000;stroke-linecap:round;stroke-linejoin:round;stroke-dasharray:7.8878,7.8878;}
	.st24{fill:none;stroke:#000000;stroke-linecap:round;stroke-linejoin:round;stroke-dasharray:8.4628,8.4628;}
	.st25{fill:none;stroke:#000000;stroke-linecap:round;stroke-linejoin:round;stroke-dasharray:8.4552,8.4552;}
	.st26{fill:none;stroke:#000000;stroke-linecap:round;stroke-linejoin:round;stroke-dasharray:7.5722,7.5722;}
	.st27{fill:none;stroke:#000000;stroke-linecap:round;stroke-linejoin:round;stroke-dasharray:8.0057,8.0057;}
	.st28{fill:none;stroke:#000000;stroke-linecap:round;stroke-linejoin:round;stroke-dasharray:7.541,7.541;}
	.st29{fill:none;stroke:#000000;stroke-linecap:round;stroke-linejoin:round;stroke-dasharray:8.4105,8.4105;}
	.st30{fill:none;stroke:#009444;stroke-width:1.2;stroke-miterlimit:10;}
	.st31{fill:none;stroke:#58595B;stroke-linecap:round;stroke-linejoin:round;stroke-miterlimit:10;stroke-dasharray:8;}
	.st32{fill:none;stroke:#58595B;stroke-linecap:round;stroke-linejoin:round;stroke-miterlimit:10;}
</style>
<g id="Layer_1" class="st0">
</g>
<g id="Earth">
	<linearGradient id="SVGID_1_" gradientUnits="userSpaceOnUse" x1="529.0896" y1="208.4622" x2="529.0896" y2="-1.1472">
		<stop  offset="0" style="stop-color:#FFFFFF"/>
		<stop  offset="1" style="stop-color:#00AEEF;stop-opacity:0.6"/>
	</linearGradient>
	<path class="st1" d="M525.8,178.9c199.3-0.1,378.8,12.2,534,29.5V-1.1H-1.6v209.6C151.9,191.3,329.1,179.1,525.8,178.9z"/>
	<path class="st2" d="M-1.6,539.1h1061.3V204.5c-155.1-14.9-334.6-25.5-534-25.4c-196.6,0.1-373.8,10.6-527.3,25.4L-1.6,539.1z"/>
</g>
<g id="Cultivable_Zone">
	<polygon class="st3" points="149.8,282.5 368.4,200.5 809.8,257.1 732.4,328.5 907.8,355.8 839.1,458.5 453.1,384.5 575.8,304.5 
		400.4,276.5 324.4,313.8 	"/>
</g>
<g id="Layer_3">
	<g>
		<polygon class="st4" points="574.6,203.5 451.1,266.5 845.6,324.5 915.1,244 		"/>
		<g>
			<polyline class="st5" points="454.7,264.6 451.1,266.5 455.1,267 			"/>
			<line class="st6" x1="462.9" y1="268.2" x2="837.7" y2="323.3"/>
			<polyline class="st5" points="841.6,323.9 845.6,324.5 848.2,321.4 			"/>
			<line class="st7" x1="853.2" y1="315.7" x2="910" y2="249.9"/>
			<polyline class="st5" points="912.5,247 915.1,244 911.1,243.5 			"/>
			<polyline class="st8" points="903.2,242.5 574.6,203.5 458.2,262.8 			"/>
		</g>
	</g>
	<g>
		<polygon class="st4" points="143.1,186 365.1,122.5 515.1,137.5 321.1,210 		"/>
		<g>
			<polyline class="st5" points="147.1,186.5 143.1,186 146.9,184.9 			"/>
			<polyline class="st9" points="154.6,182.7 365.1,122.5 507.2,136.7 			"/>
			<polyline class="st5" points="511.1,137.1 515.1,137.5 511.4,138.9 			"/>
			<polyline class="st10" points="503.8,141.7 321.1,210 151.1,187 			"/>
		</g>
	</g>
	<g>
		<polygon class="st4" points="814.6,166 735.1,222.5 396.1,181.8 515.1,137.5 		"/>
		<g>
			<polyline class="st5" points="810.6,165.6 814.6,166 811.3,168.3 			"/>
			<polyline class="st11" points="804.7,173 735.1,222.5 404.1,182.8 			"/>
			<polyline class="st5" points="400.1,182.3 396.1,181.8 399.9,180.4 			"/>
			<polyline class="st12" points="407.3,177.6 515.1,137.5 806.7,165.2 			"/>
		</g>
	</g>
	<path class="st13" d="M549.6,204"/>
	<path class="st13" d="M324.4,313.8"/>
	<polygon class="st14" points="137.1,86 361.8,42.5 437.8,47.1 223.1,94.1 	"/>
	<polygon class="st15" points="316.4,102.1 223.1,94.1 437.8,47.1 517.1,52.5 	"/>
	<polygon class="st16" points="740.1,111.1 393.4,83.1 517.1,52.5 819.8,72.5 	"/>
	<polygon class="st16" points="855.1,182 892.4,150.8 520.1,117.5 450.8,141.1 	"/>
	<polygon class="st14" points="922.9,125.2 576.4,97.7 520.1,117.5 892.4,150.8 	"/>
</g>
<g id="Layer_6" class="st0">
	<g class="st17">
		<g>
			<line class="st18" x1="143.1" y1="236" x2="143.4" y2="240"/>
			<line class="st19" x1="143.9" y1="248" x2="149.2" y2="324.4"/>
			<line class="st18" x1="149.5" y1="328.5" x2="149.8" y2="332.5"/>
		</g>
	</g>
	<g class="st17">
		<g>
			<line class="st18" x1="321.1" y1="260" x2="321.2" y2="264"/>
			<line class="st20" x1="321.5" y1="271.3" x2="324.2" y2="356.1"/>
			<line class="st18" x1="324.3" y1="359.8" x2="324.4" y2="363.8"/>
		</g>
	</g>
	<g class="st17">
		<g>
			<line class="st18" x1="365.1" y1="172.5" x2="365.3" y2="176.5"/>
			<line class="st21" x1="365.6" y1="184.2" x2="368.1" y2="242.6"/>
			<line class="st18" x1="368.3" y1="246.5" x2="368.4" y2="250.5"/>
		</g>
	</g>
	<g class="st17">
		<g>
			<line class="st18" x1="515.1" y1="187.5" x2="515.2" y2="191.5"/>
			<line class="st22" x1="515.3" y1="199.7" x2="516.5" y2="261.4"/>
			<line class="st18" x1="516.5" y1="265.5" x2="516.6" y2="269.5"/>
		</g>
	</g>
	<g class="st17">
		<g>
			<line class="st18" x1="396.1" y1="231.8" x2="396.3" y2="235.8"/>
			<line class="st23" x1="396.6" y1="243.7" x2="400.1" y2="318.5"/>
			<line class="st18" x1="400.3" y1="322.5" x2="400.4" y2="326.5"/>
		</g>
	</g>
	<g class="st17">
		<g>
			<line class="st18" x1="451.1" y1="316.5" x2="451.2" y2="320.5"/>
			<line class="st24" x1="451.3" y1="328.9" x2="453" y2="426.2"/>
			<line class="st18" x1="453" y1="430.5" x2="453.1" y2="434.5"/>
		</g>
	</g>
	<g class="st17">
		<g>
			<line class="st18" x1="574.6" y1="253.5" x2="574.6" y2="257.5"/>
			<line class="st25" x1="574.7" y1="265.9" x2="575.7" y2="346.2"/>
			<line class="st18" x1="575.7" y1="350.5" x2="575.8" y2="354.5"/>
		</g>
	</g>
	<g class="st17">
		<g>
			<line class="st18" x1="814.6" y1="216" x2="814.4" y2="220"/>
			<line class="st26" x1="814" y1="227.5" x2="810.2" y2="299.4"/>
			<line class="st18" x1="810" y1="303.1" x2="809.8" y2="307.1"/>
		</g>
	</g>
	<g class="st17">
		<g>
			<line class="st18" x1="915.1" y1="294" x2="914.8" y2="298"/>
			<line class="st27" x1="914.3" y1="305.9" x2="908.3" y2="397.8"/>
			<line class="st18" x1="908" y1="401.8" x2="907.8" y2="405.8"/>
		</g>
	</g>
	<g class="st17">
		<g>
			<line class="st18" x1="735.1" y1="272.5" x2="735" y2="276.5"/>
			<line class="st28" x1="734.8" y1="284" x2="732.6" y2="370.7"/>
			<line class="st18" x1="732.5" y1="374.5" x2="732.4" y2="378.5"/>
		</g>
	</g>
	<g class="st17">
		<g>
			<line class="st18" x1="845.6" y1="374.5" x2="845.4" y2="378.5"/>
			<line class="st29" x1="845" y1="386.9" x2="839.5" y2="500.3"/>
			<line class="st18" x1="839.3" y1="504.5" x2="839.1" y2="508.5"/>
		</g>
	</g>
</g>
<g id="Layer_4">
	<polygon class="st13" points="136.1,86 362.6,42.5 436.6,47.5 223.1,94 	"/>
	<polygon class="st13" points="514.1,53 436.6,47.5 223.1,94 317.1,102 	"/>
	<polygon class="st13" points="818.6,72.5 739.6,111 392.1,83.5 514.1,53 	"/>
	<polygon class="st13" points="518.4,117.8 892.1,151 923.1,125 574.4,98.5 	"/>
	<polygon class="st13" points="449.4,141.1 518.4,117.8 892.1,151 853.8,182.1 	"/>
</g>
<g id="Texte">
	<g>
		<g>
			<path d="M601.6,361.4v1.7c0,0.5-0.1,1-0.4,1.4l-12.6,17.8h12.8v3.7h-18.7v-1.8c0-0.2,0-0.4,0.1-0.7c0.1-0.2,0.2-0.4,0.3-0.6
				l12.6-17.9h-12.3v-3.6H601.6z"/>
			<path d="M611.8,368.3c1.3,0,2.5,0.2,3.5,0.6s2,1,2.7,1.8s1.3,1.7,1.7,2.8c0.4,1.1,0.6,2.4,0.6,3.7c0,1.4-0.2,2.6-0.6,3.7
				c-0.4,1.1-1,2.1-1.7,2.8s-1.7,1.4-2.7,1.8s-2.2,0.6-3.5,0.6c-1.3,0-2.5-0.2-3.6-0.6c-1.1-0.4-2-1-2.7-1.8
				c-0.8-0.8-1.3-1.7-1.8-2.8c-0.4-1.1-0.6-2.4-0.6-3.7c0-1.4,0.2-2.6,0.6-3.7c0.4-1.1,1-2.1,1.8-2.8c0.8-0.8,1.7-1.4,2.7-1.8
				C609.3,368.5,610.5,368.3,611.8,368.3z M611.8,383c1.5,0,2.5-0.5,3.2-1.5c0.7-1,1-2.4,1-4.3c0-1.9-0.3-3.3-1-4.3
				c-0.7-1-1.8-1.5-3.2-1.5c-1.5,0-2.6,0.5-3.3,1.5c-0.7,1-1.1,2.4-1.1,4.3s0.4,3.3,1.1,4.3C609.2,382.5,610.3,383,611.8,383z"/>
			<path d="M623.6,386v-17.4h2.6c0.5,0,0.9,0.3,1.1,0.8l0.3,1.4c0.4-0.4,0.7-0.7,1.1-1s0.8-0.5,1.2-0.8c0.4-0.2,0.9-0.4,1.4-0.5
				s1-0.2,1.6-0.2c1,0,1.8,0.2,2.5,0.5c0.7,0.3,1.4,0.8,1.8,1.4c0.5,0.6,0.9,1.3,1.1,2.1s0.4,1.7,0.4,2.7V386h-4.2v-11.1
				c0-1.1-0.2-1.9-0.7-2.5c-0.5-0.6-1.2-0.9-2.2-0.9c-0.7,0-1.4,0.2-2,0.5c-0.6,0.3-1.2,0.8-1.8,1.3V386H623.6z"/>
			<path d="M650.2,368.3c1.1,0,2.1,0.2,3,0.5c0.9,0.4,1.7,0.9,2.4,1.5c0.7,0.7,1.2,1.5,1.6,2.5c0.4,1,0.6,2.1,0.6,3.4
				c0,0.3,0,0.6,0,0.8s-0.1,0.4-0.2,0.5c-0.1,0.1-0.2,0.2-0.3,0.3c-0.1,0.1-0.3,0.1-0.5,0.1H646c0.1,1.8,0.6,3.1,1.4,3.9
				c0.8,0.8,1.9,1.3,3.3,1.3c0.7,0,1.3-0.1,1.8-0.2c0.5-0.2,0.9-0.3,1.3-0.5s0.7-0.4,1-0.5c0.3-0.2,0.5-0.2,0.8-0.2
				c0.2,0,0.3,0,0.4,0.1s0.2,0.2,0.3,0.3l1.2,1.5c-0.5,0.5-1,1-1.6,1.4c-0.6,0.4-1.2,0.7-1.8,0.9c-0.6,0.2-1.3,0.4-1.9,0.5
				c-0.7,0.1-1.3,0.1-1.9,0.1c-1.2,0-2.3-0.2-3.4-0.6s-1.9-1-2.7-1.8c-0.8-0.8-1.4-1.8-1.8-2.9c-0.4-1.2-0.7-2.5-0.7-4
				c0-1.2,0.2-2.3,0.6-3.4c0.4-1,0.9-2,1.7-2.7c0.7-0.8,1.6-1.4,2.6-1.8S648.9,368.3,650.2,368.3z M650.3,371.3
				c-1.2,0-2.2,0.3-2.9,1c-0.7,0.7-1.1,1.7-1.3,2.9h7.9c0-0.5-0.1-1.1-0.2-1.5c-0.1-0.5-0.4-0.9-0.7-1.3c-0.3-0.4-0.7-0.6-1.2-0.9
				C651.4,371.4,650.9,371.3,650.3,371.3z"/>
			<path d="M671.5,372c-0.1,0.2-0.2,0.3-0.4,0.4c-0.1,0.1-0.3,0.1-0.5,0.1c-0.2,0-0.4-0.1-0.7-0.2s-0.5-0.2-0.8-0.4
				c-0.3-0.1-0.7-0.3-1-0.4c-0.4-0.1-0.9-0.2-1.4-0.2c-0.8,0-1.5,0.2-2,0.5c-0.5,0.4-0.7,0.8-0.7,1.4c0,0.4,0.1,0.7,0.4,0.9
				c0.2,0.3,0.6,0.5,1,0.7c0.4,0.2,0.9,0.4,1.4,0.5c0.5,0.2,1,0.3,1.6,0.5c0.5,0.2,1.1,0.4,1.6,0.6s1,0.5,1.4,0.9
				c0.4,0.4,0.7,0.8,1,1.3c0.2,0.5,0.4,1.1,0.4,1.8c0,0.8-0.2,1.6-0.5,2.3c-0.3,0.7-0.8,1.3-1.3,1.8c-0.6,0.5-1.3,0.9-2.2,1.2
				s-1.9,0.4-3,0.4c-0.6,0-1.2-0.1-1.8-0.2s-1.1-0.3-1.6-0.5c-0.5-0.2-1-0.4-1.5-0.7c-0.4-0.3-0.8-0.5-1.2-0.9l1-1.6
				c0.1-0.2,0.3-0.3,0.4-0.4c0.2-0.1,0.4-0.2,0.6-0.2s0.5,0.1,0.7,0.2s0.5,0.3,0.8,0.5s0.7,0.3,1.1,0.5c0.4,0.1,0.9,0.2,1.6,0.2
				c0.5,0,0.9-0.1,1.3-0.2c0.4-0.1,0.7-0.3,0.9-0.5c0.2-0.2,0.4-0.4,0.5-0.7s0.2-0.5,0.2-0.8c0-0.4-0.1-0.7-0.4-1
				c-0.2-0.3-0.6-0.5-1-0.7s-0.9-0.4-1.4-0.5s-1-0.3-1.6-0.5c-0.5-0.2-1.1-0.4-1.6-0.6c-0.5-0.2-1-0.6-1.4-0.9s-0.7-0.8-1-1.4
				c-0.2-0.5-0.4-1.2-0.4-2c0-0.7,0.1-1.4,0.4-2c0.3-0.6,0.7-1.2,1.2-1.7c0.5-0.5,1.2-0.9,2.1-1.2c0.8-0.3,1.8-0.4,2.8-0.4
				c1.2,0,2.3,0.2,3.3,0.6c1,0.4,1.8,0.9,2.5,1.6L671.5,372z"/>
			<path d="M694.8,372.2c-0.1,0.2-0.2,0.3-0.4,0.4s-0.3,0.1-0.5,0.1c-0.2,0-0.4-0.1-0.6-0.2c-0.2-0.1-0.4-0.3-0.7-0.4
				c-0.3-0.2-0.6-0.3-1-0.4c-0.4-0.1-0.9-0.2-1.5-0.2c-0.7,0-1.4,0.1-1.9,0.4c-0.6,0.3-1,0.6-1.4,1.1c-0.4,0.5-0.6,1.1-0.8,1.8
				c-0.2,0.7-0.3,1.5-0.3,2.4c0,0.9,0.1,1.8,0.3,2.5c0.2,0.7,0.5,1.3,0.9,1.8s0.8,0.9,1.4,1.1c0.5,0.3,1.1,0.4,1.8,0.4
				c0.7,0,1.2-0.1,1.6-0.2s0.8-0.3,1-0.5c0.3-0.2,0.5-0.4,0.7-0.5c0.2-0.2,0.4-0.2,0.7-0.2c0.3,0,0.6,0.1,0.8,0.4l1.2,1.5
				c-0.5,0.5-1,1-1.5,1.4s-1.1,0.7-1.7,0.9s-1.2,0.4-1.8,0.5s-1.2,0.1-1.9,0.1c-1.1,0-2.1-0.2-3-0.6s-1.8-1-2.5-1.8
				c-0.7-0.8-1.3-1.7-1.7-2.8c-0.4-1.1-0.6-2.4-0.6-3.8c0-1.3,0.2-2.5,0.6-3.6c0.4-1.1,0.9-2,1.6-2.8s1.6-1.4,2.7-1.9
				c1.1-0.5,2.3-0.7,3.6-0.7c1.3,0,2.4,0.2,3.4,0.6c1,0.4,1.9,1,2.6,1.8L694.8,372.2z"/>
			<path d="M702.6,368.6v11.1c0,1.1,0.2,1.9,0.7,2.5c0.5,0.6,1.2,0.9,2.2,0.9c0.7,0,1.4-0.2,2-0.5c0.6-0.3,1.2-0.8,1.8-1.3v-12.6
				h4.2V386h-2.6c-0.5,0-0.9-0.3-1.1-0.8l-0.3-1.4c-0.4,0.4-0.7,0.7-1.1,1c-0.4,0.3-0.8,0.6-1.2,0.8c-0.4,0.2-0.9,0.4-1.4,0.5
				c-0.5,0.1-1,0.2-1.6,0.2c-1,0-1.8-0.2-2.5-0.5c-0.7-0.3-1.3-0.8-1.8-1.4c-0.5-0.6-0.9-1.3-1.1-2.1c-0.3-0.8-0.4-1.7-0.4-2.7
				v-11.1H702.6z"/>
			<path d="M722.6,360.7V386h-4.2v-25.3H722.6z"/>
			<path d="M733.1,386.3c-1.5,0-2.7-0.4-3.5-1.3c-0.8-0.9-1.2-2-1.2-3.5v-9.7h-1.8c-0.2,0-0.4-0.1-0.6-0.2s-0.2-0.4-0.2-0.7v-1.7
				l2.8-0.5l0.9-4.8c0-0.2,0.2-0.4,0.3-0.5c0.2-0.1,0.4-0.2,0.6-0.2h2.2v5.5h4.6v3h-4.6v9.5c0,0.5,0.1,1,0.4,1.3
				c0.3,0.3,0.6,0.5,1.1,0.5c0.3,0,0.5,0,0.7-0.1s0.3-0.1,0.5-0.2c0.1-0.1,0.2-0.1,0.3-0.2c0.1-0.1,0.2-0.1,0.3-0.1
				c0.1,0,0.2,0,0.3,0.1c0.1,0.1,0.2,0.2,0.3,0.3l1.3,2c-0.6,0.5-1.3,0.9-2.1,1.2C734.7,386.1,733.9,386.3,733.1,386.3z"/>
			<path d="M745.6,363.5c0,0.4-0.1,0.7-0.2,1s-0.3,0.6-0.6,0.8c-0.2,0.2-0.5,0.4-0.9,0.6c-0.3,0.1-0.7,0.2-1.1,0.2
				c-0.4,0-0.7-0.1-1-0.2s-0.6-0.3-0.8-0.6s-0.4-0.5-0.6-0.8s-0.2-0.7-0.2-1c0-0.4,0.1-0.7,0.2-1.1c0.1-0.3,0.3-0.6,0.6-0.8
				c0.2-0.2,0.5-0.4,0.8-0.6s0.7-0.2,1-0.2c0.4,0,0.7,0.1,1.1,0.2c0.3,0.1,0.6,0.3,0.9,0.6c0.2,0.2,0.4,0.5,0.6,0.8
				C745.5,362.7,745.6,363.1,745.6,363.5z M745,368.6V386h-4.2v-17.4H745z"/>
			<path d="M758.4,386h-3.8l-6.9-17.4h3.5c0.3,0,0.6,0.1,0.8,0.2c0.2,0.1,0.4,0.3,0.4,0.6l3.4,9.3c0.2,0.5,0.4,1.1,0.5,1.6
				c0.1,0.5,0.2,1,0.3,1.6c0.1-0.5,0.2-1,0.3-1.6c0.1-0.5,0.3-1.1,0.5-1.6l3.5-9.3c0.1-0.2,0.2-0.4,0.4-0.6c0.2-0.1,0.4-0.2,0.7-0.2
				h3.3L758.4,386z"/>
			<path d="M781.5,386h-1.9c-0.4,0-0.7-0.1-0.9-0.2s-0.4-0.4-0.5-0.7l-0.4-1.2c-0.4,0.4-0.9,0.7-1.3,1c-0.4,0.3-0.9,0.6-1.3,0.8
				s-0.9,0.4-1.4,0.5c-0.5,0.1-1.1,0.2-1.7,0.2c-0.7,0-1.4-0.1-2-0.3c-0.6-0.2-1.2-0.5-1.6-0.9c-0.4-0.4-0.8-0.9-1-1.5
				c-0.2-0.6-0.4-1.3-0.4-2.1c0-0.7,0.2-1.3,0.5-2s0.9-1.2,1.7-1.7s1.9-0.9,3.2-1.3c1.3-0.3,3-0.5,5-0.5v-1c0-1.2-0.2-2-0.7-2.6
				c-0.5-0.6-1.2-0.8-2.2-0.8c-0.7,0-1.2,0.1-1.7,0.2c-0.5,0.2-0.8,0.3-1.2,0.5c-0.3,0.2-0.6,0.4-0.9,0.5c-0.3,0.2-0.6,0.2-0.9,0.2
				c-0.3,0-0.5-0.1-0.7-0.2s-0.4-0.3-0.5-0.5l-0.8-1.3c2-1.8,4.4-2.8,7.3-2.8c1,0,1.9,0.2,2.7,0.5c0.8,0.3,1.5,0.8,2,1.4
				c0.6,0.6,1,1.3,1.3,2.1c0.3,0.8,0.4,1.7,0.4,2.7V386z M773.3,383.4c0.4,0,0.8,0,1.2-0.1c0.4-0.1,0.7-0.2,1-0.4s0.6-0.3,0.9-0.6
				c0.3-0.2,0.6-0.5,0.9-0.8v-2.9c-1.2,0-2.2,0.1-3.1,0.2c-0.8,0.2-1.5,0.4-2,0.6c-0.5,0.2-0.9,0.5-1.1,0.8c-0.2,0.3-0.3,0.7-0.3,1
				c0,0.7,0.2,1.3,0.7,1.6C772.1,383.2,772.6,383.4,773.3,383.4z"/>
			<path d="M785.7,386v-25.3h4.2v10c0.7-0.7,1.5-1.3,2.3-1.8s1.9-0.7,3.1-0.7c1,0,1.8,0.2,2.6,0.6c0.8,0.4,1.5,1,2,1.7
				s1,1.7,1.3,2.8c0.3,1.1,0.5,2.4,0.5,3.8c0,1.3-0.2,2.5-0.5,3.6c-0.4,1.1-0.9,2.1-1.5,2.9c-0.7,0.8-1.4,1.5-2.4,1.9
				s-2,0.7-3.1,0.7c-0.5,0-1-0.1-1.5-0.2c-0.4-0.1-0.8-0.3-1.2-0.5c-0.4-0.2-0.7-0.4-1-0.7c-0.3-0.3-0.6-0.6-0.9-0.9l-0.2,1.2
				c-0.1,0.3-0.2,0.5-0.3,0.6c-0.2,0.1-0.4,0.2-0.7,0.2H785.7z M793.8,371.5c-0.9,0-1.6,0.2-2.2,0.6c-0.6,0.4-1.2,0.9-1.7,1.6v7.8
				c0.5,0.6,1,1,1.6,1.2c0.6,0.2,1.2,0.3,1.8,0.3c0.6,0,1.2-0.1,1.7-0.4s0.9-0.6,1.3-1.1s0.6-1.1,0.8-1.8s0.3-1.6,0.3-2.6
				c0-1-0.1-1.9-0.2-2.6c-0.2-0.7-0.4-1.3-0.7-1.7c-0.3-0.4-0.7-0.8-1.1-1C794.9,371.6,794.4,371.5,793.8,371.5z"/>
			<path d="M809.5,360.7V386h-4.2v-25.3H809.5z"/>
			<path d="M821.4,368.3c1.1,0,2.1,0.2,3,0.5c0.9,0.4,1.7,0.9,2.4,1.5c0.7,0.7,1.2,1.5,1.6,2.5c0.4,1,0.6,2.1,0.6,3.4
				c0,0.3,0,0.6,0,0.8s-0.1,0.4-0.2,0.5c-0.1,0.1-0.2,0.2-0.3,0.3s-0.3,0.1-0.5,0.1h-10.8c0.1,1.8,0.6,3.1,1.4,3.9
				c0.8,0.8,1.9,1.3,3.3,1.3c0.7,0,1.3-0.1,1.8-0.2c0.5-0.2,0.9-0.3,1.3-0.5s0.7-0.4,1-0.5c0.3-0.2,0.5-0.2,0.8-0.2
				c0.2,0,0.3,0,0.4,0.1s0.2,0.2,0.3,0.3l1.2,1.5c-0.5,0.5-1,1-1.6,1.4s-1.2,0.7-1.8,0.9s-1.3,0.4-1.9,0.5c-0.7,0.1-1.3,0.1-1.9,0.1
				c-1.2,0-2.3-0.2-3.4-0.6c-1-0.4-2-1-2.7-1.8c-0.8-0.8-1.4-1.8-1.8-2.9c-0.4-1.2-0.7-2.5-0.7-4c0-1.2,0.2-2.3,0.6-3.4
				c0.4-1,0.9-2,1.7-2.7s1.6-1.4,2.6-1.8S820.1,368.3,821.4,368.3z M821.5,371.3c-1.2,0-2.2,0.3-2.9,1s-1.1,1.7-1.3,2.9h7.9
				c0-0.5-0.1-1.1-0.2-1.5c-0.1-0.5-0.4-0.9-0.7-1.3c-0.3-0.4-0.7-0.6-1.2-0.9C822.7,371.4,822.1,371.3,821.5,371.3z"/>
			<path d="M842.8,372c-0.1,0.2-0.2,0.3-0.4,0.4c-0.1,0.1-0.3,0.1-0.5,0.1c-0.2,0-0.4-0.1-0.7-0.2s-0.5-0.2-0.8-0.4
				c-0.3-0.1-0.7-0.3-1-0.4c-0.4-0.1-0.9-0.2-1.4-0.2c-0.8,0-1.5,0.2-2,0.5s-0.7,0.8-0.7,1.4c0,0.4,0.1,0.7,0.4,0.9s0.6,0.5,1,0.7
				s0.9,0.4,1.4,0.5c0.5,0.2,1,0.3,1.6,0.5c0.5,0.2,1.1,0.4,1.6,0.6s1,0.5,1.4,0.9c0.4,0.4,0.7,0.8,1,1.3c0.2,0.5,0.4,1.1,0.4,1.8
				c0,0.8-0.2,1.6-0.5,2.3c-0.3,0.7-0.8,1.3-1.3,1.8c-0.6,0.5-1.3,0.9-2.2,1.2c-0.9,0.3-1.9,0.4-3,0.4c-0.6,0-1.2-0.1-1.8-0.2
				c-0.6-0.1-1.1-0.3-1.6-0.5s-1-0.4-1.5-0.7c-0.4-0.3-0.8-0.5-1.2-0.9l1-1.6c0.1-0.2,0.3-0.3,0.4-0.4c0.2-0.1,0.4-0.2,0.6-0.2
				c0.3,0,0.5,0.1,0.7,0.2c0.2,0.1,0.5,0.3,0.8,0.5c0.3,0.2,0.7,0.3,1.1,0.5s0.9,0.2,1.6,0.2c0.5,0,0.9-0.1,1.3-0.2
				c0.4-0.1,0.7-0.3,0.9-0.5c0.2-0.2,0.4-0.4,0.5-0.7s0.2-0.5,0.2-0.8c0-0.4-0.1-0.7-0.4-1s-0.6-0.5-1-0.7s-0.9-0.4-1.4-0.5
				s-1-0.3-1.6-0.5c-0.5-0.2-1.1-0.4-1.6-0.6c-0.5-0.2-1-0.6-1.4-0.9s-0.7-0.8-1-1.4c-0.2-0.5-0.4-1.2-0.4-2c0-0.7,0.1-1.4,0.4-2
				c0.3-0.6,0.7-1.2,1.2-1.7c0.5-0.5,1.2-0.9,2.1-1.2c0.8-0.3,1.8-0.4,2.8-0.4c1.2,0,2.3,0.2,3.3,0.6c1,0.4,1.8,0.9,2.5,1.6
				L842.8,372z"/>
		</g>
	</g>
	<line class="st30" x1="640.4" y1="128.7" x2="787.6" y2="141.5"/>
	<g>
		<g>
			<path d="M669.3,146.3h-3.5c-0.4,0-0.7-0.1-1-0.3c-0.3-0.2-0.4-0.4-0.6-0.7l-1.8-5h-10.2l-1.8,5c-0.1,0.3-0.3,0.5-0.5,0.7
				c-0.3,0.2-0.6,0.3-1,0.3h-3.6l9.7-24.6h4.7L669.3,146.3z M653.3,137h7.8l-3-8.2c-0.1-0.4-0.3-0.8-0.5-1.3c-0.2-0.5-0.3-1-0.5-1.6
				c-0.2,0.6-0.3,1.1-0.5,1.6c-0.2,0.5-0.3,0.9-0.5,1.3L653.3,137z"/>
			<path d="M683.8,132.6c-0.1,0.2-0.2,0.3-0.4,0.4s-0.3,0.1-0.5,0.1c-0.2,0-0.4-0.1-0.6-0.2c-0.2-0.1-0.4-0.3-0.7-0.4
				c-0.3-0.2-0.6-0.3-1-0.4c-0.4-0.1-0.9-0.2-1.5-0.2c-0.7,0-1.4,0.1-1.9,0.4c-0.6,0.3-1,0.6-1.4,1.1s-0.6,1.1-0.8,1.8
				c-0.2,0.7-0.3,1.5-0.3,2.4c0,0.9,0.1,1.8,0.3,2.5c0.2,0.7,0.5,1.3,0.9,1.8s0.8,0.9,1.4,1.1c0.5,0.3,1.1,0.4,1.8,0.4
				c0.7,0,1.2-0.1,1.6-0.2s0.8-0.3,1-0.5s0.5-0.4,0.7-0.5s0.4-0.2,0.7-0.2c0.3,0,0.6,0.1,0.8,0.4l1.2,1.5c-0.5,0.5-1,1-1.5,1.4
				c-0.5,0.4-1.1,0.7-1.7,0.9c-0.6,0.2-1.2,0.4-1.8,0.5c-0.6,0.1-1.2,0.1-1.9,0.1c-1.1,0-2.1-0.2-3-0.6s-1.8-1-2.5-1.8
				c-0.7-0.8-1.3-1.7-1.7-2.8c-0.4-1.1-0.6-2.4-0.6-3.8c0-1.3,0.2-2.5,0.6-3.6c0.4-1.1,0.9-2,1.6-2.8s1.6-1.4,2.7-1.9
				s2.3-0.7,3.6-0.7c1.3,0,2.4,0.2,3.4,0.6c1,0.4,1.9,1,2.6,1.8L683.8,132.6z"/>
			<path d="M693.5,146.6c-1.5,0-2.7-0.4-3.5-1.3c-0.8-0.9-1.2-2-1.2-3.5V132H687c-0.2,0-0.4-0.1-0.6-0.2s-0.2-0.4-0.2-0.7v-1.7
				l2.8-0.5l0.9-4.8c0-0.2,0.2-0.4,0.3-0.5c0.2-0.1,0.4-0.2,0.6-0.2h2.2v5.5h4.6v3H693v9.5c0,0.5,0.1,1,0.4,1.3
				c0.3,0.3,0.6,0.5,1.1,0.5c0.3,0,0.5,0,0.7-0.1s0.3-0.1,0.5-0.2c0.1-0.1,0.2-0.1,0.3-0.2c0.1-0.1,0.2-0.1,0.3-0.1
				c0.1,0,0.2,0,0.3,0.1c0.1,0.1,0.2,0.2,0.3,0.3l1.3,2c-0.6,0.5-1.3,0.9-2.1,1.2C695.2,146.5,694.4,146.6,693.5,146.6z"/>
			<path d="M706,123.8c0,0.4-0.1,0.7-0.2,1s-0.3,0.6-0.6,0.8c-0.2,0.2-0.5,0.4-0.9,0.6c-0.3,0.1-0.7,0.2-1.1,0.2
				c-0.4,0-0.7-0.1-1-0.2s-0.6-0.3-0.8-0.6s-0.4-0.5-0.6-0.8s-0.2-0.7-0.2-1c0-0.4,0.1-0.7,0.2-1.1c0.1-0.3,0.3-0.6,0.6-0.8
				c0.2-0.2,0.5-0.4,0.8-0.6s0.7-0.2,1-0.2c0.4,0,0.7,0.1,1.1,0.2c0.3,0.1,0.6,0.3,0.9,0.6c0.2,0.2,0.4,0.5,0.6,0.8
				C706,123.1,706,123.4,706,123.8z M705.4,128.9v17.4h-4.2v-17.4H705.4z"/>
			<path d="M718.9,146.3h-3.8l-6.9-17.4h3.5c0.3,0,0.6,0.1,0.8,0.2c0.2,0.1,0.4,0.3,0.4,0.6l3.4,9.3c0.2,0.5,0.4,1.1,0.5,1.6
				c0.1,0.5,0.2,1,0.3,1.6c0.1-0.5,0.2-1,0.3-1.6c0.1-0.5,0.3-1.1,0.5-1.6l3.5-9.3c0.1-0.2,0.2-0.4,0.4-0.6c0.2-0.1,0.4-0.2,0.7-0.2
				h3.3L718.9,146.3z"/>
			<path d="M733.4,123.8c0,0.4-0.1,0.7-0.2,1s-0.3,0.6-0.6,0.8c-0.2,0.2-0.5,0.4-0.9,0.6c-0.3,0.1-0.7,0.2-1.1,0.2
				c-0.4,0-0.7-0.1-1-0.2s-0.6-0.3-0.8-0.6s-0.4-0.5-0.6-0.8s-0.2-0.7-0.2-1c0-0.4,0.1-0.7,0.2-1.1c0.1-0.3,0.3-0.6,0.6-0.8
				c0.2-0.2,0.5-0.4,0.8-0.6s0.7-0.2,1-0.2c0.4,0,0.7,0.1,1.1,0.2c0.3,0.1,0.6,0.3,0.9,0.6c0.2,0.2,0.4,0.5,0.6,0.8
				C733.3,123.1,733.4,123.4,733.4,123.8z M732.8,128.9v17.4h-4.2v-17.4H732.8z"/>
			<path d="M743.2,146.6c-1.5,0-2.7-0.4-3.5-1.3c-0.8-0.9-1.2-2-1.2-3.5V132h-1.8c-0.2,0-0.4-0.1-0.6-0.2s-0.2-0.4-0.2-0.7v-1.7
				l2.8-0.5l0.9-4.8c0-0.2,0.2-0.4,0.3-0.5c0.2-0.1,0.4-0.2,0.6-0.2h2.2v5.5h4.6v3h-4.6v9.5c0,0.5,0.1,1,0.4,1.3
				c0.3,0.3,0.6,0.5,1.1,0.5c0.3,0,0.5,0,0.7-0.1s0.3-0.1,0.5-0.2c0.1-0.1,0.2-0.1,0.3-0.2c0.1-0.1,0.2-0.1,0.3-0.1
				c0.1,0,0.2,0,0.3,0.1c0.1,0.1,0.2,0.2,0.3,0.3l1.3,2c-0.6,0.5-1.3,0.9-2.1,1.2C744.9,146.5,744.1,146.6,743.2,146.6z"/>
			<path d="M757.9,128.6c1.1,0,2.1,0.2,3,0.5c0.9,0.4,1.7,0.9,2.4,1.5c0.7,0.7,1.2,1.5,1.6,2.5c0.4,1,0.6,2.1,0.6,3.4
				c0,0.3,0,0.6,0,0.8s-0.1,0.4-0.2,0.5c-0.1,0.1-0.2,0.2-0.3,0.3s-0.3,0.1-0.5,0.1h-10.8c0.1,1.8,0.6,3.1,1.4,3.9
				c0.8,0.8,1.9,1.3,3.3,1.3c0.7,0,1.3-0.1,1.8-0.2c0.5-0.2,0.9-0.3,1.3-0.5s0.7-0.4,1-0.5c0.3-0.2,0.5-0.2,0.8-0.2
				c0.2,0,0.3,0,0.4,0.1s0.2,0.2,0.3,0.3l1.2,1.5c-0.5,0.5-1,1-1.6,1.4s-1.2,0.7-1.8,0.9s-1.3,0.4-1.9,0.5c-0.7,0.1-1.3,0.1-1.9,0.1
				c-1.2,0-2.3-0.2-3.4-0.6c-1-0.4-2-1-2.7-1.8c-0.8-0.8-1.4-1.8-1.8-2.9c-0.4-1.2-0.7-2.5-0.7-4c0-1.2,0.2-2.3,0.6-3.4
				c0.4-1,0.9-2,1.7-2.7s1.6-1.4,2.6-1.8S756.6,128.6,757.9,128.6z M757.9,131.6c-1.2,0-2.2,0.3-2.9,1s-1.1,1.7-1.3,2.9h7.9
				c0-0.5-0.1-1.1-0.2-1.5c-0.1-0.5-0.4-0.9-0.7-1.3c-0.3-0.4-0.7-0.6-1.2-0.9C759.1,131.7,758.6,131.6,757.9,131.6z M763.8,121.5
				l-4.2,4.4c-0.2,0.2-0.4,0.4-0.6,0.5s-0.5,0.1-0.8,0.1h-2.5l2.4-4.1c0.2-0.3,0.4-0.5,0.6-0.7c0.2-0.2,0.6-0.2,1-0.2H763.8z"/>
			<path d="M779.2,132.3c-0.1,0.2-0.2,0.3-0.4,0.4c-0.1,0.1-0.3,0.1-0.5,0.1c-0.2,0-0.4-0.1-0.7-0.2s-0.5-0.2-0.8-0.4
				c-0.3-0.1-0.7-0.3-1-0.4c-0.4-0.1-0.9-0.2-1.4-0.2c-0.8,0-1.5,0.2-2,0.5s-0.7,0.8-0.7,1.4c0,0.4,0.1,0.7,0.4,0.9s0.6,0.5,1,0.7
				s0.9,0.4,1.4,0.5c0.5,0.2,1,0.3,1.6,0.5c0.5,0.2,1.1,0.4,1.6,0.6s1,0.5,1.4,0.9c0.4,0.4,0.7,0.8,1,1.3c0.2,0.5,0.4,1.1,0.4,1.8
				c0,0.8-0.2,1.6-0.5,2.3c-0.3,0.7-0.8,1.3-1.3,1.8c-0.6,0.5-1.3,0.9-2.2,1.2c-0.9,0.3-1.9,0.4-3,0.4c-0.6,0-1.2-0.1-1.8-0.2
				c-0.6-0.1-1.1-0.3-1.6-0.5s-1-0.4-1.5-0.7c-0.4-0.3-0.8-0.5-1.2-0.9l1-1.6c0.1-0.2,0.3-0.3,0.4-0.4c0.2-0.1,0.4-0.2,0.6-0.2
				c0.3,0,0.5,0.1,0.7,0.2c0.2,0.1,0.5,0.3,0.8,0.5c0.3,0.2,0.7,0.3,1.1,0.5s0.9,0.2,1.6,0.2c0.5,0,0.9-0.1,1.3-0.2
				c0.4-0.1,0.7-0.3,0.9-0.5c0.2-0.2,0.4-0.4,0.5-0.7s0.2-0.5,0.2-0.8c0-0.4-0.1-0.7-0.4-1s-0.6-0.5-1-0.7s-0.9-0.4-1.4-0.5
				s-1-0.3-1.6-0.5c-0.5-0.2-1.1-0.4-1.6-0.6c-0.5-0.2-1-0.6-1.4-0.9s-0.7-0.8-1-1.4c-0.2-0.5-0.4-1.2-0.4-2c0-0.7,0.1-1.4,0.4-2
				c0.3-0.6,0.7-1.2,1.2-1.7c0.5-0.5,1.2-0.9,2.1-1.2c0.8-0.3,1.8-0.4,2.8-0.4c1.2,0,2.3,0.2,3.3,0.6c1,0.4,1.8,0.9,2.5,1.6
				L779.2,132.3z"/>
		</g>
	</g>
	<g>
		<path d="M105.8,482.6c1.1,0,2.2,0.2,3.1,0.5c0.9,0.3,1.7,0.8,2.3,1.3s1.1,1.2,1.5,2s0.5,1.6,0.5,2.5c0,0.8-0.1,1.5-0.3,2.1
			c-0.2,0.6-0.4,1.1-0.8,1.6c-0.3,0.4-0.7,0.8-1.2,1.1c-0.5,0.3-1,0.6-1.6,0.8c1.5,0.5,2.6,1.2,3.3,2.1s1.1,2.1,1.1,3.6
			c0,1.2-0.2,2.3-0.7,3.2c-0.5,0.9-1.1,1.7-1.8,2.4c-0.8,0.6-1.7,1.1-2.7,1.5c-1,0.3-2.1,0.5-3.2,0.5c-1.2,0-2.3-0.1-3.2-0.4
			c-0.9-0.3-1.7-0.7-2.4-1.3c-0.7-0.6-1.3-1.2-1.7-2s-0.9-1.7-1.2-2.8l1.9-0.8c0.3-0.1,0.6-0.2,1-0.2c0.3,0,0.6,0.1,0.8,0.2
			c0.2,0.1,0.4,0.3,0.5,0.5c0.2,0.4,0.4,0.8,0.7,1.2c0.2,0.4,0.5,0.7,0.9,1c0.3,0.3,0.7,0.5,1.2,0.7c0.5,0.2,1,0.3,1.6,0.3
			c0.7,0,1.3-0.1,1.9-0.3s1-0.5,1.3-0.9s0.6-0.8,0.8-1.2s0.3-0.9,0.3-1.4c0-0.6-0.1-1.1-0.2-1.6c-0.1-0.5-0.4-0.9-0.8-1.2
			c-0.4-0.3-1-0.6-1.7-0.8s-1.7-0.3-3-0.3v-3c1,0,1.9-0.1,2.6-0.3c0.7-0.2,1.2-0.4,1.6-0.8c0.4-0.3,0.7-0.7,0.8-1.2
			c0.2-0.5,0.2-1,0.2-1.5c0-1.2-0.3-2-1-2.6c-0.6-0.6-1.5-0.9-2.6-0.9c-1,0-1.8,0.3-2.5,0.8s-1.1,1.2-1.4,2
			c-0.1,0.4-0.3,0.7-0.6,0.9c-0.2,0.2-0.5,0.3-0.9,0.3c-0.2,0-0.4,0-0.6,0l-2.2-0.4c0.2-1.2,0.5-2.2,1-3.1s1.1-1.6,1.8-2.2
			c0.7-0.6,1.6-1,2.5-1.3C103.7,482.8,104.7,482.6,105.8,482.6z"/>
		<path d="M123.7,513.2V490h2.6c0.3,0,0.5,0.1,0.7,0.2s0.3,0.3,0.4,0.6l0.3,1.6c0.7-0.8,1.5-1.5,2.4-2c0.9-0.5,2-0.7,3.2-0.7
			c1,0,1.8,0.2,2.6,0.6s1.5,1,2,1.7s1,1.7,1.3,2.8c0.3,1.1,0.5,2.4,0.5,3.8c0,1.3-0.2,2.5-0.5,3.6c-0.4,1.1-0.9,2.1-1.5,2.9
			c-0.7,0.8-1.4,1.5-2.4,1.9s-2,0.7-3.1,0.7c-1,0-1.8-0.2-2.5-0.5c-0.7-0.3-1.3-0.7-1.8-1.2v7.1H123.7z M131.9,493
			c-0.9,0-1.6,0.2-2.2,0.6s-1.2,0.9-1.7,1.6v7.8c0.5,0.6,1,1,1.6,1.2s1.2,0.3,1.8,0.3c0.6,0,1.2-0.1,1.7-0.4c0.5-0.2,1-0.6,1.3-1.1
			c0.4-0.5,0.6-1.1,0.8-1.8c0.2-0.7,0.3-1.6,0.3-2.6c0-1-0.1-1.9-0.2-2.6c-0.2-0.7-0.4-1.3-0.7-1.7c-0.3-0.4-0.7-0.8-1.1-1
			C132.9,493.1,132.4,493,131.9,493z"/>
		<path d="M142.9,507.5V490h2.5c0.4,0,0.7,0.1,0.9,0.2c0.2,0.2,0.3,0.4,0.3,0.8l0.3,2.1c0.6-1.1,1.4-1.9,2.2-2.5s1.8-0.9,2.8-0.9
			c0.9,0,1.6,0.2,2.1,0.6l-0.5,3.1c0,0.2-0.1,0.3-0.2,0.4c-0.1,0.1-0.3,0.1-0.5,0.1c-0.2,0-0.4,0-0.7-0.1c-0.3-0.1-0.7-0.1-1.2-0.1
			c-0.9,0-1.6,0.2-2.2,0.7c-0.6,0.5-1.2,1.2-1.6,2.1v10.9H142.9z"/>
		<path d="M164.3,489.7c1.3,0,2.5,0.2,3.5,0.6s2,1,2.7,1.8c0.7,0.8,1.3,1.7,1.7,2.8c0.4,1.1,0.6,2.4,0.6,3.7c0,1.4-0.2,2.6-0.6,3.7
			c-0.4,1.1-1,2.1-1.7,2.8c-0.7,0.8-1.7,1.4-2.7,1.8s-2.2,0.6-3.5,0.6s-2.5-0.2-3.6-0.6c-1.1-0.4-2-1-2.7-1.8
			c-0.8-0.8-1.3-1.7-1.8-2.8c-0.4-1.1-0.6-2.4-0.6-3.7c0-1.4,0.2-2.6,0.6-3.7c0.4-1.1,1-2.1,1.8-2.8c0.8-0.8,1.7-1.4,2.7-1.8
			C161.8,490,163,489.7,164.3,489.7z M164.3,504.5c1.5,0,2.5-0.5,3.2-1.5c0.7-1,1-2.4,1-4.3c0-1.9-0.3-3.3-1-4.3
			c-0.7-1-1.8-1.5-3.2-1.5c-1.5,0-2.6,0.5-3.3,1.5c-0.7,1-1.1,2.4-1.1,4.3s0.4,3.3,1.1,4.3S162.8,504.5,164.3,504.5z"/>
		<path d="M188.4,507.5c-0.5,0-0.9-0.3-1.1-0.8L187,505c-0.4,0.4-0.7,0.8-1.1,1.1c-0.4,0.3-0.8,0.6-1.3,0.8s-1,0.4-1.5,0.6
			s-1.1,0.2-1.7,0.2c-1,0-1.8-0.2-2.6-0.6s-1.5-1-2-1.7s-1-1.7-1.3-2.8c-0.3-1.1-0.5-2.4-0.5-3.8c0-1.3,0.2-2.5,0.5-3.6
			c0.4-1.1,0.9-2.1,1.5-2.9c0.7-0.8,1.4-1.5,2.4-1.9s1.9-0.7,3.1-0.7c1,0,1.8,0.2,2.5,0.5c0.7,0.3,1.3,0.7,1.9,1.2v-9.2h4.2v25.3
			H188.4z M182.8,504.4c0.9,0,1.6-0.2,2.2-0.5c0.6-0.4,1.2-0.9,1.7-1.5v-7.8c-0.5-0.6-1-1-1.6-1.2s-1.2-0.4-1.8-0.4
			c-0.6,0-1.2,0.1-1.7,0.4s-1,0.6-1.3,1.1c-0.4,0.5-0.6,1.1-0.8,1.8c-0.2,0.7-0.3,1.6-0.3,2.6c0,1,0.1,1.9,0.2,2.6
			c0.2,0.7,0.4,1.3,0.7,1.7c0.3,0.4,0.7,0.8,1.1,1C181.8,504.3,182.3,504.4,182.8,504.4z"/>
		<path d="M199.4,490v11.1c0,1.1,0.2,1.9,0.7,2.5c0.5,0.6,1.2,0.9,2.2,0.9c0.7,0,1.4-0.2,2-0.5c0.6-0.3,1.2-0.8,1.8-1.3V490h4.2
			v17.4h-2.6c-0.5,0-0.9-0.3-1.1-0.8l-0.3-1.4c-0.4,0.4-0.7,0.7-1.1,1c-0.4,0.3-0.8,0.6-1.2,0.8c-0.4,0.2-0.9,0.4-1.4,0.5
			c-0.5,0.1-1,0.2-1.6,0.2c-1,0-1.8-0.2-2.5-0.5c-0.7-0.3-1.3-0.8-1.8-1.4c-0.5-0.6-0.9-1.3-1.1-2.1c-0.3-0.8-0.4-1.7-0.4-2.7V490
			H199.4z"/>
		<path d="M227.1,493.7c-0.1,0.2-0.2,0.3-0.4,0.4c-0.1,0.1-0.3,0.1-0.5,0.1c-0.2,0-0.4-0.1-0.6-0.2c-0.2-0.1-0.4-0.3-0.7-0.4
			c-0.3-0.2-0.6-0.3-1-0.4c-0.4-0.1-0.9-0.2-1.5-0.2c-0.7,0-1.4,0.1-1.9,0.4c-0.6,0.3-1,0.6-1.4,1.1s-0.6,1.1-0.8,1.8
			c-0.2,0.7-0.3,1.5-0.3,2.4c0,0.9,0.1,1.8,0.3,2.5c0.2,0.7,0.5,1.3,0.9,1.8s0.8,0.9,1.4,1.1c0.5,0.3,1.1,0.4,1.8,0.4
			c0.7,0,1.2-0.1,1.6-0.2c0.4-0.2,0.8-0.3,1-0.5s0.5-0.4,0.7-0.5c0.2-0.2,0.4-0.2,0.7-0.2c0.3,0,0.6,0.1,0.8,0.4l1.2,1.5
			c-0.5,0.5-1,1-1.5,1.4s-1.1,0.7-1.7,0.9c-0.6,0.2-1.2,0.4-1.8,0.5c-0.6,0.1-1.2,0.1-1.9,0.1c-1.1,0-2.1-0.2-3-0.6
			c-1-0.4-1.8-1-2.5-1.8c-0.7-0.8-1.3-1.7-1.7-2.8s-0.6-2.4-0.6-3.8c0-1.3,0.2-2.5,0.6-3.6c0.4-1.1,0.9-2,1.6-2.8s1.6-1.4,2.7-1.9
			c1.1-0.5,2.3-0.7,3.6-0.7c1.3,0,2.4,0.2,3.4,0.6s1.9,1,2.6,1.8L227.1,493.7z"/>
		<path d="M236.8,507.7c-1.5,0-2.7-0.4-3.5-1.3c-0.8-0.9-1.2-2-1.2-3.5v-9.7h-1.8c-0.2,0-0.4-0.1-0.6-0.2c-0.2-0.1-0.2-0.4-0.2-0.7
			v-1.7l2.8-0.5l0.9-4.8c0-0.2,0.1-0.4,0.3-0.5c0.2-0.1,0.4-0.2,0.6-0.2h2.2v5.5h4.6v3h-4.6v9.5c0,0.5,0.1,1,0.4,1.3
			c0.3,0.3,0.6,0.5,1.1,0.5c0.3,0,0.5,0,0.7-0.1s0.3-0.1,0.5-0.2c0.1-0.1,0.2-0.1,0.3-0.2c0.1-0.1,0.2-0.1,0.3-0.1
			c0.1,0,0.2,0,0.3,0.1c0.1,0.1,0.2,0.2,0.3,0.3l1.3,2c-0.6,0.5-1.3,0.9-2.1,1.2C238.5,507.6,237.6,507.7,236.8,507.7z"/>
		<path d="M249.3,484.9c0,0.4-0.1,0.7-0.2,1c-0.1,0.3-0.3,0.6-0.6,0.8c-0.2,0.2-0.5,0.4-0.9,0.6c-0.3,0.1-0.7,0.2-1.1,0.2
			c-0.4,0-0.7-0.1-1-0.2c-0.3-0.1-0.6-0.3-0.8-0.6c-0.2-0.2-0.4-0.5-0.6-0.8c-0.1-0.3-0.2-0.7-0.2-1c0-0.4,0.1-0.7,0.2-1.1
			c0.1-0.3,0.3-0.6,0.6-0.8c0.2-0.2,0.5-0.4,0.8-0.6c0.3-0.1,0.7-0.2,1-0.2c0.4,0,0.7,0.1,1.1,0.2c0.3,0.1,0.6,0.3,0.9,0.6
			c0.2,0.2,0.4,0.5,0.6,0.8C249.2,484.2,249.3,484.6,249.3,484.9z M248.7,490v17.4h-4.2V490H248.7z"/>
		<path d="M260.9,489.7c1.3,0,2.5,0.2,3.5,0.6s2,1,2.7,1.8c0.7,0.8,1.3,1.7,1.7,2.8c0.4,1.1,0.6,2.4,0.6,3.7c0,1.4-0.2,2.6-0.6,3.7
			c-0.4,1.1-1,2.1-1.7,2.8c-0.7,0.8-1.7,1.4-2.7,1.8s-2.2,0.6-3.5,0.6s-2.5-0.2-3.6-0.6c-1.1-0.4-2-1-2.7-1.8
			c-0.8-0.8-1.3-1.7-1.8-2.8c-0.4-1.1-0.6-2.4-0.6-3.7c0-1.4,0.2-2.6,0.6-3.7c0.4-1.1,1-2.1,1.8-2.8c0.8-0.8,1.7-1.4,2.7-1.8
			C258.4,490,259.6,489.7,260.9,489.7z M260.9,504.5c1.5,0,2.5-0.5,3.2-1.5c0.7-1,1-2.4,1-4.3c0-1.9-0.3-3.3-1-4.3
			c-0.7-1-1.8-1.5-3.2-1.5c-1.5,0-2.6,0.5-3.3,1.5c-0.7,1-1.1,2.4-1.1,4.3s0.4,3.3,1.1,4.3S259.4,504.5,260.9,504.5z"/>
		<path d="M272.8,507.5V490h2.6c0.5,0,0.9,0.3,1.1,0.8l0.3,1.4c0.4-0.4,0.7-0.7,1.1-1c0.4-0.3,0.8-0.5,1.2-0.8
			c0.4-0.2,0.9-0.4,1.4-0.5c0.5-0.1,1-0.2,1.6-0.2c1,0,1.8,0.2,2.5,0.5s1.4,0.8,1.8,1.4c0.5,0.6,0.9,1.3,1.1,2.1s0.4,1.7,0.4,2.7
			v11.1h-4.2v-11.1c0-1.1-0.2-1.9-0.7-2.5c-0.5-0.6-1.2-0.9-2.2-0.9c-0.7,0-1.4,0.2-2,0.5c-0.6,0.3-1.2,0.8-1.8,1.3v12.6H272.8z"/>
		<path d="M302.4,493.4c-0.1,0.2-0.2,0.3-0.4,0.4c-0.1,0.1-0.3,0.1-0.5,0.1c-0.2,0-0.4-0.1-0.7-0.2s-0.5-0.2-0.8-0.4
			c-0.3-0.1-0.7-0.3-1-0.4c-0.4-0.1-0.9-0.2-1.4-0.2c-0.8,0-1.5,0.2-2,0.5s-0.7,0.8-0.7,1.4c0,0.4,0.1,0.7,0.4,0.9s0.6,0.5,1,0.7
			c0.4,0.2,0.9,0.4,1.4,0.5c0.5,0.2,1,0.3,1.6,0.5c0.5,0.2,1.1,0.4,1.6,0.6c0.5,0.2,1,0.5,1.4,0.9c0.4,0.4,0.7,0.8,1,1.3
			c0.2,0.5,0.4,1.1,0.4,1.8c0,0.8-0.2,1.6-0.5,2.3c-0.3,0.7-0.8,1.3-1.3,1.8c-0.6,0.5-1.3,0.9-2.2,1.2s-1.9,0.4-3,0.4
			c-0.6,0-1.2-0.1-1.8-0.2s-1.1-0.3-1.6-0.5s-1-0.4-1.5-0.7s-0.8-0.5-1.2-0.9l1-1.6c0.1-0.2,0.3-0.3,0.4-0.4
			c0.2-0.1,0.4-0.2,0.6-0.2s0.5,0.1,0.7,0.2c0.2,0.1,0.5,0.3,0.8,0.5c0.3,0.2,0.7,0.3,1.1,0.5s0.9,0.2,1.6,0.2
			c0.5,0,0.9-0.1,1.3-0.2s0.7-0.3,0.9-0.5c0.2-0.2,0.4-0.4,0.5-0.7c0.1-0.3,0.2-0.5,0.2-0.8c0-0.4-0.1-0.7-0.4-1s-0.6-0.5-1-0.7
			c-0.4-0.2-0.9-0.4-1.4-0.5c-0.5-0.2-1-0.3-1.6-0.5c-0.5-0.2-1.1-0.4-1.6-0.6c-0.5-0.2-1-0.6-1.4-0.9c-0.4-0.4-0.7-0.8-1-1.4
			s-0.4-1.2-0.4-2c0-0.7,0.1-1.4,0.4-2c0.3-0.6,0.7-1.2,1.2-1.7c0.5-0.5,1.2-0.9,2.1-1.2c0.8-0.3,1.8-0.4,2.8-0.4
			c1.2,0,2.3,0.2,3.3,0.6c1,0.4,1.8,0.9,2.5,1.6L302.4,493.4z"/>
	</g>
	<g>
		<path d="M825.6,484.7c0,0.6-0.2,1.1-0.6,1.5s-1,0.6-1.9,0.6h-6.8l-0.9,5.1c1.1-0.2,2.1-0.3,3-0.3c1.3,0,2.4,0.2,3.4,0.6
			c1,0.4,1.8,0.9,2.5,1.6c0.7,0.7,1.2,1.5,1.5,2.4c0.3,0.9,0.5,1.9,0.5,2.9c0,1.3-0.2,2.5-0.7,3.6c-0.5,1.1-1.1,2-1.9,2.8
			c-0.8,0.8-1.8,1.4-2.9,1.8c-1.1,0.4-2.3,0.6-3.6,0.6c-0.8,0-1.5-0.1-2.2-0.2c-0.7-0.2-1.3-0.4-1.9-0.6s-1.2-0.6-1.7-0.9
			c-0.5-0.3-1-0.7-1.4-1.1l1.3-1.8c0.3-0.4,0.6-0.6,1.1-0.6c0.3,0,0.6,0.1,0.9,0.3s0.6,0.4,1,0.6c0.4,0.2,0.8,0.4,1.3,0.6
			c0.5,0.2,1.1,0.3,1.9,0.3c0.8,0,1.5-0.1,2-0.4c0.6-0.2,1.1-0.6,1.5-1c0.4-0.4,0.7-1,0.9-1.6c0.2-0.6,0.3-1.3,0.3-2
			c0-1.3-0.4-2.4-1.2-3.1c-0.8-0.8-1.9-1.1-3.4-1.1c-1.2,0-2.4,0.2-3.6,0.6l-2.6-0.7l2-11.9h12.1V484.7z"/>
		<path d="M851,507.5h-1.9c-0.4,0-0.7-0.1-0.9-0.2s-0.4-0.4-0.5-0.7l-0.4-1.2c-0.4,0.4-0.9,0.7-1.3,1c-0.4,0.3-0.9,0.6-1.3,0.8
			s-0.9,0.4-1.4,0.5c-0.5,0.1-1.1,0.2-1.7,0.2c-0.7,0-1.4-0.1-2-0.3c-0.6-0.2-1.2-0.5-1.6-0.9c-0.4-0.4-0.8-0.9-1-1.5
			c-0.2-0.6-0.4-1.3-0.4-2.1c0-0.7,0.2-1.3,0.5-2s0.9-1.2,1.7-1.7c0.8-0.5,1.9-0.9,3.2-1.3c1.3-0.3,3-0.5,5-0.5v-1
			c0-1.2-0.2-2-0.7-2.6c-0.5-0.6-1.2-0.8-2.2-0.8c-0.7,0-1.2,0.1-1.7,0.2c-0.5,0.2-0.8,0.3-1.2,0.5s-0.6,0.4-0.9,0.5
			c-0.3,0.2-0.6,0.2-0.9,0.2c-0.3,0-0.5-0.1-0.7-0.2c-0.2-0.1-0.4-0.3-0.5-0.5l-0.8-1.3c2-1.8,4.4-2.8,7.3-2.8c1,0,1.9,0.2,2.7,0.5
			c0.8,0.3,1.5,0.8,2,1.4c0.6,0.6,1,1.3,1.3,2.1c0.3,0.8,0.4,1.7,0.4,2.7V507.5z M842.9,504.8c0.4,0,0.8,0,1.2-0.1
			c0.4-0.1,0.7-0.2,1-0.4c0.3-0.2,0.6-0.3,0.9-0.6c0.3-0.2,0.6-0.5,0.9-0.8v-2.9c-1.2,0-2.2,0.1-3.1,0.2s-1.5,0.4-2,0.6
			c-0.5,0.2-0.9,0.5-1.1,0.8c-0.2,0.3-0.3,0.7-0.3,1c0,0.7,0.2,1.3,0.7,1.6C841.6,504.7,842.2,504.8,842.9,504.8z"/>
		<path d="M867.4,493.7c-0.1,0.2-0.2,0.3-0.4,0.4c-0.1,0.1-0.3,0.1-0.5,0.1c-0.2,0-0.4-0.1-0.6-0.2c-0.2-0.1-0.4-0.3-0.7-0.4
			c-0.3-0.2-0.6-0.3-1-0.4c-0.4-0.1-0.9-0.2-1.5-0.2c-0.7,0-1.4,0.1-1.9,0.4c-0.6,0.3-1,0.6-1.4,1.1s-0.6,1.1-0.8,1.8
			c-0.2,0.7-0.3,1.5-0.3,2.4c0,0.9,0.1,1.8,0.3,2.5c0.2,0.7,0.5,1.3,0.9,1.8s0.8,0.9,1.4,1.1c0.5,0.3,1.1,0.4,1.8,0.4
			s1.2-0.1,1.6-0.2c0.4-0.2,0.8-0.3,1-0.5s0.5-0.4,0.7-0.5c0.2-0.2,0.4-0.2,0.7-0.2c0.3,0,0.6,0.1,0.8,0.4l1.2,1.5
			c-0.5,0.5-1,1-1.5,1.4s-1.1,0.7-1.7,0.9s-1.2,0.4-1.8,0.5s-1.2,0.1-1.9,0.1c-1.1,0-2.1-0.2-3-0.6c-1-0.4-1.8-1-2.5-1.8
			c-0.7-0.8-1.3-1.7-1.7-2.8c-0.4-1.1-0.6-2.4-0.6-3.8c0-1.3,0.2-2.5,0.6-3.6s0.9-2,1.6-2.8s1.6-1.4,2.7-1.9
			c1.1-0.5,2.3-0.7,3.6-0.7c1.3,0,2.4,0.2,3.4,0.6s1.9,1,2.6,1.8L867.4,493.7z"/>
		<path d="M877.1,507.7c-1.5,0-2.7-0.4-3.5-1.3c-0.8-0.9-1.2-2-1.2-3.5v-9.7h-1.8c-0.2,0-0.4-0.1-0.6-0.2s-0.2-0.4-0.2-0.7v-1.7
			l2.8-0.5l0.9-4.8c0-0.2,0.2-0.4,0.3-0.5s0.4-0.2,0.6-0.2h2.2v5.5h4.6v3h-4.6v9.5c0,0.5,0.1,1,0.4,1.3c0.3,0.3,0.6,0.5,1.1,0.5
			c0.3,0,0.5,0,0.7-0.1s0.3-0.1,0.5-0.2c0.1-0.1,0.2-0.1,0.3-0.2c0.1-0.1,0.2-0.1,0.3-0.1c0.1,0,0.2,0,0.3,0.1
			c0.1,0.1,0.2,0.2,0.3,0.3l1.3,2c-0.6,0.5-1.3,0.9-2.1,1.2S878,507.7,877.1,507.7z"/>
		<path d="M889.6,484.9c0,0.4-0.1,0.7-0.2,1s-0.3,0.6-0.6,0.8c-0.2,0.2-0.5,0.4-0.9,0.6c-0.3,0.1-0.7,0.2-1.1,0.2
			c-0.4,0-0.7-0.1-1-0.2s-0.6-0.3-0.8-0.6c-0.2-0.2-0.4-0.5-0.6-0.8s-0.2-0.7-0.2-1c0-0.4,0.1-0.7,0.2-1.1c0.1-0.3,0.3-0.6,0.6-0.8
			c0.2-0.2,0.5-0.4,0.8-0.6s0.7-0.2,1-0.2c0.4,0,0.7,0.1,1.1,0.2c0.3,0.1,0.6,0.3,0.9,0.6c0.2,0.2,0.4,0.5,0.6,0.8
			C889.6,484.2,889.6,484.6,889.6,484.9z M889,490v17.4h-4.2V490H889z"/>
		<path d="M902.5,507.5h-3.8l-6.9-17.4h3.5c0.3,0,0.6,0.1,0.8,0.2c0.2,0.1,0.4,0.3,0.4,0.6l3.4,9.3c0.2,0.5,0.4,1.1,0.5,1.6
			c0.1,0.5,0.2,1,0.3,1.6c0.1-0.5,0.2-1,0.3-1.6s0.3-1.1,0.5-1.6l3.5-9.3c0.1-0.2,0.2-0.4,0.4-0.6s0.4-0.2,0.7-0.2h3.3L902.5,507.5z
			"/>
		<path d="M917,484.9c0,0.4-0.1,0.7-0.2,1s-0.3,0.6-0.6,0.8c-0.2,0.2-0.5,0.4-0.9,0.6c-0.3,0.1-0.7,0.2-1.1,0.2
			c-0.4,0-0.7-0.1-1-0.2s-0.6-0.3-0.8-0.6c-0.2-0.2-0.4-0.5-0.6-0.8s-0.2-0.7-0.2-1c0-0.4,0.1-0.7,0.2-1.1c0.1-0.3,0.3-0.6,0.6-0.8
			c0.2-0.2,0.5-0.4,0.8-0.6s0.7-0.2,1-0.2c0.4,0,0.7,0.1,1.1,0.2c0.3,0.1,0.6,0.3,0.9,0.6c0.2,0.2,0.4,0.5,0.6,0.8
			C916.9,484.2,917,484.6,917,484.9z M916.4,490v17.4h-4.2V490H916.4z"/>
		<path d="M926.8,507.7c-1.5,0-2.7-0.4-3.5-1.3c-0.8-0.9-1.2-2-1.2-3.5v-9.7h-1.8c-0.2,0-0.4-0.1-0.6-0.2c-0.2-0.1-0.2-0.4-0.2-0.7
			v-1.7l2.8-0.5l0.9-4.8c0-0.2,0.1-0.4,0.3-0.5c0.2-0.1,0.4-0.2,0.6-0.2h2.2v5.5h4.6v3h-4.6v9.5c0,0.5,0.1,1,0.4,1.3
			c0.3,0.3,0.6,0.5,1.1,0.5c0.3,0,0.5,0,0.7-0.1s0.3-0.1,0.5-0.2c0.1-0.1,0.2-0.1,0.3-0.2c0.1-0.1,0.2-0.1,0.3-0.1
			c0.1,0,0.2,0,0.3,0.1c0.1,0.1,0.2,0.2,0.3,0.3l1.3,2c-0.6,0.5-1.3,0.9-2.1,1.2C928.5,507.6,927.7,507.7,926.8,507.7z"/>
		<path d="M941.5,489.7c1.1,0,2.1,0.2,3,0.5c0.9,0.4,1.7,0.9,2.4,1.5c0.7,0.7,1.2,1.5,1.6,2.5c0.4,1,0.6,2.1,0.6,3.4
			c0,0.3,0,0.6,0,0.8s-0.1,0.4-0.2,0.5c-0.1,0.1-0.2,0.2-0.3,0.3c-0.1,0.1-0.3,0.1-0.5,0.1h-10.8c0.1,1.8,0.6,3.1,1.4,3.9
			s1.9,1.3,3.3,1.3c0.7,0,1.3-0.1,1.8-0.2c0.5-0.2,0.9-0.3,1.3-0.5c0.4-0.2,0.7-0.4,1-0.5c0.3-0.2,0.5-0.2,0.8-0.2
			c0.2,0,0.3,0,0.4,0.1c0.1,0.1,0.2,0.2,0.3,0.3l1.2,1.5c-0.5,0.5-1,1-1.6,1.4s-1.2,0.7-1.8,0.9s-1.3,0.4-1.9,0.5
			c-0.7,0.1-1.3,0.1-1.9,0.1c-1.2,0-2.3-0.2-3.4-0.6c-1-0.4-1.9-1-2.7-1.8c-0.8-0.8-1.4-1.8-1.8-2.9c-0.4-1.2-0.7-2.5-0.7-4
			c0-1.2,0.2-2.3,0.6-3.4c0.4-1,0.9-2,1.7-2.7s1.6-1.4,2.6-1.8S940.2,489.7,941.5,489.7z M941.5,492.8c-1.2,0-2.2,0.3-2.9,1
			s-1.1,1.7-1.3,2.9h7.9c0-0.5-0.1-1.1-0.2-1.5c-0.1-0.5-0.4-0.9-0.7-1.3c-0.3-0.4-0.7-0.6-1.2-0.9
			C942.7,492.9,942.2,492.8,941.5,492.8z M947.4,482.6l-4.2,4.4c-0.2,0.2-0.4,0.4-0.6,0.5c-0.2,0.1-0.5,0.1-0.8,0.1h-2.5l2.4-4.1
			c0.2-0.3,0.4-0.5,0.6-0.7c0.2-0.2,0.6-0.2,1-0.2H947.4z"/>
		<path d="M962.8,493.4c-0.1,0.2-0.2,0.3-0.4,0.4c-0.1,0.1-0.3,0.1-0.5,0.1c-0.2,0-0.4-0.1-0.7-0.2s-0.5-0.2-0.8-0.4s-0.7-0.3-1-0.4
			c-0.4-0.1-0.9-0.2-1.4-0.2c-0.8,0-1.5,0.2-2,0.5c-0.5,0.4-0.7,0.8-0.7,1.4c0,0.4,0.1,0.7,0.4,0.9c0.2,0.3,0.6,0.5,1,0.7
			s0.9,0.4,1.4,0.5c0.5,0.2,1,0.3,1.6,0.5c0.5,0.2,1.1,0.4,1.6,0.6c0.5,0.2,1,0.5,1.4,0.9c0.4,0.4,0.7,0.8,1,1.3
			c0.2,0.5,0.4,1.1,0.4,1.8c0,0.8-0.2,1.6-0.5,2.3c-0.3,0.7-0.8,1.3-1.3,1.8s-1.3,0.9-2.2,1.2s-1.9,0.4-3,0.4
			c-0.6,0-1.2-0.1-1.8-0.2s-1.1-0.3-1.6-0.5c-0.5-0.2-1-0.4-1.5-0.7c-0.4-0.3-0.8-0.5-1.2-0.9l1-1.6c0.1-0.2,0.3-0.3,0.4-0.4
			c0.2-0.1,0.4-0.2,0.6-0.2s0.5,0.1,0.7,0.2c0.2,0.1,0.5,0.3,0.8,0.5c0.3,0.2,0.7,0.3,1.1,0.5c0.4,0.1,0.9,0.2,1.6,0.2
			c0.5,0,0.9-0.1,1.3-0.2c0.4-0.1,0.7-0.3,0.9-0.5c0.2-0.2,0.4-0.4,0.5-0.7c0.1-0.3,0.2-0.5,0.2-0.8c0-0.4-0.1-0.7-0.4-1
			c-0.2-0.3-0.6-0.5-1-0.7c-0.4-0.2-0.9-0.4-1.4-0.5c-0.5-0.2-1-0.3-1.6-0.5c-0.5-0.2-1.1-0.4-1.6-0.6c-0.5-0.2-1-0.6-1.4-0.9
			c-0.4-0.4-0.7-0.8-1-1.4c-0.2-0.5-0.4-1.2-0.4-2c0-0.7,0.1-1.4,0.4-2c0.3-0.6,0.7-1.2,1.2-1.7c0.5-0.5,1.2-0.9,2.1-1.2
			s1.8-0.4,2.8-0.4c1.2,0,2.3,0.2,3.3,0.6c1,0.4,1.8,0.9,2.5,1.6L962.8,493.4z"/>
	</g>
	<g>
		<path d="M551.2,484.7c0,0.6-0.2,1.1-0.6,1.5s-1,0.6-1.9,0.6H542l-0.9,5.1c1.1-0.2,2.1-0.3,3-0.3c1.3,0,2.4,0.2,3.4,0.6
			c1,0.4,1.8,0.9,2.5,1.6c0.7,0.7,1.2,1.5,1.5,2.4c0.3,0.9,0.5,1.9,0.5,2.9c0,1.3-0.2,2.5-0.7,3.6c-0.5,1.1-1.1,2-1.9,2.8
			c-0.8,0.8-1.8,1.4-2.9,1.8c-1.1,0.4-2.3,0.6-3.6,0.6c-0.8,0-1.5-0.1-2.2-0.2c-0.7-0.2-1.3-0.4-1.9-0.6s-1.2-0.6-1.7-0.9
			c-0.5-0.3-1-0.7-1.4-1.1l1.3-1.8c0.3-0.4,0.6-0.6,1.1-0.6c0.3,0,0.6,0.1,0.9,0.3s0.6,0.4,1,0.6c0.4,0.2,0.8,0.4,1.3,0.6
			c0.5,0.2,1.1,0.3,1.9,0.3c0.8,0,1.5-0.1,2-0.4c0.6-0.2,1.1-0.6,1.5-1c0.4-0.4,0.7-1,0.9-1.6c0.2-0.6,0.3-1.3,0.3-2
			c0-1.3-0.4-2.4-1.2-3.1c-0.8-0.8-1.9-1.1-3.4-1.1c-1.2,0-2.4,0.2-3.6,0.6l-2.6-0.7l2-11.9h12.1V484.7z"/>
		<path d="M562.9,513.2V490h2.6c0.3,0,0.5,0.1,0.7,0.2c0.2,0.1,0.3,0.3,0.4,0.6l0.3,1.6c0.7-0.8,1.5-1.5,2.4-2
			c0.9-0.5,2-0.7,3.2-0.7c1,0,1.8,0.2,2.6,0.6c0.8,0.4,1.5,1,2,1.7s1,1.7,1.3,2.8c0.3,1.1,0.5,2.4,0.5,3.8c0,1.3-0.2,2.5-0.5,3.6
			c-0.4,1.1-0.9,2.1-1.5,2.9c-0.7,0.8-1.4,1.5-2.4,1.9s-2,0.7-3.1,0.7c-1,0-1.8-0.2-2.5-0.5c-0.7-0.3-1.3-0.7-1.8-1.2v7.1H562.9z
			 M571.1,493c-0.9,0-1.6,0.2-2.2,0.6c-0.6,0.4-1.2,0.9-1.7,1.6v7.8c0.5,0.6,1,1,1.6,1.2c0.6,0.2,1.2,0.3,1.8,0.3
			c0.6,0,1.2-0.1,1.7-0.4s1-0.6,1.3-1.1c0.4-0.5,0.6-1.1,0.8-1.8c0.2-0.7,0.3-1.6,0.3-2.6c0-1-0.1-1.9-0.2-2.6s-0.4-1.3-0.7-1.7
			c-0.3-0.4-0.7-0.8-1.1-1C572.2,493.1,571.7,493,571.1,493z"/>
		<path d="M595.8,507.5h-1.9c-0.4,0-0.7-0.1-0.9-0.2s-0.4-0.4-0.5-0.7l-0.4-1.2c-0.4,0.4-0.9,0.7-1.3,1c-0.4,0.3-0.9,0.6-1.3,0.8
			s-0.9,0.4-1.4,0.5c-0.5,0.1-1.1,0.2-1.7,0.2c-0.7,0-1.4-0.1-2-0.3c-0.6-0.2-1.2-0.5-1.6-0.9c-0.4-0.4-0.8-0.9-1-1.5
			c-0.2-0.6-0.4-1.3-0.4-2.1c0-0.7,0.2-1.3,0.5-2s0.9-1.2,1.7-1.7c0.8-0.5,1.9-0.9,3.2-1.3c1.3-0.3,3-0.5,5-0.5v-1
			c0-1.2-0.2-2-0.7-2.6c-0.5-0.6-1.2-0.8-2.2-0.8c-0.7,0-1.2,0.1-1.7,0.2c-0.5,0.2-0.8,0.3-1.2,0.5s-0.6,0.4-0.9,0.5
			c-0.3,0.2-0.6,0.2-0.9,0.2c-0.3,0-0.5-0.1-0.7-0.2c-0.2-0.1-0.4-0.3-0.5-0.5l-0.8-1.3c2-1.8,4.4-2.8,7.3-2.8c1,0,1.9,0.2,2.7,0.5
			c0.8,0.3,1.5,0.8,2,1.4c0.6,0.6,1,1.3,1.3,2.1c0.3,0.8,0.4,1.7,0.4,2.7V507.5z M587.7,504.8c0.4,0,0.8,0,1.2-0.1
			c0.4-0.1,0.7-0.2,1-0.4c0.3-0.2,0.6-0.3,0.9-0.6c0.3-0.2,0.6-0.5,0.9-0.8v-2.9c-1.2,0-2.2,0.1-3.1,0.2s-1.5,0.4-2,0.6
			c-0.5,0.2-0.9,0.5-1.1,0.8c-0.2,0.3-0.3,0.7-0.3,1c0,0.7,0.2,1.3,0.7,1.6C586.4,504.7,587,504.8,587.7,504.8z"/>
		<path d="M600,507.5V490h2.5c0.4,0,0.7,0.1,0.9,0.2c0.2,0.2,0.3,0.4,0.3,0.8l0.3,2.1c0.6-1.1,1.4-1.9,2.2-2.5s1.8-0.9,2.8-0.9
			c0.9,0,1.6,0.2,2.1,0.6l-0.5,3.1c0,0.2-0.1,0.3-0.2,0.4c-0.1,0.1-0.3,0.1-0.5,0.1c-0.2,0-0.4,0-0.7-0.1c-0.3-0.1-0.7-0.1-1.2-0.1
			c-0.9,0-1.6,0.2-2.2,0.7c-0.6,0.5-1.2,1.2-1.6,2.1v10.9H600z"/>
		<path d="M626.1,493.7c-0.1,0.2-0.2,0.3-0.4,0.4s-0.3,0.1-0.5,0.1c-0.2,0-0.4-0.1-0.6-0.2c-0.2-0.1-0.4-0.3-0.7-0.4
			c-0.3-0.2-0.6-0.3-1-0.4c-0.4-0.1-0.9-0.2-1.5-0.2c-0.7,0-1.4,0.1-1.9,0.4c-0.6,0.3-1,0.6-1.4,1.1s-0.6,1.1-0.8,1.8
			c-0.2,0.7-0.3,1.5-0.3,2.4c0,0.9,0.1,1.8,0.3,2.5c0.2,0.7,0.5,1.3,0.9,1.8s0.8,0.9,1.4,1.1c0.5,0.3,1.1,0.4,1.8,0.4
			c0.7,0,1.2-0.1,1.6-0.2s0.8-0.3,1-0.5s0.5-0.4,0.7-0.5s0.4-0.2,0.7-0.2c0.3,0,0.6,0.1,0.8,0.4l1.2,1.5c-0.5,0.5-1,1-1.5,1.4
			s-1.1,0.7-1.7,0.9c-0.6,0.2-1.2,0.4-1.8,0.5c-0.6,0.1-1.2,0.1-1.9,0.1c-1.1,0-2.1-0.2-3-0.6s-1.8-1-2.5-1.8
			c-0.7-0.8-1.3-1.7-1.7-2.8c-0.4-1.1-0.6-2.4-0.6-3.8c0-1.3,0.2-2.5,0.6-3.6c0.4-1.1,0.9-2,1.6-2.8s1.6-1.4,2.7-1.9
			s2.3-0.7,3.6-0.7c1.3,0,2.4,0.2,3.4,0.6s1.9,1,2.6,1.8L626.1,493.7z"/>
		<path d="M637.3,489.7c1.1,0,2.1,0.2,3,0.5c0.9,0.4,1.7,0.9,2.4,1.5c0.7,0.7,1.2,1.5,1.6,2.5c0.4,1,0.6,2.1,0.6,3.4
			c0,0.3,0,0.6,0,0.8s-0.1,0.4-0.2,0.5c-0.1,0.1-0.2,0.2-0.3,0.3c-0.1,0.1-0.3,0.1-0.5,0.1h-10.8c0.1,1.8,0.6,3.1,1.4,3.9
			s1.9,1.3,3.3,1.3c0.7,0,1.3-0.1,1.8-0.2c0.5-0.2,0.9-0.3,1.3-0.5c0.4-0.2,0.7-0.4,1-0.5c0.3-0.2,0.5-0.2,0.8-0.2
			c0.2,0,0.3,0,0.4,0.1c0.1,0.1,0.2,0.2,0.3,0.3l1.2,1.5c-0.5,0.5-1,1-1.6,1.4s-1.2,0.7-1.8,0.9s-1.3,0.4-1.9,0.5
			c-0.7,0.1-1.3,0.1-1.9,0.1c-1.2,0-2.3-0.2-3.4-0.6c-1-0.4-1.9-1-2.7-1.8c-0.8-0.8-1.4-1.8-1.8-2.9c-0.4-1.2-0.7-2.5-0.7-4
			c0-1.2,0.2-2.3,0.6-3.4c0.4-1,0.9-2,1.7-2.7s1.6-1.4,2.6-1.8S636,489.7,637.3,489.7z M637.4,492.8c-1.2,0-2.2,0.3-2.9,1
			s-1.1,1.7-1.3,2.9h7.9c0-0.5-0.1-1.1-0.2-1.5c-0.1-0.5-0.4-0.9-0.7-1.3c-0.3-0.4-0.7-0.6-1.2-0.9
			C638.5,492.9,638,492.8,637.4,492.8z"/>
		<path d="M652.7,482.2v25.3h-4.2v-25.3H652.7z"/>
		<path d="M661.9,482.2v25.3h-4.2v-25.3H661.9z"/>
		<path d="M673.9,489.7c1.1,0,2.1,0.2,3,0.5c0.9,0.4,1.7,0.9,2.4,1.5c0.7,0.7,1.2,1.5,1.6,2.5c0.4,1,0.6,2.1,0.6,3.4
			c0,0.3,0,0.6,0,0.8s-0.1,0.4-0.2,0.5c-0.1,0.1-0.2,0.2-0.3,0.3c-0.1,0.1-0.3,0.1-0.5,0.1h-10.8c0.1,1.8,0.6,3.1,1.4,3.9
			c0.8,0.8,1.9,1.3,3.3,1.3c0.7,0,1.3-0.1,1.8-0.2c0.5-0.2,0.9-0.3,1.3-0.5s0.7-0.4,1-0.5c0.3-0.2,0.5-0.2,0.8-0.2
			c0.2,0,0.3,0,0.4,0.1s0.2,0.2,0.3,0.3l1.2,1.5c-0.5,0.5-1,1-1.6,1.4c-0.6,0.4-1.2,0.7-1.8,0.9c-0.6,0.2-1.3,0.4-1.9,0.5
			c-0.7,0.1-1.3,0.1-1.9,0.1c-1.2,0-2.3-0.2-3.4-0.6s-1.9-1-2.7-1.8c-0.8-0.8-1.4-1.8-1.8-2.9c-0.4-1.2-0.7-2.5-0.7-4
			c0-1.2,0.2-2.3,0.6-3.4c0.4-1,0.9-2,1.7-2.7c0.7-0.8,1.6-1.4,2.6-1.8S672.6,489.7,673.9,489.7z M674,492.8c-1.2,0-2.2,0.3-2.9,1
			c-0.7,0.7-1.1,1.7-1.3,2.9h7.9c0-0.5-0.1-1.1-0.2-1.5c-0.1-0.5-0.4-0.9-0.7-1.3c-0.3-0.4-0.7-0.6-1.2-0.9
			C675.1,492.9,674.6,492.8,674,492.8z"/>
		<path d="M695.2,493.4c-0.1,0.2-0.2,0.3-0.4,0.4c-0.1,0.1-0.3,0.1-0.5,0.1c-0.2,0-0.4-0.1-0.7-0.2s-0.5-0.2-0.8-0.4
			c-0.3-0.1-0.7-0.3-1-0.4c-0.4-0.1-0.9-0.2-1.4-0.2c-0.8,0-1.5,0.2-2,0.5c-0.5,0.4-0.7,0.8-0.7,1.4c0,0.4,0.1,0.7,0.4,0.9
			c0.2,0.3,0.6,0.5,1,0.7c0.4,0.2,0.9,0.4,1.4,0.5c0.5,0.2,1,0.3,1.6,0.5c0.5,0.2,1.1,0.4,1.6,0.6s1,0.5,1.4,0.9
			c0.4,0.4,0.7,0.8,1,1.3c0.2,0.5,0.4,1.1,0.4,1.8c0,0.8-0.2,1.6-0.5,2.3c-0.3,0.7-0.8,1.3-1.3,1.8c-0.6,0.5-1.3,0.9-2.2,1.2
			s-1.9,0.4-3,0.4c-0.6,0-1.2-0.1-1.8-0.2s-1.1-0.3-1.6-0.5c-0.5-0.2-1-0.4-1.5-0.7c-0.4-0.3-0.8-0.5-1.2-0.9l1-1.6
			c0.1-0.2,0.3-0.3,0.4-0.4c0.2-0.1,0.4-0.2,0.6-0.2s0.5,0.1,0.7,0.2s0.5,0.3,0.8,0.5s0.7,0.3,1.1,0.5c0.4,0.1,0.9,0.2,1.6,0.2
			c0.5,0,0.9-0.1,1.3-0.2c0.4-0.1,0.7-0.3,0.9-0.5c0.2-0.2,0.4-0.4,0.5-0.7s0.2-0.5,0.2-0.8c0-0.4-0.1-0.7-0.4-1
			c-0.2-0.3-0.6-0.5-1-0.7s-0.9-0.4-1.4-0.5s-1-0.3-1.6-0.5c-0.5-0.2-1.1-0.4-1.6-0.6c-0.5-0.2-1-0.6-1.4-0.9s-0.7-0.8-1-1.4
			c-0.2-0.5-0.4-1.2-0.4-2c0-0.7,0.1-1.4,0.4-2c0.3-0.6,0.7-1.2,1.2-1.7c0.5-0.5,1.2-0.9,2.1-1.2c0.8-0.3,1.8-0.4,2.8-0.4
			c1.2,0,2.3,0.2,3.3,0.6c1,0.4,1.8,0.9,2.5,1.6L695.2,493.4z"/>
	</g>
	<rect x="324.2" y="482.5" class="st14" width="26" height="26"/>
	<rect x="364.9" y="482.5" class="st16" width="26" height="26"/>
	<rect x="405.7" y="482.5" class="st15" width="26" height="26"/>
	<line class="st31" x1="517.1" y1="232.8" x2="881.6" y2="282.8"/>
	<g>
		<g>
			<path d="M651.5,261v8.7H647v-24.6h8c1.6,0,3.1,0.2,4.3,0.6c1.2,0.4,2.2,0.9,3,1.6s1.4,1.5,1.7,2.5c0.4,1,0.6,2,0.6,3.2
				c0,1.2-0.2,2.3-0.6,3.3c-0.4,1-1,1.8-1.8,2.6c-0.8,0.7-1.8,1.3-3,1.7c-1.2,0.4-2.6,0.6-4.2,0.6H651.5z M651.5,257.4h3.4
				c0.8,0,1.6-0.1,2.2-0.3c0.6-0.2,1.1-0.5,1.5-0.9c0.4-0.4,0.7-0.9,0.9-1.4c0.2-0.6,0.3-1.2,0.3-1.9c0-0.7-0.1-1.3-0.3-1.8
				c-0.2-0.5-0.5-1-0.9-1.4s-0.9-0.7-1.5-0.9c-0.6-0.2-1.4-0.3-2.2-0.3h-3.4V257.4z"/>
			<path d="M680.6,269.7h-1.9c-0.4,0-0.7-0.1-0.9-0.2s-0.4-0.4-0.5-0.7l-0.4-1.2c-0.4,0.4-0.9,0.7-1.3,1c-0.4,0.3-0.9,0.6-1.3,0.8
				s-0.9,0.4-1.4,0.5c-0.5,0.1-1.1,0.2-1.7,0.2c-0.7,0-1.4-0.1-2-0.3c-0.6-0.2-1.2-0.5-1.6-0.9c-0.4-0.4-0.8-0.9-1-1.5
				c-0.2-0.6-0.4-1.3-0.4-2.1c0-0.7,0.2-1.3,0.5-2s0.9-1.2,1.7-1.7c0.8-0.5,1.9-0.9,3.2-1.3c1.3-0.3,3-0.5,5-0.5v-1
				c0-1.2-0.2-2-0.7-2.6c-0.5-0.6-1.2-0.8-2.2-0.8c-0.7,0-1.2,0.1-1.7,0.2c-0.5,0.2-0.8,0.3-1.2,0.5c-0.3,0.2-0.6,0.4-0.9,0.5
				c-0.3,0.2-0.6,0.2-0.9,0.2c-0.3,0-0.5-0.1-0.7-0.2c-0.2-0.1-0.4-0.3-0.5-0.5l-0.8-1.3c2-1.8,4.4-2.8,7.3-2.8c1,0,1.9,0.2,2.7,0.5
				c0.8,0.3,1.5,0.8,2,1.4c0.6,0.6,1,1.3,1.3,2.1c0.3,0.8,0.4,1.7,0.4,2.7V269.7z M672.5,267c0.4,0,0.8,0,1.2-0.1
				c0.4-0.1,0.7-0.2,1-0.4c0.3-0.2,0.6-0.3,0.9-0.6c0.3-0.2,0.6-0.5,0.9-0.8v-2.9c-1.2,0-2.2,0.1-3.1,0.2s-1.5,0.4-2,0.6
				c-0.5,0.2-0.9,0.5-1.1,0.8c-0.2,0.3-0.3,0.7-0.3,1c0,0.7,0.2,1.3,0.7,1.6C671.2,266.9,671.8,267,672.5,267z"/>
			<path d="M684.8,269.7v-17.4h2.5c0.4,0,0.7,0.1,0.9,0.2c0.2,0.2,0.3,0.4,0.3,0.8l0.3,2.1c0.6-1.1,1.4-1.9,2.2-2.5s1.8-0.9,2.8-0.9
				c0.9,0,1.6,0.2,2.1,0.6l-0.5,3.1c0,0.2-0.1,0.3-0.2,0.4c-0.1,0.1-0.3,0.1-0.5,0.1c-0.2,0-0.4,0-0.7-0.1c-0.3-0.1-0.7-0.1-1.2-0.1
				c-0.9,0-1.6,0.2-2.2,0.7c-0.6,0.5-1.2,1.2-1.6,2.1v10.9H684.8z"/>
			<path d="M710.9,255.9c-0.1,0.2-0.2,0.3-0.4,0.4s-0.3,0.1-0.5,0.1c-0.2,0-0.4-0.1-0.6-0.2c-0.2-0.1-0.4-0.3-0.7-0.4
				c-0.3-0.2-0.6-0.3-1-0.4c-0.4-0.1-0.9-0.2-1.5-0.2c-0.7,0-1.4,0.1-1.9,0.4c-0.6,0.3-1,0.6-1.4,1.1c-0.4,0.5-0.6,1.1-0.8,1.8
				c-0.2,0.7-0.3,1.5-0.3,2.4c0,0.9,0.1,1.8,0.3,2.5c0.2,0.7,0.5,1.3,0.9,1.8s0.8,0.9,1.4,1.1c0.5,0.3,1.1,0.4,1.8,0.4
				c0.7,0,1.2-0.1,1.6-0.2s0.8-0.3,1-0.5c0.3-0.2,0.5-0.4,0.7-0.5c0.2-0.2,0.4-0.2,0.7-0.2c0.3,0,0.6,0.1,0.8,0.4l1.2,1.5
				c-0.5,0.5-1,1-1.5,1.4s-1.1,0.7-1.7,0.9s-1.2,0.4-1.8,0.5s-1.2,0.1-1.9,0.1c-1.1,0-2.1-0.2-3-0.6s-1.8-1-2.5-1.8
				c-0.7-0.8-1.3-1.7-1.7-2.8s-0.6-2.4-0.6-3.8c0-1.3,0.2-2.5,0.6-3.6s0.9-2,1.6-2.8s1.6-1.4,2.7-1.9c1.1-0.5,2.3-0.7,3.6-0.7
				c1.3,0,2.4,0.2,3.4,0.6c1,0.4,1.9,1,2.6,1.8L710.9,255.9z"/>
			<path d="M722.1,251.9c1.1,0,2.1,0.2,3,0.5c0.9,0.4,1.7,0.9,2.4,1.5c0.7,0.7,1.2,1.5,1.6,2.5c0.4,1,0.6,2.1,0.6,3.4
				c0,0.3,0,0.6,0,0.8s-0.1,0.4-0.2,0.5c-0.1,0.1-0.2,0.2-0.3,0.3s-0.3,0.1-0.5,0.1h-10.8c0.1,1.8,0.6,3.1,1.4,3.9
				c0.8,0.8,1.9,1.3,3.3,1.3c0.7,0,1.3-0.1,1.8-0.2c0.5-0.2,0.9-0.3,1.3-0.5s0.7-0.4,1-0.5c0.3-0.2,0.5-0.2,0.8-0.2
				c0.2,0,0.3,0,0.4,0.1s0.2,0.2,0.3,0.3l1.2,1.5c-0.5,0.5-1,1-1.6,1.4s-1.2,0.7-1.8,0.9s-1.3,0.4-1.9,0.5c-0.7,0.1-1.3,0.1-1.9,0.1
				c-1.2,0-2.3-0.2-3.4-0.6c-1-0.4-2-1-2.7-1.8c-0.8-0.8-1.4-1.8-1.8-2.9c-0.4-1.2-0.7-2.5-0.7-4c0-1.2,0.2-2.3,0.6-3.4
				c0.4-1,0.9-2,1.7-2.7s1.6-1.4,2.6-1.8S720.8,251.9,722.1,251.9z M722.2,255c-1.2,0-2.2,0.3-2.9,1c-0.7,0.7-1.1,1.7-1.3,2.9h7.9
				c0-0.5-0.1-1.1-0.2-1.5c-0.1-0.5-0.4-0.9-0.7-1.3c-0.3-0.4-0.7-0.6-1.2-0.9C723.3,255.1,722.8,255,722.2,255z"/>
			<path d="M737.5,244.4v25.3h-4.2v-25.3H737.5z"/>
			<path d="M746.7,244.4v25.3h-4.2v-25.3H746.7z"/>
			<path d="M758.7,251.9c1.1,0,2.1,0.2,3,0.5c0.9,0.4,1.7,0.9,2.4,1.5c0.7,0.7,1.2,1.5,1.6,2.5c0.4,1,0.6,2.1,0.6,3.4
				c0,0.3,0,0.6,0,0.8s-0.1,0.4-0.2,0.5c-0.1,0.1-0.2,0.2-0.3,0.3s-0.3,0.1-0.5,0.1h-10.8c0.1,1.8,0.6,3.1,1.4,3.9
				c0.8,0.8,1.9,1.3,3.3,1.3c0.7,0,1.3-0.1,1.8-0.2c0.5-0.2,0.9-0.3,1.3-0.5s0.7-0.4,1-0.5c0.3-0.2,0.5-0.2,0.8-0.2
				c0.2,0,0.3,0,0.4,0.1s0.2,0.2,0.3,0.3l1.2,1.5c-0.5,0.5-1,1-1.6,1.4s-1.2,0.7-1.8,0.9s-1.3,0.4-1.9,0.5c-0.7,0.1-1.3,0.1-1.9,0.1
				c-1.2,0-2.3-0.2-3.4-0.6c-1-0.4-2-1-2.7-1.8c-0.8-0.8-1.4-1.8-1.8-2.9c-0.4-1.2-0.7-2.5-0.7-4c0-1.2,0.2-2.3,0.6-3.4
				c0.4-1,0.9-2,1.7-2.7s1.6-1.4,2.6-1.8S757.4,251.9,758.7,251.9z M758.8,255c-1.2,0-2.2,0.3-2.9,1c-0.7,0.7-1.1,1.7-1.3,2.9h7.9
				c0-0.5-0.1-1.1-0.2-1.5c-0.1-0.5-0.4-0.9-0.7-1.3c-0.3-0.4-0.7-0.6-1.2-0.9C759.9,255.1,759.4,255,758.8,255z"/>
			<path d="M780,255.6c-0.1,0.2-0.2,0.3-0.4,0.4c-0.1,0.1-0.3,0.1-0.5,0.1c-0.2,0-0.4-0.1-0.7-0.2c-0.2-0.1-0.5-0.2-0.8-0.4
				c-0.3-0.1-0.7-0.3-1-0.4c-0.4-0.1-0.9-0.2-1.4-0.2c-0.8,0-1.5,0.2-2,0.5s-0.7,0.8-0.7,1.4c0,0.4,0.1,0.7,0.4,0.9s0.6,0.5,1,0.7
				s0.9,0.4,1.4,0.5c0.5,0.2,1,0.3,1.6,0.5c0.5,0.2,1.1,0.4,1.6,0.6s1,0.5,1.4,0.9c0.4,0.4,0.7,0.8,1,1.3c0.2,0.5,0.4,1.1,0.4,1.8
				c0,0.8-0.2,1.6-0.5,2.3c-0.3,0.7-0.8,1.3-1.3,1.8c-0.6,0.5-1.3,0.9-2.2,1.2c-0.9,0.3-1.9,0.4-3,0.4c-0.6,0-1.2-0.1-1.8-0.2
				c-0.6-0.1-1.1-0.3-1.6-0.5s-1-0.4-1.5-0.7c-0.4-0.3-0.8-0.5-1.2-0.9l1-1.6c0.1-0.2,0.3-0.3,0.4-0.4c0.2-0.1,0.4-0.2,0.6-0.2
				c0.3,0,0.5,0.1,0.7,0.2c0.2,0.1,0.5,0.3,0.8,0.5c0.3,0.2,0.7,0.3,1.1,0.5s0.9,0.2,1.6,0.2c0.5,0,0.9-0.1,1.3-0.2
				c0.4-0.1,0.7-0.3,0.9-0.5c0.2-0.2,0.4-0.4,0.5-0.7s0.2-0.5,0.2-0.8c0-0.4-0.1-0.7-0.4-1s-0.6-0.5-1-0.7s-0.9-0.4-1.4-0.5
				s-1-0.3-1.6-0.5c-0.5-0.2-1.1-0.4-1.6-0.6c-0.5-0.2-1-0.6-1.4-0.9s-0.7-0.8-1-1.4c-0.2-0.5-0.4-1.2-0.4-2c0-0.7,0.1-1.4,0.4-2
				c0.3-0.6,0.7-1.2,1.2-1.7c0.5-0.5,1.2-0.9,2.1-1.2c0.8-0.3,1.8-0.4,2.8-0.4c1.2,0,2.3,0.2,3.3,0.6c1,0.4,1.8,0.9,2.5,1.6
				L780,255.6z"/>
		</g>
	</g>
	<line class="st31" x1="235.4" y1="198.4" x2="436.6" y2="129.9"/>
	<line class="st32" x1="324.4" y1="313.8" x2="515.1" y2="219.3"/>
	<line class="st32" x1="575.8" y1="304.5" x2="732.4" y2="328.5"/>
</g>
</svg>
