<?xml version="1.0" encoding="utf-8"?>
<!-- Generator: Adobe Illustrator 21.1.0, SVG Export Plug-In . SVG Version: 6.00 Build 0)  -->
<svg version="1.1" id="Calque_1" xmlns="http://www.w3.org/2000/svg" xmlns:xlink="http://www.w3.org/1999/xlink" x="0px" y="0px"
	 viewBox="0 0 2048 2048" style="enable-background:new 0 0 2048 2048;" xml:space="preserve">
<style type="text/css">
	.st0{fill:url(#SVGID_1_);}
	.st1{fill:#DCDCDC;}
	.st2{fill:#333333;stroke:#333333;}
	.st3{font-family:'Lato-Bold';}
	.st4{font-size:260px;}
	.st5{fill:#333333;}
</style>
<g>
	
		<linearGradient id="SVGID_1_" gradientUnits="userSpaceOnUse" x1="1024" y1="12.5" x2="1024" y2="2035.5" gradientTransform="matrix(1 0 0 -1 0 2048)">
		<stop  offset="0" style="stop-color:#E8E8E8"/>
		<stop  offset="1" style="stop-color:#F9F9F9"/>
	</linearGradient>
	<path class="st0" d="M50,2035.5c-20.7,0-37.5-16.8-37.5-37.5V50c0-20.7,16.8-37.5,37.5-37.5h1948c20.7,0,37.5,16.8,37.5,37.5v1948
		c0,20.7-16.8,37.5-37.5,37.5H50z"/>
	<path class="st1" d="M1998,25c13.8,0,25,11.2,25,25v1948c0,13.8-11.2,25-25,25H50c-13.8,0-25-11.2-25-25V50c0-13.8,11.2-25,25-25
		H1998 M1998,0H50C22.5,0,0,22.5,0,50v1948c0,27.5,22.5,50,50,50h1948c27.5,0,50-22.5,50-50V50C2048,22.5,2025.5,0,1998,0L1998,0z"
		/>
</g>
<text transform="matrix(1 0 0 1 212.5493 1812.1971)" class="st2 st3 st4">Configuration</text>
<path class="st5" d="M703.8,1131.1c0-12.1-4.4-22.6-13.3-31.5c-8.9-8.9-19.4-13.3-31.5-13.3s-22.6,4.4-31.5,13.3
	s-13.3,19.4-13.3,31.5s4.4,22.6,13.3,31.5c8.9,8.9,19.4,13.3,31.5,13.3s22.6-4.4,31.5-13.3C699.3,1153.7,703.8,1143.2,703.8,1131.1z
	 M1154.6,837.1l-477.4,477.4c-17.3,17.3-38.3,25.9-63,25.9c-24.3,0-45.5-8.6-63.7-25.9l-74.2-75.6c-17.7-16.8-26.6-37.8-26.6-63
	c0-24.7,8.9-46,26.6-63.7L953,635.5c18.2,45.7,44.9,86.2,80.1,121.5C1068.3,792.2,1108.8,818.9,1154.6,837.1z M1598.3,532.6
	c0,18.2-5.4,42.9-16.1,74.2c-21.9,62.5-60.3,113.3-115.2,152.2c-54.8,39-115.2,58.4-180.9,58.4c-86.3,0-160.2-30.7-221.6-92
	s-92-135.2-92-221.5s30.7-160.2,92-221.5s135.2-92.1,221.6-92.1c27.1,0,55.4,3.9,85,11.6c29.6,7.7,54.7,18.6,75.2,32.6
	c7.5,5.1,11.2,11.7,11.2,19.6c0,7.9-3.7,14.5-11.2,19.6L1241.2,392v156.8l135.1,74.9c2.3-1.4,20.8-12.7,55.3-34s66.2-40.1,94.8-56.7
	c28.7-16.6,45.2-24.8,49.3-24.8c7,0,12.5,2.3,16.5,7C1596.2,519.9,1598.3,525.6,1598.3,532.6z"/>
</svg>
