<?xml version="1.0" encoding="utf-8"?>
<!-- Generator: Adobe Illustrator 21.1.0, SVG Export Plug-In . SVG Version: 6.00 Build 0)  -->
<svg version="1.1" id="Calque_1" xmlns="http://www.w3.org/2000/svg" xmlns:xlink="http://www.w3.org/1999/xlink" x="0px" y="0px"
	 viewBox="0 0 821.4 869.4" style="enable-background:new 0 0 821.4 869.4;" xml:space="preserve">
<style type="text/css">
	.st0{fill:#666666;}
</style>
<path class="st0" d="M821.4,434.7c0,13.2-5,26-14.3,35.3L555,722.1c-9.3,8.9-22.1,14.3-35.3,14.3c-13.2,0-25.5-5.4-34.8-14.3
	L455.8,693c-9.2-9.3-14.7-22.1-14.7-35.3c0-13.2,5.5-25.9,14.7-35.2l113.5-113.5H45.3C17.4,509.1,0,485.9,0,459.5v-49.6
	c0-26.3,17.4-49.6,45.3-49.6h523.9L455.8,246.5c-9.2-8.9-14.7-21.7-14.7-34.8c0-13.2,5.5-26,14.7-34.8l29.1-29.1
	c9.3-9.3,21.7-14.7,34.8-14.7c13.2,0,26,5.4,35.3,14.7l252.1,252.1C816.4,408.7,821.4,421.5,821.4,434.7L821.4,434.7z"/>
</svg>
