<?xml version="1.0" encoding="utf-8"?>
<!-- Generator: Adobe Illustrator 21.1.0, SVG Export Plug-In . SVG Version: 6.00 Build 0)  -->
<svg version="1.1" id="Calque_1" xmlns="http://www.w3.org/2000/svg" xmlns:xlink="http://www.w3.org/1999/xlink" x="0px" y="0px"
	 viewBox="0 0 1149.7 731.7" style="enable-background:new 0 0 1149.7 731.7;" xml:space="preserve">
<style type="text/css">
	.st0{fill:#333333;}
</style>
<path class="st0" d="M783.8,418.1c-15.2,0-32.4,0-50.7,2.6c60.6,43.9,103,101.9,103,180.3v130.7h313.6V601
	C1149.7,479.3,905.6,418.1,783.8,418.1 M365.8,418.1C244,418.1,0,479.2,0,601v130.7h731.7V601C731.6,479.3,487.5,418.1,365.8,418.1
	 M365.8,313.6c86.6,0,156.8-70.2,156.8-156.8S452.3,0,365.8,0S209,70.2,209,156.8S279.2,313.6,365.8,313.6 M783.8,313.6
	c86.6,0,156.8-70.2,156.8-156.8S870.4,0,783.8,0C697.2,0,627,70.2,627,156.8S697.3,313.6,783.8,313.6z"/>
</svg>
