<?xml version="1.0" encoding="utf-8"?>
<!-- Generator: Adobe Illustrator 20.0.0, SVG Export Plug-In . SVG Version: 6.00 Build 0)  -->
<svg version="1.1" id="Layer_1" xmlns="http://www.w3.org/2000/svg" xmlns:xlink="http://www.w3.org/1999/xlink" x="0px" y="0px"
	 viewBox="0 0 758.8 546.2" style="enable-background:new 0 0 758.8 546.2;" xml:space="preserve">
<style type="text/css">
	.st0{fill:none;stroke:#000000;stroke-width:4.7472;stroke-miterlimit:10;}
	.st1{font-family:'Montserrat-Bold';}
	.st2{font-size:19.7249px;}
	.st3{fill:none;stroke:#000000;stroke-width:4.3709;stroke-miterlimit:10;}
	.st4{fill:none;stroke:#000000;stroke-width:4.252;stroke-miterlimit:10;}
	.st5{fill:none;stroke:#000000;stroke-width:4.2058;stroke-miterlimit:10;}
</style>
<path d="M185.9,110.9c-16.4-13.4-34-22.4-37.6-24.1c-0.4-0.2-0.6-0.6-0.6-1.1V60.2c3.2-2.2,5.3-5.8,5.3-9.9V23.8
	c0-13.2-10.7-23.8-23.8-23.8h-5.7c-13.2,0-23.8,10.7-23.8,23.8v26.4c0,4.1,2.1,7.8,5.3,9.9v25.5c0,0.5-0.3,0.9-0.6,1.1
	c-3.6,1.8-21.3,10.7-37.6,24.1c-3,2.4-4.7,6.1-4.7,9.9v18.1h55.8l5.5-25.3c-11.2-15.6,0.8-16.3,2.9-16.3c2.1,0,14.1,0.8,2.9,16.3
	l5.5,25.3h55.8v-18.1C190.5,117,188.8,113.3,185.9,110.9L185.9,110.9z M185.9,110.9"/>
<g>
	<path d="M518.6,399.3"/>
	<path d="M756,404.5H389.5c-1.6,0-2.9-1-2.9-2.2s1.3-2.2,2.9-2.2H756c1.6,0,2.9,1,2.9,2.2S757.5,404.5,756,404.5z"/>
	<g>
		<path d="M477.8,402.1h-4.3V288.8c0-1.3-0.7-2.4-1.8-3.1l-28.8-16.7c-1.1-0.6-2.5-0.6-3.6,0l-28.8,16.7c-1.1,0.6-1.8,1.8-1.8,3.1
			v113.2h-4.3V288.8c0-2.8,1.5-5.4,3.9-6.7l28.8-16.7c2.4-1.4,5.4-1.4,7.8,0l28.8,16.7c2.4,1.4,3.9,4,3.9,6.7V402.1z"/>
		<path d="M530.5,332.6l-4.3,2.8v-78.3c0-1.3-0.7-2.4-1.8-3.1l-28.8-16.7c-1.1-0.6-2.5-0.6-3.6,0L463.3,254
			c-1.1,0.6-1.8,1.8-1.8,3.1v19.5h-4.3v-19.5c0-2.8,1.5-5.4,3.9-6.7l28.8-16.7c2.4-1.4,5.4-1.4,7.8,0l28.8,16.7
			c2.4,1.4,3.9,4,3.9,6.7V332.6z"/>
		<g>
			<path d="M560.7,345.9h9c1.2,0,2.1-1,2.1-2.1v-8.9c0-1.2-1-2.1-2.1-2.1h-8.9c-1.2,0-2.1,1-2.1,2.1v9
				C558.6,344.9,559.6,345.9,560.7,345.9L560.7,345.9z M562.9,336.9h4.7c0,0,0,0,0,0v4.7c0,0,0,0,0,0h-4.7c0,0,0,0,0,0L562.9,336.9
				C562.8,336.9,562.9,336.9,562.9,336.9z M562.8,336.9"/>
			<path d="M542.7,345.9h9c1.2,0,2.1-1,2.1-2.1v-8.9c0-1.2-1-2.1-2.1-2.1h-8.9c-1.2,0-2.1,1-2.1,2.1v9
				C540.6,344.9,541.6,345.9,542.7,345.9L542.7,345.9z M544.9,336.9h4.7c0,0,0,0,0,0v4.7c0,0,0,0,0,0h-4.7c0,0,0,0,0,0L544.9,336.9
				C544.8,336.9,544.9,336.9,544.9,336.9z M544.8,336.9"/>
			<path d="M578.7,345.9h9c1.2,0,2.1-1,2.1-2.1v-8.9c0-1.2-1-2.1-2.1-2.1h-8.9c-1.2,0-2.1,1-2.1,2.1v9
				C576.6,344.9,577.6,345.9,578.7,345.9L578.7,345.9z M580.9,336.9h4.7c0,0,0,0,0,0v4.7c0,0,0,0,0,0h-4.7c0,0,0,0,0,0L580.9,336.9
				C580.9,336.9,580.9,336.9,580.9,336.9z M580.9,336.9"/>
			<path d="M610.8,372.7h-81.3c0,0,0,0,0,0V368c0,0,0,0,0,0h81.3c0,0,0,0,0,0L610.8,372.7C610.9,372.7,610.8,372.7,610.8,372.7z
				 M529.6,377h81.3c0,0,0,0,0,0v4.7c0,0,0,0,0,0h-81.3c0,0,0,0,0,0L529.6,377C529.5,377,529.6,377,529.6,377z M610.8,363.7h-81.3
				c0,0,0,0,0,0V359c0,0,0,0,0,0h81.3c0,0,0,0,0,0L610.8,363.7C610.9,363.7,610.8,363.7,610.8,363.7z M529.6,386h81.3c0,0,0,0,0,0
				v4.7c0,0,0,0,0,0h-81.3c0,0,0,0,0,0L529.6,386C529.5,386,529.6,386,529.6,386z M529.5,399.7V395c0,0,0,0,0,0h81.3c0,0,0,0,0,0
				v4.7c0,0,0,0,0,0L529.5,399.7C529.6,399.7,529.5,399.7,529.5,399.7z M513.7,349.6l23.7-20.1c0,0,0,0,0,0l32.7-8.7c0,0,0,0,0,0
				l32.8,8.7c0,0,0,0,0,0l23.7,20.1c0,0.2-0.1,0.3-0.1,0.5v49.6c0,0,0,0,0,0h-11.5c0,0,0,0,0,0v-42.8c0-1.2-1-2.1-2.1-2.1h-85.5
				c-1.2,0-2.1,1-2.1,2.1v42.8c0,0,0,0,0,0h-11.5c0,0,0,0,0,0v-49.6C513.8,349.9,513.8,349.7,513.7,349.6L513.7,349.6z M630.2,403.3
				c0.7-0.6,0.6-1.4,0.6-1.4v-48.9l1,0.9c0.4,0.3,0.9,0.5,1.4,0.5c0.6,0,1.2-0.2,1.6-0.8c0.8-0.9,0.6-2.2-0.2-3L605.3,326
				c-0.2-0.2-0.5-0.4-0.8-0.4l-33.8-9c-0.4-0.1-0.7-0.1-1.1,0l-33.8,9c-0.3,0.1-0.6,0.2-0.8,0.4l-29.3,24.8c-0.9,0.8-1,2.2-0.1,3.1
				c0.8,0.8,2.1,0.7,3,0l0.9-0.8v50.9c0,0,0,0,0,0h119.2C628.8,404,629.5,404,630.2,403.3z"/>
		</g>
	</g>
</g>
<path d="M419.6,395.4c-16.4-13.4-34-22.4-37.6-24.2c-0.4-0.2-0.7-0.6-0.7-1.1v-25.5c3.2-2.1,5.3-5.8,5.3-9.9v-26.4
	c0-13.2-10.7-23.8-23.8-23.8h-5.7c-13.2,0-23.8,10.7-23.8,23.8v26.4c0,4.1,2.1,7.8,5.3,9.9v25.5c0,0.5-0.2,0.9-0.7,1.1
	c-3.6,1.7-21.3,10.7-37.6,24.2c-3,2.4-4.7,6.1-4.7,9.9v18.1h128.5v-18.1C424.2,401.5,422.5,397.8,419.6,395.4L419.6,395.4z
	 M419.6,395.4"/>
<path class="st0" d="M226.8,191.4H25.7c-5.4,0-9.7-4.4-9.7-9.7v-32.1c0-5.4,4.4-9.7,9.7-9.7h201.1c5.4,0,9.7,4.4,9.7,9.7v32.1
	C236.5,187,232.2,191.4,226.8,191.4z"/>
<text transform="matrix(1 0 0 1 30.8595 174.1512)" class="st1 st2">Utilisateur Ekylibre</text>
<path class="st3" d="M734.8,292.4H565.7c-5,0-9-4-9-9v-33.7c0-5,4-9,9-9h169.1c5,0,9,4,9,9v33.7
	C743.7,288.4,739.7,292.4,734.8,292.4z"/>
<text transform="matrix(1 0 0 1 572.3455 275.151)" class="st1 st2">Ferme de Kevin</text>
<text transform="matrix(1 0 0 1 0 226.1512)" class="st1 st2">kevin-durant@gmail.com</text>
<text transform="matrix(1 0 0 1 5.0104 258.1512)" class="st1 st2">mot-de-passe : ABCDEF</text>
<text transform="matrix(1 0 0 1 233.3916 509.4845)" class="st1 st2">kevin-durant@gmail.com</text>
<text transform="matrix(1 0 0 1 236.2215 541.4845)" class="st1 st2">mot-de-passe : UVWXYZ</text>
<path class="st4" d="M440,474.7H280.5c-4.8,0-8.7-3.9-8.7-8.7v-34.2c0-4.8,3.9-8.7,8.7-8.7H440c4.8,0,8.7,3.9,8.7,8.7V466
	C448.7,470.8,444.8,474.7,440,474.7z"/>
<text transform="matrix(1 0 0 1 327.1429 457.4845)" class="st1 st2">Admin</text>
<path class="st5" d="M207.8,123.5h270c9.4,0,17,7.6,17,17v80.7"/>
<rect x="671.8" y="292.4" class="st4" width="16.7" height="109.8"/>
</svg>
