<?xml version="1.0" encoding="utf-8"?>
<!-- Generator: Adobe Illustrator 21.1.0, SVG Export Plug-In . SVG Version: 6.00 Build 0)  -->
<svg version="1.1" id="Calque_1" xmlns="http://www.w3.org/2000/svg" xmlns:xlink="http://www.w3.org/1999/xlink" x="0px" y="0px"
	 viewBox="0 0 105.4 30.7" style="enable-background:new 0 0 105.4 30.7;" xml:space="preserve">
<style type="text/css">
	.st0{fill:#B6C9EC;}
	.st1{fill:#D1DDF3;}
	.st2{fill:#FFFFFF;}
</style>
<path class="st0" d="M105.4,10.6H66.3C64.7,4.5,59.3,0,52.7,0S40.6,4.5,39.1,10.6H0v6.8h39.1c1.5,6.1,7,10.6,13.6,10.6
	s12.1-4.5,13.6-10.6h39.1V10.6z"/>
<circle class="st1" cx="52.7" cy="14" r="9.1"/>
<circle class="st2" cx="52.7" cy="14" r="7"/>
<path d="M55.7,16.7c-0.3,0-0.6,0.1-0.8,0.3c-0.2,0.2-0.3,0.5-0.3,0.8v7.5l-1.3-1.7c-0.2-0.3-0.5-0.5-0.9-0.5c-0.3,0-0.5,0.1-0.7,0.3
	s-0.3,0.5-0.3,0.8c0,0.2,0.1,0.5,0.2,0.6l3.2,4.3c0.2,0.3,0.5,0.4,0.9,0.4h6c0.1,0,0.2,0,0.3-0.1c0.1-0.1,0.2-0.2,0.2-0.3l0.8-3.1
	c0.1-0.5,0.2-1.1,0.2-1.6v-1.8c0-0.2-0.1-0.4-0.2-0.6s-0.3-0.3-0.6-0.3c-0.2,0-0.4,0.1-0.6,0.2c-0.2,0.2-0.2,0.3-0.2,0.6h-0.3v-0.5
	c0-0.3-0.1-0.5-0.3-0.7s-0.4-0.3-0.7-0.3c-0.3,0-0.5,0.1-0.7,0.3c-0.2,0.2-0.3,0.4-0.3,0.7v0.5h-0.3v-0.8c0-0.3-0.1-0.6-0.3-0.8
	c-0.2-0.2-0.5-0.3-0.8-0.3c-0.3,0-0.6,0.1-0.8,0.3c-0.2,0.2-0.3,0.5-0.3,0.8v0.8h-0.3v-4.8c0-0.3-0.1-0.6-0.3-0.8
	C56.3,16.8,56,16.7,55.7,16.7z M55.7,15.6c0.6,0,1.1,0.2,1.5,0.7c0.4,0.4,0.6,1,0.6,1.6v1.9c0.1,0,0.2,0,0.3,0c0.6,0,1,0.2,1.5,0.6
	c0.3-0.1,0.5-0.2,0.8-0.2c0.6,0,1.2,0.2,1.5,0.7c0.2,0,0.3-0.1,0.5-0.1c0.5,0,1,0.2,1.3,0.6c0.4,0.4,0.5,0.8,0.5,1.4v1.8
	c0,0.7-0.1,1.3-0.2,1.9l-0.8,3.1c-0.1,0.4-0.3,0.7-0.6,0.9s-0.6,0.3-1,0.3h-6c-0.3,0-0.7-0.1-1-0.2s-0.6-0.4-0.8-0.6l-3.2-4.3
	c-0.3-0.4-0.4-0.8-0.4-1.3c0-0.6,0.2-1.1,0.6-1.5c0.4-0.4,0.9-0.6,1.5-0.6c0.4,0,0.8,0.1,1.1,0.3v-4.6c0-0.6,0.2-1.1,0.6-1.5
	S55.1,15.6,55.7,15.6z"/>
<path class="st2" d="M55.7,16.7c-0.3,0-0.6,0.1-0.8,0.3c-0.2,0.2-0.3,0.5-0.3,0.8v7.5l-1.3-1.7c-0.2-0.3-0.5-0.5-0.9-0.5
	c-0.3,0-0.5,0.1-0.7,0.3s-0.3,0.5-0.3,0.8c0,0.2,0.1,0.5,0.2,0.6l3.2,4.3c0.2,0.3,0.5,0.4,0.9,0.4h6c0.1,0,0.2,0,0.3-0.1
	c0.1-0.1,0.2-0.2,0.2-0.3l0.8-3.1c0.1-0.5,0.2-1.1,0.2-1.6v-1.8c0-0.2-0.1-0.4-0.2-0.6s-0.3-0.3-0.6-0.3c-0.2,0-0.4,0.1-0.6,0.2
	c-0.2,0.2-0.2,0.3-0.2,0.6h-0.3v-0.5c0-0.3-0.1-0.5-0.3-0.7s-0.4-0.3-0.7-0.3c-0.3,0-0.5,0.1-0.7,0.3c-0.2,0.2-0.3,0.4-0.3,0.7v0.5
	h-0.3v-0.8c0-0.3-0.1-0.6-0.3-0.8c-0.2-0.2-0.5-0.3-0.8-0.3c-0.3,0-0.6,0.1-0.8,0.3c-0.2,0.2-0.3,0.5-0.3,0.8v0.8h-0.3v-4.8
	c0-0.3-0.1-0.6-0.3-0.8C56.3,16.8,56,16.7,55.7,16.7z"/>
<rect x="57.4" y="25" width="0.3" height="3.2"/>
<rect x="59.5" y="25" width="0.3" height="3.2"/>
<rect x="61.7" y="25" width="0.3" height="3.2"/>
</svg>
