<?xml version="1.0" encoding="utf-8"?>
<!-- Generator: Adobe Illustrator 23.0.2, SVG Export Plug-In . SVG Version: 6.00 Build 0)  -->
<svg version="1.1" id="Calque_1" xmlns="http://www.w3.org/2000/svg" xmlns:xlink="http://www.w3.org/1999/xlink" x="0px" y="0px"
	 viewBox="0 0 3000 1208.7" style="enable-background:new 0 0 3000 1208.7;" xml:space="preserve">
<style type="text/css">
	.st0{fill:#688ED8;}
	.st1{fill:#FFFFFF;}
	.st2{fill:#D81E08;}
</style>
<rect class="st0" width="3000" height="1208.7"/>
<path class="st1" d="M2074.3,1075.6c0-4.1-3.2-7.3-7.3-7.3c-36.2,0-66.1-29.8-66.1-66.1c0-4.1-3.2-7.3-7.3-7.3s-7.3,3.2-7.3,7.3
	c0,44.5,36.2,80.8,80.7,80.8C2071.1,1082.9,2074.3,1079.7,2074.3,1075.6L2074.3,1075.6z M1768.9,943.5H2365
	c-82.1-92.6-122-218.3-122-381.6c0-59.2-56-146.7-176.1-146.7c-120.1,0-176.1,87.5-176.1,146.7
	C1890.9,725.2,1851,850.9,1768.9,943.5L1768.9,943.5z M2448.6,943.5c0,32.1-26.6,58.7-58.7,58.7h-205.5
	c0,64.7-52.8,117.4-117.4,117.4c-64.6,0-117.4-52.8-117.4-117.4h-205.5c-32.1,0-58.7-26.5-58.7-58.7
	c67.9-57.3,146.8-160,146.8-381.6c0-88,72.9-184.3,194.4-202.2c-2.3-5.5-3.7-11.4-3.7-17.8c0-24.3,19.7-44,44-44
	c24.3,0,44,19.7,44,44c0,6.4-1.4,12.3-3.7,17.8c121.5,17.9,194.4,114.2,194.4,202.2C2301.8,783.5,2380.7,886.2,2448.6,943.5
	L2448.6,943.5z"/>
<path class="st1" d="M565.3,1075.6c0-4.1-3.2-7.3-7.3-7.3c-36.2,0-66.1-29.8-66.1-66.1c0-4.1-3.2-7.3-7.3-7.3s-7.3,3.2-7.3,7.3
	c0,44.5,36.2,80.8,80.7,80.8C562.1,1082.9,565.3,1079.7,565.3,1075.6L565.3,1075.6z M259.9,943.5H856
	c-82.1-92.6-122-218.3-122-381.6c0-59.2-56-146.7-176.1-146.7s-176.1,87.5-176.1,146.7C381.9,725.2,342,850.9,259.9,943.5
	L259.9,943.5z M939.6,943.5c0,32.1-26.6,58.7-58.7,58.7H675.4c0,64.7-52.8,117.4-117.4,117.4s-117.4-52.8-117.4-117.4H235.1
	c-32.1,0-58.7-26.5-58.7-58.7c67.9-57.3,146.8-160,146.8-381.6c0-88,72.9-184.3,194.4-202.2c-2.3-5.5-3.7-11.4-3.7-17.8
	c0-24.3,19.7-44,44-44s44,19.7,44,44c0,6.4-1.4,12.3-3.7,17.8c121.5,17.9,194.4,114.2,194.4,202.2
	C792.8,783.5,871.7,886.2,939.6,943.5L939.6,943.5z"/>
<g>
	<g>
		<circle class="st2" cx="2524.3" cy="300" r="300"/>
	</g>
	<g>
		<path class="st1" d="M2442.5,426.7h68.9V228.6c0-7.7,0.2-15.7,0.7-24.2l-48.9,40.9c-2,1.7-4.1,2.9-6.2,3.5
			c-2.1,0.6-4.2,0.9-6.2,0.9c-3.1,0-6-0.7-8.6-2c-2.6-1.3-4.5-2.9-5.8-4.6l-18.3-25.1l103.6-88.1h47.7v296.8h61.1v43.5h-188V426.7z"
			/>
	</g>
</g>
<path class="st1" d="M1499.7,588.2L1305,393.6c-4.5-4.5-9.9-6.8-16.1-6.8s-11.6,2.3-16.1,6.8c-4.5,4.5-6.8,9.9-6.8,16.1v161.9
	h-140.3v65.5H1266V799c0,6.2,2.3,11.6,6.8,16.1c4.5,4.5,9.9,6.8,16.1,6.8c6.2,0,11.6-2.3,16.1-6.8l194.7-194.7
	c4.5-4.5,6.8-9.9,6.8-16.1C1506.5,598.1,1504.2,592.8,1499.7,588.2z"/>
</svg>
