<?xml version="1.0" encoding="utf-8"?>
<!-- Generator: Adobe Illustrator 22.0.1, SVG Export Plug-In . SVG Version: 6.00 Build 0)  -->
<svg version="1.1" id="Calque_1" xmlns="http://www.w3.org/2000/svg" xmlns:xlink="http://www.w3.org/1999/xlink" x="0px" y="0px"
	 viewBox="0 0 642.6 857.2" style="enable-background:new 0 0 642.6 857.2;" xml:space="preserve">
<style type="text/css">
	.st0{fill:#333333;}
</style>
<path class="st0" d="M545.9,460.7V139.6H321.1v570.6c25.6-13.6,66.9-37.1,107-68.8C481.8,599.2,545.9,533.5,545.9,460.7L545.9,460.7
	z M642.3,75.3v385.4c0,211.2-295.6,344.7-308,350.2c-4,2.1-8.5,3-13.2,3c-4.6,0-9-1-13.1-3c-12.5-5.5-308-139-308-350.2V75.3
	c0-17.5,14.6-32.1,32.1-32.1h578C627.7,43.2,642.3,57.8,642.3,75.3z"/>
</svg>
