<?xml version="1.0" encoding="utf-8"?>
<!-- Generator: Adobe Illustrator 21.1.0, SVG Export Plug-In . SVG Version: 6.00 Build 0)  -->
<svg version="1.1" id="Calque_1" xmlns="http://www.w3.org/2000/svg" xmlns:xlink="http://www.w3.org/1999/xlink" x="0px" y="0px"
	 viewBox="0 0 267.5 200" style="enable-background:new 0 0 267.5 200;" xml:space="preserve">
<style type="text/css">
	.st0{fill:#83E054;}
	.st1{fill:none;stroke:#000000;stroke-width:18;stroke-linecap:round;stroke-miterlimit:10;}
</style>
<g>
	<circle class="st0" cx="133.8" cy="100" r="100"/>
</g>
<g>
	<path class="st1" d="M133.8,100"/>
	<path d="M45.5,197.2c-2.3,0-4.6-0.9-6.4-2.6C13.9,169.3,0,135.7,0,100S13.9,30.7,39.2,5.4c3.5-3.5,9.2-3.5,12.7,0s3.5,9.2,0,12.7
		C30,40,18,69.1,18,100s12,60,33.9,81.9c3.5,3.5,3.5,9.2,0,12.7C50.1,196.3,47.8,197.2,45.5,197.2z"/>
	<path class="st1" d="M133.8,100"/>
	<path d="M222,197.2c-2.3,0-4.6-0.9-6.4-2.6c-3.5-3.5-3.5-9.2,0-12.7c21.9-21.9,33.9-50.9,33.9-81.9c0-30.9-12-60-33.9-81.9
		c-3.5-3.5-3.5-9.2,0-12.7s9.2-3.5,12.7,0c25.3,25.3,39.2,58.9,39.2,94.6s-13.9,69.3-39.2,94.6C226.6,196.3,224.3,197.2,222,197.2z"
		/>
</g>
</svg>
