<?xml version="1.0" encoding="utf-8"?>
<!-- Generator: Adobe Illustrator 23.0.2, SVG Export Plug-In . SVG Version: 6.00 Build 0)  -->
<svg version="1.1" id="Calque_1" xmlns="http://www.w3.org/2000/svg" xmlns:xlink="http://www.w3.org/1999/xlink" x="0px" y="0px"
	 viewBox="0 0 918 1000" style="enable-background:new 0 0 918 1000;" xml:space="preserve">
<path d="M556.8,467.4c0-17.8-14.7-32.6-32.6-32.6H393.8c-17.9,0-32.6,14.8-32.6,32.6s14.7,32.6,32.6,32.6h130.4
	C542.1,500,556.8,485.2,556.8,467.4z M850.4,369.5v489.3c0,17.8-14.8,32.6-32.6,32.6H100.2c-17.8,0-32.6-14.8-32.6-32.6V369.5
	c0-17.8,14.8-32.6,32.6-32.6h717.6C835.6,336.9,850.4,351.7,850.4,369.5z M883,141.2v130.5c0,17.8-14.8,32.6-32.6,32.6H67.6
	c-17.8,0-32.6-14.8-32.6-32.6V141.2c0-17.8,14.8-32.6,32.6-32.6h782.8C868.2,108.6,883,123.4,883,141.2L883,141.2z"/>
</svg>
