<?xml version="1.0" encoding="utf-8"?>
<!-- Generator: Adobe Illustrator 24.3.0, SVG Export Plug-In . SVG Version: 6.00 Build 0)  -->
<svg version="1.1" id="Calque_1" xmlns="http://www.w3.org/2000/svg" xmlns:xlink="http://www.w3.org/1999/xlink" x="0px" y="0px"
	 viewBox="0 0 30 30" style="enable-background:new 0 0 30 30;" xml:space="preserve">
<style type="text/css">
	.st0{fill:#00C05E;}
	.st1{fill:#A31F46;}
	.st2{fill:#005E2D;}
	.st3{fill:#781628;}
</style>
<g>
	<path class="st0" d="M15,3 M15,0L15,0C6.7157335,0,0,6.715734,0,15h3C3,8.3831787,8.3831778,3,15,3V0z"/>
	<path class="st1" d="M15,3 M15,3c6.6168213,0,12,5.3831787,12,12.000001h3C30,6.715734,23.2842674,0,15,0l0,0V3z"/>
	<path class="st2" d="M15,27.0000019 M15,27.0000019c-6.6168222,0-12-5.3831787-12-12.000001H0
		c0,8.2842665,6.7157335,15.000001,15,15.000001l0,0V27.0000019z"/>
	<path class="st3" d="M15,27.0000019 M15,30.0000019L15,30.0000019c8.2842674,0,15-6.7157345,15-15.000001h-3
		c0,6.6168222-5.3831787,12.000001-12,12.000001V30.0000019z"/>
</g>
</svg>
