<?xml version="1.0" encoding="utf-8"?>
<!-- Generator: Adobe Illustrator 24.3.0, SVG Export Plug-In . SVG Version: 6.00 Build 0)  -->
<svg version="1.1" id="Calque_1" xmlns="http://www.w3.org/2000/svg" xmlns:xlink="http://www.w3.org/1999/xlink" x="0px" y="0px"
	 viewBox="0 0 30 30" style="enable-background:new 0 0 30 30;" xml:space="preserve">
<style type="text/css">
	.st0{fill:#00C05E;}
	.st1{fill:#005E2D;}
	.st2{fill:#A31F46;}
</style>
<g>
	<path class="st0" d="M15,3c4.4328613,0,8.3026733,2.4223633,10.3804932,6.0068359l2.5999146-1.5010986
		C25.3865356,3.0233765,20.5512695,0,15,0S4.6134644,3.0233765,2.0195923,7.5057373l2.5999146,1.5010986
		C6.6973267,5.4223633,10.5671387,3,15,3z"/>
</g>
<g>
	<path class="st1" d="M4.6076808,21.0000248c-2.2164307-3.8389702-2.0535085-8.4015074,0.011826-11.9931889L2.0195601,7.5057931
		c-2.5849023,4.4875398-2.7855902,10.1866913-0.0099554,14.9942322s7.8115892,7.4833145,12.9903631,7.4884949L15,26.9863777
		C10.8568459,26.9791698,6.8241115,24.838995,4.6076808,21.0000248z"/>
</g>
<g>
	<path class="st2" d="M25.3923187,21.0000248c2.2164307-3.8389702,2.0535088-8.4015074-0.0118256-11.9931889l2.599947-1.5010428
		c2.5849018,4.4875398,2.7855892,10.1866913,0.0099545,14.9942322s-7.8115883,7.4833145-12.9903622,7.4884949L15,26.9863777
		C19.1431541,26.9791698,23.1758881,24.838995,25.3923187,21.0000248z"/>
</g>
</svg>
