<?xml version="1.0" encoding="utf-8"?>
<!-- Generator: Adobe Illustrator 22.0.1, SVG Export Plug-In . SVG Version: 6.00 Build 0)  -->
<svg version="1.1" id="Calque_1" xmlns="http://www.w3.org/2000/svg" xmlns:xlink="http://www.w3.org/1999/xlink" x="0px" y="0px"
	 viewBox="0 0 818.1 909" style="enable-background:new 0 0 818.1 909;" xml:space="preserve">
<style type="text/css">
	.st0{fill:#688ED8;}
</style>
<path class="st0" d="M196,794.4l49.1-49.1L118.3,618.4l-49.1,49.1v57.8h69.1v69.1L196,794.4L196,794.4z M478.4,293.3
	c0-7.9-4-11.9-11.9-11.9c-3.6,0-6.7,1.3-9.2,3.8L164.7,577.9c-2.5,2.5-3.8,5.6-3.8,9.2c0,7.9,4,11.9,11.9,11.9
	c3.6,0,6.7-1.3,9.2-3.8l292.7-292.7C477.2,300,478.4,296.9,478.4,293.3z M449.3,189.6l224.6,224.6L224.6,863.5H0V638.9L449.3,189.6z
	 M818.1,241.5c0,19.1-6.7,35.3-20,48.6l-89.6,89.6L483.8,155.1L573.5,66c13-13.7,29.2-20.5,48.6-20.5c19.1,0,35.5,6.8,49.1,20.5
	l126.9,126.4C811.4,206.4,818.1,222.8,818.1,241.5z"/>
</svg>
