<?xml version="1.0" encoding="utf-8"?>
<!-- Generator: Adobe Illustrator 23.0.2, SVG Export Plug-In . SVG Version: 6.00 Build 0)  -->
<svg version="1.1" id="Calque_1" xmlns="http://www.w3.org/2000/svg" xmlns:xlink="http://www.w3.org/1999/xlink" x="0px" y="0px"
	 viewBox="0 0 818.1 909" style="enable-background:new 0 0 818.1 909;" xml:space="preserve">
<style type="text/css">
	.st0{fill:#688ED8;}
</style>
<path class="st0" d="M228.3,742.8l41.6-41.6L162.4,593.5l-41.6,41.6v49h58.6v58.6H228.3L228.3,742.8z M467.9,317.8
	c0-6.7-3.4-10.1-10.1-10.1c-3.1,0-5.7,1.1-7.8,3.2L201.8,559.2c-2.1,2.1-3.2,4.7-3.2,7.8c0,6.7,3.4,10.1,10.1,10.1
	c3.1,0,5.7-1.1,7.8-3.2l248.3-248.3C466.9,323.5,467.9,320.8,467.9,317.8z M443.2,229.8l190.5,190.5L252.6,801.4H62.1V610.9
	L443.2,229.8z M756,273.8c0,16.2-5.7,29.9-17,41.2l-76,76L472.5,200.6l76.1-75.6c11-11.6,24.8-17.4,41.2-17.4
	c16.2,0,30.1,5.8,41.6,17.4L739,232.2C750.3,244.1,756,258,756,273.8z"/>
</svg>
