<?xml version="1.0" encoding="utf-8"?>
<!-- Generator: Adobe Illustrator 23.0.2, SVG Export Plug-In . SVG Version: 6.00 Build 0)  -->
<svg version="1.1" id="Calque_1" xmlns="http://www.w3.org/2000/svg" xmlns:xlink="http://www.w3.org/1999/xlink" x="0px" y="0px"
	 viewBox="0 0 913.4000244 292" style="enable-background:new 0 0 913.4000244 292;" xml:space="preserve">
<style type="text/css">
	.st0{fill:url(#SVGID_1_);}
	.st1{fill:url(#SVGID_2_);}
	.st2{fill:#FFFFFF;}
	.st3{fill:#333333;}
	.st4{fill:#3A3A3A;}
</style>
<g>
	
		<linearGradient id="SVGID_1_" gradientUnits="userSpaceOnUse" x1="227.1999969" y1="-728" x2="227.1999969" y2="-436" gradientTransform="matrix(-1 0 0 -1 683.9000244 -436)">
		<stop  offset="0" style="stop-color:#BBBBBB"/>
		<stop  offset="1" style="stop-color:#DCDCDC"/>
	</linearGradient>
	<path class="st0" d="M24.9999943,282c-8,0-15.000001-7-15.000001-15V25c0-8,7.000001-15,15.000001-15h863.5c8,0,15,7,15,15v242
		c0,8-7,15-15,15H24.9999943z M888.4000244,292c14,0,25-11,25-25V25c0-14-11-25-25-25H24.9999943c-14.000001,0-25,11-25,25v242
		c0,14,11,25,25,25H888.4000244z"/>
</g>
<linearGradient id="SVGID_2_" gradientUnits="userSpaceOnUse" x1="227.1999969" y1="488" x2="227.1999969" y2="216" gradientTransform="matrix(-1 0 0 1 683.9000244 -206)">
	<stop  offset="0" style="stop-color:#E8E8E8"/>
	<stop  offset="1" style="stop-color:#F9F9F9"/>
</linearGradient>
<path class="st1" d="M24.9500065,282c-8,0-15.000001-7-15.000001-15V25c0-8,7.000001-15,15.000001-15h863.5c8,0,15,7,15,15v242
	c0,8-7,15-15,15H24.9500065z"/>
<g>
	<g>
		<path class="st2" d="M1291.9682617,166.0054779c0.6757812,1.6103516,1.3408203,3.2324219,1.9951172,4.8652344
			c0.6533203-1.6806641,1.3300781-3.3359375,2.0302734-4.9707031c0.7001953-1.6328125,1.4453125-3.1953125,2.2392578-4.6894531
			l29.9609375-56.0698242c0.3720703-0.7001953,0.7578125-1.2602539,1.1542969-1.6801758s0.8398438-0.7226562,1.3300781-0.909668
			c0.4902344-0.1860352,1.0380859-0.3032227,1.6455078-0.3500977c0.6054688-0.0458984,1.3300781-0.0703125,2.1699219-0.0703125
			h14.2099609v101.2197266h-16.5898438v-65.3793945c0-1.2128906,0.0341797-2.5429688,0.1044922-3.9902344
			c0.0703125-1.4458008,0.1748047-2.9160156,0.3154297-4.409668l-30.5898438,57.3994141
			c-0.7001953,1.3066406-1.6103516,2.3222656-2.7304688,3.0449219c-1.1201172,0.7236328-2.4267578,1.0849609-3.9199219,1.0849609
			h-2.5898438c-1.4941406,0-2.7998047-0.3613281-3.9199219-1.0849609c-1.1201172-0.7226562-2.0302734-1.7382812-2.7304688-3.0449219
			l-31.0097656-57.6098633c0.1855469,1.5400391,0.3144531,3.0454102,0.3847656,4.5151367
			c0.0703125,1.4702148,0.1054688,2.8349609,0.1054688,4.0952148v65.3793945h-16.5898438V102.1304779h14.2099609
			c0.8398438,0,1.5625,0.0244141,2.1699219,0.0703125c0.6054688,0.046875,1.1542969,0.1640625,1.6445312,0.3500977
			c0.4902344,0.1870117,0.9453125,0.4897461,1.3652344,0.909668s0.8154297,0.9799805,1.1894531,1.6801758l30.2402344,56.2094727
			C1290.5561523,162.8443451,1291.2915039,164.3951263,1291.9682617,166.0054779z"/>
		<path class="st2" d="M1398.8227539,130.4107513c5.3662109,0,10.2304688,0.8637695,14.5947266,2.5898438
			c4.3632812,1.7270508,8.0849609,4.1772461,11.1650391,7.3500977c3.0800781,3.1738281,5.4599609,7.0463867,7.1396484,11.6196289
			c1.6806641,4.5742188,2.5205078,9.6845703,2.5205078,15.3300781c0,5.6943359-0.8398438,10.8271484-2.5205078,15.3994141
			c-1.6796875,4.5742188-4.0595703,8.4707031-7.1396484,11.6904297s-6.8017578,5.6943359-11.1650391,7.4199219
			c-4.3642578,1.7255859-9.2285156,2.5898438-14.5947266,2.5898438c-5.3671875,0-10.2441406-0.8642578-14.6298828-2.5898438
			c-4.3876953-1.7255859-8.1318359-4.2001953-11.2353516-7.4199219s-5.5068359-7.1162109-7.2099609-11.6904297
			c-1.7041016-4.5722656-2.5546875-9.7050781-2.5546875-15.3994141c0-5.6455078,0.8505859-10.7558594,2.5546875-15.3300781
			c1.703125-4.5732422,4.1064453-8.4458008,7.2099609-11.6196289c3.1035156-3.1728516,6.8476562-5.6230469,11.2353516-7.3500977
			C1388.5786133,131.2745209,1393.4555664,130.4107513,1398.8227539,130.4107513z M1398.8227539,191.1002045
			c5.9726562,0,10.3945312-2.0058594,13.2646484-6.0195312s4.3056641-9.8935547,4.3056641-17.640625
			c0-7.7451172-1.4355469-13.6494141-4.3056641-17.7099609c-2.8701172-4.0595703-7.2919922-6.0893555-13.2646484-6.0893555
			c-6.0673828,0-10.546875,2.0415039-13.4404297,6.1245117c-2.8935547,4.0839844-4.3398438,9.9755859-4.3398438,17.6748047
			c0,7.7001953,1.4462891,13.5693359,4.3398438,17.6054688
			C1388.2758789,189.0826263,1392.7553711,191.1002045,1398.8227539,191.1002045z"/>
		<path class="st2" d="M1498.2915039,203.3502045c-2.2402344,0-3.7089844-1.0498047-4.4101562-3.1503906l-1.4003906-6.9296875
			c-1.4931641,1.6796875-3.0556641,3.1972656-4.6894531,4.5498047c-1.6337891,1.3544922-3.3945312,2.5205078-5.2841797,3.5
			c-1.890625,0.9804688-3.9199219,1.7392578-6.0908203,2.2753906c-2.1699219,0.5361328-4.5146484,0.8046875-7.0341797,0.8046875
			c-3.9199219,0-7.5146484-0.8164062-10.7802734-2.4501953c-3.2675781-1.6328125-6.0791016-4.0009766-8.4355469-7.1044922
			s-4.1767578-6.9414062-5.4599609-11.5146484s-1.9248047-9.7998047-1.9248047-15.6806641
			c0-5.3193359,0.7236328-10.265625,2.1699219-14.8398438c1.4462891-4.5722656,3.5234375-8.5395508,6.2304688-11.8994141
			c2.7060547-3.3598633,5.9501953-5.9848633,9.7294922-7.875c3.7802734-1.8901367,8.0263672-2.8349609,12.7402344-2.8349609
			c4.0126953,0,7.4433594,0.6420898,10.2900391,1.9248047c2.8457031,1.2841797,5.3896484,2.9990234,7.6289062,5.1450195V99.3306732
			h17.2910156v104.0195312H1498.2915039z M1475.262207,190.6802826c3.5927734,0,6.6494141-0.7460938,9.1699219-2.2402344
			c2.5195312-1.4931641,4.8994141-3.6162109,7.1386719-6.3701172v-32.1992188
			c-1.9589844-2.3798828-4.09375-4.0605469-6.4042969-5.0400391c-2.3095703-0.9799805-4.7949219-1.4702148-7.4541016-1.4702148
			c-2.6142578,0-4.9824219,0.4902344-7.1054688,1.4702148c-2.1240234,0.9794922-3.9199219,2.4619141-5.3896484,4.4443359
			c-1.4707031,1.984375-2.6025391,4.5048828-3.3955078,7.5605469c-0.7939453,3.0566406-1.1894531,6.6621094-1.1894531,10.8144531
			c0,4.2001953,0.3378906,7.7597656,1.0146484,10.6757812c0.6757812,2.9160156,1.6445312,5.296875,2.9052734,7.1396484
			c1.2597656,1.84375,2.7998047,3.1738281,4.6201172,3.9902344
			C1470.9916992,190.2720795,1473.0219727,190.6802826,1475.262207,190.6802826z"/>
		<path class="st2" d="M1548.5512695,110.6006927c0,1.4941406-0.3046875,2.894043-0.9101562,4.2001953
			c-0.6074219,1.3066406-1.4121094,2.449707-2.4150391,3.4296875c-1.0039062,0.9799805-2.1816406,1.762207-3.5351562,2.3452148
			c-1.3535156,0.5839844-2.7998047,0.875-4.3398438,0.875c-1.4941406,0-2.9052734-0.2910156-4.2353516-0.875
			c-1.3300781-0.5830078-2.484375-1.3652344-3.4648438-2.3452148c-0.9794922-0.9799805-1.7617188-2.1230469-2.3447266-3.4296875
			c-0.5839844-1.3061523-0.875-2.7060547-0.875-4.2001953c0-1.5400391,0.2910156-2.9858398,0.875-4.3398438
			c0.5830078-1.3530273,1.3652344-2.5200195,2.3447266-3.5c0.9804688-0.9799805,2.1347656-1.7612305,3.4648438-2.3452148
			c1.3300781-0.5830078,2.7412109-0.875,4.2353516-0.875c1.5400391,0,2.9863281,0.2919922,4.3398438,0.875
			c1.3535156,0.5839844,2.53125,1.3652344,3.5351562,2.3452148c1.0029297,0.9799805,1.8076172,2.1469727,2.4150391,3.5
			C1548.246582,107.6148529,1548.5512695,109.0606537,1548.5512695,110.6006927z M1545.9614258,131.5308685v71.8193359h-17.2900391
			v-71.8193359H1545.9614258z"/>
		<path class="st2" d="M1568.5708008,203.3502045v-58.7993164l-6.2304688-0.9799805
			c-1.3535156-0.2333984-2.4384766-0.7001953-3.2548828-1.4003906c-0.8173828-0.699707-1.2246094-1.6796875-1.2246094-2.9399414
			v-7.0698242h10.7099609v-2.3100586c0-4.3857422,0.7226562-8.4580078,2.1699219-12.2148438
			c1.4453125-3.7558594,3.6396484-7.0112305,6.5800781-9.7651367c2.9394531-2.7529297,6.6494141-4.9111328,11.1298828-6.4750977
			c4.4794922-1.5629883,9.7753906-2.3447266,15.8896484-2.3447266c1.9599609,0,3.9658203,0.1049805,6.0205078,0.3149414
			c2.0527344,0.2099609,3.8251953,0.5488281,5.3193359,1.0146484l-0.5595703,8.9604492
			c-0.09375,1.0737305-0.6767578,1.7148438-1.75,1.9248047c-1.0742188,0.2099609-2.4042969,0.3149414-3.9902344,0.3149414
			c-4.5273438,0-8.3193359,0.3969727-11.375,1.1899414c-3.0566406,0.7939453-5.5302734,1.972168-7.4199219,3.5351562
			c-1.8896484,1.5639648-3.2441406,3.5239258-4.0595703,5.8798828c-0.8173828,2.3569336-1.2255859,5.0991211-1.2255859,8.2250977
			v1.75h44.5205078v71.1894531h-17.2900391v-58.8696289h-26.6699219v58.8696289H1568.5708008z"/>
		<path class="st2" d="M1679.3100586,130.4107513c4.5263672,0,8.6914062,0.7241211,12.4951172,2.1699219
			c3.8027344,1.4472656,7.0810547,3.559082,9.8349609,6.3349609c2.7529297,2.7768555,4.9003906,6.184082,6.4404297,10.2197266
			c1.5400391,4.0371094,2.3095703,8.6455078,2.3095703,13.8251953c0,1.3066406-0.0585938,2.3916016-0.1748047,3.2548828
			c-0.1171875,0.8642578-0.3271484,1.5400391-0.6298828,2.0302734c-0.3046875,0.4892578-0.7119141,0.8398438-1.2255859,1.0498047
			s-1.1669922,0.3144531-1.9599609,0.3144531h-44.3798828c0.5126953,7.375,2.4960938,12.7871094,5.9501953,16.2402344
			c3.453125,3.4541016,8.0253906,5.1796875,13.7197266,5.1796875c2.7998047,0,5.2148438-0.3251953,7.2451172-0.9794922
			c2.0302734-0.6533203,3.8027344-1.3759766,5.3203125-2.1699219c1.515625-0.7929688,2.8457031-1.5166016,3.9902344-2.1699219
			c1.1425781-0.6533203,2.25-0.9804688,3.3242188-0.9804688c0.7001953,0,1.3066406,0.1396484,1.8203125,0.4199219
			c0.5126953,0.2802734,0.9560547,0.6767578,1.3300781,1.1904297l5.0400391,6.2998047
			c-1.9140625,2.2402344-4.0605469,4.1191406-6.4404297,5.6347656c-2.3798828,1.5175781-4.8642578,2.7304688-7.4550781,3.640625
			c-2.5898438,0.9091797-5.2265625,1.5507812-7.9091797,1.9248047c-2.6845703,0.3730469-5.2851562,0.5595703-7.8056641,0.5595703
			c-4.9941406,0-9.6367188-0.8291016-13.9296875-2.484375c-4.2939453-1.65625-8.0273438-4.1064453-11.2001953-7.3505859
			c-3.1738281-3.2431641-5.6699219-7.2558594-7.4902344-12.0400391c-1.8193359-4.7822266-2.7294922-10.3242188-2.7294922-16.625
			c0-4.8994141,0.7929688-9.5078125,2.3798828-13.8242188c1.5859375-4.3164062,3.8613281-8.0732422,6.8251953-11.2700195
			c2.9628906-3.1958008,6.5800781-5.7280273,10.8496094-7.5952148
			C1669.1254883,131.3448334,1673.9428711,130.4107513,1679.3100586,130.4107513z M1679.659668,142.8008881
			c-5.0390625,0-8.9833984,1.4238281-11.8291016,4.2700195c-2.8476562,2.8466797-4.6669922,6.8837891-5.4599609,12.109375
			h32.4794922c0-2.2402344-0.3037109-4.3505859-0.9101562-6.3349609c-0.6064453-1.9824219-1.5400391-3.7207031-2.7998047-5.2148438
			c-1.2597656-1.4931641-2.8466797-2.6708984-4.7597656-3.534668
			C1684.4663086,143.2325287,1682.2260742,142.8008881,1679.659668,142.8008881z"/>
		<path class="st2" d="M1724.4575195,203.3502045v-71.8193359h10.1494141c1.7734375,0,3.0107422,0.3266602,3.7099609,0.9799805
			c0.7001953,0.6538086,1.1660156,1.7739258,1.4003906,3.3598633l1.0498047,8.6801758
			c2.5664062-4.4331055,5.5761719-7.9331055,9.0302734-10.5c3.453125-2.565918,7.3261719-3.8500977,11.6201172-3.8500977
			c3.5458984,0,6.4853516,0.8168945,8.8193359,2.449707l-2.2392578,12.949707
			c-0.140625,0.8398438-0.4443359,1.4355469-0.9101562,1.7851562c-0.4667969,0.3496094-1.0966797,0.5253906-1.8896484,0.5253906
			c-0.7001953,0-1.6572266-0.1630859-2.8701172-0.4902344c-1.2148438-0.3261719-2.8242188-0.4902344-4.8300781-0.4902344
			c-3.5947266,0-6.6748047,0.9921875-9.2402344,2.9755859c-2.5673828,1.9833984-4.7373047,4.8886719-6.5097656,8.7148438v44.7294922
			H1724.4575195z"/>
	</g>
	<g>
		<g>
			<path class="st3" d="M1281.9682617,156.0054779c0.6757812,1.6103516,1.3408203,3.2324219,1.9951172,4.8652344
				c0.6533203-1.6806641,1.3300781-3.3359375,2.0302734-4.9707031c0.7001953-1.6328125,1.4453125-3.1953125,2.2392578-4.6894531
				l29.9609375-56.0698242c0.3720703-0.7001953,0.7578125-1.2602539,1.1542969-1.6801758s0.8398438-0.7226562,1.3300781-0.909668
				c0.4902344-0.1860352,1.0380859-0.3032227,1.6455078-0.3500977c0.6054688-0.0458984,1.3300781-0.0703125,2.1699219-0.0703125
				h14.2099609v101.2197266h-16.5898438v-65.3793945c0-1.2128906,0.0341797-2.5429688,0.1044922-3.9902344
				c0.0703125-1.4458008,0.1748047-2.9160156,0.3154297-4.409668l-30.5898438,57.3994141
				c-0.7001953,1.3066406-1.6103516,2.3222656-2.7304688,3.0449219c-1.1201172,0.7236328-2.4267578,1.0849609-3.9199219,1.0849609
				h-2.5898438c-1.4941406,0-2.7998047-0.3613281-3.9199219-1.0849609
				c-1.1201172-0.7226562-2.0302734-1.7382812-2.7304688-3.0449219l-31.0097656-57.6098633
				c0.1855469,1.5400391,0.3144531,3.0454102,0.3847656,4.5151367c0.0703125,1.4702148,0.1054688,2.8349609,0.1054688,4.0952148
				v65.3793945h-16.5898438V92.1304779h14.2099609c0.8398438,0,1.5625,0.0244141,2.1699219,0.0703125
				c0.6054688,0.046875,1.1542969,0.1640625,1.6445312,0.3500977c0.4902344,0.1870117,0.9453125,0.4897461,1.3652344,0.909668
				s0.8154297,0.9799805,1.1894531,1.6801758l30.2402344,56.2094727
				C1280.5561523,152.8443451,1281.2915039,154.3951263,1281.9682617,156.0054779z"/>
			<path class="st3" d="M1388.8227539,120.4107513c5.3662109,0,10.2304688,0.8637695,14.5947266,2.5898438
				c4.3632812,1.7270508,8.0849609,4.1772461,11.1650391,7.3500977c3.0800781,3.1738281,5.4599609,7.0463867,7.1396484,11.6196289
				c1.6806641,4.5742188,2.5205078,9.6845703,2.5205078,15.3300781c0,5.6943359-0.8398438,10.8271484-2.5205078,15.3994141
				c-1.6796875,4.5742188-4.0595703,8.4707031-7.1396484,11.6904297s-6.8017578,5.6943359-11.1650391,7.4199219
				c-4.3642578,1.7255859-9.2285156,2.5898438-14.5947266,2.5898438c-5.3671875,0-10.2441406-0.8642578-14.6298828-2.5898438
				c-4.3876953-1.7255859-8.1318359-4.2001953-11.2353516-7.4199219s-5.5068359-7.1162109-7.2099609-11.6904297
				c-1.7041016-4.5722656-2.5546875-9.7050781-2.5546875-15.3994141c0-5.6455078,0.8505859-10.7558594,2.5546875-15.3300781
				c1.703125-4.5732422,4.1064453-8.4458008,7.2099609-11.6196289c3.1035156-3.1728516,6.8476562-5.6230469,11.2353516-7.3500977
				C1378.5786133,121.2745209,1383.4555664,120.4107513,1388.8227539,120.4107513z M1388.8227539,181.1002045
				c5.9726562,0,10.3945312-2.0058594,13.2646484-6.0195312s4.3056641-9.8935547,4.3056641-17.640625
				c0-7.7451172-1.4355469-13.6494141-4.3056641-17.7099609c-2.8701172-4.0595703-7.2919922-6.0893555-13.2646484-6.0893555
				c-6.0673828,0-10.546875,2.0415039-13.4404297,6.1245117c-2.8935547,4.0839844-4.3398438,9.9755859-4.3398438,17.6748047
				c0,7.7001953,1.4462891,13.5693359,4.3398438,17.6054688
				C1378.2758789,179.0826263,1382.7553711,181.1002045,1388.8227539,181.1002045z"/>
			<path class="st3" d="M1488.2915039,193.3502045c-2.2402344,0-3.7089844-1.0498047-4.4101562-3.1503906l-1.4003906-6.9296875
				c-1.4931641,1.6796875-3.0556641,3.1972656-4.6894531,4.5498047c-1.6337891,1.3544922-3.3945312,2.5205078-5.2841797,3.5
				c-1.890625,0.9804688-3.9199219,1.7392578-6.0908203,2.2753906c-2.1699219,0.5361328-4.5146484,0.8046875-7.0341797,0.8046875
				c-3.9199219,0-7.5146484-0.8164062-10.7802734-2.4501953c-3.2675781-1.6328125-6.0791016-4.0009766-8.4355469-7.1044922
				s-4.1767578-6.9414062-5.4599609-11.5146484s-1.9248047-9.7998047-1.9248047-15.6806641
				c0-5.3193359,0.7236328-10.265625,2.1699219-14.8398438c1.4462891-4.5722656,3.5234375-8.5395508,6.2304688-11.8994141
				c2.7060547-3.3598633,5.9501953-5.9848633,9.7294922-7.875c3.7802734-1.8901367,8.0263672-2.8349609,12.7402344-2.8349609
				c4.0126953,0,7.4433594,0.6420898,10.2900391,1.9248047c2.8457031,1.2841797,5.3896484,2.9990234,7.6289062,5.1450195V89.3306732
				h17.2910156v104.0195312H1488.2915039z M1465.262207,180.6802826c3.5927734,0,6.6494141-0.7460938,9.1699219-2.2402344
				c2.5195312-1.4931641,4.8994141-3.6162109,7.1386719-6.3701172v-32.1992188
				c-1.9589844-2.3798828-4.09375-4.0605469-6.4042969-5.0400391c-2.3095703-0.9799805-4.7949219-1.4702148-7.4541016-1.4702148
				c-2.6142578,0-4.9824219,0.4902344-7.1054688,1.4702148c-2.1240234,0.9794922-3.9199219,2.4619141-5.3896484,4.4443359
				c-1.4707031,1.984375-2.6025391,4.5048828-3.3955078,7.5605469c-0.7939453,3.0566406-1.1894531,6.6621094-1.1894531,10.8144531
				c0,4.2001953,0.3378906,7.7597656,1.0146484,10.6757812c0.6757812,2.9160156,1.6445312,5.296875,2.9052734,7.1396484
				c1.2597656,1.84375,2.7998047,3.1738281,4.6201172,3.9902344
				C1460.9916992,180.2720795,1463.0219727,180.6802826,1465.262207,180.6802826z"/>
			<path class="st3" d="M1538.5512695,100.6006927c0,1.4941406-0.3046875,2.894043-0.9101562,4.2001953
				c-0.6074219,1.3066406-1.4121094,2.449707-2.4150391,3.4296875c-1.0039062,0.9799805-2.1816406,1.762207-3.5351562,2.3452148
				c-1.3535156,0.5839844-2.7998047,0.875-4.3398438,0.875c-1.4941406,0-2.9052734-0.2910156-4.2353516-0.875
				c-1.3300781-0.5830078-2.484375-1.3652344-3.4648438-2.3452148c-0.9794922-0.9799805-1.7617188-2.1230469-2.3447266-3.4296875
				c-0.5839844-1.3061523-0.875-2.7060547-0.875-4.2001953c0-1.5400391,0.2910156-2.9858398,0.875-4.3398438
				c0.5830078-1.3530273,1.3652344-2.5200195,2.3447266-3.5c0.9804688-0.9799805,2.1347656-1.7612305,3.4648438-2.3452148
				c1.3300781-0.5830078,2.7412109-0.875,4.2353516-0.875c1.5400391,0,2.9863281,0.2919922,4.3398438,0.875
				c1.3535156,0.5839844,2.53125,1.3652344,3.5351562,2.3452148c1.0029297,0.9799805,1.8076172,2.1469727,2.4150391,3.5
				C1538.246582,97.6148529,1538.5512695,99.0606537,1538.5512695,100.6006927z M1535.9614258,121.5308685v71.8193359h-17.2900391
				v-71.8193359H1535.9614258z"/>
			<path class="st3" d="M1558.5708008,193.3502045v-58.7993164l-6.2304688-0.9799805
				c-1.3535156-0.2333984-2.4384766-0.7001953-3.2548828-1.4003906c-0.8173828-0.699707-1.2246094-1.6796875-1.2246094-2.9399414
				v-7.0698242h10.7099609v-2.3100586c0-4.3857422,0.7226562-8.4580078,2.1699219-12.2148438
				c1.4453125-3.7558594,3.6396484-7.0112305,6.5800781-9.7651367c2.9394531-2.7529297,6.6494141-4.9111328,11.1298828-6.4750977
				c4.4794922-1.5629883,9.7753906-2.3447266,15.8896484-2.3447266c1.9599609,0,3.9658203,0.1049805,6.0205078,0.3149414
				c2.0527344,0.2099609,3.8251953,0.5488281,5.3193359,1.0146484l-0.5595703,8.9604492
				c-0.09375,1.0737305-0.6767578,1.7148438-1.75,1.9248047c-1.0742188,0.2099609-2.4042969,0.3149414-3.9902344,0.3149414
				c-4.5273438,0-8.3193359,0.3969727-11.375,1.1899414c-3.0566406,0.7939453-5.5302734,1.972168-7.4199219,3.5351562
				c-1.8896484,1.5639648-3.2441406,3.5239258-4.0595703,5.8798828c-0.8173828,2.3569336-1.2255859,5.0991211-1.2255859,8.2250977
				v1.75h44.5205078v71.1894531h-17.2900391v-58.8696289h-26.6699219v58.8696289H1558.5708008z"/>
			<path class="st3" d="M1669.3100586,120.4107513c4.5263672,0,8.6914062,0.7241211,12.4951172,2.1699219
				c3.8027344,1.4472656,7.0810547,3.559082,9.8349609,6.3349609c2.7529297,2.7768555,4.9003906,6.184082,6.4404297,10.2197266
				c1.5400391,4.0371094,2.3095703,8.6455078,2.3095703,13.8251953c0,1.3066406-0.0585938,2.3916016-0.1748047,3.2548828
				c-0.1171875,0.8642578-0.3271484,1.5400391-0.6298828,2.0302734c-0.3046875,0.4892578-0.7119141,0.8398438-1.2255859,1.0498047
				s-1.1669922,0.3144531-1.9599609,0.3144531h-44.3798828c0.5126953,7.375,2.4960938,12.7871094,5.9501953,16.2402344
				c3.453125,3.4541016,8.0253906,5.1796875,13.7197266,5.1796875c2.7998047,0,5.2148438-0.3251953,7.2451172-0.9794922
				c2.0302734-0.6533203,3.8027344-1.3759766,5.3203125-2.1699219c1.515625-0.7929688,2.8457031-1.5166016,3.9902344-2.1699219
				c1.1425781-0.6533203,2.25-0.9804688,3.3242188-0.9804688c0.7001953,0,1.3066406,0.1396484,1.8203125,0.4199219
				c0.5126953,0.2802734,0.9560547,0.6767578,1.3300781,1.1904297l5.0400391,6.2998047
				c-1.9140625,2.2402344-4.0605469,4.1191406-6.4404297,5.6347656c-2.3798828,1.5175781-4.8642578,2.7304688-7.4550781,3.640625
				c-2.5898438,0.9091797-5.2265625,1.5507812-7.9091797,1.9248047c-2.6845703,0.3730469-5.2851562,0.5595703-7.8056641,0.5595703
				c-4.9941406,0-9.6367188-0.8291016-13.9296875-2.484375c-4.2939453-1.65625-8.0273438-4.1064453-11.2001953-7.3505859
				c-3.1738281-3.2431641-5.6699219-7.2558594-7.4902344-12.0400391c-1.8193359-4.7822266-2.7294922-10.3242188-2.7294922-16.625
				c0-4.8994141,0.7929688-9.5078125,2.3798828-13.8242188c1.5859375-4.3164062,3.8613281-8.0732422,6.8251953-11.2700195
				c2.9628906-3.1958008,6.5800781-5.7280273,10.8496094-7.5952148
				C1659.1254883,121.3448334,1663.9428711,120.4107513,1669.3100586,120.4107513z M1669.659668,132.8008881
				c-5.0390625,0-8.9833984,1.4238281-11.8291016,4.2700195c-2.8476562,2.8466797-4.6669922,6.8837891-5.4599609,12.109375
				h32.4794922c0-2.2402344-0.3037109-4.3505859-0.9101562-6.3349609c-0.6064453-1.9824219-1.5400391-3.7207031-2.7998047-5.2148438
				c-1.2597656-1.4931641-2.8466797-2.6708984-4.7597656-3.534668
				C1674.4663086,133.2325287,1672.2260742,132.8008881,1669.659668,132.8008881z"/>
			<path class="st3" d="M1714.4575195,193.3502045v-71.8193359h10.1494141c1.7734375,0,3.0107422,0.3266602,3.7099609,0.9799805
				c0.7001953,0.6538086,1.1660156,1.7739258,1.4003906,3.3598633l1.0498047,8.6801758
				c2.5664062-4.4331055,5.5761719-7.9331055,9.0302734-10.5c3.453125-2.565918,7.3261719-3.8500977,11.6201172-3.8500977
				c3.5458984,0,6.4853516,0.8168945,8.8193359,2.449707l-2.2392578,12.949707
				c-0.140625,0.8398438-0.4443359,1.4355469-0.9101562,1.7851562c-0.4667969,0.3496094-1.0966797,0.5253906-1.8896484,0.5253906
				c-0.7001953,0-1.6572266-0.1630859-2.8701172-0.4902344c-1.2148438-0.3261719-2.8242188-0.4902344-4.8300781-0.4902344
				c-3.5947266,0-6.6748047,0.9921875-9.2402344,2.9755859c-2.5673828,1.9833984-4.7373047,4.8886719-6.5097656,8.7148438
				v44.7294922H1714.4575195z"/>
		</g>
	</g>
</g>
<g>
	<g>
		<g>
			<path class="st2" d="M299.0418091,203.3502045h-18.9003906V102.1299896h18.9003906V203.3502045z"/>
			<path class="st2" d="M320.8113403,203.3502045v-71.8198242h10.5693359c2.2402344,0,3.7099609,1.0498047,4.4101562,3.1499023
				l1.1201172,5.3198242c1.2597656-1.3999023,2.578125-2.6831055,3.9550781-3.8500977
				c1.3759766-1.1655273,2.8457031-2.1699219,4.4101562-3.0097656c1.5625-0.8398438,3.2421875-1.5048828,5.0400391-1.9951172
				c1.7958984-0.4897461,3.7675781-0.7348633,5.9150391-0.7348633c4.5253906,0,8.2480469,1.2250977,11.1650391,3.6748047
				c2.9150391,2.4501953,5.0976562,5.7050781,6.5449219,9.7651367c1.1201172-2.3798828,2.5195312-4.4208984,4.1992188-6.125
				c1.6806641-1.703125,3.5234375-3.0908203,5.5302734-4.1650391c2.0058594-1.0727539,4.140625-1.8657227,6.4052734-2.3798828
				c2.2626953-0.5131836,4.5380859-0.7700195,6.8251953-0.7700195c3.9658203,0,7.4892578,0.6069336,10.5693359,1.8198242
				c3.0800781,1.2143555,5.6699219,2.9873047,7.7705078,5.3203125c2.0996094,2.3339844,3.6982422,5.1796875,4.7949219,8.5400391
				c1.0957031,3.3598633,1.6445312,7.2099609,1.6445312,11.5498047v45.7099609h-17.2900391v-45.7099609
				c0-4.5732422-1.0039062-8.0151367-3.0097656-10.3251953c-2.0068359-2.3100586-4.9472656-3.4648438-8.8193359-3.4648438
				c-1.7744141,0-3.4199219,0.3041992-4.9355469,0.9101562c-1.5166016,0.6069336-2.8466797,1.4819336-3.9902344,2.625
				c-1.1435547,1.144043-2.0419922,2.5791016-2.6943359,4.3046875c-0.6542969,1.7270508-0.9804688,3.7099609-0.9804688,5.9501953
				v45.7099609h-17.3603516v-45.7099609c0-4.8061523-0.96875-8.3061523-2.9042969-10.5
				c-1.9375-2.1928711-4.7949219-3.2900391-8.5751953-3.2900391c-2.4736328,0-4.7949219,0.6191406-6.9648438,1.8549805
				c-2.1699219,1.2368164-4.1894531,2.9291992-6.0556641,5.0751953v52.5698242H320.8113403z"/>
			<path class="st2" d="M438.6902466,226.8003998v-95.2700195h10.5703125c1.1201172,0,2.0751953,0.2568359,2.8701172,0.7700195
				c0.7929688,0.5136719,1.3056641,1.3066406,1.5400391,2.3798828l1.3994141,6.6499023
				c2.8935547-3.3129883,6.2177734-5.9960938,9.9755859-8.0498047c3.7558594-2.0532227,8.1542969-3.0800781,13.1943359-3.0800781
				c3.9199219,0,7.5009766,0.8168945,10.7451172,2.449707c3.2431641,1.6342773,6.0429688,4.0024414,8.4003906,7.1049805
				c2.3554688,3.1044922,4.1757812,6.9301758,5.4599609,11.4799805c1.2822266,4.550293,1.9248047,9.7651367,1.9248047,15.6450195
				c0,5.3671875-0.7246094,10.3374023-2.1699219,14.9106445c-1.4472656,4.5732422-3.5117188,8.5400391-6.1953125,11.8994141
				c-2.6835938,3.3603516-5.9267578,5.9853516-9.7294922,7.875c-3.8046875,1.890625-8.0625,2.8349609-12.7753906,2.8349609
				c-4.0595703,0-7.5019531-0.6191406-10.3251953-1.8544922c-2.8242188-1.2363281-5.3544922-2.9511719-7.5947266-5.1455078
				v29.4003906H438.6902466z M472.289856,143.8502045c-3.59375,0-6.6621094,0.7592773-9.2050781,2.2749023
				c-2.5439453,1.5170898-4.9111328,3.6523438-7.1044922,6.4052734v32.199707
				c1.9599609,2.4267578,4.0947266,4.1191406,6.4052734,5.0751953c2.3095703,0.9570312,4.7949219,1.4345703,7.4550781,1.4345703
				c2.6123047,0,4.9804688-0.4892578,7.1044922-1.4697266c2.1230469-0.9794922,3.9199219-2.4726562,5.3896484-4.4794922
				c1.4707031-2.0068359,2.6015625-4.5380859,3.3955078-7.5952148c0.7929688-3.0561523,1.1904297-6.6611328,1.1904297-10.8154297
				c0-4.199707-0.3398438-7.7578125-1.015625-10.6748047c-0.6767578-2.9160156-1.6445312-5.2851562-2.9052734-7.1049805
				c-1.2597656-1.8198242-2.7890625-3.1499023-4.5849609-3.9902344
				C476.617981,144.2701263,474.5759888,143.8502045,472.289856,143.8502045z"/>
			<path class="st2" d="M517.8591919,203.3502045v-71.8198242h10.1494141c1.7724609,0,3.0107422,0.3266602,3.7099609,0.9799805
				c0.6992188,0.6538086,1.1660156,1.7739258,1.4003906,3.3598633l1.0488281,8.6801758
				c2.5664062-4.4331055,5.5761719-7.9331055,9.03125-10.5c3.453125-2.565918,7.3261719-3.8500977,11.6191406-3.8500977
				c3.546875,0,6.4863281,0.8168945,8.8203125,2.449707l-2.2402344,12.9501953
				c-0.140625,0.8398438-0.4433594,1.4350586-0.9101562,1.7851562c-0.4667969,0.3496094-1.0957031,0.5249023-1.8886719,0.5249023
				c-0.7011719,0-1.6582031-0.1630859-2.8710938-0.4902344c-1.2148438-0.3256836-2.8242188-0.4897461-4.8300781-0.4897461
				c-3.59375,0-6.6738281,0.9921875-9.2402344,2.9750977c-2.5664062,1.9838867-4.7363281,4.8886719-6.5097656,8.7148438v44.7299805
				H517.8591919z"/>
			<path class="st2" d="M596.0476685,110.6002045c0,1.4941406-0.3046875,2.894043-0.9101562,4.2001953
				c-0.6074219,1.3066406-1.4121094,2.449707-2.4150391,3.4296875c-1.0039062,0.9799805-2.1816406,1.762207-3.5351562,2.3452148
				c-1.3535156,0.5839844-2.7998047,0.875-4.3398438,0.875c-1.4941406,0-2.9052734-0.2910156-4.2353516-0.875
				c-1.3300781-0.5830078-2.484375-1.3652344-3.4648438-2.3452148c-0.9794922-0.9799805-1.7617188-2.1230469-2.3447266-3.4296875
				c-0.5839844-1.3061523-0.875-2.7060547-0.875-4.2001953c0-1.5400391,0.2910156-2.9858398,0.875-4.3398438
				c0.5830078-1.3530273,1.3652344-2.5200195,2.3447266-3.5c0.9804688-0.9799805,2.1347656-1.7612305,3.4648438-2.3452148
				c1.3300781-0.5830078,2.7412109-0.875,4.2353516-0.875c1.5400391,0,2.9863281,0.2919922,4.3398438,0.875
				c1.3535156,0.5839844,2.53125,1.3652344,3.5351562,2.3452148c1.0029297,0.9799805,1.8076172,2.1469727,2.4150391,3.5
				C595.742981,107.6143646,596.0476685,109.0601654,596.0476685,110.6002045z M593.4578247,131.5303802v71.8198242h-17.2900391
				v-71.8198242H593.4578247z"/>
			<path class="st2" d="M612.9871216,203.3502045v-71.8198242h10.5693359c2.2402344,0,3.7099609,1.0498047,4.4101562,3.1499023
				l1.1201172,5.3198242c1.2597656-1.3999023,2.578125-2.6831055,3.9550781-3.8500977
				c1.3759766-1.1655273,2.8457031-2.1699219,4.4101562-3.0097656c1.5625-0.8398438,3.2431641-1.5048828,5.0400391-1.9951172
				c1.7958984-0.4897461,3.7675781-0.7348633,5.9150391-0.7348633c4.5253906,0,8.2480469,1.2250977,11.1650391,3.6748047
				c2.9160156,2.4501953,5.0976562,5.7050781,6.5449219,9.7651367c1.1201172-2.3798828,2.5195312-4.4208984,4.2001953-6.125
				c1.6796875-1.703125,3.5224609-3.0908203,5.5292969-4.1650391c2.0058594-1.0727539,4.1416016-1.8657227,6.4052734-2.3798828
				c2.2626953-0.5131836,4.5380859-0.7700195,6.8251953-0.7700195c3.9658203,0,7.4902344,0.6069336,10.5703125,1.8198242
				c3.0800781,1.2143555,5.6699219,2.9873047,7.7695312,5.3203125c2.0996094,2.3339844,3.6982422,5.1796875,4.7949219,8.5400391
				c1.0957031,3.3598633,1.6455078,7.2099609,1.6455078,11.5498047v45.7099609h-17.2900391v-45.7099609
				c0-4.5732422-1.0039062-8.0151367-3.0107422-10.3251953s-4.9462891-3.4648438-8.8193359-3.4648438
				c-1.7744141,0-3.4189453,0.3041992-4.9355469,0.9101562c-1.5166016,0.6069336-2.8466797,1.4819336-3.9892578,2.625
				c-1.1445312,1.144043-2.0419922,2.5791016-2.6953125,4.3046875c-0.6542969,1.7270508-0.9804688,3.7099609-0.9804688,5.9501953
				v45.7099609h-17.359375v-45.7099609c0-4.8061523-0.9697266-8.3061523-2.9052734-10.5
				c-1.9375-2.1928711-4.7949219-3.2900391-8.5751953-3.2900391c-2.4736328,0-4.7949219,0.6191406-6.9648438,1.8549805
				c-2.1699219,1.2368164-4.1894531,2.9291992-6.0546875,5.0751953v52.5698242H612.9871216z"/>
			<path class="st2" d="M760.5466919,130.4102631c4.5263672,0,8.6914062,0.7241211,12.4951172,2.1699219
				c3.8027344,1.4472656,7.0810547,3.559082,9.8349609,6.3349609c2.7529297,2.7768555,4.9003906,6.184082,6.4404297,10.2202148
				c1.5400391,4.0371094,2.3095703,8.6450195,2.3095703,13.824707c0,1.3071289-0.0585938,2.3920898-0.1748047,3.2553711
				c-0.1171875,0.8637695-0.3271484,1.5395508-0.6298828,2.0297852c-0.3046875,0.4897461-0.7119141,0.8398438-1.2255859,1.0498047
				s-1.1669922,0.3149414-1.9599609,0.3149414h-44.3798828c0.5126953,7.3745117,2.4960938,12.7871094,5.9501953,16.2402344
				c3.453125,3.4541016,8.0253906,5.1796875,13.7197266,5.1796875c2.7998047,0,5.2148438-0.3251953,7.2451172-0.9794922
				c2.0302734-0.6533203,3.8027344-1.3759766,5.3203125-2.1699219c1.515625-0.7929688,2.8457031-1.5166016,3.9902344-2.1699219
				c1.1425781-0.6533203,2.25-0.9804688,3.3242188-0.9804688c0.7001953,0,1.3066406,0.1396484,1.8203125,0.4199219
				c0.5126953,0.2802734,0.9560547,0.6767578,1.3300781,1.1904297l5.0400391,6.2998047
				c-1.9140625,2.2402344-4.0605469,4.1191406-6.4404297,5.6347656c-2.3798828,1.5175781-4.8642578,2.7304688-7.4550781,3.640625
				c-2.5898438,0.9091797-5.2265625,1.5507812-7.9091797,1.9248047c-2.6845703,0.3730469-5.2851562,0.5595703-7.8056641,0.5595703
				c-4.9941406,0-9.6367188-0.8291016-13.9296875-2.484375c-4.2939453-1.65625-8.0273438-4.1064453-11.2001953-7.3505859
				c-3.1738281-3.2431641-5.6699219-7.2558594-7.4902344-12.0400391c-1.8193359-4.7827148-2.7294922-10.324707-2.7294922-16.625
				c0-4.8999023,0.7929688-9.5078125,2.3798828-13.824707c1.5859375-4.315918,3.8613281-8.0732422,6.8251953-11.2700195
				c2.9628906-3.1958008,6.5800781-5.7280273,10.8496094-7.5952148
				C750.3621216,131.3443451,755.1795044,130.4102631,760.5466919,130.4102631z M760.8963013,142.8003998
				c-5.0390625,0-8.9833984,1.4238281-11.8291016,4.2700195c-2.8476562,2.8466797-4.6669922,6.8837891-5.4599609,12.1098633
				h32.4794922c0-2.2402344-0.3037109-4.3510742-0.9101562-6.3349609c-0.6064453-1.9829102-1.5400391-3.7211914-2.7998047-5.215332
				c-1.2597656-1.4926758-2.8466797-2.6708984-4.7597656-3.534668
				C765.7029419,143.2320404,763.4627075,142.8003998,760.8963013,142.8003998z"/>
			<path class="st2" d="M805.6941528,203.3502045v-71.8198242h10.1494141c1.7734375,0,3.0107422,0.3266602,3.7099609,0.9799805
				c0.7001953,0.6538086,1.1660156,1.7739258,1.4003906,3.3598633l1.0498047,8.6801758
				c2.5664062-4.4331055,5.5761719-7.9331055,9.0302734-10.5c3.453125-2.565918,7.3261719-3.8500977,11.6201172-3.8500977
				c3.5458984,0,6.4853516,0.8168945,8.8193359,2.449707l-2.2392578,12.9501953
				c-0.140625,0.8398438-0.4443359,1.4350586-0.9101562,1.7851562c-0.4667969,0.3496094-1.0966797,0.5249023-1.8896484,0.5249023
				c-0.7001953,0-1.6572266-0.1630859-2.8701172-0.4902344c-1.2148438-0.3256836-2.8242188-0.4897461-4.8300781-0.4897461
				c-3.5947266,0-6.6748047,0.9921875-9.2402344,2.9750977c-2.5673828,1.9838867-4.7373047,4.8886719-6.5097656,8.7148438
				v44.7299805H805.6941528z"/>
		</g>
		<g>
			<g>
				<path class="st3" d="M289.0418091,193.3502045h-18.9003906V92.1299896h18.9003906V193.3502045z"/>
				<path class="st3" d="M310.8113403,193.3502045v-71.8198242h10.5693359c2.2402344,0,3.7099609,1.0498047,4.4101562,3.1499023
					l1.1201172,5.3198242c1.2597656-1.3999023,2.578125-2.6831055,3.9550781-3.8500977
					c1.3759766-1.1655273,2.8457031-2.1699219,4.4101562-3.0097656c1.5625-0.8398438,3.2421875-1.5048828,5.0400391-1.9951172
					c1.7958984-0.4897461,3.7675781-0.7348633,5.9150391-0.7348633c4.5253906,0,8.2480469,1.2250977,11.1650391,3.6748047
					c2.9150391,2.4501953,5.0976562,5.7050781,6.5449219,9.7651367c1.1201172-2.3798828,2.5195312-4.4208984,4.1992188-6.125
					c1.6806641-1.703125,3.5234375-3.0908203,5.5302734-4.1650391c2.0058594-1.0727539,4.140625-1.8657227,6.4052734-2.3798828
					c2.2626953-0.5131836,4.5380859-0.7700195,6.8251953-0.7700195c3.9658203,0,7.4892578,0.6069336,10.5693359,1.8198242
					c3.0800781,1.2143555,5.6699219,2.9873047,7.7705078,5.3203125c2.0996094,2.3339844,3.6982422,5.1796875,4.7949219,8.5400391
					c1.0957031,3.3598633,1.6445312,7.2099609,1.6445312,11.5498047v45.7099609h-17.2900391v-45.7099609
					c0-4.5732422-1.0039062-8.0151367-3.0097656-10.3251953c-2.0068359-2.3100586-4.9472656-3.4648438-8.8193359-3.4648438
					c-1.7744141,0-3.4199219,0.3041992-4.9355469,0.9101562c-1.5166016,0.6069336-2.8466797,1.4819336-3.9902344,2.625
					c-1.1435547,1.144043-2.0419922,2.5791016-2.6943359,4.3046875c-0.6542969,1.7270508-0.9804688,3.7099609-0.9804688,5.9501953
					v45.7099609h-17.3603516v-45.7099609c0-4.8061523-0.96875-8.3061523-2.9042969-10.5
					c-1.9375-2.1928711-4.7949219-3.2900391-8.5751953-3.2900391c-2.4736328,0-4.7949219,0.6191406-6.9648438,1.8549805
					c-2.1699219,1.2368164-4.1894531,2.9291992-6.0556641,5.0751953v52.5698242H310.8113403z"/>
				<path class="st3" d="M428.6902466,216.8003998v-95.2700195h10.5703125c1.1201172,0,2.0751953,0.2568359,2.8701172,0.7700195
					c0.7929688,0.5136719,1.3056641,1.3066406,1.5400391,2.3798828l1.3994141,6.6499023
					c2.8935547-3.3129883,6.2177734-5.9960938,9.9755859-8.0498047c3.7558594-2.0532227,8.1542969-3.0800781,13.1943359-3.0800781
					c3.9199219,0,7.5009766,0.8168945,10.7451172,2.449707c3.2431641,1.6342773,6.0429688,4.0024414,8.4003906,7.1049805
					c2.3554688,3.1044922,4.1757812,6.9301758,5.4599609,11.4799805c1.2822266,4.550293,1.9248047,9.7651367,1.9248047,15.6450195
					c0,5.3671875-0.7246094,10.3374023-2.1699219,14.9106445c-1.4472656,4.5732422-3.5117188,8.5400391-6.1953125,11.8994141
					c-2.6835938,3.3603516-5.9267578,5.9853516-9.7294922,7.875c-3.8046875,1.890625-8.0625,2.8349609-12.7753906,2.8349609
					c-4.0595703,0-7.5019531-0.6191406-10.3251953-1.8544922c-2.8242188-1.2363281-5.3544922-2.9511719-7.5947266-5.1455078
					v29.4003906H428.6902466z M462.289856,133.8502045c-3.59375,0-6.6621094,0.7592773-9.2050781,2.2749023
					c-2.5439453,1.5170898-4.9111328,3.6523438-7.1044922,6.4052734v32.199707
					c1.9599609,2.4267578,4.0947266,4.1191406,6.4052734,5.0751953c2.3095703,0.9570312,4.7949219,1.4345703,7.4550781,1.4345703
					c2.6123047,0,4.9804688-0.4892578,7.1044922-1.4697266c2.1230469-0.9794922,3.9199219-2.4726562,5.3896484-4.4794922
					c1.4707031-2.0068359,2.6015625-4.5380859,3.3955078-7.5952148c0.7929688-3.0561523,1.1904297-6.6611328,1.1904297-10.8154297
					c0-4.199707-0.3398438-7.7578125-1.015625-10.6748047c-0.6767578-2.9160156-1.6445312-5.2851562-2.9052734-7.1049805
					c-1.2597656-1.8198242-2.7890625-3.1499023-4.5849609-3.9902344
					C466.617981,134.2701263,464.5759888,133.8502045,462.289856,133.8502045z"/>
				<path class="st3" d="M507.8591919,193.3502045v-71.8198242h10.1494141c1.7724609,0,3.0107422,0.3266602,3.7099609,0.9799805
					c0.6992188,0.6538086,1.1660156,1.7739258,1.4003906,3.3598633l1.0488281,8.6801758
					c2.5664062-4.4331055,5.5761719-7.9331055,9.03125-10.5c3.453125-2.565918,7.3261719-3.8500977,11.6191406-3.8500977
					c3.546875,0,6.4863281,0.8168945,8.8203125,2.449707l-2.2402344,12.9501953
					c-0.140625,0.8398438-0.4433594,1.4350586-0.9101562,1.7851562c-0.4667969,0.3496094-1.0957031,0.5249023-1.8886719,0.5249023
					c-0.7011719,0-1.6582031-0.1630859-2.8710938-0.4902344c-1.2148438-0.3256836-2.8242188-0.4897461-4.8300781-0.4897461
					c-3.59375,0-6.6738281,0.9921875-9.2402344,2.9750977c-2.5664062,1.9838867-4.7363281,4.8886719-6.5097656,8.7148438v44.7299805
					H507.8591919z"/>
				<path class="st3" d="M586.0476685,100.6002045c0,1.4941406-0.3046875,2.894043-0.9101562,4.2001953
					c-0.6074219,1.3066406-1.4121094,2.449707-2.4150391,3.4296875c-1.0039062,0.9799805-2.1816406,1.762207-3.5351562,2.3452148
					c-1.3535156,0.5839844-2.7998047,0.875-4.3398438,0.875c-1.4941406,0-2.9052734-0.2910156-4.2353516-0.875
					c-1.3300781-0.5830078-2.484375-1.3652344-3.4648438-2.3452148c-0.9794922-0.9799805-1.7617188-2.1230469-2.3447266-3.4296875
					c-0.5839844-1.3061523-0.875-2.7060547-0.875-4.2001953c0-1.5400391,0.2910156-2.9858398,0.875-4.3398438
					c0.5830078-1.3530273,1.3652344-2.5200195,2.3447266-3.5c0.9804688-0.9799805,2.1347656-1.7612305,3.4648438-2.3452148
					c1.3300781-0.5830078,2.7412109-0.875,4.2353516-0.875c1.5400391,0,2.9863281,0.2919922,4.3398438,0.875
					c1.3535156,0.5839844,2.53125,1.3652344,3.5351562,2.3452148c1.0029297,0.9799805,1.8076172,2.1469727,2.4150391,3.5
					C585.742981,97.6143646,586.0476685,99.0601654,586.0476685,100.6002045z M583.4578247,121.5303802v71.8198242h-17.2900391
					v-71.8198242H583.4578247z"/>
				<path class="st3" d="M602.9871216,193.3502045v-71.8198242h10.5693359c2.2402344,0,3.7099609,1.0498047,4.4101562,3.1499023
					l1.1201172,5.3198242c1.2597656-1.3999023,2.578125-2.6831055,3.9550781-3.8500977
					c1.3759766-1.1655273,2.8457031-2.1699219,4.4101562-3.0097656c1.5625-0.8398438,3.2431641-1.5048828,5.0400391-1.9951172
					c1.7958984-0.4897461,3.7675781-0.7348633,5.9150391-0.7348633c4.5253906,0,8.2480469,1.2250977,11.1650391,3.6748047
					c2.9160156,2.4501953,5.0976562,5.7050781,6.5449219,9.7651367c1.1201172-2.3798828,2.5195312-4.4208984,4.2001953-6.125
					c1.6796875-1.703125,3.5224609-3.0908203,5.5292969-4.1650391c2.0058594-1.0727539,4.1416016-1.8657227,6.4052734-2.3798828
					c2.2626953-0.5131836,4.5380859-0.7700195,6.8251953-0.7700195c3.9658203,0,7.4902344,0.6069336,10.5703125,1.8198242
					c3.0800781,1.2143555,5.6699219,2.9873047,7.7695312,5.3203125c2.0996094,2.3339844,3.6982422,5.1796875,4.7949219,8.5400391
					c1.0957031,3.3598633,1.6455078,7.2099609,1.6455078,11.5498047v45.7099609h-17.2900391v-45.7099609
					c0-4.5732422-1.0039062-8.0151367-3.0107422-10.3251953s-4.9462891-3.4648438-8.8193359-3.4648438
					c-1.7744141,0-3.4189453,0.3041992-4.9355469,0.9101562c-1.5166016,0.6069336-2.8466797,1.4819336-3.9892578,2.625
					c-1.1445312,1.144043-2.0419922,2.5791016-2.6953125,4.3046875c-0.6542969,1.7270508-0.9804688,3.7099609-0.9804688,5.9501953
					v45.7099609h-17.359375v-45.7099609c0-4.8061523-0.9697266-8.3061523-2.9052734-10.5
					c-1.9375-2.1928711-4.7949219-3.2900391-8.5751953-3.2900391c-2.4736328,0-4.7949219,0.6191406-6.9648438,1.8549805
					c-2.1699219,1.2368164-4.1894531,2.9291992-6.0546875,5.0751953v52.5698242H602.9871216z"/>
				<path class="st3" d="M750.5466919,120.4102631c4.5263672,0,8.6914062,0.7241211,12.4951172,2.1699219
					c3.8027344,1.4472656,7.0810547,3.559082,9.8349609,6.3349609c2.7529297,2.7768555,4.9003906,6.184082,6.4404297,10.2202148
					c1.5400391,4.0371094,2.3095703,8.6450195,2.3095703,13.824707c0,1.3071289-0.0585938,2.3920898-0.1748047,3.2553711
					c-0.1171875,0.8637695-0.3271484,1.5395508-0.6298828,2.0297852c-0.3046875,0.4897461-0.7119141,0.8398438-1.2255859,1.0498047
					s-1.1669922,0.3149414-1.9599609,0.3149414h-44.3798828c0.5126953,7.3745117,2.4960938,12.7871094,5.9501953,16.2402344
					c3.453125,3.4541016,8.0253906,5.1796875,13.7197266,5.1796875c2.7998047,0,5.2148438-0.3251953,7.2451172-0.9794922
					c2.0302734-0.6533203,3.8027344-1.3759766,5.3203125-2.1699219c1.515625-0.7929688,2.8457031-1.5166016,3.9902344-2.1699219
					c1.1425781-0.6533203,2.25-0.9804688,3.3242188-0.9804688c0.7001953,0,1.3066406,0.1396484,1.8203125,0.4199219
					c0.5126953,0.2802734,0.9560547,0.6767578,1.3300781,1.1904297l5.0400391,6.2998047
					c-1.9140625,2.2402344-4.0605469,4.1191406-6.4404297,5.6347656c-2.3798828,1.5175781-4.8642578,2.7304688-7.4550781,3.640625
					c-2.5898438,0.9091797-5.2265625,1.5507812-7.9091797,1.9248047c-2.6845703,0.3730469-5.2851562,0.5595703-7.8056641,0.5595703
					c-4.9941406,0-9.6367188-0.8291016-13.9296875-2.484375c-4.2939453-1.65625-8.0273438-4.1064453-11.2001953-7.3505859
					c-3.1738281-3.2431641-5.6699219-7.2558594-7.4902344-12.0400391c-1.8193359-4.7827148-2.7294922-10.324707-2.7294922-16.625
					c0-4.8999023,0.7929688-9.5078125,2.3798828-13.824707c1.5859375-4.315918,3.8613281-8.0732422,6.8251953-11.2700195
					c2.9628906-3.1958008,6.5800781-5.7280273,10.8496094-7.5952148
					C740.3621216,121.3443451,745.1795044,120.4102631,750.5466919,120.4102631z M750.8963013,132.8003998
					c-5.0390625,0-8.9833984,1.4238281-11.8291016,4.2700195c-2.8476562,2.8466797-4.6669922,6.8837891-5.4599609,12.1098633
					h32.4794922c0-2.2402344-0.3037109-4.3510742-0.9101562-6.3349609c-0.6064453-1.9829102-1.5400391-3.7211914-2.7998047-5.215332
					c-1.2597656-1.4926758-2.8466797-2.6708984-4.7597656-3.534668
					C755.7029419,133.2320404,753.4627075,132.8003998,750.8963013,132.8003998z"/>
				<path class="st3" d="M795.6941528,193.3502045v-71.8198242h10.1494141c1.7734375,0,3.0107422,0.3266602,3.7099609,0.9799805
					c0.7001953,0.6538086,1.1660156,1.7739258,1.4003906,3.3598633l1.0498047,8.6801758
					c2.5664062-4.4331055,5.5761719-7.9331055,9.0302734-10.5c3.453125-2.565918,7.3261719-3.8500977,11.6201172-3.8500977
					c3.5458984,0,6.4853516,0.8168945,8.8193359,2.449707l-2.2392578,12.9501953
					c-0.140625,0.8398438-0.4443359,1.4350586-0.9101562,1.7851562c-0.4667969,0.3496094-1.0966797,0.5249023-1.8896484,0.5249023
					c-0.7001953,0-1.6572266-0.1630859-2.8701172-0.4902344c-1.2148438-0.3256836-2.8242188-0.4897461-4.8300781-0.4897461
					c-3.5947266,0-6.6748047,0.9921875-9.2402344,2.9750977c-2.5673828,1.9838867-4.7373047,4.8886719-6.5097656,8.7148438
					v44.7299805H795.6941528z"/>
			</g>
		</g>
	</g>
	<path class="st4" d="M100.6029968,192.7754669h66.907196v-19.1086884h-66.907196V192.7754669L100.6029968,192.7754669z
		 M100.6029968,144.9903412h66.907196v-28.6764221h-11.9496155c-3.960907,0-7.1724548-3.2115479-7.1724548-7.1724548V97.2052231
		h-47.7851257V144.9903412L100.6029968,144.9903412z M186.6188965,149.7675171c0-2.609375-2.1544189-4.7771759-4.7771759-4.7771759
		c-2.6227722,0-4.7771759,2.1678009-4.7771759,4.7771759s2.1677856,4.7771759,4.7771759,4.7771759
		C184.4510956,154.544693,186.6188965,152.3768921,186.6188965,149.7675171z M196.1866302,149.7675171v31.071701
		c0,1.2578735-1.124054,2.381897-2.3952942,2.381897h-16.7267914v11.9496307c0,3.960907-3.2115479,7.1724548-7.1724548,7.1724548
		H98.2077103c-3.947525,0-7.1590652-3.2115479-7.1590652-7.1724548v-11.9496307H74.3218384
		c-1.2712326,0-2.3952713-1.1240387-2.3952713-2.381897v-31.071701c0-7.8415222,6.4899979-14.3315277,14.3315201-14.3315277
		h4.7905579V94.8099365c0-3.9608994,3.2115402-7.1724472,7.1590652-7.1724472h50.1804123
		c3.9608917,0,9.4071503,2.2480774,12.2440186,5.0849457l11.3608398,11.3474655
		c2.8368683,2.8368607,5.0715637,8.2831116,5.0715637,12.2440186v19.1220703h4.7771759
		C189.6832428,135.4359894,196.1866302,141.9259949,196.1866302,149.7675171L196.1866302,149.7675171z"/>
</g>
</svg>
