<?xml version="1.0" encoding="utf-8"?>
<!-- Generator: Adobe Illustrator 23.0.0, SVG Export Plug-In . SVG Version: 6.00 Build 0)  -->
<svg version="1.1" id="Calque_1" xmlns="http://www.w3.org/2000/svg" xmlns:xlink="http://www.w3.org/1999/xlink" x="0px" y="0px"
	 viewBox="0 0 35 45" style="enable-background:new 0 0 35 45;" xml:space="preserve">
<style type="text/css">
	.st0{fill:#E9E9E0;}
	.st1{fill:#D9D7CA;}
	.st2{fill:#CC4B4C;}
	.st3{fill:#FFFFFF;}
</style>
<g>
	<path class="st0" d="M24.6880035,0.0995026H1.4729767c-0.6489563,0-1.1719666,0.5229797-1.1719666,1.5390015v42.4609985
		c0,0.2770081,0.5230103,0.8009949,1.1719666,0.8009949h32.0580444c0.644989,0,1.1679688-0.5239868,1.1679688-0.8009949V10.4824982
		c0-0.559021-0.0740051-0.7379761-0.2030029-0.8669739l-9.3079834-9.309021
		C25.0549774,0.1734772,24.8749847,0.0995026,24.6880035,0.0995026L24.6880035,0.0995026z M24.6880035,0.0995026"/>
	<path class="st1" d="M25.102005,0.2205048v9.4809875h9.4759827L25.102005,0.2205048z M25.102005,0.2205048"/>
	<path class="st2" d="M10.7109833,26.7595062c-0.2769775,0-0.5429688-0.0899963-0.7729797-0.2620239
		c-0.8320007-0.6249695-0.9460144-1.3199768-0.8910217-1.7929993c0.144989-1.3039551,1.7540283-2.6669617,4.789032-4.0539856
		c1.2029724-2.6369934,2.3479919-5.8869934,3.0269775-8.6019897c-0.79599-1.7380066-1.5740051-3.9920044-1.0069885-5.3119812
		c0.1989746-0.4649963,0.4449768-0.8210144,0.9060059-0.9730225c0.1839905-0.0619812,0.6440125-0.1369934,0.8119812-0.1369934
		c0.4070129,0,0.7579956,0.519989,1.0120239,0.8399963c0.2349854,0.3009949,0.769989,0.9380188-0.3010254,5.4419861
		c1.0780334,2.2260132,2.6100159,4.4960327,4.0710144,6.04599c1.0500183-0.1869812,1.9530029-0.2849731,2.6870117-0.2849731
		c1.2539673,0,2.0119934,0.2929688,2.3199768,0.8950195c0.2580261,0.4959717,0.1530151,1.0779724-0.3079834,1.7259827
		c-0.4490051,0.625-1.0630188,0.9539795-1.7770081,0.9539795c-0.9730225,0-2.1060181-0.6139832-3.3719788-1.8289795
		c-2.2690125,0.4769897-4.9170227,1.3209839-7.0620117,2.2579956c-0.6679993,1.4179993-1.3089905,2.5629883-1.9060059,3.4029846
		C12.1209869,26.2245026,11.4099884,26.7595062,10.7109833,26.7595062L10.7109833,26.7595062z M12.8400116,22.6585236
		c-1.7070312,0.9609985-2.4060059,1.75-2.4530029,2.1949768c-0.0120239,0.0740051-0.0310059,0.2660217,0.3439941,0.5549927
		C10.8479767,25.3694916,11.5430145,25.0525055,12.8400116,22.6585236L12.8400116,22.6585236z M23.7499847,19.1035309
		c0.6530151,0.5039673,0.8130188,0.7579956,1.2390137,0.7579956c0.1870117,0,0.7220154-0.0079956,0.9680176-0.3560181
		c0.1169739-0.1679993,0.1640015-0.2730103,0.18396-0.3320007c-0.0979919-0.0509949-0.2309875-0.1560059-0.9419556-0.1560059
		C24.7969818,19.0175018,24.2889862,19.0375214,23.7499847,19.1035309L23.7499847,19.1035309z M17.7740021,13.8374786
		c-0.5709839,1.9810486-1.3250122,4.1170044-2.1369934,6.0510254c1.6719971-0.6479797,3.4880066-1.2149963,5.1949768-1.6130066
		C19.7540131,17.0214996,18.6719818,15.4545135,17.7740021,13.8374786L17.7740021,13.8374786z M17.2889862,7.0684967
		c-0.0779724,0.0270386-1.0620117,1.4060059,0.0780029,2.5740051C18.1249847,7.9515228,17.3240204,7.0565033,17.2889862,7.0684967
		L17.2889862,7.0684967z M17.2889862,7.0684967"/>
	<path class="st2" d="M33.5310211,44.9004974H1.4729767c-0.6489563,0-1.1719666-0.5239868-1.1719666-1.1719971V31.2985077
		h34.3979797v12.4299927C34.6989899,44.3765106,34.1760101,44.9004974,33.5310211,44.9004974L33.5310211,44.9004974z
		 M33.5310211,44.9004974"/>
	<path class="st3" d="M9.0080109,42.4975128H7.6959991v-8.0580139h2.3199768c0.3400269,0,0.6800232,0.0550232,1.0150452,0.1640015
		c0.335968,0.1090088,0.6369934,0.2730103,0.9029846,0.4920044c0.2649841,0.2189941,0.4799805,0.4810181,0.6439819,0.7930298
		c0.1640015,0.3089905,0.2460327,0.6559753,0.2460327,1.0429688c0,0.4100037-0.0660095,0.7770081-0.2070312,1.1089783
		c-0.1359863,0.3320312-0.3320007,0.6140137-0.5780029,0.8399963c-0.2499695,0.2230225-0.5469971,0.3990479-0.8980103,0.5240173
		c-0.3479614,0.125-0.7379761,0.1870117-1.1599731,0.1870117H9.0080109V42.4975128z M9.0080109,35.4355011v3.1910095h1.2029724
		c0.1600342,0,0.3200073-0.0270081,0.4770203-0.0820007c0.1560059-0.0540161,0.3009949-0.1440125,0.4330139-0.2690125
		c0.1289978-0.1209717,0.2349854-0.2969971,0.3169861-0.5159912c0.0779724-0.2220154,0.1210022-0.5,0.1210022-0.8280029
		c0-0.1289978-0.0200195-0.2810059-0.0549927-0.4530029c-0.039032-0.1719971-0.1130066-0.3359985-0.2260132-0.4919739
		c-0.1140137-0.1570129-0.269989-0.289032-0.4769897-0.3950195c-0.2030029-0.105011-0.4730225-0.1560059-0.809021-0.1560059
		H9.0080109z M9.0080109,35.4355011"/>
	<path class="st3" d="M20.8749847,38.2445221c0,0.6639709-0.0699768,1.2299805-0.2109985,1.7030029
		c-0.1439819,0.4679871-0.3239746,0.8629761-0.5429688,1.1789856c-0.2180176,0.3169861-0.4649963,0.5670166-0.7380371,0.75
		c-0.2729797,0.1839905-0.5390015,0.3210144-0.7929993,0.4110107c-0.2539673,0.0889893-0.4880066,0.1479797-0.6990051,0.1749878
		c-0.210968,0.0239868-0.3669739,0.0350037-0.4729919,0.0350037h-3.0509949v-8.0580139h2.4299927
		c0.6760254,0,1.2740173,0.105011,1.7850037,0.3200073c0.5159912,0.2149963,0.9420166,0.5039978,1.2810059,0.8600159
		c0.3400269,0.3549805,0.5939941,0.7649841,0.7620239,1.2179871C20.792984,37.2945099,20.8749847,37.7635345,20.8749847,38.2445221
		L20.8749847,38.2445221z M16.9810028,41.5375214c0.8900146,0,1.5310059-0.2860107,1.9250183-0.8520203
		c0.3949585-0.5700073,0.5899658-1.394989,0.5899658-2.4729919c0-0.3359985-0.0390015-0.6679993-0.1169739-0.9960022
		c-0.0820007-0.3280029-0.2380066-0.625-0.4649963-0.8899841c-0.230011-0.2659912-0.5430298-0.4810181-0.9370117-0.6450195
		c-0.3950195-0.1640015-0.9030151-0.2460022-1.5310059-0.2460022h-0.7660217v6.1020203H16.9810028z M16.9810028,41.5375214"/>
	<path class="st3" d="M24.1129913,35.4355011v2.5350037h3.3680115v0.8989868h-3.3680115v3.6280212h-1.3349915v-8.0580139h5.0429993
		v0.9960022H24.1129913z M24.1129913,35.4355011"/>
</g>
</svg>
