<?xml version="1.0" encoding="utf-8"?>
<!-- Generator: Adobe Illustrator 22.0.1, SVG Export Plug-In . SVG Version: 6.00 Build 0)  -->
<svg version="1.1" id="Calque_1" xmlns="http://www.w3.org/2000/svg" xmlns:xlink="http://www.w3.org/1999/xlink" x="0px" y="0px"
	 viewBox="0 0 454.5 121.2" style="enable-background:new 0 0 454.5 121.2;" xml:space="preserve">
<style type="text/css">
	.st0{fill:#FFFFFF;}
	.st1{fill:#AAAAAA;}
	.st2{fill:none;stroke:#000000;stroke-width:0.7;}
	.st3{fill:#020202;}
</style>
<g>
	<g>
		<path d="M112,56c0,30.9-25.1,56-56,56S0,86.9,0,56S25.1,0,56,0S112,25.1,112,56L112,56z"/>
	</g>
	<path class="st0" d="M85.7,54.2c0,23.3-13.3,42.2-29.7,42.2S26.3,77.5,26.3,54.2s12.9-33.4,29.3-33.4S85.7,30.9,85.7,54.2
		L85.7,54.2z"/>
	<path class="st1" d="M38.9,27.6c-9.1,8.3-11.1,21.9-3.7,25.5c7.7,3.7,15.5-0.7,21.2-8.4c5.4,7.1,12.5,11.3,19.8,8.2
		c7.1-3.1,7.3-16.7-2.9-25C61.5,31.5,50,31.2,38.9,27.6L38.9,27.6z"/>
	<path class="st1" d="M54.4,61.7l1.6,2.1l1.7-2.2l-1.7,7L54.4,61.7z"/>
	<path class="st1" d="M63.2,67.4l1.6,2.1l1.7-2.2l-1.7,7L63.2,67.4z"/>
	<path class="st1" d="M45.6,67.4l1.6,2.1l1.7-2.2l-1.7,7L45.6,67.4z"/>
	<path class="st1" d="M42.3,77.5l1.6,2.1l1.7-2.2l-1.7,7L42.3,77.5z"/>
	<path class="st1" d="M66.5,77.5l1.6,2.1l1.7-2.2l-1.7,7L66.5,77.5z"/>
	<path class="st0" d="M28.1,17.7l1.9,6.2c16.5,8.2,34,9,51.9,0.5l2-6.2C64.2,29.2,46,28,28.1,17.7L28.1,17.7z"/>
	<path class="st0" d="M44.6,32.9C41,32.9,38,36,38,39.8c0,3.8,2.9,6.9,6.6,6.9c3.6,0,6.6-3.1,6.6-6.9C51.2,36,48.2,32.9,44.6,32.9
		L44.6,32.9z M67.4,32.9c-3.6,0-6.6,3.1-6.6,6.9c0,3.8,2.9,6.9,6.6,6.9c3.6,0,6.6-3.1,6.6-6.9C73.9,36,71,32.9,67.4,32.9L67.4,32.9z
		"/>
	<path class="st2" d="M44.6,32.9C41,32.9,38,36,38,39.8c0,3.8,2.9,6.9,6.6,6.9c3.6,0,6.6-3.1,6.6-6.9C51.2,36,48.2,32.9,44.6,32.9
		L44.6,32.9z M67.4,32.9c-3.6,0-6.6,3.1-6.6,6.9c0,3.8,2.9,6.9,6.6,6.9c3.6,0,6.6-3.1,6.6-6.9C73.9,36,71,32.9,67.4,32.9L67.4,32.9z
		"/>
	<path d="M49,38.1c0,1.6-1.2,2.9-2.7,2.9s-2.7-1.3-2.7-2.9c0-1.6,1.2-2.9,2.7-2.9C47.8,35.2,49,36.5,49,38.1L49,38.1z"/>
	<path d="M71.7,38.1c0,1.6-1.2,2.9-2.7,2.9s-2.7-1.3-2.7-2.9c0-1.6,1.2-2.9,2.7-2.9C70.5,35.2,71.7,36.5,71.7,38.1L71.7,38.1z"/>
	<path d="M53.1,46.6c0.2-1.5,0.6-4,2.9-4c2.3,0,2.8,2.5,2.9,4C59.2,48.9,56,53,56,53S52.8,48.9,53.1,46.6L53.1,46.6z"/>
	<path class="st1" d="M48.2,90.4c-1.9,0.1-2.1,2.1-2.1,2.1s0.1-1.6-1.7-1.6c-1.5,0-2,3.1-1.9,5c0.1,2.6,2.3,5.4,2.3,5.4
		c0.2-2,0.5-2.9,1.2-4.3c0.1,1.1,0.4,3.3,2,4.8c0,0,1.2-1.5,2.1-5.2c0.6,1.8,0.8,4.3,0.8,4.3c1.9-1,2.5-3.4,2.6-4.5
		c0.1-3.6-0.1-5.1-1.3-5.1c-1-0.1-1.9,0.1-2.1,1.2C49.8,91.2,49.3,90.3,48.2,90.4L48.2,90.4z"/>
	<g>
		<path class="st1" d="M63.8,90.4c1.9,0.1,2.1,2.1,2.1,2.1s-0.1-1.6,1.7-1.6c1.5,0,2,3.1,1.9,5c-0.1,2.6-2.3,5.4-2.3,5.4
			c-0.2-2-0.5-2.9-1.2-4.3c-0.1,1.1-0.5,3.3-2,4.8c0,0-1.2-1.5-2.1-5.2c-0.6,1.8-0.8,4.3-0.8,4.3c-1.9-1-2.6-3.4-2.6-4.5
			c-0.1-3.6,0.1-5.1,1.4-5.1c1-0.1,1.9,0.1,2.1,1.2C62.1,91.2,62.6,90.3,63.8,90.4L63.8,90.4z"/>
	</g>
	<path class="st3" d="M145.8,25.3c-1,1.8-2.2,3.1-3.5,4c-0.2,1.3-0.7,2.3-1.4,3.1l0.7,1.8c0.6,2,1.3,3.6,2.1,4.6l-0.8,1.5
		c0,3.5-1,6.4-3,8.7l0.1,2.1c0.2,0.7,0.4,1.6,0.4,2.8c-1.2,2.3-1.6,4.5-1.2,6.8c-0.8,1.9-1,3.7-0.6,5.2c-0.4,1-0.9,1.9-1.4,2.5
		l0.6,1l-0.6,0.6l-0.2,1.6c0.3,0.8,0.5,1.6,0.4,2.5l-0.3,0.6l0.3,5.9c3.1,3.9,6.8,5.8,11.1,5.8l1,1.6l1.2-0.3
		c1.2-0.3,2.3-0.4,3.4-0.3c1.9-0.9,3.7-1.4,5.5-1.5c0.2-0.4,0.4-0.6,0.6-0.6h2.1c1.2-1.1,2.5-1.7,3.9-1.8l0.8-1.6
		c1-0.3,1.9-0.4,2.7-0.3c1.5-1.2,3.1-1.8,4.8-1.8l0.6-1.2c1.8-1.1,3.4-1.8,4.8-2.2c1.2-2.2,2.9-3.8,5-4.6c0.6-1.2,1.3-2.2,2-2.8
		l-0.1-2.5l-1-0.9c-1.1,0.5-2.1,0.7-3,0.6c-3.6,3.9-7.7,6.2-12.3,6.8c-2.4,2.5-5.1,3.6-8.1,3.4l-0.3,1.2c-6.3,2.1-11.4,1.4-15.2-2.1
		c-1.6-6.1-1.7-11.7-0.5-17c1-0.1,1.8-0.1,2.5,0l4.8-1.2l1.9,0.6l1.2-0.3h4l1,0.3h3.7c2.4,0.4,4.5,0.6,6.2,0.6l0.6-0.6
		c1.2-0.4,2.4-0.7,3.4-0.6l0.3-0.6l0.6-0.3h0.9c1.1-1.2,2.3-2,3.6-2.5l-0.4-1.6l-1-0.6c-2.2,0.1-4.2-0.2-5.9-1
		c-2.4,0-4.4-0.5-6.2-1.5c-4,0.8-7.5,0.2-10.6-1.9c-2.6-0.5-4.7-1.7-6.3-3.4l1.7-3.4c1.4,0,2.5-0.2,3.4-0.6c1-0.4,1.8-0.8,2.4-1.2
		l2.5,0.3c8.2-1.9,15.9-1.8,23.1,0.3l0.9-0.6c3.3,0.8,6.2,1,8.7,0.6c1.1-0.9,1.5-2.1,1.4-3.4c-2.1-1.8-4.1-3.1-6-3.7
		c-2.1,0-3.9-0.5-5.3-1.6c-1.9,0.2-3.6,0.1-4.9-0.3L178,30c-2.2,0.2-4.1-0.1-5.9-1c-2,0-3.9-0.3-5.6-0.9c-1.9,0.3-3.7,0.1-5.2-0.6
		c-3.9,0.2-7.3-0.4-10.2-1.9h-1l-3.7-1.2L145.8,25.3"/>
	<path class="st3" d="M209.6,31.6c-1.2,1.7-2.6,2.9-4.3,3.7l-0.6,2c-0.8,2.9-1.3,5.3-1.4,7.1l-0.6,0.6c-0.6,2.2-1.6,3.9-2.8,5.1
		c0.3,2.4-0.3,4.4-1.7,6c-0.2,1.9-0.7,3.4-1.7,4.5c0,3.2-0.6,5.9-1.9,8.2c0.1,1.6-0.3,2.8-1.1,3.7c0,1.4-0.3,2.6-0.8,3.7
		c-2.1,1.2-3.3,2.9-3.4,5.1c0,2.9,1,5.1,2.8,6.8c1.4,0,2.5,0.1,3.4,0.3c0.3-0.2,0.6-0.3,0.8-0.3c1.6-1.2,3.2-1.9,4.8-2.3
		c0.2-0.3,0.5-0.5,0.8-0.6l0.8-0.6c0.9-1.2,2.1-1.8,3.4-2v-0.8c1.6-0.4,2.8-1.2,3.7-2.3c1.3,0.2,2.4,0.8,3.1,1.7
		c2.9,0.5,5.2,1.5,7.1,3.1c5.7,3.7,11.3,4,16.7,1.1v-0.9c-0.5-0.7-0.8-1.4-0.8-2.3c-1-0.4-1.8-1-2.3-1.7c-2.6,0.1-4.6-0.9-6-2.8
		c-1.9-0.6-2.5-1.5-1.7-2.8c-2.1-0.9-3.4-2.4-4-4.5c0.7-0.9,1.3-1.6,1.7-2c0.9-0.4,1.7-0.7,2.3-0.9c0.4-0.7,0.9-1.2,1.7-1.4
		c0.3-0.7,0.7-1.3,1.1-1.7l0.8-0.8l0.8-0.3l1.2-0.6l0.3-0.8h0.9l2.8-1.7c1-1.1,2-1.8,3.1-2.3c0.8-1.6,1.2-3,1.4-4.3
		c-1.8-0.7-3.3-0.7-4.5,0c-1.4,1.3-2.8,2.1-4.2,2.3c-0.8,1.6-2,2.6-3.4,3.1l-2,0.3c-0.5,1.3-1.3,2.1-2.5,2.5
		c-1.4,0.4-2.5,0.9-3.4,1.4c-1.8,1.4-3.6,2.3-5.4,2.6c-1,1.2-2,2-3.1,2.5c-0.8,1.8-2.1,2.6-4,2.5c-0.9,1.2-1.9,2-3.1,2.3
		c-0.4,1-0.9,1.8-1.7,2.3c-1.2,0.8-1.9,0.6-2-0.6c0.2-3.6,0.9-6,2.3-7.1c-0.1-2.4,0.5-4.5,1.7-6.2c0.1-1.1,0.1-2.2,0-3.1l0.6-1.1
		l0.6-0.9l0.6-1.7l0.3-0.9c1.6-2,2.6-3.8,3.1-5.6l0.6-0.6l2.5-2.5c0.8-1.7,1.8-3,2.9-4v-1.7l0.3-1.9c0-1.2,0.1-2.3,0.3-3.1
		C214.4,32.3,212.1,31.3,209.6,31.6"/>
	<path class="st3" d="M245.7,50.2c-5.2,2.6-6.6,5.9-4.1,9.9l1,0.3c0.4,3.4,1.2,6,2.3,7.9s2.1,3.5,2.8,4.9c1.6,1.4,2.8,2.5,3.4,3.2
		c0.6,0.8,2.4,2.1,5.4,4.1l5.8,0.3v1c-1.4,1.6-2,3.3-1.9,5.1c-1.3,1.5-1.8,3.1-1.6,4.8c-3.7,8.4-4.9,16.9-3.5,25.3
		c0.7,0.5,1.3,1.2,1.6,1.9c1.2,0.8,2.1,1.5,2.9,2.2c1.7,0,3.2-0.3,4.5-1V118c-2.4-4.6-2.8-9.2-1.3-13.7c-0.1-3.6,0.7-6.7,2.5-9.3
		c-0.1-4,1-7.2,3.2-9.6c1-4.8,3.3-8.3,7-10.6c1.8-2.5,3.7-4.4,5.8-5.4l0.6-1.9l1-0.6l5.1-5.1c0.8-3.4,0.6-6.3-0.6-8.9
		c-3.2-2.1-6.3-2.2-9.3-0.3V54l-1.9,0.6c-0.8,1.7-1.2,3.3-1.3,4.8l-1.3,0.6c-0.4,1.6-1.4,2.8-2.9,3.5c-0.5,1.3-1.1,2.3-1.9,3.2
		c-0.3,2.1-1.3,3.6-2.9,4.5c-0.4,1.3-1.1,2.3-1.9,3.2c-5.9-1.6-9.8-8.6-11.8-20.7c-1.8-0.7-3.2-1.8-4.1-3.2
		C247.2,50.5,246.4,50.4,245.7,50.2"/>
	<path class="st3" d="M299.3,30.4c-0.4,1.7-1.2,3-2.3,3.9V41c-0.2,0.4-0.4,0.6-0.6,0.6c-0.2,2.4-0.6,4.4-1.3,5.8l0.3,1v4.8
		c-0.2,2.5-0.3,4.7-0.3,6.5l-1.3,1.6v1.9l-0.3,0.6v1c-0.2,1-0.3,1.9-0.3,2.6c-1.3,2.7-1.8,6-1.6,10c-0.1,2.5-0.1,4.7,0,6.5
		c1.4,1,2.2,2.2,2.6,3.5h1c0.9,0.3,1.7,0.4,2.6,0.3l1-1.3l0.4-1.9c-0.7-4.8-0.2-9.3,1.6-13.2v-0.9l-0.3-1l0.3-0.6
		c0.9-2.6,1.5-4.9,1.6-6.8l0.6-0.4c-0.2-2.1-0.1-3.9,0.3-5.5l0.3-1.9l1.3-1l0.4-1v-2.6c1.6-3.7,2.3-7.4,2.2-11
		c1.2-0.9,1.8-2,1.9-3.2c-0.6-0.8-0.8-1.7-0.6-2.6c-1.3-1-1.9-2.3-1.6-3.9c-1.2-0.7-2.4-1-3.5-1L299.3,30.4"/>
	<path class="st3" d="M314.5,32.7c0,1.6-0.2,3-0.8,4.2c0.3,0.2,0.5,0.4,0.5,0.6c0.2,0.2,0.3,0.3,0.3,0.5c0.5,1.4,1,2.6,1.6,3.4
		c1.5,0.2,2.7,0.7,3.7,1.6c1-0.4,2.1-0.5,3.1-0.2c1.9,2,3.6,2.5,5.2,1.5c0.4-1,0.4-2,0.2-3.1l-1.8-0.8l-0.5-0.8
		c-0.8-2.4-2-4.3-3.4-5.8c-0.1-0.9-0.3-1.7-0.8-2.3c-1.5-0.5-2.7-0.7-3.7-0.8L314.5,32.7 M315.7,59c-0.6,1-1.2,1.8-1.8,2.4v1
		c-0.9,3.1-1.7,7.2-2.5,12.2c-0.7,0.6-1.2,1.2-1.6,1.9c-0.8,10.6,1.7,14,7.3,10.2l0.2-0.8c-0.7-1.6-1-3.1-1-4.4
		c0.4-1.3,0.8-2.3,1.3-3.1c0.2-1.1,0.7-2.1,1.3-2.9c1.5-5.6,3-9.2,4.6-10.9c-0.3-4-2.4-6.3-6.3-6.8L315.7,59"/>
	<path class="st3" d="M338.2,28.2c-0.9,0.7-1.7,1-2.6,1.1c-0.4,1.4-1,2.4-1.9,3.2c-0.5,3.1-0.1,5.8,1.3,7.9v4.2
		c-0.1,0.7-0.1,1.5-0.1,2.6l0.1,0.3l0.2,0.3v1.9l0.2,1l0.4,1c-0.1,1.6-0.5,3.1-1.2,4.3c0.3,1.2,0.4,2.3,0.3,3.2L334,60l-0.2,0.8
		l-0.7,3.6c1.2,1.1,2,2.5,2.3,4.1l0.6,0.7c1.6,0.4,3,0.4,4.2,0c0.3-0.4,0.7-0.7,1-0.8c0.5-1.4,1.3-2.2,2.4-2.4l0.5-1.2l0.4-0.3
		l0.1-0.5c0.3-0.4,0.5-0.9,0.6-1.3l0.4-0.3l0.1-0.3c0.8-0.8,1.5-1.6,1.9-2.5c1.4-0.2,2.2,0.2,2.4,1.1l0.4,0.2
		c2.3-0.2,4.2,0.1,5.8,0.8c2-0.2,3.7,0.4,4.9,1.6c0.9,0,1.6,0.4,2.1,1.2c0.7-0.1,1.7,0.7,2.8,2.3c2.5,1.1,4.4,2.8,5.5,5.2v0.6
		l-0.1,1c1.4,1.7,0.9,3.8-1.3,6.4c-1.3,0.4-2.4,1-3.2,1.8c-0.9-0.3-1.6-0.4-2.3-0.3c-0.7,0.2-1.3,0.2-1.9,0l-0.4,0.2l-0.5,0.2
		c-2,0-3.7,0.2-5,0.6c-1.5-0.6-2.9-0.7-4.2-0.5c-0.3-0.3-0.6-0.6-0.8-1l-0.3-0.2c-0.9-1.5-1.7-2.4-2.3-2.7l-0.3-0.3
		c0-1.4-0.4-2.5-1-3.4c-0.7-0.1-1.4-0.1-2,0c-2.6,4.5-3,7.5-1.3,9.1c0.7,1.8,1.9,2.8,3.5,3.1l0.8,0.8c1.6,0.2,3,0.8,4,1.8h0.7
		c0.3-0.5,0.7-0.9,1.2-1.2l1.2,0.4c0.7-0.1,1.3,0.1,1.7,0.3c1-0.1,1.8-0.3,2.5-0.5l1.6,0.4l0.6-0.2h2l0.4-0.2h2.5
		c1.1-0.3,2.1-0.4,3.1-0.3c1.6-1.4,3.3-2.2,5.1-2.4c0.3-0.5,0.6-0.9,0.8-1.2c5.3-0.8,7.3-5.3,6.1-13.6c-1.5-1.5-2.3-3.3-2.2-5.4
		c-1.4-0.9-2.4-2-3-3.4c-0.8-0.4-1.4-1-1.7-1.6H375c-0.6-0.2-1.1-0.2-1.6-0.2c-0.7-1.1-1.3-2.1-1.6-3.1c-0.9-0.5-1.5-1-2-1.6
		l-0.3-0.2c-1.9-0.8-3.4-1.8-4.5-3.1h-0.4c-0.4,0.2-0.8,0.2-1.2,0.2l-0.3-0.5c-1.7-0.4-3.1-1-4.2-1.9c-0.7,0.2-1.2,0.3-1.6,0.4
		c-1.4-0.9-2.7-1.3-4.1-1c-0.7-0.4-1.2-0.8-1.6-1.3h-1l-0.4,0.3c-0.6,0-1.1-0.1-1.5-0.2h-0.4c-0.9,0.3-1.7,0.4-2.4,0.4
		c-0.7,0.7-1.5,1-2.2,1.1c-0.3,0.5-0.7,0.8-1.1,1c-0.5-1.7-0.4-3.3,0.1-4.7c-0.7-2.6-0.5-5,0.6-7c-0.1-1.3,0.1-2.4,0.4-3.3V35
		c0-1.3,0-2.4-0.1-3.3c-0.1-0.1-0.2-0.2-0.2-0.3l-0.3-0.3l-0.2-0.4c-0.3-0.8-0.6-1.4-0.9-1.9h-0.4c-0.6-0.2-1.1-0.3-1.6-0.3
		C339.3,28.5,338.7,28.4,338.2,28.2"/>
	<path class="st3" d="M406.1,48.6c-0.8,1-1.8,1.3-3.1,0.8c-0.8,1.8-2.1,2.9-3.9,3.3c-0.5,1-0.8,2-1,2.9c-1.8-1-3.5-1.4-5.2-1
		l-3.6,4.6l-0.3,1l-0.2,2.1l-0.5,2.3l-0.5,0.3c-0.2,1.3-0.5,2.4-1,3.3c0,1.9-0.4,3.5-1,4.9c0.2,0.6,0.3,1.3,0.2,2.1
		c-2.1,3.3-2.9,6.7-2.3,10.1c1.3,1.4,2.6,2.2,4.1,2.6l1-0.2c0.6-0.7,0.9-1.4,1-2.1l2.3-1.3c0.7-1.1,1.5-1.8,2.3-2.3
		c-0.8-4.8,0.2-9.1,2.8-12.6c0.5-3,1.8-5.4,3.9-7.2c2.8-5.7,7.6-6.6,14.5-2.6c2.1-1,3-2.4,2.6-4.1l-0.5-0.8l-0.3-0.3
		c-1.2-1-2.1-2-2.6-2.8v-0.3v0.3v-0.3c-1.4-0.4-2.6-1-3.6-1.8l-0.5-0.3C408.9,49.3,407.4,49.2,406.1,48.6"/>
	<path class="st3" d="M442.1,47.7c-0.2,0.2-0.3,0.3-0.5,0.3c-3.9,0.3-7.3,1.3-10.2,3l-0.8,1.5l-2,0.5c-1.3,0.9-2.4,1.5-3.5,1.8
		c-0.1,0.3-0.3,0.5-0.5,0.5c-0.3,0.8-0.7,1.5-1,2c-2.4,2.8-3.8,5.6-4.2,8.5c-0.1,0.6-0.4,1.1-0.8,1.5v1l0.5,1.2l-0.5,1.8
		c0.3,1,0.4,1.8,0.5,2.5l0.5,4l0.2,0.8l0.8,0.5l0.5,1.8c1.1,1,1.8,2,2.2,3l0.8,0.3l0.5,0.7l1.3,0.3l0.8,0.2l0.5,0.5h0.8l0.5,0.2
		l4.7,2l1-0.2c0.8-0.2,1.4-0.2,2,0l0.8-0.3h1.5l2-0.2c1.9-0.4,3.5-0.5,5-0.5l0.5-1h0.7c0.9-0.5,2-0.7,3-0.8c0.8-1,1.9-1.4,3.2-1.3
		c0.4-0.8,1-1.3,1.7-1.5l-0.2-2.3c-1.9,0.2-3.4,0.1-4.7-0.2c-1.3,0.4-2.4,0.5-3.5,0.2c-5.6,1.2-10.8,1-15.7-0.7
		c-0.4-0.8-1-1.4-1.7-1.7c1-1.4,2.1-2.4,3.2-3l1-1l1.3-0.8l1.2-0.5c2-2.2,4.1-3.8,6.2-4.7l0.2-0.8l0.8-0.2c1.4-1.6,2.9-2.8,4.5-3.5
		c0.5-1.4,1.4-2.3,2.7-2.7l0.5-3c1.9-2.4,1.9-4.7,0-7c-1.2-0.9-2.5-1.4-3.7-1.5l-0.5-0.3C444.4,48.5,443.1,48.2,442.1,47.7
		 M442.6,56.2c-0.6,2.7-2,4.4-4.5,5.2c-1.7,2.5-4,3.5-6.7,2.7c-0.7,1-1.7,1.4-2.7,1.3c0.2-2.2,1.3-3.8,3.2-4.7
		c1.6-2.4,3.8-3.5,6.5-3.5c0.6-0.7,1.3-1.2,2-1.5L442.6,56.2"/>
</g>
</svg>
