<?xml version="1.0" encoding="utf-8"?>
<!-- Generator: Adobe Illustrator 22.0.1, SVG Export Plug-In . SVG Version: 6.00 Build 0)  -->
<svg version="1.1" id="Capa_1" xmlns="http://www.w3.org/2000/svg" xmlns:xlink="http://www.w3.org/1999/xlink" x="0px" y="0px"
	 viewBox="0 0 60 39.1" style="enable-background:new 0 0 60 39.1;" xml:space="preserve">
<style type="text/css">
	.st0{fill:#333333;}
	.st1{fill:#83E054;}
</style>
<g>
	<path class="st0" d="M42,1.6H18c-9.9,0-18,8.1-18,18s8.1,18,18,18h24c9.9,0,18-8.1,18-18S51.9,1.6,42,1.6z M18,32.6
		c-7.2,0-13-5.8-13-13s5.8-13,13-13s13,5.8,13,13S25.2,32.6,18,32.6z M49.7,16.3l-8,8c-0.2,0.2-0.5,0.3-0.7,0.3s-0.5-0.1-0.7-0.3
		l-4-4c-0.4-0.4-0.4-1,0-1.4s1-0.4,1.4,0l3.3,3.3l7.3-7.3c0.4-0.4,1-0.4,1.4,0S50.1,15.9,49.7,16.3z"/>
	<path class="st1" d="M18,32.6c-7.2,0-13-5.8-13-13s5.8-13,13-13s13,5.8,13,13S25.2,32.6,18,32.6z M49.7,16.3l-8,8
		c-0.2,0.2-0.5,0.3-0.7,0.3s-0.5-0.1-0.7-0.3l-4-4c-0.4-0.4-0.4-1,0-1.4s1-0.4,1.4,0l3.3,3.3l7.3-7.3c0.4-0.4,1-0.4,1.4,0
		S50.1,15.9,49.7,16.3z"/>
</g>
</svg>
