<?xml version="1.0" encoding="utf-8"?>
<!-- Generator: Adobe Illustrator 22.0.1, SVG Export Plug-In . SVG Version: 6.00 Build 0)  -->
<svg version="1.1" id="Capa_1" xmlns="http://www.w3.org/2000/svg" xmlns:xlink="http://www.w3.org/1999/xlink" x="0px" y="0px"
	 viewBox="0 0 60 36" style="enable-background:new 0 0 60 36;" xml:space="preserve">
<style type="text/css">
	.st0{fill:#333333;}
	.st1{fill:#83E054;}
</style>
<g>
	<path class="st0" d="M42,0H18C8.1,0,0,8.1,0,18s8.1,18,18,18h24c9.9,0,18-8.1,18-18S51.9,0,42,0z M18,31c-7.2,0-13-5.8-13-13
		S10.8,5,18,5s13,5.8,13,13S25.2,31,18,31z M49.7,14.7l-8,8C41.5,22.9,41.2,23,41,23s-0.5-0.1-0.7-0.3l-4-4c-0.4-0.4-0.4-1,0-1.4
		s1-0.4,1.4,0l3.3,3.3l7.3-7.3c0.4-0.4,1-0.4,1.4,0S50.1,14.3,49.7,14.7z"/>
	<path class="st1" d="M18,31c-7.2,0-13-5.8-13-13S10.8,5,18,5s13,5.8,13,13S25.2,31,18,31z M49.7,14.7l-8,8C41.5,22.9,41.2,23,41,23
		s-0.5-0.1-0.7-0.3l-4-4c-0.4-0.4-0.4-1,0-1.4s1-0.4,1.4,0l3.3,3.3l7.3-7.3c0.4-0.4,1-0.4,1.4,0S50.1,14.3,49.7,14.7z"/>
</g>
</svg>
