<?xml version="1.0" encoding="utf-8"?>
<!-- Generator: Adobe Illustrator 24.3.0, SVG Export Plug-In . SVG Version: 6.00 Build 0)  -->
<svg version="1.1" id="Calque_1" xmlns="http://www.w3.org/2000/svg" xmlns:xlink="http://www.w3.org/1999/xlink" x="0px" y="0px"
	 viewBox="0 0 785.7 1000" style="enable-background:new 0 0 785.7 1000;" xml:space="preserve">
<style type="text/css">
	.st0{fill:#333333;}
</style>
<path class="st0" d="M785.7,784c0,90.4-60.3,144.6-149,144.6H149C60.3,928.6,0,874.4,0,784c0-126.1,29.6-319.7,193.1-319.7
	c17.3,0,90.4,77.6,199.8,77.6s182.4-77.6,199.7-77.6C756.1,464.3,785.7,657.9,785.7,784L785.7,784z M607.1,285.7
	C607.1,404,511.2,500,392.9,500s-214.3-96-214.3-214.3s96-214.3,214.3-214.3S607.1,167.4,607.1,285.7z"/>
</svg>
