<?xml version="1.0" encoding="utf-8"?>
<!-- Generator: Adobe Illustrator 23.0.2, SVG Export Plug-In . SVG Version: 6.00 Build 0)  -->
<svg version="1.1" id="Calque_1" xmlns="http://www.w3.org/2000/svg" xmlns:xlink="http://www.w3.org/1999/xlink" x="0px" y="0px"
	 viewBox="0 0 401 292.5" style="enable-background:new 0 0 401 292.5;" xml:space="preserve">
<style type="text/css">
	.st0{fill:url(#SVGID_1_);}
	.st1{fill:url(#SVGID_2_);}
	.st2{fill:#3A3A3A;}
</style>
<g>
	<linearGradient id="SVGID_1_" gradientUnits="userSpaceOnUse" x1="200.5" y1="292.5" x2="200.5" y2="-9.094947e-13">
		<stop  offset="0" style="stop-color:#BBBBBB"/>
		<stop  offset="1" style="stop-color:#DCDCDC"/>
	</linearGradient>
	<path class="st0" d="M376,292.5H25c-13.7890625,0-25-11.2109375-25-25V25C0,11.2109375,11.2109375,0,25,0h351
		c13.7890625,0,25,11.2109375,25,25v242.5C401,281.2890625,389.7890625,292.5,376,292.5z M25,10c-8.2714844,0-15,6.7285156-15,15
		v242.5c0,8.2714844,6.7285156,15,15,15h351c8.2714844,0,15-6.7285156,15-15V25c0-8.2714844-6.7285156-15-15-15H25z"/>
	<linearGradient id="SVGID_2_" gradientUnits="userSpaceOnUse" x1="200.5" y1="282.5" x2="200.5" y2="10">
		<stop  offset="0" style="stop-color:#E8E8E8"/>
		<stop  offset="1" style="stop-color:#F9F9F9"/>
	</linearGradient>
	<path class="st1" d="M25,10c-8.2714844,0-15,6.7285156-15,15v242.5c0,8.2714844,6.7285156,15,15,15h351
		c8.2714844,0,15-6.7285156,15-15V25c0-8.2714844-6.7285156-15-15-15H25z"/>
	<path class="st2" d="M154.2237396,199.3801575c0-3.5346069-2.9364471-6.4710693-6.4710693-6.4710693
		c-3.5346069,0-6.4710541,2.9364624-6.4710541,6.4710693c0,3.5346222,2.9183197,6.4710693,6.4710541,6.4710693
		C151.3054199,205.8512268,154.2237396,202.9329071,154.2237396,199.3801575z M219.3694,156.9104004l-68.9884186,68.9703064
		c-2.3382874,2.3382874-5.6735077,3.7521362-9.0993652,3.7521362s-6.7792206-1.4138489-9.2081299-3.7521362l-10.7307281-10.9119873
		C118.9138489,212.6304321,117.5,209.2952118,117.5,205.8512268s1.4138489-6.7610779,3.8427582-9.1900024l68.8796692-68.8977966
		C195.4971619,141.0137024,206.1191254,151.6356659,219.3694,156.9104004z M283.5,112.8999252
		c0,3.335228-1.214447,7.4861298-2.3382874,10.7307281c-6.3623047,17.9993515-23.6728516,30.4339371-42.7778931,30.4339371
		c-24.9960785,0-45.3155823-20.3195038-45.3155823-45.3155746s20.3195038-45.3155708,45.3155823-45.3155708
		c7.3773651,0,16.9842682,2.2295265,23.1653137,6.3804283c0.9969482,0.7069244,1.6132507,1.6132355,1.6132507,2.8276978
		c0,1.1056976-0.7069397,2.2295227-1.6132507,2.8276901L231.9127502,92.562294v22.6577911l19.5219421,10.8394775
		c3.3352356-1.9213791,26.7905579-16.694252,28.8207092-16.694252S283.5,110.8697815,283.5,112.8999252L283.5,112.8999252z"/>
</g>
</svg>
