<?xml version="1.0" encoding="utf-8"?>
<!-- Generator: Adobe Illustrator 22.0.1, SVG Export Plug-In . SVG Version: 6.00 Build 0)  -->
<svg version="1.1" id="Calque_1" xmlns="http://www.w3.org/2000/svg" xmlns:xlink="http://www.w3.org/1999/xlink" x="0px" y="0px"
	 viewBox="0 0 1000 700" style="enable-background:new 0 0 1000 700;" xml:space="preserve">
<path d="M805.1,392.7c0,13.3-11.1,24.4-24.4,24.4h-85.4c0,47.7-10.3,83.5-25.6,110.6l79.3,79.7c9.5,9.5,9.5,24.8,0,34.3
	c-4.6,5-11.1,7.2-17.2,7.2s-12.6-2.3-17.2-7.2l-75.5-75.1c0,0-50,45.7-114.8,45.7V270.7h-48.8v341.7c-69,0-119.4-50.3-119.4-50.3
	L286.4,641c-5,5.3-11.5,8-18.3,8c-5.7,0-11.4-1.9-16.4-6.1c-9.9-9.2-10.7-24.4-1.9-34.7l77-86.6c-13.3-26.3-22.1-60.2-22.1-104.5
	h-85.4c-13.4,0-24.4-11.1-24.4-24.4c0-13.3,11-24.4,24.4-24.4h85.4V256.2l-66-65.9c-9.5-9.6-9.5-24.8,0-34.3
	c9.5-9.5,24.8-9.6,34.4,0l65.9,65.9h321.9l65.9-65.9c9.6-9.6,24.8-9.6,34.3,0c9.5,9.6,9.6,24.7,0,34.3l-65.9,65.9v112.1h85.4
	C794,368.3,805.1,379.4,805.1,392.7z M622.1,173.1H377.9C377.9,105.5,432.5,51,500,51S622.1,105.5,622.1,173.1z"/>
</svg>
