<?xml version="1.0" encoding="utf-8"?>
<!-- Generator: Adobe Illustrator 23.0.6, SVG Export Plug-In . SVG Version: 6.00 Build 0)  -->
<svg version="1.1" id="Calque_1" xmlns="http://www.w3.org/2000/svg" xmlns:xlink="http://www.w3.org/1999/xlink" x="0px" y="0px"
	 viewBox="0 0 810 329" style="enable-background:new 0 0 810 329;" xml:space="preserve">
<style type="text/css">
	.st0{fill:#FFFFFF;}
	.st1{fill:#00CC66;}
	.st2{fill:none;stroke:#000000;stroke-miterlimit:10;stroke-dasharray:10,10;}
	.st3{fill:#FF0000;}
	.st4{fill:#333333;}
</style>
<g>
	<rect x="218.9" y="90.4" class="st0" width="149.5" height="149.5"/>
	<path d="M368.1,90.6v149h-149v-149H368.1 M368.7,90.1h-150v150h150V90.1L368.7,90.1z"/>
</g>
<path class="st1" d="M487.5,32.6c0,0.4,0.1,0.8,0.3,1.1l21.7,37.5c0.4,0.7,1.1,1.1,1.9,1.1c0.8,0,1.5-0.4,1.9-1.1L535,33.7
	c0.2-0.3,0.3-0.7,0.3-1.1c0-0.4-0.1-0.8-0.3-1.1c-0.4-0.7-1.1-1.1-1.9-1.1h-43.3c-0.8,0-1.5,0.4-1.9,1.1
	C487.6,31.8,487.5,32.2,487.5,32.6z"/>
<g>
	<g>
		<polyline class="st2" points="379.2,244.9 379.2,249.9 374.2,249.9 		"/>
		<line class="st2" x1="364.3" y1="249.9" x2="11.2" y2="249.9"/>
		<polyline class="st2" points="6.2,249.9 1.2,249.9 1.2,244.9 		"/>
		<line class="st2" x1="1.2" y1="235.5" x2="1.2" y2="89.6"/>
		<polyline class="st2" points="1.2,84.9 1.2,79.9 6.2,79.9 		"/>
		<line class="st2" x1="16.2" y1="79.9" x2="369.3" y2="79.9"/>
		<polyline class="st2" points="374.2,79.9 379.2,79.9 379.2,84.9 		"/>
		<line class="st2" x1="379.2" y1="94.3" x2="379.2" y2="240.2"/>
	</g>
</g>
<g>
	<g>
		<polyline class="st2" points="808.8,244.9 808.8,249.9 803.8,249.9 		"/>
		<line class="st2" x1="793.8" y1="249.9" x2="440.7" y2="249.9"/>
		<polyline class="st2" points="435.8,249.9 430.8,249.9 430.8,244.9 		"/>
		<line class="st2" x1="430.8" y1="235.5" x2="430.8" y2="89.6"/>
		<polyline class="st2" points="430.8,84.9 430.8,79.9 435.8,79.9 		"/>
		<line class="st2" x1="445.7" y1="79.9" x2="798.8" y2="79.9"/>
		<polyline class="st2" points="803.8,79.9 808.8,79.9 808.8,84.9 		"/>
		<line class="st2" x1="808.8" y1="94.3" x2="808.8" y2="240.2"/>
	</g>
</g>
<g>
	<path d="M275.5,183.5h-2.3c-0.3,0-0.5-0.1-0.6-0.2s-0.3-0.3-0.4-0.5l-1.2-3.2h-6.6l-1.2,3.2c-0.1,0.2-0.2,0.3-0.3,0.5
		c-0.1,0.2-0.4,0.2-0.6,0.2H260l6.2-15.9h3L275.5,183.5z M265.2,177.5h5.1l-1.9-5.3c-0.1-0.2-0.2-0.5-0.3-0.8
		c-0.1-0.3-0.2-0.7-0.3-1c-0.1,0.4-0.2,0.7-0.3,1s-0.2,0.6-0.3,0.8L265.2,177.5z"/>
	<path d="M285,174.6c-0.1,0.1-0.2,0.2-0.2,0.2c-0.1,0.1-0.2,0.1-0.3,0.1c-0.1,0-0.3,0-0.4-0.1c-0.1-0.1-0.3-0.2-0.5-0.3
		c-0.2-0.1-0.4-0.2-0.7-0.3c-0.3-0.1-0.6-0.1-0.9-0.1c-0.5,0-0.9,0.1-1.3,0.3c-0.4,0.2-0.7,0.4-0.9,0.7c-0.2,0.3-0.4,0.7-0.5,1.2
		s-0.2,1-0.2,1.6s0.1,1.1,0.2,1.6s0.3,0.9,0.6,1.2c0.2,0.3,0.5,0.6,0.9,0.7s0.7,0.2,1.2,0.2s0.8-0.1,1.1-0.2s0.5-0.2,0.7-0.4
		c0.2-0.1,0.3-0.2,0.5-0.4c0.1-0.1,0.3-0.2,0.5-0.2s0.4,0.1,0.5,0.3l0.8,1c-0.3,0.4-0.6,0.6-1,0.9s-0.7,0.4-1.1,0.6
		c-0.4,0.1-0.8,0.2-1.2,0.3c-0.4,0.1-0.8,0.1-1.2,0.1c-0.7,0-1.4-0.1-2-0.4c-0.6-0.3-1.2-0.6-1.6-1.1c-0.5-0.5-0.8-1.1-1.1-1.8
		c-0.3-0.7-0.4-1.5-0.4-2.5c0-0.8,0.1-1.6,0.4-2.3c0.2-0.7,0.6-1.3,1.1-1.8s1-0.9,1.7-1.2c0.7-0.3,1.5-0.4,2.4-0.4
		c0.8,0,1.6,0.1,2.2,0.4s1.2,0.7,1.7,1.2L285,174.6z"/>
	<path d="M287.5,183.5v-16.4h2.7v6.3c0.4-0.4,0.9-0.8,1.5-1c0.5-0.3,1.1-0.4,1.9-0.4c0.6,0,1.2,0.1,1.6,0.3c0.5,0.2,0.9,0.5,1.2,0.9
		c0.3,0.4,0.6,0.8,0.7,1.4c0.1,0.6,0.2,1.1,0.2,1.7v7.2h-2.7v-7.2c0-0.7-0.2-1.2-0.5-1.6c-0.3-0.4-0.8-0.6-1.4-0.6
		c-0.5,0-0.9,0.1-1.3,0.3s-0.8,0.5-1.2,0.9v8.2C290.2,183.5,287.5,183.5,287.5,183.5z"/>
	<path d="M308.9,183.5h-1.2c-0.3,0-0.5,0-0.6-0.1s-0.3-0.2-0.3-0.5l-0.2-0.8c-0.3,0.3-0.6,0.5-0.8,0.7c-0.2,0.2-0.6,0.4-0.9,0.5
		s-0.6,0.2-0.9,0.3s-0.7,0.1-1.1,0.1c-0.5,0-0.9-0.1-1.3-0.2c-0.4-0.1-0.8-0.3-1-0.6c-0.3-0.3-0.5-0.6-0.7-1s-0.2-0.8-0.2-1.3
		c0-0.4,0.1-0.8,0.3-1.3s0.6-0.8,1.1-1.1s1.2-0.6,2.1-0.8s1.9-0.3,3.2-0.3v-0.7c0-0.8-0.2-1.3-0.5-1.7s-0.8-0.5-1.4-0.5
		c-0.4,0-0.8,0.1-1.1,0.2c-0.3,0.1-0.5,0.2-0.8,0.3c-0.2,0.1-0.4,0.2-0.6,0.3s-0.4,0.2-0.6,0.2s-0.3,0-0.5-0.1
		c-0.1-0.1-0.2-0.2-0.3-0.4l-0.5-0.9c1.3-1.2,2.9-1.8,4.7-1.8c0.7,0,1.2,0.1,1.8,0.3c0.6,0.2,1,0.5,1.3,0.9c0.4,0.4,0.6,0.8,0.8,1.4
		c0.2,0.5,0.3,1.1,0.3,1.8L308.9,183.5L308.9,183.5z M303.6,181.8c0.3,0,0.5,0,0.8-0.1c0.2-0.1,0.5-0.1,0.7-0.2s0.4-0.2,0.6-0.4
		c0.2-0.1,0.4-0.3,0.6-0.5v-1.9c-0.8,0-1.5,0-2,0.1s-1,0.2-1.3,0.4s-0.6,0.3-0.7,0.5s-0.2,0.4-0.2,0.7c0,0.5,0.1,0.8,0.4,1
		C302.8,181.7,303.1,181.8,303.6,181.8z"/>
	<path d="M315.2,183.7c-1,0-1.7-0.3-2.3-0.8c-0.5-0.6-0.8-1.3-0.8-2.3v-6.3H311c-0.1,0-0.3,0-0.4-0.1c-0.1-0.1-0.2-0.2-0.2-0.4v-1.1
		l1.8-0.3l0.6-3.1c0-0.1,0.1-0.3,0.2-0.3c0.1-0.1,0.2-0.1,0.4-0.1h1.4v3.6h3v1.9h-3v6.1c0,0.4,0.1,0.6,0.3,0.8
		c0.2,0.2,0.4,0.3,0.7,0.3c0.2,0,0.3,0,0.4-0.1c0.1,0,0.2-0.1,0.3-0.1c0.1,0,0.2-0.1,0.2-0.1c0.1,0,0.1-0.1,0.2-0.1s0.1,0,0.2,0.1
		c0.1,0,0.1,0.1,0.2,0.2l0.8,1.3c-0.4,0.3-0.9,0.6-1.4,0.7C316.3,183.6,315.8,183.7,315.2,183.7z"/>
	<path d="M326.8,174.4c-0.1,0.1-0.2,0.2-0.2,0.2s-0.2,0.1-0.3,0.1c-0.1,0-0.3,0-0.4-0.1c-0.1-0.1-0.3-0.2-0.5-0.2
		c-0.2-0.1-0.4-0.2-0.7-0.2c-0.3-0.1-0.6-0.1-0.9-0.1c-0.5,0-1,0.1-1.3,0.3c-0.3,0.2-0.5,0.5-0.5,0.9c0,0.2,0.1,0.4,0.2,0.6
		s0.4,0.3,0.6,0.4c0.3,0.1,0.6,0.2,0.9,0.3s0.7,0.2,1,0.3s0.7,0.3,1,0.4c0.3,0.1,0.6,0.3,0.9,0.6c0.3,0.2,0.5,0.5,0.6,0.8
		c0.2,0.3,0.2,0.7,0.2,1.2s-0.1,1-0.3,1.5c-0.2,0.5-0.5,0.9-0.9,1.2s-0.9,0.6-1.4,0.8s-1.2,0.3-1.9,0.3c-0.4,0-0.8,0-1.1-0.1
		c-0.4-0.1-0.7-0.2-1.1-0.3c-0.3-0.1-0.7-0.3-0.9-0.4c-0.3-0.2-0.5-0.4-0.8-0.5l0.6-1c0.1-0.1,0.2-0.2,0.3-0.3
		c0.1-0.1,0.2-0.1,0.4-0.1c0.2,0,0.3,0,0.5,0.1s0.3,0.2,0.5,0.3s0.4,0.2,0.7,0.3c0.3,0.1,0.6,0.1,1,0.1c0.3,0,0.6,0,0.8-0.1
		c0.2-0.1,0.4-0.2,0.6-0.3c0.1-0.1,0.3-0.3,0.3-0.4c0.1-0.2,0.1-0.3,0.1-0.5c0-0.3-0.1-0.5-0.2-0.6c-0.2-0.2-0.4-0.3-0.6-0.4
		c-0.3-0.1-0.6-0.2-0.9-0.3s-0.7-0.2-1-0.3s-0.7-0.3-1-0.4c-0.3-0.1-0.6-0.4-0.9-0.6s-0.5-0.5-0.6-0.9s-0.2-0.8-0.2-1.3
		s0.1-0.9,0.3-1.3c0.2-0.4,0.5-0.8,0.8-1.1c0.4-0.3,0.8-0.6,1.3-0.7c0.5-0.1,1.1-0.3,1.8-0.3c0.8,0,1.5,0.1,2.1,0.4s1.2,0.6,1.6,1
		L326.8,174.4z"/>
</g>
<path class="st1" d="M208.5,189.3c-0.4,0-0.8-0.1-1.1-0.3l-37.5-21.7c-0.7-0.4-1.1-1.1-1.1-1.9c0-0.8,0.4-1.5,1.1-1.9l37.5-21.7
	c0.3-0.2,0.7-0.3,1.1-0.3c0.4,0,0.8,0.1,1.1,0.3c0.7,0.4,1.1,1.1,1.1,1.9V187c0,0.8-0.4,1.5-1.1,1.9
	C209.3,189.2,208.9,189.3,208.5,189.3z"/>
<g>
	<path class="st1" d="M601,159.3c0.4,0,0.8-0.1,1.1-0.3l37.5-21.7c0.7-0.4,1.1-1.1,1.1-1.9c0-0.8-0.4-1.5-1.1-1.9l-37.5-21.7
		c-0.3-0.2-0.7-0.3-1.1-0.3c-0.4,0-0.8,0.1-1.1,0.3c-0.7,0.4-1.1,1.1-1.1,1.9V157c0,0.8,0.4,1.5,1.1,1.9
		C600.2,159.2,600.6,159.3,601,159.3z"/>
	<path class="st3" d="M601,217.3c0.4,0,0.8-0.1,1.1-0.3l37.5-21.7c0.7-0.4,1.1-1.1,1.1-1.9c0-0.8-0.4-1.5-1.1-1.9l-37.5-21.7
		c-0.3-0.2-0.7-0.3-1.1-0.3c-0.4,0-0.8,0.1-1.1,0.3c-0.7,0.4-1.1,1.1-1.1,1.9V215c0,0.8,0.4,1.5,1.1,1.9
		C600.2,217.2,600.6,217.3,601,217.3z"/>
</g>
<path class="st1" d="M423.5,140.9c-0.4,0-0.8,0.1-1.1,0.3l-37.5,21.7c-0.7,0.4-1.1,1.1-1.1,1.9c0,0.8,0.4,1.5,1.1,1.9l37.5,21.7
	c0.3,0.2,0.7,0.3,1.1,0.3s0.8-0.1,1.1-0.3c0.7-0.4,1.1-1.1,1.1-1.9v-43.3c0-0.8-0.4-1.5-1.1-1.9C424.3,141,423.9,140.9,423.5,140.9z
	"/>
<g>
	<path d="M424,310.7c0.1,0,0.2,0,0.3,0.1s0.2,0.1,0.2,0.2c0.1,0.1,0.2,0.2,0.2,0.3l9.1,11.6c0-0.3-0.1-0.6-0.1-0.8
		c0-0.3,0-0.5,0-0.8v-10.5h2.8v17.4h-1.7c-0.3,0-0.5,0-0.6-0.1s-0.3-0.2-0.5-0.4l-9.1-11.6c0,0.3,0,0.5,0.1,0.8c0,0.3,0,0.5,0,0.7
		v10.7H422v-17.4h1.7C423.8,310.7,423.9,310.7,424,310.7z"/>
	<path d="M445.2,315.6c0.9,0,1.8,0.1,2.5,0.4s1.4,0.7,1.9,1.3s0.9,1.2,1.2,2c0.3,0.8,0.4,1.7,0.4,2.6c0,1-0.1,1.9-0.4,2.6
		c-0.3,0.8-0.7,1.5-1.2,2s-1.2,1-1.9,1.3s-1.6,0.4-2.5,0.4s-1.8-0.1-2.5-0.4s-1.4-0.7-1.9-1.3c-0.5-0.6-0.9-1.2-1.2-2
		s-0.4-1.7-0.4-2.6c0-1,0.1-1.8,0.4-2.6s0.7-1.4,1.2-2c0.5-0.5,1.2-1,1.9-1.3S444.3,315.6,445.2,315.6z M445.2,326
		c1,0,1.8-0.3,2.3-1c0.5-0.7,0.7-1.7,0.7-3c0-1.3-0.2-2.3-0.7-3c-0.5-0.7-1.2-1-2.3-1c-1,0-1.8,0.4-2.3,1.1c-0.5,0.7-0.7,1.7-0.7,3
		c0,1.3,0.2,2.3,0.7,3C443.4,325.6,444.2,326,445.2,326z"/>
	<path d="M456.3,315.8v7.8c0,0.8,0.2,1.3,0.5,1.7c0.3,0.4,0.9,0.6,1.6,0.6c0.5,0,1-0.1,1.4-0.3c0.4-0.2,0.9-0.5,1.3-0.9v-8.9h3v12.3
		h-1.8c-0.4,0-0.6-0.2-0.8-0.5l-0.2-1c-0.3,0.3-0.5,0.5-0.8,0.7c-0.3,0.2-0.6,0.4-0.9,0.5c-0.3,0.1-0.6,0.3-1,0.3
		c-0.4,0.1-0.7,0.1-1.1,0.1c-0.7,0-1.3-0.1-1.8-0.3c-0.5-0.2-1-0.5-1.3-1c-0.4-0.4-0.6-0.9-0.8-1.5c-0.2-0.6-0.3-1.2-0.3-1.9v-7.8
		H456.3z"/>
	<path d="M473.4,328.1h-2.7l-4.9-12.3h2.5c0.2,0,0.4,0.1,0.5,0.2c0.1,0.1,0.2,0.2,0.3,0.4l2.4,6.6c0.1,0.4,0.2,0.8,0.3,1.1
		c0.1,0.4,0.2,0.7,0.2,1.1c0.1-0.4,0.2-0.7,0.2-1.1c0.1-0.4,0.2-0.7,0.4-1.1l2.4-6.6c0.1-0.2,0.2-0.3,0.3-0.4
		c0.1-0.1,0.3-0.2,0.5-0.2h2.3L473.4,328.1z"/>
	<path d="M484.7,315.6c0.8,0,1.5,0.1,2.1,0.4c0.7,0.2,1.2,0.6,1.7,1.1s0.8,1.1,1.1,1.8c0.3,0.7,0.4,1.5,0.4,2.4c0,0.2,0,0.4,0,0.6
		c0,0.1-0.1,0.3-0.1,0.3c-0.1,0.1-0.1,0.1-0.2,0.2c-0.1,0-0.2,0.1-0.3,0.1h-7.6c0.1,1.3,0.4,2.2,1,2.8c0.6,0.6,1.4,0.9,2.4,0.9
		c0.5,0,0.9-0.1,1.2-0.2c0.3-0.1,0.7-0.2,0.9-0.4c0.3-0.1,0.5-0.3,0.7-0.4c0.2-0.1,0.4-0.2,0.6-0.2c0.1,0,0.2,0,0.3,0.1
		s0.2,0.1,0.2,0.2l0.9,1.1c-0.3,0.4-0.7,0.7-1.1,1s-0.8,0.5-1.3,0.6c-0.4,0.2-0.9,0.3-1.4,0.3c-0.5,0.1-0.9,0.1-1.3,0.1
		c-0.9,0-1.7-0.1-2.4-0.4s-1.4-0.7-1.9-1.3s-1-1.2-1.3-2.1c-0.3-0.8-0.5-1.8-0.5-2.8c0-0.8,0.1-1.6,0.4-2.4c0.3-0.7,0.7-1.4,1.2-1.9
		s1.1-1,1.9-1.3C483,315.7,483.8,315.6,484.7,315.6z M484.8,317.7c-0.9,0-1.5,0.2-2,0.7c-0.5,0.5-0.8,1.2-0.9,2.1h5.6
		c0-0.4-0.1-0.7-0.2-1.1c-0.1-0.3-0.3-0.6-0.5-0.9s-0.5-0.5-0.8-0.6C485.6,317.8,485.2,317.7,484.8,317.7z"/>
	<path d="M495.6,310.2v17.8h-3v-17.8H495.6z"/>
	<path d="M502.1,310.2v17.8h-3v-17.8H502.1z"/>
	<path d="M510.6,315.6c0.8,0,1.5,0.1,2.1,0.4c0.7,0.2,1.2,0.6,1.7,1.1s0.8,1.1,1.1,1.8c0.3,0.7,0.4,1.5,0.4,2.4c0,0.2,0,0.4,0,0.6
		c0,0.1-0.1,0.3-0.1,0.3c-0.1,0.1-0.1,0.1-0.2,0.2c-0.1,0-0.2,0.1-0.3,0.1h-7.6c0.1,1.3,0.4,2.2,1,2.8c0.6,0.6,1.4,0.9,2.4,0.9
		c0.5,0,0.9-0.1,1.2-0.2c0.3-0.1,0.7-0.2,0.9-0.4c0.3-0.1,0.5-0.3,0.7-0.4c0.2-0.1,0.4-0.2,0.6-0.2c0.1,0,0.2,0,0.3,0.1
		s0.2,0.1,0.2,0.2l0.9,1.1c-0.3,0.4-0.7,0.7-1.1,1s-0.8,0.5-1.3,0.6c-0.4,0.2-0.9,0.3-1.4,0.3c-0.5,0.1-0.9,0.1-1.3,0.1
		c-0.9,0-1.7-0.1-2.4-0.4s-1.4-0.7-1.9-1.3s-1-1.2-1.3-2.1c-0.3-0.8-0.5-1.8-0.5-2.8c0-0.8,0.1-1.6,0.4-2.4c0.3-0.7,0.7-1.4,1.2-1.9
		s1.1-1,1.9-1.3C508.8,315.7,509.6,315.6,510.6,315.6z M510.6,317.7c-0.9,0-1.5,0.2-2,0.7c-0.5,0.5-0.8,1.2-0.9,2.1h5.6
		c0-0.4-0.1-0.7-0.2-1.1c-0.1-0.3-0.3-0.6-0.5-0.9s-0.5-0.5-0.8-0.6C511.5,317.8,511.1,317.7,510.6,317.7z"/>
	<path d="M522.9,328.1v-12.3h1.8c0.4,0,0.6,0.2,0.8,0.5l0.2,0.9c0.2-0.2,0.4-0.5,0.7-0.7c0.2-0.2,0.5-0.4,0.8-0.5
		c0.3-0.1,0.6-0.3,0.9-0.3c0.3-0.1,0.6-0.1,1-0.1c0.8,0,1.4,0.2,1.9,0.6s0.9,1,1.1,1.7c0.2-0.4,0.4-0.8,0.7-1s0.6-0.5,0.9-0.7
		c0.3-0.2,0.7-0.3,1.1-0.4s0.8-0.1,1.2-0.1c0.7,0,1.3,0.1,1.8,0.3c0.5,0.2,1,0.5,1.3,0.9c0.4,0.4,0.6,0.9,0.8,1.5
		c0.2,0.6,0.3,1.2,0.3,2v7.8h-3v-7.8c0-0.8-0.2-1.4-0.5-1.8c-0.3-0.4-0.8-0.6-1.5-0.6c-0.3,0-0.6,0.1-0.8,0.2
		c-0.3,0.1-0.5,0.3-0.7,0.5c-0.2,0.2-0.3,0.4-0.5,0.7c-0.1,0.3-0.2,0.6-0.2,1v7.8h-3v-7.8c0-0.8-0.2-1.4-0.5-1.8s-0.8-0.6-1.5-0.6
		c-0.4,0-0.8,0.1-1.2,0.3s-0.7,0.5-1,0.9v9H522.9z"/>
	<path d="M552.8,328.1h-1.3c-0.3,0-0.5,0-0.7-0.1s-0.3-0.3-0.4-0.5l-0.3-0.9c-0.3,0.3-0.6,0.5-0.9,0.7c-0.3,0.2-0.6,0.4-0.9,0.5
		c-0.3,0.1-0.7,0.3-1,0.3s-0.8,0.1-1.2,0.1c-0.5,0-1-0.1-1.4-0.2c-0.4-0.1-0.8-0.4-1.1-0.6c-0.3-0.3-0.6-0.6-0.7-1
		c-0.2-0.4-0.3-0.9-0.3-1.5c0-0.5,0.1-0.9,0.4-1.4c0.2-0.5,0.7-0.9,1.2-1.2c0.6-0.4,1.3-0.7,2.3-0.9c0.9-0.2,2.1-0.4,3.5-0.4v-0.7
		c0-0.8-0.2-1.4-0.5-1.8c-0.3-0.4-0.9-0.6-1.5-0.6c-0.5,0-0.9,0.1-1.2,0.2c-0.3,0.1-0.6,0.2-0.8,0.4c-0.2,0.1-0.5,0.3-0.7,0.4
		c-0.2,0.1-0.4,0.2-0.7,0.2c-0.2,0-0.4-0.1-0.5-0.2c-0.1-0.1-0.3-0.2-0.3-0.4l-0.5-0.9c1.4-1.3,3.1-1.9,5.1-1.9
		c0.7,0,1.4,0.1,1.9,0.4c0.6,0.2,1,0.6,1.4,1c0.4,0.4,0.7,0.9,0.9,1.5s0.3,1.2,0.3,1.9V328.1z M547,326.2c0.3,0,0.6,0,0.8-0.1
		c0.3-0.1,0.5-0.1,0.7-0.2c0.2-0.1,0.4-0.2,0.7-0.4c0.2-0.2,0.4-0.4,0.6-0.6v-2.1c-0.9,0-1.6,0.1-2.2,0.2c-0.6,0.1-1,0.2-1.4,0.4
		c-0.4,0.2-0.6,0.4-0.8,0.6c-0.1,0.2-0.2,0.5-0.2,0.7c0,0.5,0.2,0.9,0.5,1.1C546.1,326.1,546.5,326.2,547,326.2z"/>
	<path d="M559.8,328.3c-1.1,0-1.9-0.3-2.5-0.9c-0.6-0.6-0.9-1.4-0.9-2.5V318h-1.2c-0.2,0-0.3-0.1-0.4-0.2c-0.1-0.1-0.2-0.3-0.2-0.5
		v-1.2l2-0.3l0.6-3.4c0-0.2,0.1-0.3,0.2-0.4s0.3-0.1,0.4-0.1h1.5v3.9h3.2v2.1h-3.2v6.7c0,0.4,0.1,0.7,0.3,0.9
		c0.2,0.2,0.4,0.3,0.8,0.3c0.2,0,0.3,0,0.5-0.1s0.2-0.1,0.3-0.1c0.1,0,0.2-0.1,0.2-0.1c0.1,0,0.1-0.1,0.2-0.1c0.1,0,0.2,0,0.2,0.1
		s0.1,0.1,0.2,0.2l0.9,1.4c-0.4,0.4-0.9,0.6-1.5,0.8C560.9,328.2,560.4,328.3,559.8,328.3z"/>
	<path d="M568.6,312.2c0,0.3-0.1,0.5-0.2,0.7c-0.1,0.2-0.2,0.4-0.4,0.6c-0.2,0.2-0.4,0.3-0.6,0.4c-0.2,0.1-0.5,0.2-0.7,0.2
		c-0.3,0-0.5,0-0.7-0.2c-0.2-0.1-0.4-0.2-0.6-0.4s-0.3-0.4-0.4-0.6c-0.1-0.2-0.2-0.5-0.2-0.7c0-0.3,0-0.5,0.2-0.7
		c0.1-0.2,0.2-0.4,0.4-0.6s0.4-0.3,0.6-0.4c0.2-0.1,0.5-0.1,0.7-0.1c0.3,0,0.5,0,0.7,0.1c0.2,0.1,0.4,0.2,0.6,0.4
		c0.2,0.2,0.3,0.4,0.4,0.6C568.5,311.7,568.6,311.9,568.6,312.2z M568.2,315.8v12.3h-3v-12.3H568.2z"/>
	<path d="M576.6,315.6c0.8,0,1.5,0.1,2.1,0.4c0.7,0.2,1.2,0.6,1.7,1.1s0.8,1.1,1.1,1.8c0.3,0.7,0.4,1.5,0.4,2.4c0,0.2,0,0.4,0,0.6
		c0,0.1-0.1,0.3-0.1,0.3c-0.1,0.1-0.1,0.1-0.2,0.2c-0.1,0-0.2,0.1-0.3,0.1h-7.6c0.1,1.3,0.4,2.2,1,2.8c0.6,0.6,1.4,0.9,2.4,0.9
		c0.5,0,0.9-0.1,1.2-0.2c0.3-0.1,0.7-0.2,0.9-0.4c0.3-0.1,0.5-0.3,0.7-0.4c0.2-0.1,0.4-0.2,0.6-0.2c0.1,0,0.2,0,0.3,0.1
		s0.2,0.1,0.2,0.2l0.9,1.1c-0.3,0.4-0.7,0.7-1.1,1s-0.8,0.5-1.3,0.6c-0.4,0.2-0.9,0.3-1.4,0.3c-0.5,0.1-0.9,0.1-1.3,0.1
		c-0.9,0-1.7-0.1-2.4-0.4s-1.4-0.7-1.9-1.3s-1-1.2-1.3-2.1c-0.3-0.8-0.5-1.8-0.5-2.8c0-0.8,0.1-1.6,0.4-2.4c0.3-0.7,0.7-1.4,1.2-1.9
		s1.1-1,1.9-1.3C574.8,315.7,575.7,315.6,576.6,315.6z M575.6,310.5c0.3,0,0.6,0.1,0.7,0.2c0.2,0.1,0.3,0.3,0.4,0.5l1.7,2.9h-1.7
		c-0.2,0-0.4,0-0.5-0.1s-0.3-0.2-0.4-0.3l-3-3.1H575.6z M576.7,317.7c-0.9,0-1.5,0.2-2,0.7c-0.5,0.5-0.8,1.2-0.9,2.1h5.6
		c0-0.4-0.1-0.7-0.2-1.1c-0.1-0.3-0.3-0.6-0.5-0.9s-0.5-0.5-0.8-0.6C577.5,317.8,577.1,317.7,576.7,317.7z"/>
	<path d="M584.3,328.1v-12.3h1.7c0.3,0,0.5,0.1,0.6,0.2c0.1,0.1,0.2,0.3,0.2,0.6l0.2,1.5c0.4-0.8,1-1.4,1.5-1.8s1.3-0.7,2-0.7
		c0.6,0,1.1,0.1,1.5,0.4l-0.4,2.2c0,0.1-0.1,0.2-0.2,0.3c-0.1,0.1-0.2,0.1-0.3,0.1c-0.1,0-0.3,0-0.5-0.1s-0.5-0.1-0.8-0.1
		c-0.6,0-1.1,0.2-1.6,0.5c-0.4,0.3-0.8,0.8-1.1,1.5v7.7H584.3z"/>
	<path d="M599.2,315.6c0.8,0,1.5,0.1,2.1,0.4c0.7,0.2,1.2,0.6,1.7,1.1s0.8,1.1,1.1,1.8c0.3,0.7,0.4,1.5,0.4,2.4c0,0.2,0,0.4,0,0.6
		c0,0.1-0.1,0.3-0.1,0.3c-0.1,0.1-0.1,0.1-0.2,0.2c-0.1,0-0.2,0.1-0.3,0.1h-7.6c0.1,1.3,0.4,2.2,1,2.8c0.6,0.6,1.4,0.9,2.4,0.9
		c0.5,0,0.9-0.1,1.2-0.2c0.3-0.1,0.7-0.2,0.9-0.4c0.3-0.1,0.5-0.3,0.7-0.4c0.2-0.1,0.4-0.2,0.6-0.2c0.1,0,0.2,0,0.3,0.1
		s0.2,0.1,0.2,0.2l0.9,1.1c-0.3,0.4-0.7,0.7-1.1,1s-0.8,0.5-1.3,0.6c-0.4,0.2-0.9,0.3-1.4,0.3c-0.5,0.1-0.9,0.1-1.3,0.1
		c-0.9,0-1.7-0.1-2.4-0.4s-1.4-0.7-1.9-1.3s-1-1.2-1.3-2.1c-0.3-0.8-0.5-1.8-0.5-2.8c0-0.8,0.1-1.6,0.4-2.4c0.3-0.7,0.7-1.4,1.2-1.9
		s1.1-1,1.9-1.3C597.5,315.7,598.3,315.6,599.2,315.6z M599.3,317.7c-0.9,0-1.5,0.2-2,0.7c-0.5,0.5-0.8,1.2-0.9,2.1h5.6
		c0-0.4-0.1-0.7-0.2-1.1c-0.1-0.3-0.3-0.6-0.5-0.9s-0.5-0.5-0.8-0.6C600.1,317.8,599.7,317.7,599.3,317.7z"/>
</g>
<g>
	<path class="st3" d="M534.9,297.6c-0.4,0.7-1.1,1.1-1.9,1.1h-43.3c-0.8,0-1.5-0.4-1.9-1.1c-0.2-0.3-0.3-0.7-0.3-1.1
		s0.1-0.8,0.3-1.1l21.7-37.5c0.4-0.7,1.1-1.1,1.9-1.1s1.5,0.4,1.9,1.1l21.7,37.5c0.2,0.3,0.3,0.7,0.3,1.1S535.2,297.3,534.9,297.6z"
		/>
</g>
<g>
	<path d="M461.5,11.8v6.8h-3.2V1.2h5.3c1.2,0,2.2,0.1,3,0.4c0.8,0.2,1.5,0.6,2.1,1c0.5,0.4,0.9,1,1.2,1.6c0.3,0.6,0.4,1.3,0.4,2
		c0,0.6-0.1,1.1-0.3,1.7s-0.4,1-0.7,1.4c-0.3,0.4-0.7,0.8-1.2,1.1c-0.5,0.3-1,0.6-1.6,0.8c0.4,0.2,0.8,0.6,1.1,1l4.3,6.4h-2.9
		c-0.3,0-0.5-0.1-0.7-0.2c-0.2-0.1-0.4-0.3-0.5-0.5l-3.6-5.6c-0.1-0.2-0.3-0.4-0.4-0.4c-0.2-0.1-0.4-0.1-0.7-0.1H461.5z M461.5,9.5
		h2c0.6,0,1.1-0.1,1.6-0.2c0.5-0.2,0.8-0.4,1.1-0.6s0.5-0.6,0.7-1c0.1-0.4,0.2-0.8,0.2-1.2c0-0.9-0.3-1.6-0.9-2s-1.5-0.7-2.7-0.7
		h-2.1V9.5z"/>
	<path d="M478.8,6.1c0.8,0,1.5,0.1,2.1,0.4c0.7,0.2,1.2,0.6,1.7,1.1s0.8,1.1,1.1,1.8c0.3,0.7,0.4,1.5,0.4,2.4c0,0.2,0,0.4,0,0.6
		c0,0.1-0.1,0.3-0.1,0.3c-0.1,0.1-0.1,0.1-0.2,0.2c-0.1,0-0.2,0.1-0.3,0.1h-7.6c0.1,1.3,0.4,2.2,1,2.8c0.6,0.6,1.4,0.9,2.4,0.9
		c0.5,0,0.9-0.1,1.2-0.2c0.3-0.1,0.7-0.2,0.9-0.4c0.3-0.1,0.5-0.3,0.7-0.4s0.4-0.2,0.6-0.2c0.1,0,0.2,0,0.3,0.1
		c0.1,0,0.2,0.1,0.2,0.2l0.9,1.1c-0.3,0.4-0.7,0.7-1.1,1c-0.4,0.3-0.8,0.5-1.3,0.6c-0.4,0.2-0.9,0.3-1.4,0.3s-0.9,0.1-1.3,0.1
		c-0.9,0-1.7-0.1-2.4-0.4c-0.7-0.3-1.4-0.7-1.9-1.3s-1-1.2-1.3-2.1c-0.3-0.8-0.5-1.8-0.5-2.9c0-0.8,0.1-1.6,0.4-2.4
		c0.3-0.7,0.7-1.4,1.2-1.9c0.5-0.5,1.1-1,1.9-1.3C477,6.2,477.9,6.1,478.8,6.1z M478.9,8.2c-0.9,0-1.5,0.2-2,0.7
		c-0.5,0.5-0.8,1.2-0.9,2.1h5.6c0-0.4-0.1-0.7-0.2-1.1c-0.1-0.3-0.3-0.6-0.5-0.9c-0.2-0.3-0.5-0.5-0.8-0.6
		C479.7,8.3,479.3,8.2,478.9,8.2z M483,1l-3,3.1c-0.2,0.2-0.3,0.3-0.4,0.3c-0.1,0.1-0.3,0.1-0.5,0.1h-1.8l1.7-2.9
		c0.1-0.2,0.3-0.4,0.4-0.5c0.2-0.1,0.4-0.2,0.7-0.2H483z"/>
	<path d="M495.2,8.9c-0.1,0.1-0.2,0.2-0.3,0.3s-0.2,0.1-0.4,0.1c-0.2,0-0.3,0-0.4-0.1s-0.3-0.2-0.5-0.3c-0.2-0.1-0.4-0.2-0.7-0.3
		c-0.3-0.1-0.6-0.1-1-0.1c-0.5,0-1,0.1-1.4,0.3s-0.7,0.5-1,0.8c-0.3,0.4-0.5,0.8-0.6,1.3c-0.1,0.5-0.2,1.1-0.2,1.7
		c0,0.7,0.1,1.2,0.2,1.8c0.1,0.5,0.3,0.9,0.6,1.3c0.3,0.3,0.6,0.6,1,0.8c0.4,0.2,0.8,0.3,1.3,0.3s0.9-0.1,1.1-0.2
		c0.3-0.1,0.5-0.2,0.7-0.4c0.2-0.1,0.4-0.3,0.5-0.4c0.1-0.1,0.3-0.2,0.5-0.2c0.2,0,0.4,0.1,0.5,0.3l0.9,1.1c-0.3,0.4-0.7,0.7-1.1,1
		c-0.4,0.3-0.8,0.5-1.2,0.6c-0.4,0.2-0.8,0.3-1.3,0.3c-0.4,0.1-0.9,0.1-1.3,0.1c-0.8,0-1.5-0.1-2.1-0.4c-0.7-0.3-1.3-0.7-1.8-1.2
		s-0.9-1.2-1.2-2s-0.4-1.7-0.4-2.7c0-0.9,0.1-1.7,0.4-2.5c0.3-0.8,0.6-1.4,1.1-2c0.5-0.6,1.1-1,1.9-1.3s1.6-0.5,2.6-0.5
		c0.9,0,1.7,0.1,2.4,0.4c0.7,0.3,1.3,0.7,1.9,1.3L495.2,8.9z"/>
	<path d="M503.1,6.1c0.8,0,1.5,0.1,2.1,0.4c0.7,0.2,1.2,0.6,1.7,1.1s0.8,1.1,1.1,1.8c0.3,0.7,0.4,1.5,0.4,2.4c0,0.2,0,0.4,0,0.6
		c0,0.1-0.1,0.3-0.1,0.3c-0.1,0.1-0.1,0.1-0.2,0.2c-0.1,0-0.2,0.1-0.3,0.1h-7.6c0.1,1.3,0.4,2.2,1,2.8c0.6,0.6,1.4,0.9,2.4,0.9
		c0.5,0,0.9-0.1,1.2-0.2c0.3-0.1,0.7-0.2,0.9-0.4c0.3-0.1,0.5-0.3,0.7-0.4s0.4-0.2,0.6-0.2c0.1,0,0.2,0,0.3,0.1
		c0.1,0,0.2,0.1,0.2,0.2l0.9,1.1c-0.3,0.4-0.7,0.7-1.1,1c-0.4,0.3-0.8,0.5-1.3,0.6c-0.4,0.2-0.9,0.3-1.4,0.3s-0.9,0.1-1.3,0.1
		c-0.9,0-1.7-0.1-2.4-0.4c-0.7-0.3-1.4-0.7-1.9-1.3s-1-1.2-1.3-2.1c-0.3-0.8-0.5-1.8-0.5-2.9c0-0.8,0.1-1.6,0.4-2.4
		c0.3-0.7,0.7-1.4,1.2-1.9c0.5-0.5,1.1-1,1.9-1.3C501.3,6.2,502.1,6.1,503.1,6.1z M503.1,8.2c-0.9,0-1.5,0.2-2,0.7
		c-0.5,0.5-0.8,1.2-0.9,2.1h5.6c0-0.4-0.1-0.7-0.2-1.1c-0.1-0.3-0.3-0.6-0.5-0.9c-0.2-0.3-0.5-0.5-0.8-0.6
		C503.9,8.3,503.6,8.2,503.1,8.2z"/>
	<path d="M510.8,22.6V6.3h1.8c0.2,0,0.4,0,0.5,0.1c0.1,0.1,0.2,0.2,0.3,0.4l0.2,1.1c0.5-0.6,1.1-1,1.7-1.4c0.6-0.4,1.4-0.5,2.3-0.5
		c0.7,0,1.3,0.1,1.8,0.4c0.6,0.3,1,0.7,1.4,1.2c0.4,0.5,0.7,1.2,0.9,2c0.2,0.8,0.3,1.7,0.3,2.7c0,0.9-0.1,1.8-0.4,2.6
		c-0.2,0.8-0.6,1.5-1.1,2c-0.5,0.6-1,1-1.7,1.3c-0.7,0.3-1.4,0.5-2.2,0.5c-0.7,0-1.3-0.1-1.8-0.3c-0.5-0.2-0.9-0.5-1.3-0.9v5H510.8z
		 M516.6,8.4c-0.6,0-1.1,0.1-1.6,0.4c-0.4,0.3-0.8,0.6-1.2,1.1v5.5c0.3,0.4,0.7,0.7,1.1,0.9c0.4,0.2,0.8,0.2,1.3,0.2
		c0.4,0,0.9-0.1,1.2-0.3c0.4-0.2,0.7-0.4,0.9-0.8c0.3-0.3,0.4-0.8,0.6-1.3c0.1-0.5,0.2-1.1,0.2-1.9c0-0.7-0.1-1.3-0.2-1.8
		s-0.3-0.9-0.5-1.2c-0.2-0.3-0.5-0.5-0.8-0.7C517.3,8.4,517,8.4,516.6,8.4z"/>
	<path d="M528.4,18.8c-1.1,0-1.9-0.3-2.5-0.9s-0.9-1.4-0.9-2.5V8.5h-1.2c-0.2,0-0.3-0.1-0.4-0.2c-0.1-0.1-0.2-0.3-0.2-0.5V6.7l2-0.3
		l0.6-3.4c0-0.2,0.1-0.3,0.2-0.4c0.1-0.1,0.3-0.1,0.4-0.1h1.5v3.9h3.2v2.1h-3.2v6.7c0,0.4,0.1,0.7,0.3,0.9c0.2,0.2,0.4,0.3,0.8,0.3
		c0.2,0,0.3,0,0.5-0.1c0.1,0,0.2-0.1,0.3-0.1c0.1,0,0.2-0.1,0.2-0.1c0.1,0,0.1-0.1,0.2-0.1c0.1,0,0.2,0,0.2,0.1
		c0.1,0,0.1,0.1,0.2,0.2l0.9,1.4c-0.4,0.4-0.9,0.6-1.5,0.8C529.6,18.7,529,18.8,528.4,18.8z"/>
	<path d="M537.3,2.7c0,0.3-0.1,0.5-0.2,0.7c-0.1,0.2-0.2,0.4-0.4,0.6c-0.2,0.2-0.4,0.3-0.6,0.4s-0.5,0.1-0.7,0.1
		c-0.3,0-0.5,0-0.7-0.1c-0.2-0.1-0.4-0.2-0.6-0.4s-0.3-0.4-0.4-0.6c-0.1-0.2-0.2-0.5-0.2-0.7c0-0.3,0-0.5,0.2-0.7
		c0.1-0.2,0.2-0.4,0.4-0.6s0.4-0.3,0.6-0.4c0.2-0.1,0.5-0.1,0.7-0.1c0.3,0,0.5,0,0.7,0.1s0.4,0.2,0.6,0.4c0.2,0.2,0.3,0.4,0.4,0.6
		C537.2,2.2,537.3,2.4,537.3,2.7z M536.8,6.3v12.3h-3V6.3H536.8z"/>
	<path d="M545.4,6.1c0.9,0,1.8,0.1,2.5,0.4s1.4,0.7,1.9,1.3s0.9,1.2,1.2,2c0.3,0.8,0.4,1.7,0.4,2.6c0,1-0.1,1.9-0.4,2.6
		c-0.3,0.8-0.7,1.5-1.2,2c-0.5,0.6-1.2,1-1.9,1.3s-1.6,0.4-2.5,0.4s-1.8-0.1-2.5-0.4s-1.4-0.7-1.9-1.3c-0.5-0.6-0.9-1.2-1.2-2
		c-0.3-0.8-0.4-1.7-0.4-2.6c0-1,0.1-1.8,0.4-2.6c0.3-0.8,0.7-1.4,1.2-2c0.5-0.5,1.2-1,1.9-1.3S544.5,6.1,545.4,6.1z M545.4,16.5
		c1,0,1.8-0.3,2.3-1c0.5-0.7,0.7-1.7,0.7-3c0-1.3-0.2-2.3-0.7-3c-0.5-0.7-1.2-1-2.3-1c-1,0-1.8,0.4-2.3,1c-0.5,0.7-0.7,1.7-0.7,3
		c0,1.3,0.2,2.3,0.7,3C543.6,16.1,544.4,16.5,545.4,16.5z"/>
	<path d="M553.8,18.6V6.3h1.8c0.4,0,0.6,0.2,0.8,0.5l0.2,1c0.2-0.3,0.5-0.5,0.8-0.7c0.3-0.2,0.6-0.4,0.9-0.5c0.3-0.2,0.6-0.3,1-0.3
		c0.4-0.1,0.7-0.1,1.2-0.1c0.7,0,1.3,0.1,1.8,0.3c0.5,0.2,1,0.5,1.3,1c0.3,0.4,0.6,0.9,0.8,1.5c0.2,0.6,0.3,1.2,0.3,1.9v7.8h-3v-7.8
		c0-0.8-0.2-1.3-0.5-1.7c-0.3-0.4-0.9-0.6-1.6-0.6c-0.5,0-1,0.1-1.4,0.3c-0.4,0.2-0.9,0.5-1.3,0.9v8.9H553.8z"/>
</g>
<path class="st4" d="M289.4,156c0,1.6-1.3,2.9-2.9,2.9s-2.9-1.3-2.9-2.9c0-1.6,1.3-2.9,2.9-2.9C288.1,153.2,289.4,154.5,289.4,156z
	 M309.6,156c0,1.6-1.3,2.9-2.9,2.9s-2.9-1.3-2.9-2.9c0-1.6,1.3-2.9,2.9-2.9C308.3,153.2,309.6,154.5,309.6,156z M312.5,131.5v11.5
	c0,0.7-0.6,1.4-1.3,1.4l-23.5,2.8c0.1,0.5,0.3,1,0.3,1.6c0,0.5-0.3,1-0.5,1.4h20.7c0.8,0,1.4,0.7,1.4,1.4c0,0.8-0.7,1.4-1.4,1.4H285
	c-0.8,0-1.4-0.7-1.4-1.4c0-0.7,1-2.4,1.4-3.1l-4-18.6h-4.6c-0.8,0-1.4-0.7-1.4-1.4s0.7-1.4,1.4-1.4h5.8c1.5,0,1.6,1.8,1.8,2.9H311
	C311.8,130.1,312.5,130.7,312.5,131.5L312.5,131.5z"/>
<g>
	<rect x="440.7" y="90.5" class="st0" width="149.5" height="149.5"/>
	<path d="M589.9,90.7v149h-149v-149H589.9 M590.5,90.2h-150v150h150V90.2L590.5,90.2z"/>
</g>
<g>
	<path d="M493.5,170.3c-0.1,0.2-0.2,0.3-0.3,0.3c-0.1,0.1-0.2,0.1-0.4,0.1c-0.1,0-0.3-0.1-0.5-0.2s-0.4-0.2-0.6-0.4
		c-0.2-0.1-0.5-0.3-0.9-0.4c-0.3-0.1-0.7-0.2-1.2-0.2c-0.4,0-0.8,0-1.1,0.1c-0.3,0.1-0.6,0.2-0.8,0.4c-0.2,0.2-0.4,0.4-0.5,0.6
		c-0.1,0.2-0.2,0.5-0.2,0.8c0,0.4,0.1,0.7,0.3,0.9c0.2,0.2,0.5,0.5,0.8,0.6c0.3,0.2,0.7,0.3,1.2,0.5s0.9,0.3,1.3,0.4
		c0.5,0.2,0.9,0.3,1.3,0.6c0.4,0.2,0.8,0.5,1.2,0.8c0.3,0.3,0.6,0.7,0.8,1.2s0.3,1,0.3,1.7s-0.1,1.4-0.4,2s-0.6,1.2-1.1,1.6
		c-0.5,0.5-1.1,0.8-1.7,1.1c-0.7,0.3-1.5,0.4-2.3,0.4c-0.5,0-1,0-1.5-0.1s-1-0.2-1.4-0.4c-0.5-0.2-0.9-0.4-1.3-0.7s-0.7-0.5-1.1-0.9
		l0.9-1.4c0.1-0.1,0.2-0.2,0.3-0.3s0.2-0.1,0.4-0.1c0.2,0,0.4,0.1,0.6,0.2c0.2,0.2,0.5,0.3,0.8,0.5s0.6,0.4,1,0.5
		c0.4,0.2,0.9,0.2,1.4,0.2c0.8,0,1.5-0.2,2-0.6s0.7-1,0.7-1.7c0-0.4-0.1-0.8-0.3-1c-0.2-0.3-0.5-0.5-0.8-0.7s-0.7-0.3-1.2-0.5
		s-0.9-0.3-1.3-0.4c-0.5-0.1-0.9-0.3-1.3-0.5s-0.8-0.5-1.2-0.8c-0.3-0.3-0.6-0.7-0.8-1.2s-0.3-1.1-0.3-1.8c0-0.6,0.1-1.1,0.3-1.7
		c0.2-0.6,0.6-1,1-1.5c0.4-0.4,1-0.8,1.6-1c0.6-0.3,1.4-0.4,2.2-0.4c0.9,0,1.8,0.1,2.6,0.4c0.8,0.3,1.5,0.7,2,1.2L493.5,170.3z"/>
	<path d="M500.4,183.5c-1,0-1.7-0.3-2.3-0.8c-0.5-0.6-0.8-1.3-0.8-2.3v-6.3h-1.1c-0.1,0-0.3,0-0.4-0.1s-0.2-0.2-0.2-0.4v-1.1
		l1.8-0.3l0.6-3.1c0-0.1,0.1-0.3,0.2-0.3c0.1-0.1,0.2-0.1,0.4-0.1h1.4v3.6h3v1.9h-3v6.1c0,0.4,0.1,0.6,0.3,0.8
		c0.2,0.2,0.4,0.3,0.7,0.3c0.2,0,0.3,0,0.4-0.1c0.1,0,0.2-0.1,0.3-0.1c0.1,0,0.2-0.1,0.2-0.1c0.1,0,0.1-0.1,0.2-0.1s0.1,0,0.2,0.1
		c0.1,0,0.1,0.1,0.2,0.2l0.8,1.3c-0.4,0.3-0.9,0.6-1.4,0.7C501.5,183.4,500.9,183.5,500.4,183.5z"/>
	<path d="M510,171.8c0.8,0,1.6,0.1,2.3,0.4c0.7,0.3,1.3,0.7,1.8,1.2s0.9,1.1,1.1,1.8c0.3,0.7,0.4,1.5,0.4,2.4s-0.1,1.7-0.4,2.4
		s-0.6,1.3-1.1,1.8s-1.1,0.9-1.8,1.2c-0.7,0.3-1.4,0.4-2.3,0.4s-1.6-0.1-2.3-0.4c-0.7-0.3-1.3-0.7-1.8-1.2s-0.9-1.1-1.1-1.8
		c-0.3-0.7-0.4-1.5-0.4-2.4s0.1-1.7,0.4-2.4s0.6-1.3,1.1-1.8s1.1-0.9,1.8-1.2C508.4,172,509.2,171.8,510,171.8z M510,181.4
		c0.9,0,1.6-0.3,2.1-0.9c0.5-0.6,0.7-1.6,0.7-2.8s-0.2-2.1-0.7-2.8c-0.5-0.6-1.1-1-2.1-1s-1.7,0.3-2.1,1c-0.5,0.6-0.7,1.6-0.7,2.8
		s0.2,2.1,0.7,2.8C508.3,181,509.1,181.4,510,181.4z"/>
	<path d="M525.6,174.4c-0.1,0.1-0.2,0.2-0.2,0.2c-0.1,0.1-0.2,0.1-0.3,0.1s-0.3,0-0.4-0.1s-0.3-0.2-0.5-0.3
		c-0.2-0.1-0.4-0.2-0.7-0.3c-0.3-0.1-0.6-0.1-0.9-0.1c-0.5,0-0.9,0.1-1.3,0.3c-0.4,0.2-0.7,0.4-0.9,0.7c-0.2,0.3-0.4,0.7-0.5,1.2
		s-0.2,1-0.2,1.6s0.1,1.1,0.2,1.6c0.1,0.5,0.3,0.9,0.6,1.2c0.3,0.3,0.5,0.6,0.9,0.7c0.4,0.1,0.7,0.2,1.2,0.2s0.8-0.1,1-0.2
		c0.2-0.1,0.5-0.2,0.7-0.4c0.2-0.1,0.3-0.2,0.5-0.4c0.1-0.1,0.3-0.2,0.5-0.2c0.2,0,0.4,0.1,0.5,0.3l0.8,1c-0.3,0.4-0.6,0.6-1,0.9
		s-0.7,0.4-1.1,0.6c-0.4,0.1-0.8,0.2-1.2,0.3s-0.8,0.1-1.2,0.1c-0.7,0-1.4-0.1-2-0.4c-0.6-0.3-1.2-0.6-1.6-1.1
		c-0.5-0.5-0.8-1.1-1.1-1.8c-0.3-0.7-0.4-1.5-0.4-2.5c0-0.8,0.1-1.6,0.4-2.3c0.2-0.7,0.6-1.3,1.1-1.8s1-0.9,1.7-1.2
		c0.7-0.3,1.5-0.4,2.4-0.4c0.8,0,1.6,0.1,2.2,0.4c0.6,0.3,1.2,0.7,1.7,1.2L525.6,174.4z"/>
	<path d="M530.9,166.9v9.4h0.5c0.2,0,0.3,0,0.4-0.1s0.2-0.1,0.3-0.3l2.8-3.5c0.1-0.1,0.3-0.3,0.4-0.3c0.1-0.1,0.3-0.1,0.5-0.1h2.5
		l-3.5,4.2c-0.1,0.2-0.3,0.3-0.4,0.4c-0.1,0.1-0.3,0.2-0.4,0.3c0.2,0.1,0.3,0.2,0.4,0.4c0.1,0.1,0.2,0.3,0.4,0.5l3.8,5.5h-2.4
		c-0.2,0-0.4,0-0.5-0.1s-0.3-0.2-0.4-0.4l-2.9-4.3c-0.1-0.2-0.2-0.3-0.3-0.3c-0.1-0.1-0.3-0.1-0.5-0.1H531v5.2h-2.8v-16.4H530.9
		L530.9,166.9z"/>
	<path d="M547,174.2c-0.1,0.1-0.2,0.2-0.2,0.2c-0.1,0-0.2,0.1-0.3,0.1s-0.3,0-0.4-0.1c-0.1-0.1-0.3-0.2-0.5-0.2
		c-0.2-0.1-0.4-0.2-0.7-0.2c-0.3-0.1-0.6-0.1-0.9-0.1c-0.5,0-1,0.1-1.3,0.3c-0.3,0.2-0.5,0.5-0.5,0.9c0,0.2,0.1,0.4,0.2,0.6
		c0.2,0.2,0.4,0.3,0.6,0.4c0.3,0.1,0.6,0.2,0.9,0.3c0.3,0.1,0.7,0.2,1,0.3c0.3,0.1,0.7,0.3,1,0.4c0.3,0.1,0.6,0.3,0.9,0.6
		c0.3,0.2,0.5,0.5,0.6,0.8c0.2,0.3,0.2,0.7,0.2,1.2s-0.1,1-0.3,1.5c-0.2,0.5-0.5,0.9-0.9,1.2s-0.9,0.6-1.4,0.8
		c-0.6,0.2-1.2,0.3-1.9,0.3c-0.4,0-0.8,0-1.1-0.1c-0.4-0.1-0.7-0.2-1.1-0.3c-0.3-0.1-0.7-0.3-0.9-0.4c-0.3-0.2-0.5-0.4-0.8-0.5
		l0.6-1c0.1-0.1,0.2-0.2,0.3-0.3s0.2-0.1,0.4-0.1c0.2,0,0.3,0,0.5,0.1c0.2,0.1,0.3,0.2,0.5,0.3c0.2,0.1,0.4,0.2,0.7,0.3
		c0.3,0.1,0.6,0.1,1,0.1c0.3,0,0.6,0,0.8-0.1c0.2-0.1,0.4-0.2,0.6-0.3c0.1-0.1,0.3-0.3,0.3-0.4c0-0.1,0.1-0.3,0.1-0.5
		c0-0.3-0.1-0.5-0.2-0.6c-0.2-0.2-0.4-0.3-0.6-0.4c-0.3-0.1-0.6-0.2-0.9-0.3s-0.7-0.2-1-0.3c-0.3-0.1-0.7-0.3-1-0.4
		c-0.3-0.1-0.6-0.4-0.9-0.6c-0.3-0.2-0.5-0.5-0.6-0.9c-0.2-0.4-0.2-0.8-0.2-1.3s0.1-0.9,0.3-1.3c0.2-0.4,0.5-0.8,0.8-1.1
		c0.4-0.3,0.8-0.6,1.3-0.7c0.5-0.1,1.1-0.3,1.8-0.3c0.8,0,1.5,0.1,2.1,0.4s1.2,0.6,1.6,1L547,174.2z"/>
</g>
<path class="st4" d="M509,151.6c0-1.6-1.3-2.9-2.9-2.9s-2.9,1.3-2.9,2.9s1.3,2.9,2.9,2.9C507.7,154.5,509,153.2,509,151.6z
	 M500.4,140.1h8.7v-5.8h-3.6c-0.1,0-0.4,0.1-0.5,0.2l-4.4,4.4c-0.1,0.1-0.2,0.4-0.2,0.5V140.1z M529.2,151.6c0-1.6-1.3-2.9-2.9-2.9
	s-2.9,1.3-2.9,2.9s1.3,2.9,2.9,2.9C527.9,154.5,529.2,153.2,529.2,151.6z M535,127.1v23.1c0,1.7-1.8,1.4-2.9,1.4
	c0,3.2-2.6,5.8-5.8,5.8s-5.8-2.6-5.8-5.8h-8.7c0,3.2-2.6,5.8-5.8,5.8s-5.8-2.6-5.8-5.8h-1.4c-1.1,0-2.9,0.2-2.9-1.4
	c0-0.8,0.7-1.4,1.4-1.4v-7.2c0-1.6-0.2-3.4,1-4.6l4.5-4.5c0.6-0.6,1.6-1,2.5-1h3.6v-4.3c0-0.8,0.7-1.4,1.4-1.4h23.1
	C534.3,125.7,535,126.3,535,127.1L535,127.1z"/>
<g>
	<rect x="648.7" y="89.5" class="st0" width="149.5" height="149.5"/>
	<path d="M797.9,89.7v149h-149v-149H797.9 M798.5,89.2h-150v150h150V89.2L798.5,89.2z"/>
</g>
<path class="st4" d="M721.9,141.3c0-1.5-0.5-2.8-1.6-3.8c-1-1-2.3-1.6-3.8-1.6c-1.5,0-2.8,0.5-3.8,1.6c-1,1.1-1.6,2.3-1.6,3.8
	s0.5,2.8,1.6,3.8s2.3,1.6,3.8,1.6c1.5,0,2.8-0.5,3.8-1.6S721.9,142.8,721.9,141.3z M738,152.1c0-0.7-0.3-1.4-0.8-1.9
	c-0.5-0.5-1.2-0.8-1.9-0.8s-1.4,0.3-1.9,0.8c-0.5,0.5-0.8,1.2-0.8,1.9c0,0.7,0.3,1.4,0.8,1.9c0.5,0.5,1.2,0.8,1.9,0.8
	c0.7,0,1.4-0.3,1.9-0.8C737.7,153.4,738,152.8,738,152.1z M738,130.6c0-0.7-0.3-1.4-0.8-1.9c-0.5-0.5-1.2-0.8-1.9-0.8
	s-1.4,0.3-1.9,0.8c-0.5,0.5-0.8,1.2-0.8,1.9c0,0.7,0.3,1.4,0.8,1.9c0.5,0.5,1.2,0.8,1.9,0.8c0.7,0,1.4-0.3,1.9-0.8
	C737.7,131.9,738,131.3,738,130.6z M729.9,139.4v3.9c0,0.1,0,0.3-0.1,0.4c-0.1,0.1-0.2,0.2-0.3,0.2l-3.3,0.5c-0.2,0.5-0.4,1-0.7,1.6
	c0.5,0.7,1.1,1.5,1.9,2.4c0.1,0.2,0.1,0.3,0.1,0.4c0,0.2,0,0.3-0.1,0.4c-0.3,0.4-0.9,1-1.7,1.9s-1.4,1.2-1.6,1.2
	c-0.2,0-0.3,0-0.4-0.1l-2.4-1.9c-0.5,0.3-1.1,0.5-1.6,0.7c-0.2,1.5-0.3,2.6-0.5,3.3c-0.1,0.3-0.3,0.5-0.6,0.5h-3.9
	c-0.2,0-0.3-0.1-0.4-0.2c-0.1-0.1-0.2-0.2-0.2-0.4l-0.5-3.2c-0.5-0.1-1-0.4-1.6-0.7l-2.5,1.9c-0.1,0.1-0.2,0.1-0.4,0.1
	c-0.2,0-0.3-0.1-0.4-0.2c-2-1.9-3-3-3-3.4c0-0.1,0-0.3,0.1-0.4c0.1-0.2,0.4-0.6,0.9-1.1c0.4-0.5,0.8-1,1-1.3
	c-0.3-0.6-0.6-1.2-0.7-1.7l-3.2-0.5c-0.1,0-0.3-0.1-0.4-0.2s-0.1-0.3-0.1-0.4v-3.9c0-0.1,0-0.3,0.1-0.4s0.2-0.2,0.3-0.2l3.3-0.5
	c0.2-0.5,0.4-1,0.7-1.6c-0.5-0.7-1.1-1.5-1.9-2.4c-0.1-0.2-0.1-0.3-0.1-0.4c0-0.2,0-0.3,0.1-0.4c0.3-0.4,0.9-1,1.7-1.9
	c0.8-0.8,1.4-1.2,1.7-1.2c0.2,0,0.3,0,0.4,0.1l2.4,1.9c0.5-0.3,1-0.5,1.6-0.7c0.2-1.5,0.3-2.6,0.5-3.2c0.1-0.3,0.3-0.5,0.6-0.5h3.9
	c0.2,0,0.3,0.1,0.4,0.2c0.1,0.1,0.2,0.2,0.2,0.4l0.5,3.2c0.5,0.1,1,0.4,1.6,0.7l2.5-1.9c0.1-0.1,0.3-0.1,0.4-0.1
	c0.2,0,0.3,0.1,0.4,0.2c2,1.9,3,3,3,3.4c0,0.1,0,0.2-0.1,0.4c-0.2,0.2-0.5,0.6-0.9,1.1c-0.4,0.5-0.7,1-0.9,1.3
	c0.3,0.7,0.6,1.2,0.7,1.7l3.2,0.5c0.1,0,0.3,0.1,0.4,0.2C729.9,139.1,729.9,139.3,729.9,139.4z M743.4,150.6v2.9
	c0,0.2-1,0.4-3.1,0.7c-0.2,0.4-0.4,0.7-0.6,1.1c0.7,1.6,1.1,2.5,1.1,2.9c0,0.1,0,0.1-0.1,0.1c-1.7,1-2.6,1.5-2.6,1.5
	c-0.1,0-0.4-0.3-1-1s-0.9-1.1-1.1-1.4c-0.3,0-0.5,0-0.6,0s-0.4,0-0.6,0c-0.2,0.3-0.6,0.8-1.1,1.4c-0.5,0.7-0.9,1-1,1
	c0,0-0.9-0.5-2.6-1.5c-0.1,0-0.1-0.1-0.1-0.1c0-0.4,0.4-1.3,1.1-2.9c-0.3-0.4-0.5-0.7-0.6-1.1c-2.1-0.2-3.1-0.4-3.1-0.7v-2.9
	c0-0.2,1-0.4,3.1-0.7c0.2-0.4,0.4-0.8,0.6-1.1c-0.7-1.6-1.1-2.5-1.1-2.9c0-0.1,0-0.1,0.1-0.1c0.1,0,0.3-0.2,0.7-0.4s0.8-0.5,1.2-0.7
	s0.6-0.3,0.6-0.3c0.1,0,0.4,0.3,1,1c0.5,0.7,0.9,1.1,1.1,1.4c0.3,0,0.5,0,0.6,0s0.4,0,0.6,0c0.7-1,1.4-1.8,1.9-2.4l0.1,0
	c0.1,0,0.9,0.5,2.6,1.5c0.1,0,0.1,0.1,0.1,0.1c0,0.4-0.4,1.3-1.1,2.9c0.2,0.3,0.4,0.7,0.6,1.1C742.3,150.2,743.4,150.4,743.4,150.6z
	 M743.4,129.1v2.9c0,0.2-1,0.4-3.1,0.7c-0.2,0.4-0.4,0.7-0.6,1.1c0.7,1.6,1.1,2.5,1.1,2.9c0,0.1,0,0.1-0.1,0.1
	c-1.7,1-2.6,1.5-2.6,1.5c-0.1,0-0.4-0.3-1-1s-0.9-1.1-1.1-1.4c-0.3,0-0.5,0-0.6,0s-0.4,0-0.6,0c-0.2,0.3-0.6,0.8-1.1,1.4
	c-0.5,0.7-0.9,1-1,1c0,0-0.9-0.5-2.6-1.5c-0.1,0-0.1-0.1-0.1-0.1c0-0.4,0.4-1.3,1.1-2.9c-0.3-0.4-0.5-0.7-0.6-1.1
	c-2.1-0.2-3.1-0.4-3.1-0.7v-2.9c0-0.2,1-0.4,3.1-0.7c0.2-0.4,0.4-0.8,0.6-1.1c-0.7-1.6-1.1-2.5-1.1-2.9c0-0.1,0-0.1,0.1-0.1
	c0.1,0,0.3-0.2,0.7-0.4s0.8-0.5,1.2-0.7s0.6-0.3,0.6-0.3c0.1,0,0.4,0.3,1,1c0.5,0.7,0.9,1.1,1.1,1.4c0.3,0,0.5,0,0.6,0s0.4,0,0.6,0
	c0.7-1,1.4-1.8,1.9-2.4l0.1,0c0.1,0,0.9,0.5,2.6,1.5c0.1,0,0.1,0.1,0.1,0.1c0,0.4-0.4,1.3-1.1,2.9c0.2,0.3,0.4,0.7,0.6,1.1
	C742.3,128.7,743.4,128.9,743.4,129.1z"/>
<g>
	<path d="M672.7,177.1v5.6h-3v-15.9h5.2c1.1,0,2,0.1,2.8,0.4s1.4,0.6,1.9,1s0.9,1,1.1,1.6c0.2,0.6,0.4,1.3,0.4,2
		c0,0.8-0.1,1.5-0.4,2.1c-0.3,0.6-0.6,1.2-1.2,1.7c-0.5,0.5-1.2,0.8-1.9,1.1c-0.8,0.3-1.7,0.4-2.7,0.4H672.7z M672.7,174.8h2.2
		c0.5,0,1-0.1,1.4-0.2s0.7-0.3,1-0.6c0.3-0.3,0.5-0.6,0.6-0.9c0.1-0.4,0.2-0.8,0.2-1.2c0-0.4-0.1-0.8-0.2-1.2
		c-0.1-0.3-0.3-0.6-0.6-0.9c-0.3-0.2-0.6-0.4-1-0.6c-0.4-0.1-0.9-0.2-1.4-0.2h-2.2V174.8z"/>
	<path d="M683.3,182.7v-11.3h1.6c0.3,0,0.5,0.1,0.6,0.2s0.2,0.3,0.2,0.5l0.2,1.4c0.4-0.7,0.9-1.2,1.4-1.7c0.5-0.4,1.2-0.6,1.8-0.6
		c0.6,0,1,0.1,1.4,0.4l-0.4,2c0,0.1-0.1,0.2-0.1,0.3c-0.1,0.1-0.2,0.1-0.3,0.1c-0.1,0-0.3,0-0.5-0.1c-0.2-0.1-0.4-0.1-0.8-0.1
		c-0.6,0-1,0.2-1.5,0.5c-0.4,0.3-0.7,0.8-1,1.4v7H683.3z"/>
	<path d="M697.1,171.2c0.8,0,1.6,0.1,2.3,0.4s1.3,0.7,1.8,1.2c0.5,0.5,0.9,1.1,1.1,1.8s0.4,1.5,0.4,2.4c0,0.9-0.1,1.7-0.4,2.4
		c-0.3,0.7-0.6,1.3-1.1,1.8s-1.1,0.9-1.8,1.2s-1.5,0.4-2.3,0.4s-1.6-0.1-2.3-0.4c-0.7-0.3-1.3-0.7-1.8-1.2s-0.9-1.1-1.1-1.8
		c-0.3-0.7-0.4-1.5-0.4-2.4c0-0.9,0.1-1.7,0.4-2.4c0.3-0.7,0.6-1.3,1.1-1.8c0.5-0.5,1.1-0.9,1.8-1.2
		C695.5,171.3,696.2,171.2,697.1,171.2z M697.1,180.7c0.9,0,1.6-0.3,2.1-0.9s0.7-1.6,0.7-2.8c0-1.2-0.2-2.1-0.7-2.8
		c-0.5-0.6-1.1-1-2.1-1c-1,0-1.7,0.3-2.1,1c-0.5,0.6-0.7,1.6-0.7,2.8c0,1.2,0.2,2.1,0.7,2.8C695.4,180.4,696.1,180.7,697.1,180.7z"
		/>
	<path d="M712.7,182.7c-0.4,0-0.6-0.2-0.7-0.5l-0.2-1.1c-0.2,0.3-0.5,0.5-0.7,0.7c-0.3,0.2-0.5,0.4-0.8,0.6c-0.3,0.2-0.6,0.3-1,0.4
		c-0.3,0.1-0.7,0.1-1.1,0.1c-0.6,0-1.2-0.1-1.7-0.4c-0.5-0.3-1-0.6-1.3-1.1c-0.4-0.5-0.7-1.1-0.9-1.8c-0.2-0.7-0.3-1.5-0.3-2.5
		c0-0.8,0.1-1.6,0.3-2.3c0.2-0.7,0.6-1.3,1-1.9c0.4-0.5,0.9-0.9,1.5-1.2c0.6-0.3,1.3-0.4,2-0.4c0.6,0,1.2,0.1,1.6,0.3
		s0.8,0.5,1.2,0.8v-6h2.7v16.3H712.7z M709.1,180.7c0.6,0,1-0.1,1.4-0.4c0.4-0.2,0.8-0.6,1.1-1v-5.1c-0.3-0.4-0.6-0.6-1-0.8
		c-0.4-0.2-0.8-0.2-1.2-0.2c-0.4,0-0.8,0.1-1.1,0.2c-0.3,0.2-0.6,0.4-0.8,0.7c-0.2,0.3-0.4,0.7-0.5,1.2c-0.1,0.5-0.2,1-0.2,1.7
		c0,0.7,0.1,1.2,0.2,1.7c0.1,0.5,0.3,0.8,0.5,1.1c0.2,0.3,0.4,0.5,0.7,0.6C708.4,180.6,708.7,180.7,709.1,180.7z"/>
	<path d="M719.8,171.4v7.2c0,0.7,0.2,1.2,0.5,1.6c0.3,0.4,0.8,0.6,1.4,0.6c0.5,0,0.9-0.1,1.3-0.3c0.4-0.2,0.8-0.5,1.2-0.9v-8.2h2.7
		v11.3h-1.7c-0.4,0-0.6-0.2-0.7-0.5l-0.2-0.9c-0.2,0.2-0.5,0.4-0.7,0.6c-0.2,0.2-0.5,0.4-0.8,0.5c-0.3,0.1-0.6,0.2-0.9,0.3
		s-0.7,0.1-1.1,0.1c-0.6,0-1.2-0.1-1.6-0.3c-0.5-0.2-0.9-0.5-1.2-0.9c-0.3-0.4-0.6-0.8-0.7-1.4c-0.2-0.5-0.2-1.1-0.2-1.7v-7.2H719.8
		z"/>
	<path d="M737.7,173.8c-0.1,0.1-0.2,0.2-0.2,0.2c-0.1,0.1-0.2,0.1-0.3,0.1c-0.1,0-0.3,0-0.4-0.1s-0.3-0.2-0.5-0.3
		c-0.2-0.1-0.4-0.2-0.7-0.3c-0.3-0.1-0.6-0.1-0.9-0.1c-0.5,0-0.9,0.1-1.3,0.3c-0.4,0.2-0.7,0.4-0.9,0.7c-0.2,0.3-0.4,0.7-0.5,1.2
		s-0.2,1-0.2,1.6c0,0.6,0.1,1.1,0.2,1.6c0.1,0.5,0.3,0.9,0.6,1.2c0.2,0.3,0.5,0.6,0.9,0.7s0.7,0.2,1.2,0.2s0.8-0.1,1.1-0.2
		s0.5-0.2,0.7-0.4c0.2-0.1,0.3-0.2,0.5-0.4c0.1-0.1,0.3-0.2,0.5-0.2c0.2,0,0.4,0.1,0.5,0.3l0.8,1c-0.3,0.4-0.6,0.6-1,0.9
		s-0.7,0.4-1.1,0.6s-0.8,0.2-1.2,0.3c-0.4,0.1-0.8,0.1-1.2,0.1c-0.7,0-1.4-0.1-2-0.4c-0.6-0.3-1.2-0.6-1.6-1.1
		c-0.5-0.5-0.8-1.1-1.1-1.8s-0.4-1.5-0.4-2.5c0-0.8,0.1-1.6,0.4-2.3s0.6-1.3,1.1-1.8s1-0.9,1.7-1.2c0.7-0.3,1.5-0.4,2.4-0.4
		c0.8,0,1.6,0.1,2.2,0.4s1.2,0.7,1.7,1.2L737.7,173.8z"/>
	<path d="M744,182.8c-1,0-1.7-0.3-2.3-0.8c-0.5-0.6-0.8-1.3-0.8-2.3v-6.3h-1.1c-0.1,0-0.3,0-0.4-0.1c-0.1-0.1-0.2-0.2-0.2-0.4v-1.1
		l1.8-0.3l0.6-3.1c0-0.1,0.1-0.3,0.2-0.3c0.1-0.1,0.2-0.1,0.4-0.1h1.4v3.6h3v1.9h-3v6.1c0,0.4,0.1,0.6,0.3,0.8
		c0.2,0.2,0.4,0.3,0.7,0.3c0.2,0,0.3,0,0.4-0.1c0.1,0,0.2-0.1,0.3-0.1s0.2-0.1,0.2-0.1c0.1,0,0.1-0.1,0.2-0.1c0.1,0,0.1,0,0.2,0.1
		c0.1,0,0.1,0.1,0.2,0.2l0.8,1.3c-0.4,0.3-0.9,0.6-1.4,0.7S744.6,182.8,744,182.8z"/>
	<path d="M752.1,168.1c0,0.2,0,0.5-0.1,0.7c-0.1,0.2-0.2,0.4-0.4,0.5c-0.2,0.2-0.3,0.3-0.6,0.4s-0.4,0.1-0.7,0.1
		c-0.2,0-0.5,0-0.7-0.1s-0.4-0.2-0.5-0.4c-0.2-0.2-0.3-0.3-0.4-0.5c-0.1-0.2-0.1-0.4-0.1-0.7c0-0.2,0-0.5,0.1-0.7
		c0.1-0.2,0.2-0.4,0.4-0.5c0.2-0.2,0.3-0.3,0.5-0.4s0.4-0.1,0.7-0.1c0.2,0,0.5,0,0.7,0.1s0.4,0.2,0.6,0.4c0.2,0.2,0.3,0.3,0.4,0.5
		C752.1,167.6,752.1,167.8,752.1,168.1z M751.7,171.4v11.3H749v-11.3H751.7z"/>
	<path d="M759.6,171.2c0.8,0,1.6,0.1,2.3,0.4s1.3,0.7,1.8,1.2c0.5,0.5,0.9,1.1,1.1,1.8c0.3,0.7,0.4,1.5,0.4,2.4
		c0,0.9-0.1,1.7-0.4,2.4c-0.3,0.7-0.6,1.3-1.1,1.8c-0.5,0.5-1.1,0.9-1.8,1.2s-1.5,0.4-2.3,0.4c-0.8,0-1.6-0.1-2.3-0.4
		s-1.3-0.7-1.8-1.2c-0.5-0.5-0.9-1.1-1.1-1.8c-0.3-0.7-0.4-1.5-0.4-2.4c0-0.9,0.1-1.7,0.4-2.4s0.6-1.3,1.1-1.8
		c0.5-0.5,1.1-0.9,1.8-1.2S758.8,171.2,759.6,171.2z M759.6,180.7c0.9,0,1.6-0.3,2.1-0.9s0.7-1.6,0.7-2.8c0-1.2-0.2-2.1-0.7-2.8
		c-0.5-0.6-1.1-1-2.1-1c-1,0-1.7,0.3-2.1,1c-0.5,0.6-0.7,1.6-0.7,2.8c0,1.2,0.2,2.1,0.7,2.8C757.9,180.4,758.6,180.7,759.6,180.7z"
		/>
	<path d="M767.3,182.7v-11.3h1.7c0.4,0,0.6,0.2,0.7,0.5l0.2,0.9c0.2-0.2,0.5-0.4,0.7-0.6s0.5-0.4,0.8-0.5c0.3-0.1,0.6-0.2,0.9-0.3
		c0.3-0.1,0.7-0.1,1.1-0.1c0.6,0,1.2,0.1,1.6,0.3s0.9,0.5,1.2,0.9s0.6,0.8,0.7,1.4c0.2,0.5,0.2,1.1,0.2,1.7v7.2h-2.7v-7.2
		c0-0.7-0.2-1.2-0.5-1.6c-0.3-0.4-0.8-0.6-1.4-0.6c-0.5,0-0.9,0.1-1.3,0.3s-0.8,0.5-1.2,0.9v8.2H767.3z"/>
	<path d="M653.9,202.2c0,1.5,0.2,3,0.5,4.5s0.9,2.8,1.6,4.1c0.1,0.1,0.1,0.2,0.1,0.3c0,0.1,0,0.2,0,0.2c0,0.1,0,0.3-0.1,0.4
		c-0.1,0.1-0.2,0.2-0.3,0.2l-1.2,0.7c-0.5-0.8-1-1.7-1.4-2.5c-0.4-0.8-0.7-1.7-0.9-2.6c-0.2-0.9-0.4-1.7-0.5-2.6
		c-0.1-0.9-0.2-1.8-0.2-2.7s0.1-1.8,0.2-2.7c0.1-0.9,0.3-1.8,0.5-2.6c0.2-0.9,0.6-1.7,0.9-2.5c0.4-0.8,0.8-1.7,1.4-2.5l1.2,0.7
		c0.1,0.1,0.2,0.1,0.3,0.2c0.1,0.1,0.1,0.2,0.1,0.3c0,0.1,0,0.3-0.1,0.5c-0.7,1.3-1.2,2.7-1.6,4.1S653.9,200.7,653.9,202.2z"/>
	<path d="M661.7,194.5c0,0.2,0,0.5-0.1,0.7c-0.1,0.2-0.2,0.4-0.4,0.5c-0.2,0.2-0.3,0.3-0.6,0.4c-0.2,0.1-0.4,0.1-0.7,0.1
		c-0.2,0-0.5,0-0.7-0.1s-0.4-0.2-0.5-0.4c-0.2-0.2-0.3-0.3-0.4-0.5c-0.1-0.2-0.1-0.4-0.1-0.7c0-0.2,0-0.5,0.1-0.7s0.2-0.4,0.4-0.5
		c0.2-0.2,0.3-0.3,0.5-0.4s0.4-0.1,0.7-0.1c0.2,0,0.5,0,0.7,0.1c0.2,0.1,0.4,0.2,0.6,0.4c0.2,0.2,0.3,0.3,0.4,0.5
		S661.7,194.2,661.7,194.5z M661.3,197.8v11.3h-2.7v-11.3H661.3z"/>
	<path d="M664.4,209.1v-11.3h1.7c0.4,0,0.6,0.2,0.7,0.5l0.2,0.9c0.2-0.2,0.5-0.4,0.7-0.6c0.3-0.2,0.5-0.4,0.8-0.5
		c0.3-0.1,0.6-0.2,0.9-0.3c0.3-0.1,0.7-0.1,1.1-0.1c0.6,0,1.2,0.1,1.6,0.3c0.5,0.2,0.9,0.5,1.2,0.9c0.3,0.4,0.6,0.8,0.7,1.4
		s0.2,1.1,0.2,1.7v7.2h-2.7v-7.2c0-0.7-0.2-1.2-0.5-1.6c-0.3-0.4-0.8-0.6-1.4-0.6c-0.5,0-0.9,0.1-1.3,0.3c-0.4,0.2-0.8,0.5-1.2,0.9
		v8.2H664.4z"/>
	<path d="M680.6,209.2c-1,0-1.7-0.3-2.3-0.8c-0.5-0.6-0.8-1.3-0.8-2.3v-6.3h-1.1c-0.1,0-0.3,0-0.4-0.1s-0.2-0.2-0.2-0.4v-1.1
		l1.8-0.3l0.6-3.1c0-0.1,0.1-0.3,0.2-0.3c0.1-0.1,0.2-0.1,0.4-0.1h1.4v3.6h3v1.9h-3v6.1c0,0.4,0.1,0.6,0.3,0.8
		c0.2,0.2,0.4,0.3,0.7,0.3c0.2,0,0.3,0,0.4-0.1c0.1,0,0.2-0.1,0.3-0.1c0.1,0,0.2-0.1,0.2-0.1c0.1,0,0.1-0.1,0.2-0.1
		c0.1,0,0.1,0,0.2,0.1s0.1,0.1,0.2,0.2l0.8,1.3c-0.4,0.3-0.9,0.6-1.4,0.7C681.7,209.2,681.1,209.2,680.6,209.2z"/>
	<path d="M690.1,197.6c0.7,0,1.4,0.1,2,0.3c0.6,0.2,1.1,0.6,1.5,1s0.8,1,1,1.6c0.2,0.6,0.4,1.4,0.4,2.2c0,0.2,0,0.4,0,0.5
		s-0.1,0.2-0.1,0.3c0,0.1-0.1,0.1-0.2,0.2c-0.1,0-0.2,0-0.3,0h-7c0.1,1.2,0.4,2,0.9,2.6c0.5,0.5,1.3,0.8,2.2,0.8
		c0.4,0,0.8-0.1,1.1-0.2c0.3-0.1,0.6-0.2,0.8-0.3s0.4-0.2,0.6-0.3s0.4-0.2,0.5-0.2c0.1,0,0.2,0,0.3,0.1c0.1,0,0.2,0.1,0.2,0.2l0.8,1
		c-0.3,0.4-0.6,0.6-1,0.9c-0.4,0.2-0.8,0.4-1.2,0.6c-0.4,0.1-0.8,0.2-1.2,0.3c-0.4,0.1-0.8,0.1-1.2,0.1c-0.8,0-1.5-0.1-2.2-0.4
		c-0.7-0.3-1.3-0.6-1.8-1.2s-0.9-1.1-1.2-1.9c-0.3-0.8-0.4-1.6-0.4-2.6c0-0.8,0.1-1.5,0.4-2.2c0.2-0.7,0.6-1.3,1.1-1.8
		c0.5-0.5,1-0.9,1.7-1.2C688.5,197.7,689.2,197.6,690.1,197.6z M690.1,199.6c-0.8,0-1.4,0.2-1.9,0.7c-0.4,0.4-0.7,1.1-0.9,1.9h5.1
		c0-0.4,0-0.7-0.1-1c-0.1-0.3-0.2-0.6-0.4-0.8c-0.2-0.2-0.4-0.4-0.7-0.6C690.9,199.6,690.5,199.6,690.1,199.6z"/>
	<path d="M697.2,209.1v-11.3h1.6c0.3,0,0.5,0.1,0.6,0.2c0.1,0.1,0.2,0.3,0.2,0.5l0.2,1.4c0.4-0.7,0.9-1.2,1.4-1.7s1.2-0.6,1.8-0.6
		c0.6,0,1,0.1,1.4,0.4l-0.4,2c0,0.1-0.1,0.2-0.1,0.3c-0.1,0.1-0.2,0.1-0.3,0.1c-0.1,0-0.3,0-0.5-0.1c-0.2-0.1-0.4-0.1-0.8-0.1
		c-0.6,0-1,0.2-1.5,0.5c-0.4,0.3-0.7,0.8-1,1.4v7H697.2z"/>
	<path d="M711.8,209.1h-2.5l-4.5-11.3h2.3c0.2,0,0.4,0,0.5,0.1c0.1,0.1,0.2,0.2,0.3,0.4l2.2,6c0.1,0.4,0.2,0.7,0.3,1
		c0.1,0.3,0.2,0.7,0.2,1c0.1-0.3,0.1-0.7,0.2-1c0.1-0.3,0.2-0.7,0.3-1l2.2-6c0.1-0.1,0.1-0.3,0.3-0.4c0.1-0.1,0.3-0.1,0.5-0.1h2.1
		L711.8,209.1z"/>
	<path d="M722.2,197.6c0.7,0,1.4,0.1,2,0.3c0.6,0.2,1.1,0.6,1.5,1s0.8,1,1,1.6c0.2,0.6,0.4,1.4,0.4,2.2c0,0.2,0,0.4,0,0.5
		s-0.1,0.2-0.1,0.3c0,0.1-0.1,0.1-0.2,0.2c-0.1,0-0.2,0-0.3,0h-7c0.1,1.2,0.4,2,0.9,2.6c0.5,0.5,1.3,0.8,2.2,0.8
		c0.4,0,0.8-0.1,1.1-0.2c0.3-0.1,0.6-0.2,0.8-0.3s0.4-0.2,0.6-0.3s0.4-0.2,0.5-0.2c0.1,0,0.2,0,0.3,0.1c0.1,0,0.2,0.1,0.2,0.2l0.8,1
		c-0.3,0.4-0.6,0.6-1,0.9c-0.4,0.2-0.8,0.4-1.2,0.6c-0.4,0.1-0.8,0.2-1.2,0.3c-0.4,0.1-0.8,0.1-1.2,0.1c-0.8,0-1.5-0.1-2.2-0.4
		c-0.7-0.3-1.3-0.6-1.8-1.2s-0.9-1.1-1.2-1.9c-0.3-0.8-0.4-1.6-0.4-2.6c0-0.8,0.1-1.5,0.4-2.2c0.2-0.7,0.6-1.3,1.1-1.8
		c0.5-0.5,1-0.9,1.7-1.2C720.6,197.7,721.3,197.6,722.2,197.6z M722.2,199.6c-0.8,0-1.4,0.2-1.9,0.7c-0.4,0.4-0.7,1.1-0.9,1.9h5.1
		c0-0.4,0-0.7-0.1-1c-0.1-0.3-0.2-0.6-0.4-0.8c-0.2-0.2-0.4-0.4-0.7-0.6C723,199.6,722.6,199.6,722.2,199.6z"/>
	<path d="M729.3,209.1v-11.3h1.7c0.4,0,0.6,0.2,0.7,0.5l0.2,0.9c0.2-0.2,0.5-0.4,0.7-0.6c0.3-0.2,0.5-0.4,0.8-0.5
		c0.3-0.1,0.6-0.2,0.9-0.3s0.7-0.1,1.1-0.1c0.6,0,1.2,0.1,1.6,0.3s0.9,0.5,1.2,0.9c0.3,0.4,0.6,0.8,0.7,1.4s0.2,1.1,0.2,1.7v7.2
		h-2.7v-7.2c0-0.7-0.2-1.2-0.5-1.6c-0.3-0.4-0.8-0.6-1.4-0.6c-0.5,0-0.9,0.1-1.3,0.3s-0.8,0.5-1.2,0.9v8.2H729.3z"/>
	<path d="M745.5,209.2c-1,0-1.7-0.3-2.3-0.8c-0.5-0.6-0.8-1.3-0.8-2.3v-6.3h-1.1c-0.1,0-0.3,0-0.4-0.1c-0.1-0.1-0.2-0.2-0.2-0.4
		v-1.1l1.8-0.3l0.6-3.1c0-0.1,0.1-0.3,0.2-0.3c0.1-0.1,0.2-0.1,0.4-0.1h1.4v3.6h3v1.9h-3v6.1c0,0.4,0.1,0.6,0.3,0.8
		c0.2,0.2,0.4,0.3,0.7,0.3c0.2,0,0.3,0,0.4-0.1c0.1,0,0.2-0.1,0.3-0.1c0.1,0,0.2-0.1,0.2-0.1c0.1,0,0.1-0.1,0.2-0.1
		c0.1,0,0.1,0,0.2,0.1c0.1,0,0.1,0.1,0.2,0.2l0.8,1.3c-0.4,0.3-0.9,0.6-1.4,0.7C746.6,209.2,746,209.2,745.5,209.2z"/>
	<path d="M753.6,194.5c0,0.2,0,0.5-0.1,0.7c-0.1,0.2-0.2,0.4-0.4,0.5c-0.2,0.2-0.3,0.3-0.6,0.4s-0.4,0.1-0.7,0.1
		c-0.2,0-0.5,0-0.7-0.1s-0.4-0.2-0.5-0.4c-0.2-0.2-0.3-0.3-0.4-0.5c-0.1-0.2-0.1-0.4-0.1-0.7c0-0.2,0-0.5,0.1-0.7s0.2-0.4,0.4-0.5
		c0.2-0.2,0.3-0.3,0.5-0.4s0.4-0.1,0.7-0.1c0.2,0,0.5,0,0.7,0.1s0.4,0.2,0.6,0.4c0.2,0.2,0.3,0.3,0.4,0.5
		C753.6,194,753.6,194.2,753.6,194.5z M753.2,197.8v11.3h-2.7v-11.3H753.2z"/>
	<path d="M761.1,197.6c0.8,0,1.6,0.1,2.3,0.4c0.7,0.3,1.3,0.7,1.8,1.2c0.5,0.5,0.9,1.1,1.1,1.8c0.3,0.7,0.4,1.5,0.4,2.4
		c0,0.9-0.1,1.7-0.4,2.4c-0.3,0.7-0.6,1.3-1.1,1.8c-0.5,0.5-1.1,0.9-1.8,1.2s-1.5,0.4-2.3,0.4c-0.8,0-1.6-0.1-2.3-0.4
		s-1.3-0.7-1.8-1.2c-0.5-0.5-0.9-1.1-1.1-1.8c-0.3-0.7-0.4-1.5-0.4-2.4c0-0.9,0.1-1.7,0.4-2.4s0.6-1.3,1.1-1.8
		c0.5-0.5,1.1-0.9,1.8-1.2C759.5,197.7,760.2,197.6,761.1,197.6z M761.1,207.1c0.9,0,1.6-0.3,2.1-0.9s0.7-1.6,0.7-2.8
		s-0.2-2.1-0.7-2.8c-0.5-0.6-1.1-1-2.1-1c-1,0-1.7,0.3-2.1,1c-0.5,0.6-0.7,1.6-0.7,2.8s0.2,2.1,0.7,2.8
		C759.4,206.8,760.1,207.1,761.1,207.1z"/>
	<path d="M768.8,209.1v-11.3h1.7c0.4,0,0.6,0.2,0.7,0.5l0.2,0.9c0.2-0.2,0.5-0.4,0.7-0.6c0.3-0.2,0.5-0.4,0.8-0.5
		c0.3-0.1,0.6-0.2,0.9-0.3c0.3-0.1,0.7-0.1,1.1-0.1c0.6,0,1.2,0.1,1.6,0.3s0.9,0.5,1.2,0.9c0.3,0.4,0.6,0.8,0.7,1.4s0.2,1.1,0.2,1.7
		v7.2h-2.7v-7.2c0-0.7-0.2-1.2-0.5-1.6c-0.3-0.4-0.8-0.6-1.4-0.6c-0.5,0-0.9,0.1-1.3,0.3s-0.8,0.5-1.2,0.9v8.2H768.8z"/>
	<path d="M788,200c-0.1,0.1-0.2,0.2-0.2,0.2s-0.2,0.1-0.3,0.1c-0.1,0-0.3,0-0.4-0.1c-0.2-0.1-0.3-0.2-0.5-0.2s-0.4-0.2-0.7-0.2
		c-0.3-0.1-0.6-0.1-0.9-0.1c-0.5,0-1,0.1-1.3,0.3c-0.3,0.2-0.5,0.5-0.5,0.9c0,0.2,0.1,0.4,0.2,0.6c0.2,0.2,0.4,0.3,0.6,0.4
		c0.3,0.1,0.6,0.2,0.9,0.3s0.7,0.2,1,0.3s0.7,0.2,1,0.4s0.6,0.3,0.9,0.6c0.3,0.2,0.5,0.5,0.6,0.8c0.2,0.3,0.2,0.7,0.2,1.2
		c0,0.5-0.1,1-0.3,1.5c-0.2,0.5-0.5,0.9-0.9,1.2c-0.4,0.3-0.9,0.6-1.4,0.8c-0.6,0.2-1.2,0.3-1.9,0.3c-0.4,0-0.8,0-1.1-0.1
		c-0.4-0.1-0.7-0.2-1.1-0.3c-0.3-0.1-0.7-0.3-0.9-0.4c-0.3-0.2-0.5-0.4-0.8-0.6l0.6-1c0.1-0.1,0.2-0.2,0.3-0.3
		c0.1-0.1,0.2-0.1,0.4-0.1s0.3,0,0.5,0.1s0.3,0.2,0.5,0.3s0.4,0.2,0.7,0.3c0.3,0.1,0.6,0.1,1,0.1c0.3,0,0.6,0,0.8-0.1
		c0.2-0.1,0.4-0.2,0.6-0.3c0.2-0.1,0.3-0.3,0.3-0.4c0.1-0.2,0.1-0.3,0.1-0.5c0-0.3-0.1-0.5-0.2-0.6c-0.2-0.2-0.4-0.3-0.6-0.4
		c-0.3-0.1-0.6-0.2-0.9-0.3c-0.3-0.1-0.7-0.2-1-0.3s-0.7-0.3-1-0.4c-0.3-0.2-0.6-0.4-0.9-0.6c-0.3-0.2-0.5-0.5-0.6-0.9
		c-0.2-0.4-0.2-0.8-0.2-1.3c0-0.5,0.1-0.9,0.3-1.3c0.2-0.4,0.5-0.8,0.8-1.1c0.4-0.3,0.8-0.6,1.3-0.7c0.5-0.2,1.1-0.3,1.8-0.3
		c0.8,0,1.5,0.1,2.1,0.4c0.6,0.3,1.2,0.6,1.6,1L788,200z"/>
	<path d="M792.5,202.2c0-1.5-0.2-3-0.5-4.5c-0.4-1.5-0.9-2.8-1.6-4.1c-0.1-0.2-0.1-0.4-0.1-0.5c0-0.1,0-0.3,0.1-0.3s0.2-0.2,0.3-0.2
		l1.2-0.7c0.5,0.8,1,1.7,1.4,2.5s0.7,1.7,0.9,2.5c0.2,0.9,0.4,1.7,0.5,2.6c0.1,0.9,0.2,1.8,0.2,2.7s-0.1,1.8-0.2,2.7
		c-0.1,0.9-0.3,1.8-0.5,2.6c-0.2,0.9-0.6,1.7-0.9,2.6c-0.4,0.8-0.8,1.7-1.4,2.5l-1.2-0.7c-0.1-0.1-0.2-0.1-0.3-0.2
		c-0.1-0.1-0.1-0.2-0.1-0.4c0-0.1,0-0.1,0-0.2c0-0.1,0.1-0.2,0.1-0.3c0.7-1.3,1.2-2.7,1.6-4.1C792.3,205.2,792.5,203.7,792.5,202.2z
		"/>
</g>
<g>
	<g>
		<rect x="10.7" y="90.5" class="st0" width="149.5" height="149.5"/>
		<path d="M159.9,90.7v149h-149v-149H159.9 M160.5,90.2h-150v150h150V90.2L160.5,90.2z"/>
	</g>
	<path class="st4" d="M81.5,146.9h8.1v-2h-2.7v-9.4h-2.4l-3.1,2.9L83,140c0.6-0.5,1-0.9,1.2-1.2h0v6h-2.7V146.9L81.5,146.9z
		 M92.2,141.5c0,1-0.1,2-0.4,3s-0.7,1.9-1.3,2.8c-0.5,0.9-1.3,1.6-2.1,2.1c-0.9,0.5-1.8,0.8-2.9,0.8c-1,0-2-0.3-2.9-0.8
		c-0.9-0.5-1.6-1.3-2.1-2.1c-0.5-0.9-1-1.8-1.2-2.8c-0.3-1-0.4-2-0.4-3s0.1-2,0.4-3c0.3-1,0.7-1.9,1.2-2.8c0.5-0.9,1.3-1.6,2.1-2.1
		c0.9-0.5,1.9-0.8,2.9-0.8s2,0.3,2.9,0.8c0.9,0.5,1.6,1.3,2.1,2.1s1,1.8,1.3,2.8C92.1,139.6,92.2,140.5,92.2,141.5z M103,146.9
		v-10.8c-1.5,0-2.8-0.5-3.8-1.6c-1.1-1.1-1.6-2.3-1.6-3.8H73.4c0,1.5-0.5,2.8-1.6,3.8c-1.1,1.1-2.3,1.6-3.8,1.6v10.8
		c1.5,0,2.8,0.5,3.8,1.6c1,1,1.6,2.3,1.6,3.8h24.2c0-1.5,0.5-2.8,1.6-3.8C100.2,147.4,101.5,146.9,103,146.9z M105.7,129.4v24.2
		c0,0.4-0.1,0.7-0.4,0.9c-0.3,0.3-0.6,0.4-0.9,0.4H66.7c-0.4,0-0.7-0.1-0.9-0.4s-0.4-0.6-0.4-0.9v-24.2c0-0.4,0.1-0.7,0.4-0.9
		s0.6-0.4,0.9-0.4h37.6c0.4,0,0.7,0.1,0.9,0.4C105.5,128.8,105.7,129.1,105.7,129.4z"/>
	<g>
		<path d="M33.6,179.5c0.2,0,0.3,0.1,0.4,0.2l1.2,1.3c-0.6,0.8-1.4,1.4-2.4,1.8c-0.9,0.4-2.1,0.6-3.4,0.6c-1.2,0-2.2-0.2-3.2-0.6
			c-0.9-0.4-1.7-1-2.4-1.7c-0.7-0.7-1.2-1.6-1.5-2.6c-0.4-1-0.5-2.1-0.5-3.3c0-1.2,0.2-2.3,0.6-3.3s1-1.9,1.7-2.6
			c0.7-0.7,1.6-1.3,2.6-1.7s2.1-0.6,3.3-0.6c1.2,0,2.2,0.2,3.1,0.6c0.9,0.4,1.6,0.9,2.3,1.5l-1,1.4c-0.1,0.1-0.1,0.2-0.2,0.2
			c-0.1,0.1-0.2,0.1-0.4,0.1c-0.2,0-0.3-0.1-0.5-0.2c-0.2-0.1-0.4-0.3-0.7-0.4c-0.3-0.2-0.6-0.3-1-0.4c-0.4-0.1-0.9-0.2-1.6-0.2
			c-0.7,0-1.4,0.1-2.1,0.4c-0.6,0.3-1.2,0.6-1.6,1.1c-0.5,0.5-0.8,1.1-1.1,1.8s-0.4,1.5-0.4,2.3c0,0.9,0.1,1.7,0.4,2.4
			s0.6,1.3,1,1.8c0.4,0.5,0.9,0.8,1.5,1.1c0.6,0.3,1.2,0.4,1.9,0.4c0.4,0,0.8,0,1.1-0.1s0.6-0.1,0.9-0.2c0.3-0.1,0.5-0.2,0.8-0.4
			c0.2-0.1,0.5-0.3,0.7-0.6c0.1-0.1,0.2-0.1,0.2-0.2S33.5,179.5,33.6,179.5z"/>
		<path d="M42.1,171.8c0.8,0,1.6,0.1,2.3,0.4c0.7,0.3,1.3,0.7,1.8,1.2s0.9,1.1,1.1,1.8c0.3,0.7,0.4,1.5,0.4,2.4
			c0,0.9-0.1,1.7-0.4,2.4c-0.3,0.7-0.6,1.3-1.1,1.8c-0.5,0.5-1.1,0.9-1.8,1.2c-0.7,0.3-1.5,0.4-2.3,0.4s-1.6-0.1-2.3-0.4
			c-0.7-0.3-1.3-0.7-1.8-1.2c-0.5-0.5-0.9-1.1-1.1-1.8c-0.3-0.7-0.4-1.5-0.4-2.4c0-0.9,0.1-1.7,0.4-2.4c0.3-0.7,0.6-1.3,1.1-1.8
			c0.5-0.5,1.1-0.9,1.8-1.2C40.5,171.9,41.2,171.8,42.1,171.8z M42.1,181.3c0.9,0,1.6-0.3,2.1-0.9c0.5-0.6,0.7-1.6,0.7-2.8
			s-0.2-2.1-0.7-2.8c-0.5-0.6-1.1-1-2.1-1c-1,0-1.7,0.3-2.1,1c-0.5,0.6-0.7,1.6-0.7,2.8s0.2,2.1,0.7,2.8
			C40.4,181,41.1,181.3,42.1,181.3z"/>
		<path d="M49.8,183.3V172h1.7c0.4,0,0.6,0.2,0.7,0.5l0.2,0.8c0.2-0.2,0.4-0.4,0.6-0.6c0.2-0.2,0.4-0.3,0.7-0.5
			c0.2-0.1,0.5-0.2,0.8-0.3c0.3-0.1,0.6-0.1,0.9-0.1c0.7,0,1.3,0.2,1.8,0.6c0.5,0.4,0.8,0.9,1,1.5c0.2-0.4,0.4-0.7,0.7-1
			s0.6-0.5,0.9-0.7c0.3-0.2,0.7-0.3,1-0.4s0.7-0.1,1.1-0.1c0.6,0,1.2,0.1,1.7,0.3c0.5,0.2,0.9,0.5,1.2,0.8s0.6,0.8,0.8,1.3
			s0.3,1.1,0.3,1.8v7.2h-2.7v-7.2c0-0.7-0.2-1.3-0.5-1.6c-0.3-0.4-0.8-0.5-1.4-0.5c-0.3,0-0.5,0-0.8,0.1c-0.2,0.1-0.4,0.2-0.6,0.4
			c-0.2,0.2-0.3,0.4-0.4,0.7c-0.1,0.3-0.2,0.6-0.2,0.9v7.2h-2.7v-7.2c0-0.8-0.2-1.3-0.5-1.6s-0.8-0.5-1.3-0.5
			c-0.4,0-0.8,0.1-1.1,0.3c-0.3,0.2-0.7,0.5-1,0.8v8.3H49.8z"/>
		<path d="M68.3,187v-15H70c0.2,0,0.3,0,0.5,0.1c0.1,0.1,0.2,0.2,0.2,0.4l0.2,1c0.5-0.5,1-0.9,1.6-1.3c0.6-0.3,1.3-0.5,2.1-0.5
			c0.6,0,1.2,0.1,1.7,0.4s0.9,0.6,1.3,1.1c0.4,0.5,0.7,1.1,0.9,1.8c0.2,0.7,0.3,1.5,0.3,2.5c0,0.8-0.1,1.6-0.3,2.3
			c-0.2,0.7-0.6,1.3-1,1.9c-0.4,0.5-0.9,0.9-1.5,1.2c-0.6,0.3-1.3,0.4-2,0.4c-0.6,0-1.2-0.1-1.6-0.3c-0.4-0.2-0.8-0.5-1.2-0.8v4.6
			H68.3z M73.6,173.9c-0.6,0-1,0.1-1.4,0.4c-0.4,0.2-0.8,0.6-1.1,1v5.1c0.3,0.4,0.6,0.6,1,0.8c0.4,0.2,0.8,0.2,1.2,0.2
			c0.4,0,0.8-0.1,1.1-0.2c0.3-0.2,0.6-0.4,0.8-0.7s0.4-0.7,0.5-1.2c0.1-0.5,0.2-1,0.2-1.7c0-0.7-0.1-1.2-0.2-1.7
			c-0.1-0.5-0.3-0.8-0.5-1.1c-0.2-0.3-0.4-0.5-0.7-0.6C74.3,174,73.9,173.9,73.6,173.9z"/>
		<path d="M84.4,183.4c-1,0-1.7-0.3-2.3-0.8c-0.5-0.6-0.8-1.3-0.8-2.3V174h-1.1c-0.1,0-0.3,0-0.4-0.1s-0.2-0.2-0.2-0.4v-1.1l1.8-0.3
			l0.6-3.1c0-0.1,0.1-0.3,0.2-0.3c0.1-0.1,0.2-0.1,0.4-0.1h1.4v3.6h3v1.9h-3v6.1c0,0.4,0.1,0.6,0.3,0.8c0.2,0.2,0.4,0.3,0.7,0.3
			c0.2,0,0.3,0,0.4-0.1c0.1,0,0.2-0.1,0.3-0.1c0.1,0,0.2-0.1,0.2-0.1c0.1,0,0.1-0.1,0.2-0.1c0.1,0,0.1,0,0.2,0.1
			c0.1,0,0.1,0.1,0.2,0.2l0.8,1.3c-0.4,0.3-0.9,0.6-1.4,0.7C85.5,183.4,85,183.4,84.4,183.4z"/>
		<path d="M98.1,183.3h-1.2c-0.3,0-0.5,0-0.6-0.1c-0.1-0.1-0.3-0.2-0.3-0.5l-0.2-0.8c-0.3,0.3-0.6,0.5-0.8,0.7s-0.6,0.4-0.9,0.5
			c-0.3,0.1-0.6,0.2-0.9,0.3s-0.7,0.1-1.1,0.1c-0.5,0-0.9-0.1-1.3-0.2s-0.8-0.3-1-0.6c-0.3-0.3-0.5-0.6-0.7-1
			c-0.2-0.4-0.2-0.8-0.2-1.3c0-0.4,0.1-0.8,0.3-1.3s0.6-0.8,1.1-1.1c0.5-0.3,1.2-0.6,2.1-0.8s1.9-0.3,3.2-0.3v-0.7
			c0-0.8-0.2-1.3-0.5-1.7s-0.8-0.5-1.4-0.5c-0.4,0-0.8,0.1-1.1,0.2c-0.3,0.1-0.5,0.2-0.8,0.3c-0.2,0.1-0.4,0.2-0.6,0.3
			c-0.2,0.1-0.4,0.2-0.6,0.2c-0.2,0-0.3,0-0.5-0.1c-0.1-0.1-0.2-0.2-0.3-0.4l-0.5-0.9c1.3-1.2,2.9-1.8,4.7-1.8
			c0.7,0,1.2,0.1,1.8,0.3s1,0.5,1.3,0.9c0.4,0.4,0.6,0.8,0.8,1.4c0.2,0.5,0.3,1.1,0.3,1.8V183.3z M92.8,181.6c0.3,0,0.5,0,0.8-0.1
			c0.2-0.1,0.5-0.1,0.7-0.2s0.4-0.2,0.6-0.4c0.2-0.1,0.4-0.3,0.6-0.5v-1.9c-0.8,0-1.5,0-2,0.1c-0.5,0.1-1,0.2-1.3,0.4
			c-0.3,0.2-0.6,0.3-0.7,0.5c-0.1,0.2-0.2,0.4-0.2,0.7c0,0.5,0.1,0.8,0.4,1C92,181.5,92.4,181.6,92.8,181.6z"/>
		<path d="M100.8,183.3v-16.3h2.7v6.4c0.4-0.5,1-0.9,1.5-1.1c0.6-0.3,1.2-0.4,2-0.4c0.6,0,1.2,0.1,1.7,0.4c0.5,0.3,0.9,0.6,1.3,1.1
			c0.4,0.5,0.7,1.1,0.9,1.8c0.2,0.7,0.3,1.5,0.3,2.5c0,0.8-0.1,1.6-0.3,2.3c-0.2,0.7-0.6,1.3-1,1.9c-0.4,0.5-0.9,0.9-1.5,1.2
			c-0.6,0.3-1.3,0.4-2,0.4c-0.3,0-0.7,0-0.9-0.1c-0.3-0.1-0.5-0.2-0.8-0.3c-0.2-0.1-0.5-0.3-0.7-0.5c-0.2-0.2-0.4-0.4-0.6-0.6
			l-0.1,0.8c0,0.2-0.1,0.3-0.2,0.4c-0.1,0.1-0.3,0.1-0.4,0.1H100.8z M106.1,173.9c-0.6,0-1,0.1-1.4,0.4c-0.4,0.2-0.8,0.6-1.1,1v5.1
			c0.3,0.4,0.6,0.6,1,0.8s0.8,0.2,1.2,0.2c0.4,0,0.8-0.1,1.1-0.2c0.3-0.2,0.6-0.4,0.8-0.7c0.2-0.3,0.4-0.7,0.5-1.2
			c0.1-0.5,0.2-1,0.2-1.7c0-0.7-0.1-1.2-0.2-1.7c-0.1-0.5-0.3-0.8-0.5-1.1c-0.2-0.3-0.4-0.5-0.7-0.6
			C106.8,174,106.4,173.9,106.1,173.9z"/>
		<path d="M116.6,168.7c0,0.2,0,0.5-0.1,0.7c-0.1,0.2-0.2,0.4-0.4,0.5s-0.3,0.3-0.6,0.4c-0.2,0.1-0.4,0.1-0.7,0.1
			c-0.2,0-0.5,0-0.7-0.1s-0.4-0.2-0.5-0.4c-0.2-0.2-0.3-0.3-0.4-0.5c-0.1-0.2-0.1-0.4-0.1-0.7c0-0.2,0-0.5,0.1-0.7
			c0.1-0.2,0.2-0.4,0.4-0.6c0.2-0.2,0.3-0.3,0.5-0.4s0.4-0.1,0.7-0.1c0.2,0,0.5,0,0.7,0.1c0.2,0.1,0.4,0.2,0.6,0.4
			c0.2,0.2,0.3,0.3,0.4,0.6C116.6,168.2,116.6,168.4,116.6,168.7z M116.2,172v11.3h-2.7V172H116.2z"/>
		<path d="M122.2,166.9v16.3h-2.7v-16.3H122.2z"/>
		<path d="M128.5,168.7c0,0.2,0,0.5-0.1,0.7c-0.1,0.2-0.2,0.4-0.4,0.5s-0.3,0.3-0.6,0.4c-0.2,0.1-0.4,0.1-0.7,0.1
			c-0.2,0-0.5,0-0.7-0.1s-0.4-0.2-0.5-0.4c-0.2-0.2-0.3-0.3-0.4-0.5c-0.1-0.2-0.1-0.4-0.1-0.7c0-0.2,0-0.5,0.1-0.7
			c0.1-0.2,0.2-0.4,0.4-0.6c0.2-0.2,0.3-0.3,0.5-0.4s0.4-0.1,0.7-0.1c0.2,0,0.5,0,0.7,0.1c0.2,0.1,0.4,0.2,0.6,0.4
			c0.2,0.2,0.3,0.3,0.4,0.6C128.5,168.2,128.5,168.4,128.5,168.7z M128.1,172v11.3h-2.7V172H128.1z"/>
		<path d="M134.9,183.4c-1,0-1.7-0.3-2.3-0.8c-0.5-0.6-0.8-1.3-0.8-2.3V174h-1.1c-0.1,0-0.3,0-0.4-0.1s-0.2-0.2-0.2-0.4v-1.1
			l1.8-0.3l0.6-3.1c0-0.1,0.1-0.3,0.2-0.3c0.1-0.1,0.2-0.1,0.4-0.1h1.4v3.6h3v1.9h-3v6.1c0,0.4,0.1,0.6,0.3,0.8
			c0.2,0.2,0.4,0.3,0.7,0.3c0.2,0,0.3,0,0.4-0.1c0.1,0,0.2-0.1,0.3-0.1c0.1,0,0.2-0.1,0.2-0.1c0.1,0,0.1-0.1,0.2-0.1
			c0.1,0,0.1,0,0.2,0.1c0.1,0,0.1,0.1,0.2,0.2l0.8,1.3c-0.4,0.3-0.9,0.6-1.4,0.7C136,183.4,135.5,183.4,134.9,183.4z"/>
		<path d="M144.4,171.8c0.7,0,1.4,0.1,2,0.3c0.6,0.2,1.1,0.6,1.5,1c0.4,0.4,0.8,1,1,1.6c0.2,0.6,0.4,1.4,0.4,2.2c0,0.2,0,0.4,0,0.5
			c0,0.1-0.1,0.2-0.1,0.3c0,0.1-0.1,0.1-0.2,0.2c-0.1,0-0.2,0-0.3,0h-7c0.1,1.2,0.4,2,0.9,2.6c0.5,0.5,1.3,0.8,2.2,0.8
			c0.4,0,0.8-0.1,1.1-0.2s0.6-0.2,0.8-0.3c0.2-0.1,0.4-0.2,0.6-0.3s0.4-0.2,0.5-0.2c0.1,0,0.2,0,0.3,0.1s0.2,0.1,0.2,0.2l0.8,1
			c-0.3,0.4-0.6,0.6-1,0.9s-0.8,0.4-1.2,0.6c-0.4,0.1-0.8,0.2-1.2,0.3c-0.4,0.1-0.8,0.1-1.2,0.1c-0.8,0-1.5-0.1-2.2-0.4
			c-0.7-0.3-1.3-0.6-1.8-1.2c-0.5-0.5-0.9-1.1-1.2-1.9c-0.3-0.8-0.4-1.6-0.4-2.6c0-0.8,0.1-1.5,0.4-2.2c0.2-0.7,0.6-1.3,1.1-1.8
			c0.5-0.5,1-0.9,1.7-1.2C142.8,172,143.5,171.8,144.4,171.8z M144.4,173.8c-0.8,0-1.4,0.2-1.9,0.7c-0.4,0.4-0.7,1.1-0.9,1.9h5.1
			c0-0.4,0-0.7-0.1-1c-0.1-0.3-0.2-0.6-0.4-0.8c-0.2-0.2-0.4-0.4-0.7-0.6S144.8,173.8,144.4,173.8z M148.2,167.2l-2.7,2.9
			c-0.1,0.1-0.3,0.2-0.4,0.3c-0.1,0.1-0.3,0.1-0.5,0.1H143l1.6-2.7c0.1-0.2,0.2-0.3,0.4-0.4c0.1-0.1,0.4-0.1,0.7-0.1H148.2z"/>
	</g>
</g>
</svg>
