<?xml version="1.0" encoding="utf-8"?>
<!-- Generator: Adobe Illustrator 23.0.6, SVG Export Plug-In . SVG Version: 6.00 Build 0)  -->
<svg version="1.1" id="Calque_1" xmlns="http://www.w3.org/2000/svg" xmlns:xlink="http://www.w3.org/1999/xlink" x="0px" y="0px"
	 viewBox="0 0 810 250.8" style="enable-background:new 0 0 810 250.8;" xml:space="preserve">
<style type="text/css">
	.st0{fill:#FF0000;}
	.st1{fill:none;stroke:#000000;stroke-miterlimit:10;stroke-dasharray:10,10;}
	.st2{fill:#FFFFFF;}
	.st3{fill:#333333;}
</style>
<path class="st0" d="M470.4,32.5c0,0.4,0.1,0.8,0.3,1.1l21.7,37.5c0.4,0.7,1.1,1.1,1.9,1.1s1.5-0.4,1.9-1.1l21.7-37.5
	c0.2-0.3,0.3-0.7,0.3-1.1c0-0.4-0.1-0.8-0.3-1.1c-0.4-0.7-1.1-1.1-1.9-1.1h-43.3c-0.8,0-1.5,0.4-1.9,1.1
	C470.5,31.7,470.4,32.1,470.4,32.5z"/>
<g>
	<path class="st0" d="M555.3,71.1c-0.4,0.7-1.1,1.1-1.9,1.1h-43.3c-0.8,0-1.5-0.4-1.9-1.1c-0.2-0.3-0.3-0.7-0.3-1.1s0.1-0.8,0.3-1.1
		l21.7-37.5c0.4-0.7,1.1-1.1,1.9-1.1s1.5,0.4,1.9,1.1l21.7,37.5c0.2,0.3,0.3,0.7,0.3,1.1S555.6,70.8,555.3,71.1z"/>
</g>
<g>
	<g>
		<polyline class="st1" points="379.2,244.8 379.2,249.8 374.2,249.8 		"/>
		<line class="st1" x1="364.3" y1="249.8" x2="11.2" y2="249.8"/>
		<polyline class="st1" points="6.2,249.8 1.2,249.8 1.2,244.8 		"/>
		<line class="st1" x1="1.2" y1="235.4" x2="1.2" y2="89.5"/>
		<polyline class="st1" points="1.2,84.8 1.2,79.8 6.2,79.8 		"/>
		<line class="st1" x1="16.2" y1="79.8" x2="369.3" y2="79.8"/>
		<polyline class="st1" points="374.2,79.8 379.2,79.8 379.2,84.8 		"/>
		<line class="st1" x1="379.2" y1="94.2" x2="379.2" y2="240.1"/>
	</g>
</g>
<g>
	<g>
		<polyline class="st1" points="808.8,244.8 808.8,249.8 803.8,249.8 		"/>
		<line class="st1" x1="793.8" y1="249.8" x2="440.7" y2="249.8"/>
		<polyline class="st1" points="435.8,249.8 430.8,249.8 430.8,244.8 		"/>
		<line class="st1" x1="430.8" y1="235.4" x2="430.8" y2="89.5"/>
		<polyline class="st1" points="430.8,84.8 430.8,79.8 435.8,79.8 		"/>
		<line class="st1" x1="445.7" y1="79.8" x2="798.8" y2="79.8"/>
		<polyline class="st1" points="803.8,79.8 808.8,79.8 808.8,84.8 		"/>
		<line class="st1" x1="808.8" y1="94.2" x2="808.8" y2="240.1"/>
	</g>
</g>
<g>
	<rect x="649" y="89.6" class="st2" width="149.5" height="149.5"/>
	<path d="M798.2,89.8v149h-149v-149H798.2 M798.8,89.3h-150v150h150V89.3L798.8,89.3z"/>
</g>
<path class="st0" d="M208.5,189.2c-0.4,0-0.8-0.1-1.1-0.3l-37.5-21.7c-0.7-0.4-1.1-1.1-1.1-1.9c0-0.8,0.4-1.5,1.1-1.9l37.5-21.7
	c0.3-0.2,0.7-0.3,1.1-0.3c0.4,0,0.8,0.1,1.1,0.3c0.7,0.4,1.1,1.1,1.1,1.9v43.3c0,0.8-0.4,1.5-1.1,1.9
	C209.3,189.1,208.9,189.2,208.5,189.2z"/>
<g>
	<path class="st0" d="M601,167.2c0.4,0,0.8-0.1,1.1-0.3l37.5-21.7c0.7-0.4,1.1-1.1,1.1-1.9c0-0.8-0.4-1.5-1.1-1.9l-37.5-21.7
		c-0.3-0.2-0.7-0.3-1.1-0.3c-0.4,0-0.8,0.1-1.1,0.3c-0.7,0.4-1.1,1.1-1.1,1.9v43.3c0,0.8,0.4,1.5,1.1,1.9
		C600.2,167.1,600.6,167.2,601,167.2z"/>
	<path class="st0" d="M638.5,205.2c-0.4,0-0.8-0.1-1.1-0.3l-37.5-21.7c-0.7-0.4-1.1-1.1-1.1-1.9c0-0.8,0.4-1.5,1.1-1.9l37.5-21.7
		c0.3-0.2,0.7-0.3,1.1-0.3c0.4,0,0.8,0.1,1.1,0.3c0.7,0.4,1.1,1.1,1.1,1.9v43.3c0,0.8-0.4,1.5-1.1,1.9
		C639.3,205.1,638.9,205.2,638.5,205.2z"/>
</g>
<g>
	<path class="st0" d="M386,167.2c0.4,0,0.8-0.1,1.1-0.3l37.5-21.7c0.7-0.4,1.1-1.1,1.1-1.9c0-0.8-0.4-1.5-1.1-1.9l-37.5-21.7
		c-0.3-0.2-0.7-0.3-1.1-0.3s-0.8,0.1-1.1,0.3c-0.7,0.4-1.1,1.1-1.1,1.9v43.3c0,0.8,0.4,1.5,1.1,1.9
		C385.2,167.1,385.6,167.2,386,167.2z"/>
	<path class="st0" d="M423.5,205.2c-0.4,0-0.8-0.1-1.1-0.3l-37.5-21.7c-0.7-0.4-1.1-1.1-1.1-1.9c0-0.8,0.4-1.5,1.1-1.9l37.5-21.7
		c0.3-0.2,0.7-0.3,1.1-0.3s0.8,0.1,1.1,0.3c0.7,0.4,1.1,1.1,1.1,1.9v43.3c0,0.8-0.4,1.5-1.1,1.9
		C424.3,205.1,423.9,205.2,423.5,205.2z"/>
</g>
<g>
	<path d="M389.4,11.5v6.8h-3.2V0.9h5.3c1.2,0,2.2,0.1,3,0.4c0.8,0.2,1.5,0.6,2.1,1c0.5,0.4,0.9,1,1.2,1.6c0.3,0.6,0.4,1.3,0.4,2
		c0,0.6-0.1,1.1-0.3,1.7s-0.4,1-0.7,1.4c-0.3,0.4-0.7,0.8-1.2,1.1c-0.5,0.3-1,0.6-1.6,0.8c0.4,0.2,0.8,0.6,1.1,1l4.3,6.4h-2.9
		c-0.3,0-0.5-0.1-0.7-0.2c-0.2-0.1-0.4-0.3-0.5-0.5l-3.6-5.6c-0.1-0.2-0.3-0.4-0.4-0.4c-0.2-0.1-0.4-0.1-0.7-0.1H389.4z M389.4,9.2
		h2c0.6,0,1.1-0.1,1.6-0.2c0.5-0.2,0.8-0.4,1.1-0.6s0.5-0.6,0.7-1c0.1-0.4,0.2-0.8,0.2-1.2c0-0.9-0.3-1.6-0.9-2s-1.5-0.7-2.7-0.7
		h-2.1V9.2z"/>
	<path d="M406.7,5.8c0.8,0,1.5,0.1,2.1,0.4c0.7,0.2,1.2,0.6,1.7,1.1s0.8,1.1,1.1,1.8c0.3,0.7,0.4,1.5,0.4,2.4c0,0.2,0,0.4,0,0.6
		c0,0.1-0.1,0.3-0.1,0.3c-0.1,0.1-0.1,0.1-0.2,0.2c-0.1,0-0.2,0.1-0.3,0.1h-7.6c0.1,1.3,0.4,2.2,1,2.8c0.6,0.6,1.4,0.9,2.4,0.9
		c0.5,0,0.9-0.1,1.2-0.2c0.3-0.1,0.7-0.2,0.9-0.4c0.3-0.1,0.5-0.3,0.7-0.4s0.4-0.2,0.6-0.2c0.1,0,0.2,0,0.3,0.1
		c0.1,0,0.2,0.1,0.2,0.2l0.9,1.1c-0.3,0.4-0.7,0.7-1.1,1c-0.4,0.3-0.8,0.5-1.3,0.6c-0.4,0.2-0.9,0.3-1.4,0.3s-0.9,0.1-1.3,0.1
		c-0.9,0-1.7-0.1-2.4-0.4c-0.7-0.3-1.4-0.7-1.9-1.3s-1-1.2-1.3-2.1c-0.3-0.8-0.5-1.8-0.5-2.9c0-0.8,0.1-1.6,0.4-2.4
		c0.3-0.7,0.7-1.4,1.2-1.9c0.5-0.5,1.1-1,1.9-1.3C404.9,6,405.7,5.8,406.7,5.8z M406.7,7.9c-0.9,0-1.5,0.2-2,0.7
		c-0.5,0.5-0.8,1.2-0.9,2.1h5.6c0-0.4-0.1-0.7-0.2-1.1c-0.1-0.3-0.3-0.6-0.5-0.9c-0.2-0.3-0.5-0.5-0.8-0.6
		C407.5,8,407.2,7.9,406.7,7.9z M410.9,0.8l-3,3.1c-0.2,0.2-0.3,0.3-0.4,0.3c-0.1,0.1-0.3,0.1-0.5,0.1h-1.8l1.7-2.9
		c0.1-0.2,0.3-0.4,0.4-0.5c0.2-0.1,0.4-0.2,0.7-0.2H410.9z"/>
	<path d="M423,8.6c-0.1,0.1-0.2,0.2-0.3,0.3S422.6,9,422.4,9c-0.2,0-0.3,0-0.4-0.1s-0.3-0.2-0.5-0.3c-0.2-0.1-0.4-0.2-0.7-0.3
		c-0.3-0.1-0.6-0.1-1-0.1c-0.5,0-1,0.1-1.4,0.3s-0.7,0.5-1,0.8c-0.3,0.4-0.5,0.8-0.6,1.3c-0.1,0.5-0.2,1.1-0.2,1.7
		c0,0.7,0.1,1.2,0.2,1.8c0.1,0.5,0.3,0.9,0.6,1.3c0.3,0.3,0.6,0.6,1,0.8c0.4,0.2,0.8,0.3,1.3,0.3s0.9-0.1,1.1-0.2
		c0.3-0.1,0.5-0.2,0.7-0.4c0.2-0.1,0.4-0.3,0.5-0.4c0.1-0.1,0.3-0.2,0.5-0.2c0.2,0,0.4,0.1,0.5,0.3l0.9,1.1c-0.3,0.4-0.7,0.7-1.1,1
		c-0.4,0.3-0.8,0.5-1.2,0.6c-0.4,0.2-0.8,0.3-1.3,0.3c-0.4,0.1-0.9,0.1-1.3,0.1c-0.8,0-1.5-0.1-2.1-0.4c-0.7-0.3-1.3-0.7-1.8-1.2
		s-0.9-1.2-1.2-2s-0.4-1.7-0.4-2.7c0-0.9,0.1-1.7,0.4-2.5c0.3-0.8,0.6-1.4,1.1-2c0.5-0.6,1.1-1,1.9-1.3s1.6-0.5,2.6-0.5
		c0.9,0,1.7,0.1,2.4,0.4c0.7,0.3,1.3,0.7,1.9,1.3L423,8.6z"/>
	<path d="M430.9,5.8c0.8,0,1.5,0.1,2.1,0.4c0.7,0.2,1.2,0.6,1.7,1.1s0.8,1.1,1.1,1.8c0.3,0.7,0.4,1.5,0.4,2.4c0,0.2,0,0.4,0,0.6
		c0,0.1-0.1,0.3-0.1,0.3c-0.1,0.1-0.1,0.1-0.2,0.2c-0.1,0-0.2,0.1-0.3,0.1H428c0.1,1.3,0.4,2.2,1,2.8c0.6,0.6,1.4,0.9,2.4,0.9
		c0.5,0,0.9-0.1,1.2-0.2c0.3-0.1,0.7-0.2,0.9-0.4c0.3-0.1,0.5-0.3,0.7-0.4s0.4-0.2,0.6-0.2c0.1,0,0.2,0,0.3,0.1
		c0.1,0,0.2,0.1,0.2,0.2l0.9,1.1c-0.3,0.4-0.7,0.7-1.1,1c-0.4,0.3-0.8,0.5-1.3,0.6c-0.4,0.2-0.9,0.3-1.4,0.3s-0.9,0.1-1.3,0.1
		c-0.9,0-1.7-0.1-2.4-0.4c-0.7-0.3-1.4-0.7-1.9-1.3s-1-1.2-1.3-2.1c-0.3-0.8-0.5-1.8-0.5-2.9c0-0.8,0.1-1.6,0.4-2.4
		c0.3-0.7,0.7-1.4,1.2-1.9c0.5-0.5,1.1-1,1.9-1.3C429.2,6,430,5.8,430.9,5.8z M431,7.9c-0.9,0-1.5,0.2-2,0.7
		c-0.5,0.5-0.8,1.2-0.9,2.1h5.6c0-0.4-0.1-0.7-0.2-1.1c-0.1-0.3-0.3-0.6-0.5-0.9c-0.2-0.3-0.5-0.5-0.8-0.6
		C431.8,8,431.4,7.9,431,7.9z"/>
	<path d="M438.7,22.3V6h1.8c0.2,0,0.4,0,0.5,0.1c0.1,0.1,0.2,0.2,0.3,0.4l0.2,1.1c0.5-0.6,1.1-1,1.7-1.4c0.6-0.4,1.4-0.5,2.3-0.5
		c0.7,0,1.3,0.1,1.8,0.4c0.6,0.3,1,0.7,1.4,1.2c0.4,0.5,0.7,1.2,0.9,2c0.2,0.8,0.3,1.7,0.3,2.7c0,0.9-0.1,1.8-0.4,2.6
		c-0.2,0.8-0.6,1.5-1.1,2c-0.5,0.6-1,1-1.7,1.3c-0.7,0.3-1.4,0.5-2.2,0.5c-0.7,0-1.3-0.1-1.8-0.3c-0.5-0.2-0.9-0.5-1.3-0.9v5H438.7z
		 M444.4,8.1c-0.6,0-1.1,0.1-1.6,0.4c-0.4,0.3-0.8,0.6-1.2,1.1v5.5c0.3,0.4,0.7,0.7,1.1,0.9c0.4,0.2,0.8,0.2,1.3,0.2
		c0.4,0,0.9-0.1,1.2-0.3c0.4-0.2,0.7-0.4,0.9-0.8c0.3-0.3,0.4-0.8,0.6-1.3c0.1-0.5,0.2-1.1,0.2-1.9c0-0.7-0.1-1.3-0.2-1.8
		s-0.3-0.9-0.5-1.2c-0.2-0.3-0.5-0.5-0.8-0.7C445.2,8.2,444.8,8.1,444.4,8.1z"/>
	<path d="M456.3,18.5c-1.1,0-1.9-0.3-2.5-0.9s-0.9-1.4-0.9-2.5V8.2h-1.2c-0.2,0-0.3-0.1-0.4-0.2c-0.1-0.1-0.2-0.3-0.2-0.5V6.4l2-0.3
		l0.6-3.4c0-0.2,0.1-0.3,0.2-0.4c0.1-0.1,0.3-0.1,0.4-0.1h1.5v3.9h3.2v2.1h-3.2v6.7c0,0.4,0.1,0.7,0.3,0.9c0.2,0.2,0.4,0.3,0.8,0.3
		c0.2,0,0.3,0,0.5-0.1c0.1,0,0.2-0.1,0.3-0.1c0.1,0,0.2-0.1,0.2-0.1c0.1,0,0.1-0.1,0.2-0.1c0.1,0,0.2,0,0.2,0.1s0.1,0.1,0.2,0.2
		l0.9,1.4c-0.4,0.4-0.9,0.6-1.5,0.8C457.5,18.4,456.9,18.5,456.3,18.5z"/>
	<path d="M465.1,2.4c0,0.3-0.1,0.5-0.2,0.7c-0.1,0.2-0.2,0.4-0.4,0.6c-0.2,0.2-0.4,0.3-0.6,0.4s-0.5,0.1-0.7,0.1
		c-0.3,0-0.5,0-0.7-0.1c-0.2-0.1-0.4-0.2-0.6-0.4s-0.3-0.4-0.4-0.6c-0.1-0.2-0.2-0.5-0.2-0.7c0-0.3,0-0.5,0.2-0.7
		c0.1-0.2,0.2-0.4,0.4-0.6s0.4-0.3,0.6-0.4c0.2-0.1,0.5-0.1,0.7-0.1c0.3,0,0.5,0,0.7,0.1s0.4,0.2,0.6,0.4c0.2,0.2,0.3,0.4,0.4,0.6
		C465.1,1.9,465.1,2.1,465.1,2.4z M464.7,6v12.3h-3V6H464.7z"/>
	<path d="M473.3,5.8c0.9,0,1.8,0.1,2.5,0.4s1.4,0.7,1.9,1.3s0.9,1.2,1.2,2c0.3,0.8,0.4,1.7,0.4,2.6c0,1-0.1,1.9-0.4,2.6
		c-0.3,0.8-0.7,1.5-1.2,2c-0.5,0.6-1.2,1-1.9,1.3s-1.6,0.4-2.5,0.4s-1.8-0.1-2.5-0.4s-1.4-0.7-1.9-1.3c-0.5-0.6-0.9-1.2-1.2-2
		c-0.3-0.8-0.4-1.7-0.4-2.6c0-1,0.1-1.8,0.4-2.6c0.3-0.8,0.7-1.4,1.2-2c0.5-0.5,1.2-1,1.9-1.3S472.4,5.8,473.3,5.8z M473.3,16.2
		c1,0,1.8-0.3,2.3-1s0.7-1.7,0.7-3c0-1.3-0.2-2.3-0.7-3c-0.5-0.7-1.2-1-2.3-1c-1,0-1.8,0.4-2.3,1c-0.5,0.7-0.7,1.7-0.7,3
		c0,1.3,0.2,2.3,0.7,3C471.5,15.9,472.3,16.2,473.3,16.2z"/>
	<path d="M481.7,18.3V6h1.8c0.4,0,0.6,0.2,0.8,0.5l0.2,1c0.2-0.3,0.5-0.5,0.8-0.7c0.3-0.2,0.6-0.4,0.9-0.5c0.3-0.2,0.6-0.3,1-0.3
		c0.4-0.1,0.7-0.1,1.2-0.1c0.7,0,1.3,0.1,1.8,0.3c0.5,0.2,1,0.5,1.3,1c0.3,0.4,0.6,0.9,0.8,1.5c0.2,0.6,0.3,1.2,0.3,1.9v7.8h-3v-7.8
		c0-0.8-0.2-1.3-0.5-1.7c-0.3-0.4-0.9-0.6-1.6-0.6c-0.5,0-1,0.1-1.4,0.3c-0.4,0.2-0.9,0.5-1.3,0.9v8.9H481.7z"/>
	<path d="M502.6,8.4c-0.1,0.1-0.2,0.2-0.3,0.3c-0.1,0.1-0.2,0.1-0.3,0.1c-0.1,0-0.3,0-0.5-0.1c-0.2-0.1-0.4-0.2-0.6-0.3
		c-0.2-0.1-0.5-0.2-0.7-0.3C500,8,499.7,8,499.3,8c-0.6,0-1,0.1-1.4,0.4c-0.3,0.2-0.5,0.6-0.5,1c0,0.3,0.1,0.5,0.3,0.7
		s0.4,0.3,0.7,0.5c0.3,0.1,0.6,0.3,1,0.4s0.7,0.2,1.1,0.4c0.4,0.1,0.7,0.3,1.1,0.4c0.4,0.2,0.7,0.4,1,0.6s0.5,0.6,0.7,0.9
		c0.2,0.4,0.3,0.8,0.3,1.3c0,0.6-0.1,1.1-0.3,1.6c-0.2,0.5-0.5,0.9-0.9,1.3c-0.4,0.4-0.9,0.6-1.5,0.9c-0.6,0.2-1.3,0.3-2.1,0.3
		c-0.4,0-0.8,0-1.2-0.1c-0.4-0.1-0.8-0.2-1.2-0.3c-0.4-0.1-0.7-0.3-1-0.5c-0.3-0.2-0.6-0.4-0.8-0.6l0.7-1.1c0.1-0.1,0.2-0.2,0.3-0.3
		c0.1-0.1,0.3-0.1,0.5-0.1c0.2,0,0.4,0.1,0.5,0.2s0.4,0.2,0.6,0.3s0.5,0.2,0.8,0.3s0.7,0.2,1.1,0.2c0.4,0,0.7,0,0.9-0.1
		c0.3-0.1,0.5-0.2,0.6-0.3c0.2-0.1,0.3-0.3,0.4-0.5s0.1-0.4,0.1-0.6c0-0.3-0.1-0.5-0.3-0.7s-0.4-0.3-0.7-0.5c-0.3-0.1-0.6-0.3-1-0.4
		c-0.4-0.1-0.7-0.2-1.1-0.4s-0.8-0.3-1.1-0.5c-0.4-0.2-0.7-0.4-1-0.7c-0.3-0.3-0.5-0.6-0.7-1c-0.2-0.4-0.3-0.8-0.3-1.4
		c0-0.5,0.1-1,0.3-1.4s0.5-0.9,0.9-1.2c0.4-0.3,0.9-0.6,1.5-0.8c0.6-0.2,1.2-0.3,2-0.3c0.8,0,1.6,0.1,2.3,0.4
		c0.7,0.3,1.3,0.6,1.7,1.1L502.6,8.4z"/>
	<path d="M506.8,18.3c-0.1,0.2-0.2,0.3-0.3,0.5c-0.1,0.1-0.2,0.2-0.4,0.3c-0.1,0.1-0.3,0.2-0.5,0.2c-0.2,0-0.3,0.1-0.5,0.1H504
		l7-17.9c0.1-0.3,0.3-0.6,0.6-0.8s0.6-0.3,0.9-0.3h1.3L506.8,18.3z"/>
	<path d="M526.2,0.9v2.6h-7.7v4.8h6.1v2.5h-6.1v4.9h7.7v2.6h-10.9V0.9H526.2z"/>
	<path d="M531.8,12l-4-6h2.9c0.2,0,0.4,0,0.5,0.1c0.1,0.1,0.2,0.2,0.3,0.3l2.6,4.1c0-0.1,0.1-0.3,0.1-0.4c0.1-0.1,0.1-0.3,0.2-0.4
		l2.1-3.2c0.1-0.2,0.2-0.3,0.3-0.3C536.8,6,536.9,6,537,6h2.7l-4.1,5.8l4.2,6.5h-2.9c-0.2,0-0.4-0.1-0.5-0.2
		c-0.1-0.1-0.2-0.2-0.3-0.4l-2.6-4.3c-0.1,0.3-0.2,0.5-0.3,0.7l-2.3,3.6c-0.1,0.1-0.2,0.3-0.3,0.4c-0.1,0.1-0.3,0.2-0.5,0.2h-2.7
		L531.8,12z"/>
	<path d="M541.8,22.3V6h1.8c0.2,0,0.4,0,0.5,0.1c0.1,0.1,0.2,0.2,0.3,0.4l0.2,1.1c0.5-0.6,1.1-1,1.7-1.4c0.6-0.4,1.4-0.5,2.3-0.5
		c0.7,0,1.3,0.1,1.8,0.4c0.6,0.3,1,0.7,1.4,1.2c0.4,0.5,0.7,1.2,0.9,2c0.2,0.8,0.3,1.7,0.3,2.7c0,0.9-0.1,1.8-0.4,2.6
		c-0.2,0.8-0.6,1.5-1.1,2c-0.5,0.6-1,1-1.7,1.3c-0.7,0.3-1.4,0.5-2.2,0.5c-0.7,0-1.3-0.1-1.8-0.3c-0.5-0.2-0.9-0.5-1.3-0.9v5H541.8z
		 M547.6,8.1c-0.6,0-1.1,0.1-1.6,0.4c-0.4,0.3-0.8,0.6-1.2,1.1v5.5c0.3,0.4,0.7,0.7,1.1,0.9c0.4,0.2,0.8,0.2,1.3,0.2
		c0.4,0,0.9-0.1,1.2-0.3c0.4-0.2,0.7-0.4,0.9-0.8c0.3-0.3,0.4-0.8,0.6-1.3c0.1-0.5,0.2-1.1,0.2-1.9c0-0.7-0.1-1.3-0.2-1.8
		s-0.3-0.9-0.5-1.2c-0.2-0.3-0.5-0.5-0.8-0.7C548.3,8.2,548,8.1,547.6,8.1z"/>
	<path d="M560.5,5.8c0.8,0,1.5,0.1,2.1,0.4c0.7,0.2,1.2,0.6,1.7,1.1s0.8,1.1,1.1,1.8c0.3,0.7,0.4,1.5,0.4,2.4c0,0.2,0,0.4,0,0.6
		c0,0.1-0.1,0.3-0.1,0.3c-0.1,0.1-0.1,0.1-0.2,0.2c-0.1,0-0.2,0.1-0.3,0.1h-7.6c0.1,1.3,0.4,2.2,1,2.8c0.6,0.6,1.4,0.9,2.4,0.9
		c0.5,0,0.9-0.1,1.2-0.2c0.3-0.1,0.7-0.2,0.9-0.4c0.3-0.1,0.5-0.3,0.7-0.4s0.4-0.2,0.6-0.2c0.1,0,0.2,0,0.3,0.1
		c0.1,0,0.2,0.1,0.2,0.2l0.9,1.1c-0.3,0.4-0.7,0.7-1.1,1c-0.4,0.3-0.8,0.5-1.3,0.6c-0.4,0.2-0.9,0.3-1.4,0.3s-0.9,0.1-1.3,0.1
		c-0.9,0-1.7-0.1-2.4-0.4c-0.7-0.3-1.4-0.7-1.9-1.3s-1-1.2-1.3-2.1c-0.3-0.8-0.5-1.8-0.5-2.9c0-0.8,0.1-1.6,0.4-2.4
		c0.3-0.7,0.7-1.4,1.2-1.9c0.5-0.5,1.1-1,1.9-1.3C558.7,6,559.5,5.8,560.5,5.8z M560.5,7.9c-0.9,0-1.5,0.2-2,0.7
		c-0.5,0.5-0.8,1.2-0.9,2.1h5.6c0-0.4-0.1-0.7-0.2-1.1c-0.1-0.3-0.3-0.6-0.5-0.9c-0.2-0.3-0.5-0.5-0.8-0.6
		C561.3,8,561,7.9,560.5,7.9z M564.7,0.8l-3,3.1c-0.2,0.2-0.3,0.3-0.4,0.3c-0.1,0.1-0.3,0.1-0.5,0.1H559l1.7-2.9
		c0.1-0.2,0.3-0.4,0.4-0.5c0.2-0.1,0.4-0.2,0.7-0.2H564.7z"/>
	<path d="M576.9,18.3c-0.4,0-0.6-0.2-0.8-0.5l-0.2-1.2c-0.3,0.3-0.5,0.5-0.8,0.8c-0.3,0.2-0.6,0.4-0.9,0.6s-0.7,0.3-1,0.4
		s-0.8,0.1-1.2,0.1c-0.7,0-1.3-0.1-1.8-0.4c-0.6-0.3-1-0.7-1.4-1.2c-0.4-0.5-0.7-1.2-0.9-2c-0.2-0.8-0.3-1.7-0.3-2.7
		c0-0.9,0.1-1.8,0.4-2.5c0.2-0.8,0.6-1.5,1.1-2c0.5-0.6,1-1,1.7-1.4c0.6-0.3,1.4-0.5,2.2-0.5c0.7,0,1.3,0.1,1.8,0.3
		c0.5,0.2,0.9,0.5,1.3,0.9V0.5h3v17.8H576.9z M572.9,16.1c0.6,0,1.1-0.1,1.6-0.4c0.4-0.3,0.8-0.6,1.2-1.1V9.1
		c-0.3-0.4-0.7-0.7-1.1-0.9c-0.4-0.2-0.8-0.3-1.3-0.3c-0.4,0-0.9,0.1-1.2,0.3c-0.4,0.2-0.7,0.4-0.9,0.8c-0.3,0.3-0.4,0.8-0.6,1.3
		c-0.1,0.5-0.2,1.1-0.2,1.9c0,0.7,0.1,1.3,0.2,1.8s0.3,0.9,0.5,1.2s0.5,0.5,0.8,0.7C572.2,16.1,572.5,16.1,572.9,16.1z"/>
	<path d="M585.5,2.4c0,0.3-0.1,0.5-0.2,0.7c-0.1,0.2-0.2,0.4-0.4,0.6c-0.2,0.2-0.4,0.3-0.6,0.4s-0.5,0.1-0.7,0.1
		c-0.3,0-0.5,0-0.7-0.1c-0.2-0.1-0.4-0.2-0.6-0.4s-0.3-0.4-0.4-0.6c-0.1-0.2-0.2-0.5-0.2-0.7c0-0.3,0-0.5,0.2-0.7
		c0.1-0.2,0.2-0.4,0.4-0.6s0.4-0.3,0.6-0.4c0.2-0.1,0.5-0.1,0.7-0.1c0.3,0,0.5,0,0.7,0.1s0.4,0.2,0.6,0.4c0.2,0.2,0.3,0.4,0.4,0.6
		C585.4,1.9,585.5,2.1,585.5,2.4z M585,6v12.3h-3V6H585z"/>
	<path d="M592.4,18.5c-1.1,0-1.9-0.3-2.5-0.9s-0.9-1.4-0.9-2.5V8.2h-1.2c-0.2,0-0.3-0.1-0.4-0.2c-0.1-0.1-0.2-0.3-0.2-0.5V6.4l2-0.3
		l0.6-3.4c0-0.2,0.1-0.3,0.2-0.4c0.1-0.1,0.3-0.1,0.4-0.1h1.5v3.9h3.2v2.1h-3.2v6.7c0,0.4,0.1,0.7,0.3,0.9c0.2,0.2,0.4,0.3,0.8,0.3
		c0.2,0,0.3,0,0.5-0.1c0.1,0,0.2-0.1,0.3-0.1c0.1,0,0.2-0.1,0.2-0.1c0.1,0,0.1-0.1,0.2-0.1c0.1,0,0.2,0,0.2,0.1s0.1,0.1,0.2,0.2
		l0.9,1.4c-0.4,0.4-0.9,0.6-1.5,0.8C593.6,18.4,593,18.5,592.4,18.5z"/>
	<path d="M601.3,2.4c0,0.3-0.1,0.5-0.2,0.7c-0.1,0.2-0.2,0.4-0.4,0.6c-0.2,0.2-0.4,0.3-0.6,0.4s-0.5,0.1-0.7,0.1
		c-0.3,0-0.5,0-0.7-0.1c-0.2-0.1-0.4-0.2-0.6-0.4s-0.3-0.4-0.4-0.6c-0.1-0.2-0.2-0.5-0.2-0.7c0-0.3,0-0.5,0.2-0.7
		c0.1-0.2,0.2-0.4,0.4-0.6s0.4-0.3,0.6-0.4c0.2-0.1,0.5-0.1,0.7-0.1c0.3,0,0.5,0,0.7,0.1s0.4,0.2,0.6,0.4c0.2,0.2,0.3,0.4,0.4,0.6
		C601.2,1.9,601.3,2.1,601.3,2.4z M600.8,6v12.3h-3V6H600.8z"/>
	<path d="M609.4,5.8c0.9,0,1.8,0.1,2.5,0.4s1.4,0.7,1.9,1.3s0.9,1.2,1.2,2c0.3,0.8,0.4,1.7,0.4,2.6c0,1-0.1,1.9-0.4,2.6
		c-0.3,0.8-0.7,1.5-1.2,2c-0.5,0.6-1.2,1-1.9,1.3s-1.6,0.4-2.5,0.4s-1.8-0.1-2.5-0.4s-1.4-0.7-1.9-1.3c-0.5-0.6-0.9-1.2-1.2-2
		c-0.3-0.8-0.4-1.7-0.4-2.6c0-1,0.1-1.8,0.4-2.6c0.3-0.8,0.7-1.4,1.2-2c0.5-0.5,1.2-1,1.9-1.3S608.5,5.8,609.4,5.8z M609.4,16.2
		c1,0,1.8-0.3,2.3-1s0.7-1.7,0.7-3c0-1.3-0.2-2.3-0.7-3c-0.5-0.7-1.2-1-2.3-1c-1,0-1.8,0.4-2.3,1c-0.5,0.7-0.7,1.7-0.7,3
		c0,1.3,0.2,2.3,0.7,3C607.6,15.9,608.4,16.2,609.4,16.2z"/>
	<path d="M617.8,18.3V6h1.8c0.4,0,0.6,0.2,0.8,0.5l0.2,1c0.2-0.3,0.5-0.5,0.8-0.7c0.3-0.2,0.6-0.4,0.9-0.5c0.3-0.2,0.6-0.3,1-0.3
		c0.4-0.1,0.7-0.1,1.2-0.1c0.7,0,1.3,0.1,1.8,0.3c0.5,0.2,1,0.5,1.3,1c0.3,0.4,0.6,0.9,0.8,1.5c0.2,0.6,0.3,1.2,0.3,1.9v7.8h-3v-7.8
		c0-0.8-0.2-1.3-0.5-1.7c-0.3-0.4-0.9-0.6-1.6-0.6c-0.5,0-1,0.1-1.4,0.3c-0.4,0.2-0.9,0.5-1.3,0.9v8.9H617.8z"/>
	<path d="M638.8,8.4c-0.1,0.1-0.2,0.2-0.3,0.3c-0.1,0.1-0.2,0.1-0.3,0.1c-0.1,0-0.3,0-0.5-0.1c-0.2-0.1-0.4-0.2-0.6-0.3
		c-0.2-0.1-0.5-0.2-0.7-0.3c-0.3-0.1-0.6-0.1-1-0.1c-0.6,0-1,0.1-1.4,0.4c-0.3,0.2-0.5,0.6-0.5,1c0,0.3,0.1,0.5,0.3,0.7
		s0.4,0.3,0.7,0.5c0.3,0.1,0.6,0.3,1,0.4s0.7,0.2,1.1,0.4c0.4,0.1,0.7,0.3,1.1,0.4c0.4,0.2,0.7,0.4,1,0.6s0.5,0.6,0.7,0.9
		c0.2,0.4,0.3,0.8,0.3,1.3c0,0.6-0.1,1.1-0.3,1.6c-0.2,0.5-0.5,0.9-0.9,1.3c-0.4,0.4-0.9,0.6-1.5,0.9c-0.6,0.2-1.3,0.3-2.1,0.3
		c-0.4,0-0.8,0-1.2-0.1c-0.4-0.1-0.8-0.2-1.2-0.3c-0.4-0.1-0.7-0.3-1-0.5c-0.3-0.2-0.6-0.4-0.8-0.6l0.7-1.1c0.1-0.1,0.2-0.2,0.3-0.3
		c0.1-0.1,0.3-0.1,0.5-0.1c0.2,0,0.4,0.1,0.5,0.2s0.4,0.2,0.6,0.3s0.5,0.2,0.8,0.3s0.7,0.2,1.1,0.2c0.4,0,0.7,0,0.9-0.1
		c0.3-0.1,0.5-0.2,0.6-0.3c0.2-0.1,0.3-0.3,0.4-0.5s0.1-0.4,0.1-0.6c0-0.3-0.1-0.5-0.3-0.7s-0.4-0.3-0.7-0.5c-0.3-0.1-0.6-0.3-1-0.4
		c-0.4-0.1-0.7-0.2-1.1-0.4s-0.8-0.3-1.1-0.5c-0.4-0.2-0.7-0.4-1-0.7c-0.3-0.3-0.5-0.6-0.7-1c-0.2-0.4-0.3-0.8-0.3-1.4
		c0-0.5,0.1-1,0.3-1.4s0.5-0.9,0.9-1.2c0.4-0.3,0.9-0.6,1.5-0.8c0.6-0.2,1.2-0.3,2-0.3c0.8,0,1.6,0.1,2.3,0.4
		c0.7,0.3,1.3,0.6,1.7,1.1L638.8,8.4z"/>
</g>
<path class="st3" d="M722.2,141.4c0-1.5-0.5-2.8-1.6-3.8c-1-1-2.3-1.6-3.8-1.6c-1.5,0-2.8,0.5-3.8,1.6c-1,1.1-1.6,2.3-1.6,3.8
	s0.5,2.8,1.6,3.8s2.3,1.6,3.8,1.6c1.5,0,2.8-0.5,3.8-1.6S722.2,142.9,722.2,141.4z M738.3,152.2c0-0.7-0.3-1.4-0.8-1.9
	c-0.5-0.5-1.2-0.8-1.9-0.8s-1.4,0.3-1.9,0.8c-0.5,0.5-0.8,1.2-0.8,1.9c0,0.7,0.3,1.4,0.8,1.9c0.5,0.5,1.2,0.8,1.9,0.8
	c0.7,0,1.4-0.3,1.9-0.8C738,153.6,738.3,152.9,738.3,152.2z M738.3,130.7c0-0.7-0.3-1.4-0.8-1.9c-0.5-0.5-1.2-0.8-1.9-0.8
	s-1.4,0.3-1.9,0.8c-0.5,0.5-0.8,1.2-0.8,1.9c0,0.7,0.3,1.4,0.8,1.9c0.5,0.5,1.2,0.8,1.9,0.8c0.7,0,1.4-0.3,1.9-0.8
	C738,132.1,738.3,131.4,738.3,130.7z M730.2,139.5v3.9c0,0.1,0,0.3-0.1,0.4c-0.1,0.1-0.2,0.2-0.3,0.2l-3.3,0.5
	c-0.2,0.5-0.4,1-0.7,1.6c0.5,0.7,1.1,1.5,1.9,2.4c0.1,0.2,0.1,0.3,0.1,0.4c0,0.2,0,0.3-0.1,0.4c-0.3,0.4-0.9,1-1.7,1.9
	s-1.4,1.2-1.6,1.2c-0.2,0-0.3,0-0.4-0.1l-2.4-1.9c-0.5,0.3-1.1,0.5-1.6,0.7c-0.2,1.5-0.3,2.6-0.5,3.3c-0.1,0.3-0.3,0.5-0.6,0.5h-3.9
	c-0.2,0-0.3-0.1-0.4-0.2c-0.1-0.1-0.2-0.2-0.2-0.4l-0.5-3.2c-0.5-0.1-1-0.4-1.6-0.7l-2.5,1.9c-0.1,0.1-0.2,0.1-0.4,0.1
	c-0.2,0-0.3-0.1-0.4-0.2c-2-1.9-3-3-3-3.4c0-0.1,0-0.3,0.1-0.4c0.1-0.2,0.4-0.6,0.9-1.1c0.4-0.5,0.8-1,1-1.3
	c-0.3-0.6-0.6-1.2-0.7-1.7l-3.2-0.5c-0.1,0-0.3-0.1-0.4-0.2s-0.1-0.3-0.1-0.4v-3.9c0-0.1,0-0.3,0.1-0.4s0.2-0.2,0.3-0.2l3.3-0.5
	c0.2-0.5,0.4-1,0.7-1.6c-0.5-0.7-1.1-1.5-1.9-2.4c-0.1-0.2-0.1-0.3-0.1-0.4c0-0.2,0-0.3,0.1-0.4c0.3-0.4,0.9-1,1.7-1.9
	c0.8-0.8,1.4-1.2,1.7-1.2c0.2,0,0.3,0,0.4,0.1l2.4,1.9c0.5-0.3,1-0.5,1.6-0.7c0.2-1.5,0.3-2.6,0.5-3.2c0.1-0.3,0.3-0.5,0.6-0.5h3.9
	c0.2,0,0.3,0.1,0.4,0.2c0.1,0.1,0.2,0.2,0.2,0.4l0.5,3.2c0.5,0.1,1,0.4,1.6,0.7l2.5-1.9c0.1-0.1,0.3-0.1,0.4-0.1
	c0.2,0,0.3,0.1,0.4,0.2c2,1.9,3,3,3,3.4c0,0.1,0,0.2-0.1,0.4c-0.2,0.2-0.5,0.6-0.9,1.1c-0.4,0.5-0.7,1-0.9,1.3
	c0.3,0.7,0.6,1.2,0.7,1.7l3.2,0.5c0.1,0,0.3,0.1,0.4,0.2C730.2,139.2,730.2,139.4,730.2,139.5z M743.7,150.7v2.9
	c0,0.2-1,0.4-3.1,0.7c-0.2,0.4-0.4,0.7-0.6,1.1c0.7,1.6,1.1,2.5,1.1,2.9c0,0.1,0,0.1-0.1,0.1c-1.7,1-2.6,1.5-2.6,1.5
	c-0.1,0-0.4-0.3-1-1s-0.9-1.1-1.1-1.4c-0.3,0-0.5,0-0.6,0s-0.4,0-0.6,0c-0.2,0.3-0.6,0.8-1.1,1.4c-0.5,0.7-0.9,1-1,1
	c0,0-0.9-0.5-2.6-1.5c-0.1,0-0.1-0.1-0.1-0.1c0-0.4,0.4-1.3,1.1-2.9c-0.3-0.4-0.5-0.7-0.6-1.1c-2.1-0.2-3.1-0.4-3.1-0.7v-2.9
	c0-0.2,1-0.4,3.1-0.7c0.2-0.4,0.4-0.8,0.6-1.1c-0.7-1.6-1.1-2.5-1.1-2.9c0-0.1,0-0.1,0.1-0.1c0.1,0,0.3-0.2,0.7-0.4
	c0.4-0.3,0.8-0.5,1.2-0.7s0.6-0.3,0.6-0.3c0.1,0,0.4,0.3,1,1c0.5,0.7,0.9,1.1,1.1,1.4c0.3,0,0.5,0,0.6,0s0.4,0,0.6,0
	c0.7-1,1.4-1.8,1.9-2.4l0.1,0c0.1,0,0.9,0.5,2.6,1.5c0.1,0,0.1,0.1,0.1,0.1c0,0.4-0.4,1.3-1.1,2.9c0.2,0.3,0.4,0.7,0.6,1.1
	C742.6,150.3,743.7,150.5,743.7,150.7z M743.7,129.2v2.9c0,0.2-1,0.4-3.1,0.7c-0.2,0.4-0.4,0.7-0.6,1.1c0.7,1.6,1.1,2.5,1.1,2.9
	c0,0.1,0,0.1-0.1,0.1c-1.7,1-2.6,1.5-2.6,1.5c-0.1,0-0.4-0.3-1-1s-0.9-1.1-1.1-1.4c-0.3,0-0.5,0-0.6,0s-0.4,0-0.6,0
	c-0.2,0.3-0.6,0.8-1.1,1.4c-0.5,0.7-0.9,1-1,1c0,0-0.9-0.5-2.6-1.5c-0.1,0-0.1-0.1-0.1-0.1c0-0.4,0.4-1.3,1.1-2.9
	c-0.3-0.4-0.5-0.7-0.6-1.1c-2.1-0.2-3.1-0.4-3.1-0.7v-2.9c0-0.2,1-0.4,3.1-0.7c0.2-0.4,0.4-0.8,0.6-1.1c-0.7-1.6-1.1-2.5-1.1-2.9
	c0-0.1,0-0.1,0.1-0.1c0.1,0,0.3-0.2,0.7-0.4s0.8-0.5,1.2-0.7s0.6-0.3,0.6-0.3c0.1,0,0.4,0.3,1,1c0.5,0.7,0.9,1.1,1.1,1.4
	c0.3,0,0.5,0,0.6,0s0.4,0,0.6,0c0.7-1,1.4-1.8,1.9-2.4l0.1,0c0.1,0,0.9,0.5,2.6,1.5c0.1,0,0.1,0.1,0.1,0.1c0,0.4-0.4,1.3-1.1,2.9
	c0.2,0.3,0.4,0.7,0.6,1.1C742.6,128.8,743.7,129,743.7,129.2z"/>
<g>
	<path d="M673,177.2v5.6h-3v-15.9h5.2c1.1,0,2,0.1,2.8,0.4s1.4,0.6,1.9,1s0.9,1,1.1,1.6c0.2,0.6,0.4,1.3,0.4,2
		c0,0.8-0.1,1.5-0.4,2.1c-0.3,0.6-0.6,1.2-1.2,1.7c-0.5,0.5-1.2,0.8-1.9,1.1c-0.8,0.3-1.7,0.4-2.7,0.4H673z M673,174.9h2.2
		c0.5,0,1-0.1,1.4-0.2s0.7-0.3,1-0.6c0.3-0.3,0.5-0.6,0.6-0.9c0.1-0.4,0.2-0.8,0.2-1.2c0-0.4-0.1-0.8-0.2-1.2
		c-0.1-0.3-0.3-0.6-0.6-0.9c-0.3-0.2-0.6-0.4-1-0.6c-0.4-0.1-0.9-0.2-1.4-0.2H673V174.9z"/>
	<path d="M683.6,182.8v-11.3h1.6c0.3,0,0.5,0.1,0.6,0.2s0.2,0.3,0.2,0.5l0.2,1.4c0.4-0.7,0.9-1.2,1.4-1.7c0.5-0.4,1.2-0.6,1.8-0.6
		c0.6,0,1,0.1,1.4,0.4l-0.4,2c0,0.1-0.1,0.2-0.1,0.3c-0.1,0.1-0.2,0.1-0.3,0.1c-0.1,0-0.3,0-0.5-0.1c-0.2-0.1-0.4-0.1-0.8-0.1
		c-0.6,0-1,0.2-1.5,0.5c-0.4,0.3-0.7,0.8-1,1.4v7H683.6z"/>
	<path d="M697.4,171.3c0.8,0,1.6,0.1,2.3,0.4s1.3,0.7,1.8,1.2c0.5,0.5,0.9,1.1,1.1,1.8s0.4,1.5,0.4,2.4c0,0.9-0.1,1.7-0.4,2.4
		c-0.3,0.7-0.6,1.3-1.1,1.8s-1.1,0.9-1.8,1.2s-1.5,0.4-2.3,0.4s-1.6-0.1-2.3-0.4c-0.7-0.3-1.3-0.7-1.8-1.2s-0.9-1.1-1.1-1.8
		c-0.3-0.7-0.4-1.5-0.4-2.4c0-0.9,0.1-1.7,0.4-2.4c0.3-0.7,0.6-1.3,1.1-1.8c0.5-0.5,1.1-0.9,1.8-1.2
		C695.8,171.5,696.5,171.3,697.4,171.3z M697.4,180.9c0.9,0,1.6-0.3,2.1-0.9s0.7-1.6,0.7-2.8c0-1.2-0.2-2.1-0.7-2.8
		c-0.5-0.6-1.1-1-2.1-1c-1,0-1.7,0.3-2.1,1c-0.5,0.6-0.7,1.6-0.7,2.8c0,1.2,0.2,2.1,0.7,2.8C695.7,180.6,696.4,180.9,697.4,180.9z"
		/>
	<path d="M713,182.8c-0.4,0-0.6-0.2-0.7-0.5l-0.2-1.1c-0.2,0.3-0.5,0.5-0.7,0.7c-0.3,0.2-0.5,0.4-0.8,0.6c-0.3,0.2-0.6,0.3-1,0.4
		c-0.3,0.1-0.7,0.1-1.1,0.1c-0.6,0-1.2-0.1-1.7-0.4c-0.5-0.3-1-0.6-1.3-1.1c-0.4-0.5-0.7-1.1-0.9-1.8c-0.2-0.7-0.3-1.5-0.3-2.5
		c0-0.8,0.1-1.6,0.3-2.3c0.2-0.7,0.6-1.3,1-1.9c0.4-0.5,0.9-0.9,1.5-1.2c0.6-0.3,1.3-0.4,2-0.4c0.6,0,1.2,0.1,1.6,0.3
		s0.8,0.5,1.2,0.8v-6h2.7v16.3H713z M709.4,180.8c0.6,0,1-0.1,1.4-0.4c0.4-0.2,0.8-0.6,1.1-1v-5.1c-0.3-0.4-0.6-0.6-1-0.8
		c-0.4-0.2-0.8-0.2-1.2-0.2c-0.4,0-0.8,0.1-1.1,0.2c-0.3,0.2-0.6,0.4-0.8,0.7c-0.2,0.3-0.4,0.7-0.5,1.2c-0.1,0.5-0.2,1-0.2,1.7
		c0,0.7,0.1,1.2,0.2,1.7c0.1,0.5,0.3,0.8,0.5,1.1c0.2,0.3,0.4,0.5,0.7,0.6C708.7,180.7,709,180.8,709.4,180.8z"/>
	<path d="M720.1,171.5v7.2c0,0.7,0.2,1.2,0.5,1.6c0.3,0.4,0.8,0.6,1.4,0.6c0.5,0,0.9-0.1,1.3-0.3c0.4-0.2,0.8-0.5,1.2-0.9v-8.2h2.7
		v11.3h-1.7c-0.4,0-0.6-0.2-0.7-0.5l-0.2-0.9c-0.2,0.2-0.5,0.4-0.7,0.6c-0.2,0.2-0.5,0.4-0.8,0.5c-0.3,0.1-0.6,0.2-0.9,0.3
		s-0.7,0.1-1.1,0.1c-0.6,0-1.2-0.1-1.6-0.3c-0.5-0.2-0.9-0.5-1.2-0.9c-0.3-0.4-0.6-0.8-0.7-1.4c-0.2-0.5-0.2-1.1-0.2-1.7v-7.2H720.1
		z"/>
	<path d="M738,173.9c-0.1,0.1-0.2,0.2-0.2,0.2c-0.1,0.1-0.2,0.1-0.3,0.1c-0.1,0-0.3,0-0.4-0.1s-0.3-0.2-0.5-0.3
		c-0.2-0.1-0.4-0.2-0.7-0.3c-0.3-0.1-0.6-0.1-0.9-0.1c-0.5,0-0.9,0.1-1.3,0.3c-0.4,0.2-0.7,0.4-0.9,0.7c-0.2,0.3-0.4,0.7-0.5,1.2
		s-0.2,1-0.2,1.6c0,0.6,0.1,1.1,0.2,1.6c0.1,0.5,0.3,0.9,0.6,1.2c0.2,0.3,0.5,0.6,0.9,0.7s0.7,0.2,1.2,0.2s0.8-0.1,1.1-0.2
		s0.5-0.2,0.7-0.4c0.2-0.1,0.3-0.2,0.5-0.4c0.1-0.1,0.3-0.2,0.5-0.2c0.2,0,0.4,0.1,0.5,0.3l0.8,1c-0.3,0.4-0.6,0.6-1,0.9
		s-0.7,0.4-1.1,0.6s-0.8,0.2-1.2,0.3c-0.4,0.1-0.8,0.1-1.2,0.1c-0.7,0-1.4-0.1-2-0.4c-0.6-0.3-1.2-0.6-1.6-1.1
		c-0.5-0.5-0.8-1.1-1.1-1.8s-0.4-1.5-0.4-2.5c0-0.8,0.1-1.6,0.4-2.3s0.6-1.3,1.1-1.8s1-0.9,1.7-1.2c0.7-0.3,1.5-0.4,2.4-0.4
		c0.8,0,1.6,0.1,2.2,0.4s1.2,0.7,1.7,1.2L738,173.9z"/>
	<path d="M744.3,183c-1,0-1.7-0.3-2.3-0.8c-0.5-0.6-0.8-1.3-0.8-2.3v-6.3h-1.1c-0.1,0-0.3,0-0.4-0.1c-0.1-0.1-0.2-0.2-0.2-0.4v-1.1
		l1.8-0.3l0.6-3.1c0-0.1,0.1-0.3,0.2-0.3c0.1-0.1,0.2-0.1,0.4-0.1h1.4v3.6h3v1.9h-3v6.1c0,0.4,0.1,0.6,0.3,0.8
		c0.2,0.2,0.4,0.3,0.7,0.3c0.2,0,0.3,0,0.4-0.1c0.1,0,0.2-0.1,0.3-0.1s0.2-0.1,0.2-0.1c0.1,0,0.1-0.1,0.2-0.1c0.1,0,0.1,0,0.2,0.1
		c0.1,0,0.1,0.1,0.2,0.2l0.8,1.3c-0.4,0.3-0.9,0.6-1.4,0.7S744.9,183,744.3,183z"/>
	<path d="M752.4,168.2c0,0.2,0,0.5-0.1,0.7c-0.1,0.2-0.2,0.4-0.4,0.5c-0.2,0.2-0.3,0.3-0.6,0.4s-0.4,0.1-0.7,0.1
		c-0.2,0-0.5,0-0.7-0.1s-0.4-0.2-0.5-0.4c-0.2-0.2-0.3-0.3-0.4-0.5c-0.1-0.2-0.1-0.4-0.1-0.7c0-0.2,0-0.5,0.1-0.7
		c0.1-0.2,0.2-0.4,0.4-0.5c0.2-0.2,0.3-0.3,0.5-0.4s0.4-0.1,0.7-0.1c0.2,0,0.5,0,0.7,0.1s0.4,0.2,0.6,0.4c0.2,0.2,0.3,0.3,0.4,0.5
		C752.4,167.8,752.4,168,752.4,168.2z M752,171.5v11.3h-2.7v-11.3H752z"/>
	<path d="M759.9,171.3c0.8,0,1.6,0.1,2.3,0.4s1.3,0.7,1.8,1.2c0.5,0.5,0.9,1.1,1.1,1.8c0.3,0.7,0.4,1.5,0.4,2.4
		c0,0.9-0.1,1.7-0.4,2.4c-0.3,0.7-0.6,1.3-1.1,1.8c-0.5,0.5-1.1,0.9-1.8,1.2s-1.5,0.4-2.3,0.4c-0.8,0-1.6-0.1-2.3-0.4
		s-1.3-0.7-1.8-1.2c-0.5-0.5-0.9-1.1-1.1-1.8c-0.3-0.7-0.4-1.5-0.4-2.4c0-0.9,0.1-1.7,0.4-2.4s0.6-1.3,1.1-1.8
		c0.5-0.5,1.1-0.9,1.8-1.2S759.1,171.3,759.9,171.3z M759.9,180.9c0.9,0,1.6-0.3,2.1-0.9s0.7-1.6,0.7-2.8c0-1.2-0.2-2.1-0.7-2.8
		c-0.5-0.6-1.1-1-2.1-1c-1,0-1.7,0.3-2.1,1c-0.5,0.6-0.7,1.6-0.7,2.8c0,1.2,0.2,2.1,0.7,2.8C758.2,180.6,758.9,180.9,759.9,180.9z"
		/>
	<path d="M767.6,182.8v-11.3h1.7c0.4,0,0.6,0.2,0.7,0.5l0.2,0.9c0.2-0.2,0.5-0.4,0.7-0.6s0.5-0.4,0.8-0.5c0.3-0.1,0.6-0.2,0.9-0.3
		c0.3-0.1,0.7-0.1,1.1-0.1c0.6,0,1.2,0.1,1.6,0.3s0.9,0.5,1.2,0.9s0.6,0.8,0.7,1.4c0.2,0.5,0.2,1.1,0.2,1.7v7.2h-2.7v-7.2
		c0-0.7-0.2-1.2-0.5-1.6c-0.3-0.4-0.8-0.6-1.4-0.6c-0.5,0-0.9,0.1-1.3,0.3s-0.8,0.5-1.2,0.9v8.2H767.6z"/>
	<path d="M654.2,202.3c0,1.5,0.2,3,0.5,4.5s0.9,2.8,1.6,4.1c0.1,0.1,0.1,0.2,0.1,0.3c0,0.1,0,0.2,0,0.2c0,0.1,0,0.3-0.1,0.4
		c-0.1,0.1-0.2,0.2-0.3,0.2l-1.2,0.7c-0.5-0.8-1-1.7-1.4-2.5c-0.4-0.8-0.7-1.7-0.9-2.6c-0.2-0.9-0.4-1.7-0.5-2.6
		c-0.1-0.9-0.2-1.8-0.2-2.7s0.1-1.8,0.2-2.7c0.1-0.9,0.3-1.8,0.5-2.6c0.2-0.9,0.6-1.7,0.9-2.5c0.4-0.8,0.8-1.7,1.4-2.5l1.2,0.7
		c0.1,0.1,0.2,0.1,0.3,0.2c0.1,0.1,0.1,0.2,0.1,0.3c0,0.1,0,0.3-0.1,0.5c-0.7,1.3-1.2,2.7-1.6,4.1S654.2,200.8,654.2,202.3z"/>
	<path d="M662,194.6c0,0.2,0,0.5-0.1,0.7c-0.1,0.2-0.2,0.4-0.4,0.5c-0.2,0.2-0.3,0.3-0.6,0.4c-0.2,0.1-0.4,0.1-0.7,0.1
		c-0.2,0-0.5,0-0.7-0.1s-0.4-0.2-0.5-0.4c-0.2-0.2-0.3-0.3-0.4-0.5c-0.1-0.2-0.1-0.4-0.1-0.7c0-0.2,0-0.5,0.1-0.7s0.2-0.4,0.4-0.5
		c0.2-0.2,0.3-0.3,0.5-0.4s0.4-0.1,0.7-0.1c0.2,0,0.5,0,0.7,0.1c0.2,0.1,0.4,0.2,0.6,0.4c0.2,0.2,0.3,0.3,0.4,0.5
		S662,194.4,662,194.6z M661.6,197.9v11.3h-2.7v-11.3H661.6z"/>
	<path d="M664.7,209.2v-11.3h1.7c0.4,0,0.6,0.2,0.7,0.5l0.2,0.9c0.2-0.2,0.5-0.4,0.7-0.6c0.3-0.2,0.5-0.4,0.8-0.5
		c0.3-0.1,0.6-0.2,0.9-0.3c0.3-0.1,0.7-0.1,1.1-0.1c0.6,0,1.2,0.1,1.6,0.3c0.5,0.2,0.9,0.5,1.2,0.9c0.3,0.4,0.6,0.8,0.7,1.4
		s0.2,1.1,0.2,1.7v7.2h-2.7V202c0-0.7-0.2-1.2-0.5-1.6c-0.3-0.4-0.8-0.6-1.4-0.6c-0.5,0-0.9,0.1-1.3,0.3c-0.4,0.2-0.8,0.5-1.2,0.9
		v8.2H664.7z"/>
	<path d="M680.9,209.4c-1,0-1.7-0.3-2.3-0.8c-0.5-0.6-0.8-1.3-0.8-2.3v-6.3h-1.1c-0.1,0-0.3,0-0.4-0.1s-0.2-0.2-0.2-0.4v-1.1
		l1.8-0.3l0.6-3.1c0-0.1,0.1-0.3,0.2-0.3c0.1-0.1,0.2-0.1,0.4-0.1h1.4v3.6h3v1.9h-3v6.1c0,0.4,0.1,0.6,0.3,0.8
		c0.2,0.2,0.4,0.3,0.7,0.3c0.2,0,0.3,0,0.4-0.1c0.1,0,0.2-0.1,0.3-0.1c0.1,0,0.2-0.1,0.2-0.1c0.1,0,0.1-0.1,0.2-0.1
		c0.1,0,0.1,0,0.2,0.1s0.1,0.1,0.2,0.2l0.8,1.3c-0.4,0.3-0.9,0.6-1.4,0.7C682,209.3,681.4,209.4,680.9,209.4z"/>
	<path d="M690.4,197.7c0.7,0,1.4,0.1,2,0.3c0.6,0.2,1.1,0.6,1.5,1s0.8,1,1,1.6c0.2,0.6,0.4,1.4,0.4,2.2c0,0.2,0,0.4,0,0.5
		s-0.1,0.2-0.1,0.3c0,0.1-0.1,0.1-0.2,0.2c-0.1,0-0.2,0-0.3,0h-7c0.1,1.2,0.4,2,0.9,2.6c0.5,0.5,1.3,0.8,2.2,0.8
		c0.4,0,0.8-0.1,1.1-0.2c0.3-0.1,0.6-0.2,0.8-0.3s0.4-0.2,0.6-0.3s0.4-0.2,0.5-0.2c0.1,0,0.2,0,0.3,0.1c0.1,0,0.2,0.1,0.2,0.2l0.8,1
		c-0.3,0.4-0.6,0.6-1,0.9c-0.4,0.2-0.8,0.4-1.2,0.6c-0.4,0.1-0.8,0.2-1.2,0.3c-0.4,0.1-0.8,0.1-1.2,0.1c-0.8,0-1.5-0.1-2.2-0.4
		c-0.7-0.3-1.3-0.6-1.8-1.2s-0.9-1.1-1.2-1.9c-0.3-0.8-0.4-1.6-0.4-2.6c0-0.8,0.1-1.5,0.4-2.2c0.2-0.7,0.6-1.3,1.1-1.8
		c0.5-0.5,1-0.9,1.7-1.2C688.8,197.9,689.5,197.7,690.4,197.7z M690.4,199.7c-0.8,0-1.4,0.2-1.9,0.7c-0.4,0.4-0.7,1.1-0.9,1.9h5.1
		c0-0.4,0-0.7-0.1-1c-0.1-0.3-0.2-0.6-0.4-0.8c-0.2-0.2-0.4-0.4-0.7-0.6C691.2,199.8,690.8,199.7,690.4,199.7z"/>
	<path d="M697.5,209.2v-11.3h1.6c0.3,0,0.5,0.1,0.6,0.2c0.1,0.1,0.2,0.3,0.2,0.5l0.2,1.4c0.4-0.7,0.9-1.2,1.4-1.7s1.2-0.6,1.8-0.6
		c0.6,0,1,0.1,1.4,0.4l-0.4,2c0,0.1-0.1,0.2-0.1,0.3c-0.1,0.1-0.2,0.1-0.3,0.1c-0.1,0-0.3,0-0.5-0.1c-0.2-0.1-0.4-0.1-0.8-0.1
		c-0.6,0-1,0.2-1.5,0.5c-0.4,0.3-0.7,0.8-1,1.4v7H697.5z"/>
	<path d="M712.1,209.2h-2.5l-4.5-11.3h2.3c0.2,0,0.4,0,0.5,0.1c0.1,0.1,0.2,0.2,0.3,0.4l2.2,6c0.1,0.4,0.2,0.7,0.3,1
		c0.1,0.3,0.2,0.7,0.2,1c0.1-0.3,0.1-0.7,0.2-1c0.1-0.3,0.2-0.7,0.3-1l2.2-6c0.1-0.1,0.1-0.3,0.3-0.4c0.1-0.1,0.3-0.1,0.5-0.1h2.1
		L712.1,209.2z"/>
	<path d="M722.5,197.7c0.7,0,1.4,0.1,2,0.3c0.6,0.2,1.1,0.6,1.5,1s0.8,1,1,1.6c0.2,0.6,0.4,1.4,0.4,2.2c0,0.2,0,0.4,0,0.5
		s-0.1,0.2-0.1,0.3c0,0.1-0.1,0.1-0.2,0.2c-0.1,0-0.2,0-0.3,0h-7c0.1,1.2,0.4,2,0.9,2.6c0.5,0.5,1.3,0.8,2.2,0.8
		c0.4,0,0.8-0.1,1.1-0.2c0.3-0.1,0.6-0.2,0.8-0.3s0.4-0.2,0.6-0.3s0.4-0.2,0.5-0.2c0.1,0,0.2,0,0.3,0.1c0.1,0,0.2,0.1,0.2,0.2l0.8,1
		c-0.3,0.4-0.6,0.6-1,0.9c-0.4,0.2-0.8,0.4-1.2,0.6c-0.4,0.1-0.8,0.2-1.2,0.3c-0.4,0.1-0.8,0.1-1.2,0.1c-0.8,0-1.5-0.1-2.2-0.4
		c-0.7-0.3-1.3-0.6-1.8-1.2s-0.9-1.1-1.2-1.9c-0.3-0.8-0.4-1.6-0.4-2.6c0-0.8,0.1-1.5,0.4-2.2c0.2-0.7,0.6-1.3,1.1-1.8
		c0.5-0.5,1-0.9,1.7-1.2C720.9,197.9,721.6,197.7,722.5,197.7z M722.5,199.7c-0.8,0-1.4,0.2-1.9,0.7c-0.4,0.4-0.7,1.1-0.9,1.9h5.1
		c0-0.4,0-0.7-0.1-1c-0.1-0.3-0.2-0.6-0.4-0.8c-0.2-0.2-0.4-0.4-0.7-0.6C723.3,199.8,722.9,199.7,722.5,199.7z"/>
	<path d="M729.6,209.2v-11.3h1.7c0.4,0,0.6,0.2,0.7,0.5l0.2,0.9c0.2-0.2,0.5-0.4,0.7-0.6c0.3-0.2,0.5-0.4,0.8-0.5
		c0.3-0.1,0.6-0.2,0.9-0.3s0.7-0.1,1.1-0.1c0.6,0,1.2,0.1,1.6,0.3s0.9,0.5,1.2,0.9c0.3,0.4,0.6,0.8,0.7,1.4s0.2,1.1,0.2,1.7v7.2
		h-2.7V202c0-0.7-0.2-1.2-0.5-1.6c-0.3-0.4-0.8-0.6-1.4-0.6c-0.5,0-0.9,0.1-1.3,0.3s-0.8,0.5-1.2,0.9v8.2H729.6z"/>
	<path d="M745.8,209.4c-1,0-1.7-0.3-2.3-0.8c-0.5-0.6-0.8-1.3-0.8-2.3v-6.3h-1.1c-0.1,0-0.3,0-0.4-0.1c-0.1-0.1-0.2-0.2-0.2-0.4
		v-1.1l1.8-0.3l0.6-3.1c0-0.1,0.1-0.3,0.2-0.3c0.1-0.1,0.2-0.1,0.4-0.1h1.4v3.6h3v1.9h-3v6.1c0,0.4,0.1,0.6,0.3,0.8
		c0.2,0.2,0.4,0.3,0.7,0.3c0.2,0,0.3,0,0.4-0.1c0.1,0,0.2-0.1,0.3-0.1c0.1,0,0.2-0.1,0.2-0.1c0.1,0,0.1-0.1,0.2-0.1
		c0.1,0,0.1,0,0.2,0.1c0.1,0,0.1,0.1,0.2,0.2l0.8,1.3c-0.4,0.3-0.9,0.6-1.4,0.7C746.9,209.3,746.3,209.4,745.8,209.4z"/>
	<path d="M753.9,194.6c0,0.2,0,0.5-0.1,0.7c-0.1,0.2-0.2,0.4-0.4,0.5c-0.2,0.2-0.3,0.3-0.6,0.4s-0.4,0.1-0.7,0.1
		c-0.2,0-0.5,0-0.7-0.1s-0.4-0.2-0.5-0.4c-0.2-0.2-0.3-0.3-0.4-0.5c-0.1-0.2-0.1-0.4-0.1-0.7c0-0.2,0-0.5,0.1-0.7s0.2-0.4,0.4-0.5
		c0.2-0.2,0.3-0.3,0.5-0.4s0.4-0.1,0.7-0.1c0.2,0,0.5,0,0.7,0.1s0.4,0.2,0.6,0.4c0.2,0.2,0.3,0.3,0.4,0.5
		C753.9,194.2,753.9,194.4,753.9,194.6z M753.5,197.9v11.3h-2.7v-11.3H753.5z"/>
	<path d="M761.4,197.7c0.8,0,1.6,0.1,2.3,0.4c0.7,0.3,1.3,0.7,1.8,1.2c0.5,0.5,0.9,1.1,1.1,1.8c0.3,0.7,0.4,1.5,0.4,2.4
		c0,0.9-0.1,1.7-0.4,2.4c-0.3,0.7-0.6,1.3-1.1,1.8c-0.5,0.5-1.1,0.9-1.8,1.2s-1.5,0.4-2.3,0.4c-0.8,0-1.6-0.1-2.3-0.4
		s-1.3-0.7-1.8-1.2c-0.5-0.5-0.9-1.1-1.1-1.8c-0.3-0.7-0.4-1.5-0.4-2.4c0-0.9,0.1-1.7,0.4-2.4s0.6-1.3,1.1-1.8
		c0.5-0.5,1.1-0.9,1.8-1.2C759.8,197.9,760.5,197.7,761.4,197.7z M761.4,207.3c0.9,0,1.6-0.3,2.1-0.9s0.7-1.6,0.7-2.8
		s-0.2-2.1-0.7-2.8c-0.5-0.6-1.1-1-2.1-1c-1,0-1.7,0.3-2.1,1c-0.5,0.6-0.7,1.6-0.7,2.8s0.2,2.1,0.7,2.8
		C759.7,207,760.4,207.3,761.4,207.3z"/>
	<path d="M769.1,209.2v-11.3h1.7c0.4,0,0.6,0.2,0.7,0.5l0.2,0.9c0.2-0.2,0.5-0.4,0.7-0.6c0.3-0.2,0.5-0.4,0.8-0.5
		c0.3-0.1,0.6-0.2,0.9-0.3c0.3-0.1,0.7-0.1,1.1-0.1c0.6,0,1.2,0.1,1.6,0.3s0.9,0.5,1.2,0.9c0.3,0.4,0.6,0.8,0.7,1.4s0.2,1.1,0.2,1.7
		v7.2h-2.7V202c0-0.7-0.2-1.2-0.5-1.6c-0.3-0.4-0.8-0.6-1.4-0.6c-0.5,0-0.9,0.1-1.3,0.3s-0.8,0.5-1.2,0.9v8.2H769.1z"/>
	<path d="M788.3,200.1c-0.1,0.1-0.2,0.2-0.2,0.2s-0.2,0.1-0.3,0.1c-0.1,0-0.3,0-0.4-0.1c-0.2-0.1-0.3-0.2-0.5-0.2s-0.4-0.2-0.7-0.2
		c-0.3-0.1-0.6-0.1-0.9-0.1c-0.5,0-1,0.1-1.3,0.3c-0.3,0.2-0.5,0.5-0.5,0.9c0,0.2,0.1,0.4,0.2,0.6c0.2,0.2,0.4,0.3,0.6,0.4
		c0.3,0.1,0.6,0.2,0.9,0.3s0.7,0.2,1,0.3s0.7,0.2,1,0.4s0.6,0.3,0.9,0.6c0.3,0.2,0.5,0.5,0.6,0.8c0.2,0.3,0.2,0.7,0.2,1.2
		c0,0.5-0.1,1-0.3,1.5c-0.2,0.5-0.5,0.9-0.9,1.2c-0.4,0.3-0.9,0.6-1.4,0.8c-0.6,0.2-1.2,0.3-1.9,0.3c-0.4,0-0.8,0-1.1-0.1
		c-0.4-0.1-0.7-0.2-1.1-0.3c-0.3-0.1-0.7-0.3-0.9-0.4c-0.3-0.2-0.5-0.4-0.8-0.6l0.6-1c0.1-0.1,0.2-0.2,0.3-0.3
		c0.1-0.1,0.2-0.1,0.4-0.1s0.3,0,0.5,0.1s0.3,0.2,0.5,0.3s0.4,0.2,0.7,0.3c0.3,0.1,0.6,0.1,1,0.1c0.3,0,0.6,0,0.8-0.1
		c0.2-0.1,0.4-0.2,0.6-0.3c0.2-0.1,0.3-0.3,0.3-0.4c0.1-0.2,0.1-0.3,0.1-0.5c0-0.3-0.1-0.5-0.2-0.6c-0.2-0.2-0.4-0.3-0.6-0.4
		c-0.3-0.1-0.6-0.2-0.9-0.3c-0.3-0.1-0.7-0.2-1-0.3s-0.7-0.3-1-0.4c-0.3-0.2-0.6-0.4-0.9-0.6c-0.3-0.2-0.5-0.5-0.6-0.9
		c-0.2-0.4-0.2-0.8-0.2-1.3c0-0.5,0.1-0.9,0.3-1.3c0.2-0.4,0.5-0.8,0.8-1.1c0.4-0.3,0.8-0.6,1.3-0.7c0.5-0.2,1.1-0.3,1.8-0.3
		c0.8,0,1.5,0.1,2.1,0.4c0.6,0.3,1.2,0.6,1.6,1L788.3,200.1z"/>
	<path d="M792.8,202.3c0-1.5-0.2-3-0.5-4.5c-0.4-1.5-0.9-2.8-1.6-4.1c-0.1-0.2-0.1-0.4-0.1-0.5c0-0.1,0-0.3,0.1-0.3s0.2-0.2,0.3-0.2
		l1.2-0.7c0.5,0.8,1,1.7,1.4,2.5s0.7,1.7,0.9,2.5c0.2,0.9,0.4,1.7,0.5,2.6c0.1,0.9,0.2,1.8,0.2,2.7s-0.1,1.8-0.2,2.7
		c-0.1,0.9-0.3,1.8-0.5,2.6c-0.2,0.9-0.6,1.7-0.9,2.6c-0.4,0.8-0.8,1.7-1.4,2.5l-1.2-0.7c-0.1-0.1-0.2-0.1-0.3-0.2
		c-0.1-0.1-0.1-0.2-0.1-0.4c0-0.1,0-0.1,0-0.2c0-0.1,0.1-0.2,0.1-0.3c0.7-1.3,1.2-2.7,1.6-4.1C792.6,205.3,792.8,203.8,792.8,202.3z
		"/>
</g>
<g>
	<rect x="441.2" y="90.4" class="st2" width="149.5" height="149.5"/>
	<path d="M590.4,90.6v149h-149v-149H590.4 M591,90.1H441v150h150V90.1L591,90.1z"/>
</g>
<g>
	<path d="M494,170.2c-0.1,0.2-0.2,0.3-0.3,0.3c-0.1,0.1-0.2,0.1-0.4,0.1c-0.1,0-0.3-0.1-0.5-0.2s-0.4-0.2-0.6-0.4
		c-0.2-0.1-0.5-0.3-0.9-0.4c-0.3-0.1-0.7-0.2-1.2-0.2c-0.4,0-0.8,0-1.1,0.1c-0.3,0.1-0.6,0.2-0.8,0.4c-0.2,0.2-0.4,0.4-0.5,0.6
		c-0.1,0.2-0.2,0.5-0.2,0.8c0,0.4,0.1,0.7,0.3,0.9c0.2,0.2,0.5,0.5,0.8,0.6c0.3,0.2,0.7,0.3,1.2,0.5s0.9,0.3,1.3,0.4
		c0.5,0.2,0.9,0.3,1.3,0.6c0.4,0.2,0.8,0.5,1.2,0.8c0.3,0.3,0.6,0.7,0.8,1.2s0.3,1,0.3,1.7s-0.1,1.4-0.4,2s-0.6,1.2-1.1,1.6
		c-0.5,0.5-1.1,0.8-1.7,1.1c-0.7,0.3-1.5,0.4-2.3,0.4c-0.5,0-1,0-1.5-0.1s-1-0.2-1.4-0.4c-0.5-0.2-0.9-0.4-1.3-0.7s-0.7-0.5-1.1-0.9
		l0.9-1.4c0.1-0.1,0.2-0.2,0.3-0.3s0.2-0.1,0.4-0.1c0.2,0,0.4,0.1,0.6,0.2c0.2,0.2,0.5,0.3,0.8,0.5s0.6,0.4,1,0.5
		c0.4,0.2,0.9,0.2,1.4,0.2c0.8,0,1.5-0.2,2-0.6s0.7-1,0.7-1.7c0-0.4-0.1-0.8-0.3-1c-0.2-0.3-0.5-0.5-0.8-0.7s-0.7-0.3-1.2-0.5
		s-0.9-0.3-1.3-0.4c-0.5-0.1-0.9-0.3-1.3-0.5s-0.8-0.5-1.2-0.8c-0.3-0.3-0.6-0.7-0.8-1.2s-0.3-1.1-0.3-1.8c0-0.6,0.1-1.1,0.3-1.7
		c0.2-0.6,0.6-1,1-1.5c0.4-0.4,1-0.8,1.6-1c0.6-0.3,1.4-0.4,2.2-0.4c0.9,0,1.8,0.1,2.6,0.4c0.8,0.3,1.5,0.7,2,1.2L494,170.2z"/>
	<path d="M500.9,183.4c-1,0-1.7-0.3-2.3-0.8c-0.5-0.6-0.8-1.3-0.8-2.3V174h-1.1c-0.1,0-0.3,0-0.4-0.1s-0.2-0.2-0.2-0.4v-1.1l1.8-0.3
		l0.6-3.1c0-0.1,0.1-0.3,0.2-0.3c0.1-0.1,0.2-0.1,0.4-0.1h1.4v3.6h3v1.9h-3v6.1c0,0.4,0.1,0.6,0.3,0.8c0.2,0.2,0.4,0.3,0.7,0.3
		c0.2,0,0.3,0,0.4-0.1c0.1,0,0.2-0.1,0.3-0.1c0.1,0,0.2-0.1,0.2-0.1c0.1,0,0.1-0.1,0.2-0.1s0.1,0,0.2,0.1c0.1,0,0.1,0.1,0.2,0.2
		l0.8,1.3c-0.4,0.3-0.9,0.6-1.4,0.7C502,183.3,501.4,183.4,500.9,183.4z"/>
	<path d="M510.5,171.7c0.8,0,1.6,0.1,2.3,0.4c0.7,0.3,1.3,0.7,1.8,1.2s0.9,1.1,1.1,1.8c0.3,0.7,0.4,1.5,0.4,2.4s-0.1,1.7-0.4,2.4
		s-0.6,1.3-1.1,1.8s-1.1,0.9-1.8,1.2c-0.7,0.3-1.4,0.4-2.3,0.4s-1.6-0.1-2.3-0.4c-0.7-0.3-1.3-0.7-1.8-1.2s-0.9-1.1-1.1-1.8
		c-0.3-0.7-0.4-1.5-0.4-2.4s0.1-1.7,0.4-2.4s0.6-1.3,1.1-1.8s1.1-0.9,1.8-1.2C508.9,171.9,509.7,171.7,510.5,171.7z M510.5,181.3
		c0.9,0,1.6-0.3,2.1-0.9c0.5-0.6,0.7-1.6,0.7-2.8s-0.2-2.1-0.7-2.8c-0.5-0.6-1.1-1-2.1-1s-1.7,0.3-2.1,1c-0.5,0.6-0.7,1.6-0.7,2.8
		s0.2,2.1,0.7,2.8C508.8,180.9,509.6,181.3,510.5,181.3z"/>
	<path d="M526.1,174.3c-0.1,0.1-0.2,0.2-0.2,0.2c-0.1,0.1-0.2,0.1-0.3,0.1s-0.3,0-0.4-0.1s-0.3-0.2-0.5-0.3
		c-0.2-0.1-0.4-0.2-0.7-0.3c-0.3-0.1-0.6-0.1-0.9-0.1c-0.5,0-0.9,0.1-1.3,0.3c-0.4,0.2-0.7,0.4-0.9,0.7c-0.2,0.3-0.4,0.7-0.5,1.2
		s-0.2,1-0.2,1.6s0.1,1.1,0.2,1.6c0.1,0.5,0.3,0.9,0.6,1.2c0.3,0.3,0.5,0.6,0.9,0.7c0.4,0.1,0.7,0.2,1.2,0.2s0.8-0.1,1-0.2
		c0.2-0.1,0.5-0.2,0.7-0.4c0.2-0.1,0.3-0.2,0.5-0.4c0.1-0.1,0.3-0.2,0.5-0.2c0.2,0,0.4,0.1,0.5,0.3l0.8,1c-0.3,0.4-0.6,0.6-1,0.9
		s-0.7,0.4-1.1,0.6c-0.4,0.1-0.8,0.2-1.2,0.3s-0.8,0.1-1.2,0.1c-0.7,0-1.4-0.1-2-0.4c-0.6-0.3-1.2-0.6-1.6-1.1
		c-0.5-0.5-0.8-1.1-1.1-1.8c-0.3-0.7-0.4-1.5-0.4-2.5c0-0.8,0.1-1.6,0.4-2.3c0.2-0.7,0.6-1.3,1.1-1.8s1-0.9,1.7-1.2
		c0.7-0.3,1.5-0.4,2.4-0.4c0.8,0,1.6,0.1,2.2,0.4c0.6,0.3,1.2,0.7,1.7,1.2L526.1,174.3z"/>
	<path d="M531.4,166.8v9.4h0.5c0.2,0,0.3,0,0.4-0.1s0.2-0.1,0.3-0.3l2.8-3.5c0.1-0.1,0.3-0.3,0.4-0.3c0.1-0.1,0.3-0.1,0.5-0.1h2.5
		l-3.5,4.2c-0.1,0.2-0.3,0.3-0.4,0.4c-0.1,0.1-0.3,0.2-0.4,0.3c0.2,0.1,0.3,0.2,0.4,0.4c0.1,0.1,0.2,0.3,0.4,0.5l3.8,5.5h-2.4
		c-0.2,0-0.4,0-0.5-0.1s-0.3-0.2-0.4-0.4l-2.9-4.3c-0.1-0.2-0.2-0.3-0.3-0.3c-0.1-0.1-0.3-0.1-0.5-0.1h-0.6v5.2h-2.8v-16.4H531.4
		L531.4,166.8z"/>
	<path d="M547.5,174.1c-0.1,0.1-0.2,0.2-0.2,0.2c-0.1,0-0.2,0.1-0.3,0.1s-0.3,0-0.4-0.1c-0.1-0.1-0.3-0.2-0.5-0.2
		c-0.2-0.1-0.4-0.2-0.7-0.2c-0.3-0.1-0.6-0.1-0.9-0.1c-0.5,0-1,0.1-1.3,0.3c-0.3,0.2-0.5,0.5-0.5,0.9c0,0.2,0.1,0.4,0.2,0.6
		c0.2,0.2,0.4,0.3,0.6,0.4c0.3,0.1,0.6,0.2,0.9,0.3c0.3,0.1,0.7,0.2,1,0.3c0.3,0.1,0.7,0.3,1,0.4c0.3,0.1,0.6,0.3,0.9,0.6
		c0.3,0.2,0.5,0.5,0.6,0.8c0.2,0.3,0.2,0.7,0.2,1.2s-0.1,1-0.3,1.5c-0.2,0.5-0.5,0.9-0.9,1.2s-0.9,0.6-1.4,0.8
		c-0.6,0.2-1.2,0.3-1.9,0.3c-0.4,0-0.8,0-1.1-0.1c-0.4-0.1-0.7-0.2-1.1-0.3c-0.3-0.1-0.7-0.3-0.9-0.4c-0.3-0.2-0.5-0.4-0.8-0.5
		l0.6-1c0.1-0.1,0.2-0.2,0.3-0.3s0.2-0.1,0.4-0.1c0.2,0,0.3,0,0.5,0.1c0.2,0.1,0.3,0.2,0.5,0.3c0.2,0.1,0.4,0.2,0.7,0.3
		c0.3,0.1,0.6,0.1,1,0.1c0.3,0,0.6,0,0.8-0.1c0.2-0.1,0.4-0.2,0.6-0.3c0.1-0.1,0.3-0.3,0.3-0.4c0-0.1,0.1-0.3,0.1-0.5
		c0-0.3-0.1-0.5-0.2-0.6c-0.2-0.2-0.4-0.3-0.6-0.4c-0.3-0.1-0.6-0.2-0.9-0.3s-0.7-0.2-1-0.3c-0.3-0.1-0.7-0.3-1-0.4
		c-0.3-0.1-0.6-0.4-0.9-0.6c-0.3-0.2-0.5-0.5-0.6-0.9c-0.2-0.4-0.2-0.8-0.2-1.3s0.1-0.9,0.3-1.3c0.2-0.4,0.5-0.8,0.8-1.1
		c0.4-0.3,0.8-0.6,1.3-0.7c0.5-0.1,1.1-0.3,1.8-0.3c0.8,0,1.5,0.1,2.1,0.4s1.2,0.6,1.6,1L547.5,174.1z"/>
</g>
<path class="st3" d="M509.5,151.6c0-1.6-1.3-2.9-2.9-2.9s-2.9,1.3-2.9,2.9s1.3,2.9,2.9,2.9C508.2,154.4,509.5,153.1,509.5,151.6z
	 M500.9,140h8.7v-5.8H506c-0.1,0-0.4,0.1-0.5,0.2l-4.4,4.4c-0.1,0.1-0.2,0.4-0.2,0.5V140z M529.7,151.6c0-1.6-1.3-2.9-2.9-2.9
	s-2.9,1.3-2.9,2.9s1.3,2.9,2.9,2.9C528.4,154.4,529.7,153.1,529.7,151.6z M535.5,127v23.1c0,1.7-1.8,1.4-2.9,1.4
	c0,3.2-2.6,5.8-5.8,5.8s-5.8-2.6-5.8-5.8h-8.7c0,3.2-2.6,5.8-5.8,5.8s-5.8-2.6-5.8-5.8h-1.4c-1.1,0-2.9,0.2-2.9-1.4
	c0-0.8,0.7-1.4,1.4-1.4v-7.2c0-1.6-0.2-3.4,1-4.6l4.5-4.5c0.6-0.6,1.6-1,2.5-1h3.6V127c0-0.8,0.7-1.4,1.4-1.4H534
	C534.8,125.6,535.5,126.2,535.5,127L535.5,127z"/>
<g>
	<g>
		<rect x="218.7" y="89.7" class="st2" width="149.5" height="74.5"/>
		<path d="M367.9,90v74h-149V90H367.9 M368.5,89.5h-150v75h150V89.5L368.5,89.5z"/>
	</g>
	<g>
		<rect x="218.7" y="164.7" class="st2" width="149.5" height="74.5"/>
		<path d="M367.9,165v74h-149v-74H367.9 M368.5,164.5h-150v75h150V164.5L368.5,164.5z"/>
	</g>
	<g>
		<path d="M275.3,155.1H273c-0.3,0-0.5-0.1-0.6-0.2s-0.3-0.3-0.4-0.5l-1.2-3.2h-6.6l-1.2,3.2c-0.1,0.2-0.2,0.3-0.3,0.5
			c-0.1,0.2-0.4,0.2-0.6,0.2h-2.3l6.2-15.9h3L275.3,155.1z M265,149.1h5.1l-1.9-5.3c-0.1-0.2-0.2-0.5-0.3-0.8
			c-0.1-0.3-0.2-0.7-0.3-1c-0.1,0.4-0.2,0.7-0.3,1s-0.2,0.6-0.3,0.8L265,149.1z"/>
		<path d="M284.8,146.2c-0.1,0.1-0.2,0.2-0.2,0.2c-0.1,0.1-0.2,0.1-0.3,0.1c-0.1,0-0.3,0-0.4-0.1s-0.3-0.2-0.5-0.3
			c-0.2-0.1-0.4-0.2-0.7-0.3c-0.3-0.1-0.6-0.1-0.9-0.1c-0.5,0-0.9,0.1-1.3,0.3c-0.4,0.2-0.7,0.4-0.9,0.7c-0.2,0.3-0.4,0.7-0.5,1.2
			s-0.2,1-0.2,1.6s0.1,1.1,0.2,1.6s0.3,0.9,0.6,1.2c0.2,0.3,0.5,0.6,0.9,0.7s0.7,0.2,1.2,0.2s0.8-0.1,1.1-0.2s0.5-0.2,0.7-0.4
			c0.2-0.1,0.3-0.2,0.5-0.4c0.1-0.1,0.3-0.2,0.5-0.2s0.4,0.1,0.5,0.3l0.8,1c-0.3,0.4-0.6,0.6-1,0.9s-0.7,0.4-1.1,0.6
			c-0.4,0.1-0.8,0.2-1.2,0.3c-0.4,0.1-0.8,0.1-1.2,0.1c-0.7,0-1.4-0.1-2-0.4c-0.6-0.3-1.2-0.6-1.6-1.1c-0.5-0.5-0.8-1.1-1.1-1.8
			c-0.3-0.7-0.4-1.5-0.4-2.5c0-0.8,0.1-1.6,0.4-2.3c0.2-0.7,0.6-1.3,1.1-1.8s1-0.9,1.7-1.2s1.5-0.4,2.4-0.4c0.8,0,1.6,0.1,2.2,0.4
			s1.2,0.7,1.7,1.2L284.8,146.2z"/>
		<path d="M287.3,155.1v-16.4h2.7v6.3c0.4-0.4,0.9-0.8,1.5-1c0.5-0.3,1.1-0.4,1.9-0.4c0.6,0,1.2,0.1,1.6,0.3
			c0.5,0.2,0.9,0.5,1.2,0.9c0.3,0.4,0.6,0.8,0.7,1.4c0.1,0.6,0.2,1.1,0.2,1.7v7.2h-2.7v-7.2c0-0.7-0.2-1.2-0.5-1.6
			c-0.3-0.4-0.8-0.6-1.4-0.6c-0.5,0-0.9,0.1-1.3,0.3s-0.8,0.5-1.2,0.9v8.2C290,155.1,287.3,155.1,287.3,155.1z"/>
		<path d="M308.7,155.1h-1.2c-0.3,0-0.5,0-0.6-0.1s-0.3-0.2-0.3-0.5l-0.2-0.8c-0.3,0.3-0.6,0.5-0.8,0.7c-0.2,0.2-0.6,0.4-0.9,0.5
			s-0.6,0.2-0.9,0.3s-0.7,0.1-1.1,0.1c-0.5,0-0.9-0.1-1.3-0.2c-0.4-0.1-0.8-0.3-1-0.6c-0.3-0.3-0.5-0.6-0.7-1s-0.2-0.8-0.2-1.3
			c0-0.4,0.1-0.8,0.3-1.3s0.6-0.8,1.1-1.1s1.2-0.6,2.1-0.8s1.9-0.3,3.2-0.3V148c0-0.8-0.2-1.3-0.5-1.7s-0.8-0.5-1.4-0.5
			c-0.4,0-0.8,0.1-1.1,0.2c-0.3,0.1-0.5,0.2-0.8,0.3c-0.2,0.1-0.4,0.2-0.6,0.3s-0.4,0.2-0.6,0.2s-0.3,0-0.5-0.1
			c-0.1-0.1-0.2-0.2-0.3-0.4l-0.5-0.9c1.3-1.2,2.9-1.8,4.7-1.8c0.7,0,1.2,0.1,1.8,0.3c0.6,0.2,1,0.5,1.3,0.9
			c0.4,0.4,0.6,0.8,0.8,1.4c0.2,0.5,0.3,1.1,0.3,1.8L308.7,155.1L308.7,155.1z M303.4,153.4c0.3,0,0.5,0,0.8-0.1
			c0.2-0.1,0.5-0.1,0.7-0.2s0.4-0.2,0.6-0.4c0.2-0.1,0.4-0.3,0.6-0.5v-1.9c-0.8,0-1.5,0-2,0.1s-1,0.2-1.3,0.4s-0.6,0.3-0.7,0.5
			s-0.2,0.4-0.2,0.7c0,0.5,0.1,0.8,0.4,1C302.6,153.3,302.9,153.4,303.4,153.4z"/>
		<path d="M315,155.3c-1,0-1.7-0.3-2.3-0.8c-0.5-0.6-0.8-1.3-0.8-2.3v-6.3h-1.1c-0.1,0-0.3,0-0.4-0.1c-0.1-0.1-0.2-0.2-0.2-0.4v-1.1
			l1.8-0.3l0.6-3.1c0-0.1,0.1-0.3,0.2-0.3c0.1-0.1,0.2-0.1,0.4-0.1h1.4v3.6h3v1.9h-3v6.1c0,0.4,0.1,0.6,0.3,0.8
			c0.2,0.2,0.4,0.3,0.7,0.3c0.2,0,0.3,0,0.4-0.1c0.1,0,0.2-0.1,0.3-0.1c0.1,0,0.2-0.1,0.2-0.1c0.1,0,0.1-0.1,0.2-0.1s0.1,0,0.2,0.1
			c0.1,0,0.1,0.1,0.2,0.2l0.8,1.3c-0.4,0.3-0.9,0.6-1.4,0.7C316.1,155.2,315.6,155.3,315,155.3z"/>
		<path d="M326.6,146c-0.1,0.1-0.2,0.2-0.2,0.2s-0.2,0.1-0.3,0.1c-0.1,0-0.3,0-0.4-0.1s-0.3-0.2-0.5-0.2c-0.2-0.1-0.4-0.2-0.7-0.2
			c-0.3-0.1-0.6-0.1-0.9-0.1c-0.5,0-1,0.1-1.3,0.3c-0.3,0.2-0.5,0.5-0.5,0.9c0,0.2,0.1,0.4,0.2,0.6c0.1,0.2,0.4,0.3,0.6,0.4
			c0.3,0.1,0.6,0.2,0.9,0.3s0.7,0.2,1,0.3s0.7,0.3,1,0.4c0.3,0.1,0.6,0.3,0.9,0.6c0.3,0.2,0.5,0.5,0.6,0.8c0.2,0.3,0.2,0.7,0.2,1.2
			s-0.1,1-0.3,1.5c-0.2,0.5-0.5,0.9-0.9,1.2s-0.9,0.6-1.4,0.8s-1.2,0.3-1.9,0.3c-0.4,0-0.8,0-1.1-0.1c-0.4-0.1-0.7-0.2-1.1-0.3
			c-0.3-0.1-0.7-0.3-0.9-0.4c-0.3-0.2-0.5-0.4-0.8-0.5l0.6-1c0.1-0.1,0.2-0.2,0.3-0.3c0.1-0.1,0.2-0.1,0.4-0.1c0.2,0,0.3,0,0.5,0.1
			s0.3,0.2,0.5,0.3s0.4,0.2,0.7,0.3c0.3,0.1,0.6,0.1,1,0.1c0.3,0,0.6,0,0.8-0.1c0.2-0.1,0.4-0.2,0.6-0.3c0.1-0.1,0.3-0.3,0.3-0.4
			c0.1-0.2,0.1-0.3,0.1-0.5c0-0.3-0.1-0.5-0.2-0.6c-0.2-0.2-0.4-0.3-0.6-0.4c-0.3-0.1-0.6-0.2-0.9-0.3s-0.7-0.2-1-0.3
			s-0.7-0.3-1-0.4c-0.3-0.1-0.6-0.4-0.9-0.6s-0.5-0.5-0.6-0.9s-0.2-0.8-0.2-1.3s0.1-0.9,0.3-1.3s0.5-0.8,0.8-1.1
			c0.4-0.3,0.8-0.6,1.3-0.7c0.5-0.1,1.1-0.3,1.8-0.3c0.8,0,1.5,0.1,2.1,0.4s1.2,0.6,1.6,1L326.6,146z"/>
	</g>
	<g>
		<path d="M259.7,214h2.4c0.3,0,0.5,0.1,0.6,0.2c0.2,0.1,0.3,0.3,0.4,0.5l3.7,9.7c0.1,0.3,0.2,0.7,0.4,1c0.1,0.4,0.2,0.8,0.3,1.2
			c0.2-0.8,0.4-1.6,0.6-2.2l3.7-9.7c0.1-0.2,0.2-0.3,0.4-0.5c0.2-0.1,0.4-0.2,0.6-0.2h2.4l-6.4,15.9h-2.7L259.7,214z"/>
		<path d="M280,218.4c0.7,0,1.4,0.1,2,0.3s1.1,0.6,1.5,1s0.8,1,1,1.6s0.4,1.4,0.4,2.2c0,0.2,0,0.4,0,0.5s-0.1,0.2-0.1,0.3
			s-0.1,0.1-0.2,0.2c-0.1,0-0.2,0-0.3,0h-7c0.1,1.2,0.4,2,0.9,2.6c0.5,0.5,1.3,0.8,2.2,0.8c0.4,0,0.8-0.1,1.1-0.2s0.6-0.2,0.8-0.3
			c0.2-0.1,0.4-0.2,0.6-0.3s0.4-0.2,0.5-0.2s0.2,0,0.3,0.1s0.2,0.1,0.2,0.2l0.8,1c-0.3,0.4-0.6,0.6-1,0.9s-0.8,0.4-1.2,0.6
			c-0.4,0.1-0.8,0.2-1.2,0.3c-0.4,0.1-0.8,0.1-1.2,0.1c-0.8,0-1.5-0.1-2.2-0.4c-0.7-0.3-1.3-0.6-1.8-1.2c-0.5-0.5-0.9-1.1-1.2-1.9
			c-0.3-0.8-0.4-1.6-0.4-2.6c0-0.8,0.1-1.5,0.4-2.2c0.2-0.7,0.6-1.3,1.1-1.8s1-0.9,1.7-1.2C278.4,218.5,279.2,218.4,280,218.4z
			 M280.1,220.3c-0.8,0-1.4,0.2-1.9,0.7c-0.4,0.4-0.7,1.1-0.9,1.9h5.1c0-0.4,0-0.7-0.1-1s-0.2-0.6-0.4-0.8c-0.2-0.2-0.4-0.4-0.7-0.6
			S280.5,220.3,280.1,220.3z"/>
		<path d="M287.1,229.9v-11.3h1.7c0.4,0,0.6,0.2,0.7,0.5l0.2,0.9c0.2-0.2,0.5-0.4,0.7-0.6c0.3-0.2,0.5-0.4,0.8-0.5s0.6-0.2,0.9-0.3
			s0.7-0.1,1.1-0.1c0.6,0,1.2,0.1,1.6,0.3c0.5,0.2,0.9,0.5,1.2,0.9c0.3,0.4,0.6,0.8,0.7,1.4c0.1,0.6,0.2,1.1,0.2,1.7v7.2h-2.7v-7.2
			c0-0.7-0.2-1.2-0.5-1.6c-0.3-0.4-0.8-0.6-1.4-0.6c-0.5,0-0.9,0.1-1.3,0.3s-0.8,0.5-1.2,0.9v8.2L287.1,229.9L287.1,229.9z"/>
		<path d="M303.3,230c-1,0-1.7-0.3-2.3-0.8c-0.5-0.6-0.8-1.3-0.8-2.3v-6.3h-1.1c-0.1,0-0.3,0-0.4-0.1s-0.2-0.2-0.2-0.4V219l1.8-0.3
			l0.6-3.1c0-0.1,0.1-0.3,0.2-0.3c0.1-0.1,0.2-0.1,0.4-0.1h1.4v3.6h3v1.9h-3v6.1c0,0.4,0.1,0.6,0.3,0.8c0.2,0.2,0.4,0.3,0.7,0.3
			c0.2,0,0.3,0,0.4-0.1c0.1,0,0.2-0.1,0.3-0.1c0.1,0,0.2-0.1,0.2-0.1c0.1,0,0.1-0.1,0.2-0.1s0.1,0,0.2,0.1c0.1,0,0.1,0.1,0.2,0.2
			l0.8,1.3c-0.4,0.3-0.9,0.6-1.4,0.7C304.4,230,303.9,230,303.3,230z"/>
		<path d="M312.8,218.4c0.7,0,1.4,0.1,2,0.3s1.1,0.6,1.5,1s0.8,1,1,1.6s0.4,1.4,0.4,2.2c0,0.2,0,0.4,0,0.5s-0.1,0.2-0.1,0.3
			s-0.1,0.1-0.2,0.2c-0.1,0-0.2,0-0.3,0h-7c0.1,1.2,0.4,2,0.9,2.6c0.5,0.5,1.3,0.8,2.2,0.8c0.4,0,0.8-0.1,1.1-0.2s0.6-0.2,0.8-0.3
			c0.2-0.1,0.4-0.2,0.6-0.3s0.4-0.2,0.5-0.2s0.2,0,0.3,0.1s0.2,0.1,0.2,0.2l0.8,1c-0.3,0.4-0.6,0.6-1,0.9s-0.8,0.4-1.2,0.6
			c-0.4,0.1-0.8,0.2-1.2,0.3c-0.4,0.1-0.8,0.1-1.2,0.1c-0.8,0-1.5-0.1-2.2-0.4c-0.7-0.3-1.3-0.6-1.8-1.2c-0.5-0.5-0.9-1.1-1.2-1.9
			c-0.3-0.8-0.4-1.6-0.4-2.6c0-0.8,0.1-1.5,0.4-2.2c0.2-0.7,0.6-1.3,1.1-1.8s1-0.9,1.7-1.2C311.2,218.5,312,218.4,312.8,218.4z
			 M312.9,220.3c-0.8,0-1.4,0.2-1.9,0.7c-0.4,0.4-0.7,1.1-0.9,1.9h5.1c0-0.4,0-0.7-0.1-1s-0.2-0.6-0.4-0.8c-0.2-0.2-0.4-0.4-0.7-0.6
			S313.3,220.3,312.9,220.3z"/>
		<path d="M326.6,220.8c-0.1,0.1-0.2,0.2-0.2,0.2s-0.2,0.1-0.3,0.1c-0.1,0-0.3,0-0.4-0.1s-0.3-0.2-0.5-0.2c-0.2-0.1-0.4-0.2-0.7-0.2
			c-0.3-0.1-0.6-0.1-0.9-0.1c-0.5,0-1,0.1-1.3,0.3s-0.5,0.5-0.5,0.9c0,0.2,0.1,0.4,0.2,0.6c0.1,0.2,0.4,0.3,0.6,0.4
			c0.3,0.1,0.6,0.2,0.9,0.3s0.7,0.2,1,0.3s0.7,0.3,1,0.4c0.3,0.1,0.6,0.3,0.9,0.6c0.3,0.2,0.5,0.5,0.6,0.8c0.2,0.3,0.2,0.7,0.2,1.2
			s-0.1,1-0.3,1.5c-0.2,0.5-0.5,0.9-0.9,1.2s-0.9,0.6-1.4,0.8s-1.2,0.3-1.9,0.3c-0.4,0-0.8,0-1.1-0.1c-0.4-0.1-0.7-0.2-1.1-0.3
			c-0.3-0.1-0.7-0.3-0.9-0.4c-0.3-0.2-0.5-0.4-0.8-0.5l0.6-1c0.1-0.1,0.2-0.2,0.3-0.3c0.1-0.1,0.2-0.1,0.4-0.1c0.2,0,0.3,0,0.5,0.1
			s0.3,0.2,0.5,0.3s0.4,0.2,0.7,0.3c0.3,0.1,0.6,0.1,1,0.1c0.3,0,0.6,0,0.8-0.1c0.2-0.1,0.4-0.2,0.6-0.3c0.1-0.1,0.3-0.3,0.3-0.4
			c0.1-0.2,0.1-0.3,0.1-0.5c0-0.3-0.1-0.5-0.2-0.6c-0.2-0.2-0.4-0.3-0.6-0.4c-0.3-0.1-0.6-0.2-0.9-0.3s-0.7-0.2-1-0.3
			s-0.7-0.3-1-0.4c-0.3-0.1-0.6-0.4-0.9-0.6s-0.5-0.5-0.6-0.9s-0.2-0.8-0.2-1.3s0.1-0.9,0.3-1.3c0.2-0.4,0.5-0.8,0.8-1.1
			c0.4-0.3,0.8-0.6,1.3-0.7s1.1-0.3,1.8-0.3c0.8,0,1.5,0.1,2.1,0.4c0.6,0.3,1.2,0.6,1.6,1L326.6,220.8z"/>
	</g>
	<path class="st3" d="M289.2,127.7c0,1.6-1.3,2.9-2.9,2.9s-2.9-1.3-2.9-2.9c0-1.6,1.3-2.9,2.9-2.9
		C287.9,124.8,289.2,126.1,289.2,127.7z M309.4,127.7c0,1.6-1.3,2.9-2.9,2.9s-2.9-1.3-2.9-2.9c0-1.6,1.3-2.9,2.9-2.9
		C308.1,124.8,309.4,126.1,309.4,127.7z M312.3,103.2v11.5c0,0.7-0.6,1.4-1.3,1.4l-23.5,2.8c0.1,0.5,0.3,1,0.3,1.6
		c0,0.5-0.3,1-0.5,1.4h20.7c0.8,0,1.4,0.7,1.4,1.4c0,0.8-0.7,1.4-1.4,1.4h-23.1c-0.8,0-1.4-0.7-1.4-1.4c0-0.7,1-2.4,1.4-3.1l-4-18.6
		h-4.6c-0.8,0-1.4-0.7-1.4-1.4s0.7-1.4,1.4-1.4h5.8c1.5,0,1.6,1.8,1.8,2.9h27.1C311.6,101.7,312.3,102.4,312.3,103.2L312.3,103.2z"
		/>
	<path class="st3" d="M285.4,188.7v10.8h-5.4v-10.8H285.4z M293.5,177.9v21.5h-5.4v-21.5H293.5z M315,202.1v2.7h-43v-32.3h2.7v29.6
		H315z M301.6,183.3v16.1h-5.4v-16.1H301.6z M309.6,175.3v24.2h-5.4v-24.2H309.6z"/>
</g>
<g>
	<g>
		<rect x="10.4" y="90.2" class="st2" width="149.5" height="149.5"/>
		<path d="M159.6,90.4v149h-149v-149H159.6 M160.2,89.9h-150v150h150V89.9L160.2,89.9z"/>
	</g>
	<path class="st3" d="M81.2,146.6h8.1v-2h-2.7v-9.4h-2.4l-3.1,2.9l1.6,1.7c0.6-0.5,1-0.9,1.2-1.2h0v6h-2.7V146.6L81.2,146.6z
		 M91.9,141.3c0,1-0.1,2-0.4,3s-0.7,1.9-1.3,2.8c-0.5,0.9-1.3,1.6-2.1,2.1c-0.9,0.5-1.8,0.8-2.9,0.8c-1,0-2-0.3-2.9-0.8
		c-0.9-0.5-1.6-1.3-2.1-2.1c-0.5-0.9-1-1.8-1.2-2.8c-0.3-1-0.4-2-0.4-3s0.1-2,0.4-3c0.3-1,0.7-1.9,1.2-2.8c0.5-0.9,1.3-1.6,2.1-2.1
		c0.9-0.5,1.9-0.8,2.9-0.8s2,0.3,2.9,0.8c0.9,0.5,1.6,1.3,2.1,2.1s1,1.8,1.3,2.8C91.8,139.3,91.9,140.3,91.9,141.3z M102.7,146.6
		v-10.8c-1.5,0-2.8-0.5-3.8-1.6c-1.1-1.1-1.6-2.3-1.6-3.8H73.1c0,1.5-0.5,2.8-1.6,3.8c-1.1,1.1-2.3,1.6-3.8,1.6v10.8
		c1.5,0,2.8,0.5,3.8,1.6c1,1,1.6,2.3,1.6,3.8h24.2c0-1.5,0.5-2.8,1.6-3.8C99.9,147.2,101.2,146.6,102.7,146.6z M105.4,129.2v24.2
		c0,0.4-0.1,0.7-0.4,0.9c-0.3,0.3-0.6,0.4-0.9,0.4H66.4c-0.4,0-0.7-0.1-0.9-0.4s-0.4-0.6-0.4-0.9v-24.2c0-0.4,0.1-0.7,0.4-0.9
		s0.6-0.4,0.9-0.4H104c0.4,0,0.7,0.1,0.9,0.4C105.2,128.5,105.4,128.8,105.4,129.2z"/>
	<g>
		<path d="M33.3,179.2c0.2,0,0.3,0.1,0.4,0.2l1.2,1.3c-0.6,0.8-1.4,1.4-2.4,1.8c-0.9,0.4-2.1,0.6-3.4,0.6c-1.2,0-2.2-0.2-3.2-0.6
			c-0.9-0.4-1.7-1-2.4-1.7c-0.7-0.7-1.2-1.6-1.5-2.6c-0.4-1-0.5-2.1-0.5-3.3c0-1.2,0.2-2.3,0.6-3.3s1-1.9,1.7-2.6
			c0.7-0.7,1.6-1.3,2.6-1.7s2.1-0.6,3.3-0.6c1.2,0,2.2,0.2,3.1,0.6c0.9,0.4,1.6,0.9,2.3,1.5l-1,1.4c-0.1,0.1-0.1,0.2-0.2,0.2
			c-0.1,0.1-0.2,0.1-0.4,0.1c-0.2,0-0.3-0.1-0.5-0.2c-0.2-0.1-0.4-0.3-0.7-0.4c-0.3-0.2-0.6-0.3-1-0.4c-0.4-0.1-0.9-0.2-1.6-0.2
			c-0.7,0-1.4,0.1-2.1,0.4c-0.6,0.3-1.2,0.6-1.6,1.1c-0.5,0.5-0.8,1.1-1.1,1.8s-0.4,1.5-0.4,2.3c0,0.9,0.1,1.7,0.4,2.4
			s0.6,1.3,1,1.8c0.4,0.5,0.9,0.8,1.5,1.1c0.6,0.3,1.2,0.4,1.9,0.4c0.4,0,0.8,0,1.1-0.1s0.6-0.1,0.9-0.2c0.3-0.1,0.5-0.2,0.8-0.4
			c0.2-0.1,0.5-0.3,0.7-0.6c0.1-0.1,0.2-0.1,0.2-0.2S33.2,179.2,33.3,179.2z"/>
		<path d="M41.8,171.5c0.8,0,1.6,0.1,2.3,0.4c0.7,0.3,1.3,0.7,1.8,1.2s0.9,1.1,1.1,1.8c0.3,0.7,0.4,1.5,0.4,2.4
			c0,0.9-0.1,1.7-0.4,2.4c-0.3,0.7-0.6,1.3-1.1,1.8c-0.5,0.5-1.1,0.9-1.8,1.2c-0.7,0.3-1.5,0.4-2.3,0.4s-1.6-0.1-2.3-0.4
			c-0.7-0.3-1.3-0.7-1.8-1.2c-0.5-0.5-0.9-1.1-1.1-1.8c-0.3-0.7-0.4-1.5-0.4-2.4c0-0.9,0.1-1.7,0.4-2.4c0.3-0.7,0.6-1.3,1.1-1.8
			c0.5-0.5,1.1-0.9,1.8-1.2C40.2,171.7,40.9,171.5,41.8,171.5z M41.8,181.1c0.9,0,1.6-0.3,2.1-0.9c0.5-0.6,0.7-1.6,0.7-2.8
			s-0.2-2.1-0.7-2.8c-0.5-0.6-1.1-1-2.1-1c-1,0-1.7,0.3-2.1,1c-0.5,0.6-0.7,1.6-0.7,2.8s0.2,2.1,0.7,2.8
			C40.1,180.8,40.8,181.1,41.8,181.1z"/>
		<path d="M49.5,183v-11.3h1.7c0.4,0,0.6,0.2,0.7,0.5L52,173c0.2-0.2,0.4-0.4,0.6-0.6c0.2-0.2,0.4-0.3,0.7-0.5
			c0.2-0.1,0.5-0.2,0.8-0.3c0.3-0.1,0.6-0.1,0.9-0.1c0.7,0,1.3,0.2,1.8,0.6c0.5,0.4,0.8,0.9,1,1.5c0.2-0.4,0.4-0.7,0.7-1
			s0.6-0.5,0.9-0.7c0.3-0.2,0.7-0.3,1-0.4s0.7-0.1,1.1-0.1c0.6,0,1.2,0.1,1.7,0.3c0.5,0.2,0.9,0.5,1.2,0.8s0.6,0.8,0.8,1.3
			s0.3,1.1,0.3,1.8v7.2h-2.7v-7.2c0-0.7-0.2-1.3-0.5-1.6c-0.3-0.4-0.8-0.5-1.4-0.5c-0.3,0-0.5,0-0.8,0.1c-0.2,0.1-0.4,0.2-0.6,0.4
			c-0.2,0.2-0.3,0.4-0.4,0.7c-0.1,0.3-0.2,0.6-0.2,0.9v7.2H56v-7.2c0-0.8-0.2-1.3-0.5-1.6s-0.8-0.5-1.3-0.5c-0.4,0-0.8,0.1-1.1,0.3
			c-0.3,0.2-0.7,0.5-1,0.8v8.3H49.5z"/>
		<path d="M68,186.7v-15h1.7c0.2,0,0.3,0,0.5,0.1c0.1,0.1,0.2,0.2,0.2,0.4l0.2,1c0.5-0.5,1-0.9,1.6-1.3c0.6-0.3,1.3-0.5,2.1-0.5
			c0.6,0,1.2,0.1,1.7,0.4s0.9,0.6,1.3,1.1c0.4,0.5,0.7,1.1,0.9,1.8c0.2,0.7,0.3,1.5,0.3,2.5c0,0.8-0.1,1.6-0.3,2.3
			c-0.2,0.7-0.6,1.3-1,1.9c-0.4,0.5-0.9,0.9-1.5,1.2c-0.6,0.3-1.3,0.4-2,0.4c-0.6,0-1.2-0.1-1.6-0.3c-0.4-0.2-0.8-0.5-1.2-0.8v4.6
			H68z M73.3,173.6c-0.6,0-1,0.1-1.4,0.4c-0.4,0.2-0.8,0.6-1.1,1v5.1c0.3,0.4,0.6,0.6,1,0.8c0.4,0.2,0.8,0.2,1.2,0.2
			c0.4,0,0.8-0.1,1.1-0.2c0.3-0.2,0.6-0.4,0.8-0.7s0.4-0.7,0.5-1.2c0.1-0.5,0.2-1,0.2-1.7c0-0.7-0.1-1.2-0.2-1.7
			c-0.1-0.5-0.3-0.8-0.5-1.1c-0.2-0.3-0.4-0.5-0.7-0.6C74,173.7,73.6,173.6,73.3,173.6z"/>
		<path d="M84.1,183.2c-1,0-1.7-0.3-2.3-0.8c-0.5-0.6-0.8-1.3-0.8-2.3v-6.3H80c-0.1,0-0.3,0-0.4-0.1s-0.2-0.2-0.2-0.4v-1.1l1.8-0.3
			l0.6-3.1c0-0.1,0.1-0.3,0.2-0.3c0.1-0.1,0.2-0.1,0.4-0.1h1.4v3.6h3v1.9h-3v6.1c0,0.4,0.1,0.6,0.3,0.8c0.2,0.2,0.4,0.3,0.7,0.3
			c0.2,0,0.3,0,0.4-0.1c0.1,0,0.2-0.1,0.3-0.1c0.1,0,0.2-0.1,0.2-0.1c0.1,0,0.1-0.1,0.2-0.1c0.1,0,0.1,0,0.2,0.1
			c0.1,0,0.1,0.1,0.2,0.2l0.8,1.3c-0.4,0.3-0.9,0.6-1.4,0.7C85.2,183.1,84.7,183.2,84.1,183.2z"/>
		<path d="M97.8,183h-1.2c-0.3,0-0.5,0-0.6-0.1c-0.1-0.1-0.3-0.2-0.3-0.5l-0.2-0.8c-0.3,0.3-0.6,0.5-0.8,0.7s-0.6,0.4-0.9,0.5
			c-0.3,0.1-0.6,0.2-0.9,0.3s-0.7,0.1-1.1,0.1c-0.5,0-0.9-0.1-1.3-0.2s-0.8-0.3-1-0.6c-0.3-0.3-0.5-0.6-0.7-1
			c-0.2-0.4-0.2-0.8-0.2-1.3c0-0.4,0.1-0.8,0.3-1.3s0.6-0.8,1.1-1.1c0.5-0.3,1.2-0.6,2.1-0.8s1.9-0.3,3.2-0.3v-0.7
			c0-0.8-0.2-1.3-0.5-1.7s-0.8-0.5-1.4-0.5c-0.4,0-0.8,0.1-1.1,0.2c-0.3,0.1-0.5,0.2-0.8,0.3c-0.2,0.1-0.4,0.2-0.6,0.3
			c-0.2,0.1-0.4,0.2-0.6,0.2c-0.2,0-0.3,0-0.5-0.1c-0.1-0.1-0.2-0.2-0.3-0.4l-0.5-0.9c1.3-1.2,2.9-1.8,4.7-1.8
			c0.7,0,1.2,0.1,1.8,0.3s1,0.5,1.3,0.9c0.4,0.4,0.6,0.8,0.8,1.4c0.2,0.5,0.3,1.1,0.3,1.8V183z M92.5,181.3c0.3,0,0.5,0,0.8-0.1
			c0.2-0.1,0.5-0.1,0.7-0.2s0.4-0.2,0.6-0.4c0.2-0.1,0.4-0.3,0.6-0.5v-1.9c-0.8,0-1.5,0-2,0.1c-0.5,0.1-1,0.2-1.3,0.4
			c-0.3,0.2-0.6,0.3-0.7,0.5c-0.1,0.2-0.2,0.4-0.2,0.7c0,0.5,0.1,0.8,0.4,1C91.7,181.2,92.1,181.3,92.5,181.3z"/>
		<path d="M100.5,183v-16.3h2.7v6.4c0.4-0.5,1-0.9,1.5-1.1c0.6-0.3,1.2-0.4,2-0.4c0.6,0,1.2,0.1,1.7,0.4c0.5,0.3,0.9,0.6,1.3,1.1
			c0.4,0.5,0.7,1.1,0.9,1.8c0.2,0.7,0.3,1.5,0.3,2.5c0,0.8-0.1,1.6-0.3,2.3c-0.2,0.7-0.6,1.3-1,1.9c-0.4,0.5-0.9,0.9-1.5,1.2
			c-0.6,0.3-1.3,0.4-2,0.4c-0.3,0-0.7,0-0.9-0.1c-0.3-0.1-0.5-0.2-0.8-0.3c-0.2-0.1-0.5-0.3-0.7-0.5c-0.2-0.2-0.4-0.4-0.6-0.6
			l-0.1,0.8c0,0.2-0.1,0.3-0.2,0.4c-0.1,0.1-0.3,0.1-0.4,0.1H100.5z M105.8,173.6c-0.6,0-1,0.1-1.4,0.4c-0.4,0.2-0.8,0.6-1.1,1v5.1
			c0.3,0.4,0.6,0.6,1,0.8s0.8,0.2,1.2,0.2c0.4,0,0.8-0.1,1.1-0.2c0.3-0.2,0.6-0.4,0.8-0.7c0.2-0.3,0.4-0.7,0.5-1.2
			c0.1-0.5,0.2-1,0.2-1.7c0-0.7-0.1-1.2-0.2-1.7c-0.1-0.5-0.3-0.8-0.5-1.1c-0.2-0.3-0.4-0.5-0.7-0.6
			C106.5,173.7,106.1,173.6,105.8,173.6z"/>
		<path d="M116.3,168.4c0,0.2,0,0.5-0.1,0.7c-0.1,0.2-0.2,0.4-0.4,0.5s-0.3,0.3-0.6,0.4c-0.2,0.1-0.4,0.1-0.7,0.1
			c-0.2,0-0.5,0-0.7-0.1s-0.4-0.2-0.5-0.4c-0.2-0.2-0.3-0.3-0.4-0.5c-0.1-0.2-0.1-0.4-0.1-0.7c0-0.2,0-0.5,0.1-0.7
			c0.1-0.2,0.2-0.4,0.4-0.6c0.2-0.2,0.3-0.3,0.5-0.4s0.4-0.1,0.7-0.1c0.2,0,0.5,0,0.7,0.1c0.2,0.1,0.4,0.2,0.6,0.4
			c0.2,0.2,0.3,0.3,0.4,0.6C116.3,168,116.3,168.2,116.3,168.4z M115.9,171.7V183h-2.7v-11.3H115.9z"/>
		<path d="M121.9,166.7V183h-2.7v-16.3H121.9z"/>
		<path d="M128.2,168.4c0,0.2,0,0.5-0.1,0.7c-0.1,0.2-0.2,0.4-0.4,0.5s-0.3,0.3-0.6,0.4c-0.2,0.1-0.4,0.1-0.7,0.1
			c-0.2,0-0.5,0-0.7-0.1s-0.4-0.2-0.5-0.4c-0.2-0.2-0.3-0.3-0.4-0.5c-0.1-0.2-0.1-0.4-0.1-0.7c0-0.2,0-0.5,0.1-0.7
			c0.1-0.2,0.2-0.4,0.4-0.6c0.2-0.2,0.3-0.3,0.5-0.4s0.4-0.1,0.7-0.1c0.2,0,0.5,0,0.7,0.1c0.2,0.1,0.4,0.2,0.6,0.4
			c0.2,0.2,0.3,0.3,0.4,0.6C128.2,168,128.2,168.2,128.2,168.4z M127.8,171.7V183h-2.7v-11.3H127.8z"/>
		<path d="M134.6,183.2c-1,0-1.7-0.3-2.3-0.8c-0.5-0.6-0.8-1.3-0.8-2.3v-6.3h-1.1c-0.1,0-0.3,0-0.4-0.1s-0.2-0.2-0.2-0.4v-1.1
			l1.8-0.3l0.6-3.1c0-0.1,0.1-0.3,0.2-0.3c0.1-0.1,0.2-0.1,0.4-0.1h1.4v3.6h3v1.9h-3v6.1c0,0.4,0.1,0.6,0.3,0.8
			c0.2,0.2,0.4,0.3,0.7,0.3c0.2,0,0.3,0,0.4-0.1c0.1,0,0.2-0.1,0.3-0.1c0.1,0,0.2-0.1,0.2-0.1c0.1,0,0.1-0.1,0.2-0.1
			c0.1,0,0.1,0,0.2,0.1c0.1,0,0.1,0.1,0.2,0.2l0.8,1.3c-0.4,0.3-0.9,0.6-1.4,0.7C135.7,183.1,135.2,183.2,134.6,183.2z"/>
		<path d="M144.1,171.5c0.7,0,1.4,0.1,2,0.3c0.6,0.2,1.1,0.6,1.5,1c0.4,0.4,0.8,1,1,1.6c0.2,0.6,0.4,1.4,0.4,2.2c0,0.2,0,0.4,0,0.5
			c0,0.1-0.1,0.2-0.1,0.3c0,0.1-0.1,0.1-0.2,0.2c-0.1,0-0.2,0-0.3,0h-7c0.1,1.2,0.4,2,0.9,2.6c0.5,0.5,1.3,0.8,2.2,0.8
			c0.4,0,0.8-0.1,1.1-0.2s0.6-0.2,0.8-0.3c0.2-0.1,0.4-0.2,0.6-0.3s0.4-0.2,0.5-0.2c0.1,0,0.2,0,0.3,0.1s0.2,0.1,0.2,0.2l0.8,1
			c-0.3,0.4-0.6,0.6-1,0.9s-0.8,0.4-1.2,0.6c-0.4,0.1-0.8,0.2-1.2,0.3c-0.4,0.1-0.8,0.1-1.2,0.1c-0.8,0-1.5-0.1-2.2-0.4
			c-0.7-0.3-1.3-0.6-1.8-1.2c-0.5-0.5-0.9-1.1-1.2-1.9c-0.3-0.8-0.4-1.6-0.4-2.6c0-0.8,0.1-1.5,0.4-2.2c0.2-0.7,0.6-1.3,1.1-1.8
			c0.5-0.5,1-0.9,1.7-1.2C142.5,171.7,143.2,171.5,144.1,171.5z M144.1,173.5c-0.8,0-1.4,0.2-1.9,0.7c-0.4,0.4-0.7,1.1-0.9,1.9h5.1
			c0-0.4,0-0.7-0.1-1c-0.1-0.3-0.2-0.6-0.4-0.8c-0.2-0.2-0.4-0.4-0.7-0.6S144.5,173.5,144.1,173.5z M147.9,166.9l-2.7,2.9
			c-0.1,0.1-0.3,0.2-0.4,0.3c-0.1,0.1-0.3,0.1-0.5,0.1h-1.6l1.6-2.7c0.1-0.2,0.2-0.3,0.4-0.4c0.1-0.1,0.4-0.1,0.7-0.1H147.9z"/>
	</g>
</g>
</svg>
