<?xml version="1.0" encoding="utf-8"?>
<!-- Generator: Adobe Illustrator 22.0.1, SVG Export Plug-In . SVG Version: 6.00 Build 0)  -->
<svg version="1.1" id="Calque_1" xmlns="http://www.w3.org/2000/svg" xmlns:xlink="http://www.w3.org/1999/xlink" x="0px" y="0px"
	 viewBox="0 0 810 329" style="enable-background:new 0 0 810 329;" xml:space="preserve">
<style type="text/css">
	.st0{fill:#FFFFFF;}
	.st1{fill:#00CC66;}
	.st2{fill:none;stroke:#000000;stroke-miterlimit:10;stroke-dasharray:10,10;}
	.st3{fill:#FF9900;}
</style>
<g>
	<g>
		<rect x="218.9" y="90.3" class="st0" width="149.5" height="149.5"/>
		<path d="M368.1,90.5v149h-149v-149H368.1 M368.7,90h-150v150h150V90L368.7,90z"/>
	</g>
	<path class="st1" d="M487.5,32.5c0,0.4,0.1,0.8,0.3,1.1l21.7,37.5c0.4,0.7,1.1,1.1,1.9,1.1c0.8,0,1.5-0.4,1.9-1.1L535,33.6
		c0.2-0.3,0.3-0.7,0.3-1.1c0-0.4-0.1-0.8-0.3-1.1c-0.4-0.7-1.1-1.1-1.9-1.1h-43.3c-0.8,0-1.5,0.4-1.9,1.1
		C487.6,31.7,487.5,32.1,487.5,32.5z"/>
	<g>
		<g>
			<polyline class="st2" points="379.2,244.8 379.2,249.8 374.2,249.8 			"/>
			<line class="st2" x1="364.3" y1="249.8" x2="11.2" y2="249.8"/>
			<polyline class="st2" points="6.2,249.8 1.2,249.8 1.2,244.8 			"/>
			<line class="st2" x1="1.2" y1="235.4" x2="1.2" y2="89.5"/>
			<polyline class="st2" points="1.2,84.8 1.2,79.8 6.2,79.8 			"/>
			<line class="st2" x1="16.2" y1="79.8" x2="369.3" y2="79.8"/>
			<polyline class="st2" points="374.2,79.8 379.2,79.8 379.2,84.8 			"/>
			<line class="st2" x1="379.2" y1="94.2" x2="379.2" y2="240.1"/>
		</g>
	</g>
	<g>
		<g>
			<polyline class="st2" points="808.8,244.8 808.8,249.8 803.8,249.8 			"/>
			<line class="st2" x1="793.8" y1="249.8" x2="440.7" y2="249.8"/>
			<polyline class="st2" points="435.8,249.8 430.8,249.8 430.8,244.8 			"/>
			<line class="st2" x1="430.8" y1="235.4" x2="430.8" y2="89.5"/>
			<polyline class="st2" points="430.8,84.8 430.8,79.8 435.8,79.8 			"/>
			<line class="st2" x1="445.7" y1="79.8" x2="798.8" y2="79.8"/>
			<polyline class="st2" points="803.8,79.8 808.8,79.8 808.8,84.8 			"/>
			<line class="st2" x1="808.8" y1="94.2" x2="808.8" y2="240.1"/>
		</g>
	</g>
	<g>
		<rect x="11" y="90.6" class="st0" width="149.5" height="149.5"/>
		<path d="M160.2,90.8v149h-149v-149H160.2 M160.8,90.3h-150v150h150V90.3L160.8,90.3z"/>
	</g>
	<g>
		<rect x="441" y="90.6" class="st0" width="149.5" height="149.5"/>
		<path d="M590.2,90.8v149h-149v-149H590.2 M590.8,90.3h-150v150h150V90.3L590.8,90.3z"/>
	</g>
	<g>
		<rect x="649" y="89.6" class="st0" width="149.5" height="149.5"/>
		<path d="M798.2,89.8v149h-149v-149H798.2 M798.8,89.3h-150v150h150V89.3L798.8,89.3z"/>
	</g>
	<g>
		<path d="M661.5,173.3h-3v-15.9h3V173.3z"/>
		<path d="M665,173.3V162h1.7c0.4,0,0.6,0.2,0.7,0.5l0.2,0.9c0.2-0.2,0.5-0.4,0.7-0.6c0.3-0.2,0.5-0.4,0.8-0.5s0.6-0.2,0.9-0.3
			s0.7-0.1,1.1-0.1c0.6,0,1.2,0.1,1.6,0.3c0.5,0.2,0.9,0.5,1.2,0.9s0.6,0.8,0.7,1.4c0.2,0.5,0.2,1.1,0.2,1.7v7.2h-2.7v-7.2
			c0-0.7-0.2-1.2-0.5-1.6c-0.3-0.4-0.8-0.6-1.4-0.6c-0.5,0-0.9,0.1-1.3,0.3c-0.4,0.2-0.8,0.5-1.2,0.9v8.2L665,173.3L665,173.3z"/>
		<path d="M681.2,173.4c-1,0-1.7-0.3-2.3-0.8c-0.5-0.6-0.8-1.3-0.8-2.3V164H677c-0.1,0-0.3,0-0.4-0.1c-0.1-0.1-0.2-0.2-0.2-0.4v-1.1
			l1.8-0.3l0.6-3.1c0-0.1,0.1-0.3,0.2-0.3c0.1-0.1,0.2-0.1,0.4-0.1h1.4v3.6h3v1.9h-3v6.1c0,0.4,0.1,0.6,0.3,0.8s0.4,0.3,0.7,0.3
			c0.2,0,0.3,0,0.4-0.1c0.1-0.1,0.2-0.1,0.3-0.1s0.2-0.1,0.2-0.1c0.1,0,0.1-0.1,0.2-0.1c0.1,0,0.1,0,0.2,0.1c0.1,0,0.1,0.1,0.2,0.2
			l0.8,1.3c-0.4,0.3-0.9,0.6-1.4,0.7C682.3,173.4,681.7,173.4,681.2,173.4z"/>
		<path d="M690.6,161.8c0.7,0,1.4,0.1,2,0.3s1.1,0.6,1.5,1s0.8,1,1,1.6s0.4,1.4,0.4,2.2c0,0.2,0,0.4,0,0.5s-0.1,0.2-0.1,0.3
			s-0.1,0.1-0.2,0.2c-0.1,0-0.2,0-0.3,0h-7c0.1,1.2,0.4,2,0.9,2.6s1.3,0.8,2.2,0.8c0.4,0,0.8-0.1,1.1-0.2s0.6-0.2,0.8-0.3
			s0.4-0.2,0.6-0.3c0.2-0.1,0.4-0.2,0.5-0.2s0.2,0,0.3,0.1s0.2,0.1,0.2,0.2l0.8,1c-0.3,0.4-0.6,0.6-1,0.9c-0.4,0.3-0.8,0.4-1.2,0.6
			c-0.4,0.1-0.8,0.2-1.2,0.3s-0.8,0.1-1.2,0.1c-0.8,0-1.5-0.1-2.2-0.4s-1.3-0.6-1.8-1.2c-0.5-0.5-0.9-1.1-1.2-1.9s-0.4-1.6-0.4-2.6
			c0-0.8,0.1-1.5,0.4-2.2c0.2-0.7,0.6-1.3,1.1-1.8s1-0.9,1.7-1.2C689,162,689.8,161.8,690.6,161.8z M690.7,163.8
			c-0.8,0-1.4,0.2-1.9,0.7s-0.7,1.1-0.9,1.9h5.1c0-0.4,0-0.7-0.1-1s-0.2-0.6-0.4-0.8s-0.4-0.4-0.7-0.6
			C691.5,163.8,691.1,163.8,690.7,163.8z"/>
		<path d="M697.7,173.3V162h1.6c0.3,0,0.5,0.1,0.6,0.2c0.1,0.1,0.2,0.3,0.2,0.5l0.2,1.4c0.4-0.7,0.9-1.2,1.4-1.6
			c0.5-0.4,1.2-0.6,1.8-0.6s1,0.1,1.4,0.4l-0.4,2c0,0.1-0.1,0.2-0.1,0.3c-0.1,0.1-0.2,0.1-0.3,0.1s-0.3,0-0.5-0.1s-0.4-0.1-0.8-0.1
			c-0.6,0-1,0.2-1.5,0.5s-0.7,0.8-1,1.4v7L697.7,173.3L697.7,173.3L697.7,173.3z"/>
		<path d="M712.4,173.3h-2.5l-4.5-11.3h2.3c0.2,0,0.4,0,0.5,0.1s0.2,0.2,0.3,0.4l2.2,6c0.1,0.4,0.2,0.7,0.3,1s0.2,0.7,0.2,1
			c0.1-0.3,0.1-0.7,0.2-1c0.1-0.3,0.2-0.7,0.3-1l2.2-6c0.1-0.1,0.1-0.3,0.3-0.4c0.1-0.1,0.3-0.1,0.5-0.1h2.1L712.4,173.3z"/>
		<path d="M722.8,161.8c0.7,0,1.4,0.1,2,0.3s1.1,0.6,1.5,1s0.8,1,1,1.6s0.4,1.4,0.4,2.2c0,0.2,0,0.4,0,0.5s-0.1,0.2-0.1,0.3
			s-0.1,0.1-0.2,0.2c-0.1,0-0.2,0-0.3,0h-7c0.1,1.2,0.4,2,0.9,2.6c0.5,0.5,1.3,0.8,2.2,0.8c0.4,0,0.8-0.1,1.1-0.2s0.6-0.2,0.8-0.3
			s0.4-0.2,0.6-0.3c0.2-0.1,0.4-0.2,0.5-0.2s0.2,0,0.3,0.1c0.1,0,0.2,0.1,0.2,0.2l0.8,1c-0.3,0.4-0.6,0.6-1,0.9
			c-0.4,0.2-0.8,0.4-1.2,0.6c-0.4,0.1-0.8,0.2-1.2,0.3s-0.8,0.1-1.2,0.1c-0.8,0-1.5-0.1-2.2-0.4s-1.3-0.6-1.8-1.2
			c-0.5-0.5-0.9-1.1-1.2-1.9s-0.4-1.6-0.4-2.6c0-0.8,0.1-1.5,0.4-2.2c0.2-0.7,0.6-1.3,1.1-1.8s1-0.9,1.7-1.2
			C721.2,162,721.9,161.8,722.8,161.8z M722.8,163.8c-0.8,0-1.4,0.2-1.9,0.7s-0.7,1.1-0.9,1.9h5.1c0-0.4,0-0.7-0.1-1
			s-0.2-0.6-0.4-0.8s-0.4-0.4-0.7-0.6C723.6,163.8,723.2,163.8,722.8,163.8z"/>
		<path d="M729.9,173.3V162h1.7c0.4,0,0.6,0.2,0.7,0.5l0.2,0.9c0.2-0.2,0.5-0.4,0.7-0.6s0.5-0.4,0.8-0.5s0.6-0.2,0.9-0.3
			c0.3-0.1,0.7-0.1,1.1-0.1c0.6,0,1.2,0.1,1.6,0.3c0.5,0.2,0.9,0.5,1.2,0.9s0.6,0.8,0.7,1.4c0.1,0.6,0.2,1.1,0.2,1.7v7.2H737v-7.2
			c0-0.7-0.2-1.2-0.5-1.6c-0.3-0.4-0.8-0.6-1.4-0.6c-0.5,0-0.9,0.1-1.3,0.3c-0.4,0.2-0.8,0.5-1.2,0.9v8.2L729.9,173.3L729.9,173.3
			L729.9,173.3z"/>
		<path d="M746.1,173.4c-1,0-1.7-0.3-2.3-0.8c-0.5-0.6-0.8-1.3-0.8-2.3V164h-1.1c-0.1,0-0.3,0-0.4-0.1c-0.1-0.1-0.2-0.2-0.2-0.4
			v-1.1l1.8-0.3l0.6-3.1c0-0.1,0.1-0.3,0.2-0.3c0.1-0.1,0.2-0.1,0.4-0.1h1.4v3.6h3v1.9h-3v6.1c0,0.4,0.1,0.6,0.3,0.8
			s0.4,0.3,0.7,0.3c0.2,0,0.3,0,0.4-0.1c0.1,0,0.2-0.1,0.3-0.1s0.2-0.1,0.2-0.1c0.1,0,0.1-0.1,0.2-0.1c0.1,0,0.1,0,0.2,0.1
			c0.1,0,0.1,0.1,0.2,0.2l0.8,1.3c-0.4,0.3-0.9,0.6-1.4,0.7C747.1,173.3,746.6,173.4,746.1,173.4z"/>
		<path d="M754.2,158.8c0,0.2,0,0.5-0.1,0.7s-0.2,0.4-0.4,0.5s-0.3,0.3-0.6,0.4c-0.2,0.1-0.4,0.1-0.7,0.1c-0.2,0-0.5,0-0.7-0.1
			s-0.4-0.2-0.5-0.4s-0.3-0.3-0.4-0.5c-0.1-0.2-0.1-0.4-0.1-0.7c0-0.2,0-0.5,0.1-0.7s0.2-0.4,0.4-0.5c0.2-0.2,0.3-0.3,0.5-0.4
			s0.4-0.1,0.7-0.1c0.2,0,0.5,0,0.7,0.1s0.4,0.2,0.6,0.4c0.2,0.2,0.3,0.3,0.4,0.5C754.1,158.2,754.2,158.5,754.2,158.8z M753.8,162
			v11.3h-2.7V162H753.8z"/>
		<path d="M761.7,161.8c0.8,0,1.6,0.1,2.3,0.4s1.3,0.7,1.8,1.2s0.9,1.1,1.1,1.8c0.3,0.7,0.4,1.5,0.4,2.4s-0.1,1.7-0.4,2.4
			c-0.3,0.7-0.6,1.3-1.1,1.8s-1.1,0.9-1.8,1.2s-1.5,0.4-2.3,0.4s-1.6-0.1-2.3-0.4s-1.3-0.7-1.8-1.2s-0.9-1.1-1.1-1.8
			c-0.2-0.7-0.4-1.5-0.4-2.4s0.1-1.7,0.4-2.4c0.3-0.7,0.6-1.3,1.1-1.8s1.1-0.9,1.8-1.2C760.1,161.9,760.8,161.8,761.7,161.8z
			 M761.7,171.3c0.9,0,1.6-0.3,2.1-0.9c0.5-0.6,0.7-1.6,0.7-2.8s-0.2-2.1-0.7-2.8c-0.5-0.6-1.1-1-2.1-1s-1.7,0.3-2.1,1
			c-0.5,0.6-0.7,1.6-0.7,2.8s0.2,2.1,0.7,2.8C760,171,760.7,171.3,761.7,171.3z"/>
		<path d="M769.3,173.3V162h1.7c0.4,0,0.6,0.2,0.7,0.5l0.2,0.9c0.2-0.2,0.5-0.4,0.7-0.6c0.3-0.2,0.5-0.4,0.8-0.5s0.6-0.2,0.9-0.3
			s0.7-0.1,1.1-0.1c0.6,0,1.2,0.1,1.6,0.3c0.5,0.2,0.9,0.5,1.2,0.9s0.6,0.8,0.7,1.4c0.2,0.5,0.2,1.1,0.2,1.7v7.2h-2.7v-7.2
			c0-0.7-0.2-1.2-0.5-1.6c-0.3-0.4-0.8-0.6-1.4-0.6c-0.5,0-0.9,0.1-1.3,0.3c-0.4,0.2-0.8,0.5-1.2,0.9v8.2L769.3,173.3L769.3,173.3z"
			/>
		<path d="M788.6,164.2c-0.1,0.1-0.2,0.2-0.2,0.2c-0.1,0-0.2,0.1-0.3,0.1s-0.3,0-0.4-0.1s-0.3-0.2-0.5-0.2c-0.2-0.1-0.4-0.2-0.7-0.2
			s-0.6-0.1-0.9-0.1c-0.5,0-1,0.1-1.3,0.3s-0.5,0.5-0.5,0.9c0,0.2,0.1,0.4,0.2,0.6c0.1,0.2,0.4,0.3,0.6,0.4c0.2,0.1,0.6,0.2,0.9,0.3
			c0.3,0.1,0.7,0.2,1,0.3s0.7,0.3,1,0.4s0.6,0.3,0.9,0.6c0.3,0.2,0.5,0.5,0.6,0.8c0.2,0.3,0.2,0.7,0.2,1.2s-0.1,1-0.3,1.5
			s-0.5,0.9-0.9,1.2s-0.9,0.6-1.4,0.8s-1.2,0.3-1.9,0.3c-0.4,0-0.8,0-1.1-0.1s-0.7-0.2-1.1-0.3c-0.3-0.1-0.7-0.3-0.9-0.4
			c-0.3-0.2-0.5-0.4-0.8-0.5l0.6-1c0.1-0.1,0.2-0.2,0.3-0.3s0.2-0.1,0.4-0.1s0.3,0,0.5,0.1s0.3,0.2,0.5,0.3s0.4,0.2,0.7,0.3
			s0.6,0.1,1,0.1c0.3,0,0.6,0,0.8-0.1s0.4-0.2,0.6-0.3c0.2-0.1,0.3-0.3,0.3-0.4c0.1-0.2,0.1-0.3,0.1-0.5c0-0.3-0.1-0.5-0.2-0.6
			c-0.2-0.2-0.4-0.3-0.6-0.4c-0.3-0.1-0.6-0.2-0.9-0.3c-0.3-0.1-0.7-0.2-1-0.3s-0.7-0.3-1-0.4c-0.3-0.2-0.6-0.4-0.9-0.6
			c-0.3-0.2-0.5-0.5-0.6-0.9c-0.2-0.4-0.2-0.8-0.2-1.3s0.1-0.9,0.3-1.3c0.2-0.4,0.5-0.8,0.8-1.1s0.8-0.6,1.3-0.7
			c0.5-0.2,1.1-0.3,1.8-0.3c0.8,0,1.5,0.1,2.1,0.4s1.2,0.6,1.6,1L788.6,164.2z"/>
	</g>
	<g>
		<path d="M33.4,167.9c0.2,0,0.3,0.1,0.4,0.2l1.2,1.3c-0.6,0.8-1.4,1.4-2.4,1.8c-0.9,0.4-2.1,0.6-3.4,0.6c-1.2,0-2.2-0.2-3.2-0.6
			c-1-0.4-1.7-1-2.4-1.7c-0.7-0.7-1.2-1.6-1.5-2.6c-0.4-1-0.5-2.1-0.5-3.3s0.2-2.3,0.6-3.3s1-1.8,1.7-2.6c0.7-0.7,1.6-1.3,2.6-1.7
			s2.1-0.6,3.3-0.6c1.2,0,2.2,0.2,3.1,0.6c0.9,0.4,1.6,0.9,2.3,1.5l-1,1.4c-0.1,0.1-0.1,0.2-0.2,0.2c-0.1,0.1-0.2,0.1-0.4,0.1
			s-0.3-0.1-0.5-0.2c-0.2-0.1-0.4-0.3-0.7-0.4c-0.3-0.2-0.6-0.3-1-0.4c-0.4-0.1-0.9-0.2-1.6-0.2s-1.4,0.1-2.1,0.4
			c-0.6,0.3-1.2,0.6-1.6,1.1c-0.5,0.5-0.8,1.1-1.1,1.8c-0.3,0.7-0.4,1.5-0.4,2.3c0,0.9,0.1,1.7,0.4,2.4s0.6,1.3,1,1.8
			s0.9,0.8,1.5,1.1s1.2,0.4,1.9,0.4c0.4,0,0.8,0,1.1-0.1c0.3,0,0.6-0.1,0.9-0.2c0.3-0.1,0.5-0.2,0.8-0.4c0.3-0.2,0.5-0.3,0.7-0.6
			c0.1-0.1,0.2-0.1,0.2-0.2C33.1,167.7,33.3,167.9,33.4,167.9z"/>
		<path d="M41.9,160.2c0.8,0,1.6,0.1,2.3,0.4s1.3,0.7,1.8,1.2s0.9,1.1,1.1,1.8s0.4,1.5,0.4,2.4s-0.1,1.7-0.4,2.4s-0.6,1.3-1.1,1.8
			s-1.1,0.9-1.8,1.2s-1.5,0.4-2.3,0.4s-1.6-0.1-2.3-0.4c-0.7-0.3-1.3-0.7-1.8-1.2s-0.9-1.1-1.1-1.8c-0.3-0.7-0.4-1.5-0.4-2.4
			s0.1-1.7,0.4-2.4c0.3-0.7,0.6-1.3,1.1-1.8s1.1-0.9,1.8-1.2C40.2,160.3,41,160.2,41.9,160.2z M41.9,169.7c0.9,0,1.6-0.3,2.1-0.9
			s0.7-1.6,0.7-2.8s-0.2-2.1-0.7-2.8c-0.5-0.6-1.1-1-2.1-1s-1.7,0.3-2.1,1c-0.5,0.6-0.7,1.6-0.7,2.8s0.2,2.1,0.7,2.8
			C40.2,169.4,40.9,169.7,41.9,169.7z"/>
		<path d="M49.5,171.6v-11.3h1.7c0.4,0,0.6,0.2,0.7,0.5l0.2,0.8c0.2-0.2,0.4-0.4,0.6-0.6c0.2-0.2,0.4-0.3,0.7-0.5s0.5-0.2,0.8-0.3
			s0.6-0.1,0.9-0.1c0.7,0,1.3,0.2,1.8,0.6c0.5,0.4,0.8,0.9,1,1.5c0.2-0.4,0.4-0.7,0.7-1s0.6-0.5,0.9-0.7c0.3-0.2,0.7-0.3,1-0.4
			s0.7-0.1,1.1-0.1c0.6,0,1.2,0.1,1.7,0.3s0.9,0.5,1.2,0.8c0.3,0.4,0.6,0.8,0.8,1.3s0.3,1.1,0.3,1.8v7.2h-2.7v-7.2
			c0-0.7-0.2-1.3-0.5-1.6c-0.3-0.4-0.8-0.5-1.4-0.5c-0.3,0-0.5,0-0.8,0.1c-0.2,0.1-0.4,0.2-0.6,0.4c-0.2,0.2-0.3,0.4-0.4,0.7
			s-0.2,0.6-0.2,0.9v7.2h-2.7v-7.2c0-0.8-0.2-1.3-0.5-1.7S55,162,54.5,162c-0.4,0-0.8,0.1-1.1,0.3s-0.7,0.5-1,0.8v8.3h-2.9
			C49.5,171.4,49.5,171.6,49.5,171.6z"/>
		<path d="M68.1,175.3v-15h1.7c0.2,0,0.3,0,0.5,0.1s0.2,0.2,0.2,0.4l0.2,1c0.5-0.5,1-0.9,1.6-1.3c0.6-0.3,1.3-0.5,2.1-0.5
			c0.6,0,1.2,0.1,1.7,0.4c0.5,0.3,0.9,0.6,1.3,1.1s0.7,1.1,0.9,1.8c0.2,0.7,0.3,1.5,0.3,2.5c0,0.8-0.1,1.6-0.3,2.3
			c-0.2,0.7-0.6,1.3-1,1.9c-0.4,0.5-0.9,0.9-1.5,1.2s-1.3,0.4-2,0.4c-0.6,0-1.2-0.1-1.6-0.3s-0.8-0.5-1.2-0.8v4.6h-2.9
			C68.1,175.1,68.1,175.3,68.1,175.3z M73.3,162.3c-0.6,0-1,0.1-1.4,0.4c-0.4,0.2-0.8,0.6-1.1,1v5.1c0.3,0.4,0.6,0.6,1,0.8
			s0.8,0.2,1.2,0.2c0.4,0,0.8-0.1,1.1-0.2c0.3-0.2,0.6-0.4,0.8-0.7s0.4-0.7,0.5-1.2s0.2-1,0.2-1.7s-0.1-1.2-0.2-1.7
			s-0.3-0.8-0.5-1.1s-0.4-0.5-0.7-0.6C74,162.3,73.7,162.3,73.3,162.3z"/>
		<path d="M84.2,171.8c-1,0-1.7-0.3-2.3-0.8c-0.5-0.6-0.8-1.3-0.8-2.3v-6.3H80c-0.1,0-0.3,0-0.4-0.1s-0.2-0.2-0.2-0.4v-1.1l1.8-0.3
			l0.6-3.1c0-0.1,0.1-0.3,0.2-0.3c0.1-0.1,0.2-0.1,0.4-0.1h1.4v3.6h3v1.9h-3v6.1c0,0.4,0.1,0.6,0.3,0.8c0.2,0.2,0.4,0.3,0.7,0.3
			c0.2,0,0.3,0,0.4-0.1c0.1,0,0.2-0.1,0.3-0.1c0.1,0,0.2-0.1,0.2-0.1c0.1,0,0.1-0.1,0.2-0.1s0.1,0,0.2,0.1c0.1,0,0.1,0.1,0.2,0.2
			l0.8,1.3c-0.4,0.3-0.9,0.6-1.4,0.7C85.2,171.7,84.8,171.8,84.2,171.8z"/>
		<path d="M97.9,171.6h-1.2c-0.3,0-0.5,0-0.6-0.1s-0.3-0.2-0.3-0.5l-0.2-0.8c-0.3,0.3-0.6,0.5-0.8,0.7c-0.3,0.2-0.6,0.4-0.9,0.5
			s-0.6,0.2-0.9,0.3c-0.5,0.1-0.9,0.1-1.3,0.1c-0.5,0-0.9-0.1-1.3-0.2s-0.8-0.3-1-0.6c-0.3-0.3-0.5-0.6-0.7-1s-0.2-0.8-0.2-1.3
			c0-0.4,0.1-0.8,0.3-1.3c0.2-0.4,0.6-0.8,1.1-1.1s1.2-0.6,2.1-0.8s1.9-0.3,3.2-0.3v-0.7c0-0.8-0.2-1.3-0.5-1.7s-0.8-0.5-1.4-0.5
			c-0.4,0-0.8,0.1-1.1,0.2c-0.3,0.1-0.5,0.2-0.8,0.3c-0.2,0.1-0.4,0.2-0.6,0.3s-0.4,0.2-0.6,0.2s-0.3,0-0.5-0.1
			c-0.1-0.1-0.2-0.2-0.3-0.4l-0.4-0.9c1.3-1.2,2.9-1.8,4.7-1.8c0.7,0,1.2,0.1,1.8,0.3c0.5,0.2,1,0.5,1.3,0.9s0.6,0.8,0.8,1.4
			c0.2,0.6,0.3,1.1,0.3,1.8V171.6z M92.6,169.9c0.3,0,0.5,0,0.8-0.1c0.2-0.1,0.5-0.1,0.7-0.2s0.4-0.2,0.6-0.4
			c0.2-0.1,0.4-0.3,0.6-0.5v-1.9c-0.8,0-1.5,0-2,0.1s-1,0.2-1.3,0.4s-0.6,0.3-0.7,0.5s-0.2,0.4-0.2,0.7c0,0.5,0.1,0.8,0.4,1
			C91.8,169.8,92.1,169.9,92.6,169.9z"/>
		<path d="M100.6,171.6v-16.3h2.7v6.4c0.4-0.5,1-0.9,1.5-1.1c0.6-0.3,1.2-0.4,2-0.4c0.6,0,1.2,0.1,1.7,0.4s0.9,0.6,1.3,1.1
			s0.7,1.1,0.9,1.8c0.2,0.7,0.3,1.5,0.3,2.5c0,0.8-0.1,1.6-0.3,2.3c-0.2,0.7-0.6,1.3-1,1.9c-0.4,0.5-0.9,0.9-1.5,1.2s-1.3,0.4-2,0.4
			c-0.3,0-0.7,0-0.9-0.1c-0.3-0.1-0.5-0.2-0.8-0.3c-0.2-0.1-0.5-0.3-0.7-0.5s-0.4-0.4-0.6-0.6l-0.1,0.8c0,0.2-0.1,0.3-0.2,0.4
			s-0.3,0.1-0.4,0.1C102.5,171.6,100.6,171.6,100.6,171.6z M105.8,162.3c-0.6,0-1,0.1-1.4,0.4c-0.4,0.2-0.8,0.6-1.1,1v5.1
			c0.3,0.4,0.6,0.6,1,0.8s0.8,0.2,1.2,0.2c0.4,0,0.8-0.1,1.1-0.2c0.3-0.2,0.6-0.4,0.8-0.7c0.2-0.3,0.4-0.7,0.5-1.2s0.2-1,0.2-1.7
			s-0.1-1.2-0.2-1.7s-0.3-0.8-0.5-1.1s-0.4-0.5-0.7-0.6C106.5,162.3,106.2,162.3,105.8,162.3z"/>
		<path d="M116.4,157.1c0,0.2,0,0.5-0.1,0.7s-0.2,0.4-0.4,0.5s-0.3,0.3-0.6,0.4c-0.2,0.1-0.4,0.1-0.7,0.1c-0.2,0-0.5,0-0.7-0.1
			s-0.4-0.2-0.5-0.4c-0.2-0.2-0.3-0.3-0.4-0.5s-0.1-0.4-0.1-0.7c0-0.2,0-0.5,0.1-0.7s0.2-0.4,0.4-0.5c0.2-0.2,0.3-0.3,0.5-0.4
			c0.2-0.1,0.4-0.1,0.7-0.1c0.2,0,0.5,0,0.7,0.1s0.4,0.2,0.6,0.4s0.3,0.3,0.4,0.5S116.4,156.8,116.4,157.1z M116,160.3v11.3h-2.7
			v-11.3H116z"/>
		<path d="M121.9,155.3v16.3h-2.7v-16.3H121.9z"/>
		<path d="M128.3,157.1c0,0.2,0,0.5-0.1,0.7s-0.2,0.4-0.4,0.5s-0.3,0.3-0.6,0.4c-0.2,0.1-0.4,0.1-0.7,0.1c-0.2,0-0.5,0-0.7-0.1
			s-0.4-0.2-0.5-0.4c-0.2-0.2-0.3-0.3-0.4-0.5s-0.1-0.4-0.1-0.7c0-0.2,0-0.5,0.1-0.7s0.2-0.4,0.4-0.5c0.2-0.2,0.3-0.3,0.5-0.4
			c0.2-0.1,0.4-0.1,0.7-0.1c0.2,0,0.5,0,0.7,0.1s0.4,0.2,0.6,0.4s0.3,0.3,0.4,0.5S128.3,156.8,128.3,157.1z M127.9,160.3v11.3h-2.7
			v-11.3H127.9z"/>
		<path d="M134.7,171.8c-1,0-1.7-0.3-2.3-0.8c-0.5-0.6-0.8-1.3-0.8-2.3v-6.3h-1.1c-0.1,0-0.3,0-0.4-0.1c-0.1-0.1-0.2-0.2-0.2-0.4
			v-1.1l1.8-0.3l0.6-3.1c0-0.1,0.1-0.3,0.2-0.3c0.1-0.1,0.2-0.1,0.4-0.1h1.4v3.6h3v1.9h-3v6.1c0,0.4,0.1,0.6,0.3,0.8
			s0.4,0.3,0.7,0.3c0.2,0,0.3,0,0.4-0.1c0.1,0,0.2-0.1,0.3-0.1s0.2-0.1,0.2-0.1c0.1,0,0.1-0.1,0.2-0.1c0.1,0,0.1,0,0.2,0.1
			c0.1,0,0.1,0.1,0.2,0.2l0.8,1.3c-0.4,0.3-0.9,0.6-1.4,0.7C135.7,171.7,135.2,171.8,134.7,171.8z"/>
		<path d="M144.1,160.2c0.7,0,1.4,0.1,2,0.3s1.1,0.6,1.5,1s0.8,1,1,1.6s0.4,1.4,0.4,2.2c0,0.2,0,0.4,0,0.5s-0.1,0.2-0.1,0.3
			s-0.1,0.1-0.2,0.2c-0.1,0-0.2,0-0.3,0h-7c0.1,1.2,0.4,2,0.9,2.6c0.5,0.5,1.3,0.8,2.2,0.8c0.4,0,0.8-0.1,1.1-0.2
			c0.3-0.1,0.6-0.2,0.8-0.3s0.4-0.2,0.6-0.3c0.2-0.1,0.4-0.2,0.5-0.2s0.2,0,0.3,0.1s0.2,0.1,0.2,0.2l0.8,1c-0.3,0.4-0.6,0.6-1,0.9
			c-0.4,0.3-0.8,0.4-1.2,0.6c-0.4,0.1-0.8,0.2-1.2,0.3s-0.8,0.1-1.2,0.1c-0.8,0-1.5-0.1-2.2-0.4s-1.3-0.6-1.8-1.2
			c-0.5-0.5-0.9-1.1-1.2-1.9c-0.3-0.8-0.4-1.6-0.4-2.6c0-0.8,0.1-1.5,0.4-2.2c0.2-0.7,0.6-1.3,1.1-1.8s1-0.9,1.7-1.2
			C142.5,160.3,143.3,160.2,144.1,160.2z M144.2,162.1c-0.8,0-1.4,0.2-1.9,0.7s-0.7,1.1-0.9,1.9h5.1c0-0.4,0-0.7-0.1-1
			s-0.2-0.6-0.4-0.8s-0.4-0.4-0.7-0.6S144.6,162.1,144.2,162.1z M148,155.5l-2.7,2.9c-0.1,0.1-0.3,0.2-0.4,0.3
			c-0.1,0.1-0.3,0.1-0.5,0.1h-1.6l1.6-2.7c0.1-0.2,0.2-0.3,0.4-0.4c0.1-0.1,0.4-0.1,0.7-0.1h2.5V155.5z"/>
	</g>
	<g>
		<path d="M275.5,173.4h-2.3c-0.3,0-0.5-0.1-0.6-0.2c-0.1-0.1-0.3-0.3-0.4-0.5l-1.2-3.2h-6.6l-1.2,3.2c-0.1,0.2-0.2,0.3-0.3,0.5
			c-0.1,0.2-0.4,0.2-0.6,0.2H260l6.2-15.9h3L275.5,173.4z M265.2,167.4h5.1l-1.9-5.3c-0.1-0.2-0.2-0.5-0.3-0.8
			c-0.1-0.3-0.2-0.7-0.3-1c-0.1,0.4-0.2,0.7-0.3,1c-0.1,0.3-0.2,0.6-0.3,0.8L265.2,167.4z"/>
		<path d="M285,164.5c-0.1,0.1-0.2,0.2-0.2,0.2c-0.1,0.1-0.2,0.1-0.3,0.1c-0.1,0-0.3,0-0.4-0.1s-0.3-0.2-0.5-0.3s-0.4-0.2-0.7-0.3
			c-0.3-0.1-0.6-0.1-0.9-0.1c-0.5,0-0.9,0.1-1.3,0.3s-0.7,0.4-0.9,0.7s-0.4,0.7-0.5,1.2s-0.2,1-0.2,1.6s0.1,1.1,0.2,1.6
			s0.3,0.9,0.6,1.2c0.2,0.3,0.5,0.6,0.9,0.7c0.4,0.1,0.7,0.2,1.2,0.2s0.8-0.1,1.1-0.2c0.3-0.1,0.5-0.2,0.7-0.4
			c0.2-0.1,0.3-0.2,0.5-0.4c0.1-0.1,0.3-0.2,0.5-0.2s0.4,0.1,0.5,0.3l0.8,1c-0.3,0.4-0.6,0.6-1,0.9s-0.7,0.4-1.1,0.6
			c-0.4,0.1-0.8,0.2-1.2,0.3c-0.4,0.1-0.8,0.1-1.2,0.1c-0.7,0-1.4-0.1-2-0.4c-0.6-0.3-1.2-0.6-1.6-1.1c-0.5-0.5-0.8-1.1-1.1-1.8
			c-0.3-0.7-0.4-1.5-0.4-2.5c0-0.8,0.1-1.6,0.4-2.3c0.2-0.7,0.6-1.3,1.1-1.8s1-0.9,1.7-1.2s1.5-0.4,2.4-0.4c0.8,0,1.6,0.1,2.2,0.4
			c0.6,0.3,1.2,0.7,1.7,1.2L285,164.5z"/>
		<path d="M287.5,173.4V157h2.7v6.3c0.4-0.4,0.9-0.8,1.5-1c0.5-0.3,1.1-0.4,1.9-0.4c0.6,0,1.2,0.1,1.6,0.3c0.5,0.2,0.9,0.5,1.2,0.9
			c0.3,0.4,0.6,0.8,0.7,1.4s0.2,1.1,0.2,1.7v7.2h-2.7v-7.2c0-0.7-0.2-1.2-0.5-1.6s-0.8-0.6-1.4-0.6c-0.5,0-0.9,0.1-1.3,0.3
			s-0.8,0.5-1.2,0.9v8.2C290.2,173.4,287.5,173.4,287.5,173.4z"/>
		<path d="M308.9,173.4h-1.2c-0.3,0-0.5,0-0.6-0.1s-0.3-0.2-0.3-0.5l-0.2-0.8c-0.3,0.3-0.6,0.5-0.8,0.7c-0.2,0.2-0.6,0.4-0.9,0.5
			s-0.6,0.2-0.9,0.3s-0.7,0.1-1.1,0.1c-0.5,0-0.9-0.1-1.3-0.2c-0.4-0.1-0.8-0.3-1-0.6c-0.3-0.3-0.5-0.6-0.7-1s-0.2-0.8-0.2-1.3
			c0-0.4,0.1-0.8,0.3-1.3s0.6-0.8,1.1-1.1s1.2-0.6,2.1-0.8s1.9-0.3,3.2-0.3v-0.7c0-0.8-0.2-1.3-0.5-1.7s-0.8-0.5-1.4-0.5
			c-0.4,0-0.8,0.1-1.1,0.2c-0.3,0.1-0.5,0.2-0.8,0.3c-0.2,0.1-0.4,0.2-0.6,0.3s-0.4,0.2-0.6,0.2s-0.3,0-0.5-0.1
			c-0.1-0.1-0.2-0.2-0.3-0.4l-0.5-0.9c1.3-1.2,2.9-1.8,4.7-1.8c0.7,0,1.2,0.1,1.8,0.3s1,0.5,1.3,0.9c0.4,0.4,0.6,0.8,0.8,1.4
			c0.2,0.5,0.3,1.1,0.3,1.8L308.9,173.4L308.9,173.4z M303.6,171.7c0.3,0,0.5,0,0.8-0.1c0.2-0.1,0.5-0.1,0.7-0.2
			c0.2-0.1,0.4-0.2,0.6-0.4c0.2-0.1,0.4-0.3,0.6-0.5v-1.9c-0.8,0-1.5,0-2,0.1s-1,0.2-1.3,0.4s-0.6,0.3-0.7,0.5s-0.2,0.4-0.2,0.7
			c0,0.5,0.1,0.8,0.4,1C302.8,171.6,303.1,171.7,303.6,171.7z"/>
		<path d="M315.2,173.6c-1,0-1.7-0.3-2.3-0.8c-0.5-0.6-0.8-1.3-0.8-2.3v-6.3H311c-0.1,0-0.3,0-0.4-0.1s-0.2-0.2-0.2-0.4v-1.1
			l1.8-0.3l0.6-3.1c0-0.1,0.1-0.3,0.2-0.3c0.1-0.1,0.2-0.1,0.4-0.1h1.4v3.6h3v1.9h-3v6.1c0,0.4,0.1,0.6,0.3,0.8
			c0.2,0.2,0.4,0.3,0.7,0.3c0.2,0,0.3,0,0.4-0.1c0.1,0,0.2-0.1,0.3-0.1c0.1,0,0.2-0.1,0.2-0.1c0.1,0,0.1-0.1,0.2-0.1s0.1,0,0.2,0.1
			c0.1,0,0.1,0.1,0.2,0.2l0.8,1.3c-0.4,0.3-0.9,0.6-1.4,0.7C316.3,173.5,315.8,173.6,315.2,173.6z"/>
		<path d="M326.8,164.3c-0.1,0.1-0.2,0.2-0.2,0.2s-0.2,0.1-0.3,0.1c-0.1,0-0.3,0-0.4-0.1s-0.3-0.2-0.5-0.2c-0.2-0.1-0.4-0.2-0.7-0.2
			c-0.3-0.1-0.6-0.1-0.9-0.1c-0.5,0-1,0.1-1.3,0.3s-0.5,0.5-0.5,0.9c0,0.2,0.1,0.4,0.2,0.6s0.4,0.3,0.6,0.4c0.3,0.1,0.6,0.2,0.9,0.3
			s0.7,0.2,1,0.3s0.7,0.3,1,0.4s0.6,0.3,0.9,0.6c0.3,0.2,0.5,0.5,0.6,0.8c0.2,0.3,0.2,0.7,0.2,1.2s-0.1,1-0.3,1.5
			c-0.2,0.5-0.5,0.9-0.9,1.2s-0.9,0.6-1.4,0.8s-1.2,0.3-1.9,0.3c-0.4,0-0.8,0-1.1-0.1c-0.4-0.1-0.7-0.2-1.1-0.3
			c-0.3-0.1-0.7-0.3-0.9-0.4c-0.3-0.2-0.5-0.4-0.8-0.5l0.6-1c0.1-0.1,0.2-0.2,0.3-0.3c0.1-0.1,0.2-0.1,0.4-0.1c0.2,0,0.3,0,0.5,0.1
			s0.3,0.2,0.5,0.3s0.4,0.2,0.7,0.3c0.3,0.1,0.6,0.1,1,0.1c0.3,0,0.6,0,0.8-0.1c0.2-0.1,0.4-0.2,0.6-0.3c0.1-0.1,0.3-0.3,0.3-0.4
			c0.1-0.2,0.1-0.3,0.1-0.5c0-0.3-0.1-0.5-0.2-0.6c-0.2-0.2-0.4-0.3-0.6-0.4c-0.3-0.1-0.6-0.2-0.9-0.3s-0.7-0.2-1-0.3
			s-0.7-0.3-1-0.4c-0.3-0.1-0.6-0.4-0.9-0.6s-0.5-0.5-0.6-0.9s-0.2-0.8-0.2-1.3s0.1-0.9,0.3-1.3c0.2-0.4,0.5-0.8,0.8-1.1
			c0.4-0.3,0.8-0.6,1.3-0.7s1.1-0.3,1.8-0.3c0.8,0,1.5,0.1,2.1,0.4c0.6,0.3,1.2,0.6,1.6,1L326.8,164.3z"/>
	</g>
	<g>
		<path d="M489.3,160.4c-0.1,0.2-0.2,0.3-0.3,0.3c-0.1,0.1-0.2,0.1-0.4,0.1c-0.1,0-0.3-0.1-0.5-0.2s-0.4-0.2-0.6-0.4
			c-0.2-0.1-0.5-0.3-0.9-0.4c-0.3-0.1-0.7-0.2-1.2-0.2c-0.4,0-0.8,0-1.1,0.1c-0.3,0.1-0.6,0.2-0.8,0.4c-0.2,0.2-0.4,0.4-0.5,0.6
			c-0.1,0.2-0.2,0.5-0.2,0.8c0,0.4,0.1,0.7,0.3,0.9c0.2,0.2,0.5,0.5,0.8,0.6c0.3,0.2,0.7,0.3,1.2,0.5s0.9,0.3,1.3,0.4
			c0.5,0.2,0.9,0.3,1.3,0.6c0.4,0.2,0.8,0.5,1.2,0.8c0.3,0.3,0.6,0.7,0.8,1.2s0.3,1,0.3,1.7s-0.1,1.4-0.4,2s-0.6,1.2-1.1,1.6
			c-0.5,0.5-1.1,0.8-1.7,1.1c-0.7,0.3-1.5,0.4-2.3,0.4c-0.5,0-1,0-1.5-0.1s-1-0.2-1.4-0.4c-0.5-0.2-0.9-0.4-1.3-0.7
			s-0.7-0.5-1.1-0.9l0.9-1.4c0.1-0.1,0.2-0.2,0.3-0.3s0.2-0.1,0.4-0.1c0.2,0,0.4,0.1,0.6,0.2c0.2,0.2,0.5,0.3,0.8,0.5s0.6,0.4,1,0.5
			c0.4,0.2,0.9,0.2,1.4,0.2c0.8,0,1.5-0.2,2-0.6s0.7-1,0.7-1.7c0-0.4-0.1-0.8-0.3-1c-0.2-0.3-0.5-0.5-0.8-0.7s-0.7-0.3-1.2-0.5
			s-0.9-0.3-1.3-0.4c-0.5-0.1-0.9-0.3-1.3-0.5s-0.8-0.5-1.2-0.8c-0.3-0.3-0.6-0.7-0.8-1.2s-0.3-1.1-0.3-1.8c0-0.6,0.1-1.1,0.3-1.7
			c0.2-0.6,0.6-1,1-1.5c0.4-0.4,1-0.8,1.6-1c0.6-0.3,1.4-0.4,2.2-0.4c0.9,0,1.8,0.1,2.6,0.4c0.8,0.3,1.5,0.7,2,1.2L489.3,160.4z"/>
		<path d="M496.2,173.6c-1,0-1.7-0.3-2.3-0.8c-0.5-0.6-0.8-1.3-0.8-2.3v-6.3H492c-0.1,0-0.3,0-0.4-0.1s-0.2-0.2-0.2-0.4v-1.1
			l1.8-0.3l0.6-3.1c0-0.1,0.1-0.3,0.2-0.3c0.1-0.1,0.2-0.1,0.4-0.1h1.4v3.6h3v1.9h-3v6.1c0,0.4,0.1,0.6,0.3,0.8
			c0.2,0.2,0.4,0.3,0.7,0.3c0.2,0,0.3,0,0.4-0.1c0.1,0,0.2-0.1,0.3-0.1c0.1,0,0.2-0.1,0.2-0.1c0.1,0,0.1-0.1,0.2-0.1s0.1,0,0.2,0.1
			c0.1,0,0.1,0.1,0.2,0.2l0.8,1.3c-0.4,0.3-0.9,0.6-1.4,0.7C497.3,173.5,496.7,173.6,496.2,173.6z"/>
		<path d="M505.8,161.9c0.8,0,1.6,0.1,2.3,0.4c0.7,0.3,1.3,0.7,1.8,1.2s0.9,1.1,1.1,1.8c0.3,0.7,0.4,1.5,0.4,2.4s-0.1,1.7-0.4,2.4
			s-0.6,1.3-1.1,1.8s-1.1,0.9-1.8,1.2c-0.7,0.3-1.4,0.4-2.3,0.4s-1.6-0.1-2.3-0.4c-0.7-0.3-1.3-0.7-1.8-1.2s-0.9-1.1-1.1-1.8
			c-0.3-0.7-0.4-1.5-0.4-2.4s0.1-1.7,0.4-2.4s0.6-1.3,1.1-1.8s1.1-0.9,1.8-1.2C504.2,162.1,505,161.9,505.8,161.9z M505.8,171.5
			c0.9,0,1.6-0.3,2.1-0.9c0.5-0.6,0.7-1.6,0.7-2.8s-0.2-2.1-0.7-2.8c-0.5-0.6-1.1-1-2.1-1s-1.7,0.3-2.1,1c-0.5,0.6-0.7,1.6-0.7,2.8
			s0.2,2.1,0.7,2.8C504.1,171.1,504.9,171.5,505.8,171.5z"/>
		<path d="M521.4,164.5c-0.1,0.1-0.2,0.2-0.2,0.2c-0.1,0.1-0.2,0.1-0.3,0.1s-0.3,0-0.4-0.1c-0.1-0.1-0.3-0.2-0.5-0.3
			s-0.4-0.2-0.7-0.3s-0.6-0.1-0.9-0.1c-0.5,0-0.9,0.1-1.3,0.3c-0.4,0.2-0.7,0.4-0.9,0.7s-0.4,0.7-0.5,1.2s-0.2,1-0.2,1.6
			s0.1,1.1,0.2,1.6s0.3,0.9,0.6,1.2s0.5,0.6,0.9,0.7c0.4,0.1,0.7,0.2,1.2,0.2s0.8-0.1,1-0.2c0.2-0.1,0.5-0.2,0.7-0.4
			c0.2-0.1,0.3-0.2,0.5-0.4c0.1-0.1,0.3-0.2,0.5-0.2s0.4,0.1,0.5,0.3l0.8,1c-0.3,0.4-0.6,0.6-1,0.9s-0.7,0.4-1.1,0.6
			c-0.4,0.1-0.8,0.2-1.2,0.3s-0.8,0.1-1.2,0.1c-0.7,0-1.4-0.1-2-0.4c-0.6-0.3-1.2-0.6-1.6-1.1c-0.5-0.5-0.8-1.1-1.1-1.8
			s-0.4-1.5-0.4-2.5c0-0.8,0.1-1.6,0.4-2.3c0.2-0.7,0.6-1.3,1.1-1.8s1-0.9,1.7-1.2s1.5-0.4,2.4-0.4c0.8,0,1.6,0.1,2.2,0.4
			c0.6,0.3,1.2,0.7,1.7,1.2L521.4,164.5z"/>
		<path d="M526.7,157v9.4h0.5c0.2,0,0.3,0,0.4-0.1c0.1-0.1,0.2-0.1,0.3-0.3l2.8-3.5c0.1-0.1,0.3-0.3,0.4-0.3
			c0.1-0.1,0.3-0.1,0.5-0.1h2.5l-3.5,4.2c-0.1,0.2-0.3,0.3-0.4,0.4c-0.1,0.1-0.3,0.2-0.4,0.3c0.2,0.1,0.3,0.2,0.4,0.4
			c0.1,0.1,0.2,0.3,0.4,0.5l3.8,5.5H532c-0.2,0-0.4,0-0.5-0.1s-0.3-0.2-0.4-0.4l-2.9-4.3c-0.1-0.2-0.2-0.3-0.3-0.3
			c-0.1-0.1-0.3-0.1-0.5-0.1h-0.6v5.2H524V157H526.7L526.7,157z"/>
		<path d="M542.8,164.3c-0.1,0.1-0.2,0.2-0.2,0.2c-0.1,0-0.2,0.1-0.3,0.1s-0.3,0-0.4-0.1s-0.3-0.2-0.5-0.2c-0.2-0.1-0.4-0.2-0.7-0.2
			c-0.3-0.1-0.6-0.1-0.9-0.1c-0.5,0-1,0.1-1.3,0.3s-0.5,0.5-0.5,0.9c0,0.2,0.1,0.4,0.2,0.6c0.2,0.2,0.4,0.3,0.6,0.4
			c0.3,0.1,0.6,0.2,0.9,0.3c0.3,0.1,0.7,0.2,1,0.3s0.7,0.3,1,0.4c0.3,0.1,0.6,0.3,0.9,0.6c0.3,0.2,0.5,0.5,0.6,0.8
			c0.2,0.3,0.2,0.7,0.2,1.2s-0.1,1-0.3,1.5s-0.5,0.9-0.9,1.2s-0.9,0.6-1.4,0.8c-0.6,0.2-1.2,0.3-1.9,0.3c-0.4,0-0.8,0-1.1-0.1
			c-0.4-0.1-0.7-0.2-1.1-0.3c-0.3-0.1-0.7-0.3-0.9-0.4c-0.3-0.2-0.5-0.4-0.8-0.5l0.6-1c0.1-0.1,0.2-0.2,0.3-0.3s0.2-0.1,0.4-0.1
			s0.3,0,0.5,0.1s0.3,0.2,0.5,0.3s0.4,0.2,0.7,0.3s0.6,0.1,1,0.1c0.3,0,0.6,0,0.8-0.1s0.4-0.2,0.6-0.3c0.1-0.1,0.3-0.3,0.3-0.4
			c0-0.1,0.1-0.3,0.1-0.5c0-0.3-0.1-0.5-0.2-0.6c-0.2-0.2-0.4-0.3-0.6-0.4c-0.3-0.1-0.6-0.2-0.9-0.3c-0.3-0.1-0.7-0.2-1-0.3
			s-0.7-0.3-1-0.4s-0.6-0.4-0.9-0.6c-0.3-0.2-0.5-0.5-0.6-0.9c-0.2-0.4-0.2-0.8-0.2-1.3s0.1-0.9,0.3-1.3s0.5-0.8,0.8-1.1
			c0.4-0.3,0.8-0.6,1.3-0.7c0.5-0.1,1.1-0.3,1.8-0.3c0.8,0,1.5,0.1,2.1,0.4s1.2,0.6,1.6,1L542.8,164.3z"/>
	</g>
	<path class="st1" d="M208.5,189.2c-0.4,0-0.8-0.1-1.1-0.3l-37.5-21.7c-0.7-0.4-1.1-1.1-1.1-1.9c0-0.8,0.4-1.5,1.1-1.9l37.5-21.7
		c0.3-0.2,0.7-0.3,1.1-0.3c0.4,0,0.8,0.1,1.1,0.3c0.7,0.4,1.1,1.1,1.1,1.9v43.3c0,0.8-0.4,1.5-1.1,1.9
		C209.3,189.1,208.9,189.2,208.5,189.2z"/>
	<g>
		<path class="st1" d="M601,159.2c0.4,0,0.8-0.1,1.1-0.3l37.5-21.7c0.7-0.4,1.1-1.1,1.1-1.9c0-0.8-0.4-1.5-1.1-1.9l-37.5-21.7
			c-0.3-0.2-0.7-0.3-1.1-0.3c-0.4,0-0.8,0.1-1.1,0.3c-0.7,0.4-1.1,1.1-1.1,1.9v43.3c0,0.8,0.4,1.5,1.1,1.9
			C600.2,159.1,600.6,159.2,601,159.2z"/>
		<path class="st3" d="M601,217.2c0.4,0,0.8-0.1,1.1-0.3l37.5-21.7c0.7-0.4,1.1-1.1,1.1-1.9c0-0.8-0.4-1.5-1.1-1.9l-37.5-21.7
			c-0.3-0.2-0.7-0.3-1.1-0.3c-0.4,0-0.8,0.1-1.1,0.3c-0.7,0.4-1.1,1.1-1.1,1.9v43.3c0,0.8,0.4,1.5,1.1,1.9
			C600.2,217.1,600.6,217.2,601,217.2z"/>
	</g>
	<path class="st1" d="M423.5,140.8c-0.4,0-0.8,0.1-1.1,0.3l-37.5,21.7c-0.7,0.4-1.1,1.1-1.1,1.9c0,0.8,0.4,1.5,1.1,1.9l37.5,21.7
		c0.3,0.2,0.7,0.3,1.1,0.3s0.8-0.1,1.1-0.3c0.7-0.4,1.1-1.1,1.1-1.9v-43.3c0-0.8-0.4-1.5-1.1-1.9
		C424.3,140.9,423.9,140.8,423.5,140.8z"/>
	<g>
		<path d="M455.6,14.4c0.2,0,0.3,0.1,0.5,0.2l1.3,1.4c-0.7,0.9-1.6,1.5-2.6,2s-2.3,0.7-3.7,0.7c-1.3,0-2.4-0.2-3.5-0.7
			s-1.9-1.1-2.6-1.8c-0.7-0.8-1.3-1.7-1.7-2.8c-0.4-1.1-0.6-2.3-0.6-3.6s0.2-2.5,0.6-3.6s1-2,1.8-2.8s1.7-1.4,2.8-1.8
			s2.3-0.7,3.6-0.7c1.3,0,2.4,0.2,3.4,0.6s1.8,1,2.5,1.6l-1.1,1.5c-0.1,0.1-0.1,0.2-0.2,0.3C456,5,455.9,5,455.7,5
			c-0.2,0-0.4-0.1-0.6-0.2s-0.4-0.3-0.7-0.5s-0.7-0.3-1.1-0.5s-1-0.2-1.7-0.2c-0.8,0-1.6,0.1-2.2,0.4c-0.7,0.3-1.3,0.7-1.8,1.2
			s-0.9,1.2-1.2,1.9S446,8.9,446,9.8c0,1,0.1,1.8,0.4,2.6c0.3,0.8,0.6,1.4,1.1,1.9s1,0.9,1.7,1.2c0.6,0.3,1.3,0.4,2.1,0.4
			c0.4,0,0.8,0,1.2-0.1c0.4,0,0.7-0.1,1-0.2c0.3-0.1,0.6-0.2,0.9-0.4s0.5-0.4,0.8-0.6c0.1-0.1,0.2-0.1,0.3-0.2
			S455.5,14.4,455.6,14.4z"/>
		<path d="M464.9,6c0.9,0,1.8,0.1,2.5,0.4s1.4,0.7,1.9,1.3s0.9,1.2,1.2,2c0.3,0.8,0.4,1.7,0.4,2.6c0,1-0.1,1.9-0.4,2.6
			c-0.3,0.8-0.7,1.5-1.2,2c-0.5,0.6-1.2,1-1.9,1.3s-1.6,0.4-2.5,0.4s-1.8-0.1-2.5-0.4s-1.4-0.7-1.9-1.3c-0.5-0.6-0.9-1.2-1.2-2
			c-0.3-0.8-0.4-1.7-0.4-2.6c0-1,0.1-1.8,0.4-2.6s0.7-1.4,1.2-2c0.5-0.5,1.2-1,1.9-1.3S464,6,464.9,6z M464.9,16.4
			c1,0,1.8-0.3,2.3-1s0.7-1.7,0.7-3s-0.2-2.3-0.7-3s-1.2-1-2.3-1c-1,0-1.8,0.4-2.3,1c-0.5,0.7-0.7,1.7-0.7,3s0.2,2.3,0.7,3
			C463.1,16.1,463.8,16.4,464.9,16.4z"/>
		<path d="M476.4,0.7v17.8h-3V0.7H476.4z"/>
		<path d="M483.4,2.6c0,0.3-0.1,0.5-0.2,0.7s-0.2,0.4-0.4,0.6c-0.2,0.2-0.4,0.3-0.6,0.4s-0.5,0.1-0.7,0.1c-0.3,0-0.5,0-0.7-0.1
			s-0.4-0.2-0.6-0.4s-0.3-0.4-0.4-0.6c-0.1-0.2-0.2-0.5-0.2-0.7c0-0.3,0-0.5,0.2-0.7c0.1-0.2,0.2-0.4,0.4-0.6s0.4-0.3,0.6-0.4
			c0.2-0.1,0.5-0.1,0.7-0.1c0.3,0,0.5,0,0.7,0.1s0.4,0.2,0.6,0.4s0.3,0.4,0.4,0.6C483.3,2.1,483.4,2.3,483.4,2.6z M482.9,6.2v12.3
			h-3V6.2H482.9z"/>
		<path d="M493.6,8.6c-0.1,0.1-0.2,0.2-0.3,0.3C493.2,9,493.1,9,493,9c-0.1,0-0.3,0-0.5-0.1s-0.4-0.2-0.6-0.3s-0.5-0.2-0.7-0.3
			c-0.3-0.1-0.6-0.1-1-0.1c-0.6,0-1,0.1-1.4,0.4c-0.3,0.2-0.5,0.6-0.5,1c0,0.3,0.1,0.5,0.3,0.7s0.4,0.3,0.7,0.5
			c0.3,0.1,0.6,0.3,1,0.4s0.7,0.2,1.1,0.4c0.4,0.1,0.7,0.3,1.1,0.4c0.4,0.2,0.7,0.4,1,0.6s0.5,0.6,0.7,0.9c0.2,0.4,0.3,0.8,0.3,1.3
			c0,0.6-0.1,1.1-0.3,1.6c-0.2,0.5-0.5,0.9-0.9,1.3s-0.9,0.6-1.5,0.9c-0.6,0.2-1.3,0.3-2.1,0.3c-0.4,0-0.8,0-1.2-0.1
			c-0.4-0.1-0.8-0.2-1.2-0.3c-0.4-0.1-0.7-0.3-1-0.5s-0.6-0.4-0.8-0.6l0.7-1.1c0.1-0.1,0.2-0.2,0.3-0.3c0.1-0.1,0.3-0.1,0.5-0.1
			s0.4,0.1,0.5,0.2c0.1,0.1,0.4,0.2,0.6,0.3s0.5,0.2,0.8,0.3s0.7,0.2,1.1,0.2s0.7,0,0.9-0.1c0.3-0.1,0.5-0.2,0.6-0.3
			c0.2-0.1,0.3-0.3,0.4-0.5s0.1-0.4,0.1-0.6c0-0.3-0.1-0.5-0.3-0.7s-0.4-0.3-0.7-0.5c-0.3-0.1-0.6-0.3-1-0.4
			c-0.4-0.1-0.7-0.2-1.1-0.4s-0.8-0.3-1.1-0.5c-0.4-0.2-0.7-0.4-1-0.7s-0.5-0.6-0.7-1s-0.3-0.8-0.3-1.4c0-0.5,0.1-1,0.3-1.4
			s0.5-0.9,0.9-1.2c0.4-0.3,0.9-0.6,1.5-0.8c0.6-0.2,1.2-0.3,2-0.3s1.6,0.1,2.3,0.4c0.7,0.3,1.3,0.6,1.7,1.1L493.6,8.6z"/>
		<path d="M506.5,6c0.8,0,1.5,0.1,2.1,0.4c0.7,0.2,1.2,0.6,1.7,1.1s0.8,1.1,1.1,1.8c0.3,0.7,0.4,1.5,0.4,2.4c0,0.2,0,0.4,0,0.6
			c0,0.1-0.1,0.3-0.1,0.3c-0.1,0.1-0.1,0.1-0.2,0.2c-0.1,0-0.2,0.1-0.3,0.1h-7.6c0.1,1.3,0.4,2.2,1,2.8c0.6,0.6,1.4,0.9,2.4,0.9
			c0.5,0,0.9-0.1,1.2-0.2c0.3-0.1,0.7-0.2,0.9-0.4c0.3-0.1,0.5-0.3,0.7-0.4s0.4-0.2,0.6-0.2c0.1,0,0.2,0,0.3,0.1
			c0.1,0,0.2,0.1,0.2,0.2l0.9,1.1c-0.3,0.4-0.7,0.7-1.1,1s-0.8,0.5-1.3,0.6c-0.4,0.2-0.9,0.3-1.4,0.3s-0.9,0.1-1.3,0.1
			c-0.9,0-1.7-0.1-2.4-0.4c-0.7-0.3-1.4-0.7-1.9-1.3s-1-1.2-1.3-2.1c-0.3-0.8-0.5-1.8-0.5-2.9c0-0.8,0.1-1.6,0.4-2.4
			c0.3-0.7,0.7-1.4,1.2-1.9s1.1-1,1.9-1.3C504.7,6.2,505.6,6,506.5,6z M506.6,8.1c-0.9,0-1.5,0.2-2,0.7s-0.8,1.2-0.9,2.1h5.6
			c0-0.4-0.1-0.7-0.2-1.1c-0.1-0.3-0.3-0.6-0.5-0.9c-0.2-0.3-0.5-0.5-0.8-0.6C507.4,8.2,507,8.1,506.6,8.1z"/>
		<path d="M514.2,18.5V6.2h1.8c0.4,0,0.6,0.2,0.8,0.5l0.2,1c0.2-0.3,0.5-0.5,0.8-0.7s0.6-0.4,0.9-0.5c0.3-0.2,0.6-0.3,1-0.3
			C520,6,520.4,6,520.8,6c0.7,0,1.3,0.1,1.8,0.3c0.5,0.2,1,0.5,1.3,1c0.3,0.4,0.6,0.9,0.8,1.5s0.3,1.2,0.3,1.9v7.8h-3v-7.8
			c0-0.8-0.2-1.3-0.5-1.7s-0.9-0.6-1.6-0.6c-0.5,0-1,0.1-1.4,0.3s-0.9,0.5-1.3,0.9v8.9H514.2z"/>
		<path d="M531.9,18.7c-1.1,0-1.9-0.3-2.5-0.9s-0.9-1.4-0.9-2.5V8.4h-1.2c-0.2,0-0.3-0.1-0.4-0.2c-0.1-0.1-0.2-0.3-0.2-0.5V6.6
			l2-0.3l0.6-3.4c0-0.2,0.1-0.3,0.2-0.4c0.1-0.1,0.3-0.1,0.4-0.1h1.5v3.9h3.2v2.1h-3.2v6.7c0,0.4,0.1,0.7,0.3,0.9s0.4,0.3,0.8,0.3
			c0.2,0,0.3,0,0.5-0.1c0.1,0,0.2-0.1,0.3-0.1s0.2-0.1,0.2-0.1c0.1,0,0.1-0.1,0.2-0.1c0.1,0,0.2,0,0.2,0.1s0.1,0.1,0.2,0.2l0.9,1.4
			c-0.4,0.4-0.9,0.6-1.5,0.8C533.1,18.6,532.5,18.7,531.9,18.7z"/>
		<path d="M537.2,18.5V6.2h1.7c0.3,0,0.5,0.1,0.6,0.2s0.2,0.3,0.2,0.6l0.2,1.5c0.4-0.8,1-1.4,1.5-1.8s1.3-0.7,2-0.7
			c0.6,0,1.1,0.1,1.5,0.4l-0.4,2.2c0,0.1-0.1,0.2-0.2,0.3c0.1,0.1,0,0.1-0.2,0.1c-0.1,0-0.3,0-0.5-0.1s-0.5-0.1-0.8-0.1
			c-0.6,0-1.1,0.2-1.6,0.5c-0.4,0.3-0.8,0.8-1.1,1.5v7.7H537.2z"/>
		<path d="M556.3,18.5H555c-0.3,0-0.5,0-0.7-0.1s-0.3-0.3-0.4-0.5l-0.3-0.9c-0.3,0.3-0.6,0.5-0.9,0.7s-0.6,0.4-0.9,0.5
			c-0.3,0.1-0.7,0.3-1,0.3s-0.8,0.1-1.2,0.1c-0.5,0-1-0.1-1.4-0.2s-0.8-0.4-1.1-0.6c-0.3-0.3-0.6-0.6-0.7-1
			c-0.2-0.4-0.3-0.9-0.3-1.5c0-0.5,0.1-0.9,0.4-1.4s0.7-0.9,1.2-1.2c0.6-0.4,1.3-0.7,2.3-0.9c0.9-0.2,2.1-0.4,3.5-0.4v-0.7
			c0-0.8-0.2-1.4-0.5-1.8c-0.3-0.4-0.9-0.6-1.5-0.6c-0.5,0-0.9,0.1-1.2,0.2c-0.3,0.1-0.6,0.2-0.8,0.4c-0.2,0.1-0.5,0.3-0.7,0.4
			c-0.2,0.1-0.4,0.2-0.7,0.2c-0.2,0-0.4-0.1-0.5-0.2c-0.1-0.1-0.3-0.2-0.3-0.4L546.8,8c1.4-1.3,3.1-1.9,5.1-1.9
			c0.7,0,1.4,0.1,1.9,0.4c0.6,0.2,1,0.6,1.4,1s0.7,0.9,0.9,1.5s0.3,1.2,0.3,1.9L556.3,18.5L556.3,18.5z M550.5,16.7
			c0.3,0,0.6,0,0.8-0.1c0.3-0.1,0.5-0.1,0.7-0.2s0.4-0.2,0.7-0.4c0.2-0.2,0.4-0.4,0.6-0.6v-2.1c-0.9,0-1.6,0.1-2.2,0.2
			c-0.6,0.1-1,0.2-1.4,0.4s-0.6,0.4-0.8,0.6c-0.1,0.2-0.2,0.5-0.2,0.7c0,0.5,0.2,0.9,0.5,1.1C549.6,16.5,550,16.7,550.5,16.7z"/>
		<path d="M559.2,18.5V6.2h1.8c0.4,0,0.6,0.2,0.8,0.5l0.2,1c0.2-0.3,0.5-0.5,0.8-0.7s0.6-0.4,0.9-0.5c0.3-0.2,0.6-0.3,1-0.3
			C565,6,565.3,6,565.8,6c0.7,0,1.3,0.1,1.8,0.3c0.5,0.2,1,0.5,1.3,1c0.3,0.4,0.6,0.9,0.8,1.5s0.3,1.2,0.3,1.9v7.8h-3v-7.8
			c0-0.8-0.2-1.3-0.5-1.7s-0.9-0.6-1.6-0.6c-0.5,0-1,0.1-1.4,0.3s-0.9,0.5-1.3,0.9v8.9H559.2z"/>
		<path d="M576.9,18.7c-1.1,0-1.9-0.3-2.5-0.9s-0.9-1.4-0.9-2.5V8.4h-1.2c-0.2,0-0.3-0.1-0.4-0.2c-0.1-0.1-0.2-0.3-0.2-0.5V6.6
			l2-0.3l0.6-3.4c0-0.2,0.1-0.3,0.2-0.4c0.1-0.1,0.3-0.1,0.4-0.1h1.5v3.9h3.2v2.1h-3.2v6.7c0,0.4,0.1,0.7,0.3,0.9s0.4,0.3,0.8,0.3
			c0.2,0,0.3,0,0.5-0.1c0.1,0,0.2-0.1,0.3-0.1s0.2-0.1,0.2-0.1c0.1,0,0.1-0.1,0.2-0.1c0.1,0,0.2,0,0.2,0.1s0.1,0.1,0.2,0.2l0.9,1.4
			c-0.4,0.4-0.9,0.6-1.5,0.8C578.1,18.6,577.5,18.7,576.9,18.7z"/>
	</g>
	<g>
		<path d="M424,310.7c0.1,0,0.2,0,0.3,0.1s0.2,0.1,0.2,0.2c0.1,0.1,0.2,0.2,0.2,0.3l9.1,11.6c0-0.3-0.1-0.6-0.1-0.8
			c0-0.3,0-0.5,0-0.8v-10.5h2.8V328h-1.7c-0.3,0-0.5,0-0.6-0.1s-0.3-0.2-0.5-0.4l-9.1-11.6c0,0.3,0,0.5,0.1,0.8c0,0.3,0,0.5,0,0.7
			V328H422v-17.4h1.7C423.8,310.6,423.9,310.7,424,310.7z"/>
		<path d="M445.2,315.5c0.9,0,1.8,0.1,2.5,0.4s1.4,0.7,1.9,1.3s0.9,1.2,1.2,2c0.3,0.8,0.4,1.7,0.4,2.6c0,1-0.1,1.9-0.4,2.6
			c-0.3,0.8-0.7,1.5-1.2,2s-1.2,1-1.9,1.3s-1.6,0.4-2.5,0.4s-1.8-0.1-2.5-0.4s-1.4-0.7-1.9-1.3c-0.5-0.6-0.9-1.2-1.2-2
			s-0.4-1.7-0.4-2.6c0-1,0.1-1.8,0.4-2.6s0.7-1.4,1.2-2c0.5-0.5,1.2-1,1.9-1.3S444.3,315.5,445.2,315.5z M445.2,325.9
			c1,0,1.8-0.3,2.3-1s0.7-1.7,0.7-3s-0.2-2.3-0.7-3s-1.2-1-2.3-1c-1,0-1.8,0.4-2.3,1.1s-0.7,1.7-0.7,3s0.2,2.3,0.7,3
			C443.4,325.6,444.2,325.9,445.2,325.9z"/>
		<path d="M456.3,315.7v7.8c0,0.8,0.2,1.3,0.5,1.7c0.3,0.4,0.9,0.6,1.6,0.6c0.5,0,1-0.1,1.4-0.3c0.4-0.2,0.9-0.5,1.3-0.9v-8.9h3V328
			h-1.8c-0.4,0-0.6-0.2-0.8-0.5l-0.2-1c-0.3,0.3-0.5,0.5-0.8,0.7s-0.6,0.4-0.9,0.5s-0.6,0.3-1,0.3c-0.4,0.1-0.7,0.1-1.1,0.1
			c-0.7,0-1.3-0.1-1.8-0.3c-0.5-0.2-1-0.5-1.3-1c-0.4-0.4-0.6-0.9-0.8-1.5c-0.2-0.6-0.3-1.2-0.3-1.9v-7.8L456.3,315.7L456.3,315.7z"
			/>
		<path d="M473.4,328h-2.7l-4.9-12.3h2.5c0.2,0,0.4,0.1,0.5,0.2s0.2,0.2,0.3,0.4l2.4,6.6c0.1,0.4,0.2,0.8,0.3,1.1
			c0.1,0.4,0.2,0.7,0.2,1.1c0.1-0.4,0.2-0.7,0.2-1.1c0.1-0.4,0.2-0.7,0.4-1.1l2.4-6.6c0.1-0.2,0.2-0.3,0.3-0.4
			c0.1-0.1,0.3-0.2,0.5-0.2h2.3L473.4,328z"/>
		<path d="M484.7,315.5c0.8,0,1.5,0.1,2.1,0.4c0.7,0.2,1.2,0.6,1.7,1.1s0.8,1.1,1.1,1.8c0.3,0.7,0.4,1.5,0.4,2.4c0,0.2,0,0.4,0,0.6
			c0,0.1-0.1,0.3-0.1,0.3c-0.1,0.1-0.1,0.1-0.2,0.2c-0.1,0-0.2,0.1-0.3,0.1h-7.6c0.1,1.3,0.4,2.2,1,2.8c0.6,0.6,1.4,0.9,2.4,0.9
			c0.5,0,0.9-0.1,1.2-0.2c0.3-0.1,0.7-0.2,0.9-0.4c0.3-0.1,0.5-0.3,0.7-0.4s0.4-0.2,0.6-0.2c0.1,0,0.2,0,0.3,0.1s0.2,0.1,0.2,0.2
			l0.9,1.1c-0.3,0.4-0.7,0.7-1.1,1s-0.8,0.5-1.3,0.6c-0.4,0.2-0.9,0.3-1.4,0.3c-0.5,0.1-0.9,0.1-1.3,0.1c-0.9,0-1.7-0.1-2.4-0.4
			s-1.4-0.7-1.9-1.3s-1-1.2-1.3-2.1c-0.3-0.8-0.5-1.8-0.5-2.8c0-0.8,0.1-1.6,0.4-2.4c0.3-0.7,0.7-1.4,1.2-1.9s1.1-1,1.9-1.3
			C483,315.7,483.8,315.5,484.7,315.5z M484.8,317.6c-0.9,0-1.5,0.2-2,0.7s-0.8,1.2-0.9,2.1h5.6c0-0.4-0.1-0.7-0.2-1.1
			c-0.1-0.3-0.3-0.6-0.5-0.9s-0.5-0.5-0.8-0.6C485.6,317.7,485.2,317.6,484.8,317.6z"/>
		<path d="M495.6,310.2V328h-3v-17.8H495.6z"/>
		<path d="M502.1,310.2V328h-3v-17.8H502.1z"/>
		<path d="M510.6,315.5c0.8,0,1.5,0.1,2.1,0.4c0.7,0.2,1.2,0.6,1.7,1.1s0.8,1.1,1.1,1.8c0.3,0.7,0.4,1.5,0.4,2.4c0,0.2,0,0.4,0,0.6
			c0,0.1-0.1,0.3-0.1,0.3c-0.1,0.1-0.1,0.1-0.2,0.2c-0.1,0-0.2,0.1-0.3,0.1h-7.6c0.1,1.3,0.4,2.2,1,2.8c0.6,0.6,1.4,0.9,2.4,0.9
			c0.5,0,0.9-0.1,1.2-0.2s0.7-0.2,0.9-0.4c0.3-0.1,0.5-0.3,0.7-0.4s0.4-0.2,0.6-0.2c0.1,0,0.2,0,0.3,0.1s0.2,0.1,0.2,0.2l0.9,1.1
			c-0.3,0.4-0.7,0.7-1.1,1s-0.8,0.5-1.3,0.6c-0.4,0.2-0.9,0.3-1.4,0.3c-0.5,0.1-0.9,0.1-1.3,0.1c-0.9,0-1.7-0.1-2.4-0.4
			s-1.4-0.7-1.9-1.3s-1-1.2-1.3-2.1c-0.3-0.8-0.5-1.8-0.5-2.8c0-0.8,0.1-1.6,0.4-2.4c0.3-0.7,0.7-1.4,1.2-1.9s1.1-1,1.9-1.3
			C508.8,315.7,509.6,315.5,510.6,315.5z M510.6,317.6c-0.9,0-1.5,0.2-2,0.7s-0.8,1.2-0.9,2.1h5.6c0-0.4-0.1-0.7-0.2-1.1
			c-0.1-0.3-0.3-0.6-0.5-0.9s-0.5-0.5-0.8-0.6S511.1,317.6,510.6,317.6z"/>
		<path d="M522.9,328v-12.3h1.8c0.4,0,0.6,0.2,0.8,0.5l0.2,0.9c0.2-0.2,0.4-0.5,0.7-0.7c0.2-0.2,0.5-0.4,0.8-0.5s0.6-0.3,0.9-0.3
			c0.3-0.1,0.6-0.1,1-0.1c0.8,0,1.4,0.2,1.9,0.6s0.9,1,1.1,1.7c0.2-0.4,0.4-0.8,0.7-1s0.6-0.5,0.9-0.7c0.3-0.2,0.7-0.3,1.1-0.4
			s0.8-0.1,1.2-0.1c0.7,0,1.3,0.1,1.8,0.3c0.5,0.2,1,0.5,1.3,0.9c0.4,0.4,0.6,0.9,0.8,1.5s0.3,1.2,0.3,2v7.8h-3v-7.8
			c0-0.8-0.2-1.4-0.5-1.8s-0.8-0.6-1.5-0.6c-0.3,0-0.6,0.1-0.8,0.2c-0.3,0.1-0.5,0.3-0.7,0.5s-0.3,0.4-0.5,0.7
			c-0.1,0.3-0.2,0.6-0.2,1v7.8h-3v-7.8c0-0.8-0.2-1.4-0.5-1.8s-0.8-0.6-1.5-0.6c-0.4,0-0.8,0.1-1.2,0.3s-0.7,0.5-1,0.9v9h-2.9V328z"
			/>
		<path d="M552.8,328h-1.3c-0.3,0-0.5,0-0.7-0.1s-0.3-0.3-0.4-0.5l-0.3-0.9c-0.3,0.3-0.6,0.5-0.9,0.7c-0.3,0.2-0.6,0.4-0.9,0.5
			c-0.3,0.1-0.7,0.3-1,0.3s-0.8,0.1-1.2,0.1c-0.5,0-1-0.1-1.4-0.2s-0.8-0.4-1.1-0.6c-0.3-0.3-0.6-0.6-0.7-1
			c-0.2-0.4-0.3-0.9-0.3-1.5c0-0.5,0.1-0.9,0.4-1.4c0.2-0.5,0.7-0.9,1.2-1.2c0.6-0.4,1.3-0.7,2.3-0.9c0.9-0.2,2.1-0.4,3.5-0.4v-0.7
			c0-0.8-0.2-1.4-0.5-1.8s-0.9-0.6-1.5-0.6c-0.5,0-0.9,0.1-1.2,0.2s-0.6,0.2-0.8,0.4c-0.2,0.1-0.5,0.3-0.7,0.4s-0.4,0.2-0.7,0.2
			c-0.2,0-0.4-0.1-0.5-0.2s-0.3-0.2-0.3-0.4l-0.5-0.9c1.4-1.3,3.1-1.9,5.1-1.9c0.7,0,1.4,0.1,1.9,0.4c0.6,0.2,1,0.6,1.4,1
			s0.7,0.9,0.9,1.5s0.3,1.2,0.3,1.9L552.8,328L552.8,328z M547,326.2c0.3,0,0.6,0,0.8-0.1c0.3-0.1,0.5-0.1,0.7-0.2s0.4-0.2,0.7-0.4
			c0.2-0.2,0.4-0.4,0.6-0.6v-2.1c-0.9,0-1.6,0.1-2.2,0.2c-0.6,0.1-1,0.2-1.4,0.4c-0.4,0.2-0.6,0.4-0.8,0.6c-0.1,0.2-0.2,0.5-0.2,0.7
			c0,0.5,0.2,0.9,0.5,1.1C546.1,326,546.5,326.2,547,326.2z"/>
		<path d="M559.8,328.2c-1.1,0-1.9-0.3-2.5-0.9s-0.9-1.4-0.9-2.5v-6.9h-1.2c-0.2,0-0.3-0.1-0.4-0.2c-0.1-0.1-0.2-0.3-0.2-0.5V316
			l2-0.3l0.6-3.4c0-0.2,0.1-0.3,0.2-0.4s0.3-0.1,0.4-0.1h1.5v3.9h3.2v2.1h-3.2v6.7c0,0.4,0.1,0.7,0.3,0.9c0.2,0.2,0.4,0.3,0.8,0.3
			c0.2,0,0.3,0,0.5-0.1s0.2-0.1,0.3-0.1s0.2-0.1,0.2-0.1c0.1,0,0.1-0.1,0.2-0.1c0.1,0,0.2,0,0.2,0.1s0.1,0.1,0.2,0.2l0.9,1.4
			c-0.4,0.4-0.9,0.6-1.5,0.8C560.9,328.1,560.4,328.2,559.8,328.2z"/>
		<path d="M568.6,312.1c0,0.3-0.1,0.5-0.2,0.7c-0.1,0.2-0.2,0.4-0.4,0.6s-0.4,0.3-0.6,0.4c-0.2,0.1-0.5,0.2-0.7,0.2
			c-0.3,0-0.5,0-0.7-0.2c-0.2-0.1-0.4-0.2-0.6-0.4s-0.3-0.4-0.4-0.6c-0.1-0.2-0.2-0.5-0.2-0.7c0-0.3,0-0.5,0.2-0.7
			c0.1-0.2,0.2-0.4,0.4-0.6s0.4-0.3,0.6-0.4c0.2-0.1,0.5-0.1,0.7-0.1c0.3,0,0.5,0,0.7,0.1s0.4,0.2,0.6,0.4c0.2,0.2,0.3,0.4,0.4,0.6
			S568.6,311.8,568.6,312.1z M568.2,315.7V328h-3v-12.3H568.2z"/>
		<path d="M576.6,315.5c0.8,0,1.5,0.1,2.1,0.4c0.7,0.2,1.2,0.6,1.7,1.1s0.8,1.1,1.1,1.8c0.3,0.7,0.4,1.5,0.4,2.4c0,0.2,0,0.4,0,0.6
			c0,0.1-0.1,0.3-0.1,0.3c-0.1,0.1-0.1,0.1-0.2,0.2c-0.1,0-0.2,0.1-0.3,0.1h-7.6c0.1,1.3,0.4,2.2,1,2.8c0.6,0.6,1.4,0.9,2.4,0.9
			c0.5,0,0.9-0.1,1.2-0.2s0.7-0.2,0.9-0.4c0.3-0.1,0.5-0.3,0.7-0.4s0.4-0.2,0.6-0.2c0.1,0,0.2,0,0.3,0.1s0.2,0.1,0.2,0.2l0.9,1.1
			c-0.3,0.4-0.7,0.7-1.1,1s-0.8,0.5-1.3,0.6c-0.4,0.2-0.9,0.3-1.4,0.3c-0.5,0.1-0.9,0.1-1.3,0.1c-0.9,0-1.7-0.1-2.4-0.4
			s-1.4-0.7-1.9-1.3s-1-1.2-1.3-2.1c-0.3-0.8-0.5-1.8-0.5-2.8c0-0.8,0.1-1.6,0.4-2.4c0.3-0.7,0.7-1.4,1.2-1.9s1.1-1,1.9-1.3
			C574.8,315.7,575.7,315.5,576.6,315.5z M575.6,310.5c0.3,0,0.6,0.1,0.7,0.2c0.2,0.1,0.3,0.3,0.4,0.5l1.7,2.9h-1.7
			c-0.2,0-0.4,0-0.5-0.1s-0.3-0.2-0.4-0.3l-3-3.1h2.8V310.5z M576.7,317.6c-0.9,0-1.5,0.2-2,0.7s-0.8,1.2-0.9,2.1h5.6
			c0-0.4-0.1-0.7-0.2-1.1c-0.1-0.3-0.3-0.6-0.5-0.9s-0.5-0.5-0.8-0.6C577.5,317.7,577.1,317.6,576.7,317.6z"/>
		<path d="M584.3,328v-12.3h1.7c0.3,0,0.5,0.1,0.6,0.2s0.2,0.3,0.2,0.6l0.2,1.5c0.4-0.8,1-1.4,1.5-1.8s1.3-0.7,2-0.7
			c0.6,0,1.1,0.1,1.5,0.4l-0.4,2.2c0,0.1-0.1,0.2-0.2,0.3c-0.1,0.1-0.2,0.1-0.3,0.1s-0.3,0-0.5-0.1s-0.5-0.1-0.8-0.1
			c-0.6,0-1.1,0.2-1.6,0.5c-0.4,0.3-0.8,0.8-1.1,1.5v7.7L584.3,328L584.3,328z"/>
		<path d="M599.2,315.5c0.8,0,1.5,0.1,2.1,0.4c0.7,0.2,1.2,0.6,1.7,1.1s0.8,1.1,1.1,1.8c0.3,0.7,0.4,1.5,0.4,2.4c0,0.2,0,0.4,0,0.6
			c0,0.1-0.1,0.3-0.1,0.3c-0.1,0.1-0.1,0.1-0.2,0.2c-0.1,0-0.2,0.1-0.3,0.1h-7.6c0.1,1.3,0.4,2.2,1,2.8c0.6,0.6,1.4,0.9,2.4,0.9
			c0.5,0,0.9-0.1,1.2-0.2s0.7-0.2,0.9-0.4c0.3-0.1,0.5-0.3,0.7-0.4s0.4-0.2,0.6-0.2c0.1,0,0.2,0,0.3,0.1s0.2,0.1,0.2,0.2l0.9,1.1
			c-0.3,0.4-0.7,0.7-1.1,1s-0.8,0.5-1.3,0.6c-0.4,0.2-0.9,0.3-1.4,0.3c-0.5,0.1-0.9,0.1-1.3,0.1c-0.9,0-1.7-0.1-2.4-0.4
			s-1.4-0.7-1.9-1.3s-1-1.2-1.3-2.1c-0.3-0.8-0.5-1.8-0.5-2.8c0-0.8,0.1-1.6,0.4-2.4c0.3-0.7,0.7-1.4,1.2-1.9s1.1-1,1.9-1.3
			C597.5,315.7,598.3,315.5,599.2,315.5z M599.3,317.6c-0.9,0-1.5,0.2-2,0.7s-0.8,1.2-0.9,2.1h5.6c0-0.4-0.1-0.7-0.2-1.1
			c-0.1-0.3-0.3-0.6-0.5-0.9s-0.5-0.5-0.8-0.6C600.1,317.7,599.7,317.6,599.3,317.6z"/>
	</g>
	<g>
		<path class="st3" d="M534.9,297.5c-0.4,0.7-1.1,1.1-1.9,1.1h-43.3c-0.8,0-1.5-0.4-1.9-1.1c-0.2-0.3-0.3-0.7-0.3-1.1
			s0.1-0.8,0.3-1.1l21.7-37.5c0.4-0.7,1.1-1.1,1.9-1.1s1.5,0.4,1.9,1.1l21.7,37.5c0.2,0.3,0.3,0.7,0.3,1.1
			C535.3,296.8,535.2,297.2,534.9,297.5z"/>
	</g>
</g>
</svg>
