<?xml version="1.0" encoding="utf-8"?>
<!-- Generator: Adobe Illustrator 22.0.1, SVG Export Plug-In . SVG Version: 6.00 Build 0)  -->
<svg version="1.1" id="Calque_1" xmlns="http://www.w3.org/2000/svg" xmlns:xlink="http://www.w3.org/1999/xlink" x="0px" y="0px"
	 viewBox="0 0 1000 700" style="enable-background:new 0 0 1000 700;" xml:space="preserve">
<path d="M422.2,453.9h155.8v-39h-52V233.2h-46.2l-60,55.5l31.3,32.5c9.7-8.5,15.8-13,22.3-23.1h0.8v116.8h-51.9L422.2,453.9
	L422.2,453.9z M629.8,350c0,73.8-44.6,168.7-129.8,168.7S370.2,423.8,370.2,350S414.8,181.3,500,181.3S629.8,276.2,629.8,350z
	 M837.5,453.9V246.1c-57.2,0-103.9-46.6-103.9-103.8H266.4c0,57.2-46.7,103.8-103.9,103.8v207.7c57.2,0,103.9,46.6,103.9,103.8
	h467.2C733.6,500.5,780.3,453.9,837.5,453.9L837.5,453.9z M889.4,116.4v467.2c0,14.2-11.8,25.9-25.9,25.9H136.6
	c-14.2,0-25.9-11.7-25.9-25.9V116.4c0-14.2,11.8-25.9,25.9-25.9h726.8C877.6,90.4,889.4,102.1,889.4,116.4z"/>
</svg>
