<?xml version="1.0" encoding="utf-8"?>
<!-- Generator: Adobe Illustrator 22.0.1, SVG Export Plug-In . SVG Version: 6.00 Build 0)  -->
<svg version="1.1" id="Calque_1" xmlns="http://www.w3.org/2000/svg" xmlns:xlink="http://www.w3.org/1999/xlink" x="0px" y="0px"
	 viewBox="0 0 1003 236.8" style="enable-background:new 0 0 1003 236.8;" xml:space="preserve">
<style type="text/css">
	.st0{fill:#FF9900;}
	.st1{fill:#00CC66;}
	.st2{fill:#CC0033;}
	.st3{fill:none;stroke:#000000;stroke-miterlimit:10;}
	.st4{fill:none;stroke:#000000;stroke-width:0.5;stroke-miterlimit:10;}
</style>
<g>
	<rect x="301.7" y="151.5" class="st0" width="250" height="50"/>
	<rect x="551.7" y="151.5" class="st1" width="75" height="50"/>
	<rect x="201.7" y="101.5" class="st0" width="50" height="50"/>
	<rect x="251.7" y="101.5" class="st1" width="100" height="50"/>
	<g>
		<path d="M117.6,80c0,0.7-0.1,1.4-0.3,1.9c-0.2,0.6-0.4,1.1-0.8,1.4c-0.3,0.4-0.8,0.7-1.3,0.9c-0.5,0.2-1.1,0.3-1.7,0.3
			c-0.6,0-1.2-0.1-1.8-0.3c0-0.2,0-0.3,0-0.5s0-0.3,0.1-0.5c0-0.1,0-0.2,0.1-0.2s0.2-0.1,0.3-0.1c0.1,0,0.3,0,0.4,0.1
			c0.2,0.1,0.4,0.1,0.7,0.1c0.4,0,0.7-0.1,1.1-0.2c0.3-0.1,0.6-0.3,0.8-0.6c0.2-0.3,0.4-0.6,0.5-1c0.1-0.4,0.2-0.9,0.2-1.4v-8.5h1.7
			V80z"/>
		<path d="M121.9,75.4v5.8c0,0.7,0.2,1.2,0.5,1.6c0.3,0.4,0.8,0.6,1.4,0.6c0.5,0,0.9-0.1,1.3-0.3c0.4-0.2,0.8-0.5,1.1-0.9v-6.7h1.6
			v9.1h-1c-0.2,0-0.4-0.1-0.4-0.3l-0.1-1c-0.4,0.4-0.8,0.8-1.3,1.1c-0.5,0.3-1.1,0.4-1.7,0.4c-0.5,0-0.9-0.1-1.3-0.2
			c-0.4-0.2-0.7-0.4-1-0.7c-0.3-0.3-0.5-0.7-0.6-1.1c-0.1-0.4-0.2-0.9-0.2-1.4v-5.8H121.9z"/>
		<path d="M132.6,72.5c0,0.2,0,0.3-0.1,0.4c-0.1,0.1-0.1,0.3-0.3,0.4s-0.2,0.2-0.4,0.2c-0.1,0.1-0.3,0.1-0.4,0.1
			c-0.2,0-0.3,0-0.4-0.1c-0.1-0.1-0.3-0.1-0.4-0.2s-0.2-0.2-0.2-0.4c-0.1-0.1-0.1-0.3-0.1-0.4c0-0.2,0-0.3,0.1-0.4
			c0.1-0.1,0.1-0.3,0.2-0.4s0.2-0.2,0.4-0.2c0.1-0.1,0.3-0.1,0.4-0.1c0.2,0,0.3,0,0.4,0.1c0.1,0.1,0.3,0.1,0.4,0.2s0.2,0.2,0.3,0.4
			C132.6,72.2,132.6,72.4,132.6,72.5z M132.3,75.4v9.1h-1.6v-9.1H132.3z"/>
		<path d="M136.9,71.2v13.3h-1.6V71.2H136.9z"/>
		<path d="M139.2,83.5c0-0.2,0-0.3,0.1-0.4c0.1-0.1,0.1-0.3,0.2-0.4c0.1-0.1,0.2-0.2,0.4-0.2c0.1-0.1,0.3-0.1,0.4-0.1
			c0.2,0,0.3,0,0.4,0.1c0.1,0.1,0.3,0.1,0.4,0.2s0.2,0.2,0.2,0.4c0.1,0.1,0.1,0.3,0.1,0.4c0,0.2,0,0.3-0.1,0.4
			c-0.1,0.1-0.1,0.3-0.2,0.4s-0.2,0.2-0.4,0.2c-0.1,0.1-0.3,0.1-0.4,0.1c-0.2,0-0.3,0-0.4-0.1c-0.1-0.1-0.3-0.1-0.4-0.2
			c-0.1-0.1-0.2-0.2-0.2-0.4C139.2,83.8,139.2,83.7,139.2,83.5z"/>
	</g>
	<g>
		<path d="M215.2,73.6c-0.1,0.1-0.1,0.2-0.2,0.2c-0.1,0-0.1,0.1-0.2,0.1c-0.1,0-0.2-0.1-0.4-0.2c-0.1-0.1-0.3-0.2-0.5-0.3
			s-0.5-0.2-0.7-0.3s-0.6-0.2-1.1-0.2c-0.4,0-0.7,0.1-1,0.2c-0.3,0.1-0.6,0.2-0.8,0.4c-0.2,0.2-0.4,0.4-0.5,0.6s-0.2,0.5-0.2,0.8
			c0,0.4,0.1,0.7,0.3,0.9c0.2,0.2,0.4,0.4,0.7,0.6s0.6,0.3,1,0.4c0.4,0.1,0.7,0.3,1.1,0.4c0.4,0.1,0.8,0.3,1.1,0.4
			c0.4,0.2,0.7,0.4,1,0.6s0.5,0.6,0.7,0.9c0.2,0.4,0.3,0.8,0.3,1.4c0,0.6-0.1,1.1-0.3,1.6c-0.2,0.5-0.5,0.9-0.8,1.3
			c-0.4,0.4-0.8,0.7-1.4,0.9s-1.1,0.3-1.8,0.3c-0.8,0-1.6-0.2-2.3-0.5c-0.7-0.3-1.3-0.7-1.8-1.2l0.5-0.8c0-0.1,0.1-0.1,0.2-0.2
			c0.1,0,0.1-0.1,0.2-0.1c0.1,0,0.3,0.1,0.4,0.2c0.2,0.1,0.4,0.3,0.6,0.4c0.2,0.2,0.5,0.3,0.9,0.4c0.3,0.1,0.8,0.2,1.3,0.2
			c0.4,0,0.8-0.1,1.1-0.2c0.3-0.1,0.6-0.3,0.8-0.5s0.4-0.5,0.5-0.7c0.1-0.3,0.2-0.6,0.2-1c0-0.4-0.1-0.7-0.3-1
			c-0.2-0.2-0.4-0.5-0.7-0.6c-0.3-0.2-0.6-0.3-1-0.4c-0.4-0.1-0.7-0.2-1.1-0.4c-0.4-0.1-0.8-0.3-1.1-0.4c-0.4-0.2-0.7-0.4-1-0.6
			c-0.3-0.3-0.5-0.6-0.7-1c-0.2-0.4-0.3-0.9-0.3-1.4c0-0.5,0.1-0.9,0.3-1.3c0.2-0.4,0.4-0.8,0.8-1.1c0.3-0.3,0.8-0.6,1.2-0.8
			c0.5-0.2,1.1-0.3,1.7-0.3c0.7,0,1.4,0.1,2,0.3c0.6,0.2,1.1,0.6,1.6,1L215.2,73.6z"/>
		<path d="M221.5,75.2c0.5,0,1.1,0.1,1.5,0.3s0.9,0.4,1.2,0.8c0.3,0.3,0.6,0.8,0.8,1.3c0.2,0.5,0.3,1.1,0.3,1.7c0,0.3,0,0.4-0.1,0.5
			c-0.1,0.1-0.2,0.1-0.3,0.1h-6.1c0,0.6,0.1,1.1,0.2,1.5c0.1,0.4,0.3,0.8,0.6,1.1s0.6,0.5,0.9,0.6c0.3,0.1,0.7,0.2,1.2,0.2
			c0.4,0,0.7,0,1-0.1c0.3-0.1,0.5-0.2,0.8-0.3c0.2-0.1,0.4-0.2,0.5-0.3c0.1-0.1,0.3-0.1,0.4-0.1c0.1,0,0.2,0.1,0.3,0.2l0.4,0.6
			c-0.2,0.2-0.4,0.4-0.7,0.6c-0.3,0.2-0.6,0.3-0.9,0.4c-0.3,0.1-0.6,0.2-1,0.3c-0.3,0.1-0.7,0.1-1,0.1c-0.6,0-1.2-0.1-1.7-0.3
			c-0.5-0.2-1-0.5-1.4-0.9s-0.7-0.9-0.9-1.5c-0.2-0.6-0.3-1.3-0.3-2.1c0-0.6,0.1-1.2,0.3-1.8c0.2-0.6,0.5-1,0.8-1.4
			c0.4-0.4,0.8-0.7,1.3-1C220.2,75.4,220.8,75.2,221.5,75.2z M221.5,76.4c-0.8,0-1.4,0.2-1.8,0.7c-0.4,0.4-0.7,1.1-0.8,1.9h5
			c0-0.4-0.1-0.7-0.2-1c-0.1-0.3-0.3-0.6-0.4-0.8c-0.2-0.2-0.4-0.4-0.7-0.5C222.2,76.5,221.9,76.4,221.5,76.4z"/>
		<path d="M227.3,87.6V75.4h1c0.2,0,0.4,0.1,0.4,0.3l0.1,1.1c0.4-0.5,0.8-0.9,1.3-1.1c0.5-0.3,1.1-0.4,1.7-0.4c0.5,0,1,0.1,1.4,0.3
			c0.4,0.2,0.8,0.5,1.1,0.9c0.3,0.4,0.5,0.9,0.7,1.5s0.2,1.3,0.2,2c0,0.7-0.1,1.3-0.3,1.9c-0.2,0.6-0.4,1.1-0.8,1.5
			c-0.3,0.4-0.7,0.8-1.2,1c-0.5,0.2-1,0.4-1.7,0.4c-0.6,0-1-0.1-1.4-0.3c-0.4-0.2-0.8-0.5-1.1-0.8v4H227.3z M231.3,76.5
			c-0.5,0-1,0.1-1.4,0.4c-0.4,0.2-0.8,0.6-1.1,1v4.4c0.3,0.4,0.6,0.7,1,0.8c0.4,0.2,0.7,0.2,1.2,0.2c0.8,0,1.5-0.3,2-0.9
			c0.5-0.6,0.7-1.5,0.7-2.6c0-0.6-0.1-1.1-0.2-1.5c-0.1-0.4-0.3-0.8-0.5-1c-0.2-0.3-0.4-0.5-0.7-0.6S231.7,76.5,231.3,76.5z"/>
		<path d="M240,84.6c-0.7,0-1.3-0.2-1.7-0.6s-0.6-1-0.6-1.7v-5.6h-1.1c-0.1,0-0.2,0-0.2-0.1c-0.1-0.1-0.1-0.1-0.1-0.3v-0.6l1.5-0.2
			l0.4-2.8c0-0.1,0.1-0.2,0.1-0.2c0.1-0.1,0.1-0.1,0.3-0.1h0.8v3.1h2.6v1.2h-2.6v5.5c0,0.4,0.1,0.7,0.3,0.9c0.2,0.2,0.4,0.3,0.7,0.3
			c0.2,0,0.3,0,0.4-0.1c0.1,0,0.2-0.1,0.3-0.1c0.1-0.1,0.2-0.1,0.2-0.1c0.1,0,0.1-0.1,0.2-0.1c0.1,0,0.2,0.1,0.2,0.2l0.5,0.8
			c-0.3,0.3-0.6,0.5-1,0.6C240.8,84.6,240.4,84.6,240,84.6z"/>
		<path d="M243.4,83.5c0-0.2,0-0.3,0.1-0.4c0.1-0.1,0.1-0.3,0.2-0.4c0.1-0.1,0.2-0.2,0.4-0.2c0.1-0.1,0.3-0.1,0.4-0.1
			c0.2,0,0.3,0,0.4,0.1c0.1,0.1,0.3,0.1,0.4,0.2s0.2,0.2,0.2,0.4c0.1,0.1,0.1,0.3,0.1,0.4c0,0.2,0,0.3-0.1,0.4
			c-0.1,0.1-0.1,0.3-0.2,0.4s-0.2,0.2-0.4,0.2c-0.1,0.1-0.3,0.1-0.4,0.1c-0.2,0-0.3,0-0.4-0.1c-0.1-0.1-0.3-0.1-0.4-0.2
			c-0.1-0.1-0.2-0.2-0.2-0.4C243.4,83.8,243.4,83.7,243.4,83.5z"/>
	</g>
	<g>
		<path d="M273.6,78.1c0,1-0.2,1.9-0.5,2.7c-0.3,0.8-0.7,1.5-1.3,2.1c-0.6,0.6-1.2,1-2,1.4c-0.8,0.3-1.6,0.5-2.6,0.5
			c-0.9,0-1.8-0.2-2.6-0.5c-0.8-0.3-1.4-0.8-2-1.4c-0.6-0.6-1-1.3-1.3-2.1c-0.3-0.8-0.5-1.7-0.5-2.7c0-1,0.2-1.9,0.5-2.7
			c0.3-0.8,0.7-1.5,1.3-2.1s1.2-1,2-1.4c0.8-0.3,1.6-0.5,2.6-0.5c0.9,0,1.8,0.2,2.6,0.5c0.8,0.3,1.5,0.8,2,1.4s1,1.3,1.3,2.1
			S273.6,77.1,273.6,78.1z M271.8,78.1c0-0.8-0.1-1.5-0.3-2.1c-0.2-0.6-0.5-1.2-0.9-1.6s-0.9-0.8-1.4-1c-0.6-0.2-1.2-0.4-1.9-0.4
			c-0.7,0-1.3,0.1-1.9,0.4c-0.6,0.2-1,0.6-1.4,1s-0.7,1-0.9,1.6c-0.2,0.6-0.3,1.3-0.3,2.1s0.1,1.5,0.3,2.1c0.2,0.6,0.5,1.2,0.9,1.6
			c0.4,0.4,0.9,0.8,1.4,1s1.2,0.3,1.9,0.3c0.7,0,1.3-0.1,1.9-0.3s1-0.6,1.4-1c0.4-0.4,0.7-1,0.9-1.6
			C271.7,79.6,271.8,78.8,271.8,78.1z"/>
		<path d="M282,77c0,0.1-0.1,0.1-0.1,0.2c0,0-0.1,0.1-0.2,0.1c-0.1,0-0.2,0-0.3-0.1c-0.1-0.1-0.2-0.2-0.4-0.2
			c-0.2-0.1-0.4-0.2-0.6-0.2s-0.5-0.1-0.9-0.1c-0.4,0-0.8,0.1-1.2,0.2c-0.3,0.2-0.6,0.4-0.9,0.7c-0.2,0.3-0.4,0.7-0.5,1.1
			c-0.1,0.4-0.2,0.9-0.2,1.4c0,0.6,0.1,1,0.2,1.5c0.1,0.4,0.3,0.8,0.5,1.1c0.2,0.3,0.5,0.5,0.8,0.7c0.3,0.2,0.7,0.2,1.1,0.2
			c0.4,0,0.7,0,1-0.1c0.3-0.1,0.5-0.2,0.6-0.3s0.3-0.2,0.4-0.3c0.1-0.1,0.2-0.1,0.3-0.1c0.1,0,0.2,0.1,0.3,0.2l0.5,0.6
			c-0.4,0.5-0.9,0.8-1.5,1.1c-0.6,0.2-1.2,0.3-1.9,0.3c-0.6,0-1.1-0.1-1.6-0.3c-0.5-0.2-0.9-0.5-1.3-0.9c-0.4-0.4-0.6-0.9-0.9-1.5
			c-0.2-0.6-0.3-1.2-0.3-2c0-0.7,0.1-1.3,0.3-1.9c0.2-0.6,0.5-1.1,0.8-1.5c0.4-0.4,0.8-0.7,1.3-1c0.5-0.2,1.1-0.4,1.8-0.4
			c0.6,0,1.2,0.1,1.7,0.3c0.5,0.2,0.9,0.5,1.3,0.9L282,77z"/>
		<path d="M286.9,84.6c-0.7,0-1.3-0.2-1.7-0.6s-0.6-1-0.6-1.7v-5.6h-1.1c-0.1,0-0.2,0-0.2-0.1c-0.1-0.1-0.1-0.1-0.1-0.3v-0.6
			l1.5-0.2l0.4-2.8c0-0.1,0.1-0.2,0.1-0.2c0.1-0.1,0.1-0.1,0.3-0.1h0.8v3.1h2.6v1.2h-2.6v5.5c0,0.4,0.1,0.7,0.3,0.9
			c0.2,0.2,0.4,0.3,0.7,0.3c0.2,0,0.3,0,0.4-0.1c0.1,0,0.2-0.1,0.3-0.1c0.1-0.1,0.2-0.1,0.2-0.1c0.1,0,0.1-0.1,0.2-0.1
			c0.1,0,0.2,0.1,0.2,0.2l0.5,0.8c-0.3,0.3-0.6,0.5-1,0.6C287.7,84.6,287.3,84.6,286.9,84.6z"/>
		<path d="M290.3,83.5c0-0.2,0-0.3,0.1-0.4c0.1-0.1,0.1-0.3,0.2-0.4c0.1-0.1,0.2-0.2,0.4-0.2c0.1-0.1,0.3-0.1,0.4-0.1
			c0.2,0,0.3,0,0.4,0.1c0.1,0.1,0.3,0.1,0.4,0.2s0.2,0.2,0.2,0.4c0.1,0.1,0.1,0.3,0.1,0.4c0,0.2,0,0.3-0.1,0.4
			c-0.1,0.1-0.1,0.3-0.2,0.4s-0.2,0.2-0.4,0.2c-0.1,0.1-0.3,0.1-0.4,0.1c-0.2,0-0.3,0-0.4-0.1c-0.1-0.1-0.3-0.1-0.4-0.2
			c-0.1-0.1-0.2-0.2-0.2-0.4C290.4,83.8,290.3,83.7,290.3,83.5z"/>
	</g>
	<g>
		<path d="M311.9,71.7c0.1,0,0.2,0.1,0.3,0.2l7.5,9.7c0-0.2,0-0.3,0-0.5s0-0.3,0-0.4v-9.1h1.5v12.9h-0.9c-0.1,0-0.3,0-0.3-0.1
			c-0.1,0-0.2-0.1-0.3-0.2l-7.5-9.7c0,0.1,0,0.3,0,0.4s0,0.3,0,0.4v9.2h-1.5V71.6h0.9C311.7,71.6,311.8,71.6,311.9,71.7z"/>
		<path d="M327.7,75.2c0.7,0,1.3,0.1,1.8,0.3c0.5,0.2,1,0.5,1.4,0.9s0.7,0.9,0.9,1.5c0.2,0.6,0.3,1.2,0.3,1.9c0,0.7-0.1,1.4-0.3,1.9
			c-0.2,0.6-0.5,1.1-0.9,1.5c-0.4,0.4-0.8,0.7-1.4,0.9c-0.5,0.2-1.1,0.3-1.8,0.3s-1.3-0.1-1.8-0.3c-0.5-0.2-1-0.5-1.4-0.9
			c-0.4-0.4-0.7-0.9-0.9-1.5c-0.2-0.6-0.3-1.2-0.3-1.9c0-0.7,0.1-1.4,0.3-1.9c0.2-0.6,0.5-1.1,0.9-1.5s0.8-0.7,1.4-0.9
			C326.4,75.4,327,75.2,327.7,75.2z M327.7,83.4c0.9,0,1.6-0.3,2-0.9c0.4-0.6,0.7-1.4,0.7-2.5c0-1.1-0.2-1.9-0.7-2.5
			c-0.4-0.6-1.1-0.9-2-0.9c-0.5,0-0.9,0.1-1.2,0.2c-0.3,0.2-0.6,0.4-0.8,0.7s-0.4,0.7-0.5,1.1c-0.1,0.4-0.2,0.9-0.2,1.5
			s0.1,1,0.2,1.4c0.1,0.4,0.3,0.8,0.5,1.1s0.5,0.5,0.8,0.7C326.9,83.3,327.3,83.4,327.7,83.4z"/>
		<path d="M332.6,75.4h1.3c0.1,0,0.2,0,0.3,0.1s0.1,0.1,0.2,0.2l2.3,5.9c0.1,0.2,0.1,0.4,0.2,0.6c0,0.2,0.1,0.4,0.1,0.6
			c0-0.2,0.1-0.4,0.2-0.6c0.1-0.2,0.1-0.4,0.2-0.6l2.3-5.9c0-0.1,0.1-0.2,0.2-0.2s0.2-0.1,0.3-0.1h1.3l-3.7,9.1h-1.4L332.6,75.4z"/>
		<path d="M341.3,83.5c0-0.2,0-0.3,0.1-0.4c0.1-0.1,0.1-0.3,0.2-0.4c0.1-0.1,0.2-0.2,0.4-0.2c0.1-0.1,0.3-0.1,0.4-0.1
			c0.2,0,0.3,0,0.4,0.1c0.1,0.1,0.3,0.1,0.4,0.2s0.2,0.2,0.2,0.4c0.1,0.1,0.1,0.3,0.1,0.4c0,0.2,0,0.3-0.1,0.4
			c-0.1,0.1-0.1,0.3-0.2,0.4s-0.2,0.2-0.4,0.2c-0.1,0.1-0.3,0.1-0.4,0.1c-0.2,0-0.3,0-0.4-0.1c-0.1-0.1-0.3-0.1-0.4-0.2
			c-0.1-0.1-0.2-0.2-0.2-0.4C341.3,83.8,341.3,83.7,341.3,83.5z"/>
	</g>
	<g>
		<path d="M371.8,78.1c0,1-0.2,1.8-0.5,2.6c-0.3,0.8-0.7,1.5-1.3,2c-0.6,0.6-1.2,1-2,1.3s-1.6,0.5-2.6,0.5h-4.8V71.6h4.8
			c0.9,0,1.8,0.2,2.6,0.5s1.4,0.7,2,1.3c0.6,0.6,1,1.2,1.3,2C371.7,76.2,371.8,77.1,371.8,78.1z M370.1,78.1c0-0.8-0.1-1.5-0.3-2.1
			c-0.2-0.6-0.5-1.2-0.9-1.6c-0.4-0.4-0.9-0.8-1.4-1s-1.2-0.3-1.9-0.3h-3.1v10.1h3.1c0.7,0,1.3-0.1,1.9-0.3s1-0.6,1.4-1
			c0.4-0.4,0.7-1,0.9-1.6C370,79.6,370.1,78.8,370.1,78.1z"/>
		<path d="M377.6,75.2c0.5,0,1.1,0.1,1.5,0.3s0.9,0.4,1.2,0.8c0.3,0.3,0.6,0.8,0.8,1.3c0.2,0.5,0.3,1.1,0.3,1.7c0,0.3,0,0.4-0.1,0.5
			c-0.1,0.1-0.2,0.1-0.3,0.1h-6.1c0,0.6,0.1,1.1,0.2,1.5c0.1,0.4,0.3,0.8,0.6,1.1s0.6,0.5,0.9,0.6c0.3,0.1,0.7,0.2,1.2,0.2
			c0.4,0,0.7,0,1-0.1c0.3-0.1,0.5-0.2,0.8-0.3c0.2-0.1,0.4-0.2,0.5-0.3c0.1-0.1,0.3-0.1,0.4-0.1c0.1,0,0.2,0.1,0.3,0.2l0.4,0.6
			c-0.2,0.2-0.4,0.4-0.7,0.6c-0.3,0.2-0.6,0.3-0.9,0.4c-0.3,0.1-0.6,0.2-1,0.3c-0.3,0.1-0.7,0.1-1,0.1c-0.6,0-1.2-0.1-1.7-0.3
			c-0.5-0.2-1-0.5-1.4-0.9s-0.7-0.9-0.9-1.5c-0.2-0.6-0.3-1.3-0.3-2.1c0-0.6,0.1-1.2,0.3-1.8c0.2-0.6,0.5-1,0.8-1.4
			c0.4-0.4,0.8-0.7,1.3-1C376.3,75.4,376.9,75.2,377.6,75.2z M377.6,76.4c-0.8,0-1.4,0.2-1.8,0.7c-0.4,0.4-0.7,1.1-0.8,1.9h5
			c0-0.4-0.1-0.7-0.2-1c-0.1-0.3-0.3-0.6-0.4-0.8c-0.2-0.2-0.4-0.4-0.7-0.5C378.3,76.5,378,76.4,377.6,76.4z M380.2,71.5l-2.1,2.3
			c-0.1,0.1-0.2,0.2-0.2,0.2s-0.2,0.1-0.3,0.1h-1l1.3-2.2c0.1-0.1,0.2-0.2,0.3-0.3s0.2-0.1,0.4-0.1H380.2z"/>
		<path d="M389.6,77c0,0.1-0.1,0.1-0.1,0.2c0,0-0.1,0.1-0.2,0.1c-0.1,0-0.2,0-0.3-0.1c-0.1-0.1-0.2-0.2-0.4-0.2
			c-0.2-0.1-0.4-0.2-0.6-0.2s-0.5-0.1-0.9-0.1c-0.4,0-0.8,0.1-1.2,0.2c-0.3,0.2-0.6,0.4-0.9,0.7c-0.2,0.3-0.4,0.7-0.5,1.1
			c-0.1,0.4-0.2,0.9-0.2,1.4c0,0.6,0.1,1,0.2,1.5c0.1,0.4,0.3,0.8,0.5,1.1c0.2,0.3,0.5,0.5,0.8,0.7c0.3,0.2,0.7,0.2,1.1,0.2
			c0.4,0,0.7,0,1-0.1c0.3-0.1,0.5-0.2,0.6-0.3s0.3-0.2,0.4-0.3c0.1-0.1,0.2-0.1,0.3-0.1c0.1,0,0.2,0.1,0.3,0.2l0.5,0.6
			c-0.4,0.5-0.9,0.8-1.5,1.1c-0.6,0.2-1.2,0.3-1.9,0.3c-0.6,0-1.1-0.1-1.6-0.3c-0.5-0.2-0.9-0.5-1.3-0.9c-0.4-0.4-0.6-0.9-0.9-1.5
			c-0.2-0.6-0.3-1.2-0.3-2c0-0.7,0.1-1.3,0.3-1.9c0.2-0.6,0.5-1.1,0.8-1.5c0.4-0.4,0.8-0.7,1.3-1c0.5-0.2,1.1-0.4,1.8-0.4
			c0.6,0,1.2,0.1,1.7,0.3c0.5,0.2,0.9,0.5,1.3,0.9L389.6,77z"/>
		<path d="M391.3,83.5c0-0.2,0-0.3,0.1-0.4c0.1-0.1,0.1-0.3,0.2-0.4c0.1-0.1,0.2-0.2,0.4-0.2c0.1-0.1,0.3-0.1,0.4-0.1
			c0.2,0,0.3,0,0.4,0.1c0.1,0.1,0.3,0.1,0.4,0.2s0.2,0.2,0.2,0.4c0.1,0.1,0.1,0.3,0.1,0.4c0,0.2,0,0.3-0.1,0.4
			c-0.1,0.1-0.1,0.3-0.2,0.4s-0.2,0.2-0.4,0.2c-0.1,0.1-0.3,0.1-0.4,0.1c-0.2,0-0.3,0-0.4-0.1c-0.1-0.1-0.3-0.1-0.4-0.2
			c-0.1-0.1-0.2-0.2-0.2-0.4C391.3,83.8,391.3,83.7,391.3,83.5z"/>
	</g>
	<g>
		<path d="M167.5,84.5h-1.3c-0.2,0-0.3,0-0.4-0.1c-0.1-0.1-0.2-0.2-0.2-0.3l-1.2-3.1h-5.8l-1.2,3.1c0,0.1-0.1,0.2-0.2,0.3
			s-0.2,0.1-0.4,0.1h-1.4l5.2-12.9h1.8L167.5,84.5z M159,79.7h4.8l-2-5.2c-0.1-0.3-0.3-0.7-0.4-1.2c-0.1,0.2-0.1,0.5-0.2,0.7
			s-0.1,0.4-0.2,0.5L159,79.7z"/>
		<path d="M172.6,75.2c0.7,0,1.3,0.1,1.8,0.3c0.5,0.2,1,0.5,1.4,0.9s0.7,0.9,0.9,1.5c0.2,0.6,0.3,1.2,0.3,1.9c0,0.7-0.1,1.4-0.3,1.9
			c-0.2,0.6-0.5,1.1-0.9,1.5c-0.4,0.4-0.8,0.7-1.4,0.9c-0.5,0.2-1.1,0.3-1.8,0.3s-1.3-0.1-1.8-0.3c-0.5-0.2-1-0.5-1.4-0.9
			c-0.4-0.4-0.7-0.9-0.9-1.5c-0.2-0.6-0.3-1.2-0.3-1.9c0-0.7,0.1-1.4,0.3-1.9c0.2-0.6,0.5-1.1,0.9-1.5s0.8-0.7,1.4-0.9
			C171.3,75.4,171.9,75.2,172.6,75.2z M172.6,83.4c0.9,0,1.6-0.3,2-0.9c0.4-0.6,0.7-1.4,0.7-2.5c0-1.1-0.2-1.9-0.7-2.5
			c-0.4-0.6-1.1-0.9-2-0.9c-0.5,0-0.9,0.1-1.2,0.2c-0.3,0.2-0.6,0.4-0.8,0.7s-0.4,0.7-0.5,1.1c-0.1,0.4-0.2,0.9-0.2,1.5
			s0.1,1,0.2,1.4c0.1,0.4,0.3,0.8,0.5,1.1s0.5,0.5,0.8,0.7C171.7,83.3,172.1,83.4,172.6,83.4z"/>
		<path d="M180.3,75.4v5.8c0,0.7,0.2,1.2,0.5,1.6c0.3,0.4,0.8,0.6,1.4,0.6c0.5,0,0.9-0.1,1.3-0.3c0.4-0.2,0.8-0.5,1.1-0.9v-6.7h1.6
			v9.1h-1c-0.2,0-0.4-0.1-0.4-0.3l-0.1-1c-0.4,0.4-0.8,0.8-1.3,1.1c-0.5,0.3-1.1,0.4-1.7,0.4c-0.5,0-0.9-0.1-1.3-0.2
			c-0.4-0.2-0.7-0.4-1-0.7c-0.3-0.3-0.5-0.7-0.6-1.1c-0.1-0.4-0.2-0.9-0.2-1.4v-5.8H180.3z M185.3,74h-1.1c-0.1,0-0.2,0-0.4-0.1
			l-1.2-1.1l-0.2-0.2l-0.1,0.2l-1.2,1.1c0,0-0.1,0.1-0.2,0.1s-0.1,0-0.2,0h-1.1l2-2.4h1.5L185.3,74z"/>
		<path d="M191.6,84.6c-0.7,0-1.3-0.2-1.7-0.6s-0.6-1-0.6-1.7v-5.6h-1.1c-0.1,0-0.2,0-0.2-0.1c-0.1-0.1-0.1-0.1-0.1-0.3v-0.6
			l1.5-0.2l0.4-2.8c0-0.1,0.1-0.2,0.1-0.2c0.1-0.1,0.1-0.1,0.3-0.1h0.8v3.1h2.6v1.2H191v5.5c0,0.4,0.1,0.7,0.3,0.9
			c0.2,0.2,0.4,0.3,0.7,0.3c0.2,0,0.3,0,0.4-0.1c0.1,0,0.2-0.1,0.3-0.1c0.1-0.1,0.2-0.1,0.2-0.1c0.1,0,0.1-0.1,0.2-0.1
			c0.1,0,0.2,0.1,0.2,0.2l0.5,0.8c-0.3,0.3-0.6,0.5-1,0.6C192.5,84.6,192.1,84.6,191.6,84.6z"/>
		<path d="M195.1,83.5c0-0.2,0-0.3,0.1-0.4c0.1-0.1,0.1-0.3,0.2-0.4c0.1-0.1,0.2-0.2,0.4-0.2c0.1-0.1,0.3-0.1,0.4-0.1
			c0.2,0,0.3,0,0.4,0.1c0.1,0.1,0.3,0.1,0.4,0.2s0.2,0.2,0.2,0.4c0.1,0.1,0.1,0.3,0.1,0.4c0,0.2,0,0.3-0.1,0.4
			c-0.1,0.1-0.1,0.3-0.2,0.4s-0.2,0.2-0.4,0.2c-0.1,0.1-0.3,0.1-0.4,0.1c-0.2,0-0.3,0-0.4-0.1c-0.1-0.1-0.3-0.1-0.4-0.2
			c-0.1-0.1-0.2-0.2-0.2-0.4C195.1,83.8,195.1,83.7,195.1,83.5z"/>
	</g>
	<g>
		<path d="M717.6,80c0,0.7-0.1,1.4-0.3,1.9c-0.2,0.6-0.4,1.1-0.8,1.4c-0.3,0.4-0.8,0.7-1.3,0.9c-0.5,0.2-1.1,0.3-1.7,0.3
			c-0.6,0-1.2-0.1-1.8-0.3c0-0.2,0-0.3,0-0.5c0-0.2,0-0.3,0.1-0.5c0-0.1,0-0.2,0.1-0.2c0.1-0.1,0.2-0.1,0.3-0.1c0.1,0,0.3,0,0.4,0.1
			c0.2,0.1,0.4,0.1,0.7,0.1c0.4,0,0.7-0.1,1.1-0.2c0.3-0.1,0.6-0.3,0.8-0.6c0.2-0.3,0.4-0.6,0.5-1s0.2-0.9,0.2-1.4v-8.5h1.7V80z"/>
		<path d="M721.9,75.4v5.8c0,0.7,0.2,1.2,0.5,1.6s0.8,0.6,1.4,0.6c0.5,0,0.9-0.1,1.3-0.3c0.4-0.2,0.8-0.5,1.1-0.9v-6.7h1.6v9.1h-1
			c-0.2,0-0.4-0.1-0.4-0.3l-0.1-1c-0.4,0.4-0.8,0.8-1.3,1.1c-0.5,0.3-1.1,0.4-1.7,0.4c-0.5,0-0.9-0.1-1.3-0.2s-0.7-0.4-1-0.7
			c-0.3-0.3-0.5-0.7-0.6-1.1c-0.1-0.4-0.2-0.9-0.2-1.4v-5.8H721.9z"/>
		<path d="M732.6,72.5c0,0.2,0,0.3-0.1,0.4c-0.1,0.1-0.1,0.3-0.3,0.4c-0.1,0.1-0.2,0.2-0.4,0.2c-0.1,0.1-0.3,0.1-0.4,0.1
			s-0.3,0-0.4-0.1s-0.3-0.1-0.4-0.2c-0.1-0.1-0.2-0.2-0.2-0.4c-0.1-0.1-0.1-0.3-0.1-0.4c0-0.2,0-0.3,0.1-0.4
			c0.1-0.1,0.1-0.3,0.2-0.4c0.1-0.1,0.2-0.2,0.4-0.2s0.3-0.1,0.4-0.1s0.3,0,0.4,0.1c0.1,0.1,0.3,0.1,0.4,0.2
			c0.1,0.1,0.2,0.2,0.3,0.4C732.6,72.2,732.6,72.4,732.6,72.5z M732.3,75.4v9.1h-1.6v-9.1H732.3z"/>
		<path d="M736.9,71.2v13.3h-1.6V71.2H736.9z"/>
		<path d="M739.2,83.5c0-0.2,0-0.3,0.1-0.4c0.1-0.1,0.1-0.3,0.2-0.4s0.2-0.2,0.4-0.2c0.1-0.1,0.3-0.1,0.4-0.1c0.2,0,0.3,0,0.4,0.1
			c0.1,0.1,0.3,0.1,0.4,0.2c0.1,0.1,0.2,0.2,0.2,0.4c0.1,0.1,0.1,0.3,0.1,0.4c0,0.2,0,0.3-0.1,0.4c-0.1,0.1-0.1,0.3-0.2,0.4
			c-0.1,0.1-0.2,0.2-0.4,0.2c-0.1,0.1-0.3,0.1-0.4,0.1c-0.2,0-0.3,0-0.4-0.1c-0.1-0.1-0.3-0.1-0.4-0.2s-0.2-0.2-0.2-0.4
			C739.2,83.8,739.2,83.7,739.2,83.5z"/>
	</g>
	<g>
		<path d="M815.2,73.6c-0.1,0.1-0.1,0.2-0.2,0.2c-0.1,0-0.1,0.1-0.2,0.1c-0.1,0-0.2-0.1-0.4-0.2c-0.1-0.1-0.3-0.2-0.5-0.3
			s-0.5-0.2-0.7-0.3s-0.6-0.2-1.1-0.2c-0.4,0-0.7,0.1-1,0.2c-0.3,0.1-0.6,0.2-0.8,0.4c-0.2,0.2-0.4,0.4-0.5,0.6
			c-0.1,0.2-0.2,0.5-0.2,0.8c0,0.4,0.1,0.7,0.3,0.9s0.4,0.4,0.7,0.6s0.6,0.3,1,0.4c0.4,0.1,0.7,0.3,1.1,0.4c0.4,0.1,0.8,0.3,1.1,0.4
			s0.7,0.4,1,0.6s0.5,0.6,0.7,0.9c0.2,0.4,0.3,0.8,0.3,1.4c0,0.6-0.1,1.1-0.3,1.6c-0.2,0.5-0.5,0.9-0.8,1.3
			c-0.4,0.4-0.8,0.7-1.4,0.9s-1.1,0.3-1.8,0.3c-0.8,0-1.6-0.2-2.3-0.5c-0.7-0.3-1.3-0.7-1.8-1.2l0.5-0.8c0-0.1,0.1-0.1,0.2-0.2
			c0.1,0,0.1-0.1,0.2-0.1c0.1,0,0.3,0.1,0.4,0.2c0.2,0.1,0.4,0.3,0.6,0.4s0.5,0.3,0.9,0.4c0.3,0.1,0.8,0.2,1.3,0.2
			c0.4,0,0.8-0.1,1.1-0.2c0.3-0.1,0.6-0.3,0.8-0.5c0.2-0.2,0.4-0.5,0.5-0.7c0.1-0.3,0.2-0.6,0.2-1c0-0.4-0.1-0.7-0.3-1
			s-0.4-0.5-0.7-0.6s-0.6-0.3-1-0.4c-0.4-0.1-0.7-0.2-1.1-0.4c-0.4-0.1-0.8-0.3-1.1-0.4c-0.4-0.2-0.7-0.4-1-0.6
			c-0.3-0.3-0.5-0.6-0.7-1c-0.2-0.4-0.3-0.9-0.3-1.4c0-0.5,0.1-0.9,0.3-1.3c0.2-0.4,0.4-0.8,0.8-1.1c0.3-0.3,0.8-0.6,1.2-0.8
			c0.5-0.2,1.1-0.3,1.7-0.3c0.7,0,1.4,0.1,2,0.3c0.6,0.2,1.1,0.6,1.6,1L815.2,73.6z"/>
		<path d="M821.5,75.2c0.5,0,1.1,0.1,1.5,0.3s0.9,0.4,1.2,0.8c0.3,0.3,0.6,0.8,0.8,1.3c0.2,0.5,0.3,1.1,0.3,1.7c0,0.3,0,0.4-0.1,0.5
			c-0.1,0.1-0.2,0.1-0.3,0.1h-6.1c0,0.6,0.1,1.1,0.2,1.5c0.1,0.4,0.3,0.8,0.6,1.1s0.6,0.5,0.9,0.6c0.3,0.1,0.7,0.2,1.2,0.2
			c0.4,0,0.7,0,1-0.1c0.3-0.1,0.5-0.2,0.8-0.3c0.2-0.1,0.4-0.2,0.5-0.3c0.1-0.1,0.3-0.1,0.4-0.1c0.1,0,0.2,0.1,0.3,0.2l0.4,0.6
			c-0.2,0.2-0.4,0.4-0.7,0.6c-0.3,0.2-0.6,0.3-0.9,0.4c-0.3,0.1-0.6,0.2-1,0.3c-0.3,0.1-0.7,0.1-1,0.1c-0.6,0-1.2-0.1-1.7-0.3
			c-0.5-0.2-1-0.5-1.4-0.9c-0.4-0.4-0.7-0.9-0.9-1.5s-0.3-1.3-0.3-2.1c0-0.6,0.1-1.2,0.3-1.8c0.2-0.6,0.5-1,0.8-1.4
			c0.4-0.4,0.8-0.7,1.3-1C820.2,75.4,820.8,75.2,821.5,75.2z M821.5,76.4c-0.8,0-1.4,0.2-1.8,0.7c-0.4,0.4-0.7,1.1-0.8,1.9h5
			c0-0.4-0.1-0.7-0.2-1c-0.1-0.3-0.3-0.6-0.5-0.8s-0.4-0.4-0.7-0.5S821.9,76.4,821.5,76.4z"/>
		<path d="M827.3,87.6V75.4h1c0.2,0,0.4,0.1,0.4,0.3l0.1,1.1c0.4-0.5,0.8-0.9,1.3-1.1c0.5-0.3,1.1-0.4,1.7-0.4c0.5,0,1,0.1,1.4,0.3
			c0.4,0.2,0.8,0.5,1.1,0.9s0.5,0.9,0.7,1.5s0.2,1.3,0.2,2c0,0.7-0.1,1.3-0.3,1.9c-0.2,0.6-0.4,1.1-0.8,1.5c-0.3,0.4-0.7,0.8-1.2,1
			c-0.5,0.2-1,0.4-1.7,0.4c-0.6,0-1-0.1-1.4-0.3c-0.4-0.2-0.8-0.5-1.1-0.8v4H827.3z M831.3,76.5c-0.5,0-1,0.1-1.4,0.4
			c-0.4,0.2-0.8,0.6-1.1,1v4.4c0.3,0.4,0.6,0.7,1,0.8s0.7,0.2,1.2,0.2c0.8,0,1.5-0.3,2-0.9c0.5-0.6,0.7-1.5,0.7-2.6
			c0-0.6-0.1-1.1-0.2-1.5c-0.1-0.4-0.3-0.8-0.5-1s-0.4-0.5-0.7-0.6S831.7,76.5,831.3,76.5z"/>
		<path d="M840,84.6c-0.7,0-1.3-0.2-1.7-0.6c-0.4-0.4-0.6-1-0.6-1.7v-5.6h-1.1c-0.1,0-0.2,0-0.2-0.1s-0.1-0.1-0.1-0.3v-0.6l1.5-0.2
			l0.4-2.8c0-0.1,0.1-0.2,0.1-0.2c0.1-0.1,0.2-0.1,0.3-0.1h0.8v3.1h2.6v1.2h-2.6v5.5c0,0.4,0.1,0.7,0.3,0.9c0.2,0.2,0.4,0.3,0.7,0.3
			c0.2,0,0.3,0,0.4-0.1c0.1,0,0.2-0.1,0.3-0.1c0.1-0.1,0.2-0.1,0.2-0.1c0.1,0,0.1-0.1,0.2-0.1c0.1,0,0.2,0.1,0.2,0.2l0.5,0.8
			c-0.3,0.3-0.6,0.5-1,0.6S840.4,84.6,840,84.6z"/>
		<path d="M843.4,83.5c0-0.2,0-0.3,0.1-0.4c0.1-0.1,0.1-0.3,0.2-0.4c0.1-0.1,0.2-0.2,0.4-0.2c0.1-0.1,0.3-0.1,0.4-0.1s0.3,0,0.4,0.1
			c0.1,0.1,0.3,0.1,0.4,0.2c0.1,0.1,0.2,0.2,0.2,0.4c0.1,0.1,0.1,0.3,0.1,0.4c0,0.2,0,0.3-0.1,0.4c-0.1,0.1-0.1,0.3-0.2,0.4
			c-0.1,0.1-0.2,0.2-0.4,0.2c-0.1,0.1-0.3,0.1-0.4,0.1s-0.3,0-0.4-0.1c-0.1-0.1-0.3-0.1-0.4-0.2c-0.1-0.1-0.2-0.2-0.2-0.4
			C843.4,83.8,843.4,83.7,843.4,83.5z"/>
	</g>
	<g>
		<path d="M873.6,78.1c0,1-0.2,1.9-0.5,2.7c-0.3,0.8-0.7,1.5-1.3,2.1c-0.6,0.6-1.2,1-2,1.4c-0.8,0.3-1.6,0.5-2.6,0.5
			c-0.9,0-1.8-0.2-2.6-0.5c-0.8-0.3-1.4-0.8-2-1.4c-0.6-0.6-1-1.3-1.3-2.1c-0.3-0.8-0.5-1.7-0.5-2.7c0-1,0.2-1.9,0.5-2.7
			s0.7-1.5,1.3-2.1c0.6-0.6,1.2-1,2-1.4c0.8-0.3,1.6-0.5,2.6-0.5c0.9,0,1.8,0.2,2.6,0.5c0.8,0.3,1.5,0.8,2,1.4
			c0.6,0.6,1,1.3,1.3,2.1C873.5,76.2,873.6,77.1,873.6,78.1z M871.8,78.1c0-0.8-0.1-1.5-0.3-2.1c-0.2-0.6-0.5-1.2-0.9-1.6
			c-0.4-0.4-0.9-0.8-1.4-1c-0.6-0.2-1.2-0.4-1.9-0.4c-0.7,0-1.3,0.1-1.9,0.4c-0.6,0.2-1,0.6-1.4,1c-0.4,0.4-0.7,1-0.9,1.6
			c-0.2,0.6-0.3,1.3-0.3,2.1s0.1,1.5,0.3,2.1c0.2,0.6,0.5,1.2,0.9,1.6c0.4,0.4,0.9,0.8,1.4,1c0.6,0.2,1.2,0.3,1.9,0.3
			c0.7,0,1.3-0.1,1.9-0.3c0.6-0.2,1-0.6,1.4-1c0.4-0.4,0.7-1,0.9-1.6C871.7,79.6,871.8,78.8,871.8,78.1z"/>
		<path d="M882,77c0,0.1-0.1,0.1-0.1,0.2c0,0-0.1,0.1-0.2,0.1s-0.2,0-0.3-0.1c-0.1-0.1-0.2-0.2-0.4-0.2c-0.2-0.1-0.4-0.2-0.6-0.2
			c-0.2-0.1-0.5-0.1-0.9-0.1c-0.4,0-0.8,0.1-1.2,0.2c-0.3,0.2-0.6,0.4-0.9,0.7c-0.2,0.3-0.4,0.7-0.5,1.1c-0.1,0.4-0.2,0.9-0.2,1.4
			c0,0.6,0.1,1,0.2,1.5c0.1,0.4,0.3,0.8,0.5,1.1c0.2,0.3,0.5,0.5,0.8,0.7c0.3,0.2,0.7,0.2,1.1,0.2c0.4,0,0.7,0,1-0.1
			c0.3-0.1,0.5-0.2,0.6-0.3s0.3-0.2,0.4-0.3c0.1-0.1,0.2-0.1,0.3-0.1c0.1,0,0.2,0.1,0.3,0.2l0.5,0.6c-0.4,0.5-0.9,0.8-1.5,1.1
			c-0.6,0.2-1.2,0.3-1.9,0.3c-0.6,0-1.1-0.1-1.6-0.3c-0.5-0.2-0.9-0.5-1.3-0.9c-0.4-0.4-0.6-0.9-0.9-1.5c-0.2-0.6-0.3-1.2-0.3-2
			c0-0.7,0.1-1.3,0.3-1.9c0.2-0.6,0.5-1.1,0.8-1.5s0.8-0.7,1.3-1c0.5-0.2,1.1-0.4,1.8-0.4c0.6,0,1.2,0.1,1.7,0.3
			c0.5,0.2,0.9,0.5,1.3,0.9L882,77z"/>
		<path d="M886.9,84.6c-0.7,0-1.3-0.2-1.7-0.6c-0.4-0.4-0.6-1-0.6-1.7v-5.6h-1.1c-0.1,0-0.2,0-0.2-0.1s-0.1-0.1-0.1-0.3v-0.6
			l1.5-0.2l0.4-2.8c0-0.1,0.1-0.2,0.1-0.2c0.1-0.1,0.2-0.1,0.3-0.1h0.8v3.1h2.6v1.2h-2.6v5.5c0,0.4,0.1,0.7,0.3,0.9
			c0.2,0.2,0.4,0.3,0.7,0.3c0.2,0,0.3,0,0.4-0.1c0.1,0,0.2-0.1,0.3-0.1c0.1-0.1,0.2-0.1,0.2-0.1c0.1,0,0.1-0.1,0.2-0.1
			c0.1,0,0.2,0.1,0.2,0.2l0.5,0.8c-0.3,0.3-0.6,0.5-1,0.6S887.3,84.6,886.9,84.6z"/>
		<path d="M890.3,83.5c0-0.2,0-0.3,0.1-0.4c0.1-0.1,0.1-0.3,0.2-0.4c0.1-0.1,0.2-0.2,0.4-0.2c0.1-0.1,0.3-0.1,0.4-0.1s0.3,0,0.4,0.1
			c0.1,0.1,0.3,0.1,0.4,0.2c0.1,0.1,0.2,0.2,0.2,0.4c0.1,0.1,0.1,0.3,0.1,0.4c0,0.2,0,0.3-0.1,0.4c-0.1,0.1-0.1,0.3-0.2,0.4
			c-0.1,0.1-0.2,0.2-0.4,0.2c-0.1,0.1-0.3,0.1-0.4,0.1s-0.3,0-0.4-0.1c-0.1-0.1-0.3-0.1-0.4-0.2c-0.1-0.1-0.2-0.2-0.2-0.4
			C890.4,83.8,890.3,83.7,890.3,83.5z"/>
	</g>
	<g>
		<path d="M911.9,71.7c0.1,0,0.2,0.1,0.3,0.2l7.5,9.7c0-0.2,0-0.3,0-0.5s0-0.3,0-0.4v-9.1h1.5v12.9h-0.9c-0.1,0-0.3,0-0.3-0.1
			c-0.1,0-0.2-0.1-0.3-0.2l-7.5-9.7c0,0.1,0,0.3,0,0.4s0,0.3,0,0.4v9.2h-1.5V71.6h0.9C911.7,71.6,911.8,71.6,911.9,71.7z"/>
		<path d="M927.7,75.2c0.7,0,1.3,0.1,1.8,0.3c0.5,0.2,1,0.5,1.4,0.9s0.7,0.9,0.9,1.5c0.2,0.6,0.3,1.2,0.3,1.9c0,0.7-0.1,1.4-0.3,1.9
			c-0.2,0.6-0.5,1.1-0.9,1.5c-0.4,0.4-0.8,0.7-1.4,0.9c-0.5,0.2-1.1,0.3-1.8,0.3s-1.3-0.1-1.8-0.3c-0.5-0.2-1-0.5-1.4-0.9
			c-0.4-0.4-0.7-0.9-0.9-1.5c-0.2-0.6-0.3-1.2-0.3-1.9c0-0.7,0.1-1.4,0.3-1.9s0.5-1.1,0.9-1.5s0.8-0.7,1.4-0.9
			C926.4,75.4,927,75.2,927.7,75.2z M927.7,83.4c0.9,0,1.6-0.3,2-0.9c0.4-0.6,0.7-1.4,0.7-2.5c0-1.1-0.2-1.9-0.7-2.5
			c-0.4-0.6-1.1-0.9-2-0.9c-0.5,0-0.9,0.1-1.2,0.2c-0.3,0.2-0.6,0.4-0.8,0.7c-0.2,0.3-0.4,0.7-0.5,1.1c-0.1,0.4-0.2,0.9-0.2,1.5
			s0.1,1,0.2,1.4c0.1,0.4,0.3,0.8,0.5,1.1c0.2,0.3,0.5,0.5,0.8,0.7C926.9,83.3,927.3,83.4,927.7,83.4z"/>
		<path d="M932.6,75.4h1.3c0.1,0,0.2,0,0.3,0.1s0.1,0.1,0.2,0.2l2.3,5.9c0.1,0.2,0.1,0.4,0.2,0.6c0,0.2,0.1,0.4,0.1,0.6
			c0-0.2,0.1-0.4,0.2-0.6c0.1-0.2,0.1-0.4,0.2-0.6l2.3-5.9c0-0.1,0.1-0.2,0.2-0.2s0.2-0.1,0.3-0.1h1.3l-3.7,9.1h-1.4L932.6,75.4z"/>
		<path d="M941.3,83.5c0-0.2,0-0.3,0.1-0.4c0.1-0.1,0.1-0.3,0.2-0.4c0.1-0.1,0.2-0.2,0.4-0.2c0.1-0.1,0.3-0.1,0.4-0.1s0.3,0,0.4,0.1
			c0.1,0.1,0.3,0.1,0.4,0.2c0.1,0.1,0.2,0.2,0.2,0.4c0.1,0.1,0.1,0.3,0.1,0.4c0,0.2,0,0.3-0.1,0.4c-0.1,0.1-0.1,0.3-0.2,0.4
			c-0.1,0.1-0.2,0.2-0.4,0.2c-0.1,0.1-0.3,0.1-0.4,0.1s-0.3,0-0.4-0.1c-0.1-0.1-0.3-0.1-0.4-0.2c-0.1-0.1-0.2-0.2-0.2-0.4
			C941.3,83.8,941.3,83.7,941.3,83.5z"/>
	</g>
	<g>
		<path d="M971.8,78.1c0,1-0.2,1.8-0.5,2.6s-0.7,1.5-1.3,2s-1.2,1-2,1.3c-0.8,0.3-1.6,0.5-2.6,0.5h-4.8V71.6h4.8
			c0.9,0,1.8,0.2,2.6,0.5c0.8,0.3,1.4,0.7,2,1.3s1,1.2,1.3,2S971.8,77.1,971.8,78.1z M970.1,78.1c0-0.8-0.1-1.5-0.3-2.1
			c-0.2-0.6-0.5-1.2-0.9-1.6c-0.4-0.4-0.9-0.8-1.4-1c-0.6-0.2-1.2-0.3-1.9-0.3h-3.1v10.1h3.1c0.7,0,1.3-0.1,1.9-0.3
			c0.6-0.2,1-0.6,1.4-1c0.4-0.4,0.7-1,0.9-1.6C970,79.6,970.1,78.8,970.1,78.1z"/>
		<path d="M977.6,75.2c0.5,0,1.1,0.1,1.5,0.3s0.9,0.4,1.2,0.8c0.3,0.3,0.6,0.8,0.8,1.3c0.2,0.5,0.3,1.1,0.3,1.7c0,0.3,0,0.4-0.1,0.5
			c-0.1,0.1-0.2,0.1-0.3,0.1h-6.1c0,0.6,0.1,1.1,0.2,1.5c0.1,0.4,0.3,0.8,0.6,1.1s0.6,0.5,0.9,0.6c0.3,0.1,0.7,0.2,1.2,0.2
			c0.4,0,0.7,0,1-0.1c0.3-0.1,0.5-0.2,0.8-0.3c0.2-0.1,0.4-0.2,0.5-0.3c0.1-0.1,0.3-0.1,0.4-0.1c0.1,0,0.2,0.1,0.3,0.2l0.4,0.6
			c-0.2,0.2-0.4,0.4-0.7,0.6c-0.3,0.2-0.6,0.3-0.9,0.4c-0.3,0.1-0.6,0.2-1,0.3c-0.3,0.1-0.7,0.1-1,0.1c-0.6,0-1.2-0.1-1.7-0.3
			c-0.5-0.2-1-0.5-1.4-0.9c-0.4-0.4-0.7-0.9-0.9-1.5s-0.3-1.3-0.3-2.1c0-0.6,0.1-1.2,0.3-1.8c0.2-0.6,0.5-1,0.8-1.4
			c0.4-0.4,0.8-0.7,1.3-1C976.3,75.4,976.9,75.2,977.6,75.2z M977.6,76.4c-0.8,0-1.4,0.2-1.8,0.7c-0.4,0.4-0.7,1.1-0.8,1.9h5
			c0-0.4-0.1-0.7-0.2-1c-0.1-0.3-0.3-0.6-0.5-0.8s-0.4-0.4-0.7-0.5S978,76.4,977.6,76.4z M980.2,71.5l-2.1,2.3
			c-0.1,0.1-0.2,0.2-0.2,0.2s-0.2,0.1-0.3,0.1h-1l1.3-2.2c0.1-0.1,0.2-0.2,0.3-0.3c0.1-0.1,0.2-0.1,0.4-0.1H980.2z"/>
		<path d="M989.6,77c0,0.1-0.1,0.1-0.1,0.2c0,0-0.1,0.1-0.2,0.1c-0.1,0-0.2,0-0.3-0.1c-0.1-0.1-0.2-0.2-0.4-0.2
			c-0.2-0.1-0.4-0.2-0.6-0.2c-0.2-0.1-0.5-0.1-0.9-0.1c-0.4,0-0.8,0.1-1.2,0.2c-0.3,0.2-0.6,0.4-0.9,0.7c-0.2,0.3-0.4,0.7-0.5,1.1
			c-0.1,0.4-0.2,0.9-0.2,1.4c0,0.6,0.1,1,0.2,1.5c0.1,0.4,0.3,0.8,0.5,1.1c0.2,0.3,0.5,0.5,0.8,0.7c0.3,0.2,0.7,0.2,1.1,0.2
			c0.4,0,0.7,0,1-0.1c0.3-0.1,0.5-0.2,0.6-0.3s0.3-0.2,0.4-0.3c0.1-0.1,0.2-0.1,0.3-0.1c0.1,0,0.2,0.1,0.3,0.2l0.5,0.6
			c-0.4,0.5-0.9,0.8-1.5,1.1s-1.2,0.3-1.9,0.3c-0.6,0-1.1-0.1-1.6-0.3s-0.9-0.5-1.3-0.9s-0.6-0.9-0.9-1.5c-0.2-0.6-0.3-1.2-0.3-2
			c0-0.7,0.1-1.3,0.3-1.9c0.2-0.6,0.5-1.1,0.8-1.5c0.4-0.4,0.8-0.7,1.3-1c0.5-0.2,1.1-0.4,1.8-0.4c0.6,0,1.2,0.1,1.7,0.3
			s0.9,0.5,1.3,0.9L989.6,77z"/>
		<path d="M991.3,83.5c0-0.2,0-0.3,0.1-0.4c0.1-0.1,0.1-0.3,0.2-0.4s0.2-0.2,0.4-0.2c0.1-0.1,0.3-0.1,0.4-0.1c0.2,0,0.3,0,0.4,0.1
			c0.1,0.1,0.3,0.1,0.4,0.2c0.1,0.1,0.2,0.2,0.2,0.4c0.1,0.1,0.1,0.3,0.1,0.4c0,0.2,0,0.3-0.1,0.4c-0.1,0.1-0.1,0.3-0.2,0.4
			c-0.1,0.1-0.2,0.2-0.4,0.2c-0.1,0.1-0.3,0.1-0.4,0.1c-0.2,0-0.3,0-0.4-0.1c-0.1-0.1-0.3-0.1-0.4-0.2s-0.2-0.2-0.2-0.4
			C991.3,83.8,991.3,83.7,991.3,83.5z"/>
	</g>
	<g>
		<path d="M767.5,84.5h-1.3c-0.2,0-0.3,0-0.4-0.1c-0.1-0.1-0.2-0.2-0.2-0.3l-1.2-3.1h-5.8l-1.2,3.1c0,0.1-0.1,0.2-0.2,0.3
			c-0.1,0.1-0.2,0.1-0.4,0.1h-1.4l5.2-12.9h1.8L767.5,84.5z M759,79.7h4.8l-2-5.2c-0.1-0.3-0.3-0.7-0.4-1.2
			c-0.1,0.2-0.1,0.5-0.2,0.7c-0.1,0.2-0.1,0.4-0.2,0.5L759,79.7z"/>
		<path d="M772.6,75.2c0.7,0,1.3,0.1,1.8,0.3c0.5,0.2,1,0.5,1.4,0.9s0.7,0.9,0.9,1.5s0.3,1.2,0.3,1.9c0,0.7-0.1,1.4-0.3,1.9
			c-0.2,0.6-0.5,1.1-0.9,1.5c-0.4,0.4-0.8,0.7-1.4,0.9c-0.5,0.2-1.1,0.3-1.8,0.3s-1.3-0.1-1.8-0.3c-0.5-0.2-1-0.5-1.4-0.9
			c-0.4-0.4-0.7-0.9-0.9-1.5c-0.2-0.6-0.3-1.2-0.3-1.9c0-0.7,0.1-1.4,0.3-1.9c0.2-0.6,0.5-1.1,0.9-1.5s0.8-0.7,1.4-0.9
			C771.3,75.4,771.9,75.2,772.6,75.2z M772.6,83.4c0.9,0,1.6-0.3,2-0.9s0.7-1.4,0.7-2.5c0-1.1-0.2-1.9-0.7-2.5s-1.1-0.9-2-0.9
			c-0.5,0-0.9,0.1-1.2,0.2c-0.3,0.2-0.6,0.4-0.8,0.7c-0.2,0.3-0.4,0.7-0.5,1.1c-0.1,0.4-0.2,0.9-0.2,1.5s0.1,1,0.2,1.4
			c0.1,0.4,0.3,0.8,0.5,1.1c0.2,0.3,0.5,0.5,0.8,0.7C771.7,83.3,772.1,83.4,772.6,83.4z"/>
		<path d="M780.3,75.4v5.8c0,0.7,0.2,1.2,0.5,1.6s0.8,0.6,1.4,0.6c0.5,0,0.9-0.1,1.3-0.3c0.4-0.2,0.8-0.5,1.1-0.9v-6.7h1.6v9.1h-1
			c-0.2,0-0.4-0.1-0.4-0.3l-0.1-1c-0.4,0.4-0.8,0.8-1.3,1.1c-0.5,0.3-1.1,0.4-1.7,0.4c-0.5,0-0.9-0.1-1.3-0.2s-0.7-0.4-1-0.7
			c-0.3-0.3-0.5-0.7-0.6-1.1c-0.1-0.4-0.2-0.9-0.2-1.4v-5.8H780.3z M785.3,74h-1.1c-0.1,0-0.2,0-0.4-0.1l-1.2-1.1l-0.2-0.2l-0.1,0.2
			l-1.2,1.1c0,0-0.1,0.1-0.2,0.1c-0.1,0-0.1,0-0.2,0h-1.1l2-2.4h1.5L785.3,74z"/>
		<path d="M791.6,84.6c-0.7,0-1.3-0.2-1.7-0.6c-0.4-0.4-0.6-1-0.6-1.7v-5.6h-1.1c-0.1,0-0.2,0-0.2-0.1c-0.1-0.1-0.1-0.1-0.1-0.3
			v-0.6l1.5-0.2l0.4-2.8c0-0.1,0.1-0.2,0.1-0.2c0.1-0.1,0.1-0.1,0.3-0.1h0.8v3.1h2.6v1.2H791v5.5c0,0.4,0.1,0.7,0.3,0.9
			c0.2,0.2,0.4,0.3,0.7,0.3c0.2,0,0.3,0,0.4-0.1c0.1,0,0.2-0.1,0.3-0.1c0.1-0.1,0.2-0.1,0.2-0.1c0.1,0,0.1-0.1,0.2-0.1
			c0.1,0,0.2,0.1,0.2,0.2l0.5,0.8c-0.3,0.3-0.6,0.5-1,0.6C792.5,84.6,792.1,84.6,791.6,84.6z"/>
		<path d="M795.1,83.5c0-0.2,0-0.3,0.1-0.4c0.1-0.1,0.1-0.3,0.2-0.4s0.2-0.2,0.4-0.2c0.1-0.1,0.3-0.1,0.4-0.1c0.2,0,0.3,0,0.4,0.1
			c0.1,0.1,0.3,0.1,0.4,0.2c0.1,0.1,0.2,0.2,0.2,0.4c0.1,0.1,0.1,0.3,0.1,0.4c0,0.2,0,0.3-0.1,0.4c-0.1,0.1-0.1,0.3-0.2,0.4
			c-0.1,0.1-0.2,0.2-0.4,0.2c-0.1,0.1-0.3,0.1-0.4,0.1c-0.2,0-0.3,0-0.4-0.1c-0.1-0.1-0.3-0.1-0.4-0.2s-0.2-0.2-0.2-0.4
			C795.1,83.8,795.1,83.7,795.1,83.5z"/>
	</g>
	<g>
		<path d="M417.7,80c0,0.7-0.1,1.4-0.3,1.9c-0.2,0.6-0.4,1.1-0.8,1.4c-0.3,0.4-0.8,0.7-1.3,0.9c-0.5,0.2-1.1,0.3-1.7,0.3
			c-0.6,0-1.2-0.1-1.8-0.3c0-0.2,0-0.3,0-0.5s0-0.3,0.1-0.5c0-0.1,0-0.2,0.1-0.2s0.2-0.1,0.3-0.1c0.1,0,0.3,0,0.4,0.1
			c0.2,0.1,0.4,0.1,0.7,0.1c0.4,0,0.7-0.1,1.1-0.2c0.3-0.1,0.6-0.3,0.8-0.6c0.2-0.3,0.4-0.6,0.5-1c0.1-0.4,0.2-0.9,0.2-1.4v-8.5h1.7
			V80z"/>
		<path d="M427.2,84.5h-0.7c-0.2,0-0.3,0-0.4-0.1c-0.1,0-0.2-0.1-0.2-0.3l-0.2-0.8c-0.2,0.2-0.5,0.4-0.7,0.6s-0.5,0.3-0.7,0.4
			c-0.3,0.1-0.5,0.2-0.8,0.3c-0.3,0.1-0.6,0.1-0.9,0.1c-0.4,0-0.7,0-1-0.1s-0.6-0.2-0.8-0.4c-0.2-0.2-0.4-0.5-0.5-0.8
			c-0.1-0.3-0.2-0.7-0.2-1.1c0-0.4,0.1-0.7,0.3-1c0.2-0.3,0.5-0.6,1-0.9s1-0.5,1.7-0.6s1.6-0.2,2.6-0.2v-0.7c0-0.7-0.2-1.3-0.5-1.6
			c-0.3-0.4-0.8-0.5-1.3-0.5c-0.4,0-0.7,0-1,0.1s-0.5,0.2-0.7,0.3c-0.2,0.1-0.4,0.2-0.5,0.3c-0.1,0.1-0.3,0.1-0.4,0.1
			c-0.1,0-0.2,0-0.3-0.1s-0.1-0.1-0.2-0.2l-0.3-0.5c0.5-0.5,1-0.8,1.6-1.1c0.6-0.2,1.2-0.4,1.9-0.4c0.5,0,1,0.1,1.4,0.3
			s0.7,0.4,1,0.7c0.3,0.3,0.5,0.7,0.6,1.1c0.1,0.4,0.2,0.9,0.2,1.4V84.5z M423.1,83.5c0.3,0,0.5,0,0.8-0.1s0.5-0.1,0.7-0.2
			s0.4-0.2,0.6-0.4s0.4-0.3,0.6-0.5v-1.9c-0.7,0-1.4,0-1.9,0.1c-0.5,0.1-0.9,0.2-1.3,0.4c-0.3,0.2-0.6,0.3-0.7,0.5s-0.2,0.4-0.2,0.7
			c0,0.2,0,0.4,0.1,0.6c0.1,0.2,0.2,0.3,0.3,0.4s0.3,0.2,0.5,0.2C422.7,83.5,422.9,83.5,423.1,83.5z"/>
		<path d="M429.7,84.5v-9.1h1c0.2,0,0.4,0.1,0.4,0.3l0.1,1c0.4-0.4,0.8-0.8,1.3-1.1c0.5-0.3,1.1-0.4,1.7-0.4c0.5,0,0.9,0.1,1.3,0.2
			c0.4,0.2,0.7,0.4,1,0.7c0.3,0.3,0.4,0.7,0.6,1.1c0.1,0.4,0.2,0.9,0.2,1.4v5.8h-1.6v-5.8c0-0.7-0.2-1.2-0.5-1.6
			c-0.3-0.4-0.8-0.6-1.4-0.6c-0.5,0-0.9,0.1-1.3,0.3c-0.4,0.2-0.8,0.5-1.1,0.9v6.7H429.7z"/>
		<path d="M439.2,83.5c0-0.2,0-0.3,0.1-0.4c0.1-0.1,0.1-0.3,0.2-0.4c0.1-0.1,0.2-0.2,0.4-0.2c0.1-0.1,0.3-0.1,0.4-0.1
			c0.2,0,0.3,0,0.4,0.1c0.1,0.1,0.3,0.1,0.4,0.2s0.2,0.2,0.2,0.4c0.1,0.1,0.1,0.3,0.1,0.4c0,0.2,0,0.3-0.1,0.4
			c-0.1,0.1-0.1,0.3-0.2,0.4s-0.2,0.2-0.4,0.2c-0.1,0.1-0.3,0.1-0.4,0.1c-0.2,0-0.3,0-0.4-0.1c-0.1-0.1-0.3-0.1-0.4-0.2
			c-0.1-0.1-0.2-0.2-0.2-0.4C439.2,83.8,439.2,83.7,439.2,83.5z"/>
	</g>
	<g>
		<path d="M514.5,80.3c0.1,0.2,0.1,0.3,0.2,0.5c0.1-0.2,0.1-0.3,0.2-0.5s0.1-0.3,0.2-0.5l4.4-7.9c0.1-0.1,0.2-0.2,0.2-0.3
			c0.1,0,0.2,0,0.4,0h1.3v12.9h-1.5V75c0-0.1,0-0.3,0-0.4s0-0.3,0-0.4l-4.4,8.1c-0.1,0.3-0.4,0.4-0.6,0.4h-0.3
			c-0.3,0-0.5-0.1-0.6-0.4l-4.5-8.1c0,0.2,0,0.3,0,0.5c0,0.2,0,0.3,0,0.4v9.5h-1.5V71.6h1.3c0.2,0,0.3,0,0.4,0
			c0.1,0,0.2,0.1,0.2,0.3l4.5,7.9C514.3,80,514.4,80.1,514.5,80.3z"/>
		<path d="M530.9,84.5h-0.7c-0.2,0-0.3,0-0.4-0.1c-0.1,0-0.2-0.1-0.2-0.3l-0.2-0.8c-0.2,0.2-0.5,0.4-0.7,0.6s-0.5,0.3-0.7,0.4
			c-0.3,0.1-0.5,0.2-0.8,0.3c-0.3,0.1-0.6,0.1-0.9,0.1c-0.4,0-0.7,0-1-0.1s-0.6-0.2-0.8-0.4c-0.2-0.2-0.4-0.5-0.5-0.8
			c-0.1-0.3-0.2-0.7-0.2-1.1c0-0.4,0.1-0.7,0.3-1c0.2-0.3,0.5-0.6,1-0.9s1-0.5,1.7-0.6s1.6-0.2,2.6-0.2v-0.7c0-0.7-0.2-1.3-0.5-1.6
			c-0.3-0.4-0.8-0.5-1.3-0.5c-0.4,0-0.7,0-1,0.1s-0.5,0.2-0.7,0.3c-0.2,0.1-0.4,0.2-0.5,0.3c-0.1,0.1-0.3,0.1-0.4,0.1
			c-0.1,0-0.2,0-0.3-0.1s-0.1-0.1-0.2-0.2l-0.3-0.5c0.5-0.5,1-0.8,1.6-1.1c0.6-0.2,1.2-0.4,1.9-0.4c0.5,0,1,0.1,1.4,0.3
			s0.7,0.4,1,0.7c0.3,0.3,0.5,0.7,0.6,1.1c0.1,0.4,0.2,0.9,0.2,1.4V84.5z M526.7,83.5c0.3,0,0.5,0,0.8-0.1s0.5-0.1,0.7-0.2
			s0.4-0.2,0.6-0.4s0.4-0.3,0.6-0.5v-1.9c-0.7,0-1.4,0-1.9,0.1c-0.5,0.1-0.9,0.2-1.3,0.4c-0.3,0.2-0.6,0.3-0.7,0.5s-0.2,0.4-0.2,0.7
			c0,0.2,0,0.4,0.1,0.6c0.1,0.2,0.2,0.3,0.3,0.4s0.3,0.2,0.5,0.2C526.3,83.5,526.5,83.5,526.7,83.5z"/>
		<path d="M533.3,84.5v-9.1h0.9c0.2,0,0.3,0,0.4,0.1s0.1,0.2,0.1,0.3l0.1,1.4c0.3-0.6,0.7-1.1,1.2-1.5c0.5-0.4,1-0.5,1.6-0.5
			c0.3,0,0.5,0,0.7,0.1s0.4,0.1,0.6,0.2l-0.2,1.2c0,0.1-0.1,0.2-0.3,0.2c-0.1,0-0.2,0-0.4-0.1c-0.2-0.1-0.4-0.1-0.7-0.1
			c-0.6,0-1,0.2-1.4,0.5c-0.4,0.3-0.7,0.8-0.9,1.4v5.8H533.3z"/>
		<path d="M545.8,76.9c-0.1,0.1-0.2,0.2-0.3,0.2c-0.1,0-0.2,0-0.3-0.1c-0.1-0.1-0.3-0.1-0.4-0.2s-0.4-0.2-0.6-0.2
			c-0.2-0.1-0.5-0.1-0.8-0.1c-0.3,0-0.5,0-0.7,0.1c-0.2,0.1-0.4,0.2-0.6,0.3c-0.2,0.1-0.3,0.3-0.4,0.4c-0.1,0.2-0.1,0.3-0.1,0.5
			c0,0.2,0.1,0.4,0.2,0.6c0.1,0.2,0.3,0.3,0.5,0.4c0.2,0.1,0.5,0.2,0.8,0.3c0.3,0.1,0.6,0.2,0.9,0.3s0.6,0.2,0.9,0.3
			c0.3,0.1,0.5,0.3,0.8,0.4c0.2,0.2,0.4,0.4,0.5,0.7c0.1,0.3,0.2,0.6,0.2,0.9c0,0.4-0.1,0.8-0.2,1.2s-0.4,0.7-0.7,0.9
			c-0.3,0.3-0.7,0.5-1.1,0.6c-0.4,0.1-0.9,0.2-1.5,0.2c-0.6,0-1.2-0.1-1.7-0.3s-1-0.5-1.3-0.8l0.4-0.6c0-0.1,0.1-0.1,0.2-0.2
			s0.2-0.1,0.3-0.1c0.1,0,0.2,0,0.3,0.1s0.3,0.2,0.4,0.3s0.4,0.2,0.6,0.3s0.5,0.1,0.9,0.1c0.3,0,0.6,0,0.8-0.1s0.4-0.2,0.6-0.3
			c0.2-0.1,0.3-0.3,0.3-0.5c0.1-0.2,0.1-0.4,0.1-0.6c0-0.3-0.1-0.5-0.2-0.6c-0.1-0.2-0.3-0.3-0.5-0.4c-0.2-0.1-0.5-0.2-0.8-0.3
			c-0.3-0.1-0.6-0.2-0.9-0.3c-0.3-0.1-0.6-0.2-0.9-0.3c-0.3-0.1-0.5-0.3-0.8-0.5c-0.2-0.2-0.4-0.4-0.5-0.7c-0.1-0.3-0.2-0.6-0.2-1
			c0-0.3,0.1-0.7,0.2-1c0.1-0.3,0.4-0.6,0.6-0.8c0.3-0.2,0.6-0.4,1-0.6c0.4-0.1,0.9-0.2,1.4-0.2c0.6,0,1.1,0.1,1.6,0.3
			c0.5,0.2,0.9,0.4,1.2,0.8L545.8,76.9z"/>
	</g>
	<g>
		<path d="M570.3,84.5h-1.3c-0.2,0-0.3,0-0.4-0.1c-0.1-0.1-0.2-0.2-0.2-0.3l-1.2-3.1h-5.8l-1.2,3.1c0,0.1-0.1,0.2-0.2,0.3
			s-0.2,0.1-0.4,0.1h-1.4l5.2-12.9h1.8L570.3,84.5z M561.8,79.7h4.8l-2-5.2c-0.1-0.3-0.3-0.7-0.4-1.2c-0.1,0.2-0.1,0.5-0.2,0.7
			s-0.1,0.4-0.2,0.5L561.8,79.7z"/>
		<path d="M569.8,75.4h1.3c0.1,0,0.2,0,0.3,0.1s0.1,0.1,0.2,0.2l2.3,5.9c0.1,0.2,0.1,0.4,0.2,0.6c0,0.2,0.1,0.4,0.1,0.6
			c0-0.2,0.1-0.4,0.2-0.6c0.1-0.2,0.1-0.4,0.2-0.6l2.3-5.9c0-0.1,0.1-0.2,0.2-0.2s0.2-0.1,0.3-0.1h1.3l-3.7,9.1h-1.4L569.8,75.4z"/>
		<path d="M580.1,84.5v-9.1h0.9c0.2,0,0.3,0,0.4,0.1s0.1,0.2,0.1,0.3l0.1,1.4c0.3-0.6,0.7-1.1,1.2-1.5c0.5-0.4,1-0.5,1.6-0.5
			c0.3,0,0.5,0,0.7,0.1s0.4,0.1,0.6,0.2l-0.2,1.2c0,0.1-0.1,0.2-0.3,0.2c-0.1,0-0.2,0-0.4-0.1c-0.2-0.1-0.4-0.1-0.7-0.1
			c-0.6,0-1,0.2-1.4,0.5c-0.4,0.3-0.7,0.8-0.9,1.4v5.8H580.1z"/>
		<path d="M589.5,72.5c0,0.2,0,0.3-0.1,0.4c-0.1,0.1-0.1,0.3-0.3,0.4s-0.2,0.2-0.4,0.2c-0.1,0.1-0.3,0.1-0.4,0.1
			c-0.2,0-0.3,0-0.4-0.1c-0.1-0.1-0.3-0.1-0.4-0.2s-0.2-0.2-0.2-0.4c-0.1-0.1-0.1-0.3-0.1-0.4c0-0.2,0-0.3,0.1-0.4
			c0.1-0.1,0.1-0.3,0.2-0.4s0.2-0.2,0.4-0.2c0.1-0.1,0.3-0.1,0.4-0.1c0.2,0,0.3,0,0.4,0.1c0.1,0.1,0.3,0.1,0.4,0.2s0.2,0.2,0.3,0.4
			C589.5,72.2,589.5,72.4,589.5,72.5z M589.2,75.4v9.1h-1.6v-9.1H589.2z"/>
		<path d="M593.8,71.2v13.3h-1.6V71.2H593.8z"/>
	</g>
	<g>
		<path d="M619.7,80.3c0.1,0.2,0.1,0.3,0.2,0.5c0.1-0.2,0.1-0.3,0.2-0.5c0.1-0.2,0.1-0.3,0.2-0.5l4.4-7.9c0.1-0.1,0.2-0.2,0.2-0.3
			c0.1,0,0.2,0,0.4,0h1.3v12.9H625V75c0-0.1,0-0.3,0-0.4s0-0.3,0-0.4l-4.4,8.1c-0.1,0.3-0.4,0.4-0.6,0.4h-0.3
			c-0.3,0-0.5-0.1-0.6-0.4l-4.5-8.1c0,0.2,0,0.3,0,0.5c0,0.2,0,0.3,0,0.4v9.5h-1.5V71.6h1.3c0.2,0,0.3,0,0.4,0
			c0.1,0,0.2,0.1,0.2,0.3l4.5,7.9C619.6,80,619.6,80.1,619.7,80.3z"/>
		<path d="M636.1,84.5h-0.7c-0.2,0-0.3,0-0.4-0.1c-0.1,0-0.2-0.1-0.2-0.3l-0.2-0.8c-0.2,0.2-0.5,0.4-0.7,0.6
			c-0.2,0.2-0.5,0.3-0.7,0.4c-0.3,0.1-0.5,0.2-0.8,0.3c-0.3,0.1-0.6,0.1-1,0.1c-0.4,0-0.7,0-1-0.1c-0.3-0.1-0.6-0.2-0.8-0.4
			c-0.2-0.2-0.4-0.5-0.5-0.8c-0.1-0.3-0.2-0.7-0.2-1.1c0-0.4,0.1-0.7,0.3-1c0.2-0.3,0.5-0.6,1-0.9c0.4-0.3,1-0.5,1.7-0.6
			s1.6-0.2,2.6-0.2v-0.7c0-0.7-0.2-1.3-0.5-1.6s-0.8-0.5-1.3-0.5c-0.4,0-0.7,0-1,0.1c-0.3,0.1-0.5,0.2-0.7,0.3
			c-0.2,0.1-0.4,0.2-0.5,0.3c-0.1,0.1-0.3,0.1-0.4,0.1c-0.1,0-0.2,0-0.3-0.1s-0.1-0.1-0.2-0.2l-0.3-0.5c0.5-0.5,1-0.8,1.6-1.1
			c0.6-0.2,1.2-0.4,1.9-0.4c0.5,0,1,0.1,1.4,0.3c0.4,0.2,0.7,0.4,1,0.7c0.3,0.3,0.5,0.7,0.6,1.1c0.1,0.4,0.2,0.9,0.2,1.4V84.5z
			 M632,83.5c0.3,0,0.5,0,0.8-0.1c0.2-0.1,0.5-0.1,0.7-0.2s0.4-0.2,0.6-0.4c0.2-0.1,0.4-0.3,0.6-0.5v-1.9c-0.7,0-1.4,0-1.9,0.1
			c-0.5,0.1-0.9,0.2-1.3,0.4c-0.3,0.2-0.6,0.3-0.7,0.5c-0.1,0.2-0.2,0.4-0.2,0.7c0,0.2,0,0.4,0.1,0.6c0.1,0.2,0.2,0.3,0.3,0.4
			s0.3,0.2,0.5,0.2C631.6,83.5,631.8,83.5,632,83.5z"/>
		<path d="M640.7,72.5c0,0.2,0,0.3-0.1,0.4c-0.1,0.1-0.1,0.3-0.3,0.4c-0.1,0.1-0.2,0.2-0.4,0.2s-0.3,0.1-0.4,0.1
			c-0.2,0-0.3,0-0.4-0.1c-0.1-0.1-0.3-0.1-0.4-0.2c-0.1-0.1-0.2-0.2-0.2-0.4c-0.1-0.1-0.1-0.3-0.1-0.4c0-0.2,0-0.3,0.1-0.4
			c0.1-0.1,0.1-0.3,0.2-0.4c0.1-0.1,0.2-0.2,0.4-0.2c0.1-0.1,0.3-0.1,0.4-0.1c0.2,0,0.3,0,0.4,0.1s0.3,0.1,0.4,0.2
			c0.1,0.1,0.2,0.2,0.3,0.4C640.7,72.2,640.7,72.4,640.7,72.5z M640.3,75.4v9.1h-1.6v-9.1H640.3z"/>
	</g>
	<g>
		<path d="M666.8,80c0,0.7-0.1,1.4-0.3,1.9c-0.2,0.6-0.4,1.1-0.8,1.4c-0.3,0.4-0.8,0.7-1.3,0.9c-0.5,0.2-1.1,0.3-1.7,0.3
			c-0.6,0-1.2-0.1-1.8-0.3c0-0.2,0-0.3,0-0.5c0-0.2,0-0.3,0.1-0.5c0-0.1,0-0.2,0.1-0.2c0.1-0.1,0.2-0.1,0.3-0.1c0.1,0,0.3,0,0.4,0.1
			c0.2,0.1,0.4,0.1,0.7,0.1c0.4,0,0.7-0.1,1.1-0.2c0.3-0.1,0.6-0.3,0.8-0.6c0.2-0.3,0.4-0.6,0.5-1s0.2-0.9,0.2-1.4v-8.5h1.7V80z"/>
		<path d="M671.1,75.4v5.8c0,0.7,0.2,1.2,0.5,1.6s0.8,0.6,1.4,0.6c0.5,0,0.9-0.1,1.3-0.3c0.4-0.2,0.8-0.5,1.1-0.9v-6.7h1.6v9.1h-1
			c-0.2,0-0.4-0.1-0.4-0.3l-0.1-1c-0.4,0.4-0.8,0.8-1.3,1.1c-0.5,0.3-1.1,0.4-1.7,0.4c-0.5,0-0.9-0.1-1.3-0.2s-0.7-0.4-1-0.7
			c-0.3-0.3-0.5-0.7-0.6-1.1c-0.1-0.4-0.2-0.9-0.2-1.4v-5.8H671.1z"/>
		<path d="M681.9,72.5c0,0.2,0,0.3-0.1,0.4c-0.1,0.1-0.1,0.3-0.3,0.4c-0.1,0.1-0.2,0.2-0.4,0.2c-0.1,0.1-0.3,0.1-0.4,0.1
			s-0.3,0-0.4-0.1s-0.3-0.1-0.4-0.2c-0.1-0.1-0.2-0.2-0.2-0.4c-0.1-0.1-0.1-0.3-0.1-0.4c0-0.2,0-0.3,0.1-0.4
			c0.1-0.1,0.1-0.3,0.2-0.4c0.1-0.1,0.2-0.2,0.4-0.2s0.3-0.1,0.4-0.1s0.3,0,0.4,0.1c0.1,0.1,0.3,0.1,0.4,0.2
			c0.1,0.1,0.2,0.2,0.3,0.4C681.8,72.2,681.9,72.4,681.9,72.5z M681.5,75.4v9.1h-1.6v-9.1H681.5z"/>
		<path d="M684.3,84.5v-9.1h1c0.2,0,0.4,0.1,0.4,0.3l0.1,1c0.4-0.4,0.8-0.8,1.3-1.1c0.5-0.3,1.1-0.4,1.7-0.4c0.5,0,0.9,0.1,1.3,0.2
			c0.4,0.2,0.7,0.4,1,0.7c0.3,0.3,0.4,0.7,0.6,1.1c0.1,0.4,0.2,0.9,0.2,1.4v5.8h-1.6v-5.8c0-0.7-0.2-1.2-0.5-1.6
			c-0.3-0.4-0.8-0.6-1.4-0.6c-0.5,0-0.9,0.1-1.3,0.3s-0.8,0.5-1.1,0.9v6.7H684.3z"/>
	</g>
	<g>
		<path d="M470.9,71.6V73h-6.2v4.5h5.3V79h-5.3v5.5H463V71.6H470.9z"/>
		<path d="M475.9,75.2c0.5,0,1.1,0.1,1.5,0.3s0.9,0.4,1.2,0.8c0.3,0.3,0.6,0.8,0.8,1.3c0.2,0.5,0.3,1.1,0.3,1.7c0,0.3,0,0.4-0.1,0.5
			c-0.1,0.1-0.2,0.1-0.3,0.1h-6.1c0,0.6,0.1,1.1,0.2,1.5c0.1,0.4,0.3,0.8,0.6,1.1s0.6,0.5,0.9,0.6c0.3,0.1,0.7,0.2,1.2,0.2
			c0.4,0,0.7,0,1-0.1c0.3-0.1,0.5-0.2,0.8-0.3c0.2-0.1,0.4-0.2,0.5-0.3c0.1-0.1,0.3-0.1,0.4-0.1c0.1,0,0.2,0.1,0.3,0.2l0.4,0.6
			c-0.2,0.2-0.4,0.4-0.7,0.6c-0.3,0.2-0.6,0.3-0.9,0.4c-0.3,0.1-0.6,0.2-1,0.3c-0.3,0.1-0.7,0.1-1,0.1c-0.6,0-1.2-0.1-1.7-0.3
			c-0.5-0.2-1-0.5-1.4-0.9s-0.7-0.9-0.9-1.5c-0.2-0.6-0.3-1.3-0.3-2.1c0-0.6,0.1-1.2,0.3-1.8c0.2-0.6,0.5-1,0.8-1.4
			c0.4-0.4,0.8-0.7,1.3-1C474.6,75.4,475.2,75.2,475.9,75.2z M475.9,76.4c-0.8,0-1.4,0.2-1.8,0.7c-0.4,0.4-0.7,1.1-0.8,1.9h5
			c0-0.4-0.1-0.7-0.2-1c-0.1-0.3-0.3-0.6-0.4-0.8c-0.2-0.2-0.4-0.4-0.7-0.5C476.6,76.5,476.3,76.4,475.9,76.4z M478.5,71.5l-2.1,2.3
			c-0.1,0.1-0.2,0.2-0.2,0.2S476,74,475.9,74h-1l1.3-2.2c0.1-0.1,0.2-0.2,0.3-0.3s0.2-0.1,0.4-0.1H478.5z"/>
		<path d="M480.3,75.4h1.3c0.1,0,0.2,0,0.3,0.1s0.1,0.1,0.2,0.2l2.3,5.9c0.1,0.2,0.1,0.4,0.2,0.6c0,0.2,0.1,0.4,0.1,0.6
			c0-0.2,0.1-0.4,0.2-0.6c0.1-0.2,0.1-0.4,0.2-0.6l2.3-5.9c0-0.1,0.1-0.2,0.2-0.2s0.2-0.1,0.3-0.1h1.3l-3.7,9.1H484L480.3,75.4z"/>
		<path d="M489,83.5c0-0.2,0-0.3,0.1-0.4c0.1-0.1,0.1-0.3,0.2-0.4c0.1-0.1,0.2-0.2,0.4-0.2c0.1-0.1,0.3-0.1,0.4-0.1
			c0.2,0,0.3,0,0.4,0.1c0.1,0.1,0.3,0.1,0.4,0.2s0.2,0.2,0.2,0.4c0.1,0.1,0.1,0.3,0.1,0.4c0,0.2,0,0.3-0.1,0.4
			c-0.1,0.1-0.1,0.3-0.2,0.4s-0.2,0.2-0.4,0.2c-0.1,0.1-0.3,0.1-0.4,0.1c-0.2,0-0.3,0-0.4-0.1c-0.1-0.1-0.3-0.1-0.4-0.2
			c-0.1-0.1-0.2-0.2-0.2-0.4C489,83.8,489,83.7,489,83.5z"/>
	</g>
	<g>
		<path d="M231.4,32.6h-1.9c-0.2,0-0.4-0.1-0.5-0.2c-0.1-0.1-0.2-0.2-0.3-0.4l-1-2.7h-5.4l-1,2.7c0,0.1-0.1,0.3-0.3,0.4
			c-0.1,0.1-0.3,0.2-0.5,0.2h-1.9l5.1-13h2.5L231.4,32.6z M222.9,27.7h4.1l-1.6-4.3c-0.1-0.2-0.2-0.4-0.2-0.7
			c-0.1-0.3-0.2-0.5-0.3-0.9c-0.1,0.3-0.2,0.6-0.2,0.9s-0.2,0.5-0.2,0.7L222.9,27.7z"/>
		<path d="M232.6,32.6v-9.2h1.4c0.3,0,0.5,0.1,0.6,0.4l0.2,0.7c0.2-0.2,0.4-0.4,0.6-0.5c0.2-0.2,0.4-0.3,0.7-0.4
			c0.2-0.1,0.5-0.2,0.7-0.3s0.6-0.1,0.9-0.1c0.5,0,1,0.1,1.3,0.3s0.7,0.4,1,0.7s0.5,0.7,0.6,1.1c0.1,0.4,0.2,0.9,0.2,1.4v5.9h-2.2
			v-5.9c0-0.6-0.1-1-0.4-1.3c-0.3-0.3-0.7-0.5-1.2-0.5c-0.4,0-0.7,0.1-1.1,0.3c-0.3,0.2-0.7,0.4-1,0.7v6.7H232.6z"/>
		<path d="M242.8,32.6v-9.2h1.4c0.3,0,0.5,0.1,0.6,0.4l0.2,0.7c0.2-0.2,0.4-0.4,0.6-0.5c0.2-0.2,0.4-0.3,0.7-0.4
			c0.2-0.1,0.5-0.2,0.7-0.3s0.6-0.1,0.9-0.1c0.5,0,1,0.1,1.3,0.3s0.7,0.4,1,0.7s0.5,0.7,0.6,1.1c0.1,0.4,0.2,0.9,0.2,1.4v5.9h-2.2
			v-5.9c0-0.6-0.1-1-0.4-1.3c-0.3-0.3-0.7-0.5-1.2-0.5c-0.4,0-0.7,0.1-1.1,0.3c-0.3,0.2-0.7,0.4-1,0.7v6.7H242.8z"/>
		<path d="M256.9,23.3c0.6,0,1.1,0.1,1.6,0.3c0.5,0.2,0.9,0.5,1.3,0.8c0.4,0.4,0.6,0.8,0.8,1.3c0.2,0.5,0.3,1.1,0.3,1.8
			c0,0.2,0,0.3,0,0.4c0,0.1,0,0.2-0.1,0.3s-0.1,0.1-0.2,0.1c-0.1,0-0.1,0-0.3,0h-5.7c0.1,0.9,0.3,1.6,0.8,2.1c0.4,0.4,1,0.7,1.8,0.7
			c0.4,0,0.7,0,0.9-0.1c0.3-0.1,0.5-0.2,0.7-0.3c0.2-0.1,0.4-0.2,0.5-0.3s0.3-0.1,0.4-0.1c0.1,0,0.2,0,0.2,0.1
			c0.1,0,0.1,0.1,0.2,0.2l0.6,0.8c-0.2,0.3-0.5,0.5-0.8,0.7c-0.3,0.2-0.6,0.4-1,0.5c-0.3,0.1-0.7,0.2-1,0.2c-0.3,0-0.7,0.1-1,0.1
			c-0.6,0-1.2-0.1-1.8-0.3c-0.6-0.2-1-0.5-1.4-0.9c-0.4-0.4-0.7-0.9-1-1.5c-0.2-0.6-0.4-1.3-0.4-2.1c0-0.6,0.1-1.2,0.3-1.8
			c0.2-0.6,0.5-1,0.9-1.4s0.8-0.7,1.4-1C255.6,23.4,256.2,23.3,256.9,23.3z M256.9,24.8c-0.6,0-1.2,0.2-1.5,0.5
			c-0.4,0.4-0.6,0.9-0.7,1.6h4.2c0-0.3,0-0.6-0.1-0.8c-0.1-0.3-0.2-0.5-0.4-0.7c-0.2-0.2-0.4-0.3-0.6-0.5
			C257.5,24.9,257.2,24.8,256.9,24.8z M260,19.5l-2.2,2.3c-0.1,0.1-0.2,0.2-0.3,0.2s-0.2,0.1-0.4,0.1h-1.3l1.3-2.2
			c0.1-0.2,0.2-0.3,0.3-0.4c0.1-0.1,0.3-0.1,0.5-0.1H260z"/>
		<path d="M266.5,23.3c0.6,0,1.1,0.1,1.6,0.3c0.5,0.2,0.9,0.5,1.3,0.8c0.4,0.4,0.6,0.8,0.8,1.3c0.2,0.5,0.3,1.1,0.3,1.8
			c0,0.2,0,0.3,0,0.4c0,0.1,0,0.2-0.1,0.3s-0.1,0.1-0.2,0.1c-0.1,0-0.1,0-0.3,0h-5.7c0.1,0.9,0.3,1.6,0.8,2.1c0.4,0.4,1,0.7,1.8,0.7
			c0.4,0,0.7,0,0.9-0.1c0.3-0.1,0.5-0.2,0.7-0.3c0.2-0.1,0.4-0.2,0.5-0.3s0.3-0.1,0.4-0.1c0.1,0,0.2,0,0.2,0.1
			c0.1,0,0.1,0.1,0.2,0.2l0.6,0.8c-0.2,0.3-0.5,0.5-0.8,0.7c-0.3,0.2-0.6,0.4-1,0.5c-0.3,0.1-0.7,0.2-1,0.2c-0.3,0-0.7,0.1-1,0.1
			c-0.6,0-1.2-0.1-1.8-0.3c-0.6-0.2-1-0.5-1.4-0.9c-0.4-0.4-0.7-0.9-1-1.5c-0.2-0.6-0.4-1.3-0.4-2.1c0-0.6,0.1-1.2,0.3-1.8
			c0.2-0.6,0.5-1,0.9-1.4s0.8-0.7,1.4-1C265.2,23.4,265.8,23.3,266.5,23.3z M266.5,24.8c-0.6,0-1.2,0.2-1.5,0.5
			c-0.4,0.4-0.6,0.9-0.7,1.6h4.2c0-0.3,0-0.6-0.1-0.8c-0.1-0.3-0.2-0.5-0.4-0.7c-0.2-0.2-0.4-0.3-0.6-0.5
			C267.1,24.9,266.9,24.8,266.5,24.8z"/>
		<path d="M275.8,32.6v-9.2h1.4c0.3,0,0.5,0.1,0.6,0.4l0.2,0.7c0.2-0.2,0.4-0.4,0.6-0.5c0.2-0.2,0.4-0.3,0.7-0.4
			c0.2-0.1,0.5-0.2,0.7-0.3s0.6-0.1,0.9-0.1c0.5,0,1,0.1,1.3,0.3s0.7,0.4,1,0.7s0.5,0.7,0.6,1.1c0.1,0.4,0.2,0.9,0.2,1.4v5.9h-2.2
			v-5.9c0-0.6-0.1-1-0.4-1.3c-0.3-0.3-0.7-0.5-1.2-0.5c-0.4,0-0.7,0.1-1.1,0.3c-0.3,0.2-0.7,0.4-1,0.7v6.7H275.8z"/>
	</g>
	<g>
		<path d="M695.9,32.6h-1.9c-0.2,0-0.4-0.1-0.5-0.2c-0.1-0.1-0.2-0.2-0.3-0.4l-1-2.7h-5.4l-1,2.7c0,0.1-0.1,0.3-0.3,0.4
			s-0.3,0.2-0.5,0.2h-1.9l5.1-13h2.5L695.9,32.6z M687.5,27.7h4.1l-1.6-4.3c-0.1-0.2-0.2-0.4-0.2-0.7c-0.1-0.3-0.2-0.5-0.3-0.9
			c-0.1,0.3-0.2,0.6-0.2,0.9s-0.2,0.5-0.2,0.7L687.5,27.7z"/>
		<path d="M697.1,32.6v-9.2h1.4c0.3,0,0.5,0.1,0.6,0.4l0.2,0.7c0.2-0.2,0.4-0.4,0.6-0.5c0.2-0.2,0.4-0.3,0.7-0.4
			c0.2-0.1,0.5-0.2,0.7-0.3c0.3-0.1,0.6-0.1,0.9-0.1c0.5,0,1,0.1,1.3,0.3c0.4,0.2,0.7,0.4,1,0.7c0.3,0.3,0.5,0.7,0.6,1.1
			c0.1,0.4,0.2,0.9,0.2,1.4v5.9H703v-5.9c0-0.6-0.1-1-0.4-1.3c-0.3-0.3-0.7-0.5-1.2-0.5c-0.4,0-0.7,0.1-1.1,0.3
			c-0.3,0.2-0.7,0.4-1,0.7v6.7H697.1z"/>
		<path d="M707.4,32.6v-9.2h1.4c0.3,0,0.5,0.1,0.6,0.4l0.2,0.7c0.2-0.2,0.4-0.4,0.6-0.5c0.2-0.2,0.4-0.3,0.7-0.4
			c0.2-0.1,0.5-0.2,0.7-0.3c0.3-0.1,0.6-0.1,0.9-0.1c0.5,0,1,0.1,1.3,0.3c0.4,0.2,0.7,0.4,1,0.7c0.3,0.3,0.5,0.7,0.6,1.1
			s0.2,0.9,0.2,1.4v5.9h-2.2v-5.9c0-0.6-0.1-1-0.4-1.3s-0.7-0.5-1.2-0.5c-0.4,0-0.7,0.1-1.1,0.3c-0.3,0.2-0.7,0.4-1,0.7v6.7H707.4z"
			/>
		<path d="M721.4,23.3c0.6,0,1.1,0.1,1.6,0.3c0.5,0.2,0.9,0.5,1.3,0.8c0.4,0.4,0.6,0.8,0.8,1.3c0.2,0.5,0.3,1.1,0.3,1.8
			c0,0.2,0,0.3,0,0.4s0,0.2-0.1,0.3s-0.1,0.1-0.2,0.1s-0.2,0-0.3,0h-5.7c0.1,0.9,0.3,1.6,0.8,2.1c0.4,0.4,1,0.7,1.8,0.7
			c0.4,0,0.7,0,0.9-0.1c0.3-0.1,0.5-0.2,0.7-0.3s0.4-0.2,0.5-0.3c0.1-0.1,0.3-0.1,0.4-0.1c0.1,0,0.2,0,0.2,0.1
			c0.1,0,0.1,0.1,0.2,0.2l0.6,0.8c-0.2,0.3-0.5,0.5-0.8,0.7c-0.3,0.2-0.6,0.4-1,0.5c-0.3,0.1-0.7,0.2-1,0.2c-0.3,0-0.7,0.1-1,0.1
			c-0.6,0-1.2-0.1-1.8-0.3s-1-0.5-1.4-0.9c-0.4-0.4-0.7-0.9-1-1.5c-0.2-0.6-0.4-1.3-0.4-2.1c0-0.6,0.1-1.2,0.3-1.8
			c0.2-0.6,0.5-1,0.9-1.4s0.8-0.7,1.4-1C720.1,23.4,720.7,23.3,721.4,23.3z M721.5,24.8c-0.6,0-1.2,0.2-1.5,0.5
			c-0.4,0.4-0.6,0.9-0.7,1.6h4.2c0-0.3,0-0.6-0.1-0.8c-0.1-0.3-0.2-0.5-0.4-0.7c-0.2-0.2-0.4-0.3-0.6-0.5
			C722.1,24.9,721.8,24.8,721.5,24.8z M724.6,19.5l-2.2,2.3c-0.1,0.1-0.2,0.2-0.3,0.2c-0.1,0-0.2,0.1-0.4,0.1h-1.3l1.3-2.2
			c0.1-0.2,0.2-0.3,0.3-0.4c0.1-0.1,0.3-0.1,0.5-0.1H724.6z"/>
		<path d="M731,23.3c0.6,0,1.1,0.1,1.6,0.3c0.5,0.2,0.9,0.5,1.3,0.8c0.4,0.4,0.6,0.8,0.8,1.3c0.2,0.5,0.3,1.1,0.3,1.8
			c0,0.2,0,0.3,0,0.4c0,0.1,0,0.2-0.1,0.3s-0.1,0.1-0.2,0.1c-0.1,0-0.1,0-0.3,0h-5.7c0.1,0.9,0.3,1.6,0.8,2.1c0.4,0.4,1,0.7,1.8,0.7
			c0.4,0,0.7,0,0.9-0.1s0.5-0.2,0.7-0.3c0.2-0.1,0.4-0.2,0.5-0.3c0.1-0.1,0.3-0.1,0.4-0.1c0.1,0,0.2,0,0.2,0.1
			c0.1,0,0.1,0.1,0.2,0.2l0.6,0.8c-0.2,0.3-0.5,0.5-0.8,0.7s-0.6,0.4-1,0.5c-0.3,0.1-0.7,0.2-1,0.2s-0.7,0.1-1,0.1
			c-0.6,0-1.2-0.1-1.8-0.3c-0.6-0.2-1-0.5-1.4-0.9s-0.7-0.9-1-1.5c-0.2-0.6-0.4-1.3-0.4-2.1c0-0.6,0.1-1.2,0.3-1.8
			c0.2-0.6,0.5-1,0.9-1.4s0.8-0.7,1.4-1C729.7,23.4,730.4,23.3,731,23.3z M731.1,24.8c-0.6,0-1.2,0.2-1.5,0.5
			c-0.4,0.4-0.6,0.9-0.7,1.6h4.2c0-0.3,0-0.6-0.1-0.8c-0.1-0.3-0.2-0.5-0.4-0.7c-0.2-0.2-0.4-0.3-0.6-0.5
			C731.7,24.9,731.4,24.8,731.1,24.8z"/>
		<path d="M740.3,32.6v-9.2h1.4c0.3,0,0.5,0.1,0.6,0.4l0.2,0.7c0.2-0.2,0.4-0.4,0.6-0.5c0.2-0.2,0.4-0.3,0.7-0.4
			c0.2-0.1,0.5-0.2,0.7-0.3c0.3-0.1,0.6-0.1,0.9-0.1c0.5,0,1,0.1,1.3,0.3c0.4,0.2,0.7,0.4,1,0.7c0.3,0.3,0.5,0.7,0.6,1.1
			c0.1,0.4,0.2,0.9,0.2,1.4v5.9h-2.2v-5.9c0-0.6-0.1-1-0.4-1.3c-0.3-0.3-0.7-0.5-1.2-0.5c-0.4,0-0.7,0.1-1.1,0.3
			c-0.3,0.2-0.7,0.4-1,0.7v6.7H740.3z"/>
		<path d="M755.5,22.1v3.7h3.5v1.6h-3.5v3.7h-1.8v-3.7h-3.5v-1.6h3.5v-3.7H755.5z"/>
		<path d="M762.2,31h2.6v-7.6c0-0.3,0-0.6,0-0.9L763,24c-0.1,0.1-0.2,0.1-0.2,0.1s-0.2,0-0.2,0c-0.1,0-0.2,0-0.3-0.1
			c-0.1-0.1-0.2-0.1-0.2-0.2l-0.7-1l4-3.4h1.8V31h2.3v1.7h-7.2V31z"/>
	</g>
	<g>
		<path d="M24.6,132.6v-13h4.5c0.9,0,1.6,0.1,2.2,0.2c0.6,0.2,1.1,0.4,1.5,0.7c0.4,0.3,0.7,0.7,0.9,1.1c0.2,0.4,0.3,0.9,0.3,1.4
			c0,0.3,0,0.6-0.1,0.9c-0.1,0.3-0.2,0.5-0.4,0.8s-0.4,0.5-0.7,0.7c-0.3,0.2-0.6,0.4-1,0.5c1.8,0.4,2.7,1.4,2.7,2.9
			c0,0.6-0.1,1.1-0.3,1.5s-0.5,0.9-0.9,1.2c-0.4,0.3-0.9,0.6-1.5,0.8c-0.6,0.2-1.3,0.3-2,0.3H24.6z M27,125.2h1.9
			c0.8,0,1.4-0.2,1.9-0.5c0.4-0.3,0.6-0.8,0.6-1.4c0-0.7-0.2-1.2-0.6-1.4s-1-0.4-1.8-0.4H27V125.2z M27,126.9v3.8h2.5
			c0.5,0,0.8-0.1,1.1-0.2c0.3-0.1,0.5-0.3,0.7-0.4c0.2-0.2,0.3-0.4,0.4-0.6c0.1-0.2,0.1-0.5,0.1-0.8c0-0.3,0-0.5-0.1-0.8
			c-0.1-0.2-0.2-0.4-0.4-0.6c-0.2-0.2-0.4-0.3-0.7-0.4c-0.3-0.1-0.7-0.1-1.1-0.1H27z"/>
		<path d="M38.6,119.3v13.4h-2.2v-13.4H38.6z"/>
		<path d="M44.9,123.3c0.6,0,1.1,0.1,1.6,0.3c0.5,0.2,0.9,0.5,1.3,0.8c0.4,0.4,0.6,0.8,0.8,1.3c0.2,0.5,0.3,1.1,0.3,1.8
			c0,0.2,0,0.3,0,0.4c0,0.1,0,0.2-0.1,0.3c0,0.1-0.1,0.1-0.2,0.1c-0.1,0-0.1,0-0.3,0h-5.7c0.1,0.9,0.3,1.6,0.8,2.1s1,0.7,1.8,0.7
			c0.4,0,0.7,0,0.9-0.1c0.3-0.1,0.5-0.2,0.7-0.3c0.2-0.1,0.4-0.2,0.5-0.3s0.3-0.1,0.4-0.1c0.1,0,0.2,0,0.2,0.1
			c0.1,0,0.1,0.1,0.2,0.2l0.6,0.8c-0.2,0.3-0.5,0.5-0.8,0.7c-0.3,0.2-0.6,0.4-1,0.5s-0.7,0.2-1,0.2c-0.3,0-0.7,0.1-1,0.1
			c-0.6,0-1.2-0.1-1.8-0.3c-0.6-0.2-1-0.5-1.4-0.9c-0.4-0.4-0.7-0.9-1-1.5c-0.2-0.6-0.4-1.3-0.4-2.1c0-0.6,0.1-1.2,0.3-1.8
			c0.2-0.6,0.5-1,0.9-1.4c0.4-0.4,0.8-0.7,1.4-1C43.6,123.4,44.2,123.3,44.9,123.3z M44.9,124.8c-0.6,0-1.2,0.2-1.5,0.5
			c-0.4,0.4-0.6,0.9-0.7,1.6h4.2c0-0.3,0-0.6-0.1-0.8c-0.1-0.3-0.2-0.5-0.4-0.7c-0.2-0.2-0.4-0.3-0.6-0.5
			C45.5,124.9,45.3,124.8,44.9,124.8z M48,119.5l-2.2,2.3c-0.1,0.1-0.2,0.2-0.3,0.2s-0.2,0.1-0.4,0.1h-1.3l1.3-2.2
			c0.1-0.2,0.2-0.3,0.3-0.4c0.1-0.1,0.3-0.1,0.5-0.1H48z"/>
		<path d="M60.7,132.6c-0.3,0-0.5-0.1-0.6-0.4l-0.2-0.9c-0.2,0.2-0.4,0.4-0.6,0.6s-0.4,0.3-0.7,0.5c-0.2,0.1-0.5,0.2-0.8,0.3
			c-0.3,0.1-0.6,0.1-0.9,0.1c-0.5,0-1-0.1-1.4-0.3s-0.8-0.5-1.1-0.9c-0.3-0.4-0.5-0.9-0.7-1.5s-0.2-1.3-0.2-2c0-0.7,0.1-1.3,0.3-1.9
			c0.2-0.6,0.5-1.1,0.8-1.5c0.3-0.4,0.8-0.8,1.3-1c0.5-0.2,1-0.4,1.6-0.4c0.5,0,1,0.1,1.3,0.2c0.4,0.2,0.7,0.4,1,0.7v-4.9H62v13.4
			H60.7z M57.7,131c0.5,0,0.9-0.1,1.2-0.3c0.3-0.2,0.6-0.5,0.9-0.8v-4.1c-0.3-0.3-0.5-0.5-0.8-0.6s-0.6-0.2-1-0.2
			c-0.3,0-0.6,0.1-0.9,0.2s-0.5,0.3-0.7,0.6s-0.3,0.6-0.4,1s-0.2,0.9-0.2,1.4c0,0.5,0,1,0.1,1.4s0.2,0.7,0.4,0.9
			c0.2,0.2,0.4,0.4,0.6,0.5C57.1,130.9,57.4,131,57.7,131z"/>
		<path d="M66.5,123.4v5.9c0,0.6,0.1,1,0.4,1.3c0.3,0.3,0.7,0.5,1.2,0.5c0.4,0,0.7-0.1,1.1-0.3c0.3-0.2,0.7-0.4,1-0.7v-6.7h2.2v9.2
			h-1.4c-0.3,0-0.5-0.1-0.6-0.4l-0.2-0.7c-0.2,0.2-0.4,0.4-0.6,0.5c-0.2,0.2-0.4,0.3-0.7,0.4c-0.2,0.1-0.5,0.2-0.7,0.3
			c-0.3,0.1-0.6,0.1-0.9,0.1c-0.5,0-0.9-0.1-1.3-0.3c-0.4-0.2-0.7-0.4-1-0.7c-0.3-0.3-0.5-0.7-0.6-1.1c-0.1-0.4-0.2-0.9-0.2-1.4
			v-5.9H66.5z"/>
		<path d="M74.7,132.6v-9.2H76c0.2,0,0.4,0,0.5,0.1c0.1,0.1,0.1,0.2,0.2,0.4l0.1,1.1c0.3-0.6,0.7-1,1.2-1.4c0.4-0.3,0.9-0.5,1.5-0.5
			c0.5,0,0.8,0.1,1.1,0.3l-0.3,1.7c0,0.1-0.1,0.2-0.1,0.2s-0.1,0.1-0.2,0.1c-0.1,0-0.2,0-0.4-0.1c-0.2,0-0.4-0.1-0.6-0.1
			c-0.5,0-0.9,0.1-1.2,0.4s-0.6,0.6-0.8,1.1v5.8H74.7z"/>
	</g>
	<g>
		<path d="M18.5,177.8c0.1,0.2,0.2,0.4,0.3,0.6c0.1-0.2,0.2-0.4,0.3-0.6c0.1-0.2,0.2-0.4,0.3-0.6l3.9-7.2c0-0.1,0.1-0.2,0.1-0.2
			c0.1-0.1,0.1-0.1,0.2-0.1s0.1,0,0.2,0c0.1,0,0.2,0,0.3,0h1.8v13h-2.1v-8.4c0-0.2,0-0.3,0-0.5c0-0.2,0-0.4,0-0.6l-3.9,7.4
			c-0.1,0.2-0.2,0.3-0.4,0.4c-0.1,0.1-0.3,0.1-0.5,0.1h-0.3c-0.2,0-0.4,0-0.5-0.1c-0.1-0.1-0.3-0.2-0.4-0.4l-4-7.4
			c0,0.2,0,0.4,0,0.6c0,0.2,0,0.4,0,0.5v8.4h-2.1v-13h1.8c0.1,0,0.2,0,0.3,0s0.1,0,0.2,0s0.1,0.1,0.2,0.1c0.1,0.1,0.1,0.1,0.2,0.2
			l3.9,7.2C18.3,177.4,18.4,177.6,18.5,177.8z"/>
		<path d="M35.5,182.6h-1c-0.2,0-0.4,0-0.5-0.1c-0.1-0.1-0.2-0.2-0.3-0.4l-0.2-0.7c-0.2,0.2-0.5,0.4-0.7,0.6
			c-0.2,0.2-0.5,0.3-0.7,0.4c-0.2,0.1-0.5,0.2-0.8,0.2c-0.3,0.1-0.6,0.1-0.9,0.1c-0.4,0-0.8-0.1-1.1-0.2c-0.3-0.1-0.6-0.3-0.9-0.5
			c-0.2-0.2-0.4-0.5-0.6-0.8c-0.1-0.3-0.2-0.7-0.2-1.1c0-0.3,0.1-0.7,0.3-1s0.5-0.6,0.9-0.9c0.4-0.3,1-0.5,1.7-0.7
			c0.7-0.2,1.6-0.3,2.6-0.3v-0.5c0-0.6-0.1-1.1-0.4-1.4c-0.3-0.3-0.6-0.4-1.1-0.4c-0.4,0-0.7,0-0.9,0.1c-0.2,0.1-0.4,0.2-0.6,0.3
			c-0.2,0.1-0.3,0.2-0.5,0.3s-0.3,0.1-0.5,0.1c-0.1,0-0.3,0-0.4-0.1s-0.2-0.2-0.3-0.3l-0.4-0.7c1.1-1,2.3-1.5,3.8-1.5
			c0.5,0,1,0.1,1.4,0.3c0.4,0.2,0.8,0.4,1.1,0.7c0.3,0.3,0.5,0.7,0.7,1.1c0.2,0.4,0.2,0.9,0.2,1.4V182.6z M31.2,181.2
			c0.2,0,0.4,0,0.6-0.1c0.2,0,0.4-0.1,0.5-0.2c0.2-0.1,0.3-0.2,0.5-0.3s0.3-0.3,0.5-0.4v-1.5c-0.6,0-1.2,0-1.6,0.1
			c-0.4,0.1-0.8,0.2-1,0.3s-0.5,0.3-0.6,0.4c-0.1,0.2-0.2,0.4-0.2,0.6c0,0.4,0.1,0.7,0.3,0.8C30.6,181.2,30.9,181.2,31.2,181.2z"/>
		<path d="M38.6,171c0,0.2,0,0.3-0.1,0.5c-0.1,0.1-0.2,0.3-0.3,0.4c-0.1,0.1-0.3,0.2-0.4,0.3c-0.2,0.1-0.3,0.1-0.5,0.1
			c-0.2,0-0.3,0-0.5-0.1c-0.1-0.1-0.3-0.1-0.4-0.3c-0.1-0.1-0.2-0.2-0.3-0.4c-0.1-0.1-0.1-0.3-0.1-0.5c0-0.2,0-0.3,0.1-0.5
			c0.1-0.2,0.2-0.3,0.3-0.4c0.1-0.1,0.2-0.2,0.4-0.3c0.1-0.1,0.3-0.1,0.5-0.1c0.2,0,0.3,0,0.5,0.1c0.2,0.1,0.3,0.2,0.4,0.3
			c0.1,0.1,0.2,0.2,0.3,0.4C38.6,170.7,38.6,170.8,38.6,171z M40.1,173.4v9.2h-2.2v-9.2H40.1z M42,171c0,0.2,0,0.3-0.1,0.5
			c-0.1,0.1-0.2,0.3-0.3,0.4c-0.1,0.1-0.2,0.2-0.4,0.3c-0.2,0.1-0.3,0.1-0.5,0.1s-0.3,0-0.5-0.1c-0.1-0.1-0.3-0.1-0.4-0.3
			c-0.1-0.1-0.2-0.2-0.3-0.4c-0.1-0.1-0.1-0.3-0.1-0.5c0-0.2,0-0.3,0.1-0.5c0.1-0.2,0.2-0.3,0.3-0.4c0.1-0.1,0.2-0.2,0.4-0.3
			c0.1-0.1,0.3-0.1,0.5-0.1s0.3,0,0.5,0.1c0.2,0.1,0.3,0.2,0.4,0.3c0.1,0.1,0.2,0.2,0.3,0.4C41.9,170.7,42,170.8,42,171z"/>
		<path d="M48.1,175.2c-0.1,0.1-0.1,0.2-0.2,0.2s-0.1,0.1-0.3,0.1c-0.1,0-0.2,0-0.3-0.1c-0.1-0.1-0.3-0.1-0.4-0.2
			c-0.2-0.1-0.3-0.1-0.6-0.2s-0.5-0.1-0.7-0.1c-0.4,0-0.8,0.1-1,0.3c-0.3,0.2-0.4,0.4-0.4,0.7c0,0.2,0.1,0.4,0.2,0.5
			c0.1,0.1,0.3,0.3,0.5,0.4c0.2,0.1,0.5,0.2,0.7,0.3s0.5,0.2,0.8,0.3c0.3,0.1,0.6,0.2,0.8,0.3s0.5,0.3,0.7,0.5
			c0.2,0.2,0.4,0.4,0.5,0.7c0.1,0.3,0.2,0.6,0.2,1c0,0.4-0.1,0.9-0.2,1.2c-0.2,0.4-0.4,0.7-0.7,1c-0.3,0.3-0.7,0.5-1.2,0.6
			c-0.5,0.2-1,0.2-1.6,0.2c-0.3,0-0.6,0-0.9-0.1c-0.3-0.1-0.6-0.1-0.9-0.2c-0.3-0.1-0.5-0.2-0.8-0.4s-0.4-0.3-0.6-0.5l0.5-0.8
			c0.1-0.1,0.1-0.2,0.2-0.2c0.1-0.1,0.2-0.1,0.3-0.1c0.1,0,0.3,0,0.4,0.1s0.3,0.2,0.4,0.3s0.4,0.2,0.6,0.3c0.2,0.1,0.5,0.1,0.8,0.1
			c0.3,0,0.5,0,0.7-0.1c0.2-0.1,0.3-0.1,0.5-0.2c0.1-0.1,0.2-0.2,0.3-0.4s0.1-0.3,0.1-0.4c0-0.2-0.1-0.4-0.2-0.5
			c-0.1-0.1-0.3-0.3-0.5-0.4s-0.5-0.2-0.7-0.3s-0.6-0.2-0.8-0.3s-0.6-0.2-0.8-0.3c-0.3-0.1-0.5-0.3-0.7-0.5s-0.4-0.4-0.5-0.7
			s-0.2-0.6-0.2-1c0-0.4,0.1-0.7,0.2-1.1c0.1-0.3,0.4-0.6,0.7-0.9c0.3-0.3,0.7-0.5,1.1-0.6s0.9-0.2,1.5-0.2c0.6,0,1.2,0.1,1.7,0.3
			c0.5,0.2,1,0.5,1.3,0.8L48.1,175.2z"/>
		<path d="M57.1,173.2c0.4,0,0.8,0,1.1,0.1c0.3,0.1,0.7,0.2,1,0.4h2.7v0.8c0,0.1,0,0.2-0.1,0.3s-0.2,0.1-0.4,0.2l-0.8,0.2
			c0.1,0.2,0.1,0.3,0.1,0.5c0,0.2,0,0.4,0,0.5c0,0.5-0.1,0.9-0.3,1.2c-0.2,0.4-0.4,0.7-0.8,0.9c-0.3,0.3-0.7,0.5-1.1,0.6
			c-0.4,0.1-0.9,0.2-1.4,0.2c-0.3,0-0.7,0-1-0.1c-0.3,0.2-0.4,0.4-0.4,0.6c0,0.2,0.1,0.3,0.3,0.4c0.2,0.1,0.4,0.1,0.7,0.2
			c0.3,0,0.6,0.1,0.9,0.1s0.7,0,1.1,0c0.4,0,0.7,0.1,1.1,0.2c0.4,0.1,0.7,0.2,0.9,0.4c0.3,0.2,0.5,0.4,0.7,0.7
			c0.2,0.3,0.3,0.6,0.3,1.1c0,0.4-0.1,0.8-0.3,1.2c-0.2,0.4-0.5,0.7-0.9,1c-0.4,0.3-0.8,0.5-1.4,0.7c-0.6,0.2-1.2,0.3-1.9,0.3
			c-0.7,0-1.3-0.1-1.8-0.2c-0.5-0.1-0.9-0.3-1.3-0.5c-0.3-0.2-0.6-0.5-0.8-0.8s-0.3-0.6-0.3-0.9c0-0.4,0.1-0.8,0.4-1.1
			c0.3-0.3,0.6-0.5,1.1-0.7c-0.2-0.1-0.4-0.3-0.5-0.5s-0.2-0.5-0.2-0.8c0-0.1,0-0.3,0.1-0.4c0-0.1,0.1-0.3,0.2-0.4
			c0.1-0.1,0.2-0.3,0.4-0.4s0.3-0.2,0.5-0.3c-0.5-0.3-0.8-0.6-1.1-1c-0.3-0.4-0.4-0.9-0.4-1.5c0-0.5,0.1-0.9,0.3-1.2
			c0.2-0.4,0.4-0.7,0.8-0.9c0.3-0.3,0.7-0.5,1.2-0.6C56.1,173.3,56.6,173.2,57.1,173.2z M59.6,183c0-0.2-0.1-0.3-0.2-0.5
			c-0.1-0.1-0.3-0.2-0.4-0.3c-0.2-0.1-0.4-0.1-0.7-0.1c-0.2,0-0.5,0-0.8,0c-0.3,0-0.6,0-0.9,0c-0.3,0-0.6,0-0.9-0.1
			c-0.3,0.1-0.5,0.3-0.6,0.5c-0.2,0.2-0.2,0.4-0.2,0.7c0,0.2,0,0.3,0.1,0.5s0.2,0.3,0.4,0.4c0.2,0.1,0.4,0.2,0.7,0.2
			c0.3,0.1,0.6,0.1,1,0.1c0.4,0,0.8,0,1.1-0.1c0.3-0.1,0.5-0.2,0.7-0.3c0.2-0.1,0.3-0.2,0.4-0.4S59.6,183.2,59.6,183z M57.1,177.8
			c0.3,0,0.5,0,0.7-0.1c0.2-0.1,0.4-0.2,0.5-0.3c0.1-0.1,0.2-0.3,0.3-0.5c0.1-0.2,0.1-0.4,0.1-0.6c0-0.5-0.1-0.8-0.4-1.1
			s-0.7-0.4-1.2-0.4s-1,0.1-1.2,0.4s-0.4,0.6-0.4,1.1c0,0.2,0,0.4,0.1,0.6c0.1,0.2,0.2,0.3,0.3,0.5c0.1,0.1,0.3,0.2,0.5,0.3
			C56.6,177.7,56.9,177.8,57.1,177.8z"/>
		<path d="M63.3,182.6v-9.2h1.3c0.2,0,0.4,0,0.5,0.1c0.1,0.1,0.1,0.2,0.2,0.4l0.1,1.1c0.3-0.6,0.7-1,1.2-1.4
			c0.4-0.3,0.9-0.5,1.5-0.5c0.5,0,0.8,0.1,1.1,0.3l-0.3,1.7c0,0.1-0.1,0.2-0.1,0.2s-0.1,0.1-0.2,0.1c-0.1,0-0.2,0-0.4-0.1
			c-0.2,0-0.4-0.1-0.6-0.1c-0.5,0-0.9,0.1-1.2,0.4s-0.6,0.6-0.8,1.1v5.8H63.3z"/>
		<path d="M77.6,182.6h-1c-0.2,0-0.4,0-0.5-0.1c-0.1-0.1-0.2-0.2-0.3-0.4l-0.2-0.7c-0.2,0.2-0.5,0.4-0.7,0.6
			c-0.2,0.2-0.5,0.3-0.7,0.4c-0.2,0.1-0.5,0.2-0.8,0.2c-0.3,0.1-0.6,0.1-0.9,0.1c-0.4,0-0.8-0.1-1.1-0.2c-0.3-0.1-0.6-0.3-0.9-0.5
			c-0.2-0.2-0.4-0.5-0.6-0.8c-0.1-0.3-0.2-0.7-0.2-1.1c0-0.3,0.1-0.7,0.3-1s0.5-0.6,0.9-0.9c0.4-0.3,1-0.5,1.7-0.7
			c0.7-0.2,1.6-0.3,2.6-0.3v-0.5c0-0.6-0.1-1.1-0.4-1.4c-0.3-0.3-0.6-0.4-1.1-0.4c-0.4,0-0.7,0-0.9,0.1c-0.2,0.1-0.4,0.2-0.6,0.3
			c-0.2,0.1-0.3,0.2-0.5,0.3s-0.3,0.1-0.5,0.1c-0.1,0-0.3,0-0.4-0.1s-0.2-0.2-0.3-0.3l-0.4-0.7c1.1-1,2.3-1.5,3.8-1.5
			c0.5,0,1,0.1,1.4,0.3c0.4,0.2,0.8,0.4,1.1,0.7c0.3,0.3,0.5,0.7,0.7,1.1c0.2,0.4,0.2,0.9,0.2,1.4V182.6z M73.3,181.2
			c0.2,0,0.4,0,0.6-0.1c0.2,0,0.4-0.1,0.5-0.2c0.2-0.1,0.3-0.2,0.5-0.3s0.3-0.3,0.5-0.4v-1.5c-0.6,0-1.2,0-1.6,0.1
			c-0.4,0.1-0.8,0.2-1,0.3s-0.5,0.3-0.6,0.4c-0.1,0.2-0.2,0.4-0.2,0.6c0,0.4,0.1,0.7,0.3,0.8C72.6,181.2,72.9,181.2,73.3,181.2z"/>
		<path d="M82.5,170.7c0,0.2,0,0.4-0.1,0.5s-0.2,0.3-0.3,0.4s-0.3,0.2-0.5,0.3c-0.2,0.1-0.4,0.1-0.6,0.1c-0.2,0-0.4,0-0.5-0.1
			c-0.2-0.1-0.3-0.2-0.4-0.3s-0.2-0.3-0.3-0.4c-0.1-0.2-0.1-0.3-0.1-0.5c0-0.2,0-0.4,0.1-0.6c0.1-0.2,0.2-0.3,0.3-0.4
			s0.3-0.2,0.4-0.3c0.2-0.1,0.4-0.1,0.5-0.1c0.2,0,0.4,0,0.6,0.1c0.2,0.1,0.3,0.2,0.5,0.3s0.2,0.3,0.3,0.4
			C82.4,170.3,82.5,170.5,82.5,170.7z M82.1,173.4v9.2h-2.2v-9.2H82.1z"/>
		<path d="M84.7,182.6v-9.2H86c0.3,0,0.5,0.1,0.6,0.4l0.2,0.7c0.2-0.2,0.4-0.4,0.6-0.5s0.4-0.3,0.7-0.4c0.2-0.1,0.5-0.2,0.7-0.3
			c0.3-0.1,0.6-0.1,0.9-0.1c0.5,0,1,0.1,1.3,0.3c0.4,0.2,0.7,0.4,1,0.7c0.3,0.3,0.5,0.7,0.6,1.1c0.1,0.4,0.2,0.9,0.2,1.4v5.9h-2.2
			v-5.9c0-0.6-0.1-1-0.4-1.3c-0.3-0.3-0.7-0.5-1.2-0.5c-0.4,0-0.7,0.1-1.1,0.3c-0.3,0.2-0.7,0.4-1,0.7v6.7H84.7z"/>
	</g>
	<g>
		<path d="M3.3,233h5.6v1.5H1.6v-12.9h1.7V233z"/>
		<path d="M17.3,234.5h-0.7c-0.2,0-0.3,0-0.4-0.1c-0.1,0-0.2-0.1-0.2-0.3l-0.2-0.8c-0.2,0.2-0.5,0.4-0.7,0.6s-0.5,0.3-0.7,0.4
			c-0.3,0.1-0.5,0.2-0.8,0.3c-0.3,0.1-0.6,0.1-0.9,0.1c-0.4,0-0.7,0-1-0.1s-0.6-0.2-0.8-0.4c-0.2-0.2-0.4-0.5-0.5-0.8
			c-0.1-0.3-0.2-0.7-0.2-1.1c0-0.4,0.1-0.7,0.3-1c0.2-0.3,0.5-0.6,1-0.9s1-0.5,1.7-0.6s1.6-0.2,2.6-0.2v-0.7c0-0.7-0.2-1.3-0.5-1.6
			c-0.3-0.4-0.8-0.5-1.3-0.5c-0.4,0-0.7,0-1,0.1s-0.5,0.2-0.7,0.3c-0.2,0.1-0.4,0.2-0.5,0.3c-0.1,0.1-0.3,0.1-0.4,0.1
			c-0.1,0-0.2,0-0.3-0.1s-0.1-0.1-0.2-0.2l-0.3-0.5c0.5-0.5,1-0.8,1.6-1.1c0.6-0.2,1.2-0.4,1.9-0.4c0.5,0,1,0.1,1.4,0.3
			s0.7,0.4,1,0.7c0.3,0.3,0.5,0.7,0.6,1.1c0.1,0.4,0.2,0.9,0.2,1.4V234.5z M13.1,233.5c0.3,0,0.5,0,0.8-0.1s0.5-0.1,0.7-0.2
			s0.4-0.2,0.6-0.4s0.4-0.3,0.6-0.5v-1.9c-0.7,0-1.4,0-1.9,0.1c-0.5,0.1-0.9,0.2-1.3,0.4c-0.3,0.2-0.6,0.3-0.7,0.5s-0.2,0.4-0.2,0.7
			c0,0.2,0,0.4,0.1,0.6c0.1,0.2,0.2,0.3,0.3,0.4s0.3,0.2,0.5,0.2C12.7,233.5,12.9,233.5,13.1,233.5z"/>
		<path d="M19.7,234.5v-13.3h1.6v5.5c0.4-0.4,0.8-0.8,1.3-1.1c0.5-0.3,1-0.4,1.7-0.4c0.5,0,1,0.1,1.4,0.3c0.4,0.2,0.8,0.5,1.1,0.9
			c0.3,0.4,0.5,0.9,0.7,1.5c0.2,0.6,0.2,1.2,0.2,2c0,0.7-0.1,1.3-0.3,1.9c-0.2,0.6-0.4,1.1-0.8,1.5c-0.3,0.4-0.8,0.8-1.2,1
			c-0.5,0.2-1,0.4-1.7,0.4c-0.6,0-1.1-0.1-1.5-0.3c-0.4-0.2-0.8-0.5-1.1-1l-0.1,0.8c0,0.2-0.2,0.3-0.4,0.3H19.7z M23.8,226.5
			c-0.5,0-1,0.1-1.4,0.4c-0.4,0.2-0.8,0.6-1.1,1v4.4c0.3,0.4,0.6,0.7,1,0.8s0.7,0.2,1.2,0.2c0.9,0,1.5-0.3,2-0.9
			c0.5-0.6,0.7-1.5,0.7-2.6c0-0.6-0.1-1.1-0.2-1.5c-0.1-0.4-0.3-0.8-0.5-1c-0.2-0.3-0.4-0.5-0.7-0.6S24.2,226.5,23.8,226.5z"/>
		<path d="M33.4,225.2c0.7,0,1.3,0.1,1.8,0.3c0.5,0.2,1,0.5,1.4,0.9s0.7,0.9,0.9,1.5c0.2,0.6,0.3,1.2,0.3,1.9c0,0.7-0.1,1.4-0.3,1.9
			c-0.2,0.6-0.5,1.1-0.9,1.5c-0.4,0.4-0.8,0.7-1.4,0.9c-0.5,0.2-1.1,0.3-1.8,0.3s-1.3-0.1-1.8-0.3c-0.5-0.2-1-0.5-1.4-0.9
			c-0.4-0.4-0.7-0.9-0.9-1.5c-0.2-0.6-0.3-1.2-0.3-1.9c0-0.7,0.1-1.4,0.3-1.9c0.2-0.6,0.5-1.1,0.9-1.5s0.8-0.7,1.4-0.9
			C32.2,225.4,32.8,225.2,33.4,225.2z M33.4,233.4c0.9,0,1.6-0.3,2-0.9c0.4-0.6,0.7-1.4,0.7-2.5c0-1.1-0.2-1.9-0.7-2.5
			c-0.4-0.6-1.1-0.9-2-0.9c-0.5,0-0.9,0.1-1.2,0.2c-0.3,0.2-0.6,0.4-0.8,0.7s-0.4,0.7-0.5,1.1c-0.1,0.4-0.2,0.9-0.2,1.5
			s0.1,1,0.2,1.4c0.1,0.4,0.3,0.8,0.5,1.1s0.5,0.5,0.8,0.7C32.6,233.3,33,233.4,33.4,233.4z"/>
		<path d="M41.1,225.4v5.8c0,0.7,0.2,1.2,0.5,1.6c0.3,0.4,0.8,0.6,1.4,0.6c0.5,0,0.9-0.1,1.3-0.3c0.4-0.2,0.8-0.5,1.1-0.9v-6.7h1.6
			v9.1h-1c-0.2,0-0.4-0.1-0.4-0.3l-0.1-1c-0.4,0.4-0.8,0.8-1.3,1.1c-0.5,0.3-1.1,0.4-1.7,0.4c-0.5,0-0.9-0.1-1.3-0.2
			c-0.4-0.2-0.7-0.4-1-0.7c-0.3-0.3-0.5-0.7-0.6-1.1c-0.1-0.4-0.2-0.9-0.2-1.4v-5.8H41.1z"/>
		<path d="M49.8,234.5v-9.1h0.9c0.2,0,0.3,0,0.4,0.1s0.1,0.2,0.1,0.3l0.1,1.4c0.3-0.6,0.7-1.1,1.2-1.5c0.5-0.4,1-0.5,1.6-0.5
			c0.3,0,0.5,0,0.7,0.1s0.4,0.1,0.6,0.2l-0.2,1.2c0,0.1-0.1,0.2-0.3,0.2c-0.1,0-0.2,0-0.4-0.1c-0.2-0.1-0.4-0.1-0.7-0.1
			c-0.6,0-1,0.2-1.4,0.5c-0.4,0.3-0.7,0.8-0.9,1.4v5.8H49.8z"/>
	</g>
	<rect x="65.7" y="220.5" class="st0" width="25" height="15"/>
	<g>
		<path d="M147.7,223.6c-0.1,0.1-0.1,0.2-0.2,0.2c-0.1,0-0.1,0.1-0.2,0.1c-0.1,0-0.2-0.1-0.4-0.2c-0.1-0.1-0.3-0.2-0.5-0.3
			s-0.5-0.2-0.7-0.3s-0.6-0.2-1.1-0.2c-0.4,0-0.7,0.1-1,0.2c-0.3,0.1-0.6,0.2-0.8,0.4c-0.2,0.2-0.4,0.4-0.5,0.6s-0.2,0.5-0.2,0.8
			c0,0.4,0.1,0.7,0.3,0.9c0.2,0.2,0.4,0.4,0.7,0.6s0.6,0.3,1,0.4c0.4,0.1,0.7,0.3,1.1,0.4c0.4,0.1,0.8,0.3,1.1,0.4
			c0.4,0.2,0.7,0.4,1,0.6s0.5,0.6,0.7,0.9c0.2,0.4,0.3,0.8,0.3,1.4c0,0.6-0.1,1.1-0.3,1.6c-0.2,0.5-0.5,0.9-0.8,1.3
			c-0.4,0.4-0.8,0.7-1.4,0.9s-1.1,0.3-1.8,0.3c-0.8,0-1.6-0.2-2.3-0.5c-0.7-0.3-1.3-0.7-1.8-1.2l0.5-0.8c0-0.1,0.1-0.1,0.2-0.2
			c0.1,0,0.1-0.1,0.2-0.1c0.1,0,0.3,0.1,0.4,0.2c0.2,0.1,0.4,0.3,0.6,0.4c0.2,0.2,0.5,0.3,0.9,0.4c0.3,0.1,0.8,0.2,1.3,0.2
			c0.4,0,0.8-0.1,1.1-0.2c0.3-0.1,0.6-0.3,0.8-0.5s0.4-0.5,0.5-0.7c0.1-0.3,0.2-0.6,0.2-1c0-0.4-0.1-0.7-0.3-1
			c-0.2-0.2-0.4-0.5-0.7-0.6c-0.3-0.2-0.6-0.3-1-0.4c-0.4-0.1-0.7-0.2-1.1-0.4c-0.4-0.1-0.8-0.3-1.1-0.4c-0.4-0.2-0.7-0.4-1-0.6
			c-0.3-0.3-0.5-0.6-0.7-1c-0.2-0.4-0.3-0.9-0.3-1.4c0-0.5,0.1-0.9,0.3-1.3c0.2-0.4,0.4-0.8,0.8-1.1c0.3-0.3,0.8-0.6,1.2-0.8
			c0.5-0.2,1.1-0.3,1.7-0.3c0.7,0,1.4,0.1,2,0.3c0.6,0.2,1.1,0.6,1.6,1L147.7,223.6z"/>
		<path d="M154,225.2c0.5,0,1.1,0.1,1.5,0.3s0.9,0.4,1.2,0.8c0.3,0.3,0.6,0.8,0.8,1.3c0.2,0.5,0.3,1.1,0.3,1.7c0,0.3,0,0.4-0.1,0.5
			c-0.1,0.1-0.2,0.1-0.3,0.1h-6.1c0,0.6,0.1,1.1,0.2,1.5c0.1,0.4,0.3,0.8,0.6,1.1s0.6,0.5,0.9,0.6c0.3,0.1,0.7,0.2,1.2,0.2
			c0.4,0,0.7,0,1-0.1c0.3-0.1,0.5-0.2,0.8-0.3c0.2-0.1,0.4-0.2,0.5-0.3c0.1-0.1,0.3-0.1,0.4-0.1c0.1,0,0.2,0.1,0.3,0.2l0.4,0.6
			c-0.2,0.2-0.4,0.4-0.7,0.6c-0.3,0.2-0.6,0.3-0.9,0.4c-0.3,0.1-0.6,0.2-1,0.3c-0.3,0.1-0.7,0.1-1,0.1c-0.6,0-1.2-0.1-1.7-0.3
			c-0.5-0.2-1-0.5-1.4-0.9s-0.7-0.9-0.9-1.5c-0.2-0.6-0.3-1.3-0.3-2.1c0-0.6,0.1-1.2,0.3-1.8c0.2-0.6,0.5-1,0.8-1.4
			c0.4-0.4,0.8-0.7,1.3-1C152.7,225.4,153.3,225.2,154,225.2z M154,226.4c-0.8,0-1.4,0.2-1.8,0.7c-0.4,0.4-0.7,1.1-0.8,1.9h5
			c0-0.4-0.1-0.7-0.2-1c-0.1-0.3-0.3-0.6-0.4-0.8c-0.2-0.2-0.4-0.4-0.7-0.5C154.7,226.5,154.4,226.4,154,226.4z"/>
		<path d="M159.8,234.5v-9.1h1c0.2,0,0.4,0.1,0.4,0.3l0.1,0.9c0.3-0.4,0.7-0.8,1.1-1c0.4-0.3,0.9-0.4,1.5-0.4c0.6,0,1.1,0.2,1.5,0.5
			c0.4,0.3,0.7,0.8,0.8,1.4c0.1-0.3,0.3-0.6,0.5-0.9c0.2-0.2,0.4-0.4,0.7-0.6c0.3-0.2,0.5-0.3,0.8-0.3c0.3-0.1,0.6-0.1,0.9-0.1
			c0.5,0,0.9,0.1,1.3,0.2c0.4,0.2,0.7,0.4,1,0.7c0.3,0.3,0.5,0.7,0.6,1.1c0.1,0.4,0.2,0.9,0.2,1.5v5.8h-1.6v-5.8
			c0-0.7-0.2-1.3-0.5-1.6c-0.3-0.4-0.8-0.6-1.4-0.6c-0.3,0-0.5,0-0.8,0.1c-0.2,0.1-0.4,0.2-0.6,0.4c-0.2,0.2-0.3,0.4-0.4,0.7
			s-0.2,0.6-0.2,0.9v5.8h-1.6v-5.8c0-0.7-0.1-1.3-0.4-1.6c-0.3-0.4-0.7-0.5-1.3-0.5c-0.4,0-0.8,0.1-1.1,0.3
			c-0.3,0.2-0.6,0.5-0.9,0.9v6.8H159.8z"/>
		<path d="M176.7,222.5c0,0.2,0,0.3-0.1,0.4c-0.1,0.1-0.1,0.3-0.3,0.4s-0.2,0.2-0.4,0.2c-0.1,0.1-0.3,0.1-0.4,0.1
			c-0.2,0-0.3,0-0.4-0.1c-0.1-0.1-0.3-0.1-0.4-0.2s-0.2-0.2-0.2-0.4c-0.1-0.1-0.1-0.3-0.1-0.4c0-0.2,0-0.3,0.1-0.4
			c0.1-0.1,0.1-0.3,0.2-0.4s0.2-0.2,0.4-0.2c0.1-0.1,0.3-0.1,0.4-0.1c0.2,0,0.3,0,0.4,0.1c0.1,0.1,0.3,0.1,0.4,0.2s0.2,0.2,0.3,0.4
			C176.7,222.2,176.7,222.4,176.7,222.5z M176.4,225.4v9.1h-1.6v-9.1H176.4z"/>
		<path d="M184.4,226.9c-0.1,0.1-0.2,0.2-0.3,0.2c-0.1,0-0.2,0-0.3-0.1c-0.1-0.1-0.3-0.1-0.4-0.2s-0.4-0.2-0.6-0.2
			c-0.2-0.1-0.5-0.1-0.8-0.1c-0.3,0-0.5,0-0.7,0.1c-0.2,0.1-0.4,0.2-0.6,0.3c-0.2,0.1-0.3,0.3-0.4,0.4c-0.1,0.2-0.1,0.3-0.1,0.5
			c0,0.2,0.1,0.4,0.2,0.6c0.1,0.2,0.3,0.3,0.5,0.4c0.2,0.1,0.5,0.2,0.8,0.3c0.3,0.1,0.6,0.2,0.9,0.3s0.6,0.2,0.9,0.3
			c0.3,0.1,0.5,0.3,0.8,0.4c0.2,0.2,0.4,0.4,0.5,0.7c0.1,0.3,0.2,0.6,0.2,0.9c0,0.4-0.1,0.8-0.2,1.2s-0.4,0.7-0.7,0.9
			c-0.3,0.3-0.7,0.5-1.1,0.6c-0.4,0.1-0.9,0.2-1.5,0.2c-0.6,0-1.2-0.1-1.7-0.3s-1-0.5-1.3-0.8l0.4-0.6c0-0.1,0.1-0.1,0.2-0.2
			s0.2-0.1,0.3-0.1c0.1,0,0.2,0,0.3,0.1s0.3,0.2,0.4,0.3s0.4,0.2,0.6,0.3s0.5,0.1,0.9,0.1c0.3,0,0.6,0,0.8-0.1s0.4-0.2,0.6-0.3
			c0.2-0.1,0.3-0.3,0.3-0.5c0.1-0.2,0.1-0.4,0.1-0.6c0-0.3-0.1-0.5-0.2-0.6c-0.1-0.2-0.3-0.3-0.5-0.4c-0.2-0.1-0.5-0.2-0.8-0.3
			c-0.3-0.1-0.6-0.2-0.9-0.3c-0.3-0.1-0.6-0.2-0.9-0.3c-0.3-0.1-0.5-0.3-0.8-0.5c-0.2-0.2-0.4-0.4-0.5-0.7c-0.1-0.3-0.2-0.6-0.2-1
			c0-0.3,0.1-0.7,0.2-1c0.1-0.3,0.4-0.6,0.6-0.8c0.3-0.2,0.6-0.4,1-0.6c0.4-0.1,0.9-0.2,1.4-0.2c0.6,0,1.1,0.1,1.6,0.3
			c0.5,0.2,0.9,0.4,1.2,0.8L184.4,226.9z"/>
	</g>
	<rect x="195.7" y="220.5" class="st1" width="25" height="15"/>
	<g>
		<path d="M259,229.1v5.4h-1.7v-12.9h3.6c0.8,0,1.5,0.1,2.1,0.2c0.6,0.2,1.1,0.4,1.5,0.7c0.4,0.3,0.7,0.7,0.9,1.1
			c0.2,0.4,0.3,0.9,0.3,1.5c0,0.5-0.1,0.9-0.2,1.3s-0.4,0.8-0.6,1.1s-0.6,0.6-1,0.8c-0.4,0.2-0.8,0.4-1.3,0.5
			c0.2,0.1,0.4,0.3,0.6,0.5l3.8,5.1h-1.5c-0.3,0-0.6-0.1-0.7-0.4l-3.3-4.6c-0.1-0.1-0.2-0.2-0.3-0.3c-0.1-0.1-0.3-0.1-0.5-0.1H259z
			 M259,227.8h1.8c0.5,0,1-0.1,1.3-0.2c0.4-0.1,0.7-0.3,1-0.5c0.3-0.2,0.5-0.5,0.6-0.8c0.1-0.3,0.2-0.7,0.2-1c0-0.8-0.3-1.3-0.8-1.7
			c-0.5-0.4-1.3-0.6-2.3-0.6H259V227.8z"/>
		<path d="M272,225.2c0.5,0,1.1,0.1,1.5,0.3s0.9,0.4,1.2,0.8c0.3,0.3,0.6,0.8,0.8,1.3c0.2,0.5,0.3,1.1,0.3,1.7c0,0.3,0,0.4-0.1,0.5
			c-0.1,0.1-0.2,0.1-0.3,0.1h-6.1c0,0.6,0.1,1.1,0.2,1.5c0.1,0.4,0.3,0.8,0.6,1.1s0.6,0.5,0.9,0.6c0.3,0.1,0.7,0.2,1.2,0.2
			c0.4,0,0.7,0,1-0.1c0.3-0.1,0.5-0.2,0.8-0.3c0.2-0.1,0.4-0.2,0.5-0.3c0.1-0.1,0.3-0.1,0.4-0.1c0.1,0,0.2,0.1,0.3,0.2l0.4,0.6
			c-0.2,0.2-0.4,0.4-0.7,0.6c-0.3,0.2-0.6,0.3-0.9,0.4c-0.3,0.1-0.6,0.2-1,0.3c-0.3,0.1-0.7,0.1-1,0.1c-0.6,0-1.2-0.1-1.7-0.3
			c-0.5-0.2-1-0.5-1.4-0.9s-0.7-0.9-0.9-1.5c-0.2-0.6-0.3-1.3-0.3-2.1c0-0.6,0.1-1.2,0.3-1.8c0.2-0.6,0.5-1,0.8-1.4
			c0.4-0.4,0.8-0.7,1.3-1C270.8,225.4,271.4,225.2,272,225.2z M272.1,226.4c-0.8,0-1.4,0.2-1.8,0.7c-0.4,0.4-0.7,1.1-0.8,1.9h5
			c0-0.4-0.1-0.7-0.2-1c-0.1-0.3-0.3-0.6-0.4-0.8c-0.2-0.2-0.4-0.4-0.7-0.5C272.8,226.5,272.4,226.4,272.1,226.4z M274.7,221.5
			l-2.1,2.3c-0.1,0.1-0.2,0.2-0.2,0.2s-0.2,0.1-0.3,0.1h-1l1.3-2.2c0.1-0.1,0.2-0.2,0.3-0.3s0.2-0.1,0.4-0.1H274.7z"/>
		<path d="M284.1,227c0,0.1-0.1,0.1-0.1,0.2c0,0-0.1,0.1-0.2,0.1c-0.1,0-0.2,0-0.3-0.1c-0.1-0.1-0.2-0.2-0.4-0.2
			c-0.2-0.1-0.4-0.2-0.6-0.2s-0.5-0.1-0.9-0.1c-0.4,0-0.8,0.1-1.2,0.2c-0.3,0.2-0.6,0.4-0.9,0.7c-0.2,0.3-0.4,0.7-0.5,1.1
			c-0.1,0.4-0.2,0.9-0.2,1.4c0,0.6,0.1,1,0.2,1.5c0.1,0.4,0.3,0.8,0.5,1.1c0.2,0.3,0.5,0.5,0.8,0.7c0.3,0.2,0.7,0.2,1.1,0.2
			c0.4,0,0.7,0,1-0.1c0.3-0.1,0.5-0.2,0.6-0.3s0.3-0.2,0.4-0.3c0.1-0.1,0.2-0.1,0.3-0.1c0.1,0,0.2,0.1,0.3,0.2l0.5,0.6
			c-0.4,0.5-0.9,0.8-1.5,1.1c-0.6,0.2-1.2,0.3-1.9,0.3c-0.6,0-1.1-0.1-1.6-0.3c-0.5-0.2-0.9-0.5-1.3-0.9c-0.4-0.4-0.6-0.9-0.9-1.5
			c-0.2-0.6-0.3-1.2-0.3-2c0-0.7,0.1-1.3,0.3-1.9c0.2-0.6,0.5-1.1,0.8-1.5c0.4-0.4,0.8-0.7,1.3-1c0.5-0.2,1.1-0.4,1.8-0.4
			c0.6,0,1.2,0.1,1.7,0.3c0.5,0.2,0.9,0.5,1.3,0.9L284.1,227z"/>
		<path d="M290,225.2c0.7,0,1.3,0.1,1.8,0.3c0.5,0.2,1,0.5,1.4,0.9s0.7,0.9,0.9,1.5c0.2,0.6,0.3,1.2,0.3,1.9c0,0.7-0.1,1.4-0.3,1.9
			c-0.2,0.6-0.5,1.1-0.9,1.5c-0.4,0.4-0.8,0.7-1.4,0.9c-0.5,0.2-1.1,0.3-1.8,0.3s-1.3-0.1-1.8-0.3c-0.5-0.2-1-0.5-1.4-0.9
			c-0.4-0.4-0.7-0.9-0.9-1.5c-0.2-0.6-0.3-1.2-0.3-1.9c0-0.7,0.1-1.4,0.3-1.9c0.2-0.6,0.5-1.1,0.9-1.5s0.8-0.7,1.4-0.9
			C288.7,225.4,289.3,225.2,290,225.2z M290,233.4c0.9,0,1.6-0.3,2-0.9c0.4-0.6,0.7-1.4,0.7-2.5c0-1.1-0.2-1.9-0.7-2.5
			c-0.4-0.6-1.1-0.9-2-0.9c-0.5,0-0.9,0.1-1.2,0.2c-0.3,0.2-0.6,0.4-0.8,0.7s-0.4,0.7-0.5,1.1c-0.1,0.4-0.2,0.9-0.2,1.5
			s0.1,1,0.2,1.4c0.1,0.4,0.3,0.8,0.5,1.1s0.5,0.5,0.8,0.7C289.1,233.3,289.5,233.4,290,233.4z"/>
		<path d="M298.1,221.2v13.3h-1.6v-13.3H298.1z"/>
		<path d="M303.6,234.6c-0.7,0-1.3-0.2-1.7-0.6s-0.6-1-0.6-1.7v-5.6h-1.1c-0.1,0-0.2,0-0.2-0.1c-0.1-0.1-0.1-0.1-0.1-0.3v-0.6
			l1.5-0.2l0.4-2.8c0-0.1,0.1-0.2,0.1-0.2c0.1-0.1,0.1-0.1,0.3-0.1h0.8v3.1h2.6v1.2H303v5.5c0,0.4,0.1,0.7,0.3,0.9
			c0.2,0.2,0.4,0.3,0.7,0.3c0.2,0,0.3,0,0.4-0.1c0.1,0,0.2-0.1,0.3-0.1c0.1-0.1,0.2-0.1,0.2-0.1c0.1,0,0.1-0.1,0.2-0.1
			c0.1,0,0.2,0.1,0.2,0.2l0.5,0.8c-0.3,0.3-0.6,0.5-1,0.6C304.5,234.6,304.1,234.6,303.6,234.6z"/>
		<path d="M311.2,225.2c0.5,0,1.1,0.1,1.5,0.3s0.9,0.4,1.2,0.8c0.3,0.3,0.6,0.8,0.8,1.3c0.2,0.5,0.3,1.1,0.3,1.7
			c0,0.3,0,0.4-0.1,0.5c-0.1,0.1-0.2,0.1-0.3,0.1h-6.1c0,0.6,0.1,1.1,0.2,1.5c0.1,0.4,0.3,0.8,0.6,1.1s0.6,0.5,0.9,0.6
			c0.3,0.1,0.7,0.2,1.2,0.2c0.4,0,0.7,0,1-0.1c0.3-0.1,0.5-0.2,0.8-0.3c0.2-0.1,0.4-0.2,0.5-0.3c0.1-0.1,0.3-0.1,0.4-0.1
			c0.1,0,0.2,0.1,0.3,0.2l0.4,0.6c-0.2,0.2-0.4,0.4-0.7,0.6c-0.3,0.2-0.6,0.3-0.9,0.4c-0.3,0.1-0.6,0.2-1,0.3
			c-0.3,0.1-0.7,0.1-1,0.1c-0.6,0-1.2-0.1-1.7-0.3c-0.5-0.2-1-0.5-1.4-0.9s-0.7-0.9-0.9-1.5c-0.2-0.6-0.3-1.3-0.3-2.1
			c0-0.6,0.1-1.2,0.3-1.8c0.2-0.6,0.5-1,0.8-1.4c0.4-0.4,0.8-0.7,1.3-1C309.9,225.4,310.5,225.2,311.2,225.2z M311.2,226.4
			c-0.8,0-1.4,0.2-1.8,0.7c-0.4,0.4-0.7,1.1-0.8,1.9h5c0-0.4-0.1-0.7-0.2-1c-0.1-0.3-0.3-0.6-0.4-0.8c-0.2-0.2-0.4-0.4-0.7-0.5
			C311.9,226.5,311.6,226.4,311.2,226.4z"/>
	</g>
	<rect x="325.7" y="220.5" class="st2" width="25" height="15"/>
	<rect x="101.7" y="51.5" class="st3" width="50" height="50"/>
	<rect x="151.7" y="51.5" class="st3" width="50" height="50"/>
	<rect x="201.7" y="51.5" class="st3" width="50" height="50"/>
	<rect x="251.7" y="51.5" class="st3" width="50" height="50"/>
	<rect x="301.7" y="51.5" class="st3" width="50" height="50"/>
	<rect x="351.7" y="51.5" class="st3" width="50" height="50"/>
	<rect x="401.7" y="51.5" class="st3" width="50" height="50"/>
	<rect x="451.7" y="51.5" class="st3" width="50" height="50"/>
	<rect x="501.7" y="51.5" class="st3" width="50" height="50"/>
	<rect x="551.7" y="51.5" class="st3" width="50" height="50"/>
	<rect x="601.7" y="51.5" class="st3" width="50" height="50"/>
	<rect x="651.7" y="51.5" class="st3" width="50" height="50"/>
	<rect x="701.7" y="51.5" class="st3" width="50" height="50"/>
	<rect x="751.7" y="51.5" class="st3" width="50" height="50"/>
	<rect x="801.7" y="51.5" class="st3" width="50" height="50"/>
	<rect x="851.7" y="51.5" class="st3" width="50" height="50"/>
	<rect x="901.7" y="51.5" class="st3" width="50" height="50"/>
	<rect x="951.7" y="51.5" class="st3" width="50" height="50"/>
	<rect x="101.7" y="101.5" class="st3" width="50" height="50"/>
	<rect x="151.7" y="101.5" class="st3" width="50" height="50"/>
	<rect x="351.7" y="101.5" class="st3" width="50" height="50"/>
	<rect x="401.7" y="101.5" class="st3" width="50" height="50"/>
	<rect x="451.7" y="101.5" class="st3" width="50" height="50"/>
	<rect x="501.7" y="101.5" class="st3" width="50" height="50"/>
	<rect x="551.7" y="101.5" class="st3" width="50" height="50"/>
	<rect x="601.7" y="101.5" class="st3" width="50" height="50"/>
	<rect x="701.7" y="101.5" class="st3" width="50" height="50"/>
	<rect x="801.7" y="101.5" class="st3" width="50" height="50"/>
	<rect x="851.7" y="101.5" class="st3" width="50" height="50"/>
	<rect x="901.7" y="101.5" class="st3" width="50" height="50"/>
	<rect x="951.7" y="101.5" class="st3" width="50" height="50"/>
	<rect x="101.7" y="151.5" class="st3" width="50" height="50"/>
	<rect x="151.7" y="151.5" class="st3" width="50" height="50"/>
	<rect x="201.7" y="151.5" class="st3" width="50" height="50"/>
	<rect x="251.7" y="151.5" class="st3" width="50" height="50"/>
	<rect x="651.7" y="151.5" class="st3" width="50" height="50"/>
	<rect x="701.7" y="151.5" class="st3" width="50" height="50"/>
	<rect x="751.7" y="151.5" class="st3" width="50" height="50"/>
	<rect x="851.7" y="151.5" class="st3" width="50" height="50"/>
	<rect x="901.7" y="151.5" class="st3" width="50" height="50"/>
	<rect x="951.7" y="151.5" class="st3" width="50" height="50"/>
	<rect x="101.7" y="1.5" class="st3" width="300" height="50"/>
	<rect x="401.7" y="1.5" class="st3" width="600" height="50"/>
	<rect x="1.7" y="101.5" class="st3" width="100" height="50"/>
	<rect x="1.7" y="151.5" class="st3" width="100" height="50"/>
	<rect x="676.7" y="101.5" class="st2" width="75" height="50"/>
	<rect x="851.7" y="151.5" class="st2" width="75" height="50"/>
	<line class="st3" x1="101.7" y1="151.5" x2="1001.7" y2="151.5"/>
	<line class="st3" x1="101.7" y1="201.5" x2="1001.7" y2="201.5"/>
	<line class="st3" x1="1.7" y1="101.5" x2="1001.7" y2="101.5"/>
	<line class="st4" x1="101.7" y1="1.5" x2="1001.7" y2="1.5"/>
	<rect x="751.7" y="101.5" class="st3" width="50" height="50"/>
	<rect x="801.7" y="151.5" class="st3" width="50" height="50"/>
</g>
</svg>
