<?xml version="1.0" encoding="utf-8"?>
<!-- Generator: Adobe Illustrator 22.0.1, SVG Export Plug-In . SVG Version: 6.00 Build 0)  -->
<svg version="1.1" xmlns="http://www.w3.org/2000/svg" xmlns:xlink="http://www.w3.org/1999/xlink" x="0px" y="0px"
	 viewBox="0 0 1063.5 540.3" style="enable-background:new 0 0 1063.5 540.3;" xml:space="preserve">
<style type="text/css">
	.st0{display:none;}
	.st1{fill:url(#SVGID_1_);}
	.st2{fill:#8DC63F;}
	.st3{fill:#A97C50;stroke:#58595B;stroke-linecap:round;stroke-linejoin:round;stroke-miterlimit:10;}
	.st4{opacity:0.25;fill:#FFFFFF;}
	.st5{fill:none;stroke:#58595B;stroke-linecap:round;stroke-linejoin:round;}
	.st6{fill:none;stroke:#58595B;stroke-linecap:round;stroke-linejoin:round;stroke-dasharray:7.9743,7.9743;}
	.st7{fill:none;stroke:#58595B;stroke-linecap:round;stroke-linejoin:round;stroke-dasharray:7.5654,7.5654;}
	.st8{fill:none;stroke:#58595B;stroke-linecap:round;stroke-linejoin:round;stroke-dasharray:8.0261,8.0261;}
	.st9{fill:none;stroke:#58595B;stroke-linecap:round;stroke-linejoin:round;stroke-dasharray:7.95,7.95;}
	.st10{fill:none;stroke:#58595B;stroke-linecap:round;stroke-linejoin:round;stroke-dasharray:8.0578,8.0578;}
	.st11{fill:none;stroke:#58595B;stroke-linecap:round;stroke-linejoin:round;stroke-dasharray:8.1314,8.1314;}
	.st12{fill:none;stroke:#58595B;stroke-linecap:round;stroke-linejoin:round;stroke-dasharray:7.9216,7.9216;}
	.st13{fill:none;stroke:#000000;stroke-linecap:round;stroke-linejoin:round;stroke-miterlimit:10;}
	.st14{fill:#FFF200;stroke:#58595B;stroke-linecap:round;stroke-linejoin:round;stroke-miterlimit:10;}
	.st15{fill:#FBB040;stroke:#58595B;stroke-linecap:round;stroke-linejoin:round;stroke-miterlimit:10;}
	.st16{fill:#39B54A;stroke:#58595B;stroke-linecap:round;stroke-linejoin:round;stroke-miterlimit:10;}
	.st17{display:inline;}
	.st18{fill:none;stroke:#000000;stroke-linecap:round;stroke-linejoin:round;}
	.st19{fill:none;stroke:#000000;stroke-linecap:round;stroke-linejoin:round;stroke-dasharray:8.0664,8.0664;}
	.st20{fill:none;stroke:#000000;stroke-linecap:round;stroke-linejoin:round;stroke-dasharray:7.3759,7.3759;}
	.st21{fill:none;stroke:#000000;stroke-linecap:round;stroke-linejoin:round;stroke-dasharray:7.7857,7.7857;}
	.st22{fill:none;stroke:#000000;stroke-linecap:round;stroke-linejoin:round;stroke-dasharray:8.2237,8.2237;}
	.st23{fill:none;stroke:#000000;stroke-linecap:round;stroke-linejoin:round;stroke-dasharray:7.8878,7.8878;}
	.st24{fill:none;stroke:#000000;stroke-linecap:round;stroke-linejoin:round;stroke-dasharray:8.4628,8.4628;}
	.st25{fill:none;stroke:#000000;stroke-linecap:round;stroke-linejoin:round;stroke-dasharray:8.4552,8.4552;}
	.st26{fill:none;stroke:#000000;stroke-linecap:round;stroke-linejoin:round;stroke-dasharray:7.5722,7.5722;}
	.st27{fill:none;stroke:#000000;stroke-linecap:round;stroke-linejoin:round;stroke-dasharray:8.0057,8.0057;}
	.st28{fill:none;stroke:#000000;stroke-linecap:round;stroke-linejoin:round;stroke-dasharray:7.541,7.541;}
	.st29{fill:none;stroke:#000000;stroke-linecap:round;stroke-linejoin:round;stroke-dasharray:8.4105,8.4105;}
	.st30{fill:none;stroke:#009444;stroke-width:1.2;stroke-miterlimit:10;}
	.st31{fill:none;stroke:#58595B;stroke-linecap:round;stroke-linejoin:round;stroke-miterlimit:10;stroke-dasharray:8;}
	.st32{fill:none;stroke:#58595B;stroke-linecap:round;stroke-linejoin:round;stroke-miterlimit:10;}
</style>
<g id="Layer_1" class="st0">
</g>
<g id="Earth">
	<linearGradient id="SVGID_1_" gradientUnits="userSpaceOnUse" x1="531.467" y1="209.6094" x2="531.467" y2="0">
		<stop  offset="0" style="stop-color:#FFFFFF"/>
		<stop  offset="1" style="stop-color:#00AEEF;stop-opacity:0.6"/>
	</linearGradient>
	<path class="st1" d="M528.1,180.1c199.3-0.1,378.8,12.2,534,29.5V0H0.8v209.6C154.3,192.4,331.5,180.2,528.1,180.1z"/>
	<path class="st2" d="M0.8,540.3h1061.3V205.6c-155.1-14.9-334.6-25.5-534-25.4c-196.6,0.1-373.8,10.6-527.3,25.4L0.8,540.3z"/>
</g>
<g id="Cultivable_Zone">
	<polygon class="st3" points="152.1,283.6 370.8,201.6 812.1,258.3 734.8,329.6 910.1,356.9 841.5,459.6 455.5,385.6 578.1,305.6 
		402.8,277.6 326.8,314.9 	"/>
</g>
<g id="Layer_3">
	<g>
		<polygon class="st4" points="577,204.6 453.5,267.6 848,325.6 917.5,245.1 		"/>
		<g>
			<polyline class="st5" points="457,265.8 453.5,267.6 457.4,268.2 			"/>
			<line class="st6" x1="465.3" y1="269.4" x2="840.1" y2="324.4"/>
			<polyline class="st5" points="844,325 848,325.6 850.6,322.6 			"/>
			<line class="st7" x1="855.5" y1="316.9" x2="912.4" y2="251"/>
			<polyline class="st5" points="914.9,248.1 917.5,245.1 913.5,244.6 			"/>
			<polyline class="st8" points="905.5,243.7 577,204.6 460.6,264 			"/>
		</g>
	</g>
	<g>
		<polygon class="st4" points="145.5,187.1 367.5,123.6 517.5,138.6 323.5,211.1 		"/>
		<g>
			<polyline class="st5" points="149.4,187.6 145.5,187.1 149.3,186 			"/>
			<polyline class="st9" points="157,183.8 367.5,123.6 509.5,137.8 			"/>
			<polyline class="st5" points="513.5,138.2 517.5,138.6 513.7,140 			"/>
			<polyline class="st10" points="506.2,142.8 323.5,211.1 153.4,188.2 			"/>
		</g>
	</g>
	<g>
		<polygon class="st4" points="817,167.1 737.5,223.6 398.5,182.9 517.5,138.6 		"/>
		<g>
			<polyline class="st5" points="813,166.7 817,167.1 813.7,169.4 			"/>
			<polyline class="st11" points="807.1,174.1 737.5,223.6 406.5,183.9 			"/>
			<polyline class="st5" points="402.5,183.4 398.5,182.9 402.2,181.5 			"/>
			<polyline class="st12" points="409.7,178.8 517.5,138.6 809.1,166.4 			"/>
		</g>
	</g>
	<path class="st13" d="M552,205.1"/>
	<path class="st13" d="M326.8,314.9"/>
	<polygon class="st14" points="139.5,87.1 364.1,43.6 440.1,48.3 225.5,95.3 	"/>
	<polygon class="st15" points="318.8,103.3 225.5,95.3 440.1,48.3 519.5,53.6 	"/>
	<polygon class="st16" points="742.5,112.3 395.8,84.3 519.5,53.6 822.1,73.6 	"/>
	<polygon class="st16" points="857.5,183.1 894.8,151.9 522.5,118.6 453.1,142.3 	"/>
	<polygon class="st14" points="925.2,126.4 578.7,98.9 522.5,118.6 894.8,151.9 	"/>
</g>
<g id="Layer_6" class="st0">
	<g class="st17">
		<g>
			<line class="st18" x1="145.5" y1="250.4" x2="145.8" y2="254.3"/>
			<line class="st19" x1="146.3" y1="262.4" x2="151.6" y2="338.8"/>
			<line class="st18" x1="151.9" y1="342.9" x2="152.1" y2="346.9"/>
		</g>
	</g>
	<g class="st17">
		<g>
			<line class="st18" x1="323.5" y1="274.4" x2="323.6" y2="278.4"/>
			<line class="st20" x1="323.8" y1="285.7" x2="326.6" y2="370.5"/>
			<line class="st18" x1="326.7" y1="374.2" x2="326.8" y2="378.2"/>
		</g>
	</g>
	<g class="st17">
		<g>
			<line class="st18" x1="367.5" y1="186.9" x2="367.7" y2="190.8"/>
			<line class="st21" x1="368" y1="198.6" x2="370.5" y2="257"/>
			<line class="st18" x1="370.6" y1="260.9" x2="370.8" y2="264.9"/>
		</g>
	</g>
	<g class="st17">
		<g>
			<line class="st18" x1="517.5" y1="201.9" x2="517.6" y2="205.9"/>
			<line class="st22" x1="517.7" y1="214.1" x2="518.8" y2="275.7"/>
			<line class="st18" x1="518.9" y1="279.9" x2="519" y2="283.9"/>
		</g>
	</g>
	<g class="st17">
		<g>
			<line class="st18" x1="398.5" y1="246.2" x2="398.7" y2="250.2"/>
			<line class="st23" x1="399" y1="258.1" x2="402.5" y2="332.9"/>
			<line class="st18" x1="402.6" y1="336.9" x2="402.8" y2="340.9"/>
		</g>
	</g>
	<g class="st17">
		<g>
			<line class="st18" x1="453.5" y1="330.9" x2="453.5" y2="334.9"/>
			<line class="st24" x1="453.7" y1="343.3" x2="455.3" y2="440.6"/>
			<line class="st18" x1="455.4" y1="444.9" x2="455.5" y2="448.9"/>
		</g>
	</g>
	<g class="st17">
		<g>
			<line class="st18" x1="577" y1="267.9" x2="577" y2="271.9"/>
			<line class="st25" x1="577.1" y1="280.3" x2="578.1" y2="360.6"/>
			<line class="st18" x1="578.1" y1="364.9" x2="578.1" y2="368.9"/>
		</g>
	</g>
	<g class="st17">
		<g>
			<line class="st18" x1="817" y1="230.4" x2="816.8" y2="234.3"/>
			<line class="st26" x1="816.4" y1="241.9" x2="812.6" y2="313.7"/>
			<line class="st18" x1="812.4" y1="317.5" x2="812.1" y2="321.5"/>
		</g>
	</g>
	<g class="st17">
		<g>
			<line class="st18" x1="917.5" y1="308.4" x2="917.2" y2="312.3"/>
			<line class="st27" x1="916.7" y1="320.3" x2="910.7" y2="412.2"/>
			<line class="st18" x1="910.4" y1="416.2" x2="910.1" y2="420.2"/>
		</g>
	</g>
	<g class="st17">
		<g>
			<line class="st18" x1="737.5" y1="286.9" x2="737.4" y2="290.9"/>
			<line class="st28" x1="737.2" y1="298.4" x2="735" y2="385.1"/>
			<line class="st18" x1="734.9" y1="388.9" x2="734.8" y2="392.9"/>
		</g>
	</g>
	<g class="st17">
		<g>
			<line class="st18" x1="848" y1="388.9" x2="847.8" y2="392.8"/>
			<line class="st29" x1="847.4" y1="401.2" x2="841.9" y2="514.7"/>
			<line class="st18" x1="841.7" y1="518.9" x2="841.5" y2="522.9"/>
		</g>
	</g>
</g>
<g id="Layer_4">
	<polygon class="st13" points="138.5,87.1 365,43.6 439,48.6 225.5,95.1 	"/>
	<polygon class="st13" points="516.5,54.1 439,48.6 225.5,95.1 319.5,103.1 	"/>
	<polygon class="st13" points="821,73.6 742,112.1 394.5,84.6 516.5,54.1 	"/>
	<polygon class="st13" points="520.8,118.9 894.5,152.1 925.5,126.1 576.8,99.6 	"/>
	<polygon class="st13" points="451.8,142.3 520.8,118.9 894.5,152.1 856.1,183.3 	"/>
</g>
<g id="Texte">
	<g>
		<g>
			<path d="M604,362.6v1.7c0,0.5-0.1,1-0.4,1.4L591,383.5h12.8v3.7H585v-1.8c0-0.2,0-0.4,0.1-0.7c0.1-0.2,0.2-0.4,0.3-0.6l12.6-17.9
				h-12.3v-3.6H604z"/>
			<path d="M614.1,369.4c1.3,0,2.5,0.2,3.5,0.6s2,1,2.7,1.8s1.3,1.7,1.7,2.8c0.4,1.1,0.6,2.4,0.6,3.7c0,1.4-0.2,2.6-0.6,3.7
				c-0.4,1.1-1,2.1-1.7,2.8s-1.7,1.4-2.7,1.8s-2.2,0.6-3.5,0.6c-1.3,0-2.5-0.2-3.6-0.6c-1.1-0.4-2-1-2.7-1.8
				c-0.8-0.8-1.3-1.7-1.8-2.8c-0.4-1.1-0.6-2.4-0.6-3.7c0-1.4,0.2-2.6,0.6-3.7c0.4-1.1,1-2.1,1.8-2.8c0.8-0.8,1.7-1.4,2.7-1.8
				C611.7,369.6,612.8,369.4,614.1,369.4z M614.1,384.2c1.5,0,2.5-0.5,3.2-1.5c0.7-1,1-2.4,1-4.3c0-1.9-0.3-3.3-1-4.3
				c-0.7-1-1.8-1.5-3.2-1.5c-1.5,0-2.6,0.5-3.3,1.5c-0.7,1-1.1,2.4-1.1,4.3s0.4,3.3,1.1,4.3C611.6,383.7,612.7,384.2,614.1,384.2z"
				/>
			<path d="M626,387.1v-17.4h2.6c0.5,0,0.9,0.3,1.1,0.8l0.3,1.4c0.4-0.4,0.7-0.7,1.1-1c0.4-0.3,0.8-0.5,1.2-0.8
				c0.4-0.2,0.9-0.4,1.4-0.5c0.5-0.1,1-0.2,1.6-0.2c1,0,1.8,0.2,2.5,0.5c0.7,0.3,1.4,0.8,1.8,1.4c0.5,0.6,0.9,1.3,1.1,2.1
				s0.4,1.7,0.4,2.7v11.1H637V376c0-1.1-0.2-1.9-0.7-2.5s-1.2-0.9-2.2-0.9c-0.7,0-1.4,0.2-2,0.5c-0.6,0.3-1.2,0.8-1.8,1.3v12.6H626z
				"/>
			<path d="M652.6,369.4c1.1,0,2.1,0.2,3,0.5c0.9,0.4,1.7,0.9,2.4,1.5c0.7,0.7,1.2,1.5,1.6,2.5c0.4,1,0.6,2.1,0.6,3.4
				c0,0.3,0,0.6,0,0.8s-0.1,0.4-0.2,0.5c-0.1,0.1-0.2,0.2-0.3,0.3c-0.1,0.1-0.3,0.1-0.5,0.1h-10.8c0.1,1.8,0.6,3.1,1.4,3.9
				s1.9,1.3,3.3,1.3c0.7,0,1.3-0.1,1.8-0.2c0.5-0.2,0.9-0.3,1.3-0.5c0.4-0.2,0.7-0.4,1-0.5c0.3-0.2,0.5-0.2,0.8-0.2
				c0.2,0,0.3,0,0.4,0.1c0.1,0.1,0.2,0.2,0.3,0.3l1.2,1.5c-0.5,0.5-1,1-1.6,1.4s-1.2,0.7-1.8,0.9s-1.3,0.4-1.9,0.5
				c-0.7,0.1-1.3,0.1-1.9,0.1c-1.2,0-2.3-0.2-3.4-0.6c-1-0.4-1.9-1-2.7-1.8c-0.8-0.8-1.4-1.8-1.8-2.9c-0.4-1.2-0.7-2.5-0.7-4
				c0-1.2,0.2-2.3,0.6-3.4c0.4-1,0.9-2,1.7-2.7s1.6-1.4,2.6-1.8S651.3,369.4,652.6,369.4z M652.6,372.4c-1.2,0-2.2,0.3-2.9,1
				s-1.1,1.7-1.3,2.9h7.9c0-0.5-0.1-1.1-0.2-1.5c-0.1-0.5-0.4-0.9-0.7-1.3c-0.3-0.4-0.7-0.6-1.2-0.9
				C653.8,372.5,653.3,372.4,652.6,372.4z"/>
			<path d="M673.9,373.1c-0.1,0.2-0.2,0.3-0.4,0.4c-0.1,0.1-0.3,0.1-0.5,0.1c-0.2,0-0.4-0.1-0.7-0.2s-0.5-0.2-0.8-0.4
				s-0.7-0.3-1-0.4c-0.4-0.1-0.9-0.2-1.4-0.2c-0.8,0-1.5,0.2-2,0.5c-0.5,0.4-0.7,0.8-0.7,1.4c0,0.4,0.1,0.7,0.4,0.9
				c0.2,0.3,0.6,0.5,1,0.7s0.9,0.4,1.4,0.5c0.5,0.2,1,0.3,1.6,0.5c0.5,0.2,1.1,0.4,1.6,0.6c0.5,0.2,1,0.5,1.4,0.9
				c0.4,0.4,0.7,0.8,1,1.3c0.2,0.5,0.4,1.1,0.4,1.8c0,0.8-0.2,1.6-0.5,2.3c-0.3,0.7-0.8,1.3-1.3,1.8s-1.3,0.9-2.2,1.2
				s-1.9,0.4-3,0.4c-0.6,0-1.2-0.1-1.8-0.2s-1.1-0.3-1.6-0.5c-0.5-0.2-1-0.4-1.5-0.7c-0.4-0.3-0.8-0.5-1.2-0.9l1-1.6
				c0.1-0.2,0.3-0.3,0.4-0.4c0.2-0.1,0.4-0.2,0.6-0.2s0.5,0.1,0.7,0.2c0.2,0.1,0.5,0.3,0.8,0.5c0.3,0.2,0.7,0.3,1.1,0.5
				c0.4,0.1,0.9,0.2,1.6,0.2c0.5,0,0.9-0.1,1.3-0.2c0.4-0.1,0.7-0.3,0.9-0.5c0.2-0.2,0.4-0.4,0.5-0.7c0.1-0.3,0.2-0.5,0.2-0.8
				c0-0.4-0.1-0.7-0.4-1c-0.2-0.3-0.6-0.5-1-0.7c-0.4-0.2-0.9-0.4-1.4-0.5c-0.5-0.2-1-0.3-1.6-0.5c-0.5-0.2-1.1-0.4-1.6-0.6
				c-0.5-0.2-1-0.6-1.4-0.9c-0.4-0.4-0.7-0.8-1-1.4c-0.2-0.5-0.4-1.2-0.4-2c0-0.7,0.1-1.4,0.4-2c0.3-0.6,0.7-1.2,1.2-1.7
				c0.5-0.5,1.2-0.9,2.1-1.2s1.8-0.4,2.8-0.4c1.2,0,2.3,0.2,3.3,0.6c1,0.4,1.8,0.9,2.5,1.6L673.9,373.1z"/>
			<path d="M697.2,373.4c-0.1,0.2-0.2,0.3-0.4,0.4s-0.3,0.1-0.5,0.1c-0.2,0-0.4-0.1-0.6-0.2c-0.2-0.1-0.4-0.3-0.7-0.4
				c-0.3-0.2-0.6-0.3-1-0.4c-0.4-0.1-0.9-0.2-1.5-0.2c-0.7,0-1.4,0.1-1.9,0.4c-0.6,0.3-1,0.6-1.4,1.1c-0.4,0.5-0.6,1.1-0.8,1.8
				c-0.2,0.7-0.3,1.5-0.3,2.4c0,0.9,0.1,1.8,0.3,2.5c0.2,0.7,0.5,1.3,0.9,1.8c0.4,0.5,0.8,0.9,1.4,1.1c0.5,0.3,1.1,0.4,1.8,0.4
				s1.2-0.1,1.6-0.2s0.8-0.3,1-0.5c0.3-0.2,0.5-0.4,0.7-0.5s0.4-0.2,0.7-0.2c0.3,0,0.6,0.1,0.8,0.4l1.2,1.5c-0.5,0.5-1,1-1.5,1.4
				c-0.5,0.4-1.1,0.7-1.7,0.9s-1.2,0.4-1.8,0.5s-1.2,0.1-1.9,0.1c-1.1,0-2.1-0.2-3-0.6c-1-0.4-1.8-1-2.5-1.8
				c-0.7-0.8-1.3-1.7-1.7-2.8c-0.4-1.1-0.6-2.4-0.6-3.8c0-1.3,0.2-2.5,0.6-3.6s0.9-2,1.6-2.8c0.7-0.8,1.6-1.4,2.7-1.9
				s2.3-0.7,3.6-0.7c1.3,0,2.4,0.2,3.4,0.6c1,0.4,1.9,1,2.6,1.8L697.2,373.4z"/>
			<path d="M705,369.7v11.1c0,1.1,0.2,1.9,0.7,2.5c0.5,0.6,1.2,0.9,2.2,0.9c0.7,0,1.4-0.2,2-0.5c0.6-0.3,1.2-0.8,1.8-1.3v-12.6h4.2
				v17.4h-2.6c-0.5,0-0.9-0.3-1.1-0.8l-0.3-1.4c-0.4,0.4-0.7,0.7-1.1,1c-0.4,0.3-0.8,0.6-1.2,0.8c-0.4,0.2-0.9,0.4-1.4,0.5
				c-0.5,0.1-1,0.2-1.6,0.2c-1,0-1.8-0.2-2.5-0.5c-0.7-0.3-1.3-0.8-1.8-1.4c-0.5-0.6-0.9-1.3-1.1-2.1c-0.3-0.8-0.4-1.7-0.4-2.7
				v-11.1H705z"/>
			<path d="M725,361.9v25.3h-4.2v-25.3H725z"/>
			<path d="M735.4,387.4c-1.5,0-2.7-0.4-3.5-1.3c-0.8-0.9-1.2-2-1.2-3.5v-9.7H729c-0.2,0-0.4-0.1-0.6-0.2s-0.2-0.4-0.2-0.7v-1.7
				l2.8-0.5l0.9-4.8c0-0.2,0.2-0.4,0.3-0.5c0.2-0.1,0.4-0.2,0.6-0.2h2.2v5.5h4.6v3h-4.6v9.5c0,0.5,0.1,1,0.4,1.3
				c0.3,0.3,0.6,0.5,1.1,0.5c0.3,0,0.5,0,0.7-0.1s0.3-0.1,0.5-0.2c0.1-0.1,0.2-0.1,0.3-0.2c0.1-0.1,0.2-0.1,0.3-0.1
				c0.1,0,0.2,0,0.3,0.1c0.1,0.1,0.2,0.2,0.3,0.3l1.3,2c-0.6,0.5-1.3,0.9-2.1,1.2C737.1,387.3,736.3,387.4,735.4,387.4z"/>
			<path d="M748,364.6c0,0.4-0.1,0.7-0.2,1s-0.3,0.6-0.6,0.8c-0.2,0.2-0.5,0.4-0.9,0.6c-0.3,0.1-0.7,0.2-1.1,0.2
				c-0.4,0-0.7-0.1-1-0.2s-0.6-0.3-0.8-0.6s-0.4-0.5-0.6-0.8s-0.2-0.7-0.2-1c0-0.4,0.1-0.7,0.2-1.1c0.1-0.3,0.3-0.6,0.6-0.8
				c0.2-0.2,0.5-0.4,0.8-0.6s0.7-0.2,1-0.2c0.4,0,0.7,0.1,1.1,0.2c0.3,0.1,0.6,0.3,0.9,0.6c0.2,0.2,0.4,0.5,0.6,0.8
				C747.9,363.9,748,364.2,748,364.6z M747.3,369.7v17.4h-4.2v-17.4H747.3z"/>
			<path d="M760.8,387.1H757l-6.9-17.4h3.5c0.3,0,0.6,0.1,0.8,0.2c0.2,0.1,0.4,0.3,0.4,0.6l3.4,9.3c0.2,0.5,0.4,1.1,0.5,1.6
				c0.1,0.5,0.2,1,0.3,1.6c0.1-0.5,0.2-1,0.3-1.6c0.1-0.5,0.3-1.1,0.5-1.6l3.5-9.3c0.1-0.2,0.2-0.4,0.4-0.6c0.2-0.1,0.4-0.2,0.7-0.2
				h3.3L760.8,387.1z"/>
			<path d="M783.9,387.1H782c-0.4,0-0.7-0.1-0.9-0.2s-0.4-0.4-0.5-0.7l-0.4-1.2c-0.4,0.4-0.9,0.7-1.3,1c-0.4,0.3-0.9,0.6-1.3,0.8
				s-0.9,0.4-1.4,0.5c-0.5,0.1-1.1,0.2-1.7,0.2c-0.7,0-1.4-0.1-2-0.3c-0.6-0.2-1.2-0.5-1.6-0.9c-0.4-0.4-0.8-0.9-1-1.5
				c-0.2-0.6-0.4-1.3-0.4-2.1c0-0.7,0.2-1.3,0.5-2s0.9-1.2,1.7-1.7s1.9-0.9,3.2-1.3c1.3-0.3,3-0.5,5-0.5v-1c0-1.2-0.2-2-0.7-2.6
				c-0.5-0.6-1.2-0.8-2.2-0.8c-0.7,0-1.2,0.1-1.7,0.2c-0.5,0.2-0.8,0.3-1.2,0.5c-0.3,0.2-0.6,0.4-0.9,0.5c-0.3,0.2-0.6,0.2-0.9,0.2
				c-0.3,0-0.5-0.1-0.7-0.2s-0.4-0.3-0.5-0.5l-0.8-1.3c2-1.8,4.4-2.8,7.3-2.8c1,0,1.9,0.2,2.7,0.5c0.8,0.3,1.5,0.8,2,1.4
				c0.6,0.6,1,1.3,1.3,2.1c0.3,0.8,0.4,1.7,0.4,2.7V387.1z M775.7,384.5c0.4,0,0.8,0,1.2-0.1c0.4-0.1,0.7-0.2,1-0.4s0.6-0.3,0.9-0.6
				c0.3-0.2,0.6-0.5,0.9-0.8v-2.9c-1.2,0-2.2,0.1-3.1,0.2c-0.8,0.2-1.5,0.4-2,0.6c-0.5,0.2-0.9,0.5-1.1,0.8c-0.2,0.3-0.3,0.7-0.3,1
				c0,0.7,0.2,1.3,0.7,1.6C774.5,384.4,775,384.5,775.7,384.5z"/>
			<path d="M788.1,387.1v-25.3h4.2v10c0.7-0.7,1.5-1.3,2.3-1.8s1.9-0.7,3.1-0.7c1,0,1.8,0.2,2.6,0.6c0.8,0.4,1.5,1,2,1.7
				s1,1.7,1.3,2.8c0.3,1.1,0.5,2.4,0.5,3.8c0,1.3-0.2,2.5-0.5,3.6c-0.4,1.1-0.9,2.1-1.5,2.9c-0.7,0.8-1.4,1.5-2.4,1.9
				s-2,0.7-3.1,0.7c-0.5,0-1-0.1-1.5-0.2c-0.4-0.1-0.8-0.3-1.2-0.5c-0.4-0.2-0.7-0.4-1-0.7c-0.3-0.3-0.6-0.6-0.9-0.9l-0.2,1.2
				c-0.1,0.3-0.2,0.5-0.3,0.6c-0.2,0.1-0.4,0.2-0.7,0.2H788.1z M796.2,372.7c-0.9,0-1.6,0.2-2.2,0.6c-0.6,0.4-1.2,0.9-1.7,1.6v7.8
				c0.5,0.6,1,1,1.6,1.2c0.6,0.2,1.2,0.3,1.8,0.3c0.6,0,1.2-0.1,1.7-0.4s0.9-0.6,1.3-1.1s0.6-1.1,0.8-1.8s0.3-1.6,0.3-2.6
				c0-1-0.1-1.9-0.2-2.6c-0.2-0.7-0.4-1.3-0.7-1.7c-0.3-0.4-0.7-0.8-1.1-1C797.3,372.8,796.8,372.7,796.2,372.7z"/>
			<path d="M811.9,361.9v25.3h-4.2v-25.3H811.9z"/>
			<path d="M823.8,369.4c1.1,0,2.1,0.2,3,0.5c0.9,0.4,1.7,0.9,2.4,1.5c0.7,0.7,1.2,1.5,1.6,2.5c0.4,1,0.6,2.1,0.6,3.4
				c0,0.3,0,0.6,0,0.8s-0.1,0.4-0.2,0.5c-0.1,0.1-0.2,0.2-0.3,0.3s-0.3,0.1-0.5,0.1h-10.8c0.1,1.8,0.6,3.1,1.4,3.9
				c0.8,0.8,1.9,1.3,3.3,1.3c0.7,0,1.3-0.1,1.8-0.2c0.5-0.2,0.9-0.3,1.3-0.5s0.7-0.4,1-0.5c0.3-0.2,0.5-0.2,0.8-0.2
				c0.2,0,0.3,0,0.4,0.1s0.2,0.2,0.3,0.3l1.2,1.5c-0.5,0.5-1,1-1.6,1.4s-1.2,0.7-1.8,0.9s-1.3,0.4-1.9,0.5c-0.7,0.1-1.3,0.1-1.9,0.1
				c-1.2,0-2.3-0.2-3.4-0.6c-1-0.4-2-1-2.7-1.8c-0.8-0.8-1.4-1.8-1.8-2.9c-0.4-1.2-0.7-2.5-0.7-4c0-1.2,0.2-2.3,0.6-3.4
				c0.4-1,0.9-2,1.7-2.7s1.6-1.4,2.6-1.8S822.5,369.4,823.8,369.4z M823.9,372.4c-1.2,0-2.2,0.3-2.9,1s-1.1,1.7-1.3,2.9h7.9
				c0-0.5-0.1-1.1-0.2-1.5c-0.1-0.5-0.4-0.9-0.7-1.3c-0.3-0.4-0.7-0.6-1.2-0.9C825.1,372.5,824.5,372.4,823.9,372.4z"/>
			<path d="M845.1,373.1c-0.1,0.2-0.2,0.3-0.4,0.4c-0.1,0.1-0.3,0.1-0.5,0.1c-0.2,0-0.4-0.1-0.7-0.2s-0.5-0.2-0.8-0.4
				c-0.3-0.1-0.7-0.3-1-0.4c-0.4-0.1-0.9-0.2-1.4-0.2c-0.8,0-1.5,0.2-2,0.5s-0.7,0.8-0.7,1.4c0,0.4,0.1,0.7,0.4,0.9s0.6,0.5,1,0.7
				s0.9,0.4,1.4,0.5c0.5,0.2,1,0.3,1.6,0.5c0.5,0.2,1.1,0.4,1.6,0.6s1,0.5,1.4,0.9c0.4,0.4,0.7,0.8,1,1.3c0.2,0.5,0.4,1.1,0.4,1.8
				c0,0.8-0.2,1.6-0.5,2.3c-0.3,0.7-0.8,1.3-1.3,1.8c-0.6,0.5-1.3,0.9-2.2,1.2c-0.9,0.3-1.9,0.4-3,0.4c-0.6,0-1.2-0.1-1.8-0.2
				c-0.6-0.1-1.1-0.3-1.6-0.5s-1-0.4-1.5-0.7c-0.4-0.3-0.8-0.5-1.2-0.9l1-1.6c0.1-0.2,0.3-0.3,0.4-0.4c0.2-0.1,0.4-0.2,0.6-0.2
				c0.3,0,0.5,0.1,0.7,0.2c0.2,0.1,0.5,0.3,0.8,0.5c0.3,0.2,0.7,0.3,1.1,0.5s0.9,0.2,1.6,0.2c0.5,0,0.9-0.1,1.3-0.2
				c0.4-0.1,0.7-0.3,0.9-0.5c0.2-0.2,0.4-0.4,0.5-0.7s0.2-0.5,0.2-0.8c0-0.4-0.1-0.7-0.4-1s-0.6-0.5-1-0.7s-0.9-0.4-1.4-0.5
				s-1-0.3-1.6-0.5c-0.5-0.2-1.1-0.4-1.6-0.6c-0.5-0.2-1-0.6-1.4-0.9s-0.7-0.8-1-1.4c-0.2-0.5-0.4-1.2-0.4-2c0-0.7,0.1-1.4,0.4-2
				c0.3-0.6,0.7-1.2,1.2-1.7c0.5-0.5,1.2-0.9,2.1-1.2c0.8-0.3,1.8-0.4,2.8-0.4c1.2,0,2.3,0.2,3.3,0.6c1,0.4,1.8,0.9,2.5,1.6
				L845.1,373.1z"/>
		</g>
	</g>
	<line class="st30" x1="642.7" y1="129.9" x2="790" y2="142.6"/>
	<g>
		<g>
			<path d="M630.2,138.8v8.7h-4.6v-24.6h8c1.6,0,3.1,0.2,4.3,0.6c1.2,0.4,2.2,0.9,3,1.6c0.8,0.7,1.4,1.5,1.7,2.5
				c0.4,1,0.6,2,0.6,3.2c0,1.2-0.2,2.3-0.6,3.3c-0.4,1-1,1.8-1.8,2.6c-0.8,0.7-1.8,1.3-3,1.7s-2.6,0.6-4.2,0.6H630.2z M630.2,135.3
				h3.4c0.8,0,1.6-0.1,2.2-0.3c0.6-0.2,1.1-0.5,1.5-0.9c0.4-0.4,0.7-0.9,0.9-1.4c0.2-0.6,0.3-1.2,0.3-1.9c0-0.7-0.1-1.3-0.3-1.8
				c-0.2-0.5-0.5-1-0.9-1.4c-0.4-0.4-0.9-0.7-1.5-0.9s-1.4-0.3-2.2-0.3h-3.4V135.3z"/>
			<path d="M646.5,147.5V130h2.5c0.4,0,0.7,0.1,0.9,0.2c0.2,0.2,0.3,0.4,0.3,0.8l0.3,2.1c0.6-1.1,1.4-1.9,2.2-2.5s1.8-0.9,2.8-0.9
				c0.9,0,1.6,0.2,2.1,0.6l-0.5,3.1c0,0.2-0.1,0.3-0.2,0.4c-0.1,0.1-0.3,0.1-0.5,0.1c-0.2,0-0.4,0-0.7-0.1c-0.3-0.1-0.7-0.1-1.2-0.1
				c-0.9,0-1.6,0.2-2.2,0.7c-0.6,0.5-1.2,1.2-1.6,2.1v10.9H646.5z"/>
			<path d="M667.9,129.8c1.3,0,2.5,0.2,3.5,0.6s2,1,2.7,1.8s1.3,1.7,1.7,2.8c0.4,1.1,0.6,2.4,0.6,3.7c0,1.4-0.2,2.6-0.6,3.7
				c-0.4,1.1-1,2.1-1.7,2.8s-1.7,1.4-2.7,1.8s-2.2,0.6-3.5,0.6c-1.3,0-2.5-0.2-3.6-0.6c-1.1-0.4-2-1-2.7-1.8
				c-0.8-0.8-1.3-1.7-1.8-2.8c-0.4-1.1-0.6-2.4-0.6-3.7c0-1.4,0.2-2.6,0.6-3.7c0.4-1.1,1-2.1,1.8-2.8c0.8-0.8,1.7-1.4,2.7-1.8
				C665.4,130,666.6,129.8,667.9,129.8z M667.9,144.5c1.5,0,2.5-0.5,3.2-1.5c0.7-1,1-2.4,1-4.3c0-1.9-0.3-3.3-1-4.3
				c-0.7-1-1.8-1.5-3.2-1.5c-1.5,0-2.6,0.5-3.3,1.5c-0.7,1-1.1,2.4-1.1,4.3s0.4,3.3,1.1,4.3C665.3,144,666.4,144.5,667.9,144.5z"/>
			<path d="M692,147.5c-0.5,0-0.9-0.3-1.1-0.8l-0.3-1.7c-0.4,0.4-0.7,0.8-1.1,1.1s-0.8,0.6-1.3,0.8s-1,0.4-1.5,0.6
				c-0.5,0.1-1.1,0.2-1.7,0.2c-1,0-1.8-0.2-2.6-0.6c-0.8-0.4-1.5-1-2-1.7s-1-1.7-1.3-2.8c-0.3-1.1-0.5-2.4-0.5-3.8
				c0-1.3,0.2-2.5,0.5-3.6c0.4-1.1,0.9-2.1,1.5-2.9s1.4-1.5,2.4-1.9s1.9-0.7,3.1-0.7c1,0,1.8,0.2,2.5,0.5c0.7,0.3,1.3,0.7,1.9,1.2
				v-9.2h4.2v25.3H692z M686.4,144.4c0.9,0,1.6-0.2,2.2-0.5c0.6-0.4,1.2-0.9,1.7-1.5v-7.8c-0.5-0.6-1-1-1.6-1.2
				c-0.6-0.2-1.2-0.4-1.8-0.4c-0.6,0-1.2,0.1-1.7,0.4c-0.5,0.2-1,0.6-1.3,1.1c-0.4,0.5-0.6,1.1-0.8,1.8c-0.2,0.7-0.3,1.6-0.3,2.6
				c0,1,0.1,1.9,0.2,2.6c0.2,0.7,0.4,1.3,0.7,1.7c0.3,0.4,0.7,0.8,1.1,1C685.4,144.3,685.9,144.4,686.4,144.4z"/>
			<path d="M703,130v11.1c0,1.1,0.2,1.9,0.7,2.5c0.5,0.6,1.2,0.9,2.2,0.9c0.7,0,1.4-0.2,2-0.5c0.6-0.3,1.2-0.8,1.8-1.3V130h4.2v17.4
				h-2.6c-0.5,0-0.9-0.3-1.1-0.8l-0.3-1.4c-0.4,0.4-0.7,0.7-1.1,1c-0.4,0.3-0.8,0.6-1.2,0.8c-0.4,0.2-0.9,0.4-1.4,0.5
				c-0.5,0.1-1,0.2-1.6,0.2c-1,0-1.8-0.2-2.5-0.5c-0.7-0.3-1.3-0.8-1.8-1.4c-0.5-0.6-0.9-1.3-1.1-2.1c-0.3-0.8-0.4-1.7-0.4-2.7V130
				H703z"/>
			<path d="M730.7,133.7c-0.1,0.2-0.2,0.3-0.4,0.4s-0.3,0.1-0.5,0.1c-0.2,0-0.4-0.1-0.6-0.2c-0.2-0.1-0.4-0.3-0.7-0.4
				c-0.3-0.2-0.6-0.3-1-0.4c-0.4-0.1-0.9-0.2-1.5-0.2c-0.7,0-1.4,0.1-1.9,0.4c-0.6,0.3-1,0.6-1.4,1.1c-0.4,0.5-0.6,1.1-0.8,1.8
				c-0.2,0.7-0.3,1.5-0.3,2.4c0,0.9,0.1,1.8,0.3,2.5c0.2,0.7,0.5,1.3,0.9,1.8s0.8,0.9,1.4,1.1c0.5,0.3,1.1,0.4,1.8,0.4
				c0.7,0,1.2-0.1,1.6-0.2s0.8-0.3,1-0.5c0.3-0.2,0.5-0.4,0.7-0.5c0.2-0.2,0.4-0.2,0.7-0.2c0.3,0,0.6,0.1,0.8,0.4l1.2,1.5
				c-0.5,0.5-1,1-1.5,1.4s-1.1,0.7-1.7,0.9s-1.2,0.4-1.8,0.5s-1.2,0.1-1.9,0.1c-1.1,0-2.1-0.2-3-0.6s-1.8-1-2.5-1.8
				c-0.7-0.8-1.3-1.7-1.7-2.8s-0.6-2.4-0.6-3.8c0-1.3,0.2-2.5,0.6-3.6s0.9-2,1.6-2.8s1.6-1.4,2.7-1.9c1.1-0.5,2.3-0.7,3.6-0.7
				c1.3,0,2.4,0.2,3.4,0.6c1,0.4,1.9,1,2.6,1.8L730.7,133.7z"/>
			<path d="M740.4,147.7c-1.5,0-2.7-0.4-3.5-1.3c-0.8-0.9-1.2-2-1.2-3.5v-9.7h-1.8c-0.2,0-0.4-0.1-0.6-0.2s-0.2-0.4-0.2-0.7v-1.7
				l2.8-0.5l0.9-4.8c0-0.2,0.2-0.4,0.3-0.5c0.2-0.1,0.4-0.2,0.6-0.2h2.2v5.5h4.6v3h-4.6v9.5c0,0.5,0.1,1,0.4,1.3
				c0.3,0.3,0.6,0.5,1.1,0.5c0.3,0,0.5,0,0.7-0.1s0.3-0.1,0.5-0.2c0.1-0.1,0.2-0.1,0.3-0.2c0.1-0.1,0.2-0.1,0.3-0.1
				c0.1,0,0.2,0,0.3,0.1c0.1,0.1,0.2,0.2,0.3,0.3l1.3,2c-0.6,0.5-1.3,0.9-2.1,1.2C742.1,147.6,741.3,147.7,740.4,147.7z"/>
			<path d="M752.9,124.9c0,0.4-0.1,0.7-0.2,1s-0.3,0.6-0.6,0.8c-0.2,0.2-0.5,0.4-0.9,0.6c-0.3,0.1-0.7,0.2-1.1,0.2
				c-0.4,0-0.7-0.1-1-0.2s-0.6-0.3-0.8-0.6s-0.4-0.5-0.6-0.8s-0.2-0.7-0.2-1c0-0.4,0.1-0.7,0.2-1.1c0.1-0.3,0.3-0.6,0.6-0.8
				c0.2-0.2,0.5-0.4,0.8-0.6s0.7-0.2,1-0.2c0.4,0,0.7,0.1,1.1,0.2c0.3,0.1,0.6,0.3,0.9,0.6c0.2,0.2,0.4,0.5,0.6,0.8
				C752.9,124.2,752.9,124.6,752.9,124.9z M752.3,130v17.4h-4.2V130H752.3z"/>
			<path d="M764.5,129.8c1.3,0,2.5,0.2,3.5,0.6s2,1,2.7,1.8s1.3,1.7,1.7,2.8c0.4,1.1,0.6,2.4,0.6,3.7c0,1.4-0.2,2.6-0.6,3.7
				c-0.4,1.1-1,2.1-1.7,2.8s-1.7,1.4-2.7,1.8s-2.2,0.6-3.5,0.6c-1.3,0-2.5-0.2-3.6-0.6s-2-1-2.7-1.8s-1.3-1.7-1.8-2.8
				c-0.4-1.1-0.6-2.4-0.6-3.7c0-1.4,0.2-2.6,0.6-3.7c0.4-1.1,1-2.1,1.8-2.8s1.7-1.4,2.7-1.8S763.2,129.8,764.5,129.8z M764.5,144.5
				c1.5,0,2.5-0.5,3.2-1.5c0.7-1,1-2.4,1-4.3c0-1.9-0.3-3.3-1-4.3c-0.7-1-1.8-1.5-3.2-1.5c-1.5,0-2.6,0.5-3.3,1.5
				c-0.7,1-1.1,2.4-1.1,4.3s0.4,3.3,1.1,4.3C761.9,144,763,144.5,764.5,144.5z"/>
			<path d="M776.4,147.5V130h2.6c0.5,0,0.9,0.3,1.1,0.8l0.3,1.4c0.4-0.4,0.7-0.7,1.1-1c0.4-0.3,0.8-0.5,1.2-0.8
				c0.4-0.2,0.9-0.4,1.4-0.5s1-0.2,1.6-0.2c1,0,1.8,0.2,2.5,0.5s1.4,0.8,1.8,1.4c0.5,0.6,0.9,1.3,1.1,2.1s0.4,1.7,0.4,2.7v11.1h-4.2
				v-11.1c0-1.1-0.2-1.9-0.7-2.5c-0.5-0.6-1.2-0.9-2.2-0.9c-0.7,0-1.4,0.2-2,0.5c-0.6,0.3-1.2,0.8-1.8,1.3v12.6H776.4z"/>
			<path d="M806.1,133.4c-0.1,0.2-0.2,0.3-0.4,0.4c-0.1,0.1-0.3,0.1-0.5,0.1c-0.2,0-0.4-0.1-0.7-0.2s-0.5-0.2-0.8-0.4
				c-0.3-0.1-0.7-0.3-1-0.4c-0.4-0.1-0.9-0.2-1.4-0.2c-0.8,0-1.5,0.2-2,0.5s-0.7,0.8-0.7,1.4c0,0.4,0.1,0.7,0.4,0.9s0.6,0.5,1,0.7
				s0.9,0.4,1.4,0.5c0.5,0.2,1,0.3,1.6,0.5c0.5,0.2,1.1,0.4,1.6,0.6s1,0.5,1.4,0.9c0.4,0.4,0.7,0.8,1,1.3c0.2,0.5,0.4,1.1,0.4,1.8
				c0,0.8-0.2,1.6-0.5,2.3c-0.3,0.7-0.8,1.3-1.3,1.8c-0.6,0.5-1.3,0.9-2.2,1.2c-0.9,0.3-1.9,0.4-3,0.4c-0.6,0-1.2-0.1-1.8-0.2
				c-0.6-0.1-1.1-0.3-1.6-0.5s-1-0.4-1.5-0.7c-0.4-0.3-0.8-0.5-1.2-0.9l1-1.6c0.1-0.2,0.3-0.3,0.4-0.4c0.2-0.1,0.4-0.2,0.6-0.2
				c0.3,0,0.5,0.1,0.7,0.2c0.2,0.1,0.5,0.3,0.8,0.5c0.3,0.2,0.7,0.3,1.1,0.5s0.9,0.2,1.6,0.2c0.5,0,0.9-0.1,1.3-0.2
				c0.4-0.1,0.7-0.3,0.9-0.5c0.2-0.2,0.4-0.4,0.5-0.7s0.2-0.5,0.2-0.8c0-0.4-0.1-0.7-0.4-1s-0.6-0.5-1-0.7s-0.9-0.4-1.4-0.5
				s-1-0.3-1.6-0.5c-0.5-0.2-1.1-0.4-1.6-0.6c-0.5-0.2-1-0.6-1.4-0.9s-0.7-0.8-1-1.4c-0.2-0.5-0.4-1.2-0.4-2c0-0.7,0.1-1.4,0.4-2
				c0.3-0.6,0.7-1.2,1.2-1.7c0.5-0.5,1.2-0.9,2.1-1.2c0.8-0.3,1.8-0.4,2.8-0.4c1.2,0,2.3,0.2,3.3,0.6c1,0.4,1.8,0.9,2.5,1.6
				L806.1,133.4z"/>
		</g>
	</g>
	<g>
		<g>
			<path d="M537.8,485.8c0,0.6-0.2,1.1-0.6,1.5c-0.4,0.4-1,0.6-1.9,0.6h-6.8l-0.9,5.1c1.1-0.2,2.1-0.3,3-0.3c1.3,0,2.4,0.2,3.4,0.6
				c1,0.4,1.8,0.9,2.5,1.6c0.7,0.7,1.2,1.5,1.5,2.4c0.3,0.9,0.5,1.9,0.5,2.9c0,1.3-0.2,2.5-0.7,3.6c-0.5,1.1-1.1,2-1.9,2.8
				c-0.8,0.8-1.8,1.4-2.9,1.8c-1.1,0.4-2.3,0.6-3.6,0.6c-0.8,0-1.5-0.1-2.2-0.2c-0.7-0.2-1.3-0.4-1.9-0.6s-1.2-0.6-1.7-0.9
				c-0.5-0.3-1-0.7-1.4-1.1l1.3-1.8c0.3-0.4,0.6-0.6,1.1-0.6c0.3,0,0.6,0.1,0.9,0.3c0.3,0.2,0.6,0.4,1,0.6c0.4,0.2,0.8,0.4,1.3,0.6
				c0.5,0.2,1.1,0.3,1.9,0.3c0.8,0,1.5-0.1,2-0.4c0.6-0.2,1.1-0.6,1.5-1c0.4-0.4,0.7-1,0.9-1.6c0.2-0.6,0.3-1.3,0.3-2
				c0-1.3-0.4-2.4-1.2-3.1c-0.8-0.8-1.9-1.1-3.4-1.1c-1.2,0-2.4,0.2-3.6,0.6l-2.6-0.7l2-11.9h12.1V485.8z"/>
			<path d="M549.5,514.3v-23.1h2.6c0.3,0,0.5,0.1,0.7,0.2c0.2,0.1,0.3,0.3,0.4,0.6l0.3,1.6c0.7-0.8,1.5-1.5,2.4-2
				c0.9-0.5,2-0.7,3.2-0.7c1,0,1.8,0.2,2.6,0.6c0.8,0.4,1.5,1,2,1.7s1,1.7,1.3,2.8c0.3,1.1,0.5,2.4,0.5,3.8c0,1.3-0.2,2.5-0.5,3.6
				c-0.4,1.1-0.9,2.1-1.5,2.9c-0.7,0.8-1.4,1.5-2.4,1.9s-2,0.7-3.1,0.7c-1,0-1.8-0.2-2.5-0.5c-0.7-0.3-1.3-0.7-1.8-1.2v7.1H549.5z
				 M557.6,494.2c-0.9,0-1.6,0.2-2.2,0.6c-0.6,0.4-1.2,0.9-1.7,1.6v7.8c0.5,0.6,1,1,1.6,1.2c0.6,0.2,1.2,0.3,1.8,0.3
				c0.6,0,1.2-0.1,1.7-0.4c0.5-0.2,1-0.6,1.3-1.1s0.6-1.1,0.8-1.8s0.3-1.6,0.3-2.6c0-1-0.1-1.9-0.2-2.6c-0.2-0.7-0.4-1.3-0.7-1.7
				c-0.3-0.4-0.7-0.8-1.1-1C558.7,494.3,558.2,494.2,557.6,494.2z"/>
			<path d="M568.7,508.6v-17.4h2.5c0.4,0,0.7,0.1,0.9,0.2c0.2,0.2,0.3,0.4,0.3,0.8l0.3,2.1c0.6-1.1,1.4-1.9,2.2-2.5s1.8-0.9,2.8-0.9
				c0.9,0,1.6,0.2,2.1,0.6l-0.5,3.1c0,0.2-0.1,0.3-0.2,0.4c-0.1,0.1-0.3,0.1-0.5,0.1c-0.2,0-0.4,0-0.7-0.1c-0.3-0.1-0.7-0.1-1.2-0.1
				c-0.9,0-1.6,0.2-2.2,0.7c-0.6,0.5-1.2,1.2-1.6,2.1v10.9H568.7z"/>
			<path d="M590,490.9c1.3,0,2.5,0.2,3.5,0.6s2,1,2.7,1.8c0.7,0.8,1.3,1.7,1.7,2.8c0.4,1.1,0.6,2.4,0.6,3.7c0,1.4-0.2,2.6-0.6,3.7
				c-0.4,1.1-1,2.1-1.7,2.8c-0.7,0.8-1.7,1.4-2.7,1.8s-2.2,0.6-3.5,0.6c-1.3,0-2.5-0.2-3.6-0.6s-2-1-2.7-1.8s-1.3-1.7-1.8-2.8
				c-0.4-1.1-0.6-2.4-0.6-3.7c0-1.4,0.2-2.6,0.6-3.7c0.4-1.1,1-2.1,1.8-2.8s1.7-1.4,2.7-1.8S588.7,490.9,590,490.9z M590,505.6
				c1.5,0,2.5-0.5,3.2-1.5s1-2.4,1-4.3c0-1.9-0.3-3.3-1-4.3c-0.7-1-1.8-1.5-3.2-1.5c-1.5,0-2.6,0.5-3.3,1.5c-0.7,1-1.1,2.4-1.1,4.3
				s0.4,3.3,1.1,4.3C587.5,505.1,588.6,505.6,590,505.6z"/>
			<path d="M614.2,508.6c-0.5,0-0.9-0.3-1.1-0.8l-0.3-1.7c-0.4,0.4-0.7,0.8-1.1,1.1c-0.4,0.3-0.8,0.6-1.3,0.8s-1,0.4-1.5,0.6
				c-0.5,0.1-1.1,0.2-1.7,0.2c-1,0-1.8-0.2-2.6-0.6c-0.8-0.4-1.5-1-2-1.7s-1-1.7-1.3-2.8c-0.3-1.1-0.5-2.4-0.5-3.8
				c0-1.3,0.2-2.5,0.5-3.6c0.4-1.1,0.9-2.1,1.5-2.9s1.4-1.5,2.4-1.9s1.9-0.7,3.1-0.7c1,0,1.8,0.2,2.5,0.5c0.7,0.3,1.3,0.7,1.9,1.2
				v-9.2h4.2v25.3H614.2z M608.6,505.5c0.9,0,1.6-0.2,2.2-0.5c0.6-0.4,1.2-0.9,1.7-1.5v-7.8c-0.5-0.6-1-1-1.6-1.2
				c-0.6-0.2-1.2-0.4-1.8-0.4c-0.6,0-1.2,0.1-1.7,0.4s-1,0.6-1.3,1.1c-0.4,0.5-0.6,1.1-0.8,1.8c-0.2,0.7-0.3,1.6-0.3,2.6
				c0,1,0.1,1.9,0.2,2.6c0.2,0.7,0.4,1.3,0.7,1.7c0.3,0.4,0.7,0.8,1.1,1S608.1,505.5,608.6,505.5z"/>
			<path d="M625.1,491.2v11.1c0,1.1,0.2,1.9,0.7,2.5c0.5,0.6,1.2,0.9,2.2,0.9c0.7,0,1.4-0.2,2-0.5c0.6-0.3,1.2-0.8,1.8-1.3v-12.6
				h4.2v17.4h-2.6c-0.5,0-0.9-0.3-1.1-0.8l-0.3-1.4c-0.4,0.4-0.7,0.7-1.1,1c-0.4,0.3-0.8,0.6-1.2,0.8s-0.9,0.4-1.4,0.5
				s-1,0.2-1.6,0.2c-1,0-1.8-0.2-2.5-0.5c-0.7-0.3-1.3-0.8-1.8-1.4c-0.5-0.6-0.9-1.3-1.1-2.1c-0.3-0.8-0.4-1.7-0.4-2.7v-11.1H625.1z
				"/>
			<path d="M652.9,494.9c-0.1,0.2-0.2,0.3-0.4,0.4c-0.1,0.1-0.3,0.1-0.5,0.1c-0.2,0-0.4-0.1-0.6-0.2c-0.2-0.1-0.4-0.3-0.7-0.4
				c-0.3-0.2-0.6-0.3-1-0.4c-0.4-0.1-0.9-0.2-1.5-0.2c-0.7,0-1.4,0.1-1.9,0.4c-0.6,0.3-1,0.6-1.4,1.1s-0.6,1.1-0.8,1.8
				c-0.2,0.7-0.3,1.5-0.3,2.4c0,0.9,0.1,1.8,0.3,2.5c0.2,0.7,0.5,1.3,0.9,1.8s0.8,0.9,1.4,1.1c0.5,0.3,1.1,0.4,1.8,0.4
				s1.2-0.1,1.6-0.2c0.4-0.2,0.8-0.3,1-0.5s0.5-0.4,0.7-0.5c0.2-0.2,0.4-0.2,0.7-0.2c0.3,0,0.6,0.1,0.8,0.4l1.2,1.5
				c-0.5,0.5-1,1-1.5,1.4s-1.1,0.7-1.7,0.9s-1.2,0.4-1.8,0.5s-1.2,0.1-1.9,0.1c-1.1,0-2.1-0.2-3-0.6c-1-0.4-1.8-1-2.5-1.8
				c-0.7-0.8-1.3-1.7-1.7-2.8c-0.4-1.1-0.6-2.4-0.6-3.8c0-1.3,0.2-2.5,0.6-3.6s0.9-2,1.6-2.8s1.6-1.4,2.7-1.9
				c1.1-0.5,2.3-0.7,3.6-0.7c1.3,0,2.4,0.2,3.4,0.6s1.9,1,2.6,1.8L652.9,494.9z"/>
			<path d="M662.6,508.9c-1.5,0-2.7-0.4-3.5-1.3c-0.8-0.9-1.2-2-1.2-3.5v-9.7h-1.8c-0.2,0-0.4-0.1-0.6-0.2s-0.2-0.4-0.2-0.7v-1.7
				l2.8-0.5l0.9-4.8c0-0.2,0.2-0.4,0.3-0.5s0.4-0.2,0.6-0.2h2.2v5.5h4.6v3h-4.6v9.5c0,0.5,0.1,1,0.4,1.3c0.3,0.3,0.6,0.5,1.1,0.5
				c0.3,0,0.5,0,0.7-0.1s0.3-0.1,0.5-0.2c0.1-0.1,0.2-0.1,0.3-0.2c0.1-0.1,0.2-0.1,0.3-0.1c0.1,0,0.2,0,0.3,0.1
				c0.1,0.1,0.2,0.2,0.3,0.3l1.3,2c-0.6,0.5-1.3,0.9-2.1,1.2S663.4,508.9,662.6,508.9z"/>
			<path d="M675.1,486.1c0,0.4-0.1,0.7-0.2,1s-0.3,0.6-0.6,0.8c-0.2,0.2-0.5,0.4-0.9,0.6c-0.3,0.1-0.7,0.2-1.1,0.2
				c-0.4,0-0.7-0.1-1-0.2s-0.6-0.3-0.8-0.6c-0.2-0.2-0.4-0.5-0.6-0.8s-0.2-0.7-0.2-1c0-0.4,0.1-0.7,0.2-1.1c0.1-0.3,0.3-0.6,0.6-0.8
				c0.2-0.2,0.5-0.4,0.8-0.6s0.7-0.2,1-0.2c0.4,0,0.7,0.1,1.1,0.2c0.3,0.1,0.6,0.3,0.9,0.6c0.2,0.2,0.4,0.5,0.6,0.8
				C675,485.4,675.1,485.7,675.1,486.1z M674.5,491.2v17.4h-4.2v-17.4H674.5z"/>
			<path d="M686.7,490.9c1.3,0,2.5,0.2,3.5,0.6s2,1,2.7,1.8s1.3,1.7,1.7,2.8c0.4,1.1,0.6,2.4,0.6,3.7c0,1.4-0.2,2.6-0.6,3.7
				c-0.4,1.1-1,2.1-1.7,2.8s-1.7,1.4-2.7,1.8s-2.2,0.6-3.5,0.6c-1.3,0-2.5-0.2-3.6-0.6c-1.1-0.4-2-1-2.7-1.8
				c-0.8-0.8-1.3-1.7-1.8-2.8c-0.4-1.1-0.6-2.4-0.6-3.7c0-1.4,0.2-2.6,0.6-3.7c0.4-1.1,1-2.1,1.8-2.8c0.8-0.8,1.7-1.4,2.7-1.8
				C684.2,491.1,685.4,490.9,686.7,490.9z M686.7,505.6c1.5,0,2.5-0.5,3.2-1.5c0.7-1,1-2.4,1-4.3c0-1.9-0.3-3.3-1-4.3
				c-0.7-1-1.8-1.5-3.2-1.5c-1.5,0-2.6,0.5-3.3,1.5c-0.7,1-1.1,2.4-1.1,4.3s0.4,3.3,1.1,4.3C684.1,505.1,685.2,505.6,686.7,505.6z"
				/>
			<path d="M698.6,508.6v-17.4h2.6c0.5,0,0.9,0.3,1.1,0.8l0.3,1.4c0.4-0.4,0.7-0.7,1.1-1c0.4-0.3,0.8-0.5,1.2-0.8
				c0.4-0.2,0.9-0.4,1.4-0.5c0.5-0.1,1-0.2,1.6-0.2c1,0,1.8,0.2,2.5,0.5c0.7,0.3,1.4,0.8,1.8,1.4c0.5,0.6,0.9,1.3,1.1,2.1
				s0.4,1.7,0.4,2.7v11.1h-4.2v-11.1c0-1.1-0.2-1.9-0.7-2.5s-1.2-0.9-2.2-0.9c-0.7,0-1.4,0.2-2,0.5c-0.6,0.3-1.2,0.8-1.8,1.3v12.6
				H698.6z"/>
			<path d="M728.2,494.6c-0.1,0.2-0.2,0.3-0.4,0.4c-0.1,0.1-0.3,0.1-0.5,0.1c-0.2,0-0.4-0.1-0.7-0.2s-0.5-0.2-0.8-0.4
				s-0.7-0.3-1-0.4c-0.4-0.1-0.9-0.2-1.4-0.2c-0.8,0-1.5,0.2-2,0.5c-0.5,0.4-0.7,0.8-0.7,1.4c0,0.4,0.1,0.7,0.4,0.9
				c0.2,0.3,0.6,0.5,1,0.7s0.9,0.4,1.4,0.5c0.5,0.2,1,0.3,1.6,0.5c0.5,0.2,1.1,0.4,1.6,0.6c0.5,0.2,1,0.5,1.4,0.9
				c0.4,0.4,0.7,0.8,1,1.3c0.2,0.5,0.4,1.1,0.4,1.8c0,0.8-0.2,1.6-0.5,2.3c-0.3,0.7-0.8,1.3-1.3,1.8s-1.3,0.9-2.2,1.2
				s-1.9,0.4-3,0.4c-0.6,0-1.2-0.1-1.8-0.2s-1.1-0.3-1.6-0.5c-0.5-0.2-1-0.4-1.5-0.7c-0.4-0.3-0.8-0.5-1.2-0.9l1-1.6
				c0.1-0.2,0.3-0.3,0.4-0.4c0.2-0.1,0.4-0.2,0.6-0.2s0.5,0.1,0.7,0.2c0.2,0.1,0.5,0.3,0.8,0.5c0.3,0.2,0.7,0.3,1.1,0.5
				c0.4,0.1,0.9,0.2,1.6,0.2c0.5,0,0.9-0.1,1.3-0.2c0.4-0.1,0.7-0.3,0.9-0.5c0.2-0.2,0.4-0.4,0.5-0.7c0.1-0.3,0.2-0.5,0.2-0.8
				c0-0.4-0.1-0.7-0.4-1c-0.2-0.3-0.6-0.5-1-0.7c-0.4-0.2-0.9-0.4-1.4-0.5c-0.5-0.2-1-0.3-1.6-0.5c-0.5-0.2-1.1-0.4-1.6-0.6
				c-0.5-0.2-1-0.6-1.4-0.9c-0.4-0.4-0.7-0.8-1-1.4c-0.2-0.5-0.4-1.2-0.4-2c0-0.7,0.1-1.4,0.4-2c0.3-0.6,0.7-1.2,1.2-1.7
				c0.5-0.5,1.2-0.9,2.1-1.2s1.8-0.4,2.8-0.4c1.2,0,2.3,0.2,3.3,0.6c1,0.4,1.8,0.9,2.5,1.6L728.2,494.6z"/>
			<path d="M749.7,494.6c-0.1,0.2-0.2,0.3-0.4,0.4c-0.1,0.1-0.3,0.1-0.5,0.1c-0.2,0-0.4-0.1-0.7-0.2s-0.5-0.2-0.8-0.4
				s-0.7-0.3-1-0.4c-0.4-0.1-0.9-0.2-1.4-0.2c-0.8,0-1.5,0.2-2,0.5c-0.5,0.4-0.7,0.8-0.7,1.4c0,0.4,0.1,0.7,0.4,0.9
				c0.2,0.3,0.6,0.5,1,0.7s0.9,0.4,1.4,0.5c0.5,0.2,1,0.3,1.6,0.5c0.5,0.2,1.1,0.4,1.6,0.6c0.5,0.2,1,0.5,1.4,0.9
				c0.4,0.4,0.7,0.8,1,1.3c0.2,0.5,0.4,1.1,0.4,1.8c0,0.8-0.2,1.6-0.5,2.3c-0.3,0.7-0.8,1.3-1.3,1.8s-1.3,0.9-2.2,1.2
				s-1.9,0.4-3,0.4c-0.6,0-1.2-0.1-1.8-0.2s-1.1-0.3-1.6-0.5c-0.5-0.2-1-0.4-1.5-0.7c-0.4-0.3-0.8-0.5-1.2-0.9l1-1.6
				c0.1-0.2,0.3-0.3,0.4-0.4c0.2-0.1,0.4-0.2,0.6-0.2s0.5,0.1,0.7,0.2c0.2,0.1,0.5,0.3,0.8,0.5c0.3,0.2,0.7,0.3,1.1,0.5
				c0.4,0.1,0.9,0.2,1.6,0.2c0.5,0,0.9-0.1,1.3-0.2c0.4-0.1,0.7-0.3,0.9-0.5c0.2-0.2,0.4-0.4,0.5-0.7c0.1-0.3,0.2-0.5,0.2-0.8
				c0-0.4-0.1-0.7-0.4-1c-0.2-0.3-0.6-0.5-1-0.7c-0.4-0.2-0.9-0.4-1.4-0.5c-0.5-0.2-1-0.3-1.6-0.5c-0.5-0.2-1.1-0.4-1.6-0.6
				c-0.5-0.2-1-0.6-1.4-0.9c-0.4-0.4-0.7-0.8-1-1.4c-0.2-0.5-0.4-1.2-0.4-2c0-0.7,0.1-1.4,0.4-2c0.3-0.6,0.7-1.2,1.2-1.7
				c0.5-0.5,1.2-0.9,2.1-1.2s1.8-0.4,2.8-0.4c1.2,0,2.3,0.2,3.3,0.6c1,0.4,1.8,0.9,2.5,1.6L749.7,494.6z"/>
			<path d="M758,491.2v11.1c0,1.1,0.2,1.9,0.7,2.5c0.5,0.6,1.2,0.9,2.2,0.9c0.7,0,1.4-0.2,2-0.5c0.6-0.3,1.2-0.8,1.8-1.3v-12.6h4.2
				v17.4h-2.6c-0.5,0-0.9-0.3-1.1-0.8l-0.3-1.4c-0.4,0.4-0.7,0.7-1.1,1c-0.4,0.3-0.8,0.6-1.2,0.8s-0.9,0.4-1.4,0.5s-1,0.2-1.6,0.2
				c-1,0-1.8-0.2-2.5-0.5c-0.7-0.3-1.3-0.8-1.8-1.4c-0.5-0.6-0.9-1.3-1.1-2.1c-0.3-0.8-0.4-1.7-0.4-2.7v-11.1H758z"/>
			<path d="M773.5,508.6v-17.4h2.5c0.4,0,0.7,0.1,0.9,0.2c0.2,0.2,0.3,0.4,0.3,0.8l0.3,2.1c0.6-1.1,1.4-1.9,2.2-2.5s1.8-0.9,2.8-0.9
				c0.9,0,1.6,0.2,2.1,0.6l-0.5,3.1c0,0.2-0.1,0.3-0.2,0.4s-0.3,0.1-0.5,0.1c-0.2,0-0.4,0-0.7-0.1s-0.7-0.1-1.2-0.1
				c-0.9,0-1.6,0.2-2.2,0.7s-1.2,1.2-1.6,2.1v10.9H773.5z"/>
			<path d="M808.5,485.8c0,0.6-0.2,1.1-0.6,1.5c-0.4,0.4-1,0.6-1.9,0.6h-6.8l-0.9,5.1c1.1-0.2,2.1-0.3,3-0.3c1.3,0,2.4,0.2,3.4,0.6
				c1,0.4,1.8,0.9,2.5,1.6c0.7,0.7,1.2,1.5,1.5,2.4c0.3,0.9,0.5,1.9,0.5,2.9c0,1.3-0.2,2.5-0.7,3.6c-0.5,1.1-1.1,2-1.9,2.8
				c-0.8,0.8-1.8,1.4-2.9,1.8c-1.1,0.4-2.3,0.6-3.6,0.6c-0.8,0-1.5-0.1-2.2-0.2c-0.7-0.2-1.3-0.4-1.9-0.6s-1.2-0.6-1.7-0.9
				s-1-0.7-1.4-1.1l1.3-1.8c0.3-0.4,0.6-0.6,1.1-0.6c0.3,0,0.6,0.1,0.9,0.3c0.3,0.2,0.6,0.4,1,0.6c0.4,0.2,0.8,0.4,1.3,0.6
				c0.5,0.2,1.1,0.3,1.9,0.3c0.8,0,1.5-0.1,2-0.4c0.6-0.2,1.1-0.6,1.5-1c0.4-0.4,0.7-1,0.9-1.6c0.2-0.6,0.3-1.3,0.3-2
				c0-1.3-0.4-2.4-1.2-3.1c-0.8-0.8-1.9-1.1-3.4-1.1c-1.2,0-2.4,0.2-3.6,0.6l-2.6-0.7l2-11.9h12.1V485.8z"/>
			<path d="M820.2,514.3v-23.1h2.6c0.3,0,0.5,0.1,0.7,0.2c0.2,0.1,0.3,0.3,0.4,0.6l0.3,1.6c0.7-0.8,1.5-1.5,2.4-2
				c0.9-0.5,2-0.7,3.2-0.7c1,0,1.8,0.2,2.6,0.6c0.8,0.4,1.5,1,2,1.7s1,1.7,1.3,2.8c0.3,1.1,0.5,2.4,0.5,3.8c0,1.3-0.2,2.5-0.5,3.6
				c-0.4,1.1-0.9,2.1-1.5,2.9c-0.7,0.8-1.4,1.5-2.4,1.9s-2,0.7-3.1,0.7c-1,0-1.8-0.2-2.5-0.5c-0.7-0.3-1.3-0.7-1.8-1.2v7.1H820.2z
				 M828.4,494.2c-0.9,0-1.6,0.2-2.2,0.6c-0.6,0.4-1.2,0.9-1.7,1.6v7.8c0.5,0.6,1,1,1.6,1.2c0.6,0.2,1.2,0.3,1.8,0.3
				c0.6,0,1.2-0.1,1.7-0.4c0.5-0.2,1-0.6,1.3-1.1s0.6-1.1,0.8-1.8s0.3-1.6,0.3-2.6c0-1-0.1-1.9-0.2-2.6c-0.2-0.7-0.4-1.3-0.7-1.7
				c-0.3-0.4-0.7-0.8-1.1-1C829.4,494.3,828.9,494.2,828.4,494.2z"/>
			<path d="M853.1,508.6h-1.9c-0.4,0-0.7-0.1-0.9-0.2s-0.4-0.4-0.5-0.7l-0.4-1.2c-0.4,0.4-0.9,0.7-1.3,1c-0.4,0.3-0.9,0.6-1.3,0.8
				s-0.9,0.4-1.4,0.5c-0.5,0.1-1.1,0.2-1.7,0.2c-0.7,0-1.4-0.1-2-0.3s-1.2-0.5-1.6-0.9c-0.4-0.4-0.8-0.9-1-1.5
				c-0.2-0.6-0.4-1.3-0.4-2.1c0-0.7,0.2-1.3,0.5-2s0.9-1.2,1.7-1.7s1.9-0.9,3.2-1.3c1.3-0.3,3-0.5,5-0.5v-1c0-1.2-0.2-2-0.7-2.6
				c-0.5-0.6-1.2-0.8-2.2-0.8c-0.7,0-1.2,0.1-1.7,0.2c-0.5,0.2-0.8,0.3-1.2,0.5c-0.3,0.2-0.6,0.4-0.9,0.5c-0.3,0.2-0.6,0.2-0.9,0.2
				c-0.3,0-0.5-0.1-0.7-0.2s-0.4-0.3-0.5-0.5l-0.8-1.3c2-1.8,4.4-2.8,7.3-2.8c1,0,1.9,0.2,2.7,0.5c0.8,0.3,1.5,0.8,2,1.4
				c0.6,0.6,1,1.3,1.3,2.1c0.3,0.8,0.4,1.7,0.4,2.7V508.6z M845,506c0.4,0,0.8,0,1.2-0.1c0.4-0.1,0.7-0.2,1-0.4s0.6-0.3,0.9-0.6
				c0.3-0.2,0.6-0.5,0.9-0.8v-2.9c-1.2,0-2.2,0.1-3.1,0.2c-0.8,0.2-1.5,0.4-2,0.6c-0.5,0.2-0.9,0.5-1.1,0.8c-0.2,0.3-0.3,0.7-0.3,1
				c0,0.7,0.2,1.3,0.7,1.6C843.7,505.8,844.3,506,845,506z"/>
			<path d="M857.2,508.6v-17.4h2.5c0.4,0,0.7,0.1,0.9,0.2c0.2,0.2,0.3,0.4,0.3,0.8l0.3,2.1c0.6-1.1,1.4-1.9,2.2-2.5s1.8-0.9,2.8-0.9
				c0.9,0,1.6,0.2,2.1,0.6l-0.5,3.1c0,0.2-0.1,0.3-0.2,0.4s-0.3,0.1-0.5,0.1c-0.2,0-0.4,0-0.7-0.1s-0.7-0.1-1.2-0.1
				c-0.9,0-1.6,0.2-2.2,0.7s-1.2,1.2-1.6,2.1v10.9H857.2z"/>
			<path d="M883.4,494.9c-0.1,0.2-0.2,0.3-0.4,0.4c-0.1,0.1-0.3,0.1-0.5,0.1c-0.2,0-0.4-0.1-0.6-0.2c-0.2-0.1-0.4-0.3-0.7-0.4
				c-0.3-0.2-0.6-0.3-1-0.4c-0.4-0.1-0.9-0.2-1.5-0.2c-0.7,0-1.4,0.1-1.9,0.4c-0.6,0.3-1,0.6-1.4,1.1s-0.6,1.1-0.8,1.8
				c-0.2,0.7-0.3,1.5-0.3,2.4c0,0.9,0.1,1.8,0.3,2.5c0.2,0.7,0.5,1.3,0.9,1.8s0.8,0.9,1.4,1.1c0.5,0.3,1.1,0.4,1.8,0.4
				s1.2-0.1,1.6-0.2c0.4-0.2,0.8-0.3,1-0.5s0.5-0.4,0.7-0.5c0.2-0.2,0.4-0.2,0.7-0.2c0.3,0,0.6,0.1,0.8,0.4l1.2,1.5
				c-0.5,0.5-1,1-1.5,1.4s-1.1,0.7-1.7,0.9s-1.2,0.4-1.8,0.5s-1.2,0.1-1.9,0.1c-1.1,0-2.1-0.2-3-0.6c-1-0.4-1.8-1-2.5-1.8
				c-0.7-0.8-1.3-1.7-1.7-2.8c-0.4-1.1-0.6-2.4-0.6-3.8c0-1.3,0.2-2.5,0.6-3.6s0.9-2,1.6-2.8s1.6-1.4,2.7-1.9
				c1.1-0.5,2.3-0.7,3.6-0.7c1.3,0,2.4,0.2,3.4,0.6s1.9,1,2.6,1.8L883.4,494.9z"/>
			<path d="M894.6,490.9c1.1,0,2.1,0.2,3,0.5c0.9,0.4,1.7,0.9,2.4,1.5c0.7,0.7,1.2,1.5,1.6,2.5c0.4,1,0.6,2.1,0.6,3.4
				c0,0.3,0,0.6,0,0.8s-0.1,0.4-0.2,0.5c-0.1,0.1-0.2,0.2-0.3,0.3c-0.1,0.1-0.3,0.1-0.5,0.1h-10.8c0.1,1.8,0.6,3.1,1.4,3.9
				c0.8,0.8,1.9,1.3,3.3,1.3c0.7,0,1.3-0.1,1.8-0.2c0.5-0.2,0.9-0.3,1.3-0.5s0.7-0.4,1-0.5c0.3-0.2,0.5-0.2,0.8-0.2
				c0.2,0,0.3,0,0.4,0.1s0.2,0.2,0.3,0.3l1.2,1.5c-0.5,0.5-1,1-1.6,1.4c-0.6,0.4-1.2,0.7-1.8,0.9c-0.6,0.2-1.3,0.4-1.9,0.5
				c-0.7,0.1-1.3,0.1-1.9,0.1c-1.2,0-2.3-0.2-3.4-0.6s-1.9-1-2.7-1.8c-0.8-0.8-1.4-1.8-1.8-2.9c-0.4-1.2-0.7-2.5-0.7-4
				c0-1.2,0.2-2.3,0.6-3.4c0.4-1,0.9-2,1.7-2.7c0.7-0.8,1.6-1.4,2.6-1.8S893.3,490.9,894.6,490.9z M894.6,493.9
				c-1.2,0-2.2,0.3-2.9,1c-0.7,0.7-1.1,1.7-1.3,2.9h7.9c0-0.5-0.1-1.1-0.2-1.5c-0.1-0.5-0.4-0.9-0.7-1.3c-0.3-0.4-0.7-0.6-1.2-0.9
				C895.8,494,895.3,493.9,894.6,493.9z"/>
			<path d="M910,483.3v25.3h-4.2v-25.3H910z"/>
			<path d="M919.2,483.3v25.3H915v-25.3H919.2z"/>
			<path d="M931.2,490.9c1.1,0,2.1,0.2,3,0.5c0.9,0.4,1.7,0.9,2.4,1.5c0.7,0.7,1.2,1.5,1.6,2.5c0.4,1,0.6,2.1,0.6,3.4
				c0,0.3,0,0.6,0,0.8s-0.1,0.4-0.2,0.5c-0.1,0.1-0.2,0.2-0.3,0.3c-0.1,0.1-0.3,0.1-0.5,0.1H927c0.1,1.8,0.6,3.1,1.4,3.9
				s1.9,1.3,3.3,1.3c0.7,0,1.3-0.1,1.8-0.2c0.5-0.2,0.9-0.3,1.3-0.5c0.4-0.2,0.7-0.4,1-0.5c0.3-0.2,0.5-0.2,0.8-0.2
				c0.2,0,0.3,0,0.4,0.1c0.1,0.1,0.2,0.2,0.3,0.3l1.2,1.5c-0.5,0.5-1,1-1.6,1.4s-1.2,0.7-1.8,0.9s-1.3,0.4-1.9,0.5
				c-0.7,0.1-1.3,0.1-1.9,0.1c-1.2,0-2.3-0.2-3.4-0.6c-1-0.4-1.9-1-2.7-1.8c-0.8-0.8-1.4-1.8-1.8-2.9c-0.4-1.2-0.7-2.5-0.7-4
				c0-1.2,0.2-2.3,0.6-3.4c0.4-1,0.9-2,1.7-2.7s1.6-1.4,2.6-1.8S929.9,490.9,931.2,490.9z M931.2,493.9c-1.2,0-2.2,0.3-2.9,1
				s-1.1,1.7-1.3,2.9h7.9c0-0.5-0.1-1.1-0.2-1.5c-0.1-0.5-0.4-0.9-0.7-1.3c-0.3-0.4-0.7-0.6-1.2-0.9
				C932.4,494,931.9,493.9,931.2,493.9z"/>
			<path d="M952.5,494.6c-0.1,0.2-0.2,0.3-0.4,0.4c-0.1,0.1-0.3,0.1-0.5,0.1c-0.2,0-0.4-0.1-0.7-0.2s-0.5-0.2-0.8-0.4
				s-0.7-0.3-1-0.4c-0.4-0.1-0.9-0.2-1.4-0.2c-0.8,0-1.5,0.2-2,0.5c-0.5,0.4-0.7,0.8-0.7,1.4c0,0.4,0.1,0.7,0.4,0.9
				c0.2,0.3,0.6,0.5,1,0.7s0.9,0.4,1.4,0.5c0.5,0.2,1,0.3,1.6,0.5c0.5,0.2,1.1,0.4,1.6,0.6c0.5,0.2,1,0.5,1.4,0.9
				c0.4,0.4,0.7,0.8,1,1.3c0.2,0.5,0.4,1.1,0.4,1.8c0,0.8-0.2,1.6-0.5,2.3c-0.3,0.7-0.8,1.3-1.3,1.8s-1.3,0.9-2.2,1.2
				s-1.9,0.4-3,0.4c-0.6,0-1.2-0.1-1.8-0.2s-1.1-0.3-1.6-0.5c-0.5-0.2-1-0.4-1.5-0.7c-0.4-0.3-0.8-0.5-1.2-0.9l1-1.6
				c0.1-0.2,0.3-0.3,0.4-0.4c0.2-0.1,0.4-0.2,0.6-0.2s0.5,0.1,0.7,0.2c0.2,0.1,0.5,0.3,0.8,0.5c0.3,0.2,0.7,0.3,1.1,0.5
				c0.4,0.1,0.9,0.2,1.6,0.2c0.5,0,0.9-0.1,1.3-0.2c0.4-0.1,0.7-0.3,0.9-0.5c0.2-0.2,0.4-0.4,0.5-0.7c0.1-0.3,0.2-0.5,0.2-0.8
				c0-0.4-0.1-0.7-0.4-1c-0.2-0.3-0.6-0.5-1-0.7c-0.4-0.2-0.9-0.4-1.4-0.5c-0.5-0.2-1-0.3-1.6-0.5c-0.5-0.2-1.1-0.4-1.6-0.6
				c-0.5-0.2-1-0.6-1.4-0.9c-0.4-0.4-0.7-0.8-1-1.4c-0.2-0.5-0.4-1.2-0.4-2c0-0.7,0.1-1.4,0.4-2c0.3-0.6,0.7-1.2,1.2-1.7
				c0.5-0.5,1.2-0.9,2.1-1.2s1.8-0.4,2.8-0.4c1.2,0,2.3,0.2,3.3,0.6c1,0.4,1.8,0.9,2.5,1.6L952.5,494.6z"/>
		</g>
		<g>
			<g>
				<path d="M119.4,483.8c1.1,0,2.2,0.2,3.1,0.5c0.9,0.3,1.7,0.8,2.3,1.3s1.1,1.2,1.5,2s0.5,1.6,0.5,2.5c0,0.8-0.1,1.5-0.3,2.1
					c-0.2,0.6-0.4,1.1-0.8,1.6c-0.3,0.4-0.7,0.8-1.2,1.1c-0.5,0.3-1,0.6-1.6,0.8c1.5,0.5,2.6,1.2,3.3,2.1s1.1,2.1,1.1,3.6
					c0,1.2-0.2,2.3-0.7,3.2c-0.5,0.9-1.1,1.7-1.8,2.4c-0.8,0.6-1.7,1.1-2.7,1.5c-1,0.3-2.1,0.5-3.2,0.5c-1.2,0-2.3-0.1-3.2-0.4
					c-0.9-0.3-1.7-0.7-2.4-1.3c-0.7-0.6-1.3-1.2-1.7-2s-0.9-1.7-1.2-2.8l1.9-0.8c0.3-0.1,0.6-0.2,1-0.2c0.3,0,0.6,0.1,0.8,0.2
					c0.2,0.1,0.4,0.3,0.5,0.5c0.2,0.4,0.4,0.8,0.7,1.2c0.2,0.4,0.5,0.7,0.9,1c0.3,0.3,0.7,0.5,1.2,0.7c0.5,0.2,1,0.3,1.6,0.3
					c0.7,0,1.3-0.1,1.9-0.3s1-0.5,1.3-0.9s0.6-0.8,0.8-1.2s0.3-0.9,0.3-1.4c0-0.6-0.1-1.1-0.2-1.6c-0.1-0.5-0.4-0.9-0.8-1.2
					c-0.4-0.3-1-0.6-1.7-0.8s-1.7-0.3-3-0.3v-3c1,0,1.9-0.1,2.6-0.3c0.7-0.2,1.2-0.4,1.6-0.8c0.4-0.3,0.7-0.7,0.8-1.2
					c0.2-0.5,0.2-1,0.2-1.5c0-1.2-0.3-2-1-2.6c-0.6-0.6-1.5-0.9-2.6-0.9c-1,0-1.8,0.3-2.5,0.8s-1.1,1.2-1.4,2
					c-0.1,0.4-0.3,0.7-0.6,0.9c-0.2,0.2-0.5,0.3-0.9,0.3c-0.2,0-0.4,0-0.6,0l-2.2-0.4c0.2-1.2,0.5-2.2,1-3.1s1.1-1.6,1.8-2.2
					c0.7-0.6,1.6-1,2.5-1.3C117.3,483.9,118.3,483.8,119.4,483.8z"/>
				<path d="M150.9,508.6H149c-0.4,0-0.7-0.1-0.9-0.2s-0.4-0.4-0.5-0.7l-0.4-1.2c-0.4,0.4-0.9,0.7-1.3,1c-0.4,0.3-0.9,0.6-1.3,0.8
					s-0.9,0.4-1.4,0.5c-0.5,0.1-1.1,0.2-1.7,0.2c-0.7,0-1.4-0.1-2-0.3c-0.6-0.2-1.2-0.5-1.6-0.9c-0.4-0.4-0.8-0.9-1-1.5
					c-0.2-0.6-0.4-1.3-0.4-2.1c0-0.7,0.2-1.3,0.5-2s0.9-1.2,1.7-1.7c0.8-0.5,1.9-0.9,3.2-1.3s3-0.5,5-0.5v-1c0-1.2-0.2-2-0.7-2.6
					c-0.5-0.6-1.2-0.8-2.2-0.8c-0.7,0-1.2,0.1-1.7,0.2c-0.5,0.2-0.8,0.3-1.2,0.5c-0.3,0.2-0.6,0.4-0.9,0.5c-0.3,0.2-0.6,0.2-0.9,0.2
					c-0.3,0-0.5-0.1-0.7-0.2c-0.2-0.1-0.4-0.3-0.5-0.5l-0.8-1.3c2-1.8,4.4-2.8,7.3-2.8c1,0,1.9,0.2,2.7,0.5c0.8,0.3,1.5,0.8,2,1.4
					c0.6,0.6,1,1.3,1.3,2.1c0.3,0.8,0.4,1.7,0.4,2.7V508.6z M142.8,506c0.4,0,0.8,0,1.2-0.1s0.7-0.2,1-0.4c0.3-0.2,0.6-0.3,0.9-0.6
					s0.6-0.5,0.9-0.8v-2.9c-1.2,0-2.2,0.1-3.1,0.2c-0.8,0.2-1.5,0.4-2,0.6c-0.5,0.2-0.9,0.5-1.1,0.8c-0.2,0.3-0.3,0.7-0.3,1
					c0,0.7,0.2,1.3,0.7,1.6C141.5,505.8,142.1,506,142.8,506z"/>
				<path d="M167.3,494.9c-0.1,0.2-0.2,0.3-0.4,0.4c-0.1,0.1-0.3,0.1-0.5,0.1c-0.2,0-0.4-0.1-0.6-0.2c-0.2-0.1-0.4-0.3-0.7-0.4
					c-0.3-0.2-0.6-0.3-1-0.4c-0.4-0.1-0.9-0.2-1.5-0.2c-0.7,0-1.4,0.1-1.9,0.4c-0.6,0.3-1,0.6-1.4,1.1s-0.6,1.1-0.8,1.8
					c-0.2,0.7-0.3,1.5-0.3,2.4c0,0.9,0.1,1.8,0.3,2.5c0.2,0.7,0.5,1.3,0.9,1.8s0.8,0.9,1.4,1.1c0.5,0.3,1.1,0.4,1.8,0.4
					c0.7,0,1.2-0.1,1.6-0.2c0.4-0.2,0.8-0.3,1-0.5s0.5-0.4,0.7-0.5c0.2-0.2,0.4-0.2,0.7-0.2c0.3,0,0.6,0.1,0.8,0.4l1.2,1.5
					c-0.5,0.5-1,1-1.5,1.4s-1.1,0.7-1.7,0.9c-0.6,0.2-1.2,0.4-1.8,0.5c-0.6,0.1-1.2,0.1-1.9,0.1c-1.1,0-2.1-0.2-3-0.6
					c-1-0.4-1.8-1-2.5-1.8c-0.7-0.8-1.3-1.7-1.7-2.8s-0.6-2.4-0.6-3.8c0-1.3,0.2-2.5,0.6-3.6c0.4-1.1,0.9-2,1.6-2.8s1.6-1.4,2.7-1.9
					c1.1-0.5,2.3-0.7,3.6-0.7c1.3,0,2.4,0.2,3.4,0.6s1.9,1,2.6,1.8L167.3,494.9z"/>
				<path d="M177,508.9c-1.5,0-2.7-0.4-3.5-1.3c-0.8-0.9-1.2-2-1.2-3.5v-9.7h-1.8c-0.2,0-0.4-0.1-0.6-0.2c-0.2-0.1-0.2-0.4-0.2-0.7
					v-1.7l2.8-0.5l0.9-4.8c0-0.2,0.1-0.4,0.3-0.5c0.2-0.1,0.4-0.2,0.6-0.2h2.2v5.5h4.6v3h-4.6v9.5c0,0.5,0.1,1,0.4,1.3
					c0.3,0.3,0.6,0.5,1.1,0.5c0.3,0,0.5,0,0.7-0.1s0.3-0.1,0.5-0.2c0.1-0.1,0.2-0.1,0.3-0.2c0.1-0.1,0.2-0.1,0.3-0.1
					c0.1,0,0.2,0,0.3,0.1c0.1,0.1,0.2,0.2,0.3,0.3l1.3,2c-0.6,0.5-1.3,0.9-2.1,1.2C178.7,508.8,177.9,508.9,177,508.9z"/>
				<path d="M189.5,486.1c0,0.4-0.1,0.7-0.2,1c-0.1,0.3-0.3,0.6-0.6,0.8c-0.2,0.2-0.5,0.4-0.9,0.6c-0.3,0.1-0.7,0.2-1.1,0.2
					c-0.4,0-0.7-0.1-1-0.2c-0.3-0.1-0.6-0.3-0.8-0.6c-0.2-0.2-0.4-0.5-0.6-0.8c-0.1-0.3-0.2-0.7-0.2-1c0-0.4,0.1-0.7,0.2-1.1
					c0.1-0.3,0.3-0.6,0.6-0.8c0.2-0.2,0.5-0.4,0.8-0.6c0.3-0.1,0.7-0.2,1-0.2c0.4,0,0.7,0.1,1.1,0.2c0.3,0.1,0.6,0.3,0.9,0.6
					c0.2,0.2,0.4,0.5,0.6,0.8C189.5,485.4,189.5,485.7,189.5,486.1z M188.9,491.2v17.4h-4.2v-17.4H188.9z"/>
				<path d="M202.4,508.6h-3.8l-6.9-17.4h3.5c0.3,0,0.6,0.1,0.8,0.2c0.2,0.1,0.4,0.3,0.4,0.6l3.4,9.3c0.2,0.5,0.4,1.1,0.5,1.6
					s0.2,1,0.3,1.6c0.1-0.5,0.2-1,0.3-1.6c0.1-0.5,0.3-1.1,0.5-1.6l3.5-9.3c0.1-0.2,0.2-0.4,0.4-0.6s0.4-0.2,0.7-0.2h3.3
					L202.4,508.6z"/>
				<path d="M216.9,486.1c0,0.4-0.1,0.7-0.2,1c-0.1,0.3-0.3,0.6-0.6,0.8c-0.2,0.2-0.5,0.4-0.9,0.6c-0.3,0.1-0.7,0.2-1.1,0.2
					c-0.4,0-0.7-0.1-1-0.2c-0.3-0.1-0.6-0.3-0.8-0.6c-0.2-0.2-0.4-0.5-0.6-0.8c-0.1-0.3-0.2-0.7-0.2-1c0-0.4,0.1-0.7,0.2-1.1
					c0.1-0.3,0.3-0.6,0.6-0.8c0.2-0.2,0.5-0.4,0.8-0.6c0.3-0.1,0.7-0.2,1-0.2c0.4,0,0.7,0.1,1.1,0.2c0.3,0.1,0.6,0.3,0.9,0.6
					c0.2,0.2,0.4,0.5,0.6,0.8C216.8,485.4,216.9,485.7,216.9,486.1z M216.3,491.2v17.4h-4.2v-17.4H216.3z"/>
				<path d="M226.7,508.9c-1.5,0-2.7-0.4-3.5-1.3c-0.8-0.9-1.2-2-1.2-3.5v-9.7h-1.8c-0.2,0-0.4-0.1-0.6-0.2
					c-0.2-0.1-0.2-0.4-0.2-0.7v-1.7l2.8-0.5l0.9-4.8c0-0.2,0.1-0.4,0.3-0.5c0.2-0.1,0.4-0.2,0.6-0.2h2.2v5.5h4.6v3h-4.6v9.5
					c0,0.5,0.1,1,0.4,1.3c0.3,0.3,0.6,0.5,1.1,0.5c0.3,0,0.5,0,0.7-0.1s0.3-0.1,0.5-0.2c0.1-0.1,0.2-0.1,0.3-0.2
					c0.1-0.1,0.2-0.1,0.3-0.1c0.1,0,0.2,0,0.3,0.1c0.1,0.1,0.2,0.2,0.3,0.3l1.3,2c-0.6,0.5-1.3,0.9-2.1,1.2
					C228.4,508.8,227.6,508.9,226.7,508.9z"/>
				<path d="M241.4,490.9c1.1,0,2.1,0.2,3,0.5c0.9,0.4,1.7,0.9,2.4,1.5c0.7,0.7,1.2,1.5,1.6,2.5c0.4,1,0.6,2.1,0.6,3.4
					c0,0.3,0,0.6,0,0.8s-0.1,0.4-0.2,0.5c-0.1,0.1-0.2,0.2-0.3,0.3s-0.3,0.1-0.5,0.1h-10.8c0.1,1.8,0.6,3.1,1.4,3.9
					c0.8,0.8,1.9,1.3,3.3,1.3c0.7,0,1.3-0.1,1.8-0.2c0.5-0.2,0.9-0.3,1.3-0.5c0.4-0.2,0.7-0.4,1-0.5c0.3-0.2,0.5-0.2,0.8-0.2
					c0.2,0,0.3,0,0.4,0.1c0.1,0.1,0.2,0.2,0.3,0.3l1.2,1.5c-0.5,0.5-1,1-1.6,1.4c-0.6,0.4-1.2,0.7-1.8,0.9c-0.6,0.2-1.3,0.4-1.9,0.5
					s-1.3,0.1-1.9,0.1c-1.2,0-2.3-0.2-3.4-0.6c-1-0.4-1.9-1-2.7-1.8c-0.8-0.8-1.4-1.8-1.8-2.9c-0.4-1.2-0.7-2.5-0.7-4
					c0-1.2,0.2-2.3,0.6-3.4c0.4-1,0.9-2,1.7-2.7c0.7-0.8,1.6-1.4,2.6-1.8S240.1,490.9,241.4,490.9z M241.5,493.9
					c-1.2,0-2.2,0.3-2.9,1c-0.7,0.7-1.1,1.7-1.3,2.9h7.9c0-0.5-0.1-1.1-0.2-1.5c-0.1-0.5-0.4-0.9-0.7-1.3c-0.3-0.4-0.7-0.6-1.2-0.9
					C242.6,494,242.1,493.9,241.5,493.9z M247.4,483.8l-4.2,4.4c-0.2,0.2-0.4,0.4-0.6,0.5c-0.2,0.1-0.5,0.1-0.8,0.1h-2.5l2.4-4.1
					c0.2-0.3,0.4-0.5,0.6-0.7c0.2-0.2,0.6-0.2,1-0.2H247.4z"/>
				<path d="M262.7,494.6c-0.1,0.2-0.2,0.3-0.4,0.4c-0.1,0.1-0.3,0.1-0.5,0.1c-0.2,0-0.4-0.1-0.7-0.2s-0.5-0.2-0.8-0.4
					c-0.3-0.1-0.7-0.3-1-0.4c-0.4-0.1-0.9-0.2-1.4-0.2c-0.8,0-1.5,0.2-2,0.5c-0.5,0.4-0.7,0.8-0.7,1.4c0,0.4,0.1,0.7,0.4,0.9
					s0.6,0.5,1,0.7c0.4,0.2,0.9,0.4,1.4,0.5c0.5,0.2,1,0.3,1.6,0.5c0.5,0.2,1.1,0.4,1.6,0.6c0.5,0.2,1,0.5,1.4,0.9
					c0.4,0.4,0.7,0.8,1,1.3c0.2,0.5,0.4,1.1,0.4,1.8c0,0.8-0.2,1.6-0.5,2.3c-0.3,0.7-0.8,1.3-1.3,1.8c-0.6,0.5-1.3,0.9-2.2,1.2
					s-1.9,0.4-3,0.4c-0.6,0-1.2-0.1-1.8-0.2s-1.1-0.3-1.6-0.5s-1-0.4-1.5-0.7s-0.8-0.5-1.2-0.9l1-1.6c0.1-0.2,0.3-0.3,0.4-0.4
					c0.2-0.1,0.4-0.2,0.6-0.2s0.5,0.1,0.7,0.2c0.2,0.1,0.5,0.3,0.8,0.5c0.3,0.2,0.7,0.3,1.1,0.5s0.9,0.2,1.6,0.2
					c0.5,0,0.9-0.1,1.3-0.2s0.7-0.3,0.9-0.5c0.2-0.2,0.4-0.4,0.5-0.7c0.1-0.3,0.2-0.5,0.2-0.8c0-0.4-0.1-0.7-0.4-1s-0.6-0.5-1-0.7
					c-0.4-0.2-0.9-0.4-1.4-0.5c-0.5-0.2-1-0.3-1.6-0.5c-0.5-0.2-1.1-0.4-1.6-0.6c-0.5-0.2-1-0.6-1.4-0.9c-0.4-0.4-0.7-0.8-1-1.4
					s-0.4-1.2-0.4-2c0-0.7,0.1-1.4,0.4-2c0.3-0.6,0.7-1.2,1.2-1.7c0.5-0.5,1.2-0.9,2.1-1.2c0.8-0.3,1.8-0.4,2.8-0.4
					c1.2,0,2.3,0.2,3.3,0.6c1,0.4,1.8,0.9,2.5,1.6L262.7,494.6z"/>
			</g>
			<rect x="291.1" y="483.6" class="st14" width="26" height="26"/>
			<rect x="331.8" y="483.6" class="st16" width="26" height="26"/>
			<rect x="372.6" y="483.6" class="st15" width="26" height="26"/>
		</g>
	</g>
	<line class="st31" x1="519.5" y1="233.9" x2="884" y2="283.9"/>
	<g>
		<g>
			<path d="M653.9,262.2v8.7h-4.6v-24.6h8c1.6,0,3.1,0.2,4.3,0.6c1.2,0.4,2.2,0.9,3,1.6s1.4,1.5,1.7,2.5c0.4,1,0.6,2,0.6,3.2
				c0,1.2-0.2,2.3-0.6,3.3c-0.4,1-1,1.8-1.8,2.6c-0.8,0.7-1.8,1.3-3,1.7c-1.2,0.4-2.6,0.6-4.2,0.6H653.9z M653.9,258.6h3.4
				c0.8,0,1.6-0.1,2.2-0.3c0.6-0.2,1.1-0.5,1.5-0.9s0.7-0.9,0.9-1.4c0.2-0.6,0.3-1.2,0.3-1.9c0-0.7-0.1-1.3-0.3-1.8
				c-0.2-0.5-0.5-1-0.9-1.4s-0.9-0.7-1.5-0.9c-0.6-0.2-1.4-0.3-2.2-0.3h-3.4V258.6z"/>
			<path d="M683,270.8h-1.9c-0.4,0-0.7-0.1-0.9-0.2s-0.4-0.4-0.5-0.7l-0.4-1.2c-0.4,0.4-0.9,0.7-1.3,1c-0.4,0.3-0.9,0.6-1.3,0.8
				s-0.9,0.4-1.4,0.5c-0.5,0.1-1.1,0.2-1.7,0.2c-0.7,0-1.4-0.1-2-0.3c-0.6-0.2-1.2-0.5-1.6-0.9c-0.4-0.4-0.8-0.9-1-1.5
				c-0.2-0.6-0.4-1.3-0.4-2.1c0-0.7,0.2-1.3,0.5-2s0.9-1.2,1.7-1.7c0.8-0.5,1.9-0.9,3.2-1.3c1.3-0.3,3-0.5,5-0.5v-1
				c0-1.2-0.2-2-0.7-2.6c-0.5-0.6-1.2-0.8-2.2-0.8c-0.7,0-1.2,0.1-1.7,0.2c-0.5,0.2-0.8,0.3-1.2,0.5s-0.6,0.4-0.9,0.5
				c-0.3,0.2-0.6,0.2-0.9,0.2c-0.3,0-0.5-0.1-0.7-0.2c-0.2-0.1-0.4-0.3-0.5-0.5l-0.8-1.3c2-1.8,4.4-2.8,7.3-2.8c1,0,1.9,0.2,2.7,0.5
				c0.8,0.3,1.5,0.8,2,1.4c0.6,0.6,1,1.3,1.3,2.1c0.3,0.8,0.4,1.7,0.4,2.7V270.8z M674.9,268.2c0.4,0,0.8,0,1.2-0.1
				c0.4-0.1,0.7-0.2,1-0.4c0.3-0.2,0.6-0.3,0.9-0.6c0.3-0.2,0.6-0.5,0.9-0.8v-2.9c-1.2,0-2.2,0.1-3.1,0.2s-1.5,0.4-2,0.6
				c-0.5,0.2-0.9,0.5-1.1,0.8c-0.2,0.3-0.3,0.7-0.3,1c0,0.7,0.2,1.3,0.7,1.6C673.6,268,674.2,268.2,674.9,268.2z"/>
			<path d="M687.2,270.8v-17.4h2.5c0.4,0,0.7,0.1,0.9,0.2c0.2,0.2,0.3,0.4,0.3,0.8l0.3,2.1c0.6-1.1,1.4-1.9,2.2-2.5
				c0.8-0.6,1.8-0.9,2.8-0.9c0.9,0,1.6,0.2,2.1,0.6l-0.5,3.1c0,0.2-0.1,0.3-0.2,0.4s-0.3,0.1-0.5,0.1c-0.2,0-0.4,0-0.7-0.1
				c-0.3-0.1-0.7-0.1-1.2-0.1c-0.9,0-1.6,0.2-2.2,0.7c-0.6,0.5-1.2,1.2-1.6,2.1v10.9H687.2z"/>
			<path d="M713.3,257.1c-0.1,0.2-0.2,0.3-0.4,0.4s-0.3,0.1-0.5,0.1c-0.2,0-0.4-0.1-0.6-0.2c-0.2-0.1-0.4-0.3-0.7-0.4
				c-0.3-0.2-0.6-0.3-1-0.4c-0.4-0.1-0.9-0.2-1.5-0.2c-0.7,0-1.4,0.1-1.9,0.4c-0.6,0.3-1,0.6-1.4,1.1c-0.4,0.5-0.6,1.1-0.8,1.8
				c-0.2,0.7-0.3,1.5-0.3,2.4c0,0.9,0.1,1.8,0.3,2.5c0.2,0.7,0.5,1.3,0.9,1.8s0.8,0.9,1.4,1.1c0.5,0.3,1.1,0.4,1.8,0.4
				c0.7,0,1.2-0.1,1.6-0.2s0.8-0.3,1-0.5c0.3-0.2,0.5-0.4,0.7-0.5c0.2-0.2,0.4-0.2,0.7-0.2c0.3,0,0.6,0.1,0.8,0.4l1.2,1.5
				c-0.5,0.5-1,1-1.5,1.4s-1.1,0.7-1.7,0.9s-1.2,0.4-1.8,0.5s-1.2,0.1-1.9,0.1c-1.1,0-2.1-0.2-3-0.6s-1.8-1-2.5-1.8
				c-0.7-0.8-1.3-1.7-1.7-2.8s-0.6-2.4-0.6-3.8c0-1.3,0.2-2.5,0.6-3.6s0.9-2,1.6-2.8c0.7-0.8,1.6-1.4,2.7-1.9
				c1.1-0.5,2.3-0.7,3.6-0.7c1.3,0,2.4,0.2,3.4,0.6c1,0.4,1.9,1,2.6,1.8L713.3,257.1z"/>
			<path d="M724.5,253.1c1.1,0,2.1,0.2,3,0.5c0.9,0.4,1.7,0.9,2.4,1.5c0.7,0.7,1.2,1.5,1.6,2.5c0.4,1,0.6,2.1,0.6,3.4
				c0,0.3,0,0.6,0,0.8s-0.1,0.4-0.2,0.5c-0.1,0.1-0.2,0.2-0.3,0.3s-0.3,0.1-0.5,0.1h-10.8c0.1,1.8,0.6,3.1,1.4,3.9
				c0.8,0.8,1.9,1.3,3.3,1.3c0.7,0,1.3-0.1,1.8-0.2c0.5-0.2,0.9-0.3,1.3-0.5s0.7-0.4,1-0.5c0.3-0.2,0.5-0.2,0.8-0.2
				c0.2,0,0.3,0,0.4,0.1s0.2,0.2,0.3,0.3l1.2,1.5c-0.5,0.5-1,1-1.6,1.4s-1.2,0.7-1.8,0.9s-1.3,0.4-1.9,0.5c-0.7,0.1-1.3,0.1-1.9,0.1
				c-1.2,0-2.3-0.2-3.4-0.6c-1-0.4-2-1-2.7-1.8c-0.8-0.8-1.4-1.8-1.8-2.9c-0.4-1.2-0.7-2.5-0.7-4c0-1.2,0.2-2.3,0.6-3.4
				c0.4-1,0.9-2,1.7-2.7c0.7-0.8,1.6-1.4,2.6-1.8S723.2,253.1,724.5,253.1z M724.6,256.1c-1.2,0-2.2,0.3-2.9,1s-1.1,1.7-1.3,2.9h7.9
				c0-0.5-0.1-1.1-0.2-1.5c-0.1-0.5-0.4-0.9-0.7-1.3c-0.3-0.4-0.7-0.6-1.2-0.9C725.7,256.2,725.2,256.1,724.6,256.1z"/>
			<path d="M739.9,245.5v25.3h-4.2v-25.3H739.9z"/>
			<path d="M749.1,245.5v25.3h-4.2v-25.3H749.1z"/>
			<path d="M761.1,253.1c1.1,0,2.1,0.2,3,0.5c0.9,0.4,1.7,0.9,2.4,1.5c0.7,0.7,1.2,1.5,1.6,2.5c0.4,1,0.6,2.1,0.6,3.4
				c0,0.3,0,0.6,0,0.8s-0.1,0.4-0.2,0.5c-0.1,0.1-0.2,0.2-0.3,0.3s-0.3,0.1-0.5,0.1h-10.8c0.1,1.8,0.6,3.1,1.4,3.9
				c0.8,0.8,1.9,1.3,3.3,1.3c0.7,0,1.3-0.1,1.8-0.2c0.5-0.2,0.9-0.3,1.3-0.5s0.7-0.4,1-0.5c0.3-0.2,0.5-0.2,0.8-0.2
				c0.2,0,0.3,0,0.4,0.1s0.2,0.2,0.3,0.3l1.2,1.5c-0.5,0.5-1,1-1.6,1.4s-1.2,0.7-1.8,0.9s-1.3,0.4-1.9,0.5c-0.7,0.1-1.3,0.1-1.9,0.1
				c-1.2,0-2.3-0.2-3.4-0.6c-1-0.4-2-1-2.7-1.8c-0.8-0.8-1.4-1.8-1.8-2.9c-0.4-1.2-0.7-2.5-0.7-4c0-1.2,0.2-2.3,0.6-3.4
				c0.4-1,0.9-2,1.7-2.7c0.7-0.8,1.6-1.4,2.6-1.8S759.8,253.1,761.1,253.1z M761.2,256.1c-1.2,0-2.2,0.3-2.9,1s-1.1,1.7-1.3,2.9h7.9
				c0-0.5-0.1-1.1-0.2-1.5c-0.1-0.5-0.4-0.9-0.7-1.3c-0.3-0.4-0.7-0.6-1.2-0.9C762.3,256.2,761.8,256.1,761.2,256.1z"/>
			<path d="M782.4,256.8c-0.1,0.2-0.2,0.3-0.4,0.4c-0.1,0.1-0.3,0.1-0.5,0.1c-0.2,0-0.4-0.1-0.7-0.2s-0.5-0.2-0.8-0.4
				c-0.3-0.1-0.7-0.3-1-0.4c-0.4-0.1-0.9-0.2-1.4-0.2c-0.8,0-1.5,0.2-2,0.5s-0.7,0.8-0.7,1.4c0,0.4,0.1,0.7,0.4,0.9s0.6,0.5,1,0.7
				s0.9,0.4,1.4,0.5c0.5,0.2,1,0.3,1.6,0.5c0.5,0.2,1.1,0.4,1.6,0.6s1,0.5,1.4,0.9c0.4,0.4,0.7,0.8,1,1.3c0.2,0.5,0.4,1.1,0.4,1.8
				c0,0.8-0.2,1.6-0.5,2.3c-0.3,0.7-0.8,1.3-1.3,1.8c-0.6,0.5-1.3,0.9-2.2,1.2c-0.9,0.3-1.9,0.4-3,0.4c-0.6,0-1.2-0.1-1.8-0.2
				c-0.6-0.1-1.1-0.3-1.6-0.5s-1-0.4-1.5-0.7c-0.4-0.3-0.8-0.5-1.2-0.9l1-1.6c0.1-0.2,0.3-0.3,0.4-0.4c0.2-0.1,0.4-0.2,0.6-0.2
				c0.3,0,0.5,0.1,0.7,0.2c0.2,0.1,0.5,0.3,0.8,0.5c0.3,0.2,0.7,0.3,1.1,0.5s0.9,0.2,1.6,0.2c0.5,0,0.9-0.1,1.3-0.2
				c0.4-0.1,0.7-0.3,0.9-0.5c0.2-0.2,0.4-0.4,0.5-0.7s0.2-0.5,0.2-0.8c0-0.4-0.1-0.7-0.4-1s-0.6-0.5-1-0.7s-0.9-0.4-1.4-0.5
				s-1-0.3-1.6-0.5c-0.5-0.2-1.1-0.4-1.6-0.6c-0.5-0.2-1-0.6-1.4-0.9s-0.7-0.8-1-1.4c-0.2-0.5-0.4-1.2-0.4-2c0-0.7,0.1-1.4,0.4-2
				c0.3-0.6,0.7-1.2,1.2-1.7c0.5-0.5,1.2-0.9,2.1-1.2c0.8-0.3,1.8-0.4,2.8-0.4c1.2,0,2.3,0.2,3.3,0.6c1,0.4,1.8,0.9,2.5,1.6
				L782.4,256.8z"/>
		</g>
	</g>
	<line class="st31" x1="243.4" y1="200.3" x2="439" y2="131"/>
	<line class="st32" x1="326.8" y1="314.9" x2="517.5" y2="220.4"/>
	<line class="st32" x1="578.1" y1="305.6" x2="734.8" y2="329.6"/>
</g>
</svg>
