<?xml version="1.0" encoding="utf-8"?>
<!-- Generator: Adobe Illustrator 22.0.1, SVG Export Plug-In . SVG Version: 6.00 Build 0)  -->
<svg version="1.1" id="Calque_1" xmlns="http://www.w3.org/2000/svg" xmlns:xlink="http://www.w3.org/1999/xlink" x="0px" y="0px"
	 viewBox="0 0 902 152" style="enable-background:new 0 0 902 152;" xml:space="preserve">
<style type="text/css">
	.st0{fill:#00CC66;stroke:#000000;stroke-miterlimit:10;}
	.st1{fill:none;stroke:#000000;stroke-miterlimit:10;}
	.st2{fill:none;stroke:#000000;stroke-width:0.5;stroke-miterlimit:10;}
</style>
<g>
	<rect x="151" y="101" class="st0" width="600" height="50"/>
	<g>
		<path d="M16.9,79.5c0,0.7-0.1,1.4-0.3,1.9c-0.2,0.6-0.4,1.1-0.8,1.4c-0.3,0.4-0.8,0.7-1.3,0.9c-0.5,0.2-1.1,0.3-1.7,0.3
			c-0.6,0-1.2-0.1-1.8-0.3c0-0.2,0-0.3,0-0.5s0-0.3,0.1-0.5c0-0.1,0-0.2,0.1-0.2s0.2-0.1,0.3-0.1c0.1,0,0.3,0,0.4,0.1
			c0.2,0.1,0.4,0.1,0.7,0.1c0.4,0,0.7-0.1,1.1-0.2c0.3-0.1,0.6-0.3,0.8-0.6c0.2-0.3,0.4-0.6,0.5-1c0.1-0.4,0.2-0.9,0.2-1.4v-8.5h1.7
			V79.5z"/>
		<path d="M21.2,74.9v5.8c0,0.7,0.2,1.2,0.5,1.6c0.3,0.4,0.8,0.6,1.4,0.6c0.5,0,0.9-0.1,1.3-0.3c0.4-0.2,0.8-0.5,1.1-0.9v-6.7h1.6
			V84h-1c-0.2,0-0.4-0.1-0.4-0.3l-0.1-1c-0.4,0.4-0.8,0.8-1.3,1.1c-0.5,0.3-1.1,0.4-1.7,0.4c-0.5,0-0.9-0.1-1.3-0.2
			c-0.4-0.2-0.7-0.4-1-0.7c-0.3-0.3-0.5-0.7-0.6-1.1c-0.1-0.4-0.2-0.9-0.2-1.4v-5.8H21.2z"/>
		<path d="M31.9,72c0,0.2,0,0.3-0.1,0.4c-0.1,0.1-0.1,0.3-0.3,0.4s-0.2,0.2-0.4,0.2c-0.1,0.1-0.3,0.1-0.4,0.1c-0.2,0-0.3,0-0.4-0.1
			c-0.1-0.1-0.3-0.1-0.4-0.2s-0.2-0.2-0.2-0.4c-0.1-0.1-0.1-0.3-0.1-0.4c0-0.2,0-0.3,0.1-0.4c0.1-0.1,0.1-0.3,0.2-0.4
			s0.2-0.2,0.4-0.2c0.1-0.1,0.3-0.1,0.4-0.1c0.2,0,0.3,0,0.4,0.1c0.1,0.1,0.3,0.1,0.4,0.2s0.2,0.2,0.3,0.4
			C31.9,71.7,31.9,71.9,31.9,72z M31.6,74.9V84H30v-9.1H31.6z"/>
		<path d="M36.2,70.7V84h-1.6V70.7H36.2z"/>
		<path d="M38.5,83c0-0.2,0-0.3,0.1-0.4c0.1-0.1,0.1-0.3,0.2-0.4c0.1-0.1,0.2-0.2,0.4-0.2c0.1-0.1,0.3-0.1,0.4-0.1
			c0.2,0,0.3,0,0.4,0.1c0.1,0.1,0.3,0.1,0.4,0.2s0.2,0.2,0.2,0.4c0.1,0.1,0.1,0.3,0.1,0.4c0,0.2,0,0.3-0.1,0.4
			c-0.1,0.1-0.1,0.3-0.2,0.4S40.2,84,40,84c-0.1,0.1-0.3,0.1-0.4,0.1c-0.2,0-0.3,0-0.4-0.1c-0.1-0.1-0.3-0.1-0.4-0.2
			c-0.1-0.1-0.2-0.2-0.2-0.4C38.5,83.3,38.5,83.2,38.5,83z"/>
	</g>
	<g>
		<path d="M114.5,73.1c-0.1,0.1-0.1,0.2-0.2,0.2c-0.1,0-0.1,0.1-0.2,0.1c-0.1,0-0.2-0.1-0.4-0.2c-0.1-0.1-0.3-0.2-0.5-0.3
			s-0.5-0.2-0.7-0.3s-0.6-0.2-1.1-0.2c-0.4,0-0.7,0.1-1,0.2c-0.3,0.1-0.6,0.2-0.8,0.4c-0.2,0.2-0.4,0.4-0.5,0.6s-0.2,0.5-0.2,0.8
			c0,0.4,0.1,0.7,0.3,0.9c0.2,0.2,0.4,0.4,0.7,0.6s0.6,0.3,1,0.4c0.4,0.1,0.7,0.3,1.1,0.4c0.4,0.1,0.8,0.3,1.1,0.4
			c0.4,0.2,0.7,0.4,1,0.6s0.5,0.6,0.7,0.9c0.2,0.4,0.3,0.8,0.3,1.4c0,0.6-0.1,1.1-0.3,1.6c-0.2,0.5-0.5,0.9-0.8,1.3
			c-0.4,0.4-0.8,0.7-1.4,0.9s-1.1,0.3-1.8,0.3c-0.8,0-1.6-0.2-2.3-0.5c-0.7-0.3-1.3-0.7-1.8-1.2l0.5-0.8c0-0.1,0.1-0.1,0.2-0.2
			c0.1,0,0.1-0.1,0.2-0.1c0.1,0,0.3,0.1,0.4,0.2c0.2,0.1,0.4,0.3,0.6,0.4c0.2,0.2,0.5,0.3,0.9,0.4c0.3,0.1,0.8,0.2,1.3,0.2
			c0.4,0,0.8-0.1,1.1-0.2c0.3-0.1,0.6-0.3,0.8-0.5s0.4-0.5,0.5-0.7c0.1-0.3,0.2-0.6,0.2-1c0-0.4-0.1-0.7-0.3-1
			c-0.2-0.2-0.4-0.5-0.7-0.6c-0.3-0.2-0.6-0.3-1-0.4c-0.4-0.1-0.7-0.2-1.1-0.4c-0.4-0.1-0.8-0.3-1.1-0.4c-0.4-0.2-0.7-0.4-1-0.6
			c-0.3-0.3-0.5-0.6-0.7-1c-0.2-0.4-0.3-0.9-0.3-1.4c0-0.5,0.1-0.9,0.3-1.3c0.2-0.4,0.4-0.8,0.8-1.1c0.3-0.3,0.8-0.6,1.2-0.8
			c0.5-0.2,1.1-0.3,1.7-0.3c0.7,0,1.4,0.1,2,0.3c0.6,0.2,1.1,0.6,1.6,1L114.5,73.1z"/>
		<path d="M120.7,74.7c0.5,0,1.1,0.1,1.5,0.3s0.9,0.4,1.2,0.8c0.3,0.3,0.6,0.8,0.8,1.3c0.2,0.5,0.3,1.1,0.3,1.7c0,0.3,0,0.4-0.1,0.5
			c-0.1,0.1-0.2,0.1-0.3,0.1h-6.1c0,0.6,0.1,1.1,0.2,1.5c0.1,0.4,0.3,0.8,0.6,1.1s0.6,0.5,0.9,0.6c0.3,0.1,0.7,0.2,1.2,0.2
			c0.4,0,0.7,0,1-0.1c0.3-0.1,0.5-0.2,0.8-0.3c0.2-0.1,0.4-0.2,0.5-0.3c0.1-0.1,0.3-0.1,0.4-0.1c0.1,0,0.2,0.1,0.3,0.2l0.4,0.6
			c-0.2,0.2-0.4,0.4-0.7,0.6c-0.3,0.2-0.6,0.3-0.9,0.4c-0.3,0.1-0.6,0.2-1,0.3c-0.3,0.1-0.7,0.1-1,0.1c-0.6,0-1.2-0.1-1.7-0.3
			c-0.5-0.2-1-0.5-1.4-0.9s-0.7-0.9-0.9-1.5c-0.2-0.6-0.3-1.3-0.3-2.1c0-0.6,0.1-1.2,0.3-1.8c0.2-0.6,0.5-1,0.8-1.4
			c0.4-0.4,0.8-0.7,1.3-1C119.5,74.9,120.1,74.7,120.7,74.7z M120.8,75.9c-0.8,0-1.4,0.2-1.8,0.7c-0.4,0.4-0.7,1.1-0.8,1.9h5
			c0-0.4-0.1-0.7-0.2-1c-0.1-0.3-0.3-0.6-0.4-0.8c-0.2-0.2-0.4-0.4-0.7-0.5C121.5,76,121.1,75.9,120.8,75.9z"/>
		<path d="M126.6,87.1V74.9h1c0.2,0,0.4,0.1,0.4,0.3l0.1,1.1c0.4-0.5,0.8-0.9,1.3-1.1c0.5-0.3,1.1-0.4,1.7-0.4c0.5,0,1,0.1,1.4,0.3
			c0.4,0.2,0.8,0.5,1.1,0.9c0.3,0.4,0.5,0.9,0.7,1.5s0.2,1.3,0.2,2c0,0.7-0.1,1.3-0.3,1.9c-0.2,0.6-0.4,1.1-0.8,1.5
			c-0.3,0.4-0.7,0.8-1.2,1c-0.5,0.2-1,0.4-1.7,0.4c-0.6,0-1-0.1-1.4-0.3c-0.4-0.2-0.8-0.5-1.1-0.8v4H126.6z M130.6,76
			c-0.5,0-1,0.1-1.4,0.4c-0.4,0.2-0.8,0.6-1.1,1v4.4c0.3,0.4,0.6,0.7,1,0.8c0.4,0.2,0.7,0.2,1.2,0.2c0.8,0,1.5-0.3,2-0.9
			c0.5-0.6,0.7-1.5,0.7-2.6c0-0.6-0.1-1.1-0.2-1.5c-0.1-0.4-0.3-0.8-0.5-1c-0.2-0.3-0.4-0.5-0.7-0.6S131,76,130.6,76z"/>
		<path d="M139.3,84.1c-0.7,0-1.3-0.2-1.7-0.6s-0.6-1-0.6-1.7v-5.6h-1.1c-0.1,0-0.2,0-0.2-0.1c-0.1-0.1-0.1-0.1-0.1-0.3v-0.6
			l1.5-0.2l0.4-2.8c0-0.1,0.1-0.2,0.1-0.2c0.1-0.1,0.1-0.1,0.3-0.1h0.8v3.1h2.6v1.2h-2.6v5.5c0,0.4,0.1,0.7,0.3,0.9
			c0.2,0.2,0.4,0.3,0.7,0.3c0.2,0,0.3,0,0.4-0.1c0.1,0,0.2-0.1,0.3-0.1c0.1-0.1,0.2-0.1,0.2-0.1c0.1,0,0.1-0.1,0.2-0.1
			c0.1,0,0.2,0.1,0.2,0.2l0.5,0.8c-0.3,0.3-0.6,0.5-1,0.6C140.1,84.1,139.7,84.1,139.3,84.1z"/>
		<path d="M142.7,83c0-0.2,0-0.3,0.1-0.4c0.1-0.1,0.1-0.3,0.2-0.4c0.1-0.1,0.2-0.2,0.4-0.2c0.1-0.1,0.3-0.1,0.4-0.1
			c0.2,0,0.3,0,0.4,0.1c0.1,0.1,0.3,0.1,0.4,0.2s0.2,0.2,0.2,0.4c0.1,0.1,0.1,0.3,0.1,0.4c0,0.2,0,0.3-0.1,0.4
			c-0.1,0.1-0.1,0.3-0.2,0.4s-0.2,0.2-0.4,0.2c-0.1,0.1-0.3,0.1-0.4,0.1c-0.2,0-0.3,0-0.4-0.1c-0.1-0.1-0.3-0.1-0.4-0.2
			c-0.1-0.1-0.2-0.2-0.2-0.4C142.7,83.3,142.7,83.2,142.7,83z"/>
	</g>
	<g>
		<path d="M172.9,77.6c0,1-0.2,1.9-0.5,2.7c-0.3,0.8-0.7,1.5-1.3,2.1c-0.6,0.6-1.2,1-2,1.4c-0.8,0.3-1.6,0.5-2.6,0.5
			c-0.9,0-1.8-0.2-2.6-0.5c-0.8-0.3-1.4-0.8-2-1.4c-0.6-0.6-1-1.3-1.3-2.1c-0.3-0.8-0.5-1.7-0.5-2.7c0-1,0.2-1.9,0.5-2.7
			c0.3-0.8,0.7-1.5,1.3-2.1s1.2-1,2-1.4c0.8-0.3,1.6-0.5,2.6-0.5c0.9,0,1.8,0.2,2.6,0.5c0.8,0.3,1.5,0.8,2,1.4s1,1.3,1.3,2.1
			S172.9,76.6,172.9,77.6z M171.1,77.6c0-0.8-0.1-1.5-0.3-2.1c-0.2-0.6-0.5-1.2-0.9-1.6s-0.9-0.8-1.4-1c-0.6-0.2-1.2-0.4-1.9-0.4
			c-0.7,0-1.3,0.1-1.9,0.4c-0.6,0.2-1,0.6-1.4,1s-0.7,1-0.9,1.6c-0.2,0.6-0.3,1.3-0.3,2.1s0.1,1.5,0.3,2.1c0.2,0.6,0.5,1.2,0.9,1.6
			c0.4,0.4,0.9,0.8,1.4,1s1.2,0.3,1.9,0.3c0.7,0,1.3-0.1,1.9-0.3s1-0.6,1.4-1c0.4-0.4,0.7-1,0.9-1.6C171,79.1,171.1,78.3,171.1,77.6
			z"/>
		<path d="M181.2,76.5c0,0.1-0.1,0.1-0.1,0.2c0,0-0.1,0.1-0.2,0.1c-0.1,0-0.2,0-0.3-0.1c-0.1-0.1-0.2-0.2-0.4-0.2
			c-0.2-0.1-0.4-0.2-0.6-0.2s-0.5-0.1-0.9-0.1c-0.4,0-0.8,0.1-1.2,0.2c-0.3,0.2-0.6,0.4-0.9,0.7c-0.2,0.3-0.4,0.7-0.5,1.1
			c-0.1,0.4-0.2,0.9-0.2,1.4c0,0.6,0.1,1,0.2,1.5c0.1,0.4,0.3,0.8,0.5,1.1c0.2,0.3,0.5,0.5,0.8,0.7c0.3,0.2,0.7,0.2,1.1,0.2
			c0.4,0,0.7,0,1-0.1c0.3-0.1,0.5-0.2,0.6-0.3s0.3-0.2,0.4-0.3c0.1-0.1,0.2-0.1,0.3-0.1c0.1,0,0.2,0.1,0.3,0.2l0.5,0.6
			c-0.4,0.5-0.9,0.8-1.5,1.1c-0.6,0.2-1.2,0.3-1.9,0.3c-0.6,0-1.1-0.1-1.6-0.3c-0.5-0.2-0.9-0.5-1.3-0.9c-0.4-0.4-0.6-0.9-0.9-1.5
			c-0.2-0.6-0.3-1.2-0.3-2c0-0.7,0.1-1.3,0.3-1.9c0.2-0.6,0.5-1.1,0.8-1.5c0.4-0.4,0.8-0.7,1.3-1c0.5-0.2,1.1-0.4,1.8-0.4
			c0.6,0,1.2,0.1,1.7,0.3c0.5,0.2,0.9,0.5,1.3,0.9L181.2,76.5z"/>
		<path d="M186.2,84.1c-0.7,0-1.3-0.2-1.7-0.6s-0.6-1-0.6-1.7v-5.6h-1.1c-0.1,0-0.2,0-0.2-0.1c-0.1-0.1-0.1-0.1-0.1-0.3v-0.6L184,75
			l0.4-2.8c0-0.1,0.1-0.2,0.1-0.2c0.1-0.1,0.1-0.1,0.3-0.1h0.8v3.1h2.6v1.2h-2.6v5.5c0,0.4,0.1,0.7,0.3,0.9c0.2,0.2,0.4,0.3,0.7,0.3
			c0.2,0,0.3,0,0.4-0.1c0.1,0,0.2-0.1,0.3-0.1c0.1-0.1,0.2-0.1,0.2-0.1c0.1,0,0.1-0.1,0.2-0.1c0.1,0,0.2,0.1,0.2,0.2l0.5,0.8
			c-0.3,0.3-0.6,0.5-1,0.6C187,84.1,186.6,84.1,186.2,84.1z"/>
		<path d="M189.6,83c0-0.2,0-0.3,0.1-0.4c0.1-0.1,0.1-0.3,0.2-0.4c0.1-0.1,0.2-0.2,0.4-0.2c0.1-0.1,0.3-0.1,0.4-0.1
			c0.2,0,0.3,0,0.4,0.1c0.1,0.1,0.3,0.1,0.4,0.2s0.2,0.2,0.2,0.4c0.1,0.1,0.1,0.3,0.1,0.4c0,0.2,0,0.3-0.1,0.4
			c-0.1,0.1-0.1,0.3-0.2,0.4s-0.2,0.2-0.4,0.2c-0.1,0.1-0.3,0.1-0.4,0.1c-0.2,0-0.3,0-0.4-0.1c-0.1-0.1-0.3-0.1-0.4-0.2
			c-0.1-0.1-0.2-0.2-0.2-0.4C189.7,83.3,189.6,83.2,189.6,83z"/>
	</g>
	<g>
		<path d="M211.2,71.2c0.1,0,0.2,0.1,0.3,0.2l7.5,9.7c0-0.2,0-0.3,0-0.5s0-0.3,0-0.4v-9.1h1.5V84h-0.9c-0.1,0-0.3,0-0.3-0.1
			c-0.1,0-0.2-0.1-0.3-0.2l-7.5-9.7c0,0.1,0,0.3,0,0.4s0,0.3,0,0.4V84H210V71.1h0.9C211,71.1,211.1,71.1,211.2,71.2z"/>
		<path d="M227,74.7c0.7,0,1.3,0.1,1.8,0.3c0.5,0.2,1,0.5,1.4,0.9s0.7,0.9,0.9,1.5c0.2,0.6,0.3,1.2,0.3,1.9c0,0.7-0.1,1.4-0.3,1.9
			c-0.2,0.6-0.5,1.1-0.9,1.5c-0.4,0.4-0.8,0.7-1.4,0.9c-0.5,0.2-1.1,0.3-1.8,0.3s-1.3-0.1-1.8-0.3c-0.5-0.2-1-0.5-1.4-0.9
			c-0.4-0.4-0.7-0.9-0.9-1.5c-0.2-0.6-0.3-1.2-0.3-1.9c0-0.7,0.1-1.4,0.3-1.9c0.2-0.6,0.5-1.1,0.9-1.5s0.8-0.7,1.4-0.9
			C225.7,74.9,226.3,74.7,227,74.7z M227,82.9c0.9,0,1.6-0.3,2-0.9c0.4-0.6,0.7-1.4,0.7-2.5c0-1.1-0.2-1.9-0.7-2.5
			c-0.4-0.6-1.1-0.9-2-0.9c-0.5,0-0.9,0.1-1.2,0.2c-0.3,0.2-0.6,0.4-0.8,0.7s-0.4,0.7-0.5,1.1c-0.1,0.4-0.2,0.9-0.2,1.5
			s0.1,1,0.2,1.4c0.1,0.4,0.3,0.8,0.5,1.1s0.5,0.5,0.8,0.7C226.1,82.8,226.5,82.9,227,82.9z"/>
		<path d="M231.9,74.9h1.3c0.1,0,0.2,0,0.3,0.1s0.1,0.1,0.2,0.2l2.3,5.9c0.1,0.2,0.1,0.4,0.2,0.6c0,0.2,0.1,0.4,0.1,0.6
			c0-0.2,0.1-0.4,0.2-0.6c0.1-0.2,0.1-0.4,0.2-0.6l2.3-5.9c0-0.1,0.1-0.2,0.2-0.2s0.2-0.1,0.3-0.1h1.3l-3.7,9.1h-1.4L231.9,74.9z"/>
		<path d="M240.6,83c0-0.2,0-0.3,0.1-0.4c0.1-0.1,0.1-0.3,0.2-0.4c0.1-0.1,0.2-0.2,0.4-0.2c0.1-0.1,0.3-0.1,0.4-0.1
			c0.2,0,0.3,0,0.4,0.1c0.1,0.1,0.3,0.1,0.4,0.2s0.2,0.2,0.2,0.4c0.1,0.1,0.1,0.3,0.1,0.4c0,0.2,0,0.3-0.1,0.4
			c-0.1,0.1-0.1,0.3-0.2,0.4s-0.2,0.2-0.4,0.2c-0.1,0.1-0.3,0.1-0.4,0.1c-0.2,0-0.3,0-0.4-0.1c-0.1-0.1-0.3-0.1-0.4-0.2
			c-0.1-0.1-0.2-0.2-0.2-0.4C240.6,83.3,240.6,83.2,240.6,83z"/>
	</g>
	<g>
		<path d="M271.1,77.6c0,1-0.2,1.8-0.5,2.6c-0.3,0.8-0.7,1.5-1.3,2c-0.6,0.6-1.2,1-2,1.3s-1.6,0.5-2.6,0.5H260V71.1h4.8
			c0.9,0,1.8,0.2,2.6,0.5s1.4,0.7,2,1.3c0.6,0.6,1,1.2,1.3,2C271,75.7,271.1,76.6,271.1,77.6z M269.3,77.6c0-0.8-0.1-1.5-0.3-2.1
			c-0.2-0.6-0.5-1.2-0.9-1.6c-0.4-0.4-0.9-0.8-1.4-1s-1.2-0.3-1.9-0.3h-3.1v10.1h3.1c0.7,0,1.3-0.1,1.9-0.3s1-0.6,1.4-1
			c0.4-0.4,0.7-1,0.9-1.6C269.2,79.1,269.3,78.3,269.3,77.6z"/>
		<path d="M276.9,74.7c0.5,0,1.1,0.1,1.5,0.3s0.9,0.4,1.2,0.8c0.3,0.3,0.6,0.8,0.8,1.3c0.2,0.5,0.3,1.1,0.3,1.7c0,0.3,0,0.4-0.1,0.5
			c-0.1,0.1-0.2,0.1-0.3,0.1h-6.1c0,0.6,0.1,1.1,0.2,1.5c0.1,0.4,0.3,0.8,0.6,1.1s0.6,0.5,0.9,0.6c0.3,0.1,0.7,0.2,1.2,0.2
			c0.4,0,0.7,0,1-0.1c0.3-0.1,0.5-0.2,0.8-0.3c0.2-0.1,0.4-0.2,0.5-0.3c0.1-0.1,0.3-0.1,0.4-0.1c0.1,0,0.2,0.1,0.3,0.2l0.4,0.6
			c-0.2,0.2-0.4,0.4-0.7,0.6c-0.3,0.2-0.6,0.3-0.9,0.4c-0.3,0.1-0.6,0.2-1,0.3c-0.3,0.1-0.7,0.1-1,0.1c-0.6,0-1.2-0.1-1.7-0.3
			c-0.5-0.2-1-0.5-1.4-0.9s-0.7-0.9-0.9-1.5c-0.2-0.6-0.3-1.3-0.3-2.1c0-0.6,0.1-1.2,0.3-1.8c0.2-0.6,0.5-1,0.8-1.4
			c0.4-0.4,0.8-0.7,1.3-1C275.6,74.9,276.2,74.7,276.9,74.7z M276.9,75.9c-0.8,0-1.4,0.2-1.8,0.7c-0.4,0.4-0.7,1.1-0.8,1.9h5
			c0-0.4-0.1-0.7-0.2-1c-0.1-0.3-0.3-0.6-0.4-0.8c-0.2-0.2-0.4-0.4-0.7-0.5C277.6,76,277.3,75.9,276.9,75.9z M279.5,71l-2.1,2.3
			c-0.1,0.1-0.2,0.2-0.2,0.2s-0.2,0.1-0.3,0.1h-1l1.3-2.2c0.1-0.1,0.2-0.2,0.3-0.3s0.2-0.1,0.4-0.1H279.5z"/>
		<path d="M288.9,76.5c0,0.1-0.1,0.1-0.1,0.2c0,0-0.1,0.1-0.2,0.1c-0.1,0-0.2,0-0.3-0.1c-0.1-0.1-0.2-0.2-0.4-0.2
			c-0.2-0.1-0.4-0.2-0.6-0.2s-0.5-0.1-0.9-0.1c-0.4,0-0.8,0.1-1.2,0.2c-0.3,0.2-0.6,0.4-0.9,0.7c-0.2,0.3-0.4,0.7-0.5,1.1
			c-0.1,0.4-0.2,0.9-0.2,1.4c0,0.6,0.1,1,0.2,1.5c0.1,0.4,0.3,0.8,0.5,1.1c0.2,0.3,0.5,0.5,0.8,0.7c0.3,0.2,0.7,0.2,1.1,0.2
			c0.4,0,0.7,0,1-0.1c0.3-0.1,0.5-0.2,0.6-0.3s0.3-0.2,0.4-0.3c0.1-0.1,0.2-0.1,0.3-0.1c0.1,0,0.2,0.1,0.3,0.2l0.5,0.6
			c-0.4,0.5-0.9,0.8-1.5,1.1c-0.6,0.2-1.2,0.3-1.9,0.3c-0.6,0-1.1-0.1-1.6-0.3c-0.5-0.2-0.9-0.5-1.3-0.9c-0.4-0.4-0.6-0.9-0.9-1.5
			c-0.2-0.6-0.3-1.2-0.3-2c0-0.7,0.1-1.3,0.3-1.9c0.2-0.6,0.5-1.1,0.8-1.5c0.4-0.4,0.8-0.7,1.3-1c0.5-0.2,1.1-0.4,1.8-0.4
			c0.6,0,1.2,0.1,1.7,0.3c0.5,0.2,0.9,0.5,1.3,0.9L288.9,76.5z"/>
		<path d="M290.6,83c0-0.2,0-0.3,0.1-0.4c0.1-0.1,0.1-0.3,0.2-0.4c0.1-0.1,0.2-0.2,0.4-0.2c0.1-0.1,0.3-0.1,0.4-0.1
			c0.2,0,0.3,0,0.4,0.1c0.1,0.1,0.3,0.1,0.4,0.2s0.2,0.2,0.2,0.4c0.1,0.1,0.1,0.3,0.1,0.4c0,0.2,0,0.3-0.1,0.4
			c-0.1,0.1-0.1,0.3-0.2,0.4s-0.2,0.2-0.4,0.2c-0.1,0.1-0.3,0.1-0.4,0.1c-0.2,0-0.3,0-0.4-0.1c-0.1-0.1-0.3-0.1-0.4-0.2
			c-0.1-0.1-0.2-0.2-0.2-0.4C290.6,83.3,290.6,83.2,290.6,83z"/>
	</g>
	<g>
		<path d="M66.8,84h-1.3c-0.2,0-0.3,0-0.4-0.1c-0.1-0.1-0.2-0.2-0.2-0.3l-1.2-3.1h-5.8l-1.2,3.1c0,0.1-0.1,0.2-0.2,0.3
			S56.2,84,56,84h-1.4l5.2-12.9h1.8L66.8,84z M58.3,79.2h4.8l-2-5.2c-0.1-0.3-0.3-0.7-0.4-1.2c-0.1,0.2-0.1,0.5-0.2,0.7
			s-0.1,0.4-0.2,0.5L58.3,79.2z"/>
		<path d="M71.9,74.7c0.7,0,1.3,0.1,1.8,0.3c0.5,0.2,1,0.5,1.4,0.9s0.7,0.9,0.9,1.5c0.2,0.6,0.3,1.2,0.3,1.9c0,0.7-0.1,1.4-0.3,1.9
			c-0.2,0.6-0.5,1.1-0.9,1.5c-0.4,0.4-0.8,0.7-1.4,0.9c-0.5,0.2-1.1,0.3-1.8,0.3S70.6,84,70,83.8c-0.5-0.2-1-0.5-1.4-0.9
			c-0.4-0.4-0.7-0.9-0.9-1.5c-0.2-0.6-0.3-1.2-0.3-1.9c0-0.7,0.1-1.4,0.3-1.9c0.2-0.6,0.5-1.1,0.9-1.5s0.8-0.7,1.4-0.9
			C70.6,74.9,71.2,74.7,71.9,74.7z M71.9,82.9c0.9,0,1.6-0.3,2-0.9c0.4-0.6,0.7-1.4,0.7-2.5c0-1.1-0.2-1.9-0.7-2.5
			c-0.4-0.6-1.1-0.9-2-0.9c-0.5,0-0.9,0.1-1.2,0.2c-0.3,0.2-0.6,0.4-0.8,0.7s-0.4,0.7-0.5,1.1c-0.1,0.4-0.2,0.9-0.2,1.5
			s0.1,1,0.2,1.4c0.1,0.4,0.3,0.8,0.5,1.1s0.5,0.5,0.8,0.7C71,82.8,71.4,82.9,71.9,82.9z"/>
		<path d="M79.6,74.9v5.8c0,0.7,0.2,1.2,0.5,1.6c0.3,0.4,0.8,0.6,1.4,0.6c0.5,0,0.9-0.1,1.3-0.3c0.4-0.2,0.8-0.5,1.1-0.9v-6.7h1.6
			V84h-1c-0.2,0-0.4-0.1-0.4-0.3l-0.1-1c-0.4,0.4-0.8,0.8-1.3,1.1c-0.5,0.3-1.1,0.4-1.7,0.4c-0.5,0-0.9-0.1-1.3-0.2
			c-0.4-0.2-0.7-0.4-1-0.7c-0.3-0.3-0.5-0.7-0.6-1.1C78,81.7,78,81.2,78,80.7v-5.8H79.6z M84.6,73.5h-1.1c-0.1,0-0.2,0-0.4-0.1
			L82,72.2l-0.2-0.2l-0.1,0.2l-1.2,1.1c0,0-0.1,0.1-0.2,0.1s-0.1,0-0.2,0h-1.1l2-2.4h1.5L84.6,73.5z"/>
		<path d="M90.9,84.1c-0.7,0-1.3-0.2-1.7-0.6s-0.6-1-0.6-1.7v-5.6h-1.1c-0.1,0-0.2,0-0.2-0.1c-0.1-0.1-0.1-0.1-0.1-0.3v-0.6l1.5-0.2
			l0.4-2.8c0-0.1,0.1-0.2,0.1-0.2c0.1-0.1,0.1-0.1,0.3-0.1h0.8v3.1h2.6v1.2h-2.6v5.5c0,0.4,0.1,0.7,0.3,0.9c0.2,0.2,0.4,0.3,0.7,0.3
			c0.2,0,0.3,0,0.4-0.1c0.1,0,0.2-0.1,0.3-0.1c0.1-0.1,0.2-0.1,0.2-0.1c0.1,0,0.1-0.1,0.2-0.1c0.1,0,0.2,0.1,0.2,0.2l0.5,0.8
			c-0.3,0.3-0.6,0.5-1,0.6C91.8,84.1,91.4,84.1,90.9,84.1z"/>
		<path d="M94.4,83c0-0.2,0-0.3,0.1-0.4c0.1-0.1,0.1-0.3,0.2-0.4c0.1-0.1,0.2-0.2,0.4-0.2c0.1-0.1,0.3-0.1,0.4-0.1
			c0.2,0,0.3,0,0.4,0.1c0.1,0.1,0.3,0.1,0.4,0.2s0.2,0.2,0.2,0.4c0.1,0.1,0.1,0.3,0.1,0.4c0,0.2,0,0.3-0.1,0.4
			c-0.1,0.1-0.1,0.3-0.2,0.4S96.1,84,95.9,84c-0.1,0.1-0.3,0.1-0.4,0.1c-0.2,0-0.3,0-0.4-0.1c-0.1-0.1-0.3-0.1-0.4-0.2
			c-0.1-0.1-0.2-0.2-0.2-0.4C94.4,83.3,94.4,83.2,94.4,83z"/>
	</g>
	<g>
		<path d="M616.9,79.5c0,0.7-0.1,1.4-0.3,1.9c-0.2,0.6-0.4,1.1-0.8,1.4c-0.3,0.4-0.8,0.7-1.3,0.9c-0.5,0.2-1.1,0.3-1.7,0.3
			c-0.6,0-1.2-0.1-1.8-0.3c0-0.2,0-0.3,0-0.5s0-0.3,0.1-0.5c0-0.1,0-0.2,0.1-0.2c0.1-0.1,0.2-0.1,0.3-0.1c0.1,0,0.3,0,0.4,0.1
			s0.4,0.1,0.7,0.1c0.4,0,0.7-0.1,1.1-0.2c0.3-0.1,0.6-0.3,0.8-0.6c0.2-0.3,0.4-0.6,0.5-1s0.2-0.9,0.2-1.4v-8.5h1.7V79.5z"/>
		<path d="M621.2,74.9v5.8c0,0.7,0.2,1.2,0.5,1.6c0.3,0.4,0.8,0.6,1.4,0.6c0.5,0,0.9-0.1,1.3-0.3c0.4-0.2,0.8-0.5,1.1-0.9v-6.7h1.6
			V84h-1c-0.2,0-0.4-0.1-0.4-0.3l-0.1-1c-0.4,0.4-0.8,0.8-1.3,1.1c-0.5,0.3-1.1,0.4-1.7,0.4c-0.5,0-0.9-0.1-1.3-0.2s-0.7-0.4-1-0.7
			c-0.3-0.3-0.5-0.7-0.6-1.1c-0.1-0.4-0.2-0.9-0.2-1.4v-5.8H621.2z"/>
		<path d="M631.9,72c0,0.2,0,0.3-0.1,0.4c-0.1,0.1-0.1,0.3-0.3,0.4c-0.1,0.1-0.2,0.2-0.4,0.2c-0.1,0.1-0.3,0.1-0.4,0.1
			c-0.2,0-0.3,0-0.4-0.1s-0.3-0.1-0.4-0.2s-0.2-0.2-0.2-0.4c-0.1-0.1-0.1-0.3-0.1-0.4c0-0.2,0-0.3,0.1-0.4c0.1-0.1,0.1-0.3,0.2-0.4
			s0.2-0.2,0.4-0.2s0.3-0.1,0.4-0.1c0.2,0,0.3,0,0.4,0.1c0.1,0.1,0.3,0.1,0.4,0.2c0.1,0.1,0.2,0.2,0.3,0.4
			C631.9,71.7,631.9,71.9,631.9,72z M631.6,74.9V84H630v-9.1H631.6z"/>
		<path d="M636.2,70.7V84h-1.6V70.7H636.2z"/>
		<path d="M638.5,83c0-0.2,0-0.3,0.1-0.4c0.1-0.1,0.1-0.3,0.2-0.4s0.2-0.2,0.4-0.2c0.1-0.1,0.3-0.1,0.4-0.1c0.2,0,0.3,0,0.4,0.1
			c0.1,0.1,0.3,0.1,0.4,0.2s0.2,0.2,0.2,0.4c0.1,0.1,0.1,0.3,0.1,0.4c0,0.2,0,0.3-0.1,0.4c-0.1,0.1-0.1,0.3-0.2,0.4S640.2,84,640,84
			c-0.1,0.1-0.3,0.1-0.4,0.1c-0.2,0-0.3,0-0.4-0.1c-0.1-0.1-0.3-0.1-0.4-0.2s-0.2-0.2-0.2-0.4C638.5,83.3,638.5,83.2,638.5,83z"/>
	</g>
	<g>
		<path d="M714.5,73.1c-0.1,0.1-0.1,0.2-0.2,0.2c-0.1,0-0.1,0.1-0.2,0.1c-0.1,0-0.2-0.1-0.4-0.2c-0.1-0.1-0.3-0.2-0.5-0.3
			s-0.5-0.2-0.7-0.3s-0.6-0.2-1.1-0.2c-0.4,0-0.7,0.1-1,0.2c-0.3,0.1-0.6,0.2-0.8,0.4c-0.2,0.2-0.4,0.4-0.5,0.6
			c-0.1,0.2-0.2,0.5-0.2,0.8c0,0.4,0.1,0.7,0.3,0.9c0.2,0.2,0.4,0.4,0.7,0.6s0.6,0.3,1,0.4c0.4,0.1,0.7,0.3,1.1,0.4
			c0.4,0.1,0.8,0.3,1.1,0.4s0.7,0.4,1,0.6s0.5,0.6,0.7,0.9c0.2,0.4,0.3,0.8,0.3,1.4c0,0.6-0.1,1.1-0.3,1.6c-0.2,0.5-0.5,0.9-0.8,1.3
			c-0.4,0.4-0.8,0.7-1.4,0.9s-1.1,0.3-1.8,0.3c-0.8,0-1.6-0.2-2.3-0.5c-0.7-0.3-1.3-0.7-1.8-1.2l0.5-0.8c0-0.1,0.1-0.1,0.2-0.2
			c0.1,0,0.1-0.1,0.2-0.1c0.1,0,0.3,0.1,0.4,0.2c0.2,0.1,0.4,0.3,0.6,0.4c0.2,0.2,0.5,0.3,0.9,0.4c0.3,0.1,0.8,0.2,1.3,0.2
			c0.4,0,0.8-0.1,1.1-0.2c0.3-0.1,0.6-0.3,0.8-0.5c0.2-0.2,0.4-0.5,0.5-0.7c0.1-0.3,0.2-0.6,0.2-1c0-0.4-0.1-0.7-0.3-1
			s-0.4-0.5-0.7-0.6s-0.6-0.3-1-0.4c-0.4-0.1-0.7-0.2-1.1-0.4c-0.4-0.1-0.8-0.3-1.1-0.4c-0.4-0.2-0.7-0.4-1-0.6
			c-0.3-0.3-0.5-0.6-0.7-1c-0.2-0.4-0.3-0.9-0.3-1.4c0-0.5,0.1-0.9,0.3-1.3c0.2-0.4,0.4-0.8,0.8-1.1c0.3-0.3,0.8-0.6,1.2-0.8
			c0.5-0.2,1.1-0.3,1.7-0.3c0.7,0,1.4,0.1,2,0.3c0.6,0.2,1.1,0.6,1.6,1L714.5,73.1z"/>
		<path d="M720.7,74.7c0.5,0,1.1,0.1,1.5,0.3c0.5,0.2,0.9,0.4,1.2,0.8c0.3,0.3,0.6,0.8,0.8,1.3c0.2,0.5,0.3,1.1,0.3,1.7
			c0,0.3,0,0.4-0.1,0.5c-0.1,0.1-0.2,0.1-0.3,0.1h-6.1c0,0.6,0.1,1.1,0.2,1.5c0.1,0.4,0.3,0.8,0.6,1.1s0.6,0.5,0.9,0.6
			c0.3,0.1,0.7,0.2,1.2,0.2c0.4,0,0.7,0,1-0.1c0.3-0.1,0.5-0.2,0.8-0.3c0.2-0.1,0.4-0.2,0.5-0.3c0.1-0.1,0.3-0.1,0.4-0.1
			c0.1,0,0.2,0.1,0.3,0.2l0.5,0.6c-0.2,0.2-0.4,0.4-0.7,0.6c-0.3,0.2-0.6,0.3-0.9,0.4c-0.3,0.1-0.6,0.2-1,0.3
			c-0.3,0.1-0.7,0.1-1,0.1c-0.6,0-1.2-0.1-1.7-0.3c-0.5-0.2-1-0.5-1.4-0.9s-0.7-0.9-0.9-1.5s-0.3-1.3-0.3-2.1c0-0.6,0.1-1.2,0.3-1.8
			c0.2-0.6,0.5-1,0.8-1.4c0.4-0.4,0.8-0.7,1.3-1C719.5,74.9,720.1,74.7,720.7,74.7z M720.8,75.9c-0.8,0-1.4,0.2-1.8,0.7
			c-0.4,0.4-0.7,1.1-0.8,1.9h5c0-0.4-0.1-0.7-0.2-1c-0.1-0.3-0.3-0.6-0.5-0.8s-0.4-0.4-0.7-0.5C721.5,76,721.1,75.9,720.8,75.9z"/>
		<path d="M726.6,87.1V74.9h1c0.2,0,0.4,0.1,0.4,0.3l0.1,1.1c0.4-0.5,0.8-0.9,1.3-1.1c0.5-0.3,1.1-0.4,1.7-0.4c0.5,0,1,0.1,1.4,0.3
			c0.4,0.2,0.8,0.5,1.1,0.9c0.3,0.4,0.5,0.9,0.7,1.5s0.2,1.3,0.2,2c0,0.7-0.1,1.3-0.3,1.9c-0.2,0.6-0.4,1.1-0.8,1.5
			c-0.3,0.4-0.7,0.8-1.2,1c-0.5,0.2-1,0.4-1.7,0.4c-0.6,0-1-0.1-1.4-0.3c-0.4-0.2-0.8-0.5-1.1-0.8v4H726.6z M730.6,76
			c-0.5,0-1,0.1-1.4,0.4c-0.4,0.2-0.8,0.6-1.1,1v4.4c0.3,0.4,0.6,0.7,1,0.8c0.4,0.2,0.7,0.2,1.2,0.2c0.8,0,1.5-0.3,2-0.9
			c0.5-0.6,0.7-1.5,0.7-2.6c0-0.6-0.1-1.1-0.2-1.5c-0.1-0.4-0.3-0.8-0.5-1c-0.2-0.3-0.4-0.5-0.7-0.6C731.3,76.1,731,76,730.6,76z"/>
		<path d="M739.3,84.1c-0.7,0-1.3-0.2-1.7-0.6s-0.6-1-0.6-1.7v-5.6h-1.1c-0.1,0-0.2,0-0.2-0.1s-0.1-0.1-0.1-0.3v-0.6l1.5-0.2
			l0.4-2.8c0-0.1,0.1-0.2,0.1-0.2c0.1-0.1,0.2-0.1,0.3-0.1h0.8v3.1h2.6v1.2h-2.6v5.5c0,0.4,0.1,0.7,0.3,0.9c0.2,0.2,0.4,0.3,0.7,0.3
			c0.2,0,0.3,0,0.4-0.1c0.1,0,0.2-0.1,0.3-0.1c0.1-0.1,0.2-0.1,0.2-0.1c0.1,0,0.1-0.1,0.2-0.1c0.1,0,0.2,0.1,0.2,0.2l0.5,0.8
			c-0.3,0.3-0.6,0.5-1,0.6C740.1,84.1,739.7,84.1,739.3,84.1z"/>
		<path d="M742.7,83c0-0.2,0-0.3,0.1-0.4c0.1-0.1,0.1-0.3,0.2-0.4c0.1-0.1,0.2-0.2,0.4-0.2c0.1-0.1,0.3-0.1,0.4-0.1s0.3,0,0.4,0.1
			c0.1,0.1,0.3,0.1,0.4,0.2s0.2,0.2,0.2,0.4c0.1,0.1,0.1,0.3,0.1,0.4c0,0.2,0,0.3-0.1,0.4c-0.1,0.1-0.1,0.3-0.2,0.4
			s-0.2,0.2-0.4,0.2c-0.1,0.1-0.3,0.1-0.4,0.1s-0.3,0-0.4-0.1c-0.1-0.1-0.3-0.1-0.4-0.2c-0.1-0.1-0.2-0.2-0.2-0.4
			C742.7,83.3,742.7,83.2,742.7,83z"/>
	</g>
	<g>
		<path d="M772.9,77.6c0,1-0.2,1.9-0.5,2.7c-0.3,0.8-0.7,1.5-1.3,2.1c-0.6,0.6-1.2,1-2,1.4c-0.8,0.3-1.6,0.5-2.6,0.5
			c-0.9,0-1.8-0.2-2.6-0.5c-0.8-0.3-1.4-0.8-2-1.4c-0.6-0.6-1-1.3-1.3-2.1c-0.3-0.8-0.5-1.7-0.5-2.7c0-1,0.2-1.9,0.5-2.7
			s0.7-1.5,1.3-2.1s1.2-1,2-1.4c0.8-0.3,1.6-0.5,2.6-0.5c0.9,0,1.8,0.2,2.6,0.5c0.8,0.3,1.5,0.8,2,1.4s1,1.3,1.3,2.1
			S772.9,76.6,772.9,77.6z M771.1,77.6c0-0.8-0.1-1.5-0.3-2.1c-0.2-0.6-0.5-1.2-0.9-1.6c-0.4-0.4-0.9-0.8-1.4-1
			c-0.6-0.2-1.2-0.4-1.9-0.4c-0.7,0-1.3,0.1-1.9,0.4c-0.6,0.2-1,0.6-1.4,1s-0.7,1-0.9,1.6c-0.2,0.6-0.3,1.3-0.3,2.1s0.1,1.5,0.3,2.1
			c0.2,0.6,0.5,1.2,0.9,1.6c0.4,0.4,0.9,0.8,1.4,1s1.2,0.3,1.9,0.3c0.7,0,1.3-0.1,1.9-0.3c0.6-0.2,1-0.6,1.4-1
			c0.4-0.4,0.7-1,0.9-1.6C771,79.1,771.1,78.3,771.1,77.6z"/>
		<path d="M781.2,76.5c0,0.1-0.1,0.1-0.1,0.2c0,0-0.1,0.1-0.2,0.1s-0.2,0-0.3-0.1c-0.1-0.1-0.2-0.2-0.4-0.2
			c-0.2-0.1-0.4-0.2-0.6-0.2c-0.2-0.1-0.5-0.1-0.8-0.1c-0.4,0-0.8,0.1-1.2,0.2c-0.3,0.2-0.6,0.4-0.9,0.7c-0.2,0.3-0.4,0.7-0.5,1.1
			c-0.1,0.4-0.2,0.9-0.2,1.4c0,0.6,0.1,1,0.2,1.5c0.1,0.4,0.3,0.8,0.5,1.1c0.2,0.3,0.5,0.5,0.8,0.7c0.3,0.2,0.7,0.2,1.1,0.2
			c0.4,0,0.7,0,1-0.1c0.3-0.1,0.5-0.2,0.6-0.3s0.3-0.2,0.4-0.3c0.1-0.1,0.2-0.1,0.3-0.1c0.1,0,0.2,0.1,0.3,0.2l0.5,0.6
			c-0.4,0.5-0.9,0.8-1.5,1.1c-0.6,0.2-1.2,0.3-1.9,0.3c-0.6,0-1.1-0.1-1.6-0.3c-0.5-0.2-0.9-0.5-1.3-0.9c-0.4-0.4-0.6-0.9-0.8-1.5
			c-0.2-0.6-0.3-1.2-0.3-2c0-0.7,0.1-1.3,0.3-1.9c0.2-0.6,0.5-1.1,0.8-1.5s0.8-0.7,1.3-1c0.5-0.2,1.1-0.4,1.8-0.4
			c0.6,0,1.2,0.1,1.7,0.3s0.9,0.5,1.3,0.9L781.2,76.5z"/>
		<path d="M786.2,84.1c-0.7,0-1.3-0.2-1.7-0.6c-0.4-0.4-0.6-1-0.6-1.7v-5.6h-1.1c-0.1,0-0.2,0-0.2-0.1s-0.1-0.1-0.1-0.3v-0.6L784,75
			l0.4-2.8c0-0.1,0.1-0.2,0.1-0.2c0.1-0.1,0.2-0.1,0.3-0.1h0.8v3.1h2.6v1.2h-2.6v5.5c0,0.4,0.1,0.7,0.3,0.9c0.2,0.2,0.4,0.3,0.7,0.3
			c0.2,0,0.3,0,0.4-0.1c0.1,0,0.2-0.1,0.3-0.1c0.1-0.1,0.2-0.1,0.2-0.1c0.1,0,0.1-0.1,0.2-0.1c0.1,0,0.2,0.1,0.2,0.2l0.5,0.8
			c-0.3,0.3-0.6,0.5-1,0.6S786.6,84.1,786.2,84.1z"/>
		<path d="M789.6,83c0-0.2,0-0.3,0.1-0.4c0.1-0.1,0.1-0.3,0.2-0.4c0.1-0.1,0.2-0.2,0.4-0.2c0.1-0.1,0.3-0.1,0.4-0.1s0.3,0,0.4,0.1
			c0.1,0.1,0.3,0.1,0.4,0.2s0.2,0.2,0.2,0.4c0.1,0.1,0.1,0.3,0.1,0.4c0,0.2,0,0.3-0.1,0.4c-0.1,0.1-0.1,0.3-0.2,0.4
			s-0.2,0.2-0.4,0.2c-0.1,0.1-0.3,0.1-0.4,0.1s-0.3,0-0.4-0.1c-0.1-0.1-0.3-0.1-0.4-0.2c-0.1-0.1-0.2-0.2-0.2-0.4
			C789.7,83.3,789.6,83.2,789.6,83z"/>
	</g>
	<g>
		<path d="M811.2,71.2c0.1,0,0.2,0.1,0.3,0.2l7.5,9.7c0-0.2,0-0.3,0-0.5s0-0.3,0-0.4v-9.1h1.5V84h-0.9c-0.1,0-0.3,0-0.3-0.1
			c-0.1,0-0.2-0.1-0.3-0.2l-7.5-9.7c0,0.1,0,0.3,0,0.4s0,0.3,0,0.4V84H810V71.1h0.9C811,71.1,811.1,71.1,811.2,71.2z"/>
		<path d="M827,74.7c0.7,0,1.3,0.1,1.8,0.3c0.5,0.2,1,0.5,1.4,0.9s0.7,0.9,0.9,1.5s0.3,1.2,0.3,1.9c0,0.7-0.1,1.4-0.3,1.9
			c-0.2,0.6-0.5,1.1-0.9,1.5c-0.4,0.4-0.8,0.7-1.4,0.9c-0.5,0.2-1.1,0.3-1.8,0.3s-1.3-0.1-1.8-0.3c-0.5-0.2-1-0.5-1.4-0.9
			c-0.4-0.4-0.7-0.9-0.9-1.5c-0.2-0.6-0.3-1.2-0.3-1.9c0-0.7,0.1-1.4,0.3-1.9c0.2-0.6,0.5-1.1,0.9-1.5s0.8-0.7,1.4-0.9
			C825.7,74.9,826.3,74.7,827,74.7z M827,82.9c0.9,0,1.6-0.3,2-0.9c0.4-0.6,0.7-1.4,0.7-2.5c0-1.1-0.2-1.9-0.7-2.5
			c-0.4-0.6-1.1-0.9-2-0.9c-0.5,0-0.9,0.1-1.2,0.2c-0.3,0.2-0.6,0.4-0.8,0.7s-0.4,0.7-0.5,1.1c-0.1,0.4-0.2,0.9-0.2,1.5
			s0.1,1,0.2,1.4c0.1,0.4,0.3,0.8,0.5,1.1s0.5,0.5,0.8,0.7C826.1,82.8,826.5,82.9,827,82.9z"/>
		<path d="M831.9,74.9h1.3c0.1,0,0.2,0,0.3,0.1s0.1,0.1,0.2,0.2l2.3,5.9c0.1,0.2,0.1,0.4,0.2,0.6c0,0.2,0.1,0.4,0.1,0.6
			c0-0.2,0.1-0.4,0.2-0.6c0.1-0.2,0.1-0.4,0.2-0.6l2.3-5.9c0-0.1,0.1-0.2,0.2-0.2c0.1-0.1,0.2-0.1,0.3-0.1h1.3l-3.7,9.1h-1.4
			L831.9,74.9z"/>
		<path d="M840.6,83c0-0.2,0-0.3,0.1-0.4c0.1-0.1,0.1-0.3,0.2-0.4c0.1-0.1,0.2-0.2,0.4-0.2c0.1-0.1,0.3-0.1,0.4-0.1s0.3,0,0.4,0.1
			c0.1,0.1,0.3,0.1,0.4,0.2c0.1,0.1,0.2,0.2,0.2,0.4c0.1,0.1,0.1,0.3,0.1,0.4c0,0.2,0,0.3-0.1,0.4c-0.1,0.1-0.1,0.3-0.2,0.4
			c-0.1,0.1-0.2,0.2-0.4,0.2c-0.1,0.1-0.3,0.1-0.4,0.1s-0.3,0-0.4-0.1c-0.1-0.1-0.3-0.1-0.4-0.2c-0.1-0.1-0.2-0.2-0.2-0.4
			C840.6,83.3,840.6,83.2,840.6,83z"/>
	</g>
	<g>
		<path d="M871.1,77.6c0,1-0.2,1.8-0.5,2.6c-0.3,0.8-0.7,1.5-1.3,2c-0.6,0.6-1.2,1-2,1.3c-0.8,0.3-1.6,0.5-2.6,0.5H860V71.1h4.8
			c0.9,0,1.8,0.2,2.6,0.5c0.8,0.3,1.4,0.7,2,1.3c0.6,0.6,1,1.2,1.3,2C871,75.7,871.1,76.6,871.1,77.6z M869.3,77.6
			c0-0.8-0.1-1.5-0.3-2.1c-0.2-0.6-0.5-1.2-0.9-1.6c-0.4-0.4-0.9-0.8-1.4-1c-0.6-0.2-1.2-0.3-1.9-0.3h-3.1v10.1h3.1
			c0.7,0,1.3-0.1,1.9-0.3c0.6-0.2,1-0.6,1.4-1c0.4-0.4,0.7-1,0.9-1.6C869.2,79.1,869.3,78.3,869.3,77.6z"/>
		<path d="M876.9,74.7c0.5,0,1.1,0.1,1.5,0.3c0.5,0.2,0.9,0.4,1.2,0.8c0.3,0.3,0.6,0.8,0.8,1.3c0.2,0.5,0.3,1.1,0.3,1.7
			c0,0.3,0,0.4-0.1,0.5c-0.1,0.1-0.2,0.1-0.3,0.1h-6.1c0,0.6,0.1,1.1,0.2,1.5c0.1,0.4,0.3,0.8,0.6,1.1s0.6,0.5,0.9,0.6
			c0.3,0.1,0.7,0.2,1.2,0.2c0.4,0,0.7,0,1-0.1c0.3-0.1,0.5-0.2,0.8-0.3c0.2-0.1,0.4-0.2,0.5-0.3c0.1-0.1,0.3-0.1,0.4-0.1
			c0.1,0,0.2,0.1,0.3,0.2l0.5,0.6c-0.2,0.2-0.4,0.4-0.7,0.6c-0.3,0.2-0.6,0.3-0.9,0.4c-0.3,0.1-0.6,0.2-1,0.3
			c-0.3,0.1-0.7,0.1-1,0.1c-0.6,0-1.2-0.1-1.7-0.3c-0.5-0.2-1-0.5-1.4-0.9s-0.7-0.9-0.9-1.5s-0.3-1.3-0.3-2.1c0-0.6,0.1-1.2,0.3-1.8
			c0.2-0.6,0.5-1,0.8-1.4c0.4-0.4,0.8-0.7,1.3-1C875.6,74.9,876.2,74.7,876.9,74.7z M876.9,75.9c-0.8,0-1.4,0.2-1.8,0.7
			c-0.4,0.4-0.7,1.1-0.8,1.9h5c0-0.4-0.1-0.7-0.2-1c-0.1-0.3-0.3-0.6-0.5-0.8s-0.4-0.4-0.7-0.5C877.6,76,877.3,75.9,876.9,75.9z
			 M879.5,71l-2.1,2.3c-0.1,0.1-0.2,0.2-0.2,0.2s-0.2,0.1-0.3,0.1h-1l1.3-2.2c0.1-0.1,0.2-0.2,0.3-0.3s0.2-0.1,0.4-0.1H879.5z"/>
		<path d="M888.9,76.5c0,0.1-0.1,0.1-0.1,0.2c0,0-0.1,0.1-0.2,0.1c-0.1,0-0.2,0-0.3-0.1c-0.1-0.1-0.2-0.2-0.4-0.2
			c-0.2-0.1-0.4-0.2-0.6-0.2s-0.5-0.1-0.9-0.1c-0.4,0-0.8,0.1-1.2,0.2c-0.3,0.2-0.6,0.4-0.9,0.7c-0.2,0.3-0.4,0.7-0.5,1.1
			c-0.1,0.4-0.2,0.9-0.2,1.4c0,0.6,0.1,1,0.2,1.5c0.1,0.4,0.3,0.8,0.5,1.1c0.2,0.3,0.5,0.5,0.8,0.7c0.3,0.2,0.7,0.2,1.1,0.2
			c0.4,0,0.7,0,1-0.1c0.3-0.1,0.5-0.2,0.6-0.3s0.3-0.2,0.4-0.3c0.1-0.1,0.2-0.1,0.3-0.1c0.1,0,0.2,0.1,0.3,0.2l0.5,0.6
			c-0.4,0.5-0.9,0.8-1.5,1.1c-0.6,0.2-1.2,0.3-1.9,0.3c-0.6,0-1.1-0.1-1.6-0.3c-0.5-0.2-0.9-0.5-1.3-0.9c-0.4-0.4-0.6-0.9-0.9-1.5
			c-0.2-0.6-0.3-1.2-0.3-2c0-0.7,0.1-1.3,0.3-1.9c0.2-0.6,0.5-1.1,0.8-1.5c0.4-0.4,0.8-0.7,1.3-1c0.5-0.2,1.1-0.4,1.8-0.4
			c0.6,0,1.2,0.1,1.7,0.3s0.9,0.5,1.3,0.9L888.9,76.5z"/>
		<path d="M890.6,83c0-0.2,0-0.3,0.1-0.4c0.1-0.1,0.1-0.3,0.2-0.4s0.2-0.2,0.4-0.2c0.1-0.1,0.3-0.1,0.4-0.1c0.2,0,0.3,0,0.4,0.1
			c0.1,0.1,0.3,0.1,0.4,0.2s0.2,0.2,0.2,0.4c0.1,0.1,0.1,0.3,0.1,0.4c0,0.2,0,0.3-0.1,0.4c-0.1,0.1-0.1,0.3-0.2,0.4
			s-0.2,0.2-0.4,0.2c-0.1,0.1-0.3,0.1-0.4,0.1c-0.2,0-0.3,0-0.4-0.1c-0.1-0.1-0.3-0.1-0.4-0.2s-0.2-0.2-0.2-0.4
			C890.6,83.3,890.6,83.2,890.6,83z"/>
	</g>
	<g>
		<path d="M666.8,84h-1.3c-0.2,0-0.3,0-0.4-0.1c-0.1-0.1-0.2-0.2-0.2-0.3l-1.2-3.1h-5.8l-1.2,3.1c0,0.1-0.1,0.2-0.2,0.3
			c-0.1,0.1-0.2,0.1-0.4,0.1h-1.3l5.2-12.9h1.8L666.8,84z M658.3,79.2h4.8l-2-5.2c-0.1-0.3-0.3-0.7-0.4-1.2
			c-0.1,0.2-0.1,0.5-0.2,0.7s-0.1,0.4-0.2,0.5L658.3,79.2z"/>
		<path d="M671.9,74.7c0.7,0,1.3,0.1,1.8,0.3c0.5,0.2,1,0.5,1.4,0.9s0.7,0.9,0.9,1.5c0.2,0.6,0.3,1.2,0.3,1.9c0,0.7-0.1,1.4-0.3,1.9
			c-0.2,0.6-0.5,1.1-0.9,1.5c-0.4,0.4-0.8,0.7-1.4,0.9c-0.5,0.2-1.1,0.3-1.8,0.3s-1.3-0.1-1.8-0.3c-0.5-0.2-1-0.5-1.4-0.9
			c-0.4-0.4-0.7-0.9-0.9-1.5c-0.2-0.6-0.3-1.2-0.3-1.9c0-0.7,0.1-1.4,0.3-1.9c0.2-0.6,0.5-1.1,0.9-1.5c0.4-0.4,0.8-0.7,1.4-0.9
			C670.6,74.9,671.2,74.7,671.9,74.7z M671.9,82.9c0.9,0,1.6-0.3,2-0.9c0.4-0.6,0.7-1.4,0.7-2.5c0-1.1-0.2-1.9-0.7-2.5
			c-0.4-0.6-1.1-0.9-2-0.9c-0.5,0-0.9,0.1-1.2,0.2c-0.3,0.2-0.6,0.4-0.8,0.7c-0.2,0.3-0.4,0.7-0.5,1.1c-0.1,0.4-0.2,0.9-0.2,1.5
			s0.1,1,0.2,1.4c0.1,0.4,0.3,0.8,0.5,1.1c0.2,0.3,0.5,0.5,0.8,0.7C671,82.8,671.4,82.9,671.9,82.9z"/>
		<path d="M679.6,74.9v5.8c0,0.7,0.2,1.2,0.5,1.6c0.3,0.4,0.8,0.6,1.4,0.6c0.5,0,0.9-0.1,1.3-0.3c0.4-0.2,0.8-0.5,1.1-0.9v-6.7h1.6
			V84h-1c-0.2,0-0.4-0.1-0.4-0.3l-0.1-1c-0.4,0.4-0.8,0.8-1.3,1.1c-0.5,0.3-1.1,0.4-1.7,0.4c-0.5,0-0.9-0.1-1.3-0.2s-0.7-0.4-1-0.7
			c-0.3-0.3-0.5-0.7-0.6-1.1c-0.1-0.4-0.2-0.9-0.2-1.4v-5.8H679.6z M684.6,73.5h-1.1c-0.1,0-0.2,0-0.4-0.1l-1.2-1.1l-0.2-0.2
			l-0.1,0.2l-1.2,1.1c0,0-0.1,0.1-0.2,0.1c-0.1,0-0.1,0-0.2,0h-1.1l2-2.4h1.5L684.6,73.5z"/>
		<path d="M690.9,84.1c-0.7,0-1.3-0.2-1.7-0.6c-0.4-0.4-0.6-1-0.6-1.7v-5.6h-1.1c-0.1,0-0.2,0-0.2-0.1c-0.1-0.1-0.1-0.1-0.1-0.3
			v-0.6l1.5-0.2l0.4-2.8c0-0.1,0.1-0.2,0.1-0.2c0.1-0.1,0.1-0.1,0.3-0.1h0.8v3.1h2.6v1.2h-2.6v5.5c0,0.4,0.1,0.7,0.3,0.9
			c0.2,0.2,0.4,0.3,0.7,0.3c0.2,0,0.3,0,0.4-0.1c0.1,0,0.2-0.1,0.3-0.1c0.1-0.1,0.2-0.1,0.2-0.1c0.1,0,0.1-0.1,0.2-0.1
			c0.1,0,0.2,0.1,0.2,0.2l0.5,0.8c-0.3,0.3-0.6,0.5-1,0.6C691.8,84.1,691.4,84.1,690.9,84.1z"/>
		<path d="M694.4,83c0-0.2,0-0.3,0.1-0.4c0.1-0.1,0.1-0.3,0.2-0.4s0.2-0.2,0.4-0.2c0.1-0.1,0.3-0.1,0.4-0.1c0.2,0,0.3,0,0.4,0.1
			c0.1,0.1,0.3,0.1,0.4,0.2s0.2,0.2,0.2,0.4c0.1,0.1,0.1,0.3,0.1,0.4c0,0.2,0,0.3-0.1,0.4c-0.1,0.1-0.1,0.3-0.2,0.4
			s-0.2,0.2-0.4,0.2c-0.1,0.1-0.3,0.1-0.4,0.1c-0.2,0-0.3,0-0.4-0.1c-0.1-0.1-0.3-0.1-0.4-0.2s-0.2-0.2-0.2-0.4
			C694.4,83.3,694.4,83.2,694.4,83z"/>
	</g>
	<g>
		<path d="M316.9,79.5c0,0.7-0.1,1.4-0.3,1.9c-0.2,0.6-0.4,1.1-0.8,1.4c-0.3,0.4-0.8,0.7-1.3,0.9c-0.5,0.2-1.1,0.3-1.7,0.3
			c-0.6,0-1.2-0.1-1.8-0.3c0-0.2,0-0.3,0-0.5s0-0.3,0.1-0.5c0-0.1,0-0.2,0.1-0.2s0.2-0.1,0.3-0.1c0.1,0,0.3,0,0.4,0.1
			c0.2,0.1,0.4,0.1,0.7,0.1c0.4,0,0.7-0.1,1.1-0.2c0.3-0.1,0.6-0.3,0.8-0.6c0.2-0.3,0.4-0.6,0.5-1c0.1-0.4,0.2-0.9,0.2-1.4v-8.5h1.7
			V79.5z"/>
		<path d="M326.5,84h-0.7c-0.2,0-0.3,0-0.4-0.1c-0.1,0-0.2-0.1-0.2-0.3l-0.2-0.8c-0.2,0.2-0.5,0.4-0.7,0.6s-0.5,0.3-0.7,0.4
			c-0.3,0.1-0.5,0.2-0.8,0.3c-0.3,0.1-0.6,0.1-0.9,0.1c-0.4,0-0.7,0-1-0.1s-0.6-0.2-0.8-0.4c-0.2-0.2-0.4-0.5-0.5-0.8
			c-0.1-0.3-0.2-0.7-0.2-1.1c0-0.4,0.1-0.7,0.3-1c0.2-0.3,0.5-0.6,1-0.9s1-0.5,1.7-0.6s1.6-0.2,2.6-0.2v-0.7c0-0.7-0.2-1.3-0.5-1.6
			c-0.3-0.4-0.8-0.5-1.3-0.5c-0.4,0-0.7,0-1,0.1s-0.5,0.2-0.7,0.3c-0.2,0.1-0.4,0.2-0.5,0.3c-0.1,0.1-0.3,0.1-0.4,0.1
			c-0.1,0-0.2,0-0.3-0.1s-0.1-0.1-0.2-0.2l-0.3-0.5c0.5-0.5,1-0.8,1.6-1.1c0.6-0.2,1.2-0.4,1.9-0.4c0.5,0,1,0.1,1.4,0.3
			s0.7,0.4,1,0.7c0.3,0.3,0.5,0.7,0.6,1.1c0.1,0.4,0.2,0.9,0.2,1.4V84z M322.4,83c0.3,0,0.5,0,0.8-0.1s0.5-0.1,0.7-0.2
			s0.4-0.2,0.6-0.4s0.4-0.3,0.6-0.5v-1.9c-0.7,0-1.4,0-1.9,0.1c-0.5,0.1-0.9,0.2-1.3,0.4c-0.3,0.2-0.6,0.3-0.7,0.5s-0.2,0.4-0.2,0.7
			c0,0.2,0,0.4,0.1,0.6c0.1,0.2,0.2,0.3,0.3,0.4s0.3,0.2,0.5,0.2C322,83,322.2,83,322.4,83z"/>
		<path d="M329,84v-9.1h1c0.2,0,0.4,0.1,0.4,0.3l0.1,1c0.4-0.4,0.8-0.8,1.3-1.1c0.5-0.3,1.1-0.4,1.7-0.4c0.5,0,0.9,0.1,1.3,0.2
			c0.4,0.2,0.7,0.4,1,0.7c0.3,0.3,0.4,0.7,0.6,1.1c0.1,0.4,0.2,0.9,0.2,1.4V84h-1.6v-5.8c0-0.7-0.2-1.2-0.5-1.6
			c-0.3-0.4-0.8-0.6-1.4-0.6c-0.5,0-0.9,0.1-1.3,0.3c-0.4,0.2-0.8,0.5-1.1,0.9V84H329z"/>
		<path d="M338.4,83c0-0.2,0-0.3,0.1-0.4c0.1-0.1,0.1-0.3,0.2-0.4c0.1-0.1,0.2-0.2,0.4-0.2c0.1-0.1,0.3-0.1,0.4-0.1
			c0.2,0,0.3,0,0.4,0.1c0.1,0.1,0.3,0.1,0.4,0.2s0.2,0.2,0.2,0.4c0.1,0.1,0.1,0.3,0.1,0.4c0,0.2,0,0.3-0.1,0.4
			c-0.1,0.1-0.1,0.3-0.2,0.4S340.1,84,340,84c-0.1,0.1-0.3,0.1-0.4,0.1c-0.2,0-0.3,0-0.4-0.1c-0.1-0.1-0.3-0.1-0.4-0.2
			c-0.1-0.1-0.2-0.2-0.2-0.4C338.5,83.3,338.4,83.2,338.4,83z"/>
	</g>
	<g>
		<path d="M413.8,79.8c0.1,0.2,0.1,0.3,0.2,0.5c0.1-0.2,0.1-0.3,0.2-0.5s0.1-0.3,0.2-0.5l4.4-7.9c0.1-0.1,0.2-0.2,0.2-0.3
			c0.1,0,0.2,0,0.4,0h1.3V84h-1.5v-9.5c0-0.1,0-0.3,0-0.4s0-0.3,0-0.4l-4.4,8.1c-0.1,0.3-0.4,0.4-0.6,0.4h-0.3
			c-0.3,0-0.5-0.1-0.6-0.4l-4.5-8.1c0,0.2,0,0.3,0,0.5c0,0.2,0,0.3,0,0.4V84h-1.5V71.1h1.3c0.2,0,0.3,0,0.4,0c0.1,0,0.2,0.1,0.2,0.3
			l4.5,7.9C413.6,79.5,413.7,79.6,413.8,79.8z"/>
		<path d="M430.2,84h-0.7c-0.2,0-0.3,0-0.4-0.1c-0.1,0-0.2-0.1-0.2-0.3l-0.2-0.8c-0.2,0.2-0.5,0.4-0.7,0.6s-0.5,0.3-0.7,0.4
			c-0.3,0.1-0.5,0.2-0.8,0.3c-0.3,0.1-0.6,0.1-0.9,0.1c-0.4,0-0.7,0-1-0.1s-0.6-0.2-0.8-0.4c-0.2-0.2-0.4-0.5-0.5-0.8
			c-0.1-0.3-0.2-0.7-0.2-1.1c0-0.4,0.1-0.7,0.3-1c0.2-0.3,0.5-0.6,1-0.9s1-0.5,1.7-0.6s1.6-0.2,2.6-0.2v-0.7c0-0.7-0.2-1.3-0.5-1.6
			c-0.3-0.4-0.8-0.5-1.3-0.5c-0.4,0-0.7,0-1,0.1s-0.5,0.2-0.7,0.3c-0.2,0.1-0.4,0.2-0.5,0.3c-0.1,0.1-0.3,0.1-0.4,0.1
			c-0.1,0-0.2,0-0.3-0.1s-0.1-0.1-0.2-0.2l-0.3-0.5c0.5-0.5,1-0.8,1.6-1.1c0.6-0.2,1.2-0.4,1.9-0.4c0.5,0,1,0.1,1.4,0.3
			s0.7,0.4,1,0.7c0.3,0.3,0.5,0.7,0.6,1.1c0.1,0.4,0.2,0.9,0.2,1.4V84z M426,83c0.3,0,0.5,0,0.8-0.1s0.5-0.1,0.7-0.2
			s0.4-0.2,0.6-0.4s0.4-0.3,0.6-0.5v-1.9c-0.7,0-1.4,0-1.9,0.1c-0.5,0.1-0.9,0.2-1.3,0.4c-0.3,0.2-0.6,0.3-0.7,0.5s-0.2,0.4-0.2,0.7
			c0,0.2,0,0.4,0.1,0.6c0.1,0.2,0.2,0.3,0.3,0.4s0.3,0.2,0.5,0.2C425.6,83,425.8,83,426,83z"/>
		<path d="M432.6,84v-9.1h0.9c0.2,0,0.3,0,0.4,0.1s0.1,0.2,0.1,0.3l0.1,1.4c0.3-0.6,0.7-1.1,1.2-1.5c0.5-0.4,1-0.5,1.6-0.5
			c0.3,0,0.5,0,0.7,0.1s0.4,0.1,0.6,0.2l-0.2,1.2c0,0.1-0.1,0.2-0.3,0.2c-0.1,0-0.2,0-0.4-0.1c-0.2-0.1-0.4-0.1-0.7-0.1
			c-0.6,0-1,0.2-1.4,0.5c-0.4,0.3-0.7,0.8-0.9,1.4V84H432.6z"/>
		<path d="M445.1,76.4c-0.1,0.1-0.2,0.2-0.3,0.2c-0.1,0-0.2,0-0.3-0.1c-0.1-0.1-0.3-0.1-0.4-0.2s-0.4-0.2-0.6-0.2
			c-0.2-0.1-0.5-0.1-0.8-0.1c-0.3,0-0.5,0-0.7,0.1c-0.2,0.1-0.4,0.2-0.6,0.3c-0.2,0.1-0.3,0.3-0.4,0.4c-0.1,0.2-0.1,0.3-0.1,0.5
			c0,0.2,0.1,0.4,0.2,0.6c0.1,0.2,0.3,0.3,0.5,0.4c0.2,0.1,0.5,0.2,0.8,0.3c0.3,0.1,0.6,0.2,0.9,0.3s0.6,0.2,0.9,0.3
			c0.3,0.1,0.5,0.3,0.8,0.4c0.2,0.2,0.4,0.4,0.5,0.7c0.1,0.3,0.2,0.6,0.2,0.9c0,0.4-0.1,0.8-0.2,1.2s-0.4,0.7-0.7,0.9
			c-0.3,0.3-0.7,0.5-1.1,0.6c-0.4,0.1-0.9,0.2-1.5,0.2c-0.6,0-1.2-0.1-1.7-0.3s-1-0.5-1.3-0.8l0.4-0.6c0-0.1,0.1-0.1,0.2-0.2
			s0.2-0.1,0.3-0.1c0.1,0,0.2,0,0.3,0.1s0.3,0.2,0.4,0.3s0.4,0.2,0.6,0.3s0.5,0.1,0.9,0.1c0.3,0,0.6,0,0.8-0.1s0.4-0.2,0.6-0.3
			c0.2-0.1,0.3-0.3,0.3-0.5c0.1-0.2,0.1-0.4,0.1-0.6c0-0.3-0.1-0.5-0.2-0.6c-0.1-0.2-0.3-0.3-0.5-0.4c-0.2-0.1-0.5-0.2-0.8-0.3
			c-0.3-0.1-0.6-0.2-0.9-0.3c-0.3-0.1-0.6-0.2-0.9-0.3c-0.3-0.1-0.5-0.3-0.8-0.5c-0.2-0.2-0.4-0.4-0.5-0.7c-0.1-0.3-0.2-0.6-0.2-1
			c0-0.3,0.1-0.7,0.2-1c0.1-0.3,0.4-0.6,0.6-0.8c0.3-0.2,0.6-0.4,1-0.6c0.4-0.1,0.9-0.2,1.4-0.2c0.6,0,1.1,0.1,1.6,0.3
			c0.5,0.2,0.9,0.4,1.2,0.8L445.1,76.4z"/>
	</g>
	<g>
		<path d="M469.6,84h-1.3c-0.2,0-0.3,0-0.4-0.1c-0.1-0.1-0.2-0.2-0.2-0.3l-1.2-3.1h-5.8l-1.2,3.1c0,0.1-0.1,0.2-0.2,0.3
			S459,84,458.8,84h-1.4l5.2-12.9h1.8L469.6,84z M461.1,79.2h4.8l-2-5.2c-0.1-0.3-0.3-0.7-0.4-1.2c-0.1,0.2-0.1,0.5-0.2,0.7
			s-0.1,0.4-0.2,0.5L461.1,79.2z"/>
		<path d="M469.1,74.9h1.3c0.1,0,0.2,0,0.3,0.1s0.1,0.1,0.2,0.2l2.3,5.9c0.1,0.2,0.1,0.4,0.2,0.6c0,0.2,0.1,0.4,0.1,0.6
			c0-0.2,0.1-0.4,0.2-0.6c0.1-0.2,0.1-0.4,0.2-0.6l2.3-5.9c0-0.1,0.1-0.2,0.2-0.2s0.2-0.1,0.3-0.1h1.3l-3.7,9.1h-1.4L469.1,74.9z"/>
		<path d="M479.4,84v-9.1h0.9c0.2,0,0.3,0,0.4,0.1s0.1,0.2,0.1,0.3l0.1,1.4c0.3-0.6,0.7-1.1,1.2-1.5c0.5-0.4,1-0.5,1.6-0.5
			c0.3,0,0.5,0,0.7,0.1s0.4,0.1,0.6,0.2l-0.2,1.2c0,0.1-0.1,0.2-0.3,0.2c-0.1,0-0.2,0-0.4-0.1c-0.2-0.1-0.4-0.1-0.7-0.1
			c-0.6,0-1,0.2-1.4,0.5c-0.4,0.3-0.7,0.8-0.9,1.4V84H479.4z"/>
		<path d="M488.8,72c0,0.2,0,0.3-0.1,0.4c-0.1,0.1-0.1,0.3-0.3,0.4s-0.2,0.2-0.4,0.2c-0.1,0.1-0.3,0.1-0.4,0.1c-0.2,0-0.3,0-0.4-0.1
			c-0.1-0.1-0.3-0.1-0.4-0.2s-0.2-0.2-0.2-0.4c-0.1-0.1-0.1-0.3-0.1-0.4c0-0.2,0-0.3,0.1-0.4c0.1-0.1,0.1-0.3,0.2-0.4
			s0.2-0.2,0.4-0.2c0.1-0.1,0.3-0.1,0.4-0.1c0.2,0,0.3,0,0.4,0.1c0.1,0.1,0.3,0.1,0.4,0.2s0.2,0.2,0.3,0.4
			C488.8,71.7,488.8,71.9,488.8,72z M488.5,74.9V84h-1.6v-9.1H488.5z"/>
		<path d="M493.1,70.7V84h-1.6V70.7H493.1z"/>
	</g>
	<g>
		<path d="M519,79.8c0.1,0.2,0.1,0.3,0.2,0.5c0.1-0.2,0.1-0.3,0.2-0.5s0.1-0.3,0.2-0.5l4.4-7.9c0.1-0.1,0.2-0.2,0.2-0.3
			c0.1,0,0.2,0,0.4,0h1.3V84h-1.5v-9.5c0-0.1,0-0.3,0-0.4s0-0.3,0-0.4l-4.4,8.1c-0.1,0.3-0.4,0.4-0.6,0.4H519
			c-0.3,0-0.5-0.1-0.6-0.4l-4.5-8.1c0,0.2,0,0.3,0,0.5c0,0.2,0,0.3,0,0.4V84h-1.5V71.1h1.3c0.2,0,0.3,0,0.4,0c0.1,0,0.2,0.1,0.2,0.3
			l4.5,7.9C518.8,79.5,518.9,79.6,519,79.8z"/>
		<path d="M535.4,84h-0.7c-0.2,0-0.3,0-0.4-0.1c-0.1,0-0.2-0.1-0.2-0.3l-0.2-0.8c-0.2,0.2-0.5,0.4-0.7,0.6s-0.5,0.3-0.7,0.4
			c-0.3,0.1-0.5,0.2-0.8,0.3c-0.3,0.1-0.6,0.1-0.9,0.1c-0.4,0-0.7,0-1-0.1s-0.6-0.2-0.8-0.4c-0.2-0.2-0.4-0.5-0.5-0.8
			c-0.1-0.3-0.2-0.7-0.2-1.1c0-0.4,0.1-0.7,0.3-1c0.2-0.3,0.5-0.6,1-0.9s1-0.5,1.7-0.6s1.6-0.2,2.6-0.2v-0.7c0-0.7-0.2-1.3-0.5-1.6
			c-0.3-0.4-0.8-0.5-1.3-0.5c-0.4,0-0.7,0-1,0.1s-0.5,0.2-0.7,0.3c-0.2,0.1-0.4,0.2-0.5,0.3c-0.1,0.1-0.3,0.1-0.4,0.1
			c-0.1,0-0.2,0-0.3-0.1s-0.1-0.1-0.2-0.2l-0.3-0.5c0.5-0.5,1-0.8,1.6-1.1c0.6-0.2,1.2-0.4,1.9-0.4c0.5,0,1,0.1,1.4,0.3
			s0.7,0.4,1,0.7c0.3,0.3,0.5,0.7,0.6,1.1c0.1,0.4,0.2,0.9,0.2,1.4V84z M531.3,83c0.3,0,0.5,0,0.8-0.1s0.5-0.1,0.7-0.2
			s0.4-0.2,0.6-0.4s0.4-0.3,0.6-0.5v-1.9c-0.7,0-1.4,0-1.9,0.1c-0.5,0.1-0.9,0.2-1.3,0.4c-0.3,0.2-0.6,0.3-0.7,0.5s-0.2,0.4-0.2,0.7
			c0,0.2,0,0.4,0.1,0.6c0.1,0.2,0.2,0.3,0.3,0.4s0.3,0.2,0.5,0.2C530.9,83,531.1,83,531.3,83z"/>
		<path d="M540,72c0,0.2,0,0.3-0.1,0.4c-0.1,0.1-0.1,0.3-0.3,0.4s-0.2,0.2-0.4,0.2c-0.1,0.1-0.3,0.1-0.4,0.1c-0.2,0-0.3,0-0.4-0.1
			c-0.1-0.1-0.3-0.1-0.4-0.2s-0.2-0.2-0.2-0.4c-0.1-0.1-0.1-0.3-0.1-0.4c0-0.2,0-0.3,0.1-0.4c0.1-0.1,0.1-0.3,0.2-0.4
			s0.2-0.2,0.4-0.2c0.1-0.1,0.3-0.1,0.4-0.1c0.2,0,0.3,0,0.4,0.1c0.1,0.1,0.3,0.1,0.4,0.2s0.2,0.2,0.3,0.4C540,71.7,540,71.9,540,72
			z M539.6,74.9V84H538v-9.1H539.6z"/>
	</g>
	<g>
		<path d="M566.1,79.5c0,0.7-0.1,1.4-0.3,1.9c-0.2,0.6-0.4,1.1-0.8,1.4c-0.3,0.4-0.8,0.7-1.3,0.9c-0.5,0.2-1.1,0.3-1.7,0.3
			c-0.6,0-1.2-0.1-1.8-0.3c0-0.2,0-0.3,0-0.5s0-0.3,0.1-0.5c0-0.1,0-0.2,0.1-0.2s0.2-0.1,0.3-0.1c0.1,0,0.3,0,0.4,0.1
			c0.2,0.1,0.4,0.1,0.7,0.1c0.4,0,0.7-0.1,1.1-0.2c0.3-0.1,0.6-0.3,0.8-0.6c0.2-0.3,0.4-0.6,0.5-1c0.1-0.4,0.2-0.9,0.2-1.4v-8.5h1.7
			V79.5z"/>
		<path d="M570.4,74.9v5.8c0,0.7,0.2,1.2,0.5,1.6c0.3,0.4,0.8,0.6,1.4,0.6c0.5,0,0.9-0.1,1.3-0.3c0.4-0.2,0.8-0.5,1.1-0.9v-6.7h1.6
			V84h-1c-0.2,0-0.4-0.1-0.4-0.3l-0.1-1c-0.4,0.4-0.8,0.8-1.3,1.1c-0.5,0.3-1.1,0.4-1.7,0.4c-0.5,0-0.9-0.1-1.3-0.2
			c-0.4-0.2-0.7-0.4-1-0.7c-0.3-0.3-0.5-0.7-0.6-1.1c-0.1-0.4-0.2-0.9-0.2-1.4v-5.8H570.4z"/>
		<path d="M581.1,72c0,0.2,0,0.3-0.1,0.4c-0.1,0.1-0.1,0.3-0.3,0.4s-0.2,0.2-0.4,0.2c-0.1,0.1-0.3,0.1-0.4,0.1c-0.2,0-0.3,0-0.4-0.1
			c-0.1-0.1-0.3-0.1-0.4-0.2s-0.2-0.2-0.2-0.4c-0.1-0.1-0.1-0.3-0.1-0.4c0-0.2,0-0.3,0.1-0.4c0.1-0.1,0.1-0.3,0.2-0.4
			s0.2-0.2,0.4-0.2c0.1-0.1,0.3-0.1,0.4-0.1c0.2,0,0.3,0,0.4,0.1c0.1,0.1,0.3,0.1,0.4,0.2s0.2,0.2,0.3,0.4
			C581.1,71.7,581.1,71.9,581.1,72z M580.8,74.9V84h-1.6v-9.1H580.8z"/>
		<path d="M583.6,84v-9.1h1c0.2,0,0.4,0.1,0.4,0.3l0.1,1c0.4-0.4,0.8-0.8,1.3-1.1c0.5-0.3,1.1-0.4,1.7-0.4c0.5,0,0.9,0.1,1.3,0.2
			c0.4,0.2,0.7,0.4,1,0.7c0.3,0.3,0.4,0.7,0.6,1.1c0.1,0.4,0.2,0.9,0.2,1.4V84h-1.6v-5.8c0-0.7-0.2-1.2-0.5-1.6
			c-0.3-0.4-0.8-0.6-1.4-0.6c-0.5,0-0.9,0.1-1.3,0.3c-0.4,0.2-0.8,0.5-1.1,0.9V84H583.6z"/>
	</g>
	<g>
		<path d="M370.2,71.1v1.4H364V77h5.3v1.4H364V84h-1.8V71.1H370.2z"/>
		<path d="M375.2,74.7c0.5,0,1.1,0.1,1.5,0.3s0.9,0.4,1.2,0.8c0.3,0.3,0.6,0.8,0.8,1.3c0.2,0.5,0.3,1.1,0.3,1.7c0,0.3,0,0.4-0.1,0.5
			c-0.1,0.1-0.2,0.1-0.3,0.1h-6.1c0,0.6,0.1,1.1,0.2,1.5c0.1,0.4,0.3,0.8,0.6,1.1s0.6,0.5,0.9,0.6c0.3,0.1,0.7,0.2,1.2,0.2
			c0.4,0,0.7,0,1-0.1c0.3-0.1,0.5-0.2,0.8-0.3c0.2-0.1,0.4-0.2,0.5-0.3c0.1-0.1,0.3-0.1,0.4-0.1c0.1,0,0.2,0.1,0.3,0.2l0.4,0.6
			c-0.2,0.2-0.4,0.4-0.7,0.6c-0.3,0.2-0.6,0.3-0.9,0.4c-0.3,0.1-0.6,0.2-1,0.3c-0.3,0.1-0.7,0.1-1,0.1c-0.6,0-1.2-0.1-1.7-0.3
			c-0.5-0.2-1-0.5-1.4-0.9s-0.7-0.9-0.9-1.5c-0.2-0.6-0.3-1.3-0.3-2.1c0-0.6,0.1-1.2,0.3-1.8c0.2-0.6,0.5-1,0.8-1.4
			c0.4-0.4,0.8-0.7,1.3-1C373.9,74.9,374.5,74.7,375.2,74.7z M375.2,75.9c-0.8,0-1.4,0.2-1.8,0.7c-0.4,0.4-0.7,1.1-0.8,1.9h5
			c0-0.4-0.1-0.7-0.2-1c-0.1-0.3-0.3-0.6-0.4-0.8c-0.2-0.2-0.4-0.4-0.7-0.5C375.9,76,375.6,75.9,375.2,75.9z M377.8,71l-2.1,2.3
			c-0.1,0.1-0.2,0.2-0.2,0.2s-0.2,0.1-0.3,0.1h-1l1.3-2.2c0.1-0.1,0.2-0.2,0.3-0.3s0.2-0.1,0.4-0.1H377.8z"/>
		<path d="M379.6,74.9h1.3c0.1,0,0.2,0,0.3,0.1s0.1,0.1,0.2,0.2l2.3,5.9c0.1,0.2,0.1,0.4,0.2,0.6c0,0.2,0.1,0.4,0.1,0.6
			c0-0.2,0.1-0.4,0.2-0.6c0.1-0.2,0.1-0.4,0.2-0.6l2.3-5.9c0-0.1,0.1-0.2,0.2-0.2s0.2-0.1,0.3-0.1h1.3l-3.7,9.1h-1.4L379.6,74.9z"/>
		<path d="M388.3,83c0-0.2,0-0.3,0.1-0.4c0.1-0.1,0.1-0.3,0.2-0.4c0.1-0.1,0.2-0.2,0.4-0.2c0.1-0.1,0.3-0.1,0.4-0.1
			c0.2,0,0.3,0,0.4,0.1c0.1,0.1,0.3,0.1,0.4,0.2s0.2,0.2,0.2,0.4c0.1,0.1,0.1,0.3,0.1,0.4c0,0.2,0,0.3-0.1,0.4
			c-0.1,0.1-0.1,0.3-0.2,0.4S390,84,389.8,84c-0.1,0.1-0.3,0.1-0.4,0.1c-0.2,0-0.3,0-0.4-0.1c-0.1-0.1-0.3-0.1-0.4-0.2
			c-0.1-0.1-0.2-0.2-0.2-0.4C388.3,83.3,388.3,83.2,388.3,83z"/>
	</g>
	<g>
		<path d="M130.7,32.1h-1.9c-0.2,0-0.4-0.1-0.5-0.2c-0.1-0.1-0.2-0.2-0.3-0.4l-1-2.7h-5.4l-1,2.7c0,0.1-0.1,0.3-0.3,0.4
			c-0.1,0.1-0.3,0.2-0.5,0.2H118l5.1-13h2.5L130.7,32.1z M122.2,27.2h4.1l-1.6-4.3c-0.1-0.2-0.2-0.4-0.2-0.7
			c-0.1-0.3-0.2-0.5-0.3-0.9c-0.1,0.3-0.2,0.6-0.2,0.9s-0.2,0.5-0.2,0.7L122.2,27.2z"/>
		<path d="M131.9,32.1v-9.2h1.4c0.3,0,0.5,0.1,0.6,0.4l0.2,0.7c0.2-0.2,0.4-0.4,0.6-0.5c0.2-0.2,0.4-0.3,0.7-0.4
			c0.2-0.1,0.5-0.2,0.7-0.3s0.6-0.1,0.9-0.1c0.5,0,1,0.1,1.3,0.3s0.7,0.4,1,0.7s0.5,0.7,0.6,1.1c0.1,0.4,0.2,0.9,0.2,1.4v5.9h-2.2
			v-5.9c0-0.6-0.1-1-0.4-1.3c-0.3-0.3-0.7-0.5-1.2-0.5c-0.4,0-0.7,0.1-1.1,0.3c-0.3,0.2-0.7,0.4-1,0.7v6.7H131.9z"/>
		<path d="M142.1,32.1v-9.2h1.4c0.3,0,0.5,0.1,0.6,0.4l0.2,0.7c0.2-0.2,0.4-0.4,0.6-0.5c0.2-0.2,0.4-0.3,0.7-0.4
			c0.2-0.1,0.5-0.2,0.7-0.3s0.6-0.1,0.9-0.1c0.5,0,1,0.1,1.3,0.3s0.7,0.4,1,0.7s0.5,0.7,0.6,1.1c0.1,0.4,0.2,0.9,0.2,1.4v5.9h-2.2
			v-5.9c0-0.6-0.1-1-0.4-1.3c-0.3-0.3-0.7-0.5-1.2-0.5c-0.4,0-0.7,0.1-1.1,0.3c-0.3,0.2-0.7,0.4-1,0.7v6.7H142.1z"/>
		<path d="M156.2,22.8c0.6,0,1.1,0.1,1.6,0.3c0.5,0.2,0.9,0.5,1.3,0.8c0.4,0.4,0.6,0.8,0.8,1.3c0.2,0.5,0.3,1.1,0.3,1.8
			c0,0.2,0,0.3,0,0.4c0,0.1,0,0.2-0.1,0.3s-0.1,0.1-0.2,0.1c-0.1,0-0.1,0-0.3,0h-5.7c0.1,0.9,0.3,1.6,0.8,2.1c0.4,0.4,1,0.7,1.8,0.7
			c0.4,0,0.7,0,0.9-0.1c0.3-0.1,0.5-0.2,0.7-0.3c0.2-0.1,0.4-0.2,0.5-0.3s0.3-0.1,0.4-0.1c0.1,0,0.2,0,0.2,0.1
			c0.1,0,0.1,0.1,0.2,0.2l0.6,0.8c-0.2,0.3-0.5,0.5-0.8,0.7c-0.3,0.2-0.6,0.4-1,0.5c-0.3,0.1-0.7,0.2-1,0.2c-0.3,0-0.7,0.1-1,0.1
			c-0.6,0-1.2-0.1-1.8-0.3c-0.6-0.2-1-0.5-1.4-0.9c-0.4-0.4-0.7-0.9-1-1.5c-0.2-0.6-0.4-1.3-0.4-2.1c0-0.6,0.1-1.2,0.3-1.8
			c0.2-0.6,0.5-1,0.9-1.4s0.8-0.7,1.4-1C154.8,22.9,155.5,22.8,156.2,22.8z M156.2,24.3c-0.6,0-1.2,0.2-1.5,0.5
			c-0.4,0.4-0.6,0.9-0.7,1.6h4.2c0-0.3,0-0.6-0.1-0.8c-0.1-0.3-0.2-0.5-0.4-0.7c-0.2-0.2-0.4-0.3-0.6-0.5
			C156.8,24.4,156.5,24.3,156.2,24.3z M159.3,19l-2.2,2.3c-0.1,0.1-0.2,0.2-0.3,0.2s-0.2,0.1-0.4,0.1H155l1.3-2.2
			c0.1-0.2,0.2-0.3,0.3-0.4c0.1-0.1,0.3-0.1,0.5-0.1H159.3z"/>
		<path d="M165.8,22.8c0.6,0,1.1,0.1,1.6,0.3c0.5,0.2,0.9,0.5,1.3,0.8c0.4,0.4,0.6,0.8,0.8,1.3c0.2,0.5,0.3,1.1,0.3,1.8
			c0,0.2,0,0.3,0,0.4c0,0.1,0,0.2-0.1,0.3s-0.1,0.1-0.2,0.1c-0.1,0-0.1,0-0.3,0h-5.7c0.1,0.9,0.3,1.6,0.8,2.1c0.4,0.4,1,0.7,1.8,0.7
			c0.4,0,0.7,0,0.9-0.1c0.3-0.1,0.5-0.2,0.7-0.3c0.2-0.1,0.4-0.2,0.5-0.3s0.3-0.1,0.4-0.1c0.1,0,0.2,0,0.2,0.1
			c0.1,0,0.1,0.1,0.2,0.2l0.6,0.8c-0.2,0.3-0.5,0.5-0.8,0.7c-0.3,0.2-0.6,0.4-1,0.5c-0.3,0.1-0.7,0.2-1,0.2c-0.3,0-0.7,0.1-1,0.1
			c-0.6,0-1.2-0.1-1.8-0.3c-0.6-0.2-1-0.5-1.4-0.9c-0.4-0.4-0.7-0.9-1-1.5c-0.2-0.6-0.4-1.3-0.4-2.1c0-0.6,0.1-1.2,0.3-1.8
			c0.2-0.6,0.5-1,0.9-1.4s0.8-0.7,1.4-1C164.5,22.9,165.1,22.8,165.8,22.8z M165.8,24.3c-0.6,0-1.2,0.2-1.5,0.5
			c-0.4,0.4-0.6,0.9-0.7,1.6h4.2c0-0.3,0-0.6-0.1-0.8c-0.1-0.3-0.2-0.5-0.4-0.7c-0.2-0.2-0.4-0.3-0.6-0.5
			C166.4,24.4,166.1,24.3,165.8,24.3z"/>
		<path d="M175.1,32.1v-9.2h1.4c0.3,0,0.5,0.1,0.6,0.4l0.2,0.7c0.2-0.2,0.4-0.4,0.6-0.5c0.2-0.2,0.4-0.3,0.7-0.4
			c0.2-0.1,0.5-0.2,0.7-0.3s0.6-0.1,0.9-0.1c0.5,0,1,0.1,1.3,0.3s0.7,0.4,1,0.7s0.5,0.7,0.6,1.1c0.1,0.4,0.2,0.9,0.2,1.4v5.9h-2.2
			v-5.9c0-0.6-0.1-1-0.4-1.3c-0.3-0.3-0.7-0.5-1.2-0.5c-0.4,0-0.7,0.1-1.1,0.3c-0.3,0.2-0.7,0.4-1,0.7v6.7H175.1z"/>
	</g>
	<g>
		<path d="M595.2,32.1h-1.9c-0.2,0-0.4-0.1-0.5-0.2c-0.1-0.1-0.2-0.2-0.3-0.4l-1-2.7h-5.4l-1,2.7c0,0.1-0.1,0.3-0.3,0.4
			c-0.1,0.1-0.3,0.2-0.5,0.2h-1.9l5.1-13h2.5L595.2,32.1z M586.8,27.2h4.1l-1.6-4.3c-0.1-0.2-0.2-0.4-0.2-0.7
			c-0.1-0.3-0.2-0.5-0.3-0.9c-0.1,0.3-0.2,0.6-0.2,0.9s-0.2,0.5-0.2,0.7L586.8,27.2z"/>
		<path d="M596.4,32.1v-9.2h1.4c0.3,0,0.5,0.1,0.6,0.4l0.2,0.7c0.2-0.2,0.4-0.4,0.6-0.5c0.2-0.2,0.4-0.3,0.7-0.4
			c0.2-0.1,0.5-0.2,0.7-0.3s0.6-0.1,0.9-0.1c0.5,0,1,0.1,1.3,0.3s0.7,0.4,1,0.7s0.5,0.7,0.6,1.1c0.1,0.4,0.2,0.9,0.2,1.4v5.9h-2.2
			v-5.9c0-0.6-0.1-1-0.4-1.3c-0.3-0.3-0.7-0.5-1.2-0.5c-0.4,0-0.7,0.1-1.1,0.3c-0.3,0.2-0.7,0.4-1,0.7v6.7H596.4z"/>
		<path d="M606.7,32.1v-9.2h1.4c0.3,0,0.5,0.1,0.6,0.4l0.2,0.7c0.2-0.2,0.4-0.4,0.6-0.5c0.2-0.2,0.4-0.3,0.7-0.4
			c0.2-0.1,0.5-0.2,0.7-0.3c0.3-0.1,0.6-0.1,0.9-0.1c0.5,0,1,0.1,1.3,0.3c0.4,0.2,0.7,0.4,1,0.7c0.3,0.3,0.5,0.7,0.6,1.1
			s0.2,0.9,0.2,1.4v5.9h-2.2v-5.9c0-0.6-0.1-1-0.4-1.3c-0.3-0.3-0.7-0.5-1.2-0.5c-0.4,0-0.7,0.1-1.1,0.3c-0.3,0.2-0.7,0.4-1,0.7v6.7
			H606.7z"/>
		<path d="M620.7,22.8c0.6,0,1.1,0.1,1.6,0.3c0.5,0.2,0.9,0.5,1.3,0.8c0.4,0.4,0.6,0.8,0.8,1.3c0.2,0.5,0.3,1.1,0.3,1.8
			c0,0.2,0,0.3,0,0.4s0,0.2-0.1,0.3s-0.1,0.1-0.2,0.1c-0.1,0-0.1,0-0.3,0h-5.7c0.1,0.9,0.3,1.6,0.8,2.1c0.4,0.4,1,0.7,1.8,0.7
			c0.4,0,0.7,0,0.9-0.1c0.3-0.1,0.5-0.2,0.7-0.3s0.4-0.2,0.5-0.3s0.3-0.1,0.4-0.1c0.1,0,0.2,0,0.2,0.1c0.1,0,0.1,0.1,0.2,0.2
			l0.6,0.8c-0.2,0.3-0.5,0.5-0.8,0.7s-0.6,0.4-1,0.5c-0.3,0.1-0.7,0.2-1,0.2c-0.3,0-0.7,0.1-1,0.1c-0.6,0-1.2-0.1-1.8-0.3
			c-0.6-0.2-1-0.5-1.4-0.9s-0.7-0.9-1-1.5c-0.2-0.6-0.4-1.3-0.4-2.1c0-0.6,0.1-1.2,0.3-1.8c0.2-0.6,0.5-1,0.9-1.4s0.8-0.7,1.4-1
			C619.4,22.9,620,22.8,620.7,22.8z M620.8,24.3c-0.6,0-1.2,0.2-1.5,0.5c-0.4,0.4-0.6,0.9-0.7,1.6h4.2c0-0.3,0-0.6-0.1-0.8
			c-0.1-0.3-0.2-0.5-0.4-0.7c-0.2-0.2-0.4-0.3-0.6-0.5C621.4,24.4,621.1,24.3,620.8,24.3z M623.9,19l-2.2,2.3
			c-0.1,0.1-0.2,0.2-0.3,0.2c-0.1,0-0.2,0.1-0.4,0.1h-1.3l1.3-2.2c0.1-0.2,0.2-0.3,0.3-0.4c0.1-0.1,0.3-0.1,0.5-0.1H623.9z"/>
		<path d="M630.3,22.8c0.6,0,1.1,0.1,1.6,0.3c0.5,0.2,0.9,0.5,1.3,0.8c0.4,0.4,0.6,0.8,0.8,1.3c0.2,0.5,0.3,1.1,0.3,1.8
			c0,0.2,0,0.3,0,0.4s0,0.2-0.1,0.3s-0.1,0.1-0.2,0.1c-0.1,0-0.1,0-0.3,0h-5.7c0.1,0.9,0.3,1.6,0.8,2.1c0.4,0.4,1,0.7,1.8,0.7
			c0.4,0,0.7,0,0.9-0.1c0.3-0.1,0.5-0.2,0.7-0.3s0.4-0.2,0.5-0.3s0.3-0.1,0.4-0.1c0.1,0,0.2,0,0.2,0.1c0.1,0,0.1,0.1,0.2,0.2
			l0.6,0.8c-0.2,0.3-0.5,0.5-0.8,0.7s-0.6,0.4-1,0.5c-0.3,0.1-0.7,0.2-1,0.2c-0.3,0-0.7,0.1-1,0.1c-0.6,0-1.2-0.1-1.8-0.3
			c-0.6-0.2-1-0.5-1.4-0.9s-0.7-0.9-1-1.5c-0.2-0.6-0.4-1.3-0.4-2.1c0-0.6,0.1-1.2,0.3-1.8c0.2-0.6,0.5-1,0.9-1.4s0.8-0.7,1.4-1
			C629,22.9,629.6,22.8,630.3,22.8z M630.4,24.3c-0.6,0-1.2,0.2-1.5,0.5c-0.4,0.4-0.6,0.9-0.7,1.6h4.2c0-0.3,0-0.6-0.1-0.8
			c-0.1-0.3-0.2-0.5-0.4-0.7c-0.2-0.2-0.4-0.3-0.6-0.5C631,24.4,630.7,24.3,630.4,24.3z"/>
		<path d="M639.6,32.1v-9.2h1.4c0.3,0,0.5,0.1,0.6,0.4l0.2,0.7c0.2-0.2,0.4-0.4,0.6-0.5c0.2-0.2,0.4-0.3,0.7-0.4
			c0.2-0.1,0.5-0.2,0.7-0.3c0.3-0.1,0.6-0.1,0.9-0.1c0.5,0,1,0.1,1.3,0.3c0.4,0.2,0.7,0.4,1,0.7c0.3,0.3,0.5,0.7,0.6,1.1
			c0.1,0.4,0.2,0.9,0.2,1.4v5.9h-2.2v-5.9c0-0.6-0.1-1-0.4-1.3s-0.7-0.5-1.2-0.5c-0.4,0-0.7,0.1-1.1,0.3c-0.3,0.2-0.7,0.4-1,0.7v6.7
			H639.6z"/>
		<path d="M654.8,21.6v3.7h3.5v1.6h-3.5v3.7H653v-3.7h-3.5v-1.6h3.5v-3.7H654.8z"/>
		<path d="M661.5,30.5h2.6v-7.6c0-0.3,0-0.6,0-0.9l-1.9,1.6c-0.1,0.1-0.2,0.1-0.2,0.1c-0.1,0-0.2,0-0.2,0c-0.1,0-0.2,0-0.3-0.1
			c-0.1-0.1-0.2-0.1-0.2-0.2l-0.7-1l4-3.4h1.8v11.4h2.3v1.7h-7.2V30.5z"/>
	</g>
	<rect x="1" y="51" class="st1" width="50" height="50"/>
	<rect x="51" y="51" class="st1" width="50" height="50"/>
	<rect x="101" y="51" class="st1" width="50" height="50"/>
	<rect x="151" y="51" class="st1" width="50" height="50"/>
	<rect x="201" y="51" class="st1" width="50" height="50"/>
	<rect x="251" y="51" class="st1" width="50" height="50"/>
	<rect x="301" y="51" class="st1" width="50" height="50"/>
	<rect x="351" y="51" class="st1" width="50" height="50"/>
	<rect x="401" y="51" class="st1" width="50" height="50"/>
	<rect x="451" y="51" class="st1" width="50" height="50"/>
	<rect x="501" y="51" class="st1" width="50" height="50"/>
	<rect x="551" y="51" class="st1" width="50" height="50"/>
	<rect x="601" y="51" class="st1" width="50" height="50"/>
	<rect x="651" y="51" class="st1" width="50" height="50"/>
	<rect x="701" y="51" class="st1" width="50" height="50"/>
	<rect x="751" y="51" class="st1" width="50" height="50"/>
	<rect x="801" y="51" class="st1" width="50" height="50"/>
	<rect x="851" y="51" class="st1" width="50" height="50"/>
	<rect x="1" y="101" class="st1" width="50" height="50"/>
	<rect x="51" y="101" class="st1" width="50" height="50"/>
	<rect x="101" y="101" class="st1" width="50" height="50"/>
	<rect x="751" y="101" class="st1" width="50" height="50"/>
	<rect x="801" y="101" class="st1" width="50" height="50"/>
	<rect x="851" y="101" class="st1" width="50" height="50"/>
	<rect x="1" y="1" class="st1" width="300" height="50"/>
	<rect x="301" y="1" class="st1" width="600" height="50"/>
	<path class="st2" d="M901,1"/>
	<path class="st2" d="M1,1"/>
</g>
</svg>
