<?xml version="1.0" encoding="utf-8"?>
<!-- Generator: Adobe Illustrator 22.0.1, SVG Export Plug-In . SVG Version: 6.00 Build 0)  -->
<svg version="1.1" id="Calque_1" xmlns="http://www.w3.org/2000/svg" xmlns:xlink="http://www.w3.org/1999/xlink" x="0px" y="0px"
	 viewBox="0 0 1002.6 341" style="enable-background:new 0 0 1002.6 341;" xml:space="preserve">
<style type="text/css">
	.st0{fill:none;stroke:#000000;stroke-width:3;stroke-miterlimit:10;}
	.st1{fill:none;stroke:#000000;stroke-width:3;stroke-miterlimit:10;stroke-dasharray:9.64,9.64;}
	.st2{fill:none;stroke:#000000;stroke-width:3;stroke-miterlimit:10;stroke-dasharray:9.8182,9.8182;}
	.st3{fill:#CC0033;}
	.st4{fill:#FF9900;}
	.st5{fill:#666666;}
	.st6{fill:#00CC66;}
	.st7{fill:none;stroke:#000000;stroke-width:3;stroke-miterlimit:10;stroke-dasharray:10.0952,10.0952;}
</style>
<g>
	<g>
		<polyline class="st0" points="3.8,332.9 3.8,337.9 8.8,337.9 		"/>
		<line class="st1" x1="18.4" y1="337.9" x2="245" y2="337.9"/>
		<polyline class="st0" points="249.8,337.9 254.8,337.9 254.8,332.9 		"/>
		<line class="st2" x1="254.8" y1="323.1" x2="254.8" y2="13.8"/>
		<polyline class="st0" points="254.8,8.9 254.8,3.9 249.8,3.9 		"/>
		<line class="st1" x1="240.2" y1="3.9" x2="13.6" y2="3.9"/>
		<polyline class="st0" points="8.8,3.9 3.8,3.9 3.8,8.9 		"/>
		<line class="st2" x1="3.8" y1="18.7" x2="3.8" y2="328"/>
	</g>
</g>
<g>
	<path class="st3" d="M118.8,15.7l-8.5,29.8H99.1V22.6h-4.8v22.7l-16.1,2l1.3,14.9h-9v15.7h6.2c0,0.3,0,0.7,0,1
		c0,7.9,6.5,14.2,14.2,14.2c7.7,0,14.2-6.2,14.2-14.2c0-2.8-0.8-5.3-2.2-7.5h15.4C119.4,83.7,129.9,93,142,93
		c12.8,0,23.9-10.4,23.9-23.9c0-10.7-7-19.5-16.3-22.6V15.7L118.8,15.7L118.8,15.7z M123.7,21.6H143v23.8c-0.3,0-0.7,0-1,0
		c-2.9,0-5.7,0.5-8.2,1.5l-16.6-1.3L123.7,21.6L123.7,21.6z M142,59.6c6.1,0,9.7,4.5,9.7,9.5c0,5-3.6,9.5-9.7,9.5
		c-6.1,0-9.7-4.5-9.7-9.5C132.3,64.1,135.9,59.6,142,59.6z M90.8,72c4.2,0,7.3,3.2,7.3,6.9s-3.1,6.9-7.3,6.9c-4.2,0-7.3-3.2-7.3-6.9
		S86.6,72,90.8,72z"/>
	<path class="st4" d="M490.8,15.7l-8.5,29.8h-11.2V22.6h-4.8v22.7l-16.1,2l1.3,14.9h-9v15.7h6.2c0,0.3,0,0.7,0,1
		c0,7.9,6.5,14.2,14.2,14.2c7.7,0,14.2-6.2,14.2-14.2c0-2.8-0.8-5.3-2.2-7.5h15.4C491.4,83.7,501.9,93,514,93
		c12.8,0,23.9-10.4,23.9-23.9c0-10.7-7-19.5-16.3-22.6V15.7L490.8,15.7L490.8,15.7z M495.7,21.6H515v23.8c-0.3,0-0.7,0-1,0
		c-2.9,0-5.7,0.5-8.2,1.5l-16.6-1.3L495.7,21.6L495.7,21.6z M514,59.6c6.1,0,9.7,4.5,9.7,9.5c0,5-3.6,9.5-9.7,9.5
		c-6.1,0-9.7-4.5-9.7-9.5C504.3,64.1,507.9,59.6,514,59.6z M462.8,72c4.2,0,7.3,3.2,7.3,6.9s-3.1,6.9-7.3,6.9s-7.3-3.2-7.3-6.9
		S458.6,72,462.8,72z"/>
	<g>
		<path d="M16.7,120.4h1.9c0.2,0,0.4,0.1,0.5,0.2s0.2,0.2,0.3,0.4l4.9,12.1c0.1,0.3,0.2,0.6,0.3,0.9c0.1,0.3,0.2,0.7,0.3,1
			c0.1-0.3,0.1-0.7,0.2-1c0.1-0.3,0.2-0.6,0.3-0.9l4.8-12.1c0.1-0.1,0.2-0.3,0.3-0.4c0.1-0.1,0.3-0.2,0.5-0.2h1.9l-7,17.2h-2.1
			L16.7,120.4z"/>
		<path d="M42.2,137.6h-0.9c-0.2,0-0.4,0-0.5-0.1c-0.1-0.1-0.2-0.2-0.3-0.4l-0.2-1.1c-0.3,0.3-0.6,0.5-0.9,0.8
			c-0.3,0.2-0.6,0.4-1,0.6c-0.3,0.2-0.7,0.3-1.1,0.4c-0.4,0.1-0.8,0.1-1.3,0.1c-0.5,0-0.9-0.1-1.3-0.2c-0.4-0.1-0.8-0.3-1.1-0.6
			c-0.3-0.3-0.5-0.6-0.7-1c-0.2-0.4-0.3-0.9-0.3-1.4c0-0.5,0.1-0.9,0.4-1.4c0.3-0.4,0.7-0.8,1.3-1.2c0.6-0.3,1.4-0.6,2.3-0.8
			s2.1-0.3,3.5-0.3v-1c0-1-0.2-1.7-0.6-2.2c-0.4-0.5-1-0.7-1.8-0.7c-0.5,0-1,0.1-1.3,0.2c-0.4,0.1-0.7,0.3-0.9,0.4s-0.5,0.3-0.7,0.4
			c-0.2,0.1-0.4,0.2-0.6,0.2c-0.1,0-0.3,0-0.4-0.1c-0.1-0.1-0.2-0.2-0.3-0.3l-0.4-0.7c0.7-0.6,1.4-1.1,2.2-1.5
			c0.8-0.3,1.6-0.5,2.6-0.5c0.7,0,1.3,0.1,1.8,0.3c0.5,0.2,1,0.5,1.3,0.9c0.4,0.4,0.6,0.9,0.8,1.5c0.2,0.6,0.3,1.2,0.3,1.9V137.6z
			 M36.6,136.3c0.4,0,0.7,0,1-0.1s0.6-0.2,0.9-0.3c0.3-0.1,0.5-0.3,0.8-0.5c0.3-0.2,0.5-0.4,0.7-0.7v-2.5c-1,0-1.8,0.1-2.5,0.2
			c-0.7,0.1-1.2,0.3-1.7,0.5s-0.7,0.4-0.9,0.7c-0.2,0.3-0.3,0.6-0.3,0.9c0,0.3,0.1,0.6,0.2,0.8s0.2,0.4,0.4,0.6s0.4,0.3,0.6,0.3
			C36.1,136.2,36.3,136.3,36.6,136.3z"/>
		<path d="M45.4,137.6v-12.2h1.2c0.2,0,0.4,0,0.5,0.1c0.1,0.1,0.1,0.2,0.2,0.5l0.1,1.9c0.4-0.8,0.9-1.5,1.5-2
			c0.6-0.5,1.3-0.7,2.2-0.7c0.3,0,0.6,0,0.9,0.1c0.3,0.1,0.5,0.2,0.8,0.3l-0.3,1.6c-0.1,0.2-0.2,0.3-0.4,0.3c-0.1,0-0.3,0-0.5-0.1
			c-0.2-0.1-0.6-0.1-1-0.1c-0.7,0-1.4,0.2-1.9,0.6c-0.5,0.4-0.9,1.1-1.3,1.9v7.7H45.4z"/>
		<path d="M57.9,121.6c0,0.2,0,0.4-0.1,0.6c-0.1,0.2-0.2,0.3-0.3,0.5c-0.1,0.1-0.3,0.3-0.5,0.3c-0.2,0.1-0.4,0.1-0.6,0.1
			s-0.4,0-0.6-0.1c-0.2-0.1-0.3-0.2-0.5-0.3c-0.1-0.1-0.2-0.3-0.3-0.5c-0.1-0.2-0.1-0.4-0.1-0.6c0-0.2,0-0.4,0.1-0.6
			c0.1-0.2,0.2-0.4,0.3-0.5c0.1-0.1,0.3-0.2,0.5-0.3c0.2-0.1,0.4-0.1,0.6-0.1s0.4,0,0.6,0.1c0.2,0.1,0.3,0.2,0.5,0.3
			c0.1,0.1,0.3,0.3,0.3,0.5S57.9,121.4,57.9,121.6z M57.5,125.4v12.2h-2.1v-12.2H57.5z"/>
		<path d="M70.2,137.6h-0.9c-0.2,0-0.4,0-0.5-0.1c-0.1-0.1-0.2-0.2-0.3-0.4l-0.2-1.1c-0.3,0.3-0.6,0.5-0.9,0.8
			c-0.3,0.2-0.6,0.4-1,0.6c-0.3,0.2-0.7,0.3-1.1,0.4c-0.4,0.1-0.8,0.1-1.3,0.1c-0.5,0-0.9-0.1-1.3-0.2c-0.4-0.1-0.8-0.3-1.1-0.6
			c-0.3-0.3-0.5-0.6-0.7-1c-0.2-0.4-0.3-0.9-0.3-1.4c0-0.5,0.1-0.9,0.4-1.4c0.3-0.4,0.7-0.8,1.3-1.2c0.6-0.3,1.4-0.6,2.3-0.8
			c1-0.2,2.1-0.3,3.5-0.3v-1c0-1-0.2-1.7-0.6-2.2c-0.4-0.5-1-0.7-1.8-0.7c-0.5,0-1,0.1-1.3,0.2c-0.4,0.1-0.7,0.3-0.9,0.4
			s-0.5,0.3-0.7,0.4c-0.2,0.1-0.4,0.2-0.6,0.2c-0.1,0-0.3,0-0.4-0.1c-0.1-0.1-0.2-0.2-0.3-0.3l-0.4-0.7c0.7-0.6,1.4-1.1,2.2-1.5
			c0.8-0.3,1.6-0.5,2.6-0.5c0.7,0,1.3,0.1,1.8,0.3c0.5,0.2,1,0.5,1.3,0.9c0.4,0.4,0.6,0.9,0.8,1.5c0.2,0.6,0.3,1.2,0.3,1.9V137.6z
			 M64.6,136.3c0.4,0,0.7,0,1-0.1s0.6-0.2,0.9-0.3c0.3-0.1,0.5-0.3,0.8-0.5c0.3-0.2,0.5-0.4,0.7-0.7v-2.5c-1,0-1.8,0.1-2.5,0.2
			c-0.7,0.1-1.2,0.3-1.7,0.5c-0.4,0.2-0.7,0.4-0.9,0.7c-0.2,0.3-0.3,0.6-0.3,0.9c0,0.3,0.1,0.6,0.2,0.8s0.2,0.4,0.4,0.6
			s0.4,0.3,0.6,0.3C64.1,136.2,64.3,136.3,64.6,136.3z"/>
		<path d="M73.4,137.6v-12.2h1.3c0.3,0,0.5,0.1,0.6,0.4l0.2,1.3c0.5-0.6,1.1-1.1,1.8-1.4c0.7-0.4,1.4-0.5,2.3-0.5
			c0.7,0,1.2,0.1,1.8,0.3c0.5,0.2,0.9,0.5,1.3,0.9c0.3,0.4,0.6,0.9,0.8,1.5c0.2,0.6,0.3,1.2,0.3,1.9v7.7h-2.1v-7.7
			c0-0.9-0.2-1.6-0.6-2.1c-0.4-0.5-1.1-0.8-1.9-0.8c-0.6,0-1.2,0.2-1.8,0.5c-0.5,0.3-1.1,0.7-1.5,1.2v9H73.4z"/>
		<path d="M90.4,137.8c-1,0-1.7-0.3-2.2-0.8c-0.5-0.5-0.8-1.3-0.8-2.3v-7.4H86c-0.1,0-0.2,0-0.3-0.1c-0.1-0.1-0.1-0.2-0.1-0.4v-0.9
			l2-0.3l0.5-3.8c0-0.1,0.1-0.2,0.2-0.3c0.1-0.1,0.2-0.1,0.3-0.1h1.1v4.2H93v1.5h-3.5v7.3c0,0.5,0.1,0.9,0.4,1.1
			c0.2,0.2,0.6,0.4,1,0.4c0.2,0,0.4,0,0.6-0.1s0.3-0.1,0.4-0.2c0.1-0.1,0.2-0.1,0.3-0.2s0.2-0.1,0.2-0.1c0.1,0,0.2,0.1,0.3,0.2
			l0.6,1c-0.4,0.3-0.8,0.6-1.3,0.8S91,137.8,90.4,137.8z"/>
		<path d="M100.5,125.2c0.7,0,1.4,0.1,2,0.4c0.6,0.2,1.1,0.6,1.6,1.1c0.4,0.5,0.8,1,1.1,1.7c0.3,0.7,0.4,1.4,0.4,2.3
			c0,0.3,0,0.6-0.1,0.7c-0.1,0.1-0.2,0.2-0.4,0.2h-8.1c0,0.8,0.1,1.4,0.3,2s0.5,1,0.8,1.4s0.7,0.7,1.2,0.9c0.5,0.2,1,0.3,1.6,0.3
			c0.5,0,1-0.1,1.4-0.2c0.4-0.1,0.7-0.3,1-0.4c0.3-0.1,0.5-0.3,0.7-0.4s0.3-0.2,0.5-0.2c0.2,0,0.3,0.1,0.4,0.2l0.6,0.8
			c-0.3,0.3-0.6,0.6-0.9,0.8c-0.4,0.2-0.8,0.4-1.2,0.6c-0.4,0.2-0.9,0.3-1.3,0.3c-0.4,0.1-0.9,0.1-1.3,0.1c-0.8,0-1.6-0.1-2.3-0.4
			c-0.7-0.3-1.3-0.7-1.8-1.2s-0.9-1.2-1.2-2c-0.3-0.8-0.4-1.7-0.4-2.8c0-0.8,0.1-1.6,0.4-2.4c0.3-0.7,0.6-1.4,1.1-1.9
			c0.5-0.5,1.1-1,1.8-1.3C98.8,125.4,99.6,125.2,100.5,125.2z M100.5,126.8c-1,0-1.8,0.3-2.4,0.9c-0.6,0.6-1,1.4-1.1,2.5h6.6
			c0-0.5-0.1-1-0.2-1.4c-0.1-0.4-0.3-0.8-0.6-1.1c-0.3-0.3-0.6-0.5-1-0.7S101,126.8,100.5,126.8z"/>
		<path d="M112.8,131.4v-0.3l3-4.7l0.7,0.3c0.1,0.1,0.2,0.1,0.3,0.2c0.1,0.1,0.1,0.2,0.1,0.3c0,0.1,0,0.3-0.1,0.4l-1.9,3.1
			c-0.1,0.2-0.2,0.3-0.3,0.4c0.1,0.1,0.2,0.3,0.3,0.4l1.9,3.1c0,0.1,0.1,0.1,0.1,0.2c0,0.1,0,0.1,0,0.2c0,0.2-0.1,0.4-0.3,0.5
			l-0.7,0.3L112.8,131.4z M116.4,131.4v-0.3l3-4.7l0.7,0.3c0.1,0.1,0.2,0.1,0.3,0.2c0.1,0.1,0.1,0.2,0.1,0.3c0,0.1,0,0.3-0.1,0.4
			l-1.9,3.1c-0.1,0.2-0.2,0.3-0.3,0.4c0.1,0.1,0.2,0.3,0.3,0.4l1.9,3.1c0,0.1,0.1,0.1,0.1,0.2c0,0.1,0,0.1,0,0.2
			c0,0.2-0.1,0.4-0.3,0.5l-0.7,0.3L116.4,131.4z"/>
		<path d="M133.9,120.4v2h-5.6v15.2H126v-15.2h-5.6v-2H133.9z"/>
		<path d="M134.1,137.6v-12.2h1.2c0.2,0,0.4,0,0.5,0.1c0.1,0.1,0.1,0.2,0.2,0.5l0.1,1.9c0.4-0.8,0.9-1.5,1.5-2
			c0.6-0.5,1.3-0.7,2.2-0.7c0.3,0,0.6,0,0.9,0.1c0.3,0.1,0.5,0.2,0.8,0.3l-0.3,1.6c-0.1,0.2-0.2,0.3-0.4,0.3c-0.1,0-0.3,0-0.5-0.1
			c-0.2-0.1-0.6-0.1-1-0.1c-0.7,0-1.4,0.2-1.9,0.6c-0.5,0.4-0.9,1.1-1.3,1.9v7.7H134.1z"/>
		<path d="M152.2,137.6h-0.9c-0.2,0-0.4,0-0.5-0.1c-0.1-0.1-0.2-0.2-0.3-0.4l-0.2-1.1c-0.3,0.3-0.6,0.5-0.9,0.8
			c-0.3,0.2-0.6,0.4-1,0.6c-0.3,0.2-0.7,0.3-1.1,0.4c-0.4,0.1-0.8,0.1-1.3,0.1c-0.5,0-0.9-0.1-1.3-0.2c-0.4-0.1-0.8-0.3-1.1-0.6
			c-0.3-0.3-0.5-0.6-0.7-1c-0.2-0.4-0.3-0.9-0.3-1.4c0-0.5,0.1-0.9,0.4-1.4c0.3-0.4,0.7-0.8,1.3-1.2c0.6-0.3,1.4-0.6,2.3-0.8
			s2.1-0.3,3.5-0.3v-1c0-1-0.2-1.7-0.6-2.2c-0.4-0.5-1-0.7-1.8-0.7c-0.5,0-1,0.1-1.3,0.2c-0.4,0.1-0.7,0.3-0.9,0.4s-0.5,0.3-0.7,0.4
			c-0.2,0.1-0.4,0.2-0.6,0.2c-0.1,0-0.3,0-0.4-0.1c-0.1-0.1-0.2-0.2-0.3-0.3l-0.4-0.7c0.7-0.6,1.4-1.1,2.2-1.5
			c0.8-0.3,1.6-0.5,2.6-0.5c0.7,0,1.3,0.1,1.8,0.3c0.5,0.2,1,0.5,1.3,0.9c0.4,0.4,0.6,0.9,0.8,1.5c0.2,0.6,0.3,1.2,0.3,1.9V137.6z
			 M146.7,136.3c0.4,0,0.7,0,1-0.1s0.6-0.2,0.9-0.3c0.3-0.1,0.5-0.3,0.8-0.5c0.3-0.2,0.5-0.4,0.7-0.7v-2.5c-1,0-1.8,0.1-2.5,0.2
			c-0.7,0.1-1.2,0.3-1.7,0.5s-0.7,0.4-0.9,0.7c-0.2,0.3-0.3,0.6-0.3,0.9c0,0.3,0.1,0.6,0.2,0.8s0.2,0.4,0.4,0.6s0.4,0.3,0.6,0.3
			C146.1,136.2,146.4,136.3,146.7,136.3z"/>
		<path d="M163.8,127.6c-0.1,0.1-0.1,0.2-0.2,0.2s-0.2,0.1-0.3,0.1c-0.1,0-0.3,0-0.4-0.1c-0.1-0.1-0.3-0.2-0.5-0.3
			c-0.2-0.1-0.5-0.2-0.8-0.3c-0.3-0.1-0.7-0.2-1.1-0.2c-0.6,0-1.1,0.1-1.6,0.3s-0.8,0.5-1.1,0.9c-0.3,0.4-0.5,0.9-0.7,1.5
			c-0.2,0.6-0.2,1.2-0.2,1.9c0,0.7,0.1,1.4,0.3,2c0.2,0.6,0.4,1.1,0.7,1.4c0.3,0.4,0.7,0.7,1.1,0.9s0.9,0.3,1.5,0.3
			c0.5,0,0.9-0.1,1.3-0.2c0.3-0.1,0.6-0.3,0.8-0.4c0.2-0.2,0.4-0.3,0.6-0.4s0.3-0.2,0.4-0.2c0.2,0,0.3,0.1,0.4,0.2l0.6,0.8
			c-0.5,0.6-1.2,1.1-2,1.4c-0.8,0.3-1.6,0.5-2.5,0.5c-0.8,0-1.5-0.1-2.1-0.4c-0.7-0.3-1.2-0.7-1.7-1.2c-0.5-0.5-0.9-1.2-1.1-2
			c-0.3-0.8-0.4-1.7-0.4-2.7c0-0.9,0.1-1.7,0.4-2.5c0.3-0.8,0.6-1.4,1.1-2c0.5-0.6,1.1-1,1.8-1.3c0.7-0.3,1.5-0.5,2.4-0.5
			c0.8,0,1.6,0.1,2.3,0.4c0.7,0.3,1.2,0.7,1.7,1.2L163.8,127.6z"/>
		<path d="M170.4,137.8c-1,0-1.7-0.3-2.2-0.8c-0.5-0.5-0.8-1.3-0.8-2.3v-7.4h-1.5c-0.1,0-0.2,0-0.3-0.1c-0.1-0.1-0.1-0.2-0.1-0.4
			v-0.9l2-0.3l0.5-3.8c0-0.1,0.1-0.2,0.2-0.3c0.1-0.1,0.2-0.1,0.3-0.1h1.1v4.2h3.5v1.5h-3.5v7.3c0,0.5,0.1,0.9,0.4,1.1
			c0.2,0.2,0.6,0.4,1,0.4c0.2,0,0.4,0,0.6-0.1s0.3-0.1,0.4-0.2c0.1-0.1,0.2-0.1,0.3-0.2s0.2-0.1,0.2-0.1c0.1,0,0.2,0.1,0.3,0.2
			l0.6,1c-0.4,0.3-0.8,0.6-1.3,0.8S170.9,137.8,170.4,137.8z"/>
		<path d="M180.4,125.2c0.7,0,1.4,0.1,2,0.4c0.6,0.2,1.1,0.6,1.6,1.1c0.4,0.5,0.8,1,1.1,1.7c0.3,0.7,0.4,1.4,0.4,2.3
			c0,0.3,0,0.6-0.1,0.7c-0.1,0.1-0.2,0.2-0.4,0.2h-8.1c0,0.8,0.1,1.4,0.3,2s0.5,1,0.8,1.4s0.7,0.7,1.2,0.9c0.5,0.2,1,0.3,1.6,0.3
			c0.5,0,1-0.1,1.4-0.2c0.4-0.1,0.7-0.3,1-0.4c0.3-0.1,0.5-0.3,0.7-0.4s0.3-0.2,0.5-0.2c0.2,0,0.3,0.1,0.4,0.2l0.6,0.8
			c-0.3,0.3-0.6,0.6-0.9,0.8c-0.4,0.2-0.8,0.4-1.2,0.6c-0.4,0.2-0.9,0.3-1.3,0.3c-0.4,0.1-0.9,0.1-1.3,0.1c-0.8,0-1.6-0.1-2.3-0.4
			c-0.7-0.3-1.3-0.7-1.8-1.2s-0.9-1.2-1.2-2c-0.3-0.8-0.4-1.7-0.4-2.8c0-0.8,0.1-1.6,0.4-2.4c0.3-0.7,0.6-1.4,1.1-1.9
			c0.5-0.5,1.1-1,1.8-1.3C178.8,125.4,179.6,125.2,180.4,125.2z M180.5,126.8c-1,0-1.8,0.3-2.4,0.9c-0.6,0.6-1,1.4-1.1,2.5h6.6
			c0-0.5-0.1-1-0.2-1.4c-0.1-0.4-0.3-0.8-0.6-1.1c-0.3-0.3-0.6-0.5-1-0.7S181,126.8,180.5,126.8z"/>
		<path d="M190.1,125.4v7.8c0,0.9,0.2,1.6,0.6,2.1c0.4,0.5,1.1,0.8,1.9,0.8c0.6,0,1.2-0.1,1.8-0.4c0.6-0.3,1.1-0.7,1.5-1.2v-9h2.1
			v12.2h-1.3c-0.3,0-0.5-0.1-0.6-0.4l-0.2-1.3c-0.5,0.6-1.1,1.1-1.8,1.4c-0.7,0.4-1.4,0.5-2.3,0.5c-0.7,0-1.3-0.1-1.8-0.3
			c-0.5-0.2-0.9-0.5-1.3-0.9c-0.3-0.4-0.6-0.9-0.8-1.5c-0.2-0.6-0.3-1.2-0.3-1.9v-7.8H190.1z"/>
		<path d="M201.5,137.6v-12.2h1.2c0.2,0,0.4,0,0.5,0.1c0.1,0.1,0.1,0.2,0.2,0.5l0.1,1.9c0.4-0.8,0.9-1.5,1.5-2
			c0.6-0.5,1.3-0.7,2.2-0.7c0.3,0,0.6,0,0.9,0.1c0.3,0.1,0.5,0.2,0.8,0.3l-0.3,1.6c-0.1,0.2-0.2,0.3-0.4,0.3c-0.1,0-0.3,0-0.5-0.1
			c-0.2-0.1-0.6-0.1-1-0.1c-0.7,0-1.4,0.2-1.9,0.6c-0.5,0.4-0.9,1.1-1.3,1.9v7.7H201.5z"/>
		<path d="M212.3,136l-0.7-0.3c-0.2-0.1-0.3-0.3-0.3-0.5c0-0.1,0-0.3,0.1-0.4l1.9-3.1c0.1-0.2,0.2-0.3,0.3-0.4
			c-0.1-0.1-0.2-0.2-0.3-0.4l-1.9-3.1c-0.1-0.1-0.1-0.3-0.1-0.4c0-0.2,0.1-0.4,0.3-0.5l0.7-0.3l3,4.7v0.3L212.3,136z M218.8,131.1
			v0.3l-3,4.7l-0.7-0.3c-0.2-0.1-0.3-0.3-0.3-0.5c0-0.1,0-0.3,0.1-0.4l1.9-3.1c0.1-0.2,0.2-0.3,0.3-0.4c-0.1-0.1-0.2-0.2-0.3-0.4
			l-1.9-3.1c-0.1-0.1-0.1-0.3-0.1-0.4c0-0.2,0.1-0.4,0.3-0.5l0.7-0.3L218.8,131.1z"/>
	</g>
	<g>
		<path d="M439.4,120.4v2h-5.6v15.2h-2.3v-15.2h-5.6v-2H439.4z"/>
		<path d="M439.6,137.6v-12.2h1.2c0.2,0,0.4,0,0.5,0.1c0.1,0.1,0.1,0.2,0.2,0.5l0.1,1.9c0.4-0.8,0.9-1.5,1.5-2
			c0.6-0.5,1.3-0.7,2.2-0.7c0.3,0,0.6,0,0.9,0.1c0.3,0.1,0.5,0.2,0.8,0.3l-0.3,1.6c-0.1,0.2-0.2,0.3-0.4,0.3c-0.1,0-0.3,0-0.5-0.1
			c-0.2-0.1-0.6-0.1-1-0.1c-0.7,0-1.4,0.2-1.9,0.6c-0.5,0.4-0.9,1.1-1.3,1.9v7.7H439.6z"/>
		<path d="M457.7,137.6h-0.9c-0.2,0-0.4,0-0.5-0.1c-0.1-0.1-0.2-0.2-0.3-0.4l-0.2-1.1c-0.3,0.3-0.6,0.5-0.9,0.8
			c-0.3,0.2-0.6,0.4-1,0.6c-0.3,0.2-0.7,0.3-1.1,0.4c-0.4,0.1-0.8,0.1-1.3,0.1c-0.5,0-0.9-0.1-1.3-0.2c-0.4-0.1-0.8-0.3-1.1-0.6
			c-0.3-0.3-0.5-0.6-0.7-1c-0.2-0.4-0.3-0.9-0.3-1.4c0-0.5,0.1-0.9,0.4-1.4c0.3-0.4,0.7-0.8,1.3-1.2c0.6-0.3,1.4-0.6,2.3-0.8
			s2.1-0.3,3.5-0.3v-1c0-1-0.2-1.7-0.6-2.2c-0.4-0.5-1-0.7-1.8-0.7c-0.5,0-1,0.1-1.3,0.2c-0.4,0.1-0.7,0.3-0.9,0.4s-0.5,0.3-0.7,0.4
			c-0.2,0.1-0.4,0.2-0.6,0.2c-0.1,0-0.3,0-0.4-0.1c-0.1-0.1-0.2-0.2-0.3-0.3l-0.4-0.7c0.7-0.6,1.4-1.1,2.2-1.5
			c0.8-0.3,1.6-0.5,2.6-0.5c0.7,0,1.3,0.1,1.8,0.3c0.5,0.2,1,0.5,1.3,0.9c0.4,0.4,0.6,0.9,0.8,1.5c0.2,0.6,0.3,1.2,0.3,1.9V137.6z
			 M452.2,136.3c0.4,0,0.7,0,1-0.1s0.6-0.2,0.9-0.3c0.3-0.1,0.5-0.3,0.8-0.5c0.3-0.2,0.5-0.4,0.7-0.7v-2.5c-1,0-1.8,0.1-2.5,0.2
			c-0.7,0.1-1.2,0.3-1.7,0.5s-0.7,0.4-0.9,0.7c-0.2,0.3-0.3,0.6-0.3,0.9c0,0.3,0.1,0.6,0.2,0.8s0.2,0.4,0.4,0.6s0.4,0.3,0.6,0.3
			C451.7,136.2,451.9,136.3,452.2,136.3z"/>
		<path d="M469.3,127.6c-0.1,0.1-0.1,0.2-0.2,0.2s-0.2,0.1-0.3,0.1c-0.1,0-0.3,0-0.4-0.1c-0.1-0.1-0.3-0.2-0.5-0.3
			c-0.2-0.1-0.5-0.2-0.8-0.3c-0.3-0.1-0.7-0.2-1.1-0.2c-0.6,0-1.1,0.1-1.6,0.3s-0.8,0.5-1.1,0.9c-0.3,0.4-0.5,0.9-0.7,1.5
			c-0.2,0.6-0.2,1.2-0.2,1.9c0,0.7,0.1,1.4,0.3,2c0.2,0.6,0.4,1.1,0.7,1.4c0.3,0.4,0.7,0.7,1.1,0.9s0.9,0.3,1.5,0.3
			c0.5,0,0.9-0.1,1.3-0.2c0.3-0.1,0.6-0.3,0.8-0.4c0.2-0.2,0.4-0.3,0.6-0.4s0.3-0.2,0.4-0.2c0.2,0,0.3,0.1,0.4,0.2l0.6,0.8
			c-0.5,0.6-1.2,1.1-2,1.4c-0.8,0.3-1.6,0.5-2.5,0.5c-0.8,0-1.5-0.1-2.1-0.4c-0.7-0.3-1.2-0.7-1.7-1.2c-0.5-0.5-0.9-1.2-1.1-2
			c-0.3-0.8-0.4-1.7-0.4-2.7c0-0.9,0.1-1.7,0.4-2.5c0.3-0.8,0.6-1.4,1.1-2c0.5-0.6,1.1-1,1.8-1.3c0.7-0.3,1.5-0.5,2.4-0.5
			c0.8,0,1.6,0.1,2.3,0.4c0.7,0.3,1.2,0.7,1.7,1.2L469.3,127.6z"/>
		<path d="M475.9,137.8c-1,0-1.7-0.3-2.2-0.8c-0.5-0.5-0.8-1.3-0.8-2.3v-7.4h-1.5c-0.1,0-0.2,0-0.3-0.1c-0.1-0.1-0.1-0.2-0.1-0.4
			v-0.9l2-0.3l0.5-3.8c0-0.1,0.1-0.2,0.2-0.3c0.1-0.1,0.2-0.1,0.3-0.1h1.1v4.2h3.5v1.5H475v7.3c0,0.5,0.1,0.9,0.4,1.1
			c0.2,0.2,0.6,0.4,1,0.4c0.2,0,0.4,0,0.6-0.1s0.3-0.1,0.4-0.2c0.1-0.1,0.2-0.1,0.3-0.2s0.2-0.1,0.2-0.1c0.1,0,0.2,0.1,0.3,0.2
			l0.6,1c-0.4,0.3-0.8,0.6-1.3,0.8S476.4,137.8,475.9,137.8z"/>
		<path d="M486,125.2c0.7,0,1.4,0.1,2,0.4c0.6,0.2,1.1,0.6,1.6,1.1c0.4,0.5,0.8,1,1.1,1.7c0.3,0.7,0.4,1.4,0.4,2.3
			c0,0.3,0,0.6-0.1,0.7c-0.1,0.1-0.2,0.2-0.4,0.2h-8.1c0,0.8,0.1,1.4,0.3,2s0.5,1,0.8,1.4s0.7,0.7,1.2,0.9c0.5,0.2,1,0.3,1.6,0.3
			c0.5,0,1-0.1,1.4-0.2c0.4-0.1,0.7-0.3,1-0.4c0.3-0.1,0.5-0.3,0.7-0.4s0.3-0.2,0.5-0.2c0.2,0,0.3,0.1,0.4,0.2l0.6,0.8
			c-0.3,0.3-0.6,0.6-0.9,0.8c-0.4,0.2-0.8,0.4-1.2,0.6c-0.4,0.2-0.9,0.3-1.3,0.3c-0.4,0.1-0.9,0.1-1.3,0.1c-0.8,0-1.6-0.1-2.3-0.4
			c-0.7-0.3-1.3-0.7-1.8-1.2s-0.9-1.2-1.2-2c-0.3-0.8-0.4-1.7-0.4-2.8c0-0.8,0.1-1.6,0.4-2.4c0.3-0.7,0.6-1.4,1.1-1.9
			c0.5-0.5,1.1-1,1.8-1.3C484.3,125.4,485.1,125.2,486,125.2z M486,126.8c-1,0-1.8,0.3-2.4,0.9c-0.6,0.6-1,1.4-1.1,2.5h6.6
			c0-0.5-0.1-1-0.2-1.4c-0.1-0.4-0.3-0.8-0.6-1.1c-0.3-0.3-0.6-0.5-1-0.7S486.5,126.8,486,126.8z"/>
		<path d="M495.6,125.4v7.8c0,0.9,0.2,1.6,0.6,2.1c0.4,0.5,1.1,0.8,1.9,0.8c0.6,0,1.2-0.1,1.8-0.4c0.6-0.3,1.1-0.7,1.5-1.2v-9h2.1
			v12.2h-1.3c-0.3,0-0.5-0.1-0.6-0.4l-0.2-1.3c-0.5,0.6-1.1,1.1-1.8,1.4c-0.7,0.4-1.4,0.5-2.3,0.5c-0.7,0-1.3-0.1-1.8-0.3
			c-0.5-0.2-0.9-0.5-1.3-0.9c-0.3-0.4-0.6-0.9-0.8-1.5c-0.2-0.6-0.3-1.2-0.3-1.9v-7.8H495.6z"/>
		<path d="M507.1,137.6v-12.2h1.2c0.2,0,0.4,0,0.5,0.1c0.1,0.1,0.1,0.2,0.2,0.5l0.1,1.9c0.4-0.8,0.9-1.5,1.5-2
			c0.6-0.5,1.3-0.7,2.2-0.7c0.3,0,0.6,0,0.9,0.1c0.3,0.1,0.5,0.2,0.8,0.3l-0.3,1.6c-0.1,0.2-0.2,0.3-0.4,0.3c-0.1,0-0.3,0-0.5-0.1
			c-0.2-0.1-0.6-0.1-1-0.1c-0.7,0-1.4,0.2-1.9,0.6c-0.5,0.4-0.9,1.1-1.3,1.9v7.7H507.1z"/>
		<path d="M521.4,137.6v-12.2h1.3c0.3,0,0.5,0.1,0.6,0.4l0.2,1.3c0.5-0.6,1.1-1.1,1.8-1.4c0.7-0.4,1.4-0.5,2.3-0.5
			c0.7,0,1.2,0.1,1.8,0.3c0.5,0.2,0.9,0.5,1.3,0.9c0.3,0.4,0.6,0.9,0.8,1.5c0.2,0.6,0.3,1.2,0.3,1.9v7.7h-2.1v-7.7
			c0-0.9-0.2-1.6-0.6-2.1c-0.4-0.5-1.1-0.8-1.9-0.8c-0.6,0-1.2,0.2-1.8,0.5c-0.5,0.3-1.1,0.7-1.5,1.2v9H521.4z"/>
		<path d="M532.9,124.1c0-0.5,0.1-1,0.3-1.5s0.5-0.9,0.8-1.2c0.4-0.3,0.8-0.6,1.2-0.8c0.5-0.2,1-0.3,1.5-0.3s1.1,0.1,1.5,0.3
			c0.5,0.2,0.9,0.5,1.2,0.8c0.4,0.3,0.6,0.8,0.8,1.2c0.2,0.5,0.3,1,0.3,1.5c0,0.5-0.1,1-0.3,1.5c-0.2,0.5-0.5,0.9-0.8,1.2
			c-0.4,0.3-0.8,0.6-1.2,0.8c-0.5,0.2-1,0.3-1.5,0.3s-1.1-0.1-1.5-0.3c-0.5-0.2-0.9-0.5-1.2-0.8c-0.4-0.3-0.6-0.8-0.8-1.2
			S532.9,124.6,532.9,124.1z M534.5,124.1c0,0.3,0.1,0.6,0.2,0.9s0.3,0.5,0.5,0.8c0.2,0.2,0.5,0.4,0.8,0.5s0.6,0.2,0.9,0.2
			s0.6-0.1,0.9-0.2s0.5-0.3,0.8-0.5c0.2-0.2,0.4-0.5,0.5-0.8c0.1-0.3,0.2-0.6,0.2-0.9s-0.1-0.7-0.2-0.9c-0.1-0.3-0.3-0.6-0.5-0.8
			c-0.2-0.2-0.5-0.4-0.8-0.5c-0.3-0.1-0.6-0.2-0.9-0.2s-0.7,0.1-0.9,0.2c-0.3,0.1-0.5,0.3-0.8,0.5c-0.2,0.2-0.4,0.5-0.5,0.8
			C534.5,123.4,534.5,123.7,534.5,124.1z"/>
		<path d="M545.1,136h3.7v-11.7c0-0.4,0-0.7,0-1.1l-3.1,2.6c-0.1,0.1-0.2,0.1-0.2,0.1c-0.1,0-0.2,0-0.2,0c-0.1,0-0.2,0-0.3-0.1
			c-0.1-0.1-0.2-0.1-0.2-0.2l-0.7-0.9l5.1-4.4h1.7V136h3.4v1.6h-9.2V136z"/>
	</g>
	<path class="st4" d="M862.8,15.7l-8.5,29.8h-11.2V22.6h-4.8v22.7l-16.1,2l1.3,14.9h-9v15.7h6.2c0,0.3,0,0.7,0,1
		c0,7.9,6.5,14.2,14.2,14.2c7.7,0,14.2-6.2,14.2-14.2c0-2.8-0.8-5.3-2.2-7.5h15.4C863.4,83.7,873.9,93,886,93
		c12.8,0,23.9-10.4,23.9-23.9c0-10.7-7-19.5-16.3-22.6V15.7L862.8,15.7L862.8,15.7z M867.7,21.6H887v23.8c-0.3,0-0.7,0-1,0
		c-2.9,0-5.7,0.5-8.2,1.5l-16.6-1.3L867.7,21.6L867.7,21.6z M886,59.6c6.1,0,9.7,4.5,9.7,9.5c0,5-3.6,9.5-9.7,9.5
		c-6.1,0-9.7-4.5-9.7-9.5C876.3,64.1,879.9,59.6,886,59.6z M834.8,72c4.2,0,7.3,3.2,7.3,6.9s-3.1,6.9-7.3,6.9s-7.3-3.2-7.3-6.9
		S830.6,72,834.8,72z"/>
	<g>
		<path d="M766.3,134c0.1,0,0.2,0.1,0.3,0.2l0.9,1c-0.7,0.8-1.6,1.5-2.6,1.9s-2.2,0.7-3.6,0.7c-1.2,0-2.4-0.2-3.4-0.6
			c-1-0.4-1.9-1-2.6-1.8s-1.3-1.7-1.7-2.8c-0.4-1.1-0.6-2.3-0.6-3.6c0-1.3,0.2-2.5,0.6-3.6c0.4-1.1,1-2,1.8-2.8
			c0.8-0.8,1.7-1.4,2.7-1.8c1.1-0.4,2.2-0.6,3.5-0.6c1.3,0,2.4,0.2,3.3,0.6s1.7,0.9,2.4,1.6l-0.8,1.1c-0.1,0.1-0.1,0.1-0.2,0.2
			c-0.1,0.1-0.2,0.1-0.3,0.1c-0.1,0-0.2,0-0.3-0.1c-0.1-0.1-0.3-0.2-0.4-0.3c-0.2-0.1-0.3-0.2-0.6-0.4c-0.2-0.1-0.5-0.2-0.8-0.4
			c-0.3-0.1-0.6-0.2-1-0.3c-0.4-0.1-0.8-0.1-1.4-0.1c-0.9,0-1.8,0.2-2.5,0.5c-0.8,0.3-1.4,0.8-2,1.4s-1,1.3-1.3,2.1
			c-0.3,0.8-0.5,1.8-0.5,2.8c0,1.1,0.2,2,0.5,2.9c0.3,0.8,0.7,1.6,1.3,2.1c0.5,0.6,1.2,1,1.9,1.3c0.7,0.3,1.5,0.5,2.4,0.5
			c0.5,0,1,0,1.4-0.1c0.4-0.1,0.8-0.2,1.1-0.3c0.3-0.1,0.7-0.3,1-0.5c0.3-0.2,0.6-0.4,0.9-0.7C766.1,134.1,766.2,134,766.3,134z"/>
		<path d="M775.2,125.2c0.9,0,1.7,0.1,2.4,0.4c0.7,0.3,1.3,0.7,1.8,1.3s0.9,1.2,1.2,2c0.3,0.8,0.4,1.6,0.4,2.6c0,1-0.1,1.8-0.4,2.6
			c-0.3,0.8-0.7,1.4-1.2,2s-1.1,1-1.8,1.3c-0.7,0.3-1.5,0.4-2.4,0.4s-1.7-0.1-2.4-0.4s-1.3-0.7-1.8-1.3s-0.9-1.2-1.2-2
			c-0.3-0.8-0.4-1.6-0.4-2.6c0-1,0.1-1.8,0.4-2.6c0.3-0.8,0.7-1.4,1.2-2s1.1-1,1.8-1.3S774.4,125.2,775.2,125.2z M775.2,136.1
			c1.2,0,2.1-0.4,2.7-1.2c0.6-0.8,0.9-1.9,0.9-3.4c0-1.4-0.3-2.6-0.9-3.4c-0.6-0.8-1.5-1.2-2.7-1.2c-0.6,0-1.1,0.1-1.6,0.3
			s-0.8,0.5-1.1,0.9c-0.3,0.4-0.5,0.9-0.7,1.4c-0.1,0.6-0.2,1.2-0.2,1.9c0,0.7,0.1,1.4,0.2,1.9c0.1,0.6,0.4,1,0.7,1.4
			c0.3,0.4,0.7,0.7,1.1,0.9S774.6,136.1,775.2,136.1z"/>
		<path d="M785.5,125.4v7.8c0,0.9,0.2,1.6,0.6,2.1s1.1,0.8,1.9,0.8c0.6,0,1.2-0.1,1.8-0.4c0.6-0.3,1.1-0.7,1.5-1.2v-9h2.1v12.2h-1.3
			c-0.3,0-0.5-0.1-0.6-0.4l-0.2-1.3c-0.5,0.6-1.1,1.1-1.8,1.4c-0.7,0.4-1.4,0.5-2.3,0.5c-0.7,0-1.2-0.1-1.8-0.3
			c-0.5-0.2-0.9-0.5-1.3-0.9s-0.6-0.9-0.8-1.5c-0.2-0.6-0.3-1.2-0.3-1.9v-7.8H785.5z M792.2,123.6h-1.4c-0.2,0-0.3-0.1-0.5-0.2
			l-1.5-1.5l-0.2-0.2l-0.2,0.2l-1.5,1.5c0,0-0.1,0.1-0.2,0.1s-0.2,0.1-0.3,0.1h-1.5l2.7-3.2h2L792.2,123.6z"/>
		<path d="M800.7,137.8c-1,0-1.7-0.3-2.2-0.8c-0.5-0.5-0.8-1.3-0.8-2.3v-7.4h-1.5c-0.1,0-0.2,0-0.3-0.1s-0.1-0.2-0.1-0.4v-0.9l2-0.3
			l0.5-3.8c0-0.1,0.1-0.2,0.2-0.3c0.1-0.1,0.2-0.1,0.3-0.1h1.1v4.2h3.5v1.5h-3.5v7.3c0,0.5,0.1,0.9,0.4,1.1c0.2,0.2,0.6,0.4,1,0.4
			c0.2,0,0.4,0,0.6-0.1s0.3-0.1,0.4-0.2c0.1-0.1,0.2-0.1,0.3-0.2s0.2-0.1,0.2-0.1c0.1,0,0.2,0.1,0.3,0.2l0.6,1
			c-0.4,0.3-0.8,0.6-1.3,0.8C801.8,137.7,801.3,137.8,800.7,137.8z"/>
		<path d="M819.2,137.6c-0.3,0-0.5-0.1-0.6-0.4l-0.2-1.5c-0.5,0.6-1.1,1.1-1.8,1.5s-1.4,0.6-2.3,0.6c-0.7,0-1.3-0.1-1.9-0.4
			c-0.6-0.3-1.1-0.7-1.5-1.2c-0.4-0.5-0.7-1.2-0.9-1.9s-0.3-1.7-0.3-2.7c0-0.9,0.1-1.7,0.4-2.5s0.6-1.4,1-2s1-1,1.7-1.3
			c0.6-0.3,1.4-0.5,2.2-0.5c0.7,0,1.4,0.1,1.9,0.4c0.5,0.3,1,0.6,1.4,1.1v-6.7h2.1v17.7H819.2z M815,136c0.7,0,1.3-0.2,1.8-0.5
			c0.5-0.3,1-0.8,1.4-1.4v-5.9c-0.4-0.5-0.8-0.9-1.3-1.1c-0.5-0.2-1-0.3-1.6-0.3c-1.1,0-2,0.4-2.6,1.2c-0.6,0.8-0.9,2-0.9,3.5
			c0,0.8,0.1,1.5,0.2,2c0.1,0.6,0.3,1,0.6,1.4c0.3,0.4,0.6,0.6,1,0.8S814.5,136,815,136z"/>
		<path d="M825.5,119.5c0.2,0.4,0.4,0.8,0.5,1.2c0.1,0.4,0.2,0.8,0.2,1.2c0,0.7-0.2,1.4-0.5,2.1c-0.4,0.7-0.8,1.3-1.5,1.8l-0.7-0.4
			c-0.1,0-0.1-0.1-0.1-0.1c0,0,0-0.1,0-0.1c0-0.1,0-0.2,0.1-0.3c0.1-0.2,0.3-0.3,0.4-0.5c0.1-0.2,0.2-0.4,0.3-0.6
			c0.1-0.2,0.2-0.4,0.2-0.6s0.1-0.4,0.1-0.7c0-0.3,0-0.5-0.1-0.8c-0.1-0.3-0.2-0.6-0.4-0.9c-0.1-0.1-0.1-0.2-0.1-0.3
			c0-0.2,0.1-0.3,0.3-0.4L825.5,119.5z"/>
		<path d="M831,125.4v7.8c0,0.9,0.2,1.6,0.6,2.1s1.1,0.8,1.9,0.8c0.6,0,1.2-0.1,1.8-0.4c0.6-0.3,1.1-0.7,1.5-1.2v-9h2.1v12.2h-1.3
			c-0.3,0-0.5-0.1-0.6-0.4l-0.2-1.3c-0.5,0.6-1.1,1.1-1.8,1.4c-0.7,0.4-1.4,0.5-2.3,0.5c-0.7,0-1.2-0.1-1.8-0.3
			c-0.5-0.2-0.9-0.5-1.3-0.9s-0.6-0.9-0.8-1.5c-0.2-0.6-0.3-1.2-0.3-1.9v-7.8H831z"/>
		<path d="M846.1,137.8c-1,0-1.7-0.3-2.2-0.8c-0.5-0.5-0.8-1.3-0.8-2.3v-7.4h-1.5c-0.1,0-0.2,0-0.3-0.1c-0.1-0.1-0.1-0.2-0.1-0.4
			v-0.9l2-0.3l0.5-3.8c0-0.1,0.1-0.2,0.2-0.3c0.1-0.1,0.2-0.1,0.3-0.1h1.1v4.2h3.5v1.5h-3.5v7.3c0,0.5,0.1,0.9,0.4,1.1
			c0.2,0.2,0.6,0.4,1,0.4c0.2,0,0.4,0,0.6-0.1s0.3-0.1,0.4-0.2c0.1-0.1,0.2-0.1,0.3-0.2s0.2-0.1,0.2-0.1c0.1,0,0.2,0.1,0.3,0.2
			l0.6,1c-0.4,0.3-0.8,0.6-1.3,0.8C847.2,137.7,846.7,137.8,846.1,137.8z"/>
		<path d="M854.3,121.6c0,0.2,0,0.4-0.1,0.6c-0.1,0.2-0.2,0.3-0.3,0.5c-0.1,0.1-0.3,0.3-0.5,0.3c-0.2,0.1-0.4,0.1-0.6,0.1
			s-0.4,0-0.6-0.1c-0.2-0.1-0.3-0.2-0.5-0.3c-0.1-0.1-0.2-0.3-0.3-0.5c-0.1-0.2-0.1-0.4-0.1-0.6c0-0.2,0-0.4,0.1-0.6
			c0.1-0.2,0.2-0.4,0.3-0.5c0.1-0.1,0.3-0.2,0.5-0.3c0.2-0.1,0.4-0.1,0.6-0.1s0.4,0,0.6,0.1c0.2,0.1,0.3,0.2,0.5,0.3
			c0.1,0.1,0.3,0.3,0.3,0.5S854.3,121.4,854.3,121.6z M853.8,125.4v12.2h-2.1v-12.2H853.8z"/>
		<path d="M859.9,119.9v17.7h-2.1v-17.7H859.9z"/>
		<path d="M866.5,121.6c0,0.2,0,0.4-0.1,0.6c-0.1,0.2-0.2,0.3-0.3,0.5c-0.1,0.1-0.3,0.3-0.5,0.3c-0.2,0.1-0.4,0.1-0.6,0.1
			s-0.4,0-0.6-0.1c-0.2-0.1-0.3-0.2-0.5-0.3c-0.1-0.1-0.2-0.3-0.3-0.5c-0.1-0.2-0.1-0.4-0.1-0.6c0-0.2,0-0.4,0.1-0.6
			s0.2-0.4,0.3-0.5c0.1-0.1,0.3-0.2,0.5-0.3c0.2-0.1,0.4-0.1,0.6-0.1s0.4,0,0.6,0.1c0.2,0.1,0.3,0.2,0.5,0.3
			c0.1,0.1,0.3,0.3,0.3,0.5S866.5,121.4,866.5,121.6z M866.1,125.4v12.2h-2.1v-12.2H866.1z"/>
		<path d="M876.8,127.4c-0.1,0.2-0.2,0.3-0.4,0.3c-0.1,0-0.3,0-0.4-0.1c-0.2-0.1-0.3-0.2-0.6-0.3c-0.2-0.1-0.5-0.2-0.8-0.3
			c-0.3-0.1-0.7-0.1-1.1-0.1c-0.4,0-0.7,0-1,0.1c-0.3,0.1-0.5,0.2-0.7,0.4s-0.4,0.3-0.5,0.6c-0.1,0.2-0.2,0.4-0.2,0.7
			c0,0.3,0.1,0.6,0.3,0.8s0.4,0.4,0.7,0.5s0.6,0.3,1,0.4c0.4,0.1,0.8,0.2,1.2,0.4c0.4,0.1,0.8,0.3,1.2,0.4c0.4,0.2,0.7,0.4,1,0.6
			c0.3,0.2,0.5,0.5,0.7,0.9c0.2,0.3,0.3,0.8,0.3,1.3c0,0.6-0.1,1.1-0.3,1.6c-0.2,0.5-0.5,0.9-0.9,1.2c-0.4,0.3-0.9,0.6-1.4,0.8
			c-0.6,0.2-1.2,0.3-2,0.3c-0.8,0-1.6-0.1-2.3-0.4c-0.7-0.3-1.3-0.6-1.8-1.1l0.5-0.8c0.1-0.1,0.1-0.2,0.2-0.2
			c0.1-0.1,0.2-0.1,0.3-0.1s0.3,0.1,0.5,0.2c0.2,0.1,0.4,0.2,0.6,0.4c0.2,0.1,0.5,0.3,0.8,0.4c0.3,0.1,0.7,0.2,1.2,0.2
			c0.4,0,0.8-0.1,1.1-0.2c0.3-0.1,0.6-0.3,0.8-0.4s0.4-0.4,0.5-0.6c0.1-0.2,0.2-0.5,0.2-0.8c0-0.3-0.1-0.6-0.3-0.8
			c-0.2-0.2-0.4-0.4-0.7-0.6c-0.3-0.2-0.6-0.3-1-0.4c-0.4-0.1-0.8-0.2-1.2-0.4c-0.4-0.1-0.8-0.3-1.2-0.4s-0.7-0.4-1-0.6
			c-0.3-0.2-0.5-0.6-0.7-0.9c-0.2-0.4-0.3-0.8-0.3-1.3c0-0.5,0.1-0.9,0.3-1.3c0.2-0.4,0.5-0.8,0.8-1.1c0.4-0.3,0.8-0.6,1.4-0.8
			c0.5-0.2,1.1-0.3,1.8-0.3c0.8,0,1.5,0.1,2.2,0.4c0.6,0.3,1.2,0.6,1.7,1L876.8,127.4z"/>
		<path d="M889.2,137.6h-0.9c-0.2,0-0.4,0-0.5-0.1c-0.1-0.1-0.2-0.2-0.3-0.4l-0.2-1.1c-0.3,0.3-0.6,0.5-0.9,0.8
			c-0.3,0.2-0.6,0.4-1,0.6c-0.3,0.2-0.7,0.3-1.1,0.4c-0.4,0.1-0.8,0.1-1.3,0.1c-0.5,0-0.9-0.1-1.3-0.2c-0.4-0.1-0.8-0.3-1.1-0.6
			c-0.3-0.3-0.5-0.6-0.7-1c-0.2-0.4-0.3-0.9-0.3-1.4c0-0.5,0.1-0.9,0.4-1.4c0.3-0.4,0.7-0.8,1.3-1.2s1.4-0.6,2.3-0.8
			s2.1-0.3,3.5-0.3v-1c0-1-0.2-1.7-0.6-2.2c-0.4-0.5-1-0.7-1.8-0.7c-0.5,0-1,0.1-1.3,0.2c-0.4,0.1-0.7,0.3-0.9,0.4s-0.5,0.3-0.7,0.4
			c-0.2,0.1-0.4,0.2-0.6,0.2c-0.1,0-0.3,0-0.4-0.1c-0.1-0.1-0.2-0.2-0.3-0.3l-0.4-0.7c0.7-0.6,1.4-1.1,2.2-1.5
			c0.8-0.3,1.6-0.5,2.6-0.5c0.7,0,1.3,0.1,1.8,0.3c0.5,0.2,1,0.5,1.3,0.9c0.4,0.4,0.6,0.9,0.8,1.5c0.2,0.6,0.3,1.2,0.3,1.9V137.6z
			 M883.6,136.3c0.4,0,0.7,0,1-0.1c0.3-0.1,0.6-0.2,0.9-0.3c0.3-0.1,0.5-0.3,0.8-0.5c0.3-0.2,0.5-0.4,0.7-0.7v-2.5
			c-1,0-1.8,0.1-2.5,0.2c-0.7,0.1-1.2,0.3-1.7,0.5c-0.4,0.2-0.7,0.4-0.9,0.7c-0.2,0.3-0.3,0.6-0.3,0.9c0,0.3,0.1,0.6,0.2,0.8
			c0.1,0.2,0.2,0.4,0.4,0.6s0.4,0.3,0.6,0.3S883.4,136.3,883.6,136.3z"/>
		<path d="M896.1,137.8c-1,0-1.7-0.3-2.2-0.8c-0.5-0.5-0.8-1.3-0.8-2.3v-7.4h-1.5c-0.1,0-0.2,0-0.3-0.1c-0.1-0.1-0.1-0.2-0.1-0.4
			v-0.9l2-0.3l0.5-3.8c0-0.1,0.1-0.2,0.2-0.3c0.1-0.1,0.2-0.1,0.3-0.1h1.1v4.2h3.5v1.5h-3.5v7.3c0,0.5,0.1,0.9,0.4,1.1
			c0.2,0.2,0.6,0.4,1,0.4c0.2,0,0.4,0,0.6-0.1s0.3-0.1,0.4-0.2c0.1-0.1,0.2-0.1,0.3-0.2s0.2-0.1,0.2-0.1c0.1,0,0.2,0.1,0.3,0.2
			l0.6,1c-0.4,0.3-0.8,0.6-1.3,0.8C897.2,137.7,896.6,137.8,896.1,137.8z"/>
		<path d="M904.2,121.6c0,0.2,0,0.4-0.1,0.6c-0.1,0.2-0.2,0.3-0.3,0.5c-0.1,0.1-0.3,0.3-0.5,0.3c-0.2,0.1-0.4,0.1-0.6,0.1
			s-0.4,0-0.6-0.1c-0.2-0.1-0.3-0.2-0.5-0.3c-0.1-0.1-0.2-0.3-0.3-0.5c-0.1-0.2-0.1-0.4-0.1-0.6c0-0.2,0-0.4,0.1-0.6
			c0.1-0.2,0.2-0.4,0.3-0.5c0.1-0.1,0.3-0.2,0.5-0.3c0.2-0.1,0.4-0.1,0.6-0.1s0.4,0,0.6,0.1c0.2,0.1,0.3,0.2,0.5,0.3
			c0.1,0.1,0.3,0.3,0.3,0.5S904.2,121.4,904.2,121.6z M903.7,125.4v12.2h-2.1v-12.2H903.7z"/>
		<path d="M912.4,125.2c0.9,0,1.7,0.1,2.4,0.4c0.7,0.3,1.3,0.7,1.8,1.3s0.9,1.2,1.2,2c0.3,0.8,0.4,1.6,0.4,2.6c0,1-0.1,1.8-0.4,2.6
			c-0.3,0.8-0.7,1.4-1.2,2s-1.1,1-1.8,1.3c-0.7,0.3-1.5,0.4-2.4,0.4s-1.7-0.1-2.4-0.4s-1.3-0.7-1.8-1.3s-0.9-1.2-1.2-2
			c-0.3-0.8-0.4-1.6-0.4-2.6c0-1,0.1-1.8,0.4-2.6c0.3-0.8,0.7-1.4,1.2-2s1.1-1,1.8-1.3S911.5,125.2,912.4,125.2z M912.4,136.1
			c1.2,0,2.1-0.4,2.7-1.2c0.6-0.8,0.9-1.9,0.9-3.4c0-1.4-0.3-2.6-0.9-3.4c-0.6-0.8-1.5-1.2-2.7-1.2c-0.6,0-1.1,0.1-1.6,0.3
			s-0.8,0.5-1.1,0.9c-0.3,0.4-0.5,0.9-0.7,1.4c-0.1,0.6-0.2,1.2-0.2,1.9c0,0.7,0.1,1.4,0.2,1.9c0.1,0.6,0.4,1,0.7,1.4
			c0.3,0.4,0.7,0.7,1.1,0.9S911.8,136.1,912.4,136.1z"/>
		<path d="M920.9,137.6v-12.2h1.3c0.3,0,0.5,0.1,0.6,0.4l0.2,1.3c0.5-0.6,1.1-1.1,1.8-1.4c0.7-0.4,1.4-0.5,2.3-0.5
			c0.7,0,1.2,0.1,1.8,0.3c0.5,0.2,0.9,0.5,1.3,0.9c0.3,0.4,0.6,0.9,0.8,1.5c0.2,0.6,0.3,1.2,0.3,1.9v7.7h-2.1v-7.7
			c0-0.9-0.2-1.6-0.6-2.1c-0.4-0.5-1.1-0.8-1.9-0.8c-0.6,0-1.2,0.2-1.8,0.5c-0.5,0.3-1.1,0.7-1.5,1.2v9H920.9z"/>
		<path d="M938.8,137.6v-12.2h1.3c0.3,0,0.5,0.1,0.6,0.4l0.2,1.3c0.5-0.6,1.1-1.1,1.8-1.4s1.4-0.5,2.3-0.5c0.7,0,1.2,0.1,1.8,0.3
			c0.5,0.2,0.9,0.5,1.3,0.9c0.3,0.4,0.6,0.9,0.8,1.5c0.2,0.6,0.3,1.2,0.3,1.9v7.7h-2.1v-7.7c0-0.9-0.2-1.6-0.6-2.1
			c-0.4-0.5-1.1-0.8-1.9-0.8c-0.6,0-1.2,0.2-1.8,0.5c-0.5,0.3-1.1,0.7-1.5,1.2v9H938.8z"/>
		<path d="M950.4,124.1c0-0.5,0.1-1,0.3-1.5s0.5-0.9,0.8-1.2c0.4-0.3,0.8-0.6,1.2-0.8c0.5-0.2,1-0.3,1.5-0.3s1.1,0.1,1.5,0.3
			c0.5,0.2,0.9,0.5,1.2,0.8c0.4,0.3,0.6,0.8,0.8,1.2c0.2,0.5,0.3,1,0.3,1.5c0,0.5-0.1,1-0.3,1.5c-0.2,0.5-0.5,0.9-0.8,1.2
			c-0.4,0.3-0.8,0.6-1.2,0.8c-0.5,0.2-1,0.3-1.5,0.3s-1.1-0.1-1.5-0.3c-0.5-0.2-0.9-0.5-1.2-0.8c-0.4-0.3-0.6-0.8-0.8-1.2
			S950.4,124.6,950.4,124.1z M951.9,124.1c0,0.3,0.1,0.6,0.2,0.9s0.3,0.5,0.5,0.8c0.2,0.2,0.5,0.4,0.8,0.5s0.6,0.2,0.9,0.2
			s0.6-0.1,0.9-0.2s0.5-0.3,0.8-0.5c0.2-0.2,0.4-0.5,0.5-0.8c0.1-0.3,0.2-0.6,0.2-0.9s-0.1-0.7-0.2-0.9c-0.1-0.3-0.3-0.6-0.5-0.8
			c-0.2-0.2-0.5-0.4-0.8-0.5c-0.3-0.1-0.6-0.2-0.9-0.2s-0.7,0.1-0.9,0.2c-0.3,0.1-0.5,0.3-0.8,0.5c-0.2,0.2-0.4,0.5-0.5,0.8
			C952,123.4,951.9,123.7,951.9,124.1z"/>
		<path d="M962.5,136h3.7v-11.7c0-0.4,0-0.7,0-1.1l-3.1,2.6c-0.1,0.1-0.2,0.1-0.2,0.1c-0.1,0-0.2,0-0.2,0c-0.1,0-0.2,0-0.3-0.1
			c-0.1-0.1-0.2-0.1-0.2-0.2l-0.7-0.9l5.1-4.4h1.7V136h3.4v1.6h-9.2V136z"/>
	</g>
	<path class="st4" d="M944.7,96.2h13.8v-3.5h-4.6V76.6h-4.1l-5.3,4.9l2.8,2.9c0.9-0.8,1.4-1.2,2-2h0.1v10.4h-4.6V96.2L944.7,96.2z
		 M963.1,87c0,6.5-4,14.9-11.5,14.9c-7.5,0-11.5-8.4-11.5-14.9S944,72,951.6,72C959.1,72,963.1,80.4,963.1,87z M981.5,96.2V77.8
		c-5.1,0-9.2-4.1-9.2-9.2h-41.4c0,5.1-4.1,9.2-9.2,9.2v18.4c5.1,0,9.2,4.1,9.2,9.2h41.4C972.3,100.3,976.4,96.2,981.5,96.2
		L981.5,96.2z M986.1,66.3v41.4c0,1.3-1,2.3-2.3,2.3h-64.4c-1.3,0-2.3-1-2.3-2.3V66.3c0-1.3,1-2.3,2.3-2.3h64.4
		C985,64,986.1,65,986.1,66.3z"/>
	<path class="st5" d="M714.3,129L697,109c-0.4-0.5-0.9-0.7-1.4-0.7s-1,0.2-1.4,0.7c-0.4,0.5-0.6,1-0.6,1.7v16.6h-53v6.7h53v16.6
		c0,0.6,0.2,1.2,0.6,1.7c0.4,0.5,0.9,0.7,1.4,0.7c0.5,0,1-0.2,1.4-0.7l17.2-20c0.4-0.5,0.6-1,0.6-1.7
		C714.9,130,714.7,129.5,714.3,129z"/>
	<path class="st5" d="M341.3,302L324,282c-0.4-0.5-0.9-0.7-1.4-0.7c-0.5,0-1,0.2-1.4,0.7c-0.4,0.5-0.6,1-0.6,1.7v16.6h-53v6.7h53
		v16.6c0,0.6,0.2,1.2,0.6,1.7c0.4,0.5,0.9,0.7,1.4,0.7c0.5,0,1-0.2,1.4-0.7l17.2-20c0.4-0.5,0.6-1,0.6-1.7
		C341.9,303,341.7,302.5,341.3,302z"/>
	<path class="st5" d="M341.3,129L324,109c-0.4-0.5-0.9-0.7-1.4-0.7c-0.5,0-1,0.2-1.4,0.7c-0.4,0.5-0.6,1-0.6,1.7v16.6h-53v6.7h53
		v16.6c0,0.6,0.2,1.2,0.6,1.7c0.4,0.5,0.9,0.7,1.4,0.7c0.5,0,1-0.2,1.4-0.7l17.2-20c0.4-0.5,0.6-1,0.6-1.7
		C341.9,130,341.7,129.5,341.3,129z"/>
	<path class="st5" d="M120.4,248.2l20-17.2c0.5-0.4,0.7-0.9,0.7-1.4c0-0.5-0.2-1-0.7-1.4c-0.5-0.4-1-0.6-1.7-0.6h-16.6v-53h-6.7v53
		H98.7c-0.6,0-1.2,0.2-1.7,0.6c-0.5,0.4-0.7,0.9-0.7,1.4c0,0.5,0.2,1,0.7,1.4l20,17.2c0.5,0.4,1,0.6,1.7,0.6
		C119.3,248.8,119.9,248.6,120.4,248.2z"/>
	<g>
		<path d="M39.4,294.2c0.1,0,0.2,0.1,0.3,0.2l0.9,1c-0.7,0.8-1.6,1.5-2.6,1.9s-2.2,0.7-3.6,0.7c-1.2,0-2.4-0.2-3.4-0.6
			c-1-0.4-1.9-1-2.6-1.8c-0.7-0.8-1.3-1.7-1.7-2.8c-0.4-1.1-0.6-2.3-0.6-3.6s0.2-2.5,0.6-3.6c0.4-1.1,1-2,1.8-2.8
			c0.8-0.8,1.7-1.4,2.7-1.8c1.1-0.4,2.2-0.6,3.5-0.6c1.3,0,2.4,0.2,3.3,0.6c0.9,0.4,1.7,0.9,2.4,1.6l-0.8,1.1
			c-0.1,0.1-0.1,0.1-0.2,0.2c-0.1,0.1-0.2,0.1-0.3,0.1c-0.1,0-0.2,0-0.3-0.1c-0.1-0.1-0.3-0.2-0.4-0.3c-0.2-0.1-0.3-0.2-0.6-0.4
			c-0.2-0.1-0.5-0.2-0.8-0.4c-0.3-0.1-0.6-0.2-1-0.3s-0.8-0.1-1.4-0.1c-0.9,0-1.8,0.2-2.5,0.5c-0.8,0.3-1.4,0.8-2,1.3
			c-0.6,0.6-1,1.3-1.3,2.1c-0.3,0.8-0.5,1.8-0.5,2.8c0,1.1,0.2,2,0.5,2.9s0.7,1.5,1.3,2.1c0.5,0.6,1.2,1,1.9,1.3s1.5,0.5,2.4,0.5
			c0.5,0,1,0,1.4-0.1c0.4-0.1,0.8-0.2,1.1-0.3s0.7-0.3,1-0.5c0.3-0.2,0.6-0.4,0.9-0.7C39.2,294.3,39.3,294.2,39.4,294.2z"/>
		<path d="M43.4,297.8v-12.2h1.2c0.2,0,0.4,0,0.5,0.1c0.1,0.1,0.1,0.2,0.2,0.5l0.1,1.9c0.4-0.8,0.9-1.5,1.5-2
			c0.6-0.5,1.3-0.7,2.2-0.7c0.3,0,0.6,0,0.9,0.1c0.3,0.1,0.5,0.2,0.8,0.3l-0.3,1.6c-0.1,0.2-0.2,0.3-0.4,0.3c-0.1,0-0.3,0-0.5-0.1
			c-0.2-0.1-0.6-0.1-1-0.1c-0.7,0-1.4,0.2-1.9,0.6c-0.5,0.4-0.9,1.1-1.3,1.9v7.7H43.4z"/>
		<path d="M57.9,285.4c0.7,0,1.4,0.1,2,0.4c0.6,0.2,1.1,0.6,1.6,1.1c0.4,0.5,0.8,1,1.1,1.7s0.4,1.4,0.4,2.3c0,0.3,0,0.6-0.1,0.7
			c-0.1,0.1-0.2,0.2-0.4,0.2h-8.1c0,0.8,0.1,1.4,0.3,2c0.2,0.6,0.5,1,0.8,1.4s0.7,0.7,1.2,0.9c0.5,0.2,1,0.3,1.6,0.3
			c0.5,0,1-0.1,1.4-0.2c0.4-0.1,0.7-0.3,1-0.4c0.3-0.1,0.5-0.3,0.7-0.4s0.3-0.2,0.5-0.2c0.2,0,0.3,0.1,0.4,0.2l0.6,0.8
			c-0.3,0.3-0.6,0.6-0.9,0.8c-0.4,0.2-0.8,0.4-1.2,0.6c-0.4,0.2-0.9,0.3-1.3,0.3c-0.4,0.1-0.9,0.1-1.3,0.1c-0.8,0-1.6-0.1-2.3-0.4
			s-1.3-0.7-1.8-1.2s-0.9-1.2-1.2-2c-0.3-0.8-0.4-1.7-0.4-2.8c0-0.8,0.1-1.6,0.4-2.4c0.3-0.7,0.6-1.4,1.1-1.9c0.5-0.5,1.1-1,1.8-1.3
			S57,285.4,57.9,285.4z M57.9,287c-1,0-1.8,0.3-2.4,0.9c-0.6,0.6-1,1.4-1.1,2.5H61c0-0.5-0.1-1-0.2-1.4c-0.1-0.4-0.3-0.8-0.6-1.1
			c-0.3-0.3-0.6-0.5-1-0.7S58.4,287,57.9,287z M61.4,280.4l-2.8,3.1c-0.1,0.1-0.2,0.2-0.3,0.3c-0.1,0.1-0.2,0.1-0.4,0.1h-1.3
			l1.8-2.9c0.1-0.2,0.2-0.3,0.4-0.4c0.1-0.1,0.3-0.1,0.6-0.1H61.4z"/>
		<path d="M74.6,297.8h-0.9c-0.2,0-0.4,0-0.5-0.1s-0.2-0.2-0.3-0.4l-0.2-1.1c-0.3,0.3-0.6,0.5-0.9,0.8c-0.3,0.2-0.6,0.4-1,0.6
			c-0.3,0.2-0.7,0.3-1.1,0.4c-0.4,0.1-0.8,0.1-1.3,0.1c-0.5,0-0.9-0.1-1.3-0.2c-0.4-0.1-0.8-0.3-1.1-0.6c-0.3-0.3-0.5-0.6-0.7-1
			c-0.2-0.4-0.3-0.9-0.3-1.4c0-0.5,0.1-0.9,0.4-1.4s0.7-0.8,1.3-1.2c0.6-0.3,1.4-0.6,2.3-0.8s2.1-0.3,3.5-0.3v-1
			c0-1-0.2-1.7-0.6-2.2c-0.4-0.5-1-0.7-1.8-0.7c-0.5,0-1,0.1-1.3,0.2c-0.4,0.1-0.7,0.3-0.9,0.4s-0.5,0.3-0.7,0.4s-0.4,0.2-0.6,0.2
			c-0.1,0-0.3,0-0.4-0.1S66,288.1,66,288l-0.4-0.7c0.7-0.6,1.4-1.1,2.2-1.5s1.6-0.5,2.6-0.5c0.7,0,1.3,0.1,1.8,0.3
			c0.5,0.2,1,0.5,1.3,0.9c0.4,0.4,0.6,0.9,0.8,1.5c0.2,0.6,0.3,1.2,0.3,1.9V297.8z M69,296.5c0.4,0,0.7,0,1-0.1s0.6-0.2,0.9-0.3
			c0.3-0.1,0.5-0.3,0.8-0.5c0.3-0.2,0.5-0.4,0.7-0.7v-2.5c-1,0-1.8,0.1-2.5,0.2s-1.2,0.3-1.7,0.5s-0.7,0.4-0.9,0.7
			c-0.2,0.3-0.3,0.6-0.3,0.9c0,0.3,0.1,0.6,0.2,0.8s0.2,0.4,0.4,0.6c0.2,0.1,0.4,0.3,0.6,0.3C68.5,296.4,68.8,296.5,69,296.5z"/>
		<path d="M81.5,298c-1,0-1.7-0.3-2.2-0.8c-0.5-0.5-0.8-1.3-0.8-2.3v-7.4h-1.5c-0.1,0-0.2,0-0.3-0.1c-0.1-0.1-0.1-0.2-0.1-0.4v-0.9
			l2-0.3l0.5-3.8c0-0.1,0.1-0.2,0.2-0.3c0.1-0.1,0.2-0.1,0.3-0.1h1.1v4.2h3.5v1.5h-3.5v7.3c0,0.5,0.1,0.9,0.4,1.1s0.6,0.4,1,0.4
			c0.2,0,0.4,0,0.6-0.1c0.2-0.1,0.3-0.1,0.4-0.2c0.1-0.1,0.2-0.1,0.3-0.2c0.1-0.1,0.2-0.1,0.2-0.1c0.1,0,0.2,0.1,0.3,0.2l0.6,1
			c-0.4,0.3-0.8,0.6-1.3,0.8C82.6,297.9,82.1,298,81.5,298z"/>
		<path d="M89.6,281.8c0,0.2,0,0.4-0.1,0.6s-0.2,0.3-0.3,0.5c-0.1,0.1-0.3,0.3-0.5,0.3c-0.2,0.1-0.4,0.1-0.6,0.1s-0.4,0-0.6-0.1
			c-0.2-0.1-0.3-0.2-0.5-0.3c-0.1-0.1-0.2-0.3-0.3-0.5c-0.1-0.2-0.1-0.4-0.1-0.6s0-0.4,0.1-0.6c0.1-0.2,0.2-0.4,0.3-0.5
			c0.1-0.1,0.3-0.2,0.5-0.3c0.2-0.1,0.4-0.1,0.6-0.1s0.4,0,0.6,0.1c0.2,0.1,0.3,0.2,0.5,0.3c0.1,0.1,0.3,0.3,0.3,0.5
			C89.6,281.4,89.6,281.6,89.6,281.8z M89.1,285.6v12.2H87v-12.2H89.1z"/>
		<path d="M97.8,285.4c0.9,0,1.7,0.1,2.4,0.4c0.7,0.3,1.3,0.7,1.8,1.3s0.9,1.2,1.2,2c0.3,0.8,0.4,1.6,0.4,2.6c0,1-0.1,1.8-0.4,2.6
			c-0.3,0.8-0.7,1.4-1.2,2s-1.1,1-1.8,1.3c-0.7,0.3-1.5,0.4-2.4,0.4c-0.9,0-1.7-0.1-2.4-0.4c-0.7-0.3-1.3-0.7-1.8-1.3
			s-0.9-1.2-1.2-2c-0.3-0.8-0.4-1.6-0.4-2.6c0-1,0.1-1.8,0.4-2.6c0.3-0.8,0.7-1.4,1.2-2s1.1-1,1.8-1.3
			C96.1,285.6,96.9,285.4,97.8,285.4z M97.8,296.3c1.2,0,2.1-0.4,2.7-1.2c0.6-0.8,0.9-1.9,0.9-3.4c0-1.4-0.3-2.6-0.9-3.4
			c-0.6-0.8-1.5-1.2-2.7-1.2c-0.6,0-1.1,0.1-1.6,0.3s-0.8,0.5-1.1,0.9c-0.3,0.4-0.5,0.9-0.7,1.4s-0.2,1.2-0.2,1.9
			c0,0.7,0.1,1.4,0.2,1.9s0.4,1,0.7,1.4c0.3,0.4,0.7,0.7,1.1,0.9S97.2,296.3,97.8,296.3z"/>
		<path d="M106.3,297.8v-12.2h1.3c0.3,0,0.5,0.1,0.6,0.4l0.2,1.3c0.5-0.6,1.1-1.1,1.8-1.4c0.7-0.4,1.4-0.5,2.3-0.5
			c0.7,0,1.2,0.1,1.8,0.3c0.5,0.2,0.9,0.5,1.3,0.9c0.3,0.4,0.6,0.9,0.8,1.5c0.2,0.6,0.3,1.2,0.3,1.9v7.7h-2.1V290
			c0-0.9-0.2-1.6-0.6-2.1s-1.1-0.8-1.9-0.8c-0.6,0-1.2,0.2-1.8,0.5c-0.5,0.3-1.1,0.7-1.5,1.2v9H106.3z"/>
		<path d="M124.2,297.8v-12.2h1.3c0.3,0,0.5,0.1,0.6,0.4l0.2,1.3c0.5-0.6,1.1-1.1,1.8-1.4c0.7-0.4,1.4-0.5,2.3-0.5
			c0.7,0,1.2,0.1,1.8,0.3c0.5,0.2,0.9,0.5,1.3,0.9c0.3,0.4,0.6,0.9,0.8,1.5c0.2,0.6,0.3,1.2,0.3,1.9v7.7h-2.1V290
			c0-0.9-0.2-1.6-0.6-2.1s-1.1-0.8-1.9-0.8c-0.6,0-1.2,0.2-1.8,0.5c-0.5,0.3-1.1,0.7-1.5,1.2v9H124.2z"/>
		<path d="M142.5,285.4c0.9,0,1.7,0.1,2.4,0.4c0.7,0.3,1.3,0.7,1.8,1.3s0.9,1.2,1.2,2c0.3,0.8,0.4,1.6,0.4,2.6c0,1-0.1,1.8-0.4,2.6
			c-0.3,0.8-0.7,1.4-1.2,2s-1.1,1-1.8,1.3c-0.7,0.3-1.5,0.4-2.4,0.4c-0.9,0-1.7-0.1-2.4-0.4c-0.7-0.3-1.3-0.7-1.8-1.3
			s-0.9-1.2-1.2-2c-0.3-0.8-0.4-1.6-0.4-2.6c0-1,0.1-1.8,0.4-2.6c0.3-0.8,0.7-1.4,1.2-2s1.1-1,1.8-1.3
			C140.8,285.6,141.6,285.4,142.5,285.4z M142.5,296.3c1.2,0,2.1-0.4,2.7-1.2c0.6-0.8,0.9-1.9,0.9-3.4c0-1.4-0.3-2.6-0.9-3.4
			c-0.6-0.8-1.5-1.2-2.7-1.2c-0.6,0-1.1,0.1-1.6,0.3s-0.8,0.5-1.1,0.9c-0.3,0.4-0.5,0.9-0.7,1.4s-0.2,1.2-0.2,1.9
			c0,0.7,0.1,1.4,0.2,1.9s0.4,1,0.7,1.4c0.3,0.4,0.7,0.7,1.1,0.9S141.9,296.3,142.5,296.3z"/>
		<path d="M152.8,285.6v7.8c0,0.9,0.2,1.6,0.6,2.1c0.4,0.5,1.1,0.8,1.9,0.8c0.6,0,1.2-0.1,1.8-0.4c0.6-0.3,1.1-0.7,1.5-1.2v-9h2.1
			v12.2h-1.3c-0.3,0-0.5-0.1-0.6-0.4l-0.2-1.3c-0.5,0.6-1.1,1.1-1.8,1.4c-0.7,0.4-1.4,0.5-2.3,0.5c-0.7,0-1.3-0.1-1.8-0.3
			s-0.9-0.5-1.3-0.9c-0.3-0.4-0.6-0.9-0.8-1.5c-0.2-0.6-0.3-1.2-0.3-1.9v-7.8H152.8z"/>
		<path d="M162.7,285.6h1.8c0.2,0,0.3,0,0.4,0.1c0.1,0.1,0.2,0.2,0.2,0.3l3.1,7.8c0.1,0.3,0.2,0.6,0.3,0.9s0.1,0.6,0.2,0.9
			c0.1-0.3,0.1-0.6,0.2-0.9c0.1-0.3,0.2-0.6,0.3-0.9l3.1-7.8c0-0.1,0.1-0.2,0.2-0.3c0.1-0.1,0.2-0.1,0.4-0.1h1.7l-5,12.2h-1.9
			L162.7,285.6z"/>
		<path d="M181.1,285.4c0.7,0,1.4,0.1,2,0.4c0.6,0.2,1.1,0.6,1.6,1.1c0.4,0.5,0.8,1,1.1,1.7s0.4,1.4,0.4,2.3c0,0.3,0,0.6-0.1,0.7
			c-0.1,0.1-0.2,0.2-0.4,0.2h-8.1c0,0.8,0.1,1.4,0.3,2c0.2,0.6,0.5,1,0.8,1.4s0.7,0.7,1.2,0.9c0.5,0.2,1,0.3,1.6,0.3
			c0.5,0,1-0.1,1.4-0.2c0.4-0.1,0.7-0.3,1-0.4c0.3-0.1,0.5-0.3,0.7-0.4s0.3-0.2,0.5-0.2c0.2,0,0.3,0.1,0.4,0.2l0.6,0.8
			c-0.3,0.3-0.6,0.6-0.9,0.8c-0.4,0.2-0.8,0.4-1.2,0.6c-0.4,0.2-0.9,0.3-1.3,0.3c-0.4,0.1-0.9,0.1-1.3,0.1c-0.8,0-1.6-0.1-2.3-0.4
			s-1.3-0.7-1.8-1.2s-0.9-1.2-1.2-2c-0.3-0.8-0.4-1.7-0.4-2.8c0-0.8,0.1-1.6,0.4-2.4c0.3-0.7,0.6-1.4,1.1-1.9c0.5-0.5,1.1-1,1.8-1.3
			S180.2,285.4,181.1,285.4z M181.1,287c-1,0-1.8,0.3-2.4,0.9c-0.6,0.6-1,1.4-1.1,2.5h6.6c0-0.5-0.1-1-0.2-1.4
			c-0.1-0.4-0.3-0.8-0.6-1.1c-0.3-0.3-0.6-0.5-1-0.7S181.6,287,181.1,287z"/>
		<path d="M191.2,280.1v17.7h-2.1v-17.7H191.2z"/>
		<path d="M197.3,280.1v17.7h-2.1v-17.7H197.3z"/>
		<path d="M205.9,285.4c0.7,0,1.4,0.1,2,0.4c0.6,0.2,1.1,0.6,1.6,1.1c0.4,0.5,0.8,1,1.1,1.7s0.4,1.4,0.4,2.3c0,0.3,0,0.6-0.1,0.7
			c-0.1,0.1-0.2,0.2-0.4,0.2h-8.1c0,0.8,0.1,1.4,0.3,2c0.2,0.6,0.5,1,0.8,1.4s0.7,0.7,1.2,0.9c0.5,0.2,1,0.3,1.6,0.3
			c0.5,0,1-0.1,1.4-0.2c0.4-0.1,0.7-0.3,1-0.4c0.3-0.1,0.5-0.3,0.7-0.4s0.3-0.2,0.5-0.2c0.2,0,0.3,0.1,0.4,0.2l0.6,0.8
			c-0.3,0.3-0.6,0.6-0.9,0.8c-0.4,0.2-0.8,0.4-1.2,0.6c-0.4,0.2-0.9,0.3-1.3,0.3c-0.4,0.1-0.9,0.1-1.3,0.1c-0.8,0-1.6-0.1-2.3-0.4
			s-1.3-0.7-1.8-1.2s-0.9-1.2-1.2-2c-0.3-0.8-0.4-1.7-0.4-2.8c0-0.8,0.1-1.6,0.4-2.4c0.3-0.7,0.6-1.4,1.1-1.9c0.5-0.5,1.1-1,1.8-1.3
			S205,285.4,205.9,285.4z M206,287c-1,0-1.8,0.3-2.4,0.9c-0.6,0.6-1,1.4-1.1,2.5h6.6c0-0.5-0.1-1-0.2-1.4c-0.1-0.4-0.3-0.8-0.6-1.1
			c-0.3-0.3-0.6-0.5-1-0.7S206.5,287,206,287z"/>
		<path d="M18.1,314.4h1.8c0.2,0,0.3,0,0.4,0.1c0.1,0.1,0.2,0.2,0.2,0.3l3.1,7.8c0.1,0.3,0.2,0.6,0.3,0.9s0.1,0.6,0.2,0.9
			c0.1-0.3,0.1-0.6,0.2-0.9c0.1-0.3,0.2-0.6,0.3-0.9l3.1-7.8c0-0.1,0.1-0.2,0.2-0.3c0.1-0.1,0.2-0.1,0.4-0.1h1.7l-5,12.2h-1.9
			L18.1,314.4z"/>
		<path d="M40.8,326.6h-0.9c-0.2,0-0.4,0-0.5-0.1s-0.2-0.2-0.3-0.4l-0.2-1.1c-0.3,0.3-0.6,0.5-0.9,0.8c-0.3,0.2-0.6,0.4-1,0.6
			c-0.3,0.2-0.7,0.3-1.1,0.4c-0.4,0.1-0.8,0.1-1.3,0.1c-0.5,0-0.9-0.1-1.3-0.2c-0.4-0.1-0.8-0.3-1.1-0.6c-0.3-0.3-0.5-0.6-0.7-1
			c-0.2-0.4-0.3-0.9-0.3-1.4c0-0.5,0.1-0.9,0.4-1.4s0.7-0.8,1.3-1.2c0.6-0.3,1.4-0.6,2.3-0.8s2.1-0.3,3.5-0.3v-1
			c0-1-0.2-1.7-0.6-2.2c-0.4-0.5-1-0.7-1.8-0.7c-0.5,0-1,0.1-1.3,0.2c-0.4,0.1-0.7,0.3-0.9,0.4s-0.5,0.3-0.7,0.4s-0.4,0.2-0.6,0.2
			c-0.1,0-0.3,0-0.4-0.1s-0.2-0.2-0.3-0.3l-0.4-0.7c0.7-0.6,1.4-1.1,2.2-1.5s1.6-0.5,2.6-0.5c0.7,0,1.3,0.1,1.8,0.3
			c0.5,0.2,1,0.5,1.3,0.9c0.4,0.4,0.6,0.9,0.8,1.5c0.2,0.6,0.3,1.2,0.3,1.9V326.6z M35.3,325.3c0.4,0,0.7,0,1-0.1s0.6-0.2,0.9-0.3
			c0.3-0.1,0.5-0.3,0.8-0.5c0.3-0.2,0.5-0.4,0.7-0.7v-2.5c-1,0-1.8,0.1-2.5,0.2s-1.2,0.3-1.7,0.5s-0.7,0.4-0.9,0.7
			c-0.2,0.3-0.3,0.6-0.3,0.9c0,0.3,0.1,0.6,0.2,0.8s0.2,0.4,0.4,0.6c0.2,0.1,0.4,0.3,0.6,0.3C34.8,325.2,35,325.3,35.3,325.3z"/>
		<path d="M44.1,326.6v-12.2h1.2c0.2,0,0.4,0,0.5,0.1c0.1,0.1,0.1,0.2,0.2,0.5l0.1,1.9c0.4-0.8,0.9-1.5,1.5-2
			c0.6-0.5,1.3-0.7,2.2-0.7c0.3,0,0.6,0,0.9,0.1c0.3,0.1,0.5,0.2,0.8,0.3l-0.3,1.6c-0.1,0.2-0.2,0.3-0.4,0.3c-0.1,0-0.3,0-0.5-0.1
			c-0.2-0.1-0.6-0.1-1-0.1c-0.7,0-1.4,0.2-1.9,0.6c-0.5,0.4-0.9,1.1-1.3,1.9v7.7H44.1z"/>
		<path d="M56.6,310.6c0,0.2,0,0.4-0.1,0.6s-0.2,0.3-0.3,0.5c-0.1,0.1-0.3,0.3-0.5,0.3c-0.2,0.1-0.4,0.1-0.6,0.1s-0.4,0-0.6-0.1
			c-0.2-0.1-0.3-0.2-0.5-0.3c-0.1-0.1-0.2-0.3-0.3-0.5c-0.1-0.2-0.1-0.4-0.1-0.6s0-0.4,0.1-0.6c0.1-0.2,0.2-0.4,0.3-0.5
			c0.1-0.1,0.3-0.2,0.5-0.3c0.2-0.1,0.4-0.1,0.6-0.1s0.4,0,0.6,0.1c0.2,0.1,0.3,0.2,0.5,0.3c0.1,0.1,0.3,0.3,0.3,0.5
			C56.6,310.2,56.6,310.4,56.6,310.6z M56.1,314.4v12.2H54v-12.2H56.1z"/>
		<path d="M68.8,326.6h-0.9c-0.2,0-0.4,0-0.5-0.1s-0.2-0.2-0.3-0.4l-0.2-1.1c-0.3,0.3-0.6,0.5-0.9,0.8c-0.3,0.2-0.6,0.4-1,0.6
			c-0.3,0.2-0.7,0.3-1.1,0.4c-0.4,0.1-0.8,0.1-1.3,0.1c-0.5,0-0.9-0.1-1.3-0.2c-0.4-0.1-0.8-0.3-1.1-0.6c-0.3-0.3-0.5-0.6-0.7-1
			c-0.2-0.4-0.3-0.9-0.3-1.4c0-0.5,0.1-0.9,0.4-1.4s0.7-0.8,1.3-1.2c0.6-0.3,1.4-0.6,2.3-0.8c1-0.2,2.1-0.3,3.5-0.3v-1
			c0-1-0.2-1.7-0.6-2.2c-0.4-0.5-1-0.7-1.8-0.7c-0.5,0-1,0.1-1.3,0.2c-0.4,0.1-0.7,0.3-0.9,0.4s-0.5,0.3-0.7,0.4s-0.4,0.2-0.6,0.2
			c-0.1,0-0.3,0-0.4-0.1s-0.2-0.2-0.3-0.3l-0.4-0.7c0.7-0.6,1.4-1.1,2.2-1.5s1.6-0.5,2.6-0.5c0.7,0,1.3,0.1,1.8,0.3
			c0.5,0.2,1,0.5,1.3,0.9c0.4,0.4,0.6,0.9,0.8,1.5c0.2,0.6,0.3,1.2,0.3,1.9V326.6z M63.3,325.3c0.4,0,0.7,0,1-0.1s0.6-0.2,0.9-0.3
			c0.3-0.1,0.5-0.3,0.8-0.5c0.3-0.2,0.5-0.4,0.7-0.7v-2.5c-1,0-1.8,0.1-2.5,0.2c-0.7,0.1-1.2,0.3-1.7,0.5s-0.7,0.4-0.9,0.7
			c-0.2,0.3-0.3,0.6-0.3,0.9c0,0.3,0.1,0.6,0.2,0.8s0.2,0.4,0.4,0.6c0.2,0.1,0.4,0.3,0.6,0.3C62.7,325.2,63,325.3,63.3,325.3z"/>
		<path d="M72.1,326.6v-12.2h1.3c0.3,0,0.5,0.1,0.6,0.4l0.2,1.3c0.5-0.6,1.1-1.1,1.8-1.4c0.7-0.4,1.4-0.5,2.3-0.5
			c0.7,0,1.2,0.1,1.8,0.3c0.5,0.2,0.9,0.5,1.3,0.9c0.3,0.4,0.6,0.9,0.8,1.5c0.2,0.6,0.3,1.2,0.3,1.9v7.7h-2.1v-7.7
			c0-0.9-0.2-1.6-0.6-2.1s-1.1-0.8-1.9-0.8c-0.6,0-1.2,0.2-1.8,0.5c-0.5,0.3-1.1,0.7-1.5,1.2v9H72.1z"/>
		<path d="M89.1,326.8c-1,0-1.7-0.3-2.2-0.8c-0.5-0.5-0.8-1.3-0.8-2.3v-7.4h-1.5c-0.1,0-0.2,0-0.3-0.1c-0.1-0.1-0.1-0.2-0.1-0.4
			v-0.9l2-0.3l0.5-3.8c0-0.1,0.1-0.2,0.2-0.3c0.1-0.1,0.2-0.1,0.3-0.1h1.1v4.2h3.5v1.5h-3.5v7.3c0,0.5,0.1,0.9,0.4,1.1
			s0.6,0.4,1,0.4c0.2,0,0.4,0,0.6-0.1c0.2-0.1,0.3-0.1,0.4-0.2c0.1-0.1,0.2-0.1,0.3-0.2c0.1-0.1,0.2-0.1,0.2-0.1
			c0.1,0,0.2,0.1,0.3,0.2l0.6,1c-0.4,0.3-0.8,0.6-1.3,0.8C90.2,326.7,89.7,326.8,89.1,326.8z"/>
		<path d="M99.2,314.2c0.7,0,1.4,0.1,2,0.4c0.6,0.2,1.1,0.6,1.6,1.1c0.4,0.5,0.8,1,1.1,1.7s0.4,1.4,0.4,2.3c0,0.3,0,0.6-0.1,0.7
			c-0.1,0.1-0.2,0.2-0.4,0.2h-8.1c0,0.8,0.1,1.4,0.3,2c0.2,0.6,0.5,1,0.8,1.4s0.7,0.7,1.2,0.9c0.5,0.2,1,0.3,1.6,0.3
			c0.5,0,1-0.1,1.4-0.2c0.4-0.1,0.7-0.3,1-0.4c0.3-0.1,0.5-0.3,0.7-0.4s0.3-0.2,0.5-0.2c0.2,0,0.3,0.1,0.4,0.2l0.6,0.8
			c-0.3,0.3-0.6,0.6-0.9,0.8c-0.4,0.2-0.8,0.4-1.2,0.6c-0.4,0.2-0.9,0.3-1.3,0.3c-0.4,0.1-0.9,0.1-1.3,0.1c-0.8,0-1.6-0.1-2.3-0.4
			s-1.3-0.7-1.8-1.2s-0.9-1.2-1.2-2c-0.3-0.8-0.4-1.7-0.4-2.8c0-0.8,0.1-1.6,0.4-2.4c0.3-0.7,0.6-1.4,1.1-1.9c0.5-0.5,1.1-1,1.8-1.3
			S98.3,314.2,99.2,314.2z M99.2,315.8c-1,0-1.8,0.3-2.4,0.9c-0.6,0.6-1,1.4-1.1,2.5h6.6c0-0.5-0.1-1-0.2-1.4
			c-0.1-0.4-0.3-0.8-0.6-1.1c-0.3-0.3-0.6-0.5-1-0.7S99.7,315.8,99.2,315.8z"/>
		<path d="M111.5,320.4v-0.3l3-4.7l0.7,0.3c0.1,0.1,0.2,0.1,0.3,0.2c0.1,0.1,0.1,0.2,0.1,0.3c0,0.1,0,0.3-0.1,0.4l-1.9,3.1
			c-0.1,0.2-0.2,0.3-0.3,0.4c0.1,0.1,0.2,0.3,0.3,0.4l1.9,3.1c0,0.1,0.1,0.1,0.1,0.2c0,0.1,0,0.1,0,0.2c0,0.2-0.1,0.4-0.3,0.5
			l-0.7,0.3L111.5,320.4z M115,320.4v-0.3l3-4.7l0.7,0.3c0.1,0.1,0.2,0.1,0.3,0.2c0.1,0.1,0.1,0.2,0.1,0.3c0,0.1,0,0.3-0.1,0.4
			l-1.9,3.1c-0.1,0.2-0.2,0.3-0.3,0.4c0.1,0.1,0.2,0.3,0.3,0.4l1.9,3.1c0,0.1,0.1,0.1,0.1,0.2c0,0.1,0,0.1,0,0.2
			c0,0.2-0.1,0.4-0.3,0.5L118,325L115,320.4z"/>
		<path d="M132.6,309.4v2H127v15.2h-2.3v-15.2h-5.6v-2H132.6z"/>
		<path d="M132.8,326.6v-12.2h1.2c0.2,0,0.4,0,0.5,0.1c0.1,0.1,0.1,0.2,0.2,0.5l0.1,1.9c0.4-0.8,0.9-1.5,1.5-2
			c0.6-0.5,1.3-0.7,2.2-0.7c0.3,0,0.6,0,0.9,0.1c0.3,0.1,0.5,0.2,0.8,0.3l-0.3,1.6c-0.1,0.2-0.2,0.3-0.4,0.3c-0.1,0-0.3,0-0.5-0.1
			c-0.2-0.1-0.6-0.1-1-0.1c-0.7,0-1.4,0.2-1.9,0.6c-0.5,0.4-0.9,1.1-1.3,1.9v7.7H132.8z"/>
		<path d="M150.9,326.6H150c-0.2,0-0.4,0-0.5-0.1s-0.2-0.2-0.3-0.4l-0.2-1.1c-0.3,0.3-0.6,0.5-0.9,0.8c-0.3,0.2-0.6,0.4-1,0.6
			c-0.3,0.2-0.7,0.3-1.1,0.4c-0.4,0.1-0.8,0.1-1.3,0.1c-0.5,0-0.9-0.1-1.3-0.2c-0.4-0.1-0.8-0.3-1.1-0.6c-0.3-0.3-0.5-0.6-0.7-1
			c-0.2-0.4-0.3-0.9-0.3-1.4c0-0.5,0.1-0.9,0.4-1.4s0.7-0.8,1.3-1.2c0.6-0.3,1.4-0.6,2.3-0.8s2.1-0.3,3.5-0.3v-1
			c0-1-0.2-1.7-0.6-2.2c-0.4-0.5-1-0.7-1.8-0.7c-0.5,0-1,0.1-1.3,0.2c-0.4,0.1-0.7,0.3-0.9,0.4s-0.5,0.3-0.7,0.4s-0.4,0.2-0.6,0.2
			c-0.1,0-0.3,0-0.4-0.1s-0.2-0.2-0.3-0.3l-0.4-0.7c0.7-0.6,1.4-1.1,2.2-1.5s1.6-0.5,2.6-0.5c0.7,0,1.3,0.1,1.8,0.3
			c0.5,0.2,1,0.5,1.3,0.9c0.4,0.4,0.6,0.9,0.8,1.5c0.2,0.6,0.3,1.2,0.3,1.9V326.6z M145.4,325.3c0.4,0,0.7,0,1-0.1s0.6-0.2,0.9-0.3
			c0.3-0.1,0.5-0.3,0.8-0.5c0.3-0.2,0.5-0.4,0.7-0.7v-2.5c-1,0-1.8,0.1-2.5,0.2s-1.2,0.3-1.7,0.5s-0.7,0.4-0.9,0.7
			c-0.2,0.3-0.3,0.6-0.3,0.9c0,0.3,0.1,0.6,0.2,0.8s0.2,0.4,0.4,0.6c0.2,0.1,0.4,0.3,0.6,0.3C144.8,325.2,145.1,325.3,145.4,325.3z"
			/>
		<path d="M162.4,316.6c-0.1,0.1-0.1,0.2-0.2,0.2s-0.2,0.1-0.3,0.1c-0.1,0-0.3,0-0.4-0.2c-0.1-0.1-0.3-0.2-0.5-0.3
			c-0.2-0.1-0.5-0.2-0.8-0.3c-0.3-0.1-0.7-0.2-1.1-0.2c-0.6,0-1.1,0.1-1.6,0.3s-0.8,0.5-1.1,0.9c-0.3,0.4-0.5,0.9-0.7,1.5
			c-0.2,0.6-0.2,1.2-0.2,1.9c0,0.7,0.1,1.4,0.3,2c0.2,0.6,0.4,1.1,0.7,1.4s0.7,0.7,1.1,0.9s0.9,0.3,1.5,0.3c0.5,0,0.9-0.1,1.3-0.2
			c0.3-0.1,0.6-0.3,0.8-0.4c0.2-0.2,0.4-0.3,0.6-0.4s0.3-0.2,0.4-0.2c0.2,0,0.3,0.1,0.4,0.2l0.6,0.8c-0.5,0.6-1.2,1.1-2,1.4
			c-0.8,0.3-1.6,0.5-2.5,0.5c-0.8,0-1.5-0.1-2.1-0.4c-0.7-0.3-1.2-0.7-1.7-1.2s-0.9-1.2-1.1-2c-0.3-0.8-0.4-1.7-0.4-2.7
			c0-0.9,0.1-1.7,0.4-2.5s0.6-1.4,1.1-2c0.5-0.6,1.1-1,1.8-1.3c0.7-0.3,1.5-0.5,2.4-0.5c0.8,0,1.6,0.1,2.3,0.4
			c0.7,0.3,1.2,0.7,1.7,1.2L162.4,316.6z"/>
		<path d="M169,326.8c-1,0-1.7-0.3-2.2-0.8c-0.5-0.5-0.8-1.3-0.8-2.3v-7.4h-1.5c-0.1,0-0.2,0-0.3-0.1c-0.1-0.1-0.1-0.2-0.1-0.4v-0.9
			l2-0.3l0.5-3.8c0-0.1,0.1-0.2,0.2-0.3c0.1-0.1,0.2-0.1,0.3-0.1h1.1v4.2h3.5v1.5h-3.5v7.3c0,0.5,0.1,0.9,0.4,1.1s0.6,0.4,1,0.4
			c0.2,0,0.4,0,0.6-0.1c0.2-0.1,0.3-0.1,0.4-0.2c0.1-0.1,0.2-0.1,0.3-0.2c0.1-0.1,0.2-0.1,0.2-0.1c0.1,0,0.2,0.1,0.3,0.2l0.6,1
			c-0.4,0.3-0.8,0.6-1.3,0.8C170.1,326.7,169.6,326.8,169,326.8z"/>
		<path d="M179.1,314.2c0.7,0,1.4,0.1,2,0.4c0.6,0.2,1.1,0.6,1.6,1.1c0.4,0.5,0.8,1,1.1,1.7s0.4,1.4,0.4,2.3c0,0.3,0,0.6-0.1,0.7
			c-0.1,0.1-0.2,0.2-0.4,0.2h-8.1c0,0.8,0.1,1.4,0.3,2c0.2,0.6,0.5,1,0.8,1.4s0.7,0.7,1.2,0.9c0.5,0.2,1,0.3,1.6,0.3
			c0.5,0,1-0.1,1.4-0.2c0.4-0.1,0.7-0.3,1-0.4c0.3-0.1,0.5-0.3,0.7-0.4s0.3-0.2,0.5-0.2c0.2,0,0.3,0.1,0.4,0.2l0.6,0.8
			c-0.3,0.3-0.6,0.6-0.9,0.8c-0.4,0.2-0.8,0.4-1.2,0.6c-0.4,0.2-0.9,0.3-1.3,0.3c-0.4,0.1-0.9,0.1-1.3,0.1c-0.8,0-1.6-0.1-2.3-0.4
			s-1.3-0.7-1.8-1.2s-0.9-1.2-1.2-2c-0.3-0.8-0.4-1.7-0.4-2.8c0-0.8,0.1-1.6,0.4-2.4c0.3-0.7,0.6-1.4,1.1-1.9c0.5-0.5,1.1-1,1.8-1.3
			S178.2,314.2,179.1,314.2z M179.2,315.8c-1,0-1.8,0.3-2.4,0.9c-0.6,0.6-1,1.4-1.1,2.5h6.6c0-0.5-0.1-1-0.2-1.4
			c-0.1-0.4-0.3-0.8-0.6-1.1c-0.3-0.3-0.6-0.5-1-0.7S179.7,315.8,179.2,315.8z"/>
		<path d="M188.7,314.4v7.8c0,0.9,0.2,1.6,0.6,2.1c0.4,0.5,1.1,0.8,1.9,0.8c0.6,0,1.2-0.1,1.8-0.4c0.6-0.3,1.1-0.7,1.5-1.2v-9h2.1
			v12.2h-1.3c-0.3,0-0.5-0.1-0.6-0.4l-0.2-1.3c-0.5,0.6-1.1,1.1-1.8,1.4c-0.7,0.4-1.4,0.5-2.3,0.5c-0.7,0-1.3-0.1-1.8-0.3
			s-0.9-0.5-1.3-0.9c-0.3-0.4-0.6-0.9-0.8-1.5c-0.2-0.6-0.3-1.2-0.3-1.9v-7.8H188.7z"/>
		<path d="M200.2,326.6v-12.2h1.2c0.2,0,0.4,0,0.5,0.1c0.1,0.1,0.1,0.2,0.2,0.5l0.1,1.9c0.4-0.8,0.9-1.5,1.5-2
			c0.6-0.5,1.3-0.7,2.2-0.7c0.3,0,0.6,0,0.9,0.1c0.3,0.1,0.5,0.2,0.8,0.3l-0.3,1.6c-0.1,0.2-0.2,0.3-0.4,0.3c-0.1,0-0.3,0-0.5-0.1
			c-0.2-0.1-0.6-0.1-1-0.1c-0.7,0-1.4,0.2-1.9,0.6c-0.5,0.4-0.9,1.1-1.3,1.9v7.7H200.2z"/>
		<path d="M211,325l-0.7-0.3c-0.2-0.1-0.3-0.3-0.3-0.5c0-0.1,0-0.3,0.1-0.4l1.9-3.1c0.1-0.2,0.2-0.3,0.3-0.4
			c-0.1-0.1-0.2-0.2-0.3-0.4l-1.9-3.1c-0.1-0.1-0.1-0.3-0.1-0.4c0-0.2,0.1-0.4,0.3-0.5l0.7-0.3l3,4.7v0.3L211,325z M217.5,320.1v0.3
			l-3,4.7l-0.7-0.3c-0.2-0.1-0.3-0.3-0.3-0.5c0-0.1,0-0.3,0.1-0.4l1.9-3.1c0.1-0.2,0.2-0.3,0.3-0.4c-0.1-0.1-0.2-0.2-0.3-0.4
			l-1.9-3.1c-0.1-0.1-0.1-0.3-0.1-0.4c0-0.2,0.1-0.4,0.3-0.5l0.7-0.3L217.5,320.1z"/>
	</g>
	<path class="st6" d="M490.8,188.7l-8.5,29.8h-11.2v-22.9h-4.8v22.7l-16.1,2l1.3,14.9h-9v15.7h6.2c0,0.3,0,0.7,0,1
		c0,7.9,6.5,14.2,14.2,14.2c7.7,0,14.2-6.2,14.2-14.2c0-2.8-0.8-5.3-2.2-7.5h15.4c1.1,12.3,11.6,21.7,23.8,21.7
		c12.8,0,23.9-10.4,23.9-23.9c0-10.7-7-19.5-16.3-22.6v-30.8L490.8,188.7L490.8,188.7z M495.7,194.6H515v23.8c-0.3,0-0.7,0-1,0
		c-2.9,0-5.7,0.5-8.2,1.5l-16.6-1.3L495.7,194.6L495.7,194.6z M514,232.6c6.1,0,9.7,4.5,9.7,9.5c0,5-3.6,9.5-9.7,9.5
		c-6.1,0-9.7-4.5-9.7-9.5C504.3,237.1,507.9,232.6,514,232.6z M462.8,245c4.2,0,7.3,3.2,7.3,6.9s-3.1,6.9-7.3,6.9s-7.3-3.2-7.3-6.9
		S458.6,245,462.8,245z"/>
	<g>
		<path d="M439.4,293.4v2h-5.6v15.2h-2.3v-15.2h-5.6v-2H439.4z"/>
		<path d="M439.6,310.6v-12.2h1.2c0.2,0,0.4,0,0.5,0.1c0.1,0.1,0.1,0.2,0.2,0.5l0.1,1.9c0.4-0.8,0.9-1.5,1.5-2
			c0.6-0.5,1.3-0.7,2.2-0.7c0.3,0,0.6,0,0.9,0.1c0.3,0.1,0.5,0.2,0.8,0.3l-0.3,1.6c-0.1,0.2-0.2,0.3-0.4,0.3c-0.1,0-0.3,0-0.5-0.1
			c-0.2-0.1-0.6-0.1-1-0.1c-0.7,0-1.4,0.2-1.9,0.6c-0.5,0.4-0.9,1.1-1.3,1.9v7.7H439.6z"/>
		<path d="M457.7,310.6h-0.9c-0.2,0-0.4,0-0.5-0.1s-0.2-0.2-0.3-0.4l-0.2-1.1c-0.3,0.3-0.6,0.5-0.9,0.8c-0.3,0.2-0.6,0.4-1,0.6
			c-0.3,0.2-0.7,0.3-1.1,0.4c-0.4,0.1-0.8,0.1-1.3,0.1c-0.5,0-0.9-0.1-1.3-0.2c-0.4-0.1-0.8-0.3-1.1-0.6c-0.3-0.3-0.5-0.6-0.7-1
			c-0.2-0.4-0.3-0.9-0.3-1.4c0-0.5,0.1-0.9,0.4-1.4s0.7-0.8,1.3-1.2c0.6-0.3,1.4-0.6,2.3-0.8s2.1-0.3,3.5-0.3v-1
			c0-1-0.2-1.7-0.6-2.2c-0.4-0.5-1-0.7-1.8-0.7c-0.5,0-1,0.1-1.3,0.2c-0.4,0.1-0.7,0.3-0.9,0.4s-0.5,0.3-0.7,0.4s-0.4,0.2-0.6,0.2
			c-0.1,0-0.3,0-0.4-0.1s-0.2-0.2-0.3-0.3l-0.4-0.7c0.7-0.6,1.4-1.1,2.2-1.5s1.6-0.5,2.6-0.5c0.7,0,1.3,0.1,1.8,0.3
			c0.5,0.2,1,0.5,1.3,0.9c0.4,0.4,0.6,0.9,0.8,1.5c0.2,0.6,0.3,1.2,0.3,1.9V310.6z M452.2,309.3c0.4,0,0.7,0,1-0.1s0.6-0.2,0.9-0.3
			c0.3-0.1,0.5-0.3,0.8-0.5c0.3-0.2,0.5-0.4,0.7-0.7v-2.5c-1,0-1.8,0.1-2.5,0.2s-1.2,0.3-1.7,0.5s-0.7,0.4-0.9,0.7
			c-0.2,0.3-0.3,0.6-0.3,0.9c0,0.3,0.1,0.6,0.2,0.8s0.2,0.4,0.4,0.6c0.2,0.1,0.4,0.3,0.6,0.3C451.7,309.2,451.9,309.3,452.2,309.3z"
			/>
		<path d="M469.3,300.6c-0.1,0.1-0.1,0.2-0.2,0.2s-0.2,0.1-0.3,0.1c-0.1,0-0.3,0-0.4-0.2c-0.1-0.1-0.3-0.2-0.5-0.3
			c-0.2-0.1-0.5-0.2-0.8-0.3c-0.3-0.1-0.7-0.2-1.1-0.2c-0.6,0-1.1,0.1-1.6,0.3s-0.8,0.5-1.1,0.9c-0.3,0.4-0.5,0.9-0.7,1.5
			c-0.2,0.6-0.2,1.2-0.2,1.9c0,0.7,0.1,1.4,0.3,2c0.2,0.6,0.4,1.1,0.7,1.4s0.7,0.7,1.1,0.9s0.9,0.3,1.5,0.3c0.5,0,0.9-0.1,1.3-0.2
			c0.3-0.1,0.6-0.3,0.8-0.4c0.2-0.2,0.4-0.3,0.6-0.4s0.3-0.2,0.4-0.2c0.2,0,0.3,0.1,0.4,0.2l0.6,0.8c-0.5,0.6-1.2,1.1-2,1.4
			c-0.8,0.3-1.6,0.5-2.5,0.5c-0.8,0-1.5-0.1-2.1-0.4c-0.7-0.3-1.2-0.7-1.7-1.2s-0.9-1.2-1.1-2c-0.3-0.8-0.4-1.7-0.4-2.7
			c0-0.9,0.1-1.7,0.4-2.5s0.6-1.4,1.1-2c0.5-0.6,1.1-1,1.8-1.3c0.7-0.3,1.5-0.5,2.4-0.5c0.8,0,1.6,0.1,2.3,0.4
			c0.7,0.3,1.2,0.7,1.7,1.2L469.3,300.6z"/>
		<path d="M475.9,310.8c-1,0-1.7-0.3-2.2-0.8c-0.5-0.5-0.8-1.3-0.8-2.3v-7.4h-1.5c-0.1,0-0.2,0-0.3-0.1c-0.1-0.1-0.1-0.2-0.1-0.4
			v-0.9l2-0.3l0.5-3.8c0-0.1,0.1-0.2,0.2-0.3c0.1-0.1,0.2-0.1,0.3-0.1h1.1v4.2h3.5v1.5H475v7.3c0,0.5,0.1,0.9,0.4,1.1s0.6,0.4,1,0.4
			c0.2,0,0.4,0,0.6-0.1c0.2-0.1,0.3-0.1,0.4-0.2c0.1-0.1,0.2-0.1,0.3-0.2c0.1-0.1,0.2-0.1,0.2-0.1c0.1,0,0.2,0.1,0.3,0.2l0.6,1
			c-0.4,0.3-0.8,0.6-1.3,0.8C477,310.7,476.4,310.8,475.9,310.8z"/>
		<path d="M486,298.2c0.7,0,1.4,0.1,2,0.4c0.6,0.2,1.1,0.6,1.6,1.1c0.4,0.5,0.8,1,1.1,1.7s0.4,1.4,0.4,2.3c0,0.3,0,0.6-0.1,0.7
			c-0.1,0.1-0.2,0.2-0.4,0.2h-8.1c0,0.8,0.1,1.4,0.3,2c0.2,0.6,0.5,1,0.8,1.4s0.7,0.7,1.2,0.9c0.5,0.2,1,0.3,1.6,0.3
			c0.5,0,1-0.1,1.4-0.2c0.4-0.1,0.7-0.3,1-0.4c0.3-0.1,0.5-0.3,0.7-0.4s0.3-0.2,0.5-0.2c0.2,0,0.3,0.1,0.4,0.2l0.6,0.8
			c-0.3,0.3-0.6,0.6-0.9,0.8c-0.4,0.2-0.8,0.4-1.2,0.6c-0.4,0.2-0.9,0.3-1.3,0.3c-0.4,0.1-0.9,0.1-1.3,0.1c-0.8,0-1.6-0.1-2.3-0.4
			s-1.3-0.7-1.8-1.2s-0.9-1.2-1.2-2c-0.3-0.8-0.4-1.7-0.4-2.8c0-0.8,0.1-1.6,0.4-2.4c0.3-0.7,0.6-1.4,1.1-1.9c0.5-0.5,1.1-1,1.8-1.3
			S485.1,298.2,486,298.2z M486,299.8c-1,0-1.8,0.3-2.4,0.9c-0.6,0.6-1,1.4-1.1,2.5h6.6c0-0.5-0.1-1-0.2-1.4
			c-0.1-0.4-0.3-0.8-0.6-1.1c-0.3-0.3-0.6-0.5-1-0.7S486.5,299.8,486,299.8z"/>
		<path d="M495.6,298.4v7.8c0,0.9,0.2,1.6,0.6,2.1c0.4,0.5,1.1,0.8,1.9,0.8c0.6,0,1.2-0.1,1.8-0.4c0.6-0.3,1.1-0.7,1.5-1.2v-9h2.1
			v12.2h-1.3c-0.3,0-0.5-0.1-0.6-0.4l-0.2-1.3c-0.5,0.6-1.1,1.1-1.8,1.4c-0.7,0.4-1.4,0.5-2.3,0.5c-0.7,0-1.3-0.1-1.8-0.3
			s-0.9-0.5-1.3-0.9c-0.3-0.4-0.6-0.9-0.8-1.5c-0.2-0.6-0.3-1.2-0.3-1.9v-7.8H495.6z"/>
		<path d="M507.1,310.6v-12.2h1.2c0.2,0,0.4,0,0.5,0.1c0.1,0.1,0.1,0.2,0.2,0.5l0.1,1.9c0.4-0.8,0.9-1.5,1.5-2
			c0.6-0.5,1.3-0.7,2.2-0.7c0.3,0,0.6,0,0.9,0.1c0.3,0.1,0.5,0.2,0.8,0.3l-0.3,1.6c-0.1,0.2-0.2,0.3-0.4,0.3c-0.1,0-0.3,0-0.5-0.1
			c-0.2-0.1-0.6-0.1-1-0.1c-0.7,0-1.4,0.2-1.9,0.6c-0.5,0.4-0.9,1.1-1.3,1.9v7.7H507.1z"/>
		<path d="M521.4,310.6v-12.2h1.3c0.3,0,0.5,0.1,0.6,0.4l0.2,1.3c0.5-0.6,1.1-1.1,1.8-1.4c0.7-0.4,1.4-0.5,2.3-0.5
			c0.7,0,1.2,0.1,1.8,0.3c0.5,0.2,0.9,0.5,1.3,0.9c0.3,0.4,0.6,0.9,0.8,1.5c0.2,0.6,0.3,1.2,0.3,1.9v7.7h-2.1v-7.7
			c0-0.9-0.2-1.6-0.6-2.1c-0.4-0.5-1.1-0.8-1.9-0.8c-0.6,0-1.2,0.2-1.8,0.5c-0.5,0.3-1.1,0.7-1.5,1.2v9H521.4z"/>
		<path d="M532.9,297.1c0-0.5,0.1-1,0.3-1.5c0.2-0.5,0.5-0.9,0.8-1.2c0.4-0.3,0.8-0.6,1.2-0.8c0.5-0.2,1-0.3,1.5-0.3
			s1.1,0.1,1.5,0.3c0.5,0.2,0.9,0.5,1.2,0.8c0.4,0.3,0.6,0.8,0.8,1.2c0.2,0.5,0.3,1,0.3,1.5c0,0.5-0.1,1-0.3,1.5
			c-0.2,0.5-0.5,0.9-0.8,1.2c-0.4,0.3-0.8,0.6-1.2,0.8c-0.5,0.2-1,0.3-1.5,0.3s-1.1-0.1-1.5-0.3c-0.5-0.2-0.9-0.5-1.2-0.8
			c-0.4-0.3-0.6-0.8-0.8-1.2S532.9,297.6,532.9,297.1z M534.5,297.1c0,0.3,0.1,0.6,0.2,0.9s0.3,0.5,0.5,0.8c0.2,0.2,0.5,0.4,0.8,0.5
			s0.6,0.2,0.9,0.2s0.6-0.1,0.9-0.2s0.5-0.3,0.8-0.5c0.2-0.2,0.4-0.5,0.5-0.8c0.1-0.3,0.2-0.6,0.2-0.9s-0.1-0.7-0.2-0.9
			c-0.1-0.3-0.3-0.6-0.5-0.8c-0.2-0.2-0.5-0.4-0.8-0.5s-0.6-0.2-0.9-0.2s-0.7,0.1-0.9,0.2s-0.5,0.3-0.8,0.5
			c-0.2,0.2-0.4,0.5-0.5,0.8S534.5,296.7,534.5,297.1z"/>
		<path d="M548.8,293.2c0.7,0,1.4,0.1,2,0.3s1.2,0.5,1.6,0.9c0.5,0.4,0.8,0.9,1.1,1.5c0.3,0.6,0.4,1.3,0.4,2c0,0.6-0.1,1.2-0.3,1.8
			c-0.2,0.5-0.5,1.1-0.8,1.6c-0.3,0.5-0.7,1-1.1,1.5s-0.9,0.9-1.4,1.4l-4.5,4.6c0.3-0.1,0.6-0.2,1-0.2c0.3-0.1,0.6-0.1,0.9-0.1h5.8
			c0.2,0,0.4,0.1,0.6,0.2c0.1,0.1,0.2,0.3,0.2,0.5v1.3h-11.5v-0.7c0-0.2,0-0.3,0.1-0.5c0.1-0.2,0.2-0.3,0.3-0.4l5.5-5.5
			c0.5-0.5,0.9-0.9,1.2-1.3c0.4-0.4,0.7-0.9,1-1.3c0.3-0.4,0.5-0.9,0.6-1.3c0.1-0.4,0.2-0.9,0.2-1.4s-0.1-0.9-0.2-1.3
			c-0.2-0.4-0.4-0.7-0.7-0.9s-0.6-0.4-1-0.6c-0.4-0.1-0.8-0.2-1.2-0.2c-0.4,0-0.8,0.1-1.2,0.2c-0.4,0.1-0.7,0.3-1,0.5
			c-0.3,0.2-0.5,0.5-0.7,0.8c-0.2,0.3-0.3,0.7-0.4,1c-0.1,0.2-0.2,0.4-0.3,0.5c-0.1,0.1-0.3,0.2-0.5,0.2c0,0-0.1,0-0.1,0
			c0,0-0.1,0-0.2,0l-1.1-0.2c0.1-0.8,0.3-1.5,0.6-2.1c0.3-0.6,0.7-1.1,1.2-1.5c0.5-0.4,1.1-0.7,1.7-0.9S548.1,293.2,548.8,293.2z"/>
	</g>
	<path class="st6" d="M862.8,188.7l-8.5,29.8h-11.2v-22.9h-4.8v22.7l-16.1,2l1.3,14.9h-9v15.7h6.2c0,0.3,0,0.7,0,1
		c0,7.9,6.5,14.2,14.2,14.2c7.7,0,14.2-6.2,14.2-14.2c0-2.8-0.8-5.3-2.2-7.5h15.4c1.1,12.3,11.6,21.7,23.8,21.7
		c12.8,0,23.9-10.4,23.9-23.9c0-10.7-7-19.5-16.3-22.6v-30.8L862.8,188.7L862.8,188.7z M867.7,194.6H887v23.8c-0.3,0-0.7,0-1,0
		c-2.9,0-5.7,0.5-8.2,1.5l-16.6-1.3L867.7,194.6L867.7,194.6z M886,232.6c6.1,0,9.7,4.5,9.7,9.5c0,5-3.6,9.5-9.7,9.5
		c-6.1,0-9.7-4.5-9.7-9.5C876.3,237.1,879.9,232.6,886,232.6z M834.8,245c4.2,0,7.3,3.2,7.3,6.9s-3.1,6.9-7.3,6.9s-7.3-3.2-7.3-6.9
		S830.6,245,834.8,245z"/>
	<g>
		<path d="M766.3,307c0.1,0,0.2,0.1,0.3,0.2l0.9,1c-0.7,0.8-1.6,1.5-2.6,1.9s-2.2,0.7-3.6,0.7c-1.2,0-2.4-0.2-3.4-0.6
			c-1-0.4-1.9-1-2.6-1.8c-0.7-0.8-1.3-1.7-1.7-2.8c-0.4-1.1-0.6-2.3-0.6-3.6s0.2-2.5,0.6-3.6c0.4-1.1,1-2,1.8-2.8
			c0.8-0.8,1.7-1.4,2.7-1.8c1.1-0.4,2.2-0.6,3.5-0.6c1.3,0,2.4,0.2,3.3,0.6c0.9,0.4,1.7,0.9,2.4,1.6l-0.8,1.1
			c-0.1,0.1-0.1,0.1-0.2,0.2s-0.2,0.1-0.3,0.1c-0.1,0-0.2,0-0.3-0.1c-0.1-0.1-0.3-0.2-0.4-0.3c-0.2-0.1-0.3-0.2-0.6-0.4
			c-0.2-0.1-0.5-0.2-0.8-0.4c-0.3-0.1-0.6-0.2-1-0.3c-0.4-0.1-0.8-0.1-1.4-0.1c-0.9,0-1.8,0.2-2.5,0.5c-0.8,0.3-1.4,0.8-2,1.3
			s-1,1.3-1.3,2.1c-0.3,0.8-0.5,1.8-0.5,2.8c0,1.1,0.2,2,0.5,2.9c0.3,0.8,0.7,1.5,1.3,2.1c0.5,0.6,1.2,1,1.9,1.3
			c0.7,0.3,1.5,0.5,2.4,0.5c0.5,0,1,0,1.4-0.1c0.4-0.1,0.8-0.2,1.1-0.3c0.3-0.1,0.7-0.3,1-0.5c0.3-0.2,0.6-0.4,0.9-0.7
			C766.1,307.1,766.2,307,766.3,307z"/>
		<path d="M775.2,298.2c0.9,0,1.7,0.1,2.4,0.4c0.7,0.3,1.3,0.7,1.8,1.3s0.9,1.2,1.2,2c0.3,0.8,0.4,1.6,0.4,2.6c0,1-0.1,1.8-0.4,2.6
			c-0.3,0.8-0.7,1.4-1.2,2s-1.1,1-1.8,1.3c-0.7,0.3-1.5,0.4-2.4,0.4s-1.7-0.1-2.4-0.4s-1.3-0.7-1.8-1.3s-0.9-1.2-1.2-2
			c-0.3-0.8-0.4-1.6-0.4-2.6c0-1,0.1-1.8,0.4-2.6c0.3-0.8,0.7-1.4,1.2-2s1.1-1,1.8-1.3S774.4,298.2,775.2,298.2z M775.2,309.1
			c1.2,0,2.1-0.4,2.7-1.2c0.6-0.8,0.9-1.9,0.9-3.4c0-1.4-0.3-2.6-0.9-3.4c-0.6-0.8-1.5-1.2-2.7-1.2c-0.6,0-1.1,0.1-1.6,0.3
			s-0.8,0.5-1.1,0.9c-0.3,0.4-0.5,0.9-0.7,1.4c-0.1,0.6-0.2,1.2-0.2,1.9c0,0.7,0.1,1.4,0.2,1.9c0.1,0.6,0.4,1,0.7,1.4
			c0.3,0.4,0.7,0.7,1.1,0.9S774.6,309.1,775.2,309.1z"/>
		<path d="M785.5,298.4v7.8c0,0.9,0.2,1.6,0.6,2.1s1.1,0.8,1.9,0.8c0.6,0,1.2-0.1,1.8-0.4c0.6-0.3,1.1-0.7,1.5-1.2v-9h2.1v12.2h-1.3
			c-0.3,0-0.5-0.1-0.6-0.4l-0.2-1.3c-0.5,0.6-1.1,1.1-1.8,1.4s-1.4,0.5-2.3,0.5c-0.7,0-1.2-0.1-1.8-0.3s-0.9-0.5-1.3-0.9
			c-0.3-0.4-0.6-0.9-0.8-1.5c-0.2-0.6-0.3-1.2-0.3-1.9v-7.8H785.5z M792.2,296.6h-1.4c-0.2,0-0.3-0.1-0.5-0.2l-1.5-1.5l-0.2-0.2
			l-0.2,0.2l-1.5,1.5c0,0-0.1,0.1-0.2,0.1s-0.2,0.1-0.3,0.1h-1.5l2.7-3.2h2L792.2,296.6z"/>
		<path d="M800.7,310.8c-1,0-1.7-0.3-2.2-0.8c-0.5-0.5-0.8-1.3-0.8-2.3v-7.4h-1.5c-0.1,0-0.2,0-0.3-0.1s-0.1-0.2-0.1-0.4v-0.9l2-0.3
			l0.5-3.8c0-0.1,0.1-0.2,0.2-0.3c0.1-0.1,0.2-0.1,0.3-0.1h1.1v4.2h3.5v1.5h-3.5v7.3c0,0.5,0.1,0.9,0.4,1.1s0.6,0.4,1,0.4
			c0.2,0,0.4,0,0.6-0.1c0.2-0.1,0.3-0.1,0.4-0.2c0.1-0.1,0.2-0.1,0.3-0.2c0.1-0.1,0.2-0.1,0.2-0.1c0.1,0,0.2,0.1,0.3,0.2l0.6,1
			c-0.4,0.3-0.8,0.6-1.3,0.8C801.8,310.7,801.3,310.8,800.7,310.8z"/>
		<path d="M819.2,310.6c-0.3,0-0.5-0.1-0.6-0.4l-0.2-1.5c-0.5,0.6-1.1,1.1-1.8,1.5s-1.4,0.6-2.3,0.6c-0.7,0-1.3-0.1-1.9-0.4
			c-0.6-0.3-1.1-0.7-1.5-1.2c-0.4-0.5-0.7-1.2-0.9-1.9c-0.2-0.8-0.3-1.7-0.3-2.7c0-0.9,0.1-1.7,0.4-2.5c0.2-0.8,0.6-1.4,1-2
			c0.5-0.6,1-1,1.7-1.3c0.6-0.3,1.4-0.5,2.2-0.5c0.7,0,1.4,0.1,1.9,0.4c0.5,0.3,1,0.6,1.4,1.1v-6.7h2.1v17.7H819.2z M815,309
			c0.7,0,1.3-0.2,1.8-0.5c0.5-0.3,1-0.8,1.4-1.4v-5.9c-0.4-0.5-0.8-0.9-1.3-1.1c-0.5-0.2-1-0.3-1.6-0.3c-1.1,0-2,0.4-2.6,1.2
			c-0.6,0.8-0.9,2-0.9,3.5c0,0.8,0.1,1.5,0.2,2c0.1,0.6,0.3,1,0.6,1.4c0.3,0.4,0.6,0.6,1,0.8S814.5,309,815,309z"/>
		<path d="M825.5,292.5c0.2,0.4,0.4,0.8,0.5,1.2c0.1,0.4,0.2,0.8,0.2,1.2c0,0.7-0.2,1.4-0.5,2.1c-0.4,0.7-0.8,1.3-1.5,1.8l-0.7-0.4
			c-0.1,0-0.1-0.1-0.1-0.1c0,0,0-0.1,0-0.1c0-0.1,0-0.2,0.1-0.3c0.1-0.2,0.3-0.3,0.4-0.5c0.1-0.2,0.2-0.4,0.3-0.6
			c0.1-0.2,0.2-0.4,0.2-0.6s0.1-0.4,0.1-0.7c0-0.3,0-0.5-0.1-0.8c-0.1-0.3-0.2-0.6-0.4-0.9c-0.1-0.1-0.1-0.2-0.1-0.3
			c0-0.2,0.1-0.3,0.3-0.4L825.5,292.5z"/>
		<path d="M831,298.4v7.8c0,0.9,0.2,1.6,0.6,2.1s1.1,0.8,1.9,0.8c0.6,0,1.2-0.1,1.8-0.4c0.6-0.3,1.1-0.7,1.5-1.2v-9h2.1v12.2h-1.3
			c-0.3,0-0.5-0.1-0.6-0.4l-0.2-1.3c-0.5,0.6-1.1,1.1-1.8,1.4s-1.4,0.5-2.3,0.5c-0.7,0-1.2-0.1-1.8-0.3s-0.9-0.5-1.3-0.9
			c-0.3-0.4-0.6-0.9-0.8-1.5c-0.2-0.6-0.3-1.2-0.3-1.9v-7.8H831z"/>
		<path d="M846.1,310.8c-1,0-1.7-0.3-2.2-0.8c-0.5-0.5-0.8-1.3-0.8-2.3v-7.4h-1.5c-0.1,0-0.2,0-0.3-0.1c-0.1-0.1-0.1-0.2-0.1-0.4
			v-0.9l2-0.3l0.5-3.8c0-0.1,0.1-0.2,0.2-0.3c0.1-0.1,0.2-0.1,0.3-0.1h1.1v4.2h3.5v1.5h-3.5v7.3c0,0.5,0.1,0.9,0.4,1.1
			s0.6,0.4,1,0.4c0.2,0,0.4,0,0.6-0.1c0.2-0.1,0.3-0.1,0.4-0.2s0.2-0.1,0.3-0.2c0.1-0.1,0.2-0.1,0.2-0.1c0.1,0,0.2,0.1,0.3,0.2
			l0.6,1c-0.4,0.3-0.8,0.6-1.3,0.8C847.2,310.7,846.7,310.8,846.1,310.8z"/>
		<path d="M854.3,294.6c0,0.2,0,0.4-0.1,0.6s-0.2,0.3-0.3,0.5c-0.1,0.1-0.3,0.3-0.5,0.3c-0.2,0.1-0.4,0.1-0.6,0.1s-0.4,0-0.6-0.1
			c-0.2-0.1-0.3-0.2-0.5-0.3c-0.1-0.1-0.2-0.3-0.3-0.5c-0.1-0.2-0.1-0.4-0.1-0.6s0-0.4,0.1-0.6c0.1-0.2,0.2-0.4,0.3-0.5
			c0.1-0.1,0.3-0.2,0.5-0.3s0.4-0.1,0.6-0.1s0.4,0,0.6,0.1s0.3,0.2,0.5,0.3c0.1,0.1,0.3,0.3,0.3,0.5
			C854.2,294.2,854.3,294.4,854.3,294.6z M853.8,298.4v12.2h-2.1v-12.2H853.8z"/>
		<path d="M859.9,292.9v17.7h-2.1v-17.7H859.9z"/>
		<path d="M866.5,294.6c0,0.2,0,0.4-0.1,0.6s-0.2,0.3-0.3,0.5c-0.1,0.1-0.3,0.3-0.5,0.3c-0.2,0.1-0.4,0.1-0.6,0.1s-0.4,0-0.6-0.1
			c-0.2-0.1-0.3-0.2-0.5-0.3c-0.1-0.1-0.2-0.3-0.3-0.5s-0.1-0.4-0.1-0.6s0-0.4,0.1-0.6c0.1-0.2,0.2-0.4,0.3-0.5s0.3-0.2,0.5-0.3
			c0.2-0.1,0.4-0.1,0.6-0.1s0.4,0,0.6,0.1c0.2,0.1,0.3,0.2,0.5,0.3s0.3,0.3,0.3,0.5C866.5,294.2,866.5,294.4,866.5,294.6z
			 M866.1,298.4v12.2h-2.1v-12.2H866.1z"/>
		<path d="M876.8,300.4c-0.1,0.2-0.2,0.3-0.4,0.3c-0.1,0-0.3,0-0.4-0.1c-0.2-0.1-0.3-0.2-0.6-0.3c-0.2-0.1-0.5-0.2-0.8-0.3
			c-0.3-0.1-0.7-0.1-1.1-0.1c-0.4,0-0.7,0-1,0.1c-0.3,0.1-0.5,0.2-0.7,0.4s-0.4,0.3-0.5,0.6c-0.1,0.2-0.2,0.4-0.2,0.7
			c0,0.3,0.1,0.6,0.3,0.8s0.4,0.4,0.7,0.5c0.3,0.2,0.6,0.3,1,0.4s0.8,0.2,1.2,0.4c0.4,0.1,0.8,0.3,1.2,0.4c0.4,0.2,0.7,0.4,1,0.6
			c0.3,0.2,0.5,0.5,0.7,0.9c0.2,0.3,0.3,0.8,0.3,1.3c0,0.6-0.1,1.1-0.3,1.6c-0.2,0.5-0.5,0.9-0.9,1.2c-0.4,0.3-0.9,0.6-1.4,0.8
			c-0.6,0.2-1.2,0.3-2,0.3c-0.8,0-1.6-0.1-2.3-0.4c-0.7-0.3-1.3-0.6-1.8-1.1l0.5-0.8c0.1-0.1,0.1-0.2,0.2-0.2
			c0.1-0.1,0.2-0.1,0.3-0.1s0.3,0.1,0.5,0.2s0.4,0.2,0.6,0.4c0.2,0.1,0.5,0.3,0.8,0.4s0.7,0.2,1.2,0.2c0.4,0,0.8-0.1,1.1-0.2
			c0.3-0.1,0.6-0.3,0.8-0.4c0.2-0.2,0.4-0.4,0.5-0.6c0.1-0.2,0.2-0.5,0.2-0.8c0-0.3-0.1-0.6-0.3-0.8s-0.4-0.4-0.7-0.6
			c-0.3-0.2-0.6-0.3-1-0.4c-0.4-0.1-0.8-0.2-1.2-0.4c-0.4-0.1-0.8-0.3-1.2-0.4s-0.7-0.4-1-0.6c-0.3-0.2-0.5-0.6-0.7-0.9
			c-0.2-0.4-0.3-0.8-0.3-1.3c0-0.5,0.1-0.9,0.3-1.3c0.2-0.4,0.5-0.8,0.8-1.1c0.4-0.3,0.8-0.6,1.4-0.8c0.5-0.2,1.1-0.3,1.8-0.3
			c0.8,0,1.5,0.1,2.2,0.4c0.6,0.3,1.2,0.6,1.7,1L876.8,300.4z"/>
		<path d="M889.2,310.6h-0.9c-0.2,0-0.4,0-0.5-0.1s-0.2-0.2-0.3-0.4l-0.2-1.1c-0.3,0.3-0.6,0.5-0.9,0.8c-0.3,0.2-0.6,0.4-1,0.6
			c-0.3,0.2-0.7,0.3-1.1,0.4c-0.4,0.1-0.8,0.1-1.3,0.1c-0.5,0-0.9-0.1-1.3-0.2c-0.4-0.1-0.8-0.3-1.1-0.6c-0.3-0.3-0.5-0.6-0.7-1
			c-0.2-0.4-0.3-0.9-0.3-1.4c0-0.5,0.1-0.9,0.4-1.4c0.3-0.4,0.7-0.8,1.3-1.2c0.6-0.3,1.4-0.6,2.3-0.8s2.1-0.3,3.5-0.3v-1
			c0-1-0.2-1.7-0.6-2.2c-0.4-0.5-1-0.7-1.8-0.7c-0.5,0-1,0.1-1.3,0.2c-0.4,0.1-0.7,0.3-0.9,0.4s-0.5,0.3-0.7,0.4
			c-0.2,0.1-0.4,0.2-0.6,0.2c-0.1,0-0.3,0-0.4-0.1c-0.1-0.1-0.2-0.2-0.3-0.3l-0.4-0.7c0.7-0.6,1.4-1.1,2.2-1.5
			c0.8-0.3,1.6-0.5,2.6-0.5c0.7,0,1.3,0.1,1.8,0.3c0.5,0.2,1,0.5,1.3,0.9c0.4,0.4,0.6,0.9,0.8,1.5c0.2,0.6,0.3,1.2,0.3,1.9V310.6z
			 M883.6,309.3c0.4,0,0.7,0,1-0.1c0.3-0.1,0.6-0.2,0.9-0.3c0.3-0.1,0.5-0.3,0.8-0.5c0.3-0.2,0.5-0.4,0.7-0.7v-2.5
			c-1,0-1.8,0.1-2.5,0.2c-0.7,0.1-1.2,0.3-1.7,0.5c-0.4,0.2-0.7,0.4-0.9,0.7s-0.3,0.6-0.3,0.9c0,0.3,0.1,0.6,0.2,0.8
			c0.1,0.2,0.2,0.4,0.4,0.6c0.2,0.1,0.4,0.3,0.6,0.3S883.4,309.3,883.6,309.3z"/>
		<path d="M896.1,310.8c-1,0-1.7-0.3-2.2-0.8c-0.5-0.5-0.8-1.3-0.8-2.3v-7.4h-1.5c-0.1,0-0.2,0-0.3-0.1c-0.1-0.1-0.1-0.2-0.1-0.4
			v-0.9l2-0.3l0.5-3.8c0-0.1,0.1-0.2,0.2-0.3c0.1-0.1,0.2-0.1,0.3-0.1h1.1v4.2h3.5v1.5h-3.5v7.3c0,0.5,0.1,0.9,0.4,1.1
			s0.6,0.4,1,0.4c0.2,0,0.4,0,0.6-0.1c0.2-0.1,0.3-0.1,0.4-0.2s0.2-0.1,0.3-0.2c0.1-0.1,0.2-0.1,0.2-0.1c0.1,0,0.2,0.1,0.3,0.2
			l0.6,1c-0.4,0.3-0.8,0.6-1.3,0.8C897.2,310.7,896.6,310.8,896.1,310.8z"/>
		<path d="M904.2,294.6c0,0.2,0,0.4-0.1,0.6s-0.2,0.3-0.3,0.5c-0.1,0.1-0.3,0.3-0.5,0.3c-0.2,0.1-0.4,0.1-0.6,0.1s-0.4,0-0.6-0.1
			c-0.2-0.1-0.3-0.2-0.5-0.3c-0.1-0.1-0.2-0.3-0.3-0.5c-0.1-0.2-0.1-0.4-0.1-0.6s0-0.4,0.1-0.6c0.1-0.2,0.2-0.4,0.3-0.5
			c0.1-0.1,0.3-0.2,0.5-0.3s0.4-0.1,0.6-0.1s0.4,0,0.6,0.1s0.3,0.2,0.5,0.3c0.1,0.1,0.3,0.3,0.3,0.5
			C904.2,294.2,904.2,294.4,904.2,294.6z M903.7,298.4v12.2h-2.1v-12.2H903.7z"/>
		<path d="M912.4,298.2c0.9,0,1.7,0.1,2.4,0.4c0.7,0.3,1.3,0.7,1.8,1.3s0.9,1.2,1.2,2c0.3,0.8,0.4,1.6,0.4,2.6c0,1-0.1,1.8-0.4,2.6
			c-0.3,0.8-0.7,1.4-1.2,2s-1.1,1-1.8,1.3c-0.7,0.3-1.5,0.4-2.4,0.4s-1.7-0.1-2.4-0.4s-1.3-0.7-1.8-1.3s-0.9-1.2-1.2-2
			c-0.3-0.8-0.4-1.6-0.4-2.6c0-1,0.1-1.8,0.4-2.6c0.3-0.8,0.7-1.4,1.2-2s1.1-1,1.8-1.3S911.5,298.2,912.4,298.2z M912.4,309.1
			c1.2,0,2.1-0.4,2.7-1.2c0.6-0.8,0.9-1.9,0.9-3.4c0-1.4-0.3-2.6-0.9-3.4c-0.6-0.8-1.5-1.2-2.7-1.2c-0.6,0-1.1,0.1-1.6,0.3
			s-0.8,0.5-1.1,0.9c-0.3,0.4-0.5,0.9-0.7,1.4c-0.1,0.6-0.2,1.2-0.2,1.9c0,0.7,0.1,1.4,0.2,1.9c0.1,0.6,0.4,1,0.7,1.4
			c0.3,0.4,0.7,0.7,1.1,0.9S911.8,309.1,912.4,309.1z"/>
		<path d="M920.9,310.6v-12.2h1.3c0.3,0,0.5,0.1,0.6,0.4l0.2,1.3c0.5-0.6,1.1-1.1,1.8-1.4c0.7-0.4,1.4-0.5,2.3-0.5
			c0.7,0,1.2,0.1,1.8,0.3s0.9,0.5,1.3,0.9c0.3,0.4,0.6,0.9,0.8,1.5c0.2,0.6,0.3,1.2,0.3,1.9v7.7h-2.1v-7.7c0-0.9-0.2-1.6-0.6-2.1
			s-1.1-0.8-1.9-0.8c-0.6,0-1.2,0.2-1.8,0.5c-0.5,0.3-1.1,0.7-1.5,1.2v9H920.9z"/>
		<path d="M938.8,310.6v-12.2h1.3c0.3,0,0.5,0.1,0.6,0.4l0.2,1.3c0.5-0.6,1.1-1.1,1.8-1.4c0.7-0.4,1.4-0.5,2.3-0.5
			c0.7,0,1.2,0.1,1.8,0.3c0.5,0.2,0.9,0.5,1.3,0.9c0.3,0.4,0.6,0.9,0.8,1.5c0.2,0.6,0.3,1.2,0.3,1.9v7.7h-2.1v-7.7
			c0-0.9-0.2-1.6-0.6-2.1s-1.1-0.8-1.9-0.8c-0.6,0-1.2,0.2-1.8,0.5s-1.1,0.7-1.5,1.2v9H938.8z"/>
		<path d="M950.4,297.1c0-0.5,0.1-1,0.3-1.5c0.2-0.5,0.5-0.9,0.8-1.2c0.4-0.3,0.8-0.6,1.2-0.8c0.5-0.2,1-0.3,1.5-0.3
			s1.1,0.1,1.5,0.3c0.5,0.2,0.9,0.5,1.2,0.8c0.4,0.3,0.6,0.8,0.8,1.2c0.2,0.5,0.3,1,0.3,1.5c0,0.5-0.1,1-0.3,1.5
			c-0.2,0.5-0.5,0.9-0.8,1.2c-0.4,0.3-0.8,0.6-1.2,0.8c-0.5,0.2-1,0.3-1.5,0.3s-1.1-0.1-1.5-0.3c-0.5-0.2-0.9-0.5-1.2-0.8
			c-0.4-0.3-0.6-0.8-0.8-1.2S950.4,297.6,950.4,297.1z M951.9,297.1c0,0.3,0.1,0.6,0.2,0.9s0.3,0.5,0.5,0.8c0.2,0.2,0.5,0.4,0.8,0.5
			s0.6,0.2,0.9,0.2s0.6-0.1,0.9-0.2s0.5-0.3,0.8-0.5c0.2-0.2,0.4-0.5,0.5-0.8c0.1-0.3,0.2-0.6,0.2-0.9s-0.1-0.7-0.2-0.9
			c-0.1-0.3-0.3-0.6-0.5-0.8c-0.2-0.2-0.5-0.4-0.8-0.5s-0.6-0.2-0.9-0.2s-0.7,0.1-0.9,0.2s-0.5,0.3-0.8,0.5
			c-0.2,0.2-0.4,0.5-0.5,0.8S951.9,296.7,951.9,297.1z"/>
		<path d="M966.3,293.2c0.7,0,1.4,0.1,2,0.3s1.2,0.5,1.6,0.9c0.5,0.4,0.8,0.9,1.1,1.5c0.3,0.6,0.4,1.3,0.4,2c0,0.6-0.1,1.2-0.3,1.8
			c-0.2,0.5-0.5,1.1-0.8,1.6c-0.3,0.5-0.7,1-1.1,1.5s-0.9,0.9-1.4,1.4l-4.5,4.6c0.3-0.1,0.6-0.2,1-0.2c0.3-0.1,0.6-0.1,0.9-0.1h5.8
			c0.2,0,0.4,0.1,0.6,0.2c0.1,0.1,0.2,0.3,0.2,0.5v1.3h-11.5v-0.7c0-0.2,0-0.3,0.1-0.5c0.1-0.2,0.2-0.3,0.3-0.4l5.5-5.5
			c0.5-0.5,0.9-0.9,1.2-1.3c0.4-0.4,0.7-0.9,1-1.3c0.3-0.4,0.5-0.9,0.6-1.3c0.1-0.4,0.2-0.9,0.2-1.4s-0.1-0.9-0.2-1.3
			c-0.2-0.4-0.4-0.7-0.7-0.9s-0.6-0.4-1-0.6c-0.4-0.1-0.8-0.2-1.2-0.2c-0.4,0-0.8,0.1-1.2,0.2c-0.4,0.1-0.7,0.3-1,0.5
			c-0.3,0.2-0.5,0.5-0.7,0.8c-0.2,0.3-0.3,0.7-0.4,1c-0.1,0.2-0.2,0.4-0.3,0.5c-0.1,0.1-0.3,0.2-0.5,0.2c0,0-0.1,0-0.1,0
			c0,0-0.1,0-0.2,0l-1.1-0.2c0.1-0.8,0.3-1.5,0.6-2.1c0.3-0.6,0.7-1.1,1.2-1.5c0.5-0.4,1.1-0.7,1.7-0.9S965.6,293.2,966.3,293.2z"/>
	</g>
	<path class="st6" d="M944.7,269.2h13.8v-3.5h-4.6v-16.1h-4.1l-5.3,4.9l2.8,2.9c0.9-0.8,1.4-1.2,2-2h0.1v10.4h-4.6V269.2
		L944.7,269.2z M963.1,260c0,6.5-4,14.9-11.5,14.9c-7.5,0-11.5-8.4-11.5-14.9c0-6.5,4-14.9,11.5-14.9
		C959.1,245,963.1,253.4,963.1,260z M981.5,269.2v-18.4c-5.1,0-9.2-4.1-9.2-9.2h-41.4c0,5.1-4.1,9.2-9.2,9.2v18.4
		c5.1,0,9.2,4.1,9.2,9.2h41.4C972.3,273.3,976.4,269.2,981.5,269.2L981.5,269.2z M986.1,239.3v41.4c0,1.3-1,2.3-2.3,2.3h-64.4
		c-1.3,0-2.3-1-2.3-2.3v-41.4c0-1.3,1-2.3,2.3-2.3h64.4C985,237,986.1,238,986.1,239.3z"/>
	<path class="st5" d="M714.3,302L697,282c-0.4-0.5-0.9-0.7-1.4-0.7s-1,0.2-1.4,0.7c-0.4,0.5-0.6,1-0.6,1.7v16.6h-53v6.7h53v16.6
		c0,0.6,0.2,1.2,0.6,1.7c0.4,0.5,0.9,0.7,1.4,0.7c0.5,0,1-0.2,1.4-0.7l17.2-20c0.4-0.5,0.6-1,0.6-1.7
		C714.9,303,714.7,302.5,714.3,302z"/>
</g>
<g>
	<g>
		<polyline class="st0" points="352.8,332.9 352.8,337.9 357.8,337.9 		"/>
		<line class="st7" x1="367.9" y1="337.9" x2="988.7" y2="337.9"/>
		<polyline class="st0" points="993.8,337.9 998.8,337.9 998.8,332.9 		"/>
		<line class="st2" x1="998.8" y1="323.1" x2="998.8" y2="13.8"/>
		<polyline class="st0" points="998.8,8.9 998.8,3.9 993.8,3.9 		"/>
		<line class="st7" x1="983.7" y1="3.9" x2="362.8" y2="3.9"/>
		<polyline class="st0" points="357.8,3.9 352.8,3.9 352.8,8.9 		"/>
		<line class="st2" x1="352.8" y1="18.7" x2="352.8" y2="328"/>
	</g>
</g>
</svg>
