<?xml version="1.0" encoding="utf-8"?>
<!-- Generator: Adobe Illustrator 22.0.1, SVG Export Plug-In . SVG Version: 6.00 Build 0)  -->
<svg version="1.1" id="Calque_1" xmlns="http://www.w3.org/2000/svg" xmlns:xlink="http://www.w3.org/1999/xlink" x="0px" y="0px"
	 viewBox="0 0 999 337" style="enable-background:new 0 0 999 337;" xml:space="preserve">
<style type="text/css">
	.st0{fill:#666666;}
	.st1{fill:#FF9900;}
	.st2{fill:#00CC66;}
	.st3{fill:none;stroke:#000000;stroke-miterlimit:10;stroke-dasharray:10,10;}
	.st4{fill:#CC0033;}
</style>
<path class="st0" d="M339.5,299.6l-17.3-20c-0.4-0.5-0.9-0.7-1.4-0.7s-1,0.2-1.4,0.7s-0.6,1-0.6,1.7v16.6h-53v6.7h53v16.6
	c0,0.6,0.2,1.2,0.6,1.7s0.9,0.7,1.4,0.7s1-0.2,1.4-0.7l17.2-20c0.4-0.5,0.6-1,0.6-1.7C340.1,300.6,339.9,300.1,339.5,299.6z"/>
<path class="st0" d="M339.5,126.6l-17.3-20c-0.4-0.5-0.9-0.7-1.4-0.7s-1,0.2-1.4,0.7s-0.6,1-0.6,1.7v16.6h-53v6.7h53v16.6
	c0,0.6,0.2,1.2,0.6,1.7s0.9,0.7,1.4,0.7s1-0.2,1.4-0.7l17.2-20c0.4-0.5,0.6-1,0.6-1.7C340.1,127.6,339.9,127.1,339.5,126.6z"/>
<g>
	<path class="st1" d="M458.8,13.3l-8.5,29.8h-11.2V20.2h-4.8v22.7l-16.1,2l1.3,14.9h-9v15.7h6.2c0,0.3,0,0.7,0,1
		c0,7.9,6.5,14.2,14.2,14.2s14.2-6.2,14.2-14.2c0-2.8-0.8-5.3-2.2-7.5h15.4c1.1,12.3,11.6,21.6,23.7,21.6
		c12.8,0,23.9-10.4,23.9-23.9c0-10.7-7-19.5-16.3-22.6V13.3H458.8L458.8,13.3z M463.7,19.2H483V43c-0.3,0-0.7,0-1,0
		c-2.9,0-5.7,0.5-8.2,1.5l-16.6-1.3L463.7,19.2L463.7,19.2z M482,57.2c6.1,0,9.7,4.5,9.7,9.5s-3.6,9.5-9.7,9.5
		c-6.1,0-9.7-4.5-9.7-9.5S475.9,57.2,482,57.2z M430.8,69.6c4.2,0,7.3,3.2,7.3,6.9s-3.1,6.9-7.3,6.9c-4.2,0-7.3-3.2-7.3-6.9
		S426.6,69.6,430.8,69.6z"/>
	<g>
		<path d="M407.4,118v2h-5.6v15.2h-2.3V120h-5.6v-2C393.9,118,407.4,118,407.4,118z"/>
		<path d="M407.6,135.2V123h1.2c0.2,0,0.4,0,0.5,0.1c0.1,0.1,0.1,0.2,0.2,0.5l0.1,1.9c0.4-0.8,0.9-1.5,1.5-2
			c0.6-0.5,1.3-0.7,2.2-0.7c0.3,0,0.6,0,0.9,0.1s0.5,0.2,0.8,0.3l-0.3,1.6c-0.1,0.2-0.2,0.3-0.4,0.3c-0.1,0-0.3,0-0.5-0.1
			s-0.6-0.1-1-0.1c-0.7,0-1.4,0.2-1.9,0.6s-0.9,1.1-1.3,1.9v7.7L407.6,135.2L407.6,135.2z"/>
		<path d="M425.7,135.2h-0.9c-0.2,0-0.4,0-0.5-0.1c-0.1-0.1-0.2-0.2-0.3-0.4l-0.2-1.1c-0.3,0.3-0.6,0.5-0.9,0.8
			c-0.3,0.2-0.6,0.4-1,0.6c-0.3,0.2-0.7,0.3-1.1,0.4c-0.4,0.1-0.8,0.1-1.3,0.1s-0.9-0.1-1.3-0.2c-0.4-0.1-0.8-0.3-1.1-0.6
			c-0.3-0.3-0.5-0.6-0.7-1s-0.3-0.9-0.3-1.4s0.1-0.9,0.4-1.4c0.3-0.4,0.7-0.8,1.3-1.2c0.6-0.3,1.4-0.6,2.3-0.8
			c0.9-0.2,2.1-0.3,3.5-0.3v-1c0-1-0.2-1.7-0.6-2.2c-0.4-0.5-1-0.7-1.8-0.7c-0.5,0-1,0.1-1.3,0.2c-0.4,0.1-0.7,0.3-0.9,0.4
			c-0.2,0.1-0.5,0.3-0.7,0.4s-0.4,0.2-0.6,0.2c-0.1,0-0.3,0-0.4-0.1c-0.1-0.1-0.2-0.2-0.3-0.3l-0.4-0.7c0.7-0.6,1.4-1.1,2.2-1.5
			c0.8-0.3,1.6-0.5,2.6-0.5c0.7,0,1.3,0.1,1.8,0.3c0.5,0.2,1,0.5,1.3,0.9c0.4,0.4,0.6,0.9,0.8,1.5s0.3,1.2,0.3,1.9L425.7,135.2
			L425.7,135.2z M420.2,133.9c0.4,0,0.7,0,1-0.1s0.6-0.2,0.9-0.3s0.5-0.3,0.8-0.5s0.5-0.4,0.7-0.7v-2.5c-1,0-1.8,0.1-2.5,0.2
			c-0.7,0.1-1.2,0.3-1.7,0.5s-0.7,0.4-0.9,0.7s-0.3,0.6-0.3,0.9c0,0.3,0.1,0.6,0.2,0.8c0.1,0.2,0.2,0.4,0.4,0.6
			c0.2,0.2,0.4,0.3,0.6,0.3C419.7,133.8,419.9,133.9,420.2,133.9z"/>
		<path d="M437.3,125.2c-0.1,0.1-0.1,0.2-0.2,0.2c-0.1,0-0.2,0.1-0.3,0.1s-0.3,0-0.4-0.1c-0.1-0.1-0.3-0.2-0.5-0.3
			c-0.2-0.1-0.5-0.2-0.8-0.3c-0.3-0.1-0.7-0.2-1.1-0.2c-0.6,0-1.1,0.1-1.6,0.3s-0.8,0.5-1.1,0.9c-0.3,0.4-0.5,0.9-0.7,1.5
			s-0.2,1.2-0.2,1.9s0.1,1.4,0.3,2c0.2,0.6,0.4,1.1,0.7,1.4c0.3,0.4,0.7,0.7,1.1,0.9c0.4,0.2,0.9,0.3,1.5,0.3c0.5,0,0.9-0.1,1.3-0.2
			c0.3-0.1,0.6-0.3,0.8-0.4c0.2-0.2,0.4-0.3,0.6-0.4s0.3-0.2,0.4-0.2c0.2,0,0.3,0.1,0.4,0.2l0.6,0.8c-0.5,0.6-1.2,1.1-2,1.4
			c-0.8,0.3-1.6,0.5-2.5,0.5c-0.8,0-1.5-0.1-2.1-0.4c-0.7-0.3-1.2-0.7-1.7-1.2s-0.9-1.2-1.1-2c-0.3-0.8-0.4-1.7-0.4-2.7
			c0-0.9,0.1-1.7,0.4-2.5s0.6-1.4,1.1-2s1.1-1,1.8-1.3c0.7-0.3,1.5-0.5,2.4-0.5c0.8,0,1.6,0.1,2.3,0.4s1.2,0.7,1.7,1.2L437.3,125.2z
			"/>
		<path d="M443.9,135.4c-1,0-1.7-0.3-2.2-0.8s-0.8-1.3-0.8-2.3v-7.4h-1.5c-0.1,0-0.2,0-0.3-0.1c-0.1-0.1-0.1-0.2-0.1-0.4v-0.9l2-0.3
			l0.5-3.8c0-0.1,0.1-0.2,0.2-0.3c0.1-0.1,0.2-0.1,0.3-0.1h1.1v4.2h3.5v1.5H443v7.3c0,0.5,0.1,0.9,0.4,1.1c0.2,0.2,0.6,0.4,1,0.4
			c0.2,0,0.4,0,0.6-0.1s0.3-0.1,0.4-0.2c0.1-0.1,0.2-0.1,0.3-0.2s0.2-0.1,0.2-0.1c0.1,0,0.2,0.1,0.3,0.2l0.6,1
			c-0.4,0.3-0.8,0.6-1.3,0.8S444.4,135.4,443.9,135.4z"/>
		<path d="M454,122.8c0.7,0,1.4,0.1,2,0.4c0.6,0.2,1.1,0.6,1.6,1.1c0.4,0.5,0.8,1,1.1,1.7s0.4,1.4,0.4,2.3c0,0.3,0,0.6-0.1,0.7
			c-0.1,0.1-0.2,0.2-0.4,0.2h-8.1c0,0.8,0.1,1.4,0.3,2c0.2,0.6,0.5,1,0.8,1.4s0.7,0.7,1.2,0.9s1,0.3,1.6,0.3c0.5,0,1-0.1,1.4-0.2
			c0.4-0.1,0.7-0.3,1-0.4c0.3-0.1,0.5-0.3,0.7-0.4s0.3-0.2,0.5-0.2s0.3,0.1,0.4,0.2l0.6,0.8c-0.3,0.3-0.6,0.6-0.9,0.8
			c-0.4,0.2-0.8,0.4-1.2,0.6c-0.4,0.2-0.9,0.3-1.3,0.3c-0.4,0.1-0.9,0.1-1.3,0.1c-0.8,0-1.6-0.1-2.3-0.4c-0.7-0.3-1.3-0.7-1.8-1.2
			s-0.9-1.2-1.2-2s-0.4-1.7-0.4-2.8c0-0.8,0.1-1.6,0.4-2.4c0.3-0.7,0.6-1.4,1.1-1.9s1.1-1,1.8-1.3C452.3,123,453.1,122.8,454,122.8z
			 M454,124.4c-1,0-1.8,0.3-2.4,0.9c-0.6,0.6-1,1.4-1.1,2.5h6.6c0-0.5-0.1-1-0.2-1.4c-0.1-0.4-0.3-0.8-0.6-1.1
			c-0.3-0.3-0.6-0.5-1-0.7C454.9,124.4,454.5,124.4,454,124.4z"/>
		<path d="M463.6,123v7.8c0,0.9,0.2,1.6,0.6,2.1c0.4,0.5,1.1,0.8,1.9,0.8c0.6,0,1.2-0.1,1.8-0.4c0.6-0.3,1.1-0.7,1.5-1.2v-9h2.1
			v12.2h-1.3c-0.3,0-0.5-0.1-0.6-0.4l-0.2-1.3c-0.5,0.6-1.1,1.1-1.8,1.4c-0.7,0.4-1.4,0.5-2.3,0.5c-0.7,0-1.3-0.1-1.8-0.3
			s-0.9-0.5-1.3-0.9c-0.3-0.4-0.6-0.9-0.8-1.5c-0.2-0.6-0.3-1.2-0.3-1.9v-7.8h2.5V123z"/>
		<path d="M475.1,135.2V123h1.2c0.2,0,0.4,0,0.5,0.1c0.1,0.1,0.1,0.2,0.2,0.5l0.1,1.9c0.4-0.8,0.9-1.5,1.5-2
			c0.6-0.5,1.3-0.7,2.2-0.7c0.3,0,0.6,0,0.9,0.1c0.3,0.1,0.5,0.2,0.8,0.3l-0.3,1.6c-0.1,0.2-0.2,0.3-0.4,0.3c-0.1,0-0.3,0-0.5-0.1
			s-0.6-0.1-1-0.1c-0.7,0-1.4,0.2-1.9,0.6s-0.9,1.1-1.3,1.9v7.7L475.1,135.2L475.1,135.2z"/>
		<path d="M489.4,135.2V123h1.3c0.3,0,0.5,0.1,0.6,0.4l0.2,1.3c0.5-0.6,1.1-1.1,1.8-1.4c0.7-0.4,1.4-0.5,2.3-0.5
			c0.7,0,1.2,0.1,1.8,0.3c0.5,0.2,0.9,0.5,1.3,0.9c0.3,0.4,0.6,0.9,0.8,1.5s0.3,1.2,0.3,1.9v7.7h-2.1v-7.7c0-0.9-0.2-1.6-0.6-2.1
			c-0.4-0.5-1.1-0.8-1.9-0.8c-0.6,0-1.2,0.2-1.8,0.5c-0.5,0.3-1.1,0.7-1.5,1.2v9L489.4,135.2L489.4,135.2z"/>
		<path d="M500.9,121.7c0-0.5,0.1-1,0.3-1.5s0.5-0.9,0.8-1.2c0.4-0.3,0.8-0.6,1.2-0.8c0.5-0.2,1-0.3,1.5-0.3s1.1,0.1,1.5,0.3
			c0.5,0.2,0.9,0.5,1.2,0.8c0.4,0.3,0.6,0.8,0.8,1.2c0.2,0.5,0.3,1,0.3,1.5s-0.1,1-0.3,1.5s-0.5,0.9-0.8,1.2
			c-0.4,0.3-0.8,0.6-1.2,0.8c-0.5,0.2-1,0.3-1.5,0.3s-1.1-0.1-1.5-0.3c-0.5-0.2-0.9-0.5-1.2-0.8c-0.4-0.3-0.6-0.8-0.8-1.2
			S500.9,122.2,500.9,121.7z M502.5,121.7c0,0.3,0.1,0.6,0.2,0.9s0.3,0.5,0.5,0.8c0.2,0.2,0.5,0.4,0.8,0.5s0.6,0.2,0.9,0.2
			s0.6-0.1,0.9-0.2s0.5-0.3,0.8-0.5c0.2-0.2,0.4-0.5,0.5-0.8s0.2-0.6,0.2-0.9s-0.1-0.7-0.2-0.9c-0.1-0.3-0.3-0.6-0.5-0.8
			c-0.2-0.2-0.5-0.4-0.8-0.5s-0.6-0.2-0.9-0.2s-0.7,0.1-0.9,0.2c-0.3,0.1-0.5,0.3-0.8,0.5c-0.2,0.2-0.4,0.5-0.5,0.8
			C502.5,121,502.5,121.3,502.5,121.7z"/>
		<path d="M513.1,133.6h3.7v-11.7c0-0.4,0-0.7,0-1.1l-3.1,2.6c-0.1,0.1-0.2,0.1-0.2,0.1c-0.1,0-0.2,0-0.2,0c-0.1,0-0.2,0-0.3-0.1
			s-0.2-0.1-0.2-0.2l-0.7-0.9l5.1-4.4h1.7v15.7h3.4v1.6h-9.2V133.6z"/>
	</g>
	<path class="st1" d="M830.8,13.3l-8.5,29.8h-11.2V20.2h-4.8v22.7l-16.1,2l1.3,14.9h-9v15.7h6.2c0,0.3,0,0.7,0,1
		c0,7.9,6.5,14.2,14.2,14.2s14.2-6.2,14.2-14.2c0-2.8-0.8-5.3-2.2-7.5h15.4c1.1,12.3,11.6,21.6,23.7,21.6
		c12.8,0,23.9-10.4,23.9-23.9c0-10.7-7-19.5-16.3-22.6V13.3H830.8L830.8,13.3z M835.7,19.2H855V43c-0.3,0-0.7,0-1,0
		c-2.9,0-5.7,0.5-8.2,1.5l-16.6-1.3L835.7,19.2L835.7,19.2z M854,57.2c6.1,0,9.7,4.5,9.7,9.5s-3.6,9.5-9.7,9.5
		c-6.1,0-9.7-4.5-9.7-9.5S847.9,57.2,854,57.2z M802.8,69.6c4.2,0,7.3,3.2,7.3,6.9s-3.1,6.9-7.3,6.9s-7.3-3.2-7.3-6.9
		S798.6,69.6,802.8,69.6z"/>
	<g>
		<path d="M734.3,131.6c0.1,0,0.2,0.1,0.3,0.2l0.9,1c-0.7,0.8-1.6,1.5-2.6,1.9s-2.2,0.7-3.6,0.7c-1.2,0-2.4-0.2-3.4-0.6
			c-1-0.4-1.9-1-2.6-1.8s-1.3-1.7-1.7-2.8s-0.6-2.3-0.6-3.6s0.2-2.5,0.6-3.6c0.4-1.1,1-2,1.8-2.8s1.7-1.4,2.7-1.8
			c1.1-0.4,2.2-0.6,3.5-0.6s2.4,0.2,3.3,0.6s1.7,0.9,2.4,1.6l-0.8,1.1c-0.1,0.1-0.1,0.1-0.2,0.2c-0.1,0.1-0.2,0.1-0.3,0.1
			s-0.2,0-0.3-0.1s-0.3-0.2-0.4-0.3c-0.2-0.1-0.3-0.2-0.6-0.4c-0.2-0.1-0.5-0.2-0.8-0.4c-0.3-0.1-0.6-0.2-1-0.3
			c-0.4-0.1-0.8-0.1-1.4-0.1c-0.9,0-1.8,0.2-2.5,0.5c-0.8,0.3-1.4,0.8-2,1.4s-1,1.3-1.3,2.1c-0.3,0.8-0.5,1.8-0.5,2.8
			c0,1.1,0.2,2,0.5,2.9c0.3,0.8,0.7,1.6,1.3,2.1c0.5,0.6,1.2,1,1.9,1.3s1.5,0.5,2.4,0.5c0.5,0,1,0,1.4-0.1s0.8-0.2,1.1-0.3
			s0.7-0.3,1-0.5s0.6-0.4,0.9-0.7C734.1,131.7,734.2,131.6,734.3,131.6z"/>
		<path d="M743.2,122.8c0.9,0,1.7,0.1,2.4,0.4s1.3,0.7,1.8,1.3s0.9,1.2,1.2,2c0.3,0.8,0.4,1.6,0.4,2.6s-0.1,1.8-0.4,2.6
			c-0.3,0.8-0.7,1.4-1.2,2s-1.1,1-1.8,1.3s-1.5,0.4-2.4,0.4s-1.7-0.1-2.4-0.4s-1.3-0.7-1.8-1.3s-0.9-1.2-1.2-2s-0.4-1.6-0.4-2.6
			s0.1-1.8,0.4-2.6c0.3-0.8,0.7-1.4,1.2-2s1.1-1,1.8-1.3S742.4,122.8,743.2,122.8z M743.2,133.7c1.2,0,2.1-0.4,2.7-1.2
			c0.6-0.8,0.9-1.9,0.9-3.4c0-1.4-0.3-2.6-0.9-3.4c-0.6-0.8-1.5-1.2-2.7-1.2c-0.6,0-1.1,0.1-1.6,0.3s-0.8,0.5-1.1,0.9
			s-0.5,0.9-0.7,1.4c-0.1,0.6-0.2,1.2-0.2,1.9s0.1,1.4,0.2,1.9c0.1,0.6,0.4,1,0.7,1.4s0.7,0.7,1.1,0.9S742.6,133.7,743.2,133.7z"/>
		<path d="M753.5,123v7.8c0,0.9,0.2,1.6,0.6,2.1s1.1,0.8,1.9,0.8c0.6,0,1.2-0.1,1.8-0.4c0.6-0.3,1.1-0.7,1.5-1.2v-9h2.1v12.2h-1.3
			c-0.3,0-0.5-0.1-0.6-0.4l-0.2-1.3c-0.5,0.6-1.1,1.1-1.8,1.4c-0.7,0.4-1.4,0.5-2.3,0.5c-0.7,0-1.2-0.1-1.8-0.3
			c-0.5-0.2-0.9-0.5-1.3-0.9s-0.6-0.9-0.8-1.5s-0.3-1.2-0.3-1.9v-7.8h2.5V123z M760.2,121.2h-1.4c-0.2,0-0.3-0.1-0.5-0.2l-1.5-1.5
			l-0.2-0.2l-0.2,0.2l-1.5,1.5c0,0-0.1,0.1-0.2,0.1s-0.2,0.1-0.3,0.1h-1.5l2.7-3.2h2L760.2,121.2z"/>
		<path d="M768.7,135.4c-1,0-1.7-0.3-2.2-0.8s-0.8-1.3-0.8-2.3v-7.4h-1.5c-0.1,0-0.2,0-0.3-0.1s-0.1-0.2-0.1-0.4v-0.9l2-0.3l0.5-3.8
			c0-0.1,0.1-0.2,0.2-0.3c0.1-0.1,0.2-0.1,0.3-0.1h1.1v4.2h3.5v1.5h-3.5v7.3c0,0.5,0.1,0.9,0.4,1.1c0.2,0.2,0.6,0.4,1,0.4
			c0.2,0,0.4,0,0.6-0.1s0.3-0.1,0.4-0.2c0.1-0.1,0.2-0.1,0.3-0.2s0.2-0.1,0.2-0.1c0.1,0,0.2,0.1,0.3,0.2l0.6,1
			c-0.4,0.3-0.8,0.6-1.3,0.8C769.8,135.3,769.3,135.4,768.7,135.4z"/>
		<path d="M787.2,135.2c-0.3,0-0.5-0.1-0.6-0.4l-0.2-1.5c-0.5,0.6-1.1,1.1-1.8,1.5s-1.4,0.6-2.3,0.6c-0.7,0-1.3-0.1-1.9-0.4
			c-0.6-0.3-1.1-0.7-1.5-1.2s-0.7-1.2-0.9-1.9s-0.3-1.7-0.3-2.7c0-0.9,0.1-1.7,0.4-2.5s0.6-1.4,1-2s1-1,1.7-1.3
			c0.6-0.3,1.4-0.5,2.2-0.5c0.7,0,1.4,0.1,1.9,0.4s1,0.6,1.4,1.1v-6.7h2.1v17.7h-1.2V135.2z M783,133.6c0.7,0,1.3-0.2,1.8-0.5
			s1-0.8,1.4-1.4v-5.9c-0.4-0.5-0.8-0.9-1.3-1.1s-1-0.3-1.6-0.3c-1.1,0-2,0.4-2.6,1.2s-0.9,2-0.9,3.5c0,0.8,0.1,1.5,0.2,2
			c0.1,0.6,0.3,1,0.6,1.4s0.6,0.6,1,0.8S782.5,133.6,783,133.6z"/>
		<path d="M793.5,117.1c0.2,0.4,0.4,0.8,0.5,1.2c0.1,0.4,0.2,0.8,0.2,1.2c0,0.7-0.2,1.4-0.5,2.1c-0.4,0.7-0.8,1.3-1.5,1.8l-0.7-0.4
			c-0.1,0-0.1-0.1-0.1-0.1v-0.1c0-0.1,0-0.2,0.1-0.3c0.1-0.2,0.3-0.3,0.4-0.5c0.1-0.2,0.2-0.4,0.3-0.6s0.2-0.4,0.2-0.6
			s0.1-0.4,0.1-0.7c0-0.3,0-0.5-0.1-0.8s-0.2-0.6-0.4-0.9c-0.1-0.1-0.1-0.2-0.1-0.3c0-0.2,0.1-0.3,0.3-0.4L793.5,117.1z"/>
		<path d="M799,123v7.8c0,0.9,0.2,1.6,0.6,2.1s1.1,0.8,1.9,0.8c0.6,0,1.2-0.1,1.8-0.4c0.6-0.3,1.1-0.7,1.5-1.2v-9h2.1v12.2h-1.3
			c-0.3,0-0.5-0.1-0.6-0.4l-0.2-1.3c-0.5,0.6-1.1,1.1-1.8,1.4c-0.7,0.4-1.4,0.5-2.3,0.5c-0.7,0-1.2-0.1-1.8-0.3
			c-0.5-0.2-0.9-0.5-1.3-0.9s-0.6-0.9-0.8-1.5s-0.3-1.2-0.3-1.9v-7.8h2.5V123z"/>
		<path d="M814.1,135.4c-1,0-1.7-0.3-2.2-0.8s-0.8-1.3-0.8-2.3v-7.4h-1.5c-0.1,0-0.2,0-0.3-0.1s-0.1-0.2-0.1-0.4v-0.9l2-0.3l0.5-3.8
			c0-0.1,0.1-0.2,0.2-0.3c0.1-0.1,0.2-0.1,0.3-0.1h1.1v4.2h3.5v1.5h-3.5v7.3c0,0.5,0.1,0.9,0.4,1.1c0.2,0.2,0.6,0.4,1,0.4
			c0.2,0,0.4,0,0.6-0.1s0.3-0.1,0.4-0.2c0.1-0.1,0.2-0.1,0.3-0.2s0.2-0.1,0.2-0.1c0.1,0,0.2,0.1,0.3,0.2l0.6,1
			c-0.4,0.3-0.8,0.6-1.3,0.8C815.2,135.3,814.7,135.4,814.1,135.4z"/>
		<path d="M822.3,119.2c0,0.2,0,0.4-0.1,0.6s-0.2,0.3-0.3,0.5c-0.1,0.1-0.3,0.3-0.5,0.3c-0.2,0.1-0.4,0.1-0.6,0.1s-0.4,0-0.6-0.1
			c-0.2-0.1-0.3-0.2-0.5-0.3c-0.1-0.1-0.2-0.3-0.3-0.5s-0.1-0.4-0.1-0.6s0-0.4,0.1-0.6s0.2-0.4,0.3-0.5s0.3-0.2,0.5-0.3
			c0.2-0.1,0.4-0.1,0.6-0.1s0.4,0,0.6,0.1c0.2,0.1,0.3,0.2,0.5,0.3c0.1,0.1,0.3,0.3,0.3,0.5S822.3,119,822.3,119.2z M821.8,123v12.2
			h-2.1V123C819.7,123,821.8,123,821.8,123z"/>
		<path d="M827.9,117.5v17.7h-2.1v-17.7C825.8,117.5,827.9,117.5,827.9,117.5z"/>
		<path d="M834.5,119.2c0,0.2,0,0.4-0.1,0.6s-0.2,0.3-0.3,0.5c-0.1,0.1-0.3,0.3-0.5,0.3c-0.2,0.1-0.4,0.1-0.6,0.1s-0.4,0-0.6-0.1
			c-0.2-0.1-0.3-0.2-0.5-0.3c-0.1-0.1-0.2-0.3-0.3-0.5s-0.1-0.4-0.1-0.6s0-0.4,0.1-0.6s0.2-0.4,0.3-0.5s0.3-0.2,0.5-0.3
			c0.2-0.1,0.4-0.1,0.6-0.1s0.4,0,0.6,0.1c0.2,0.1,0.3,0.2,0.5,0.3c0.1,0.1,0.3,0.3,0.3,0.5S834.5,119,834.5,119.2z M834.1,123v12.2
			H832V123C832,123,834.1,123,834.1,123z"/>
		<path d="M844.8,125c-0.1,0.2-0.2,0.3-0.4,0.3c-0.1,0-0.3,0-0.4-0.1c-0.2-0.1-0.3-0.2-0.6-0.3c-0.2-0.1-0.5-0.2-0.8-0.3
			c-0.3-0.1-0.7-0.1-1.1-0.1c-0.4,0-0.7,0-1,0.1s-0.5,0.2-0.7,0.4s-0.4,0.3-0.5,0.6c-0.1,0.2-0.2,0.4-0.2,0.7s0.1,0.6,0.3,0.8
			s0.4,0.4,0.7,0.5s0.6,0.3,1,0.4c0.4,0.1,0.8,0.2,1.2,0.4c0.4,0.1,0.8,0.3,1.2,0.4c0.4,0.2,0.7,0.4,1,0.6c0.3,0.2,0.5,0.5,0.7,0.9
			c0.2,0.3,0.3,0.8,0.3,1.3c0,0.6-0.1,1.1-0.3,1.6s-0.5,0.9-0.9,1.2s-0.9,0.6-1.4,0.8c-0.6,0.2-1.2,0.3-2,0.3s-1.6-0.1-2.3-0.4
			c-0.7-0.3-1.3-0.6-1.8-1.1l0.5-0.8c0.1-0.1,0.1-0.2,0.2-0.2c0.1-0.1,0.2-0.1,0.3-0.1s0.3,0.1,0.5,0.2c0.2,0.1,0.4,0.2,0.6,0.4
			c0.2,0.1,0.5,0.3,0.8,0.4c0.3,0.1,0.7,0.2,1.2,0.2c0.4,0,0.8-0.1,1.1-0.2c0.3-0.1,0.6-0.3,0.8-0.4s0.4-0.4,0.5-0.6
			c0.1-0.2,0.2-0.5,0.2-0.8s-0.1-0.6-0.3-0.8s-0.4-0.4-0.7-0.6c-0.3-0.2-0.6-0.3-1-0.4c-0.4-0.1-0.8-0.2-1.2-0.4
			c-0.4-0.1-0.8-0.3-1.2-0.4s-0.7-0.4-1-0.6c-0.3-0.2-0.5-0.6-0.7-0.9c-0.2-0.4-0.3-0.8-0.3-1.3s0.1-0.9,0.3-1.3
			c0.2-0.4,0.5-0.8,0.8-1.1c0.4-0.3,0.8-0.6,1.4-0.8c0.5-0.2,1.1-0.3,1.8-0.3c0.8,0,1.5,0.1,2.2,0.4c0.6,0.3,1.2,0.6,1.7,1
			L844.8,125z"/>
		<path d="M857.2,135.2h-0.9c-0.2,0-0.4,0-0.5-0.1s-0.2-0.2-0.3-0.4l-0.2-1.1c-0.3,0.3-0.6,0.5-0.9,0.8c-0.3,0.2-0.6,0.4-1,0.6
			c-0.3,0.2-0.7,0.3-1.1,0.4c-0.4,0.1-0.8,0.1-1.3,0.1s-0.9-0.1-1.3-0.2c-0.4-0.1-0.8-0.3-1.1-0.6s-0.5-0.6-0.7-1s-0.3-0.9-0.3-1.4
			s0.1-0.9,0.4-1.4c0.3-0.4,0.7-0.8,1.3-1.2s1.4-0.6,2.3-0.8s2.1-0.3,3.5-0.3v-1c0-1-0.2-1.7-0.6-2.2c-0.4-0.5-1-0.7-1.8-0.7
			c-0.5,0-1,0.1-1.3,0.2c-0.4,0.1-0.7,0.3-0.9,0.4s-0.5,0.3-0.7,0.4s-0.4,0.2-0.6,0.2c-0.1,0-0.3,0-0.4-0.1
			c-0.1-0.1-0.2-0.2-0.3-0.3l-0.4-0.7c0.7-0.6,1.4-1.1,2.2-1.5c0.8-0.3,1.6-0.5,2.6-0.5c0.7,0,1.3,0.1,1.8,0.3
			c0.5,0.2,1,0.5,1.3,0.9c0.4,0.4,0.6,0.9,0.8,1.5s0.3,1.2,0.3,1.9v7.8H857.2z M851.6,133.9c0.4,0,0.7,0,1-0.1s0.6-0.2,0.9-0.3
			c0.3-0.1,0.5-0.3,0.8-0.5s0.5-0.4,0.7-0.7v-2.5c-1,0-1.8,0.1-2.5,0.2c-0.7,0.1-1.2,0.3-1.7,0.5c-0.4,0.2-0.7,0.4-0.9,0.7
			s-0.3,0.6-0.3,0.9c0,0.3,0.1,0.6,0.2,0.8c0.1,0.2,0.2,0.4,0.4,0.6s0.4,0.3,0.6,0.3S851.4,133.9,851.6,133.9z"/>
		<path d="M864.1,135.4c-1,0-1.7-0.3-2.2-0.8s-0.8-1.3-0.8-2.3v-7.4h-1.5c-0.1,0-0.2,0-0.3-0.1s-0.1-0.2-0.1-0.4v-0.9l2-0.3l0.5-3.8
			c0-0.1,0.1-0.2,0.2-0.3c0.1-0.1,0.2-0.1,0.3-0.1h1.1v4.2h3.5v1.5h-3.5v7.3c0,0.5,0.1,0.9,0.4,1.1c0.2,0.2,0.6,0.4,1,0.4
			c0.2,0,0.4,0,0.6-0.1s0.3-0.1,0.4-0.2c0.1-0.1,0.2-0.1,0.3-0.2s0.2-0.1,0.2-0.1c0.1,0,0.2,0.1,0.3,0.2l0.6,1
			c-0.4,0.3-0.8,0.6-1.3,0.8C865.2,135.3,864.6,135.4,864.1,135.4z"/>
		<path d="M872.2,119.2c0,0.2,0,0.4-0.1,0.6s-0.2,0.3-0.3,0.5c-0.1,0.1-0.3,0.3-0.5,0.3c-0.2,0.1-0.4,0.1-0.6,0.1s-0.4,0-0.6-0.1
			c-0.2-0.1-0.3-0.2-0.5-0.3c-0.1-0.1-0.2-0.3-0.3-0.5s-0.1-0.4-0.1-0.6s0-0.4,0.1-0.6s0.2-0.4,0.3-0.5s0.3-0.2,0.5-0.3
			c0.2-0.1,0.4-0.1,0.6-0.1s0.4,0,0.6,0.1c0.2,0.1,0.3,0.2,0.5,0.3c0.1,0.1,0.3,0.3,0.3,0.5S872.2,119,872.2,119.2z M871.7,123v12.2
			h-2.1V123C869.6,123,871.7,123,871.7,123z"/>
		<path d="M880.4,122.8c0.9,0,1.7,0.1,2.4,0.4s1.3,0.7,1.8,1.3s0.9,1.2,1.2,2c0.3,0.8,0.4,1.6,0.4,2.6s-0.1,1.8-0.4,2.6
			c-0.3,0.8-0.7,1.4-1.2,2s-1.1,1-1.8,1.3s-1.5,0.4-2.4,0.4s-1.7-0.1-2.4-0.4s-1.3-0.7-1.8-1.3s-0.9-1.2-1.2-2s-0.4-1.6-0.4-2.6
			s0.1-1.8,0.4-2.6c0.3-0.8,0.7-1.4,1.2-2s1.1-1,1.8-1.3S879.5,122.8,880.4,122.8z M880.4,133.7c1.2,0,2.1-0.4,2.7-1.2
			c0.6-0.8,0.9-1.9,0.9-3.4c0-1.4-0.3-2.6-0.9-3.4c-0.6-0.8-1.5-1.2-2.7-1.2c-0.6,0-1.1,0.1-1.6,0.3s-0.8,0.5-1.1,0.9
			s-0.5,0.9-0.7,1.4c-0.1,0.6-0.2,1.2-0.2,1.9s0.1,1.4,0.2,1.9c0.1,0.6,0.4,1,0.7,1.4s0.7,0.7,1.1,0.9S879.8,133.7,880.4,133.7z"/>
		<path d="M888.9,135.2V123h1.3c0.3,0,0.5,0.1,0.6,0.4l0.2,1.3c0.5-0.6,1.1-1.1,1.8-1.4c0.7-0.4,1.4-0.5,2.3-0.5
			c0.7,0,1.2,0.1,1.8,0.3c0.5,0.2,0.9,0.5,1.3,0.9c0.3,0.4,0.6,0.9,0.8,1.5s0.3,1.2,0.3,1.9v7.7h-2.1v-7.7c0-0.9-0.2-1.6-0.6-2.1
			c-0.4-0.5-1.1-0.8-1.9-0.8c-0.6,0-1.2,0.2-1.8,0.5c-0.5,0.3-1.1,0.7-1.5,1.2v9L888.9,135.2L888.9,135.2z"/>
		<path d="M906.8,135.2V123h1.3c0.3,0,0.5,0.1,0.6,0.4l0.2,1.3c0.5-0.6,1.1-1.1,1.8-1.4s1.4-0.5,2.3-0.5c0.7,0,1.2,0.1,1.8,0.3
			c0.5,0.2,0.9,0.5,1.3,0.9c0.3,0.4,0.6,0.9,0.8,1.5s0.3,1.2,0.3,1.9v7.7h-2.1v-7.7c0-0.9-0.2-1.6-0.6-2.1c-0.4-0.5-1.1-0.8-1.9-0.8
			c-0.6,0-1.2,0.2-1.8,0.5c-0.5,0.3-1.1,0.7-1.5,1.2v9L906.8,135.2L906.8,135.2z"/>
		<path d="M918.4,121.7c0-0.5,0.1-1,0.3-1.5s0.5-0.9,0.8-1.2c0.4-0.3,0.8-0.6,1.2-0.8c0.5-0.2,1-0.3,1.5-0.3s1.1,0.1,1.5,0.3
			c0.5,0.2,0.9,0.5,1.2,0.8c0.4,0.3,0.6,0.8,0.8,1.2c0.2,0.5,0.3,1,0.3,1.5s-0.1,1-0.3,1.5s-0.5,0.9-0.8,1.2
			c-0.4,0.3-0.8,0.6-1.2,0.8c-0.5,0.2-1,0.3-1.5,0.3s-1.1-0.1-1.5-0.3c-0.5-0.2-0.9-0.5-1.2-0.8c-0.4-0.3-0.6-0.8-0.8-1.2
			S918.4,122.2,918.4,121.7z M919.9,121.7c0,0.3,0.1,0.6,0.2,0.9s0.3,0.5,0.5,0.8c0.2,0.2,0.5,0.4,0.8,0.5s0.6,0.2,0.9,0.2
			s0.6-0.1,0.9-0.2s0.5-0.3,0.8-0.5c0.2-0.2,0.4-0.5,0.5-0.8s0.2-0.6,0.2-0.9s-0.1-0.7-0.2-0.9c-0.1-0.3-0.3-0.6-0.5-0.8
			c-0.2-0.2-0.5-0.4-0.8-0.5s-0.6-0.2-0.9-0.2s-0.7,0.1-0.9,0.2c-0.3,0.1-0.5,0.3-0.8,0.5c-0.2,0.2-0.4,0.5-0.5,0.8
			C920,121,919.9,121.3,919.9,121.7z"/>
		<path d="M930.5,133.6h3.7v-11.7c0-0.4,0-0.7,0-1.1l-3.1,2.6c-0.1,0.1-0.2,0.1-0.2,0.1c-0.1,0-0.2,0-0.2,0c-0.1,0-0.2,0-0.3-0.1
			s-0.2-0.1-0.2-0.2l-0.7-0.9l5.1-4.4h1.7v15.7h3.4v1.6h-9.2V133.6z"/>
	</g>
	<path class="st1" d="M912.7,93.8h13.8v-3.5h-4.6V74.2h-4.1l-5.3,4.9l2.8,2.9c0.9-0.8,1.4-1.2,2-2h0.1v10.4h-4.6v3.4H912.7z
		 M931.1,84.6c0,6.5-4,14.9-11.5,14.9s-11.5-8.4-11.5-14.9s3.9-15,11.5-15C927.1,69.6,931.1,78,931.1,84.6z M949.5,93.8V75.4
		c-5.1,0-9.2-4.1-9.2-9.2h-41.4c0,5.1-4.1,9.2-9.2,9.2v18.4c5.1,0,9.2,4.1,9.2,9.2h41.4C940.3,97.9,944.4,93.8,949.5,93.8
		L949.5,93.8z M954.1,63.9v41.4c0,1.3-1,2.3-2.3,2.3h-64.4c-1.3,0-2.3-1-2.3-2.3V63.9c0-1.3,1-2.3,2.3-2.3h64.4
		C953,61.6,954.1,62.6,954.1,63.9z"/>
	<path class="st0" d="M682.3,126.6l-17.3-20c-0.4-0.5-0.9-0.7-1.4-0.7s-1,0.2-1.4,0.7s-0.6,1-0.6,1.7v16.6h-53v6.7h53v16.6
		c0,0.6,0.2,1.2,0.6,1.7c0.4,0.5,0.9,0.7,1.4,0.7s1-0.2,1.4-0.7l17.2-20c0.4-0.5,0.6-1,0.6-1.7C682.9,127.6,682.7,127.1,682.3,126.6
		z"/>
	<path class="st2" d="M458.8,186.3l-8.5,29.8h-11.2v-22.9h-4.8v22.7l-16.1,2l1.3,14.9h-9v15.7h6.2c0,0.3,0,0.7,0,1
		c0,7.9,6.5,14.2,14.2,14.2s14.2-6.2,14.2-14.2c0-2.8-0.8-5.3-2.2-7.5h15.4c1.1,12.3,11.6,21.7,23.8,21.7
		c12.8,0,23.9-10.4,23.9-23.9c0-10.7-7-19.5-16.3-22.6v-30.8L458.8,186.3L458.8,186.3z M463.7,192.2H483V216c-0.3,0-0.7,0-1,0
		c-2.9,0-5.7,0.5-8.2,1.5l-16.6-1.3L463.7,192.2L463.7,192.2z M482,230.2c6.1,0,9.7,4.5,9.7,9.5s-3.6,9.5-9.7,9.5
		c-6.1,0-9.7-4.5-9.7-9.5S475.9,230.2,482,230.2z M430.8,242.6c4.2,0,7.3,3.2,7.3,6.9s-3.1,6.9-7.3,6.9c-4.2,0-7.3-3.2-7.3-6.9
		S426.6,242.6,430.8,242.6z"/>
	<g>
		<path d="M407.4,291v2h-5.6v15.2h-2.3V293h-5.6v-2H407.4z"/>
		<path d="M407.6,308.2V296h1.2c0.2,0,0.4,0,0.5,0.1c0.1,0.1,0.1,0.2,0.2,0.5l0.1,1.9c0.4-0.8,0.9-1.5,1.5-2
			c0.6-0.5,1.3-0.7,2.2-0.7c0.3,0,0.6,0,0.9,0.1s0.5,0.2,0.8,0.3l-0.3,1.6c-0.1,0.2-0.2,0.3-0.4,0.3c-0.1,0-0.3,0-0.5-0.1
			s-0.6-0.1-1-0.1c-0.7,0-1.4,0.2-1.9,0.6s-0.9,1.1-1.3,1.9v7.7h-2V308.2z"/>
		<path d="M425.7,308.2h-0.9c-0.2,0-0.4,0-0.5-0.1c-0.1-0.1-0.2-0.2-0.3-0.4l-0.2-1.1c-0.3,0.3-0.6,0.5-0.9,0.8
			c-0.3,0.2-0.6,0.4-1,0.6c-0.3,0.2-0.7,0.3-1.1,0.4c-0.4,0.1-0.8,0.1-1.3,0.1s-0.9-0.1-1.3-0.2c-0.4-0.1-0.8-0.3-1.1-0.6
			c-0.3-0.3-0.5-0.6-0.7-1s-0.3-0.9-0.3-1.4s0.1-0.9,0.4-1.4s0.7-0.8,1.3-1.2c0.6-0.3,1.4-0.6,2.3-0.8c0.9-0.2,2.1-0.3,3.5-0.3v-1
			c0-1-0.2-1.7-0.6-2.2c-0.4-0.5-1-0.7-1.8-0.7c-0.5,0-1,0.1-1.3,0.2c-0.4,0.1-0.7,0.3-0.9,0.4c-0.2,0.1-0.5,0.3-0.7,0.4
			s-0.4,0.2-0.6,0.2c-0.1,0-0.3,0-0.4-0.1c-0.1-0.1-0.2-0.2-0.3-0.3l-0.4-0.7c0.7-0.6,1.4-1.1,2.2-1.5c0.8-0.4,1.6-0.5,2.6-0.5
			c0.7,0,1.3,0.1,1.8,0.3c0.5,0.2,1,0.5,1.3,0.9c0.4,0.4,0.6,0.9,0.8,1.5s0.3,1.2,0.3,1.9L425.7,308.2L425.7,308.2z M420.2,306.9
			c0.4,0,0.7,0,1-0.1s0.6-0.2,0.9-0.3c0.3-0.1,0.5-0.3,0.8-0.5s0.5-0.4,0.7-0.7v-2.5c-1,0-1.8,0.1-2.5,0.2s-1.2,0.3-1.7,0.5
			s-0.7,0.4-0.9,0.7c-0.2,0.3-0.3,0.6-0.3,0.9s0.1,0.6,0.2,0.8c0.1,0.2,0.2,0.4,0.4,0.6c0.2,0.1,0.4,0.3,0.6,0.3
			C419.7,306.8,419.9,306.9,420.2,306.9z"/>
		<path d="M437.3,298.2c-0.1,0.1-0.1,0.2-0.2,0.2c-0.1,0-0.2,0.1-0.3,0.1s-0.3,0-0.4-0.2c-0.1-0.1-0.3-0.2-0.5-0.3
			c-0.2-0.1-0.5-0.2-0.8-0.3c-0.3-0.1-0.7-0.2-1.1-0.2c-0.6,0-1.1,0.1-1.6,0.3s-0.8,0.5-1.1,0.9c-0.3,0.4-0.5,0.9-0.7,1.5
			s-0.2,1.2-0.2,1.9c0,0.7,0.1,1.4,0.3,2c0.2,0.6,0.4,1.1,0.7,1.4c0.3,0.3,0.7,0.7,1.1,0.9c0.4,0.2,0.9,0.3,1.5,0.3
			c0.5,0,0.9-0.1,1.3-0.2c0.3-0.1,0.6-0.3,0.8-0.4c0.2-0.2,0.4-0.3,0.6-0.4s0.3-0.2,0.4-0.2c0.2,0,0.3,0.1,0.4,0.2l0.6,0.8
			c-0.5,0.6-1.2,1.1-2,1.4s-1.6,0.5-2.5,0.5c-0.8,0-1.5-0.1-2.1-0.4c-0.7-0.3-1.2-0.7-1.7-1.2s-0.9-1.2-1.1-2
			c-0.3-0.8-0.4-1.7-0.4-2.7c0-0.9,0.1-1.7,0.4-2.5s0.6-1.4,1.1-2s1.1-1,1.8-1.3c0.7-0.3,1.5-0.5,2.4-0.5c0.8,0,1.6,0.1,2.3,0.4
			s1.2,0.7,1.7,1.2L437.3,298.2z"/>
		<path d="M443.9,308.4c-1,0-1.7-0.3-2.2-0.8s-0.8-1.3-0.8-2.3v-7.4h-1.5c-0.1,0-0.2,0-0.3-0.1c-0.1-0.1-0.1-0.2-0.1-0.4v-0.9l2-0.3
			l0.5-3.8c0-0.1,0.1-0.2,0.2-0.3c0.1-0.1,0.2-0.1,0.3-0.1h1.1v4.2h3.5v1.5H443v7.3c0,0.5,0.1,0.9,0.4,1.1s0.6,0.4,1,0.4
			c0.2,0,0.4,0,0.6-0.1s0.3-0.1,0.4-0.2c0.1-0.1,0.2-0.1,0.3-0.2s0.2-0.1,0.2-0.1c0.1,0,0.2,0.1,0.3,0.2l0.6,1
			c-0.4,0.3-0.8,0.6-1.3,0.8C445,308.3,444.4,308.4,443.9,308.4z"/>
		<path d="M454,295.8c0.7,0,1.4,0.1,2,0.4c0.6,0.2,1.1,0.6,1.6,1.1c0.4,0.5,0.8,1,1.1,1.7c0.3,0.7,0.4,1.4,0.4,2.3
			c0,0.3,0,0.6-0.1,0.7c-0.1,0.1-0.2,0.2-0.4,0.2h-8.1c0,0.8,0.1,1.4,0.3,2c0.2,0.6,0.5,1,0.8,1.4s0.7,0.7,1.2,0.9
			c0.5,0.2,1,0.3,1.6,0.3c0.5,0,1-0.1,1.4-0.2c0.4-0.1,0.7-0.3,1-0.4s0.5-0.3,0.7-0.4s0.3-0.2,0.5-0.2s0.3,0.1,0.4,0.2l0.6,0.8
			c-0.3,0.3-0.6,0.6-0.9,0.8c-0.4,0.2-0.8,0.4-1.2,0.6s-0.9,0.3-1.3,0.3c-0.4,0.1-0.9,0.1-1.3,0.1c-0.8,0-1.6-0.1-2.3-0.4
			c-0.7-0.3-1.3-0.7-1.8-1.2s-0.9-1.2-1.2-2s-0.4-1.7-0.4-2.8c0-0.8,0.1-1.6,0.4-2.4c0.3-0.7,0.6-1.4,1.1-1.9s1.1-1,1.8-1.3
			C452.6,296.1,453.1,295.8,454,295.8z M454,297.4c-1,0-1.8,0.3-2.4,0.9c-0.6,0.6-1,1.4-1.1,2.5h6.6c0-0.5-0.1-1-0.2-1.4
			c-0.1-0.4-0.3-0.8-0.6-1.1c-0.3-0.3-0.6-0.5-1-0.7C454.9,297.4,454.5,297.4,454,297.4z"/>
		<path d="M463.6,296v7.8c0,0.9,0.2,1.6,0.6,2.1c0.4,0.5,1.1,0.8,1.9,0.8c0.6,0,1.2-0.1,1.8-0.4s1.1-0.7,1.5-1.2v-9h2.1v12.2h-1.3
			c-0.3,0-0.5-0.1-0.6-0.4l-0.2-1.3c-0.5,0.6-1.1,1.1-1.8,1.4c-0.7,0.4-1.4,0.5-2.3,0.5c-0.7,0-1.3-0.1-1.8-0.3s-0.9-0.5-1.3-0.9
			c-0.3-0.4-0.6-0.9-0.8-1.5c-0.2-0.6-0.3-1.2-0.3-1.9v-7.8h2.5V296z"/>
		<path d="M475.1,308.2V296h1.2c0.2,0,0.4,0,0.5,0.1c0.1,0.1,0.1,0.2,0.2,0.5l0.1,1.9c0.4-0.8,0.9-1.5,1.5-2
			c0.6-0.5,1.3-0.7,2.2-0.7c0.3,0,0.6,0,0.9,0.1c0.3,0.1,0.5,0.2,0.8,0.3l-0.3,1.6c-0.1,0.2-0.2,0.3-0.4,0.3c-0.1,0-0.3,0-0.5-0.1
			s-0.6-0.1-1-0.1c-0.7,0-1.4,0.2-1.9,0.6s-0.9,1.1-1.3,1.9v7.7h-2V308.2z"/>
		<path d="M489.4,308.2V296h1.3c0.3,0,0.5,0.1,0.6,0.4l0.2,1.3c0.5-0.6,1.1-1.1,1.8-1.4c0.7-0.4,1.4-0.5,2.3-0.5
			c0.7,0,1.2,0.1,1.8,0.3c0.5,0.2,0.9,0.5,1.3,0.9c0.3,0.4,0.6,0.9,0.8,1.5s0.3,1.2,0.3,1.9v7.7h-2.1v-7.7c0-0.9-0.2-1.6-0.6-2.1
			c-0.4-0.5-1.1-0.8-1.9-0.8c-0.6,0-1.2,0.2-1.8,0.5c-0.5,0.3-1.1,0.7-1.5,1.2v9L489.4,308.2L489.4,308.2z"/>
		<path d="M500.9,294.7c0-0.5,0.1-1,0.3-1.5s0.5-0.9,0.8-1.2c0.4-0.3,0.8-0.6,1.2-0.8c0.5-0.2,1-0.3,1.5-0.3s1.1,0.1,1.5,0.3
			c0.5,0.2,0.9,0.5,1.2,0.8c0.4,0.3,0.6,0.8,0.8,1.2c0.2,0.5,0.3,1,0.3,1.5s-0.1,1-0.3,1.5s-0.5,0.9-0.8,1.2
			c-0.4,0.3-0.8,0.6-1.2,0.8c-0.5,0.2-1,0.3-1.5,0.3s-1.1-0.1-1.5-0.3c-0.5-0.2-0.9-0.5-1.2-0.8c-0.4-0.3-0.6-0.8-0.8-1.2
			S500.9,295.2,500.9,294.7z M502.5,294.7c0,0.3,0.1,0.6,0.2,0.9s0.3,0.5,0.5,0.8c0.2,0.2,0.5,0.4,0.8,0.5s0.6,0.2,0.9,0.2
			s0.6-0.1,0.9-0.2s0.5-0.3,0.8-0.5c0.2-0.2,0.4-0.5,0.5-0.8s0.2-0.6,0.2-0.9s-0.1-0.7-0.2-0.9c-0.1-0.3-0.3-0.6-0.5-0.8
			c-0.2-0.2-0.5-0.4-0.8-0.5s-0.6-0.2-0.9-0.2s-0.7,0.1-0.9,0.2s-0.5,0.3-0.8,0.5c-0.2,0.2-0.4,0.5-0.5,0.8S502.5,294.3,502.5,294.7
			z"/>
		<path d="M516.8,290.8c0.7,0,1.4,0.1,2,0.3s1.2,0.5,1.6,0.9c0.5,0.4,0.8,0.9,1.1,1.5s0.4,1.3,0.4,2c0,0.6-0.1,1.2-0.3,1.8
			c-0.2,0.5-0.5,1.1-0.8,1.6s-0.7,1-1.1,1.5s-0.9,0.9-1.4,1.4l-4.5,4.6c0.3-0.1,0.6-0.2,1-0.2c0.3-0.1,0.6-0.1,0.9-0.1h5.8
			c0.2,0,0.4,0.1,0.6,0.2c0.1,0.1,0.2,0.3,0.2,0.5v1.3h-11.5v-0.7c0-0.2,0-0.3,0.1-0.5s0.2-0.3,0.3-0.4l5.5-5.5
			c0.5-0.5,0.9-0.9,1.2-1.3c0.4-0.4,0.7-0.9,1-1.3s0.5-0.9,0.6-1.3s0.2-0.9,0.2-1.4s-0.1-0.9-0.2-1.3c-0.2-0.4-0.4-0.7-0.7-0.9
			s-0.6-0.4-1-0.6c-0.4-0.1-0.8-0.2-1.2-0.2s-0.8,0.1-1.2,0.2s-0.7,0.3-1,0.5s-0.5,0.5-0.7,0.8s-0.3,0.7-0.4,1
			c-0.1,0.2-0.2,0.4-0.3,0.5s-0.3,0.2-0.5,0.2h-0.1c0,0-0.1,0-0.2,0l-1.1-0.2c0.1-0.8,0.3-1.5,0.6-2.1s0.7-1.1,1.2-1.5
			s1.1-0.7,1.7-0.9S516.1,290.8,516.8,290.8z"/>
	</g>
	<path class="st2" d="M830.8,186.3l-8.5,29.8h-11.2v-22.9h-4.8v22.7l-16.1,2l1.3,14.9h-9v15.7h6.2c0,0.3,0,0.7,0,1
		c0,7.9,6.5,14.2,14.2,14.2s14.2-6.2,14.2-14.2c0-2.8-0.8-5.3-2.2-7.5h15.4c1.1,12.3,11.6,21.7,23.8,21.7
		c12.8,0,23.9-10.4,23.9-23.9c0-10.7-7-19.5-16.3-22.6v-30.8L830.8,186.3L830.8,186.3z M835.7,192.2H855V216c-0.3,0-0.7,0-1,0
		c-2.9,0-5.7,0.5-8.2,1.5l-16.6-1.3L835.7,192.2L835.7,192.2z M854,230.2c6.1,0,9.7,4.5,9.7,9.5s-3.6,9.5-9.7,9.5
		c-6.1,0-9.7-4.5-9.7-9.5S847.9,230.2,854,230.2z M802.8,242.6c4.2,0,7.3,3.2,7.3,6.9s-3.1,6.9-7.3,6.9s-7.3-3.2-7.3-6.9
		S798.6,242.6,802.8,242.6z"/>
	<g>
		<path d="M734.3,304.6c0.1,0,0.2,0.1,0.3,0.2l0.9,1c-0.7,0.8-1.6,1.5-2.6,1.9s-2.2,0.7-3.6,0.7c-1.2,0-2.4-0.2-3.4-0.6
			s-1.9-1-2.6-1.8c-0.7-0.8-1.3-1.7-1.7-2.8c-0.4-1.1-0.6-2.3-0.6-3.6s0.2-2.5,0.6-3.6c0.4-1.1,1-2,1.8-2.8s1.7-1.4,2.7-1.8
			c1.1-0.4,2.2-0.6,3.5-0.6s2.4,0.2,3.3,0.6c0.9,0.4,1.7,0.9,2.4,1.6l-0.8,1.1c-0.1,0.1-0.1,0.1-0.2,0.2s-0.2,0.1-0.3,0.1
			s-0.2,0-0.3-0.1s-0.3-0.2-0.4-0.3c-0.2-0.1-0.3-0.2-0.6-0.4c-0.2-0.1-0.5-0.2-0.8-0.4c-0.3-0.1-0.6-0.2-1-0.3
			c-0.4-0.1-0.8-0.1-1.4-0.1c-0.9,0-1.8,0.2-2.5,0.5c-0.8,0.3-1.4,0.8-2,1.3s-1,1.3-1.3,2.1c-0.3,0.8-0.5,1.8-0.5,2.8
			c0,1.1,0.2,2,0.5,2.9c0.3,0.8,0.7,1.5,1.3,2.1c0.5,0.6,1.2,1,1.9,1.3s1.5,0.5,2.4,0.5c0.5,0,1,0,1.4-0.1s0.8-0.2,1.1-0.3
			c0.3-0.1,0.7-0.3,1-0.5s0.6-0.4,0.9-0.7C734.1,304.7,734.2,304.6,734.3,304.6z"/>
		<path d="M743.2,295.8c0.9,0,1.7,0.1,2.4,0.4s1.3,0.7,1.8,1.3s0.9,1.2,1.2,2s0.4,1.6,0.4,2.6s-0.1,1.8-0.4,2.6
			c-0.3,0.8-0.7,1.4-1.2,2s-1.1,1-1.8,1.3s-1.5,0.4-2.4,0.4s-1.7-0.1-2.4-0.4s-1.3-0.7-1.8-1.3s-0.9-1.2-1.2-2s-0.4-1.6-0.4-2.6
			s0.1-1.8,0.4-2.6c0.3-0.8,0.7-1.4,1.2-2s1.1-1,1.8-1.3S742.4,295.8,743.2,295.8z M743.2,306.7c1.2,0,2.1-0.4,2.7-1.2
			c0.6-0.8,0.9-1.9,0.9-3.4c0-1.4-0.3-2.6-0.9-3.4c-0.6-0.8-1.5-1.2-2.7-1.2c-0.6,0-1.1,0.1-1.6,0.3s-0.8,0.5-1.1,0.9
			s-0.5,0.9-0.7,1.4c-0.1,0.6-0.2,1.2-0.2,1.9c0,0.7,0.1,1.4,0.2,1.9c0.1,0.6,0.4,1,0.7,1.4s0.7,0.7,1.1,0.9
			S742.6,306.7,743.2,306.7z"/>
		<path d="M753.5,296v7.8c0,0.9,0.2,1.6,0.6,2.1s1.1,0.8,1.9,0.8c0.6,0,1.2-0.1,1.8-0.4s1.1-0.7,1.5-1.2v-9h2.1v12.2h-1.3
			c-0.3,0-0.5-0.1-0.6-0.4l-0.2-1.3c-0.5,0.6-1.1,1.1-1.8,1.4s-1.4,0.5-2.3,0.5c-0.7,0-1.2-0.1-1.8-0.3s-0.9-0.5-1.3-0.9
			c-0.3-0.4-0.6-0.9-0.8-1.5s-0.3-1.2-0.3-1.9v-7.8h2.5V296z M760.2,294.2h-1.4c-0.2,0-0.3-0.1-0.5-0.2l-1.5-1.5l-0.2-0.2l-0.2,0.2
			l-1.5,1.5c0,0-0.1,0.1-0.2,0.1s-0.2,0.1-0.3,0.1h-1.5l2.7-3.2h2L760.2,294.2z"/>
		<path d="M768.7,308.4c-1,0-1.7-0.3-2.2-0.8s-0.8-1.3-0.8-2.3v-7.4h-1.5c-0.1,0-0.2,0-0.3-0.1s-0.1-0.2-0.1-0.4v-0.9l2-0.3l0.5-3.8
			c0-0.1,0.1-0.2,0.2-0.3c0.1-0.1,0.2-0.1,0.3-0.1h1.1v4.2h3.5v1.5h-3.5v7.3c0,0.5,0.1,0.9,0.4,1.1s0.6,0.4,1,0.4
			c0.2,0,0.4,0,0.6-0.1c0.2-0.1,0.3-0.1,0.4-0.2c0.1-0.1,0.2-0.1,0.3-0.2s0.2-0.1,0.2-0.1c0.1,0,0.2,0.1,0.3,0.2l0.6,1
			c-0.4,0.3-0.8,0.6-1.3,0.8C769.8,308.3,769.3,308.4,768.7,308.4z"/>
		<path d="M787.2,308.2c-0.3,0-0.5-0.1-0.6-0.4l-0.2-1.5c-0.5,0.6-1.1,1.1-1.8,1.5s-1.4,0.6-2.3,0.6c-0.7,0-1.3-0.1-1.9-0.4
			c-0.6-0.3-1.1-0.7-1.5-1.2s-0.7-1.2-0.9-1.9c-0.2-0.8-0.3-1.7-0.3-2.7c0-0.9,0.1-1.7,0.4-2.5c0.2-0.8,0.6-1.4,1-2
			c0.5-0.6,1-1,1.7-1.3c0.6-0.3,1.4-0.5,2.2-0.5c0.7,0,1.4,0.1,1.9,0.4s1,0.6,1.4,1.1v-6.7h2.1v17.7h-1.2V308.2z M783,306.6
			c0.7,0,1.3-0.2,1.8-0.5s1-0.8,1.4-1.4v-5.9c-0.4-0.5-0.8-0.9-1.3-1.1s-1-0.3-1.6-0.3c-1.1,0-2,0.4-2.6,1.2c-0.6,0.8-0.9,2-0.9,3.5
			c0,0.8,0.1,1.5,0.2,2c0.1,0.6,0.3,1,0.6,1.4s0.6,0.6,1,0.8S782.5,306.6,783,306.6z"/>
		<path d="M793.5,290.1c0.2,0.4,0.4,0.8,0.5,1.2c0.1,0.4,0.2,0.8,0.2,1.2c0,0.7-0.2,1.4-0.5,2.1c-0.4,0.7-0.8,1.3-1.5,1.8l-0.7-0.4
			c-0.1,0-0.1-0.1-0.1-0.1v-0.1c0-0.1,0-0.2,0.1-0.3c0.1-0.2,0.3-0.3,0.4-0.5c0.1-0.2,0.2-0.4,0.3-0.6s0.2-0.4,0.2-0.6
			s0.1-0.4,0.1-0.7c0-0.3,0-0.5-0.1-0.8s-0.2-0.6-0.4-0.9c-0.1-0.1-0.1-0.2-0.1-0.3c0-0.2,0.1-0.3,0.3-0.4L793.5,290.1z"/>
		<path d="M799,296v7.8c0,0.9,0.2,1.6,0.6,2.1s1.1,0.8,1.9,0.8c0.6,0,1.2-0.1,1.8-0.4s1.1-0.7,1.5-1.2v-9h2.1v12.2h-1.3
			c-0.3,0-0.5-0.1-0.6-0.4l-0.2-1.3c-0.5,0.6-1.1,1.1-1.8,1.4s-1.4,0.5-2.3,0.5c-0.7,0-1.2-0.1-1.8-0.3s-0.9-0.5-1.3-0.9
			c-0.3-0.4-0.6-0.9-0.8-1.5s-0.3-1.2-0.3-1.9v-7.8h2.5V296z"/>
		<path d="M814.1,308.4c-1,0-1.7-0.3-2.2-0.8s-0.8-1.3-0.8-2.3v-7.4h-1.5c-0.1,0-0.2,0-0.3-0.1s-0.1-0.2-0.1-0.4v-0.9l2-0.3l0.5-3.8
			c0-0.1,0.1-0.2,0.2-0.3c0.1-0.1,0.2-0.1,0.3-0.1h1.1v4.2h3.5v1.5h-3.5v7.3c0,0.5,0.1,0.9,0.4,1.1s0.6,0.4,1,0.4
			c0.2,0,0.4,0,0.6-0.1c0.2-0.1,0.3-0.1,0.4-0.2s0.2-0.1,0.3-0.2s0.2-0.1,0.2-0.1c0.1,0,0.2,0.1,0.3,0.2l0.6,1
			c-0.4,0.3-0.8,0.6-1.3,0.8C815.2,308.3,814.7,308.4,814.1,308.4z"/>
		<path d="M822.3,292.2c0,0.2,0,0.4-0.1,0.6s-0.2,0.3-0.3,0.5c-0.1,0.1-0.3,0.3-0.5,0.3c-0.2,0.1-0.4,0.1-0.6,0.1s-0.4,0-0.6-0.1
			c-0.2-0.1-0.3-0.2-0.5-0.3c-0.1-0.1-0.2-0.3-0.3-0.5s-0.1-0.4-0.1-0.6s0-0.4,0.1-0.6s0.2-0.4,0.3-0.5s0.3-0.2,0.5-0.3
			s0.4-0.1,0.6-0.1s0.4,0,0.6,0.1s0.3,0.2,0.5,0.3c0.1,0.1,0.3,0.3,0.3,0.5S822.3,292,822.3,292.2z M821.8,296v12.2h-2.1V296H821.8z
			"/>
		<path d="M827.9,290.5v17.7h-2.1v-17.7H827.9z"/>
		<path d="M834.5,292.2c0,0.2,0,0.4-0.1,0.6s-0.2,0.3-0.3,0.5c-0.1,0.1-0.3,0.3-0.5,0.3c-0.2,0.1-0.4,0.1-0.6,0.1s-0.4,0-0.6-0.1
			c-0.2-0.1-0.3-0.2-0.5-0.3c-0.1-0.1-0.2-0.3-0.3-0.5s-0.1-0.4-0.1-0.6s0-0.4,0.1-0.6s0.2-0.4,0.3-0.5s0.3-0.2,0.5-0.3
			c0.2-0.1,0.4-0.1,0.6-0.1s0.4,0,0.6,0.1c0.2,0.1,0.3,0.2,0.5,0.3s0.3,0.3,0.3,0.5C834.5,291.8,834.5,292,834.5,292.2z M834.1,296
			v12.2H832V296H834.1z"/>
		<path d="M844.8,298c-0.1,0.2-0.2,0.3-0.4,0.3c-0.1,0-0.3,0-0.4-0.1c-0.2-0.1-0.3-0.2-0.6-0.3c-0.2-0.1-0.5-0.2-0.8-0.3
			c-0.3-0.1-0.7-0.1-1.1-0.1c-0.4,0-0.7,0-1,0.1s-0.5,0.2-0.7,0.4s-0.4,0.3-0.5,0.6c-0.1,0.2-0.2,0.4-0.2,0.7c0,0.3,0.1,0.6,0.3,0.8
			s0.4,0.4,0.7,0.5c0.3,0.2,0.6,0.3,1,0.4s0.8,0.2,1.2,0.4c0.4,0.1,0.8,0.3,1.2,0.4c0.4,0.2,0.7,0.4,1,0.6s0.5,0.5,0.7,0.9
			c0.2,0.3,0.3,0.8,0.3,1.3c0,0.6-0.1,1.1-0.3,1.6s-0.5,0.9-0.9,1.2c-0.4,0.3-0.9,0.6-1.4,0.8c-0.6,0.2-1.2,0.3-2,0.3
			s-1.6-0.1-2.3-0.4s-1.3-0.6-1.8-1.1l0.5-0.8c0.1-0.1,0.1-0.2,0.2-0.2c0.1-0.1,0.2-0.1,0.3-0.1s0.3,0.1,0.5,0.2s0.4,0.2,0.6,0.4
			c0.2,0.1,0.5,0.3,0.8,0.4s0.7,0.2,1.2,0.2c0.4,0,0.8-0.1,1.1-0.2s0.6-0.3,0.8-0.4c0.2-0.2,0.4-0.4,0.5-0.6s0.2-0.5,0.2-0.8
			s-0.1-0.6-0.3-0.8s-0.4-0.4-0.7-0.6s-0.6-0.3-1-0.4s-0.8-0.2-1.2-0.4c-0.4-0.1-0.8-0.3-1.2-0.4s-0.7-0.4-1-0.6s-0.5-0.6-0.7-0.9
			c-0.2-0.4-0.3-0.8-0.3-1.3s0.1-0.9,0.3-1.3s0.5-0.8,0.8-1.1c0.4-0.3,0.8-0.6,1.4-0.8c0.5-0.2,1.1-0.3,1.8-0.3
			c0.8,0,1.5,0.1,2.2,0.4c0.6,0.3,1.2,0.6,1.7,1L844.8,298z"/>
		<path d="M857.2,308.2h-0.9c-0.2,0-0.4,0-0.5-0.1s-0.2-0.2-0.3-0.4l-0.2-1.1c-0.3,0.3-0.6,0.5-0.9,0.8c-0.3,0.2-0.6,0.4-1,0.6
			c-0.3,0.2-0.7,0.3-1.1,0.4c-0.4,0.1-0.8,0.1-1.3,0.1s-0.9-0.1-1.3-0.2c-0.4-0.1-0.8-0.3-1.1-0.6c-0.3-0.3-0.5-0.6-0.7-1
			s-0.3-0.9-0.3-1.4s0.1-0.9,0.4-1.4c0.3-0.4,0.7-0.8,1.3-1.2c0.6-0.3,1.4-0.6,2.3-0.8s2.1-0.3,3.5-0.3v-1c0-1-0.2-1.7-0.6-2.2
			c-0.4-0.5-1-0.7-1.8-0.7c-0.5,0-1,0.1-1.3,0.2c-0.4,0.1-0.7,0.3-0.9,0.4s-0.5,0.3-0.7,0.4s-0.4,0.2-0.6,0.2c-0.1,0-0.3,0-0.4-0.1
			c-0.1-0.1-0.2-0.2-0.3-0.3l-0.4-0.7c0.7-0.6,1.4-1.1,2.2-1.5c0.8-0.3,1.6-0.5,2.6-0.5c0.7,0,1.3,0.1,1.8,0.3
			c0.5,0.2,1,0.5,1.3,0.9c0.4,0.4,0.6,0.9,0.8,1.5s0.3,1.2,0.3,1.9v7.8H857.2z M851.6,306.9c0.4,0,0.7,0,1-0.1s0.6-0.2,0.9-0.3
			c0.3-0.1,0.5-0.3,0.8-0.5s0.5-0.4,0.7-0.7v-2.5c-1,0-1.8,0.1-2.5,0.2s-1.2,0.3-1.7,0.5c-0.4,0.2-0.7,0.4-0.9,0.7s-0.3,0.6-0.3,0.9
			s0.1,0.6,0.2,0.8c0.1,0.2,0.2,0.4,0.4,0.6c0.2,0.1,0.4,0.3,0.6,0.3S851.4,306.9,851.6,306.9z"/>
		<path d="M864.1,308.4c-1,0-1.7-0.3-2.2-0.8s-0.8-1.3-0.8-2.3v-7.4h-1.5c-0.1,0-0.2,0-0.3-0.1s-0.1-0.2-0.1-0.4v-0.9l2-0.3l0.5-3.8
			c0-0.1,0.1-0.2,0.2-0.3c0.1-0.1,0.2-0.1,0.3-0.1h1.1v4.2h3.5v1.5h-3.5v7.3c0,0.5,0.1,0.9,0.4,1.1s0.6,0.4,1,0.4
			c0.2,0,0.4,0,0.6-0.1c0.2-0.1,0.3-0.1,0.4-0.2s0.2-0.1,0.3-0.2s0.2-0.1,0.2-0.1c0.1,0,0.2,0.1,0.3,0.2l0.6,1
			c-0.4,0.3-0.8,0.6-1.3,0.8C865.2,308.3,864.6,308.4,864.1,308.4z"/>
		<path d="M872.2,292.2c0,0.2,0,0.4-0.1,0.6s-0.2,0.3-0.3,0.5c-0.1,0.1-0.3,0.3-0.5,0.3c-0.2,0.1-0.4,0.1-0.6,0.1s-0.4,0-0.6-0.1
			c-0.2-0.1-0.3-0.2-0.5-0.3c-0.1-0.1-0.2-0.3-0.3-0.5s-0.1-0.4-0.1-0.6s0-0.4,0.1-0.6s0.2-0.4,0.3-0.5s0.3-0.2,0.5-0.3
			s0.4-0.1,0.6-0.1s0.4,0,0.6,0.1s0.3,0.2,0.5,0.3c0.1,0.1,0.3,0.3,0.3,0.5C872.2,291.8,872.2,292,872.2,292.2z M871.7,296v12.2
			h-2.1V296H871.7z"/>
		<path d="M880.4,295.8c0.9,0,1.7,0.1,2.4,0.4s1.3,0.7,1.8,1.3s0.9,1.2,1.2,2s0.4,1.6,0.4,2.6s-0.1,1.8-0.4,2.6
			c-0.3,0.8-0.7,1.4-1.2,2s-1.1,1-1.8,1.3s-1.5,0.4-2.4,0.4s-1.7-0.1-2.4-0.4s-1.3-0.7-1.8-1.3s-0.9-1.2-1.2-2s-0.4-1.6-0.4-2.6
			s0.1-1.8,0.4-2.6c0.3-0.8,0.7-1.4,1.2-2s1.1-1,1.8-1.3S879.5,295.8,880.4,295.8z M880.4,306.7c1.2,0,2.1-0.4,2.7-1.2
			c0.6-0.8,0.9-1.9,0.9-3.4c0-1.4-0.3-2.6-0.9-3.4c-0.6-0.8-1.5-1.2-2.7-1.2c-0.6,0-1.1,0.1-1.6,0.3s-0.8,0.5-1.1,0.9
			s-0.5,0.9-0.7,1.4c-0.1,0.6-0.2,1.2-0.2,1.9c0,0.7,0.1,1.4,0.2,1.9c0.1,0.6,0.4,1,0.7,1.4s0.7,0.7,1.1,0.9
			S879.8,306.7,880.4,306.7z"/>
		<path d="M888.9,308.2V296h1.3c0.3,0,0.5,0.1,0.6,0.4l0.2,1.3c0.5-0.6,1.1-1.1,1.8-1.4c0.7-0.4,1.4-0.5,2.3-0.5
			c0.7,0,1.2,0.1,1.8,0.3s0.9,0.5,1.3,0.9c0.3,0.4,0.6,0.9,0.8,1.5s0.3,1.2,0.3,1.9v7.7h-2.1v-7.7c0-0.9-0.2-1.6-0.6-2.1
			s-1.1-0.8-1.9-0.8c-0.6,0-1.2,0.2-1.8,0.5c-0.5,0.3-1.1,0.7-1.5,1.2v9L888.9,308.2L888.9,308.2z"/>
		<path d="M906.8,308.2V296h1.3c0.3,0,0.5,0.1,0.6,0.4l0.2,1.3c0.5-0.6,1.1-1.1,1.8-1.4c0.7-0.4,1.4-0.5,2.3-0.5
			c0.7,0,1.2,0.1,1.8,0.3c0.5,0.2,0.9,0.5,1.3,0.9c0.3,0.4,0.6,0.9,0.8,1.5s0.3,1.2,0.3,1.9v7.7h-2.1v-7.7c0-0.9-0.2-1.6-0.6-2.1
			s-1.1-0.8-1.9-0.8c-0.6,0-1.2,0.2-1.8,0.5s-1.1,0.7-1.5,1.2v9L906.8,308.2L906.8,308.2z"/>
		<path d="M918.4,294.7c0-0.5,0.1-1,0.3-1.5s0.5-0.9,0.8-1.2c0.4-0.3,0.8-0.6,1.2-0.8c0.5-0.2,1-0.3,1.5-0.3s1.1,0.1,1.5,0.3
			c0.5,0.2,0.9,0.5,1.2,0.8c0.4,0.3,0.6,0.8,0.8,1.2c0.2,0.5,0.3,1,0.3,1.5s-0.1,1-0.3,1.5s-0.5,0.9-0.8,1.2
			c-0.4,0.3-0.8,0.6-1.2,0.8c-0.5,0.2-1,0.3-1.5,0.3s-1.1-0.1-1.5-0.3c-0.5-0.2-0.9-0.5-1.2-0.8c-0.4-0.3-0.6-0.8-0.8-1.2
			S918.4,295.2,918.4,294.7z M919.9,294.7c0,0.3,0.1,0.6,0.2,0.9s0.3,0.5,0.5,0.8c0.2,0.2,0.5,0.4,0.8,0.5s0.6,0.2,0.9,0.2
			s0.6-0.1,0.9-0.2s0.5-0.3,0.8-0.5c0.2-0.2,0.4-0.5,0.5-0.8s0.2-0.6,0.2-0.9s-0.1-0.7-0.2-0.9c-0.1-0.3-0.3-0.6-0.5-0.8
			c-0.2-0.2-0.5-0.4-0.8-0.5s-0.6-0.2-0.9-0.2s-0.7,0.1-0.9,0.2s-0.5,0.3-0.8,0.5c-0.2,0.2-0.4,0.5-0.5,0.8S919.9,294.3,919.9,294.7
			z"/>
		<path d="M934.3,290.8c0.7,0,1.4,0.1,2,0.3s1.2,0.5,1.6,0.9c0.5,0.4,0.8,0.9,1.1,1.5s0.4,1.3,0.4,2c0,0.6-0.1,1.2-0.3,1.8
			c-0.2,0.5-0.5,1.1-0.8,1.6s-0.7,1-1.1,1.5s-0.9,0.9-1.4,1.4l-4.5,4.6c0.3-0.1,0.6-0.2,1-0.2c0.3-0.1,0.6-0.1,0.9-0.1h5.8
			c0.2,0,0.4,0.1,0.6,0.2c0.1,0.1,0.2,0.3,0.2,0.5v1.3h-11.5v-0.7c0-0.2,0-0.3,0.1-0.5s0.2-0.3,0.3-0.4l5.5-5.5
			c0.5-0.5,0.9-0.9,1.2-1.3c0.4-0.4,0.7-0.9,1-1.3s0.5-0.9,0.6-1.3s0.2-0.9,0.2-1.4s-0.1-0.9-0.2-1.3c-0.2-0.4-0.4-0.7-0.7-0.9
			s-0.6-0.4-1-0.6c-0.4-0.1-0.8-0.2-1.2-0.2s-0.8,0.1-1.2,0.2s-0.7,0.3-1,0.5s-0.5,0.5-0.7,0.8s-0.3,0.7-0.4,1
			c-0.1,0.2-0.2,0.4-0.3,0.5s-0.3,0.2-0.5,0.2h-0.1c0,0-0.1,0-0.2,0l-1.1-0.2c0.1-0.8,0.3-1.5,0.6-2.1s0.7-1.1,1.2-1.5
			s1.1-0.7,1.7-0.9S933.6,290.8,934.3,290.8z"/>
	</g>
	<path class="st2" d="M912.7,266.8h13.8v-3.5h-4.6v-16.1h-4.1l-5.3,4.9l2.8,2.9c0.9-0.8,1.4-1.2,2-2h0.1v10.4h-4.6v3.4H912.7z
		 M931.1,257.6c0,6.5-4,14.9-11.5,14.9s-11.5-8.4-11.5-14.9s4-14.9,11.5-14.9C927.1,242.6,931.1,251,931.1,257.6z M949.5,266.8
		v-18.4c-5.1,0-9.2-4.1-9.2-9.2h-41.4c0,5.1-4.1,9.2-9.2,9.2v18.4c5.1,0,9.2,4.1,9.2,9.2h41.4C940.3,270.9,944.4,266.8,949.5,266.8
		L949.5,266.8z M954.1,236.9v41.4c0,1.3-1,2.3-2.3,2.3h-64.4c-1.3,0-2.3-1-2.3-2.3v-41.4c0-1.3,1-2.3,2.3-2.3h64.4
		C953,234.6,954.1,235.6,954.1,236.9z"/>
	<path class="st0" d="M682.3,299.6l-17.3-20c-0.4-0.5-0.9-0.7-1.4-0.7s-1,0.2-1.4,0.7s-0.6,1-0.6,1.7v16.6h-53v6.7h53v16.6
		c0,0.6,0.2,1.2,0.6,1.7c0.4,0.5,0.9,0.7,1.4,0.7s1-0.2,1.4-0.7l17.2-20c0.4-0.5,0.6-1,0.6-1.7C682.9,300.6,682.7,300.1,682.3,299.6
		z"/>
</g>
<g>
	<g>
		<polyline class="st3" points="351,330.5 351,335.5 356,335.5 		"/>
		<line class="st3" x1="366.1" y1="335.5" x2="986.9" y2="335.5"/>
		<polyline class="st3" points="992,335.5 997,335.5 997,330.5 		"/>
		<line class="st3" x1="997" y1="320.7" x2="997" y2="11.4"/>
		<polyline class="st3" points="997,6.5 997,1.5 992,1.5 		"/>
		<line class="st3" x1="981.9" y1="1.5" x2="361" y2="1.5"/>
		<polyline class="st3" points="356,1.5 351,1.5 351,6.5 		"/>
		<line class="st3" x1="351" y1="16.3" x2="351" y2="325.6"/>
	</g>
</g>
<g>
	<g>
		<polyline class="st3" points="2,330.5 2,335.5 7,335.5 		"/>
		<line class="st3" x1="16.6" y1="335.5" x2="243.2" y2="335.5"/>
		<polyline class="st3" points="248,335.5 253,335.5 253,330.5 		"/>
		<line class="st3" x1="253" y1="320.7" x2="253" y2="11.4"/>
		<polyline class="st3" points="253,6.5 253,1.5 248,1.5 		"/>
		<line class="st3" x1="238.4" y1="1.5" x2="11.8" y2="1.5"/>
		<polyline class="st3" points="7,1.5 2,1.5 2,6.5 		"/>
		<line class="st3" x1="2" y1="16.3" x2="2" y2="325.6"/>
	</g>
</g>
<g>
	<path class="st4" d="M128.6,13.3l-8.5,29.8h-11.2V20.2H104v22.7l-16.1,2l1.3,14.9h-9v15.7h6.2c0,0.3,0,0.7,0,1
		c0,7.9,6.5,14.2,14.2,14.2s14.2-6.2,14.2-14.2c0-2.8-0.8-5.3-2.2-7.5H128c1.1,12.3,11.6,21.6,23.7,21.6c12.8,0,23.9-10.4,23.9-23.9
		c0-10.7-7-19.5-16.3-22.6V13.3H128.6L128.6,13.3z M133.4,19.2h19.3V43c-0.3,0-0.7,0-1,0c-2.9,0-5.7,0.5-8.2,1.5L127,43.2
		L133.4,19.2L133.4,19.2z M151.8,57.2c6.1,0,9.7,4.5,9.7,9.5s-3.6,9.5-9.7,9.5c-6.1,0-9.7-4.5-9.7-9.5S145.6,57.2,151.8,57.2z
		 M100.6,69.6c4.2,0,7.3,3.2,7.3,6.9s-3.1,6.9-7.3,6.9c-4.2,0-7.3-3.2-7.3-6.9S96.3,69.6,100.6,69.6z"/>
	<g>
		<path d="M26.5,118h1.9c0.2,0,0.4,0.1,0.5,0.2s0.2,0.2,0.3,0.4l4.9,12.1c0.1,0.3,0.2,0.6,0.3,0.9c0.1,0.3,0.2,0.7,0.3,1
			c0.1-0.3,0.1-0.7,0.2-1c0.1-0.3,0.2-0.6,0.3-0.9l4.8-12.1c0.1-0.1,0.2-0.3,0.3-0.4s0.3-0.2,0.5-0.2h1.9l-7,17.2h-2.1L26.5,118z"/>
		<path d="M52,135.2H51c-0.2,0-0.4,0-0.5-0.1s-0.2-0.2-0.3-0.4l-0.2-1.1c-0.3,0.3-0.6,0.5-0.9,0.8c-0.3,0.2-0.6,0.4-1,0.6
			c-0.3,0.2-0.7,0.3-1.1,0.4c-0.4,0.1-0.8,0.1-1.3,0.1s-0.9-0.1-1.3-0.2c-0.4-0.1-0.8-0.3-1.1-0.6s-0.5-0.6-0.7-1s-0.3-0.9-0.3-1.4
			s0.1-0.9,0.4-1.4c0.3-0.4,0.7-0.8,1.3-1.2c0.6-0.3,1.4-0.6,2.3-0.8s2.1-0.3,3.5-0.3v-1c0-1-0.2-1.7-0.6-2.2
			c-0.4-0.5-1-0.7-1.8-0.7c-0.5,0-1,0.1-1.3,0.2c-0.4,0.1-0.7,0.3-0.9,0.4s-0.5,0.3-0.7,0.4s-0.4,0.2-0.6,0.2c-0.1,0-0.3,0-0.4-0.1
			c-0.1-0.1-0.2-0.2-0.3-0.3l-0.4-0.7c0.7-0.6,1.4-1.1,2.2-1.5c0.8-0.3,1.6-0.5,2.6-0.5c0.7,0,1.3,0.1,1.8,0.3
			c0.5,0.2,1,0.5,1.3,0.9c0.4,0.4,0.6,0.9,0.8,1.5s0.3,1.2,0.3,1.9v7.8H52z M46.3,133.9c0.4,0,0.7,0,1-0.1s0.6-0.2,0.9-0.3
			c0.3-0.1,0.5-0.3,0.8-0.5s0.5-0.4,0.7-0.7v-2.5c-1,0-1.8,0.1-2.5,0.2c-0.7,0.1-1.2,0.3-1.7,0.5s-0.7,0.4-0.9,0.7s-0.3,0.6-0.3,0.9
			c0,0.3,0.1,0.6,0.2,0.8s0.2,0.4,0.4,0.6s0.4,0.3,0.6,0.3C45.8,133.8,46,133.9,46.3,133.9z"/>
		<path d="M55.2,135.2V123h1.2c0.2,0,0.4,0,0.5,0.1s0.1,0.2,0.2,0.5l0.1,1.9c0.4-0.8,0.9-1.5,1.5-2s1.3-0.7,2.2-0.7
			c0.3,0,0.6,0,0.9,0.1c0.3,0.1,0.5,0.2,0.8,0.3l-0.3,1.6c-0.1,0.2-0.2,0.3-0.4,0.3c-0.1,0-0.3,0-0.5-0.1s-0.6-0.1-1-0.1
			c-0.7,0-1.4,0.2-1.9,0.6s-0.9,1.1-1.3,1.9v7.7L55.2,135.2L55.2,135.2z"/>
		<path d="M67.7,119.2c0,0.2,0,0.4-0.1,0.6s-0.2,0.3-0.3,0.5c-0.1,0.1-0.3,0.3-0.5,0.3c-0.2,0.1-0.4,0.1-0.6,0.1s-0.4,0-0.6-0.1
			s-0.3-0.2-0.5-0.3c-0.1-0.1-0.2-0.3-0.3-0.5s-0.1-0.4-0.1-0.6s0-0.4,0.1-0.6s0.2-0.4,0.3-0.5s0.3-0.2,0.5-0.3
			c0.2-0.1,0.4-0.1,0.6-0.1s0.4,0,0.6,0.1c0.2,0.1,0.3,0.2,0.5,0.3c0.1,0.1,0.3,0.3,0.3,0.5S67.7,119,67.7,119.2z M67.2,123v12.2
			h-2.1V123C65.2,123,67.2,123,67.2,123z"/>
		<path d="M79.9,135.2H79c-0.2,0-0.4,0-0.5-0.1s-0.2-0.2-0.3-0.4l-0.2-1.1c-0.3,0.3-0.6,0.5-0.9,0.8c-0.3,0.2-0.6,0.4-1,0.6
			c-0.3,0.2-0.7,0.3-1.1,0.4c-0.4,0.1-0.8,0.1-1.3,0.1s-0.9-0.1-1.3-0.2c-0.4-0.1-0.8-0.3-1.1-0.6c-0.3-0.3-0.5-0.6-0.7-1
			c-0.2-0.4-0.3-0.9-0.3-1.4s0.1-0.9,0.4-1.4c0.3-0.4,0.7-0.8,1.3-1.2c0.6-0.3,1.4-0.6,2.3-0.8c1-0.2,2.1-0.3,3.5-0.3v-1
			c0-1-0.2-1.7-0.6-2.2s-1-0.7-1.8-0.7c-0.5,0-1,0.1-1.3,0.2c-0.4,0.1-0.7,0.3-0.9,0.4c-0.2,0.1-0.5,0.3-0.7,0.4
			c-0.2,0.1-0.4,0.2-0.6,0.2c-0.1,0-0.3,0-0.4-0.1c-0.1-0.1-0.2-0.2-0.3-0.3l-0.4-0.7c0.7-0.6,1.4-1.1,2.2-1.5
			c0.8-0.3,1.6-0.5,2.6-0.5c0.7,0,1.3,0.1,1.8,0.3c0.5,0.2,1,0.5,1.3,0.9c0.4,0.4,0.6,0.9,0.8,1.5c0.2,0.6,0.3,1.2,0.3,1.9
			L79.9,135.2L79.9,135.2z M74.3,133.9c0.4,0,0.7,0,1-0.1s0.6-0.2,0.9-0.3s0.5-0.3,0.8-0.5s0.5-0.4,0.7-0.7v-2.5
			c-1,0-1.8,0.1-2.5,0.2c-0.7,0.1-1.2,0.3-1.7,0.5c-0.4,0.2-0.7,0.4-0.9,0.7c-0.2,0.3-0.3,0.6-0.3,0.9c0,0.3,0.1,0.6,0.2,0.8
			c0.1,0.2,0.2,0.4,0.4,0.6c0.2,0.2,0.4,0.3,0.6,0.3C73.8,133.8,74.1,133.9,74.3,133.9z"/>
		<path d="M83.2,135.2V123h1.3c0.3,0,0.5,0.1,0.6,0.4l0.2,1.3c0.5-0.6,1.1-1.1,1.8-1.4c0.7-0.4,1.4-0.5,2.3-0.5
			c0.7,0,1.2,0.1,1.8,0.3c0.5,0.2,0.9,0.5,1.3,0.9c0.3,0.4,0.6,0.9,0.8,1.5c0.2,0.6,0.3,1.2,0.3,1.9v7.7h-2.1v-7.7
			c0-0.9-0.2-1.6-0.6-2.1c-0.4-0.5-1.1-0.8-1.9-0.8c-0.6,0-1.2,0.2-1.8,0.5c-0.5,0.3-1.1,0.7-1.5,1.2v9L83.2,135.2L83.2,135.2z"/>
		<path d="M100.2,135.4c-1,0-1.7-0.3-2.2-0.8s-0.8-1.3-0.8-2.3v-7.4h-1.4c-0.1,0-0.2,0-0.3-0.1c-0.1-0.1-0.1-0.2-0.1-0.4v-0.9l2-0.3
			l0.5-3.8c0-0.1,0.1-0.2,0.2-0.3c0.1-0.1,0.2-0.1,0.3-0.1h1.1v4.2h3.3v1.5h-3.5v7.3c0,0.5,0.1,0.9,0.4,1.1c0.2,0.2,0.6,0.4,1,0.4
			c0.2,0,0.4,0,0.6-0.1s0.3-0.1,0.4-0.2c0.1-0.1,0.2-0.1,0.3-0.2s0.2-0.1,0.2-0.1c0.1,0,0.2,0.1,0.3,0.2l0.6,1
			c-0.4,0.3-0.8,0.6-1.3,0.8S100.8,135.4,100.2,135.4z"/>
		<path d="M110.2,122.8c0.7,0,1.4,0.1,2,0.4c0.6,0.2,1.1,0.6,1.6,1.1c0.4,0.5,0.8,1,1.1,1.7c0.3,0.7,0.4,1.4,0.4,2.3
			c0,0.3,0,0.6-0.1,0.7c-0.1,0.1-0.2,0.2-0.4,0.2h-8.1c0,0.8,0.1,1.4,0.3,2s0.5,1,0.8,1.4s0.7,0.7,1.2,0.9s1,0.3,1.6,0.3
			c0.5,0,1-0.1,1.4-0.2c0.4-0.1,0.7-0.3,1-0.4c0.3-0.1,0.5-0.3,0.7-0.4s0.3-0.2,0.5-0.2s0.3,0.1,0.4,0.2l0.6,0.8
			c-0.3,0.3-0.6,0.6-0.9,0.8c-0.4,0.2-0.8,0.4-1.2,0.6c-0.4,0.2-0.9,0.3-1.3,0.3c-0.4,0.1-0.9,0.1-1.3,0.1c-0.8,0-1.6-0.1-2.3-0.4
			c-0.7-0.3-1.3-0.7-1.8-1.2s-0.9-1.2-1.2-2c-0.3-0.8-0.4-1.7-0.4-2.8c0-0.8,0.1-1.6,0.4-2.4c0.3-0.7,0.6-1.4,1.1-1.9s1.1-1,1.8-1.3
			C108.6,123,109.3,122.8,110.2,122.8z M110.2,124.4c-1,0-1.8,0.3-2.4,0.9s-1,1.4-1.1,2.5h6.6c0-0.5-0.1-1-0.2-1.4s-0.3-0.8-0.6-1.1
			c-0.3-0.3-0.6-0.5-1-0.7S110.8,124.4,110.2,124.4z"/>
		<path d="M122.6,129v-0.3l3-4.7l0.7,0.3c0.1,0.1,0.2,0.1,0.3,0.2c0.1,0.1,0.1,0.2,0.1,0.3c0,0.1,0,0.3-0.1,0.4l-1.9,3.1
			c-0.1,0.2-0.2,0.3-0.3,0.4c0.1,0.1,0.2,0.3,0.3,0.4l1.9,3.1c0,0.1,0.1,0.1,0.1,0.2c0,0.1,0,0.1,0,0.2c0,0.2-0.1,0.4-0.3,0.5
			l-0.7,0.3L122.6,129z M126.2,129v-0.3l3-4.7l0.7,0.3c0.1,0.1,0.2,0.1,0.3,0.2s0.1,0.2,0.1,0.3c0,0.1,0,0.3-0.1,0.4l-1.9,3.1
			c-0.1,0.2-0.2,0.3-0.3,0.4c0.1,0.1,0.2,0.3,0.3,0.4l1.9,3.1c0,0.1,0.1,0.1,0.1,0.2c0,0.1,0,0.1,0,0.2c0,0.2-0.1,0.4-0.3,0.5
			l-0.7,0.3L126.2,129z"/>
		<path d="M143.6,118v2H138v15.2h-2.3V120h-5.6v-2C130.1,118,143.6,118,143.6,118z"/>
		<path d="M143.9,135.2V123h1.2c0.2,0,0.4,0,0.5,0.1s0.1,0.2,0.2,0.5l0.1,1.9c0.4-0.8,0.9-1.5,1.5-2s1.3-0.7,2.2-0.7
			c0.3,0,0.6,0,0.9,0.1c0.3,0.1,0.5,0.2,0.8,0.3l-0.3,1.6c-0.1,0.2-0.2,0.3-0.4,0.3c-0.1,0-0.3,0-0.5-0.1s-0.6-0.1-1-0.1
			c-0.7,0-1.4,0.2-1.9,0.6s-0.9,1.1-1.3,1.9v7.7L143.9,135.2L143.9,135.2z"/>
		<path d="M161.9,135.2h-0.9c-0.2,0-0.4,0-0.5-0.1s-0.2-0.2-0.3-0.4l-0.2-1.1c-0.3,0.3-0.6,0.5-0.9,0.8c-0.3,0.2-0.6,0.4-1,0.6
			c-0.3,0.2-0.7,0.3-1.1,0.4c-0.4,0.1-0.8,0.1-1.3,0.1s-0.9-0.1-1.3-0.2c-0.4-0.1-0.8-0.3-1.1-0.6s-0.5-0.6-0.7-1s-0.3-0.9-0.3-1.4
			s0.1-0.9,0.4-1.4c0.3-0.4,0.7-0.8,1.3-1.2c0.6-0.3,1.4-0.6,2.3-0.8s2.1-0.3,3.5-0.3v-1c0-1-0.2-1.7-0.6-2.2
			c-0.4-0.5-1-0.7-1.8-0.7c-0.5,0-1,0.1-1.3,0.2c-0.4,0.1-0.7,0.3-0.9,0.4s-0.5,0.3-0.7,0.4s-0.4,0.2-0.6,0.2c-0.1,0-0.3,0-0.4-0.1
			c-0.1-0.1-0.2-0.2-0.3-0.3l-0.4-0.7c0.7-0.6,1.4-1.1,2.2-1.5c0.8-0.3,1.6-0.5,2.6-0.5c0.7,0,1.3,0.1,1.8,0.3
			c0.5,0.2,1,0.5,1.3,0.9c0.4,0.4,0.6,0.9,0.8,1.5s0.3,1.2,0.3,1.9L161.9,135.2L161.9,135.2z M156.4,133.9c0.4,0,0.7,0,1-0.1
			s0.6-0.2,0.9-0.3c0.3-0.1,0.5-0.3,0.8-0.5s0.5-0.4,0.7-0.7v-2.5c-1,0-1.8,0.1-2.5,0.2c-0.7,0.1-1.2,0.3-1.7,0.5s-0.7,0.4-0.9,0.7
			s-0.3,0.6-0.3,0.9c0,0.3,0.1,0.6,0.2,0.8s0.2,0.4,0.4,0.6s0.4,0.3,0.6,0.3S156.1,133.9,156.4,133.9z"/>
		<path d="M173.6,125.2c-0.1,0.1-0.1,0.2-0.2,0.2s-0.2,0.1-0.3,0.1s-0.3,0-0.4-0.1c-0.1-0.1-0.3-0.2-0.5-0.3
			c-0.2-0.1-0.5-0.2-0.8-0.3c-0.3-0.1-0.7-0.2-1.1-0.2c-0.6,0-1.1,0.1-1.6,0.3s-0.8,0.5-1.1,0.9c-0.3,0.4-0.5,0.9-0.7,1.5
			s-0.2,1.2-0.2,1.9s0.1,1.4,0.3,2s0.4,1.1,0.7,1.4c0.3,0.4,0.7,0.7,1.1,0.9s0.9,0.3,1.5,0.3c0.5,0,0.9-0.1,1.3-0.2
			c0.3-0.1,0.6-0.3,0.8-0.4c0.2-0.2,0.4-0.3,0.6-0.4s0.3-0.2,0.4-0.2c0.2,0,0.3,0.1,0.4,0.2l0.6,0.8c-0.5,0.6-1.2,1.1-2,1.4
			c-0.8,0.3-1.6,0.5-2.5,0.5c-0.8,0-1.5-0.1-2.1-0.4c-0.7-0.3-1.2-0.7-1.7-1.2s-0.9-1.2-1.1-2c-0.3-0.8-0.4-1.7-0.4-2.7
			c0-0.9,0.1-1.7,0.4-2.5c0.3-0.8,0.6-1.4,1.1-2s1.1-1,1.8-1.3s1.5-0.5,2.4-0.5c0.8,0,1.6,0.1,2.3,0.4s1.2,0.7,1.7,1.2L173.6,125.2z
			"/>
		<path d="M180.1,135.4c-1,0-1.7-0.3-2.2-0.8s-0.8-1.3-0.8-2.3v-7.4h-1.5c-0.1,0-0.2,0-0.3-0.1s-0.1-0.2-0.1-0.4v-0.9l2-0.3l0.5-3.8
			c0-0.1,0.1-0.2,0.2-0.3c0.1-0.1,0.2-0.1,0.3-0.1h1.1v4.2h3.5v1.5h-3.5v7.3c0,0.5,0.1,0.9,0.4,1.1c0.2,0.2,0.6,0.4,1,0.4
			c0.2,0,0.4,0,0.6-0.1s0.3-0.1,0.4-0.2c0.1-0.1,0.2-0.1,0.3-0.2s0.2-0.1,0.2-0.1c0.1,0,0.2,0.1,0.3,0.2l0.6,1
			c-0.4,0.3-0.8,0.6-1.3,0.8S180.6,135.4,180.1,135.4z"/>
		<path d="M190.1,122.8c0.7,0,1.4,0.1,2,0.4c0.6,0.2,1.1,0.6,1.6,1.1c0.4,0.5,0.8,1,1.1,1.7s0.4,1.4,0.4,2.3c0,0.3,0,0.6-0.1,0.7
			c-0.1,0.1-0.2,0.2-0.4,0.2h-8.1c0,0.8,0.1,1.4,0.3,2s0.5,1,0.8,1.4s0.7,0.7,1.2,0.9s1,0.3,1.6,0.3c0.5,0,1-0.1,1.4-0.2
			c0.4-0.1,0.7-0.3,1-0.4c0.3-0.1,0.5-0.3,0.7-0.4s0.3-0.2,0.5-0.2s0.3,0.1,0.4,0.2l0.6,0.8c-0.3,0.3-0.6,0.6-0.9,0.8
			c-0.4,0.2-0.8,0.4-1.2,0.6c-0.4,0.2-0.9,0.3-1.3,0.3c-0.4,0.1-0.9,0.1-1.3,0.1c-0.8,0-1.6-0.1-2.3-0.4c-0.7-0.3-1.3-0.7-1.8-1.2
			s-0.9-1.2-1.2-2s-0.4-1.7-0.4-2.8c0-0.8,0.1-1.6,0.4-2.4c0.3-0.7,0.6-1.4,1.1-1.9s1.1-1,1.8-1.3
			C188.6,123,189.4,122.8,190.1,122.8z M190.2,124.4c-1,0-1.8,0.3-2.4,0.9c-0.6,0.6-1,1.4-1.1,2.5h6.6c0-0.5-0.1-1-0.2-1.4
			c-0.1-0.4-0.3-0.8-0.6-1.1c-0.3-0.3-0.6-0.5-1-0.7S190.8,124.4,190.2,124.4z"/>
		<path d="M199.9,123v7.8c0,0.9,0.2,1.6,0.6,2.1c0.4,0.5,1.1,0.8,1.9,0.8c0.6,0,1.2-0.1,1.8-0.4c0.6-0.3,1.1-0.7,1.5-1.2v-9h2.1
			v12.2h-1.3c-0.3,0-0.5-0.1-0.6-0.4l-0.2-1.3c-0.5,0.6-1.1,1.1-1.8,1.4c-0.7,0.4-1.4,0.5-2.3,0.5c-0.7,0-1.3-0.1-1.8-0.3
			s-0.9-0.5-1.3-0.9c-0.3-0.4-0.6-0.9-0.8-1.5s-0.3-1.2-0.3-1.9v-7.8h2.5V123z"/>
		<path d="M211.2,135.2V123h1.2c0.2,0,0.4,0,0.5,0.1s0.1,0.2,0.2,0.5l0.1,1.9c0.4-0.8,0.9-1.5,1.5-2s1.3-0.7,2.2-0.7
			c0.3,0,0.6,0,0.9,0.1c0.3,0.1,0.5,0.2,0.8,0.3l-0.3,1.6c-0.1,0.2-0.2,0.3-0.4,0.3c-0.1,0-0.3,0-0.5-0.1s-0.6-0.1-1-0.1
			c-0.7,0-1.4,0.2-1.9,0.6s-0.9,1.1-1.3,1.9v7.7L211.2,135.2L211.2,135.2z"/>
		<path d="M222.1,133.6l-0.7-0.3c-0.2-0.1-0.3-0.3-0.3-0.5c0-0.1,0-0.3,0.1-0.4l1.9-3.1c0.1-0.2,0.2-0.3,0.3-0.4
			c-0.1-0.1-0.2-0.2-0.3-0.4l-1.9-3.1c-0.1-0.1-0.1-0.3-0.1-0.4c0-0.2,0.1-0.4,0.3-0.5l0.7-0.3l3,4.7v0.3L222.1,133.6z M228.6,128.7
			v0.3l-3,4.7l-0.7-0.3c-0.2-0.1-0.3-0.3-0.3-0.5c0-0.1,0-0.3,0.1-0.4l1.9-3.1c0.1-0.2,0.2-0.3,0.3-0.4c-0.1-0.1-0.2-0.2-0.3-0.4
			l-1.9-3.1c-0.1-0.1-0.1-0.3-0.1-0.4c0-0.2,0.1-0.4,0.3-0.5l0.7-0.3L228.6,128.7z"/>
	</g>
	<path class="st0" d="M130.1,245.8l20-17.2c0.5-0.4,0.7-0.9,0.7-1.4s-0.2-1-0.7-1.4s-1-0.6-1.7-0.6h-16.6v-53h-6.7v53h-16.7
		c-0.6,0-1.2,0.2-1.7,0.6c-0.5,0.4-0.7,0.9-0.7,1.4s0.2,1,0.7,1.4l20,17.2c0.5,0.4,1,0.6,1.7,0.6
		C129.1,246.4,129.6,246.2,130.1,245.8z"/>
	<g>
		<path d="M49.2,291.8c0.1,0,0.2,0.1,0.3,0.2l0.9,1c-0.7,0.8-1.6,1.5-2.6,1.9s-2.2,0.7-3.6,0.7c-1.2,0-2.4-0.2-3.4-0.6
			s-1.9-1-2.6-1.8s-1.3-1.7-1.7-2.8c-0.4-1.1-0.6-2.3-0.6-3.6s0.2-2.5,0.6-3.6c0.4-1.1,1-2,1.8-2.8s1.7-1.4,2.7-1.8
			c1.1-0.4,2.2-0.6,3.5-0.6s2.4,0.2,3.3,0.6c0.9,0.4,1.7,0.9,2.4,1.6l-0.8,1.1c-0.1,0.1-0.1,0.1-0.2,0.2c-0.1,0.1-0.2,0.1-0.3,0.1
			s-0.2,0-0.3-0.1s-0.3-0.2-0.4-0.3c-0.2-0.1-0.3-0.2-0.6-0.4c-0.2-0.1-0.5-0.2-0.8-0.4c-0.3-0.1-0.6-0.2-1-0.3S45,280,44.4,280
			c-0.9,0-1.8,0.2-2.5,0.5c-0.8,0.3-1.4,0.8-2,1.3c-0.6,0.6-1,1.3-1.3,2.1c-0.3,0.8-0.5,1.8-0.5,2.8c0,1.1,0.2,2,0.5,2.9
			s0.7,1.5,1.3,2.1c0.5,0.6,1.2,1,1.9,1.3s1.5,0.5,2.4,0.5c0.5,0,1,0,1.4-0.1s0.8-0.2,1.1-0.3s0.7-0.3,1-0.5s0.6-0.4,0.9-0.7
			C49,291.9,49,291.8,49.2,291.8z"/>
		<path d="M53.2,295.4v-12.2h1.2c0.2,0,0.4,0,0.5,0.1s0.1,0.2,0.2,0.5l0.1,1.9c0.4-0.8,0.9-1.5,1.5-2s1.3-0.7,2.2-0.7
			c0.3,0,0.6,0,0.9,0.1c0.3,0.1,0.5,0.2,0.8,0.3l-0.3,1.6c-0.1,0.2-0.2,0.3-0.4,0.3c-0.1,0-0.3,0-0.5-0.1s-0.6-0.1-1-0.1
			c-0.7,0-1.4,0.2-1.9,0.6s-0.9,1.1-1.3,1.9v7.7h-2V295.4z"/>
		<path d="M67.7,283c0.7,0,1.4,0.1,2,0.4c0.6,0.2,1.1,0.6,1.6,1.1c0.4,0.5,0.8,1,1.1,1.7c0.3,0.7,0.4,1.4,0.4,2.3
			c0,0.3,0,0.6-0.1,0.7s-0.2,0.2-0.4,0.2h-8.1c0,0.8,0.1,1.4,0.3,2c0.2,0.6,0.5,1,0.8,1.4c0.3,0.4,0.7,0.7,1.2,0.9
			c0.5,0.2,1,0.3,1.6,0.3c0.5,0,1-0.1,1.4-0.2s0.7-0.3,1-0.4c0.3-0.1,0.5-0.3,0.7-0.4c0.2-0.1,0.3-0.2,0.5-0.2
			c0.2,0,0.3,0.1,0.4,0.2l0.6,0.8c-0.3,0.3-0.6,0.6-0.9,0.8c-0.4,0.2-0.8,0.4-1.2,0.6s-0.9,0.3-1.3,0.3c-0.4,0.1-0.9,0.1-1.3,0.1
			c-0.8,0-1.6-0.1-2.3-0.4c-0.7-0.3-1.3-0.7-1.8-1.2c-0.5-0.5-0.9-1.2-1.2-2s-0.4-1.7-0.4-2.8c0-0.8,0.1-1.6,0.4-2.4
			c0.3-0.7,0.6-1.4,1.1-1.9s1.1-1,1.8-1.3C66.2,283.3,66.8,283,67.7,283z M67.7,284.6c-1,0-1.8,0.3-2.4,0.9s-1,1.4-1.1,2.5h6.6
			c0-0.5-0.1-1-0.2-1.4c-0.1-0.4-0.3-0.8-0.6-1.1c-0.3-0.3-0.6-0.5-1-0.7S68.2,284.6,67.7,284.6z M71.2,278l-2.8,3.1
			c-0.1,0.1-0.2,0.2-0.3,0.3c-0.1,0.1-0.2,0.1-0.4,0.1h-1.3l1.8-2.9c0.1-0.2,0.2-0.3,0.4-0.4c0.1-0.1,0.3-0.1,0.6-0.1h2V278z"/>
		<path d="M84.3,295.4h-0.9c-0.2,0-0.4,0-0.5-0.1s-0.2-0.2-0.3-0.4l-0.2-1.1c-0.3,0.3-0.6,0.5-0.9,0.8c-0.3,0.2-0.6,0.4-1,0.6
			c-0.3,0.2-0.7,0.3-1.1,0.4s-0.8,0.1-1.3,0.1s-0.9-0.1-1.3-0.2s-0.8-0.3-1.1-0.6c-0.3-0.3-0.5-0.6-0.7-1s-0.3-0.9-0.3-1.4
			s0.1-0.9,0.4-1.4s0.7-0.8,1.3-1.2c0.6-0.3,1.4-0.6,2.3-0.8s2.1-0.3,3.5-0.3v-1c0-1-0.2-1.7-0.6-2.2s-1-0.7-1.8-0.7
			c-0.5,0-1,0.1-1.3,0.2c-0.4,0.1-0.7,0.3-0.9,0.4s-0.5,0.3-0.7,0.4s-0.4,0.2-0.6,0.2c-0.1,0-0.3,0-0.4-0.1s-0.2-0.3-0.2-0.4
			l-0.4-0.7c0.7-0.6,1.4-1.1,2.2-1.5s1.6-0.5,2.6-0.5c0.7,0,1.3,0.1,1.8,0.3c0.5,0.2,1,0.5,1.3,0.9c0.4,0.4,0.6,0.9,0.8,1.5
			c0.2,0.6,0.3,1.2,0.3,1.9C84.4,287.5,84.4,295.4,84.3,295.4z M78.8,294.1c0.4,0,0.7,0,1-0.1s0.6-0.2,0.9-0.3
			c0.3-0.1,0.5-0.3,0.8-0.5s0.5-0.4,0.7-0.7V290c-1,0-1.8,0.1-2.5,0.2s-1.2,0.3-1.7,0.5s-0.7,0.4-0.9,0.7c-0.2,0.3-0.3,0.6-0.3,0.9
			s0.1,0.6,0.2,0.8s0.2,0.4,0.4,0.6c0.2,0.1,0.4,0.3,0.6,0.3C78.2,294,78.6,294.1,78.8,294.1z"/>
		<path d="M91.2,295.6c-1,0-1.7-0.3-2.2-0.8s-0.8-1.3-0.8-2.3v-7.4h-1.5c-0.1,0-0.2,0-0.3-0.1c-0.1-0.1-0.1-0.2-0.1-0.4v-0.9l2-0.3
			l0.5-3.8c0-0.1,0.1-0.2,0.2-0.3c0.1-0.1,0.2-0.1,0.3-0.1h1.1v4.2h3.5v1.5h-3.5v7.3c0,0.5,0.1,0.9,0.4,1.1s0.6,0.4,1,0.4
			c0.2,0,0.4,0,0.6-0.1s0.3-0.1,0.4-0.2s0.2-0.1,0.3-0.2c0.1-0.1,0.2-0.1,0.2-0.1c0.1,0,0.2,0.1,0.3,0.2l0.6,1
			c-0.4,0.3-0.8,0.6-1.3,0.8C92.3,295.5,91.8,295.6,91.2,295.6z"/>
		<path d="M99.3,279.4c0,0.2,0,0.4-0.1,0.6s-0.2,0.3-0.3,0.5c-0.1,0.1-0.3,0.3-0.5,0.3c-0.2,0.1-0.4,0.1-0.6,0.1s-0.4,0-0.6-0.1
			s-0.3-0.2-0.5-0.3c-0.1-0.1-0.2-0.3-0.3-0.5c-0.1-0.2-0.1-0.4-0.1-0.6s0-0.4,0.1-0.6s0.2-0.4,0.3-0.5c0.1-0.1,0.3-0.2,0.5-0.3
			c0.2-0.1,0.4-0.1,0.6-0.1s0.4,0,0.6,0.1s0.3,0.2,0.5,0.3c0.1,0.1,0.3,0.3,0.3,0.5C99.3,279,99.3,279.2,99.3,279.4z M98.8,283.2
			v12.2h-2.1v-12.2H98.8z"/>
		<path d="M107.6,283c0.9,0,1.7,0.1,2.4,0.4c0.7,0.3,1.3,0.7,1.8,1.3s0.9,1.2,1.2,2c0.3,0.8,0.4,1.6,0.4,2.6s-0.1,1.8-0.4,2.6
			c-0.3,0.8-0.7,1.4-1.2,2s-1.1,1-1.8,1.3c-0.7,0.3-1.5,0.4-2.4,0.4s-1.7-0.1-2.4-0.4c-0.7-0.3-1.3-0.7-1.8-1.3s-0.9-1.2-1.2-2
			c-0.3-0.8-0.4-1.6-0.4-2.6s0.1-1.8,0.4-2.6c0.3-0.8,0.7-1.4,1.2-2s1.1-1,1.8-1.3C105.8,283.2,106.7,283,107.6,283z M107.6,293.9
			c1.2,0,2.1-0.4,2.7-1.2c0.6-0.8,0.9-1.9,0.9-3.4c0-1.4-0.3-2.6-0.9-3.4s-1.5-1.2-2.7-1.2c-0.6,0-1.1,0.1-1.6,0.3s-0.8,0.5-1.1,0.9
			c-0.3,0.4-0.5,0.9-0.7,1.4s-0.2,1.2-0.2,1.9c0,0.7,0.1,1.4,0.2,1.9s0.4,1,0.7,1.4c0.3,0.4,0.7,0.7,1.1,0.9
			S106.9,293.9,107.6,293.9z"/>
		<path d="M116.1,295.4v-12.2h1.3c0.3,0,0.5,0.1,0.6,0.4l0.2,1.3c0.5-0.6,1.1-1.1,1.8-1.4c0.7-0.4,1.4-0.5,2.3-0.5
			c0.7,0,1.2,0.1,1.8,0.3c0.5,0.2,0.9,0.5,1.3,0.9c0.3,0.4,0.6,0.9,0.8,1.5c0.2,0.6,0.3,1.2,0.3,1.9v7.7h-2.1v-7.7
			c0-0.9-0.2-1.6-0.6-2.1s-1.1-0.8-1.9-0.8c-0.6,0-1.2,0.2-1.8,0.5c-0.5,0.3-1.1,0.7-1.5,1.2v9L116.1,295.4L116.1,295.4z"/>
		<path d="M133.9,295.4v-12.2h1.3c0.3,0,0.5,0.1,0.6,0.4l0.2,1.3c0.5-0.6,1.1-1.1,1.8-1.4c0.7-0.4,1.4-0.5,2.3-0.5
			c0.7,0,1.2,0.1,1.8,0.3c0.5,0.2,0.9,0.5,1.3,0.9c0.3,0.4,0.6,0.9,0.8,1.5s0.3,1.2,0.3,1.9v7.7h-2.1v-7.7c0-0.9-0.2-1.6-0.6-2.1
			s-1.1-0.8-1.9-0.8c-0.6,0-1.2,0.2-1.8,0.5c-0.5,0.3-1.1,0.7-1.5,1.2v9L133.9,295.4L133.9,295.4z"/>
		<path d="M152.2,283c0.9,0,1.7,0.1,2.4,0.4s1.3,0.7,1.8,1.3s0.9,1.2,1.2,2s0.4,1.6,0.4,2.6s-0.1,1.8-0.4,2.6
			c-0.3,0.8-0.7,1.4-1.2,2s-1.1,1-1.8,1.3s-1.5,0.4-2.4,0.4s-1.7-0.1-2.4-0.4s-1.3-0.7-1.8-1.3s-0.9-1.2-1.2-2s-0.4-1.6-0.4-2.6
			s0.1-1.8,0.4-2.6c0.3-0.8,0.7-1.4,1.2-2s1.1-1,1.8-1.3C150.6,283.2,151.4,283,152.2,283z M152.2,293.9c1.2,0,2.1-0.4,2.7-1.2
			c0.6-0.8,0.9-1.9,0.9-3.4c0-1.4-0.3-2.6-0.9-3.4c-0.6-0.8-1.5-1.2-2.7-1.2c-0.6,0-1.1,0.1-1.6,0.3s-0.8,0.5-1.1,0.9
			s-0.5,0.9-0.7,1.4s-0.2,1.2-0.2,1.9c0,0.7,0.1,1.4,0.2,1.9s0.4,1,0.7,1.4s0.7,0.7,1.1,0.9S151.6,293.9,152.2,293.9z"/>
		<path d="M162.6,283.2v7.8c0,0.9,0.2,1.6,0.6,2.1c0.4,0.5,1.1,0.8,1.9,0.8c0.6,0,1.2-0.1,1.8-0.4s1.1-0.7,1.5-1.2v-9h2.1v12.2h-1.3
			c-0.3,0-0.5-0.1-0.6-0.4l-0.2-1.3c-0.5,0.6-1.1,1.1-1.8,1.4c-0.7,0.4-1.4,0.5-2.3,0.5c-0.7,0-1.3-0.1-1.8-0.3s-0.9-0.5-1.3-0.9
			c-0.3-0.4-0.6-0.9-0.8-1.5s-0.3-1.2-0.3-1.9v-7.8h2.5V283.2z"/>
		<path d="M172.4,283.2h1.8c0.2,0,0.3,0,0.4,0.1c0.1,0.1,0.2,0.2,0.2,0.3l3.1,7.8c0.1,0.3,0.2,0.6,0.3,0.9s0.1,0.6,0.2,0.9
			c0.1-0.3,0.1-0.6,0.2-0.9c0.1-0.3,0.2-0.6,0.3-0.9l3.1-7.8c0-0.1,0.1-0.2,0.2-0.3c0.1-0.1,0.2-0.1,0.4-0.1h1.7l-5,12.2h-1.9
			L172.4,283.2z"/>
		<path d="M190.9,283c0.7,0,1.4,0.1,2,0.4c0.6,0.2,1.1,0.6,1.6,1.1c0.4,0.5,0.8,1,1.1,1.7s0.4,1.4,0.4,2.3c0,0.3,0,0.6-0.1,0.7
			s-0.2,0.2-0.4,0.2h-8.1c0,0.8,0.1,1.4,0.3,2s0.5,1,0.8,1.4s0.7,0.7,1.2,0.9c0.5,0.2,1,0.3,1.6,0.3c0.5,0,1-0.1,1.4-0.2
			s0.7-0.3,1-0.4s0.5-0.3,0.7-0.4s0.3-0.2,0.5-0.2s0.3,0.1,0.4,0.2l0.6,0.8c-0.3,0.3-0.6,0.6-0.9,0.8c-0.4,0.2-0.8,0.4-1.2,0.6
			s-0.9,0.3-1.3,0.3c-0.4,0.1-0.9,0.1-1.3,0.1c-0.8,0-1.6-0.1-2.3-0.4s-1.3-0.7-1.8-1.2s-0.9-1.2-1.2-2s-0.4-1.7-0.4-2.8
			c0-0.8,0.1-1.6,0.4-2.4c0.3-0.7,0.6-1.4,1.1-1.9s1.1-1,1.8-1.3S189.9,283,190.9,283z M190.9,284.6c-1,0-1.8,0.3-2.4,0.9
			c-0.6,0.6-1,1.4-1.1,2.5h6.6c0-0.5-0.1-1-0.2-1.4c-0.1-0.4-0.3-0.8-0.6-1.1c-0.3-0.3-0.6-0.5-1-0.7S191.4,284.6,190.9,284.6z"/>
		<path d="M200.9,277.7v17.7h-2.1v-17.7H200.9z"/>
		<path d="M207.1,277.7v17.7h-2.1v-17.7H207.1z"/>
		<path d="M215.6,283c0.7,0,1.4,0.1,2,0.4c0.6,0.2,1.1,0.6,1.6,1.1c0.4,0.5,0.8,1,1.1,1.7s0.4,1.4,0.4,2.3c0,0.3,0,0.6-0.1,0.7
			s-0.2,0.2-0.4,0.2h-8.1c0,0.8,0.1,1.4,0.3,2s0.5,1,0.8,1.4s0.7,0.7,1.2,0.9c0.5,0.2,1,0.3,1.6,0.3c0.5,0,1-0.1,1.4-0.2
			s0.7-0.3,1-0.4s0.5-0.3,0.7-0.4s0.3-0.2,0.5-0.2s0.3,0.1,0.4,0.2l0.6,0.8c-0.3,0.3-0.6,0.6-0.9,0.8c-0.4,0.2-0.8,0.4-1.2,0.6
			s-0.9,0.3-1.3,0.3c-0.4,0.1-0.9,0.1-1.3,0.1c-0.8,0-1.6-0.1-2.3-0.4s-1.3-0.7-1.8-1.2s-0.9-1.2-1.2-2s-0.4-1.7-0.4-2.8
			c0-0.8,0.1-1.6,0.4-2.4c0.3-0.7,0.6-1.4,1.1-1.9s1.1-1,1.8-1.3S214.8,283,215.6,283z M215.8,284.6c-1,0-1.8,0.3-2.4,0.9
			c-0.6,0.6-1,1.4-1.1,2.5h6.6c0-0.5-0.1-1-0.2-1.4c-0.1-0.4-0.3-0.8-0.6-1.1c-0.3-0.3-0.6-0.5-1-0.7S216.2,284.6,215.8,284.6z"/>
		<path d="M27.9,312h1.8c0.2,0,0.3,0,0.4,0.1s0.2,0.2,0.2,0.3l3.1,7.8c0.1,0.3,0.2,0.6,0.3,0.9s0.1,0.6,0.2,0.9
			c0.1-0.3,0.1-0.6,0.2-0.9c0.1-0.3,0.2-0.6,0.3-0.9l3.1-7.8c0-0.1,0.1-0.2,0.2-0.3c0.1-0.1,0.2-0.1,0.4-0.1h1.7l-5,12.2h-1.9
			L27.9,312z"/>
		<path d="M50.5,324.2h-0.9c-0.2,0-0.4,0-0.5-0.1s-0.2-0.2-0.3-0.4l-0.2-1.1c-0.3,0.3-0.6,0.5-0.9,0.8c-0.3,0.2-0.6,0.4-1,0.6
			c-0.3,0.2-0.7,0.3-1.1,0.4c-0.4,0.1-0.8,0.1-1.3,0.1s-0.9-0.1-1.3-0.2c-0.4-0.1-0.8-0.3-1.1-0.6c-0.3-0.3-0.5-0.6-0.7-1
			s-0.3-0.9-0.3-1.4s0.1-0.9,0.4-1.4s0.7-0.8,1.3-1.2c0.6-0.3,1.4-0.6,2.3-0.8s2.1-0.3,3.5-0.3v-1c0-1-0.2-1.7-0.6-2.2
			c-0.4-0.5-1-0.7-1.8-0.7c-0.5,0-1,0.1-1.3,0.2c-0.4,0.1-0.7,0.3-0.9,0.4s-0.5,0.3-0.7,0.4s-0.4,0.2-0.6,0.2c-0.1,0-0.3,0-0.4-0.1
			s-0.2-0.2-0.3-0.3l-0.4-0.7c0.7-0.6,1.4-1.1,2.2-1.5s1.6-0.5,2.6-0.5c0.7,0,1.3,0.1,1.8,0.3c0.5,0.2,1,0.5,1.3,0.9
			c0.4,0.4,0.6,0.9,0.8,1.5s0.3,1.2,0.3,1.9v7.8H50.5z M45,322.9c0.4,0,0.7,0,1-0.1s0.6-0.2,0.9-0.3c0.3-0.1,0.5-0.3,0.8-0.5
			s0.5-0.4,0.7-0.7v-2.5c-1,0-1.8,0.1-2.5,0.2s-1.2,0.3-1.7,0.5s-0.7,0.4-0.9,0.7c-0.2,0.3-0.3,0.6-0.3,0.9s0.1,0.6,0.2,0.8
			s0.2,0.4,0.4,0.6c0.2,0.1,0.4,0.3,0.6,0.3C44.5,322.8,44.8,322.9,45,322.9z"/>
		<path d="M53.8,324.2V312H55c0.2,0,0.4,0,0.5,0.1s0.1,0.2,0.2,0.5l0.1,1.9c0.4-0.8,0.9-1.5,1.5-2s1.3-0.7,2.2-0.7
			c0.3,0,0.6,0,0.9,0.1c0.3,0.1,0.5,0.2,0.8,0.3l-0.3,1.6c-0.1,0.2-0.2,0.3-0.4,0.3c-0.1,0-0.3,0-0.5-0.1s-0.6-0.1-1-0.1
			c-0.7,0-1.4,0.2-1.9,0.6s-0.9,1.1-1.3,1.9v7.7h-2V324.2z"/>
		<path d="M66.3,308.2c0,0.2,0,0.4-0.1,0.6s-0.2,0.3-0.3,0.5c-0.1,0.1-0.3,0.3-0.5,0.3c-0.2,0.1-0.4,0.1-0.6,0.1s-0.4,0-0.6-0.1
			s-0.3-0.2-0.5-0.3c-0.1-0.1-0.2-0.3-0.3-0.5s-0.1-0.4-0.1-0.6s0-0.4,0.1-0.6s0.2-0.4,0.3-0.5s0.3-0.2,0.5-0.3
			c0.2-0.1,0.4-0.1,0.6-0.1s0.4,0,0.6,0.1c0.2,0.1,0.3,0.2,0.5,0.3c0.1,0.1,0.3,0.3,0.3,0.5C66.3,307.8,66.3,308,66.3,308.2z
			 M65.8,312v12.2h-2.1V312H65.8z"/>
		<path d="M78.6,324.2h-0.9c-0.2,0-0.4,0-0.5-0.1s-0.2-0.2-0.3-0.4l-0.2-1.1c-0.3,0.3-0.6,0.5-0.9,0.8c-0.3,0.2-0.6,0.4-1,0.6
			c-0.3,0.2-0.7,0.3-1.1,0.4s-0.8,0.1-1.3,0.1s-0.9-0.1-1.3-0.2c-0.4-0.1-0.8-0.3-1.1-0.6c-0.3-0.3-0.5-0.6-0.7-1
			c-0.2-0.4-0.3-0.9-0.3-1.4s0.1-0.9,0.4-1.4s0.7-0.8,1.3-1.2c0.6-0.3,1.4-0.6,2.3-0.8c1-0.2,2.1-0.3,3.5-0.3v-1
			c0-1-0.2-1.7-0.6-2.2s-1-0.7-1.8-0.7c-0.5,0-1,0.1-1.3,0.2c-0.4,0.1-0.7,0.3-0.9,0.4c-0.2,0.1-0.5,0.3-0.7,0.4
			c-0.2,0.1-0.4,0.2-0.6,0.2c-0.1,0-0.3,0-0.4-0.1c-0.1-0.1-0.2-0.2-0.3-0.3l-0.4-0.7c0.7-0.6,1.4-1.1,2.2-1.5
			c0.8-0.4,1.6-0.5,2.6-0.5c0.7,0,1.3,0.1,1.8,0.3c0.5,0.2,1,0.5,1.3,0.9c0.4,0.4,0.6,0.9,0.8,1.5c0.2,0.6,0.3,1.2,0.3,1.9
			L78.6,324.2L78.6,324.2z M73,322.9c0.4,0,0.7,0,1-0.1s0.6-0.2,0.9-0.3c0.3-0.1,0.5-0.3,0.8-0.5s0.5-0.4,0.7-0.7v-2.5
			c-1,0-1.8,0.1-2.5,0.2c-0.7,0.1-1.2,0.3-1.7,0.5s-0.7,0.4-0.9,0.7c-0.2,0.3-0.3,0.6-0.3,0.9s0.1,0.6,0.2,0.8
			c0.1,0.2,0.2,0.4,0.4,0.6c0.2,0.1,0.4,0.3,0.6,0.3C72.4,322.8,72.8,322.9,73,322.9z"/>
		<path d="M81.8,324.2V312h1.3c0.3,0,0.5,0.1,0.6,0.4l0.2,1.3c0.5-0.6,1.1-1.1,1.8-1.4c0.7-0.4,1.4-0.5,2.3-0.5
			c0.7,0,1.2,0.1,1.8,0.3c0.5,0.2,0.9,0.5,1.3,0.9c0.3,0.4,0.6,0.9,0.8,1.5c0.2,0.6,0.3,1.2,0.3,1.9v7.7h-2.1v-7.7
			c0-0.9-0.2-1.6-0.6-2.1s-1.1-0.8-1.9-0.8c-0.6,0-1.2,0.2-1.8,0.5c-0.5,0.3-1.1,0.7-1.5,1.2v9L81.8,324.2L81.8,324.2z"/>
		<path d="M98.8,324.4c-1,0-1.7-0.3-2.2-0.8s-0.8-1.3-0.8-2.3v-7.4h-1.5c-0.1,0-0.2,0-0.3-0.1c-0.1-0.1-0.1-0.2-0.1-0.4v-0.9l2-0.3
			l0.5-3.8c0-0.1,0.1-0.2,0.2-0.3c0.1-0.1,0.2-0.1,0.3-0.1H98v4.2h3.5v1.5H98v7.3c0,0.5,0.1,0.9,0.4,1.1s0.6,0.4,1,0.4
			c0.2,0,0.4,0,0.6-0.1s0.3-0.1,0.4-0.2s0.2-0.1,0.3-0.2c0.1-0.1,0.2-0.1,0.2-0.1c0.1,0,0.2,0.1,0.3,0.2l0.6,1
			c-0.4,0.3-0.8,0.6-1.3,0.8C99.9,324.3,99.4,324.4,98.8,324.4z"/>
		<path d="M108.9,311.8c0.7,0,1.4,0.1,2,0.4c0.6,0.2,1.1,0.6,1.6,1.1c0.4,0.5,0.8,1,1.1,1.7s0.4,1.4,0.4,2.3c0,0.3,0,0.6-0.1,0.7
			s-0.2,0.2-0.4,0.2h-8.1c0,0.8,0.1,1.4,0.3,2c0.2,0.6,0.5,1,0.8,1.4s0.7,0.7,1.2,0.9c0.5,0.2,1,0.3,1.6,0.3c0.5,0,1-0.1,1.4-0.2
			s0.7-0.3,1-0.4s0.5-0.3,0.7-0.4s0.3-0.2,0.5-0.2s0.3,0.1,0.4,0.2l0.6,0.8c-0.3,0.3-0.6,0.6-0.9,0.8c-0.4,0.2-0.8,0.4-1.2,0.6
			c-0.4,0.2-0.9,0.3-1.3,0.3c-0.4,0.1-0.9,0.1-1.3,0.1c-0.8,0-1.6-0.1-2.3-0.4s-1.3-0.7-1.8-1.2s-0.9-1.2-1.2-2
			c-0.3-0.8-0.4-1.7-0.4-2.8c0-0.8,0.1-1.6,0.4-2.4c0.3-0.7,0.6-1.4,1.1-1.9s1.1-1,1.8-1.3S108.1,311.8,108.9,311.8z M108.9,313.4
			c-1,0-1.8,0.3-2.4,0.9s-1,1.4-1.1,2.5h6.6c0-0.5-0.1-1-0.2-1.4s-0.3-0.8-0.6-1.1c-0.3-0.3-0.6-0.5-1-0.7S109.4,313.4,108.9,313.4z
			"/>
		<path d="M121.2,318v-0.3l3-4.7l0.7,0.3c0.1,0.1,0.2,0.1,0.3,0.2c0.1,0.1,0.1,0.2,0.1,0.3c0,0.1,0,0.3-0.1,0.4l-1.9,3.1
			c-0.1,0.2-0.2,0.3-0.3,0.4c0.1,0.1,0.2,0.3,0.3,0.4l1.9,3.1c0,0.1,0.1,0.1,0.1,0.2s0,0.1,0,0.2c0,0.2-0.1,0.4-0.3,0.5l-0.7,0.3
			L121.2,318z M124.8,318v-0.3l3-4.7l0.7,0.3c0.1,0.1,0.2,0.1,0.3,0.2c0.1,0.1,0.1,0.2,0.1,0.3c0,0.1,0,0.3-0.1,0.4l-1.9,3.1
			c-0.1,0.2-0.2,0.3-0.3,0.4c0.1,0.1,0.2,0.3,0.3,0.4l1.9,3.1c0,0.1,0.1,0.1,0.1,0.2s0,0.1,0,0.2c0,0.2-0.1,0.4-0.3,0.5l-0.8,0.5
			L124.8,318z"/>
		<path d="M142.4,307v2h-5.6v15.2h-2.3V309h-5.6v-2H142.4z"/>
		<path d="M142.6,324.2V312h1.2c0.2,0,0.4,0,0.5,0.1s0.1,0.2,0.2,0.5l0.1,1.9c0.4-0.8,0.9-1.5,1.5-2s1.3-0.7,2.2-0.7
			c0.3,0,0.6,0,0.9,0.1c0.3,0.1,0.5,0.2,0.8,0.3l-0.3,1.6c-0.1,0.2-0.2,0.3-0.4,0.3c-0.1,0-0.3,0-0.5-0.1s-0.6-0.1-1-0.1
			c-0.7,0-1.4,0.2-1.9,0.6s-0.9,1.1-1.3,1.9v7.7h-2V324.2z"/>
		<path d="M160.6,324.2h-0.9c-0.2,0-0.4,0-0.5-0.1s-0.2-0.2-0.3-0.4l-0.2-1.1c-0.3,0.3-0.6,0.5-0.9,0.8c-0.3,0.2-0.6,0.4-1,0.6
			c-0.3,0.2-0.7,0.3-1.1,0.4c-0.4,0.1-0.8,0.1-1.3,0.1s-0.9-0.1-1.3-0.2c-0.4-0.1-0.8-0.3-1.1-0.6c-0.3-0.3-0.5-0.6-0.7-1
			s-0.3-0.9-0.3-1.4s0.1-0.9,0.4-1.4s0.7-0.8,1.3-1.2c0.6-0.3,1.4-0.6,2.3-0.8s2.1-0.3,3.5-0.3v-1c0-1-0.2-1.7-0.6-2.2
			c-0.4-0.5-1-0.7-1.8-0.7c-0.5,0-1,0.1-1.3,0.2c-0.4,0.1-0.7,0.3-0.9,0.4s-0.5,0.3-0.7,0.4s-0.4,0.2-0.6,0.2c-0.1,0-0.3,0-0.4-0.1
			s-0.2-0.2-0.3-0.3l-0.4-0.7c0.7-0.6,1.4-1.1,2.2-1.5s1.6-0.5,2.6-0.5c0.7,0,1.3,0.1,1.8,0.3c0.5,0.2,1,0.5,1.3,0.9
			c0.4,0.4,0.6,0.9,0.8,1.5s0.3,1.2,0.3,1.9L160.6,324.2L160.6,324.2z M155.1,322.9c0.4,0,0.7,0,1-0.1s0.6-0.2,0.9-0.3
			c0.3-0.1,0.5-0.3,0.8-0.5s0.5-0.4,0.7-0.7v-2.5c-1,0-1.8,0.1-2.5,0.2s-1.2,0.3-1.7,0.5s-0.7,0.4-0.9,0.7c-0.2,0.3-0.3,0.6-0.3,0.9
			s0.1,0.6,0.2,0.8s0.2,0.4,0.4,0.6c0.2,0.1,0.4,0.3,0.6,0.3C154.6,322.8,154.9,322.9,155.1,322.9z"/>
		<path d="M172.1,314.2c-0.1,0.1-0.1,0.2-0.2,0.2s-0.2,0.1-0.3,0.1s-0.3,0-0.4-0.2c-0.1-0.1-0.3-0.2-0.5-0.3
			c-0.2-0.1-0.5-0.2-0.8-0.3c-0.3-0.1-0.7-0.2-1.1-0.2c-0.6,0-1.1,0.1-1.6,0.3s-0.8,0.5-1.1,0.9s-0.5,0.9-0.7,1.5s-0.2,1.2-0.2,1.9
			c0,0.7,0.1,1.4,0.3,2s0.4,1.1,0.7,1.4s0.7,0.7,1.1,0.9s0.9,0.3,1.5,0.3c0.5,0,0.9-0.1,1.3-0.2c0.3-0.1,0.6-0.3,0.8-0.4
			c0.2-0.2,0.4-0.3,0.6-0.4s0.3-0.2,0.4-0.2c0.2,0,0.3,0.1,0.4,0.2l0.6,0.8c-0.5,0.6-1.2,1.1-2,1.4s-1.6,0.5-2.5,0.5
			c-0.8,0-1.5-0.1-2.1-0.4c-0.7-0.3-1.2-0.7-1.7-1.2s-0.9-1.2-1.1-2c-0.3-0.8-0.4-1.7-0.4-2.7c0-0.9,0.1-1.7,0.4-2.5s0.6-1.4,1.1-2
			s1.1-1,1.8-1.3s1.5-0.5,2.4-0.5c0.8,0,1.6,0.1,2.3,0.4s1.2,0.7,1.7,1.2L172.1,314.2z"/>
		<path d="M178.8,324.4c-1,0-1.7-0.3-2.2-0.8s-0.8-1.3-0.8-2.3v-7.4h-1.5c-0.1,0-0.2,0-0.3-0.1s-0.1-0.2-0.1-0.4v-0.9l2-0.3l0.5-3.8
			c0-0.1,0.1-0.2,0.2-0.3c0.1-0.1,0.2-0.1,0.3-0.1h1.1v4.2h3.5v1.5h-3.5v7.3c0,0.5,0.1,0.9,0.4,1.1s0.6,0.4,1,0.4
			c0.2,0,0.4,0,0.6-0.1c0.2-0.1,0.3-0.1,0.4-0.2c0.1-0.1,0.2-0.1,0.3-0.2s0.2-0.1,0.2-0.1c0.1,0,0.2,0.1,0.3,0.2l0.6,1
			c-0.4,0.3-0.8,0.6-1.3,0.8C179.9,324.3,179.4,324.4,178.8,324.4z"/>
		<path d="M188.9,311.8c0.7,0,1.4,0.1,2,0.4c0.6,0.2,1.1,0.6,1.6,1.1c0.4,0.5,0.8,1,1.1,1.7s0.4,1.4,0.4,2.3c0,0.3,0,0.6-0.1,0.7
			s-0.2,0.2-0.4,0.2h-8.1c0,0.8,0.1,1.4,0.3,2s0.5,1,0.8,1.4s0.7,0.7,1.2,0.9c0.5,0.2,1,0.3,1.6,0.3c0.5,0,1-0.1,1.4-0.2
			s0.7-0.3,1-0.4s0.5-0.3,0.7-0.4s0.3-0.2,0.5-0.2s0.3,0.1,0.4,0.2l0.6,0.8c-0.3,0.3-0.6,0.6-0.9,0.8c-0.4,0.2-0.8,0.4-1.2,0.6
			s-0.9,0.3-1.3,0.3c-0.4,0.1-0.9,0.1-1.3,0.1c-0.8,0-1.6-0.1-2.3-0.4s-1.3-0.7-1.8-1.2s-0.9-1.2-1.2-2s-0.4-1.7-0.4-2.8
			c0-0.8,0.1-1.6,0.4-2.4c0.3-0.7,0.6-1.4,1.1-1.9s1.1-1,1.8-1.3S187.9,311.8,188.9,311.8z M188.9,313.4c-1,0-1.8,0.3-2.4,0.9
			c-0.6,0.6-1,1.4-1.1,2.5h6.6c0-0.5-0.1-1-0.2-1.4c-0.1-0.4-0.3-0.8-0.6-1.1c-0.3-0.3-0.6-0.5-1-0.7S189.4,313.4,188.9,313.4z"/>
		<path d="M198.4,312v7.8c0,0.9,0.2,1.6,0.6,2.1c0.4,0.5,1.1,0.8,1.9,0.8c0.6,0,1.2-0.1,1.8-0.4s1.1-0.7,1.5-1.2v-9h2.1v12.2h-1.3
			c-0.3,0-0.5-0.1-0.6-0.4l-0.2-1.3c-0.5,0.6-1.1,1.1-1.8,1.4c-0.7,0.4-1.4,0.5-2.3,0.5c-0.7,0-1.3-0.1-1.8-0.3s-0.9-0.5-1.3-0.9
			c-0.3-0.4-0.6-0.9-0.8-1.5s-0.3-1.2-0.3-1.9v-7.8h2.5V312z"/>
		<path d="M209.9,324.2V312h1.2c0.2,0,0.4,0,0.5,0.1s0.1,0.2,0.2,0.5l0.1,1.9c0.4-0.8,0.9-1.5,1.5-2s1.3-0.7,2.2-0.7
			c0.3,0,0.6,0,0.9,0.1c0.3,0.1,0.5,0.2,0.8,0.3l-0.3,1.6c-0.1,0.2-0.2,0.3-0.4,0.3c-0.1,0-0.3,0-0.5-0.1s-0.6-0.1-1-0.1
			c-0.7,0-1.4,0.2-1.9,0.6s-0.9,1.1-1.3,1.9v7.7h-2V324.2z"/>
		<path d="M220.8,322.6l-0.7-0.3c-0.2-0.1-0.3-0.3-0.3-0.5c0-0.1,0-0.3,0.1-0.4l1.9-3.1c0.1-0.2,0.2-0.3,0.3-0.4
			c-0.1-0.1-0.2-0.2-0.3-0.4l-1.9-3.1c-0.1-0.1-0.1-0.3-0.1-0.4c0-0.2,0.1-0.4,0.3-0.5l0.7-0.3l3,4.7v0.3L220.8,322.6z M227.2,317.7
			v0.3l-3,4.7l-0.7-0.3c-0.2-0.1-0.3-0.3-0.3-0.5c0-0.1,0-0.3,0.1-0.4l1.9-3.1c0.1-0.2,0.2-0.3,0.3-0.4c-0.1-0.1-0.2-0.2-0.3-0.4
			l-1.9-3.1c-0.1-0.1-0.1-0.3-0.1-0.4c0-0.2,0.1-0.4,0.3-0.5l0.7-0.3L227.2,317.7z"/>
	</g>
</g>
</svg>
