<?xml version="1.0" encoding="utf-8"?>
<!-- Generator: Adobe Illustrator 22.0.1, SVG Export Plug-In . SVG Version: 6.00 Build 0)  -->
<svg version="1.1" id="Calque_1" xmlns="http://www.w3.org/2000/svg" xmlns:xlink="http://www.w3.org/1999/xlink" x="0px" y="0px"
	 viewBox="0 0 1000 700" style="enable-background:new 0 0 1000 700;" xml:space="preserve">
<path d="M626.1,223.2c35,35,52.5,77.3,52.5,126.8s-17.5,91.7-52.5,126.8s-77.2,52.5-126.8,52.5s-91.5-17.8-126.1-53.2L499.3,350
	V170.7C548.8,170.7,591,188.2,626.1,223.2z M500,51.7c82.6,0,153.1,29.2,211.5,87.5S799,267.9,799,350s-29.2,152.4-87.5,210.7
	c-58.4,58.4-128.8,87.5-211.5,87.5s-153.1-29.2-211.5-87.5S201,432.1,201,350s29.2-152.4,87.5-210.7S417.4,51.7,500,51.7L500,51.7z
	 M500,589.5c65.8,0,122.1-23.4,168.7-70.1c46.7-46.7,70-103.2,70.1-169.4s-23.3-122.7-70.1-169.4c-46.8-46.7-103-70.1-168.7-70.1
	c-65.7,0-122,23.4-168.8,70.1s-70.1,103.2-70,169.4s23.5,122.7,70,169.4S434,589.5,500,589.5z"/>
</svg>
