<?xml version="1.0" encoding="utf-8"?>
<!-- Generator: Adobe Illustrator 20.0.0, SVG Export Plug-In . SVG Version: 6.00 Build 0)  -->
<svg version="1.1" id="Layer_1" xmlns="http://www.w3.org/2000/svg" xmlns:xlink="http://www.w3.org/1999/xlink" x="0px" y="0px"
	 viewBox="0 0 758.8 546.2" style="enable-background:new 0 0 758.8 546.2;" xml:space="preserve">
<style type="text/css">
	.st0{fill:none;stroke:#000000;stroke-width:4.7472;stroke-miterlimit:10;}
	.st1{fill:none;stroke:#000000;stroke-width:4.3709;stroke-miterlimit:10;}
	.st2{fill:none;stroke:#000000;stroke-width:4.252;stroke-miterlimit:10;}
	.st3{fill:none;stroke:#000000;stroke-width:4.2058;stroke-miterlimit:10;}
</style>
<path d="M185.9,110.9c-16.4-13.4-34-22.4-37.6-24.1c-0.4-0.2-0.6-0.6-0.6-1.1V60.2c3.2-2.2,5.3-5.8,5.3-9.9V23.8
	c0-13.2-10.7-23.8-23.8-23.8h-5.7c-13.2,0-23.8,10.7-23.8,23.8v26.4c0,4.1,2.1,7.8,5.3,9.9v25.5c0,0.5-0.3,0.9-0.6,1.1
	c-3.6,1.8-21.3,10.7-37.6,24.1c-3,2.4-4.7,6.1-4.7,9.9v18.1h55.8l5.5-25.3c-11.2-15.6,0.8-16.3,2.9-16.3c2.1,0,14.1,0.8,2.9,16.3
	l5.5,25.3h55.8v-18.1C190.5,117,188.8,113.3,185.9,110.9L185.9,110.9z M185.9,110.9"/>
<g>
	<path d="M518.6,399.3"/>
	<path d="M756,404.5H389.5c-1.6,0-2.9-1-2.9-2.2s1.3-2.2,2.9-2.2H756c1.6,0,2.9,1,2.9,2.2S757.5,404.5,756,404.5z"/>
	<g>
		<path d="M477.8,402.1h-4.3V288.8c0-1.3-0.7-2.4-1.8-3.1l-28.8-16.7c-1.1-0.6-2.5-0.6-3.6,0l-28.8,16.7c-1.1,0.6-1.8,1.8-1.8,3.1
			v113.2h-4.3V288.8c0-2.8,1.5-5.4,3.9-6.7l28.8-16.7c2.4-1.4,5.4-1.4,7.8,0l28.8,16.7c2.4,1.4,3.9,4,3.9,6.7V402.1z"/>
		<path d="M530.5,332.6l-4.3,2.8v-78.3c0-1.3-0.7-2.4-1.8-3.1l-28.8-16.7c-1.1-0.6-2.5-0.6-3.6,0L463.3,254
			c-1.1,0.6-1.8,1.8-1.8,3.1v19.5h-4.3v-19.5c0-2.8,1.5-5.4,3.9-6.7l28.8-16.7c2.4-1.4,5.4-1.4,7.8,0l28.8,16.7
			c2.4,1.4,3.9,4,3.9,6.7V332.6z"/>
		<g>
			<path d="M560.7,345.9h9c1.2,0,2.1-1,2.1-2.1v-8.9c0-1.2-1-2.1-2.1-2.1h-8.9c-1.2,0-2.1,1-2.1,2.1v9
				C558.6,344.9,559.6,345.9,560.7,345.9L560.7,345.9z M562.9,336.9h4.7c0,0,0,0,0,0v4.7c0,0,0,0,0,0h-4.7c0,0,0,0,0,0L562.9,336.9
				C562.8,336.9,562.9,336.9,562.9,336.9z M562.8,336.9"/>
			<path d="M542.7,345.9h9c1.2,0,2.1-1,2.1-2.1v-8.9c0-1.2-1-2.1-2.1-2.1h-8.9c-1.2,0-2.1,1-2.1,2.1v9
				C540.6,344.9,541.6,345.9,542.7,345.9L542.7,345.9z M544.9,336.9h4.7c0,0,0,0,0,0v4.7c0,0,0,0,0,0h-4.7c0,0,0,0,0,0L544.9,336.9
				C544.8,336.9,544.9,336.9,544.9,336.9z M544.8,336.9"/>
			<path d="M578.7,345.9h9c1.2,0,2.1-1,2.1-2.1v-8.9c0-1.2-1-2.1-2.1-2.1h-8.9c-1.2,0-2.1,1-2.1,2.1v9
				C576.6,344.9,577.6,345.9,578.7,345.9L578.7,345.9z M580.9,336.9h4.7c0,0,0,0,0,0v4.7c0,0,0,0,0,0h-4.7c0,0,0,0,0,0L580.9,336.9
				C580.9,336.9,580.9,336.9,580.9,336.9z M580.9,336.9"/>
			<path d="M610.8,372.7h-81.3c0,0,0,0,0,0V368c0,0,0,0,0,0h81.3c0,0,0,0,0,0L610.8,372.7C610.9,372.7,610.8,372.7,610.8,372.7z
				 M529.6,377h81.3c0,0,0,0,0,0v4.7c0,0,0,0,0,0h-81.3c0,0,0,0,0,0L529.6,377C529.5,377,529.6,377,529.6,377z M610.8,363.7h-81.3
				c0,0,0,0,0,0V359c0,0,0,0,0,0h81.3c0,0,0,0,0,0L610.8,363.7C610.9,363.7,610.8,363.7,610.8,363.7z M529.6,386h81.3c0,0,0,0,0,0
				v4.7c0,0,0,0,0,0h-81.3c0,0,0,0,0,0L529.6,386C529.5,386,529.6,386,529.6,386z M529.5,399.7V395c0,0,0,0,0,0h81.3c0,0,0,0,0,0
				v4.7c0,0,0,0,0,0L529.5,399.7C529.6,399.7,529.5,399.7,529.5,399.7z M513.7,349.6l23.7-20.1c0,0,0,0,0,0l32.7-8.7c0,0,0,0,0,0
				l32.8,8.7c0,0,0,0,0,0l23.7,20.1c0,0.2-0.1,0.3-0.1,0.5v49.6c0,0,0,0,0,0h-11.5c0,0,0,0,0,0v-42.8c0-1.2-1-2.1-2.1-2.1h-85.5
				c-1.2,0-2.1,1-2.1,2.1v42.8c0,0,0,0,0,0h-11.5c0,0,0,0,0,0v-49.6C513.8,349.9,513.8,349.7,513.7,349.6L513.7,349.6z M630.2,403.3
				c0.7-0.6,0.6-1.4,0.6-1.4v-48.9l1,0.9c0.4,0.3,0.9,0.5,1.4,0.5c0.6,0,1.2-0.2,1.6-0.8c0.8-0.9,0.6-2.2-0.2-3L605.3,326
				c-0.2-0.2-0.5-0.4-0.8-0.4l-33.8-9c-0.4-0.1-0.7-0.1-1.1,0l-33.8,9c-0.3,0.1-0.6,0.2-0.8,0.4l-29.3,24.8c-0.9,0.8-1,2.2-0.1,3.1
				c0.8,0.8,2.1,0.7,3,0l0.9-0.8v50.9c0,0,0,0,0,0h119.2C628.8,404,629.5,404,630.2,403.3z"/>
		</g>
	</g>
</g>
<path d="M419.6,395.4c-16.4-13.4-34-22.4-37.6-24.2c-0.4-0.2-0.7-0.6-0.7-1.1v-25.5c3.2-2.1,5.3-5.8,5.3-9.9v-26.4
	c0-13.2-10.7-23.8-23.8-23.8h-5.7c-13.2,0-23.8,10.7-23.8,23.8v26.4c0,4.1,2.1,7.8,5.3,9.9v25.5c0,0.5-0.2,0.9-0.7,1.1
	c-3.6,1.7-21.3,10.7-37.6,24.2c-3,2.4-4.7,6.1-4.7,9.9v18.1h128.5v-18.1C424.2,401.5,422.5,397.8,419.6,395.4L419.6,395.4z
	 M419.6,395.4"/>
<path class="st0" d="M226.8,191.4H25.7c-5.4,0-9.7-4.4-9.7-9.7v-32.1c0-5.4,4.4-9.7,9.7-9.7h201.1c5.4,0,9.7,4.4,9.7,9.7v32.1
	C236.5,187,232.2,191.4,226.8,191.4z"/>
<g>
	<path d="M36.3,170.6c0.5,0.6,1.2,1,2.1,1c0.9,0,1.6-0.3,2.1-1c0.5-0.6,0.8-1.5,0.8-2.6v-7.6h3.1v7.7c0,2-0.6,3.5-1.7,4.6
		c-1.1,1.1-2.5,1.6-4.2,1.6s-3.1-0.5-4.3-1.6c-1.1-1.1-1.7-2.6-1.7-4.6v-7.7h3.1v7.6C35.6,169.1,35.8,170,36.3,170.6z"/>
	<path d="M50.6,165.7v4.8c0,0.4,0.1,0.7,0.3,1c0.2,0.2,0.5,0.3,0.7,0.3c0.6,0,1-0.2,1.4-0.8l1.1,2.1c-0.9,0.8-1.9,1.3-2.9,1.3
		s-1.9-0.3-2.6-1c-0.7-0.7-1.1-1.6-1.1-2.7v-4.9h-1.2v-2.1h1.2v-3.2h3v3.2h2.6v2.1H50.6z"/>
	<path d="M56,162.2c-0.3-0.3-0.5-0.7-0.5-1.2c0-0.5,0.2-0.9,0.5-1.2s0.7-0.5,1.2-0.5c0.5,0,0.9,0.2,1.2,0.5c0.3,0.3,0.5,0.7,0.5,1.2
		c0,0.5-0.2,0.9-0.5,1.2c-0.3,0.3-0.7,0.5-1.2,0.5C56.7,162.7,56.3,162.5,56,162.2z M58.7,174.2h-3v-10.6h3V174.2z"/>
	<path d="M64.5,174.2h-3v-14.6h3V174.2z"/>
	<path d="M67.5,162.2c-0.3-0.3-0.5-0.7-0.5-1.2c0-0.5,0.2-0.9,0.5-1.2s0.7-0.5,1.2-0.5c0.5,0,0.9,0.2,1.2,0.5
		c0.3,0.3,0.5,0.7,0.5,1.2c0,0.5-0.2,0.9-0.5,1.2c-0.3,0.3-0.7,0.5-1.2,0.5C68.3,162.7,67.8,162.5,67.5,162.2z M70.2,174.2h-3v-10.6
		h3V174.2z"/>
	<path d="M81,170.8c0,1-0.4,1.9-1.2,2.5c-0.8,0.6-1.7,0.9-2.9,0.9c-0.8,0-1.6-0.1-2.5-0.4c-0.9-0.3-1.6-0.7-2.3-1.3l1.3-1.9
		c1.1,0.9,2.3,1.3,3.5,1.3c0.4,0,0.7-0.1,0.9-0.2s0.3-0.4,0.3-0.6s-0.2-0.5-0.5-0.7c-0.3-0.2-0.8-0.4-1.3-0.6
		c-0.6-0.2-1-0.3-1.3-0.5c-0.3-0.1-0.7-0.3-1.1-0.6c-0.8-0.5-1.2-1.2-1.2-2.2s0.4-1.8,1.2-2.4s1.8-0.9,3.1-0.9
		c1.2,0,2.5,0.4,3.7,1.3l-1.1,2c-0.9-0.6-1.8-0.9-2.8-0.9s-1.4,0.2-1.4,0.7c0,0.3,0.1,0.5,0.4,0.7c0.3,0.2,0.8,0.3,1.4,0.6
		c0.7,0.2,1.1,0.4,1.4,0.5c0.3,0.1,0.6,0.3,1,0.5C80.6,169.1,81,169.8,81,170.8z"/>
	<path d="M92.3,174.2h-2.8v-1.3c-0.8,1-1.7,1.4-2.8,1.4c-1.1,0-2.1-0.3-2.8-1c-0.8-0.7-1.1-1.5-1.1-2.6c0-1.1,0.4-1.9,1.2-2.4
		c0.8-0.5,1.9-0.8,3.2-0.8h2.2v-0.1c0-1.1-0.6-1.7-1.8-1.7c-0.5,0-1.1,0.1-1.6,0.3c-0.6,0.2-1.1,0.5-1.4,0.8l-1.3-1.9
		c1.4-1,3-1.5,4.8-1.5c1.3,0,2.3,0.3,3.2,1c0.8,0.6,1.2,1.7,1.2,3.1V174.2z M89.3,170.1v-0.5h-1.9c-1.2,0-1.8,0.4-1.8,1.1
		c0,0.4,0.1,0.7,0.4,0.9c0.3,0.2,0.7,0.3,1.2,0.3s1-0.2,1.4-0.5C89.1,171.1,89.3,170.6,89.3,170.1z"/>
	<path d="M98.4,165.7v4.8c0,0.4,0.1,0.7,0.3,1c0.2,0.2,0.5,0.3,0.7,0.3c0.6,0,1-0.2,1.4-0.8l1.1,2.1c-0.9,0.8-1.9,1.3-2.9,1.3
		s-1.9-0.3-2.6-1c-0.7-0.7-1.1-1.6-1.1-2.7v-4.9h-1.2v-2.1h1.2v-3.2h3v3.2h2.6v2.1H98.4z"/>
	<path d="M112.7,172.6c-1.2,1.1-2.6,1.7-4.2,1.7s-2.9-0.5-4-1.5c-1.1-1-1.6-2.3-1.6-4c0-1.7,0.5-3,1.6-4c1.1-1,2.3-1.5,3.8-1.5
		s2.7,0.4,3.7,1.3c1,0.9,1.5,2.1,1.5,3.6v1.6h-7.7c0.1,0.6,0.4,1.1,0.9,1.4c0.5,0.4,1.1,0.6,1.7,0.6c1,0,1.9-0.3,2.6-1L112.7,172.6z
		 M109.9,166.3c-0.4-0.3-0.9-0.5-1.5-0.5c-0.6,0-1.1,0.2-1.6,0.5c-0.5,0.4-0.8,0.8-0.8,1.4h4.7C110.6,167.1,110.3,166.7,109.9,166.3
		z"/>
	<path d="M122.6,169.3v-5.7h3v10.6h-3v-1.4c-0.7,1-1.7,1.6-2.9,1.6c-1.2,0-2.1-0.4-2.9-1.1c-0.8-0.7-1.2-1.8-1.2-3.2v-6.4h3v5.8
		c0,1.6,0.6,2.4,1.8,2.4c0.6,0,1.1-0.2,1.5-0.6C122.4,170.7,122.6,170.1,122.6,169.3z"/>
	<path d="M134,166.1c-0.9,0-1.5,0.3-2,0.9c-0.4,0.6-0.7,1.4-0.7,2.5v4.6h-3v-10.6h3v1.4c0.4-0.4,0.9-0.8,1.4-1.1
		c0.6-0.3,1.2-0.5,1.7-0.5l0,2.8H134z"/>
	<path d="M151.9,160.4v2.7h-6.9v2.8h6.2v2.6h-6.2v2.9h7.1v2.7H142v-13.8H151.9z"/>
	<path d="M157.5,174.2h-3v-14.6h3v7.5l3.3-3.5h3.7l-4,4.3l4.2,6.3h-3.5l-2.7-4.1l-1,1V174.2z"/>
	<path d="M168.2,178.3c-1,0-2-0.4-2.9-1.3l1.3-2.2c0.5,0.5,1,0.7,1.5,0.7c0.3,0,0.5-0.1,0.7-0.4c0.2-0.3,0.3-0.6,0.3-0.9
		s-1.4-3.9-4.1-10.8h3.2l2.6,6.6l2.6-6.6h3.2l-4.9,12.5c-0.3,0.7-0.7,1.3-1.4,1.7S168.9,178.3,168.2,178.3z"/>
	<path d="M180.9,174.2h-3v-14.6h3V174.2z"/>
	<path d="M184,162.2c-0.3-0.3-0.5-0.7-0.5-1.2c0-0.5,0.2-0.9,0.5-1.2s0.7-0.5,1.2-0.5c0.5,0,0.9,0.2,1.2,0.5
		c0.3,0.3,0.5,0.7,0.5,1.2c0,0.5-0.2,0.9-0.5,1.2c-0.3,0.3-0.7,0.5-1.2,0.5C184.7,162.7,184.3,162.5,184,162.2z M186.7,174.2h-3
		v-10.6h3V174.2z"/>
	<path d="M195.6,163.4c1.3,0,2.4,0.5,3.4,1.5s1.4,2.3,1.4,3.9s-0.5,2.9-1.5,4c-1,1.1-2.1,1.6-3.4,1.6c-1.3,0-2.3-0.5-3.1-1.6v1.4h-3
		v-14.6h3v5.2C193.2,163.8,194.3,163.4,195.6,163.4z M192.4,168.9c0,0.9,0.2,1.6,0.7,2.1s1.1,0.8,1.7,0.8s1.3-0.3,1.8-0.8
		c0.5-0.5,0.8-1.2,0.8-2.1s-0.2-1.6-0.7-2.2c-0.5-0.6-1.1-0.9-1.8-0.9c-0.7,0-1.3,0.3-1.8,0.9S192.4,168,192.4,168.9z"/>
	<path d="M208.2,166.1c-0.9,0-1.5,0.3-2,0.9c-0.4,0.6-0.7,1.4-0.7,2.5v4.6h-3v-10.6h3v1.4c0.4-0.4,0.9-0.8,1.4-1.1
		c0.6-0.3,1.2-0.5,1.7-0.5l0,2.8H208.2z"/>
	<path d="M219.9,172.6c-1.2,1.1-2.6,1.7-4.2,1.7s-2.9-0.5-4-1.5c-1.1-1-1.6-2.3-1.6-4c0-1.7,0.5-3,1.6-4c1.1-1,2.3-1.5,3.8-1.5
		s2.7,0.4,3.7,1.3c1,0.9,1.5,2.1,1.5,3.6v1.6H213c0.1,0.6,0.4,1.1,0.9,1.4c0.5,0.4,1.1,0.6,1.7,0.6c1,0,1.9-0.3,2.6-1L219.9,172.6z
		 M217.1,166.3c-0.4-0.3-0.9-0.5-1.5-0.5c-0.6,0-1.1,0.2-1.6,0.5c-0.5,0.4-0.8,0.8-0.8,1.4h4.7C217.7,167.1,217.5,166.7,217.1,166.3
		z"/>
</g>
<path class="st1" d="M734.8,292.4H565.7c-5,0-9-4-9-9v-33.7c0-5,4-9,9-9h169.1c5,0,9,4,9,9v33.7
	C743.7,288.4,739.7,292.4,734.8,292.4z"/>
<g>
	<path d="M583.6,261.4v2.7h-6.4v3h6.1v2.7h-6.1v5.4h-3.1v-13.8H583.6z"/>
	<path d="M595.1,273.6c-1.2,1.1-2.6,1.7-4.2,1.7c-1.6,0-2.9-0.5-4-1.5c-1.1-1-1.6-2.3-1.6-4c0-1.7,0.5-3,1.6-4
		c1.1-1,2.3-1.5,3.8-1.5s2.7,0.4,3.7,1.3c1,0.9,1.5,2.1,1.5,3.6v1.6h-7.7c0.1,0.6,0.4,1.1,0.9,1.4c0.5,0.4,1.1,0.6,1.7,0.6
		c1,0,1.9-0.3,2.6-1L595.1,273.6z M592.2,267.3c-0.4-0.3-0.9-0.5-1.5-0.5c-0.6,0-1.1,0.2-1.6,0.5c-0.5,0.4-0.8,0.8-0.8,1.4h4.7
		C592.9,268.1,592.7,267.7,592.2,267.3z"/>
	<path d="M603.7,267.1c-0.9,0-1.5,0.3-2,0.9s-0.7,1.4-0.7,2.5v4.6h-3v-10.6h3v1.4c0.4-0.4,0.9-0.8,1.4-1.1c0.6-0.3,1.2-0.5,1.7-0.5
		l0,2.8H603.7z"/>
	<path d="M615.9,269.4v5.7h-3v-5.8c0-0.8-0.1-1.5-0.4-1.9c-0.3-0.4-0.7-0.6-1.2-0.6c-0.6,0-1.1,0.2-1.5,0.6
		c-0.4,0.4-0.7,1.1-0.7,1.9v5.7h-3v-10.6h3v1.2c0.8-0.9,1.7-1.4,2.8-1.4c0.7,0,1.3,0.2,1.8,0.6c0.5,0.4,1,0.9,1.2,1.4
		c0.4-0.6,1-1.1,1.6-1.5c0.7-0.4,1.4-0.5,2.1-0.5c1.2,0,2.3,0.4,3,1.1s1.1,1.8,1.1,3.2v6.5h-3v-5.8c0-1.6-0.6-2.4-1.8-2.4
		c-0.6,0-1.1,0.2-1.5,0.6C616.2,268,615.9,268.6,615.9,269.4z"/>
	<path d="M634.8,273.6c-1.2,1.1-2.6,1.7-4.2,1.7s-2.9-0.5-4-1.5c-1.1-1-1.6-2.3-1.6-4c0-1.7,0.5-3,1.6-4s2.3-1.5,3.8-1.5
		c1.5,0,2.7,0.4,3.7,1.3c1,0.9,1.5,2.1,1.5,3.6v1.6h-7.7c0.1,0.6,0.4,1.1,0.9,1.4c0.5,0.4,1.1,0.6,1.7,0.6c1,0,1.9-0.3,2.6-1
		L634.8,273.6z M631.9,267.3c-0.4-0.3-0.9-0.5-1.5-0.5s-1.1,0.2-1.6,0.5c-0.5,0.4-0.8,0.8-0.8,1.4h4.7
		C632.6,268.1,632.3,267.7,631.9,267.3z"/>
	<path d="M647.2,275.3c-1.3,0-2.4-0.5-3.4-1.6c-1-1.1-1.5-2.4-1.5-4s0.5-2.9,1.4-3.9s2.1-1.5,3.4-1.5c1.3,0,2.3,0.5,3.2,1.4v-5.2h3
		v14.6h-3v-1.4C649.5,274.8,648.5,275.3,647.2,275.3z M645.4,269.9c0,0.9,0.3,1.6,0.8,2.1c0.5,0.5,1.1,0.8,1.8,0.8s1.3-0.3,1.7-0.8
		s0.7-1.2,0.7-2.1s-0.2-1.6-0.7-2.2s-1.1-0.9-1.8-0.9s-1.3,0.3-1.8,0.9C645.6,268.3,645.4,269,645.4,269.9z"/>
	<path d="M665.3,273.6c-1.2,1.1-2.6,1.7-4.2,1.7c-1.6,0-2.9-0.5-4-1.5c-1.1-1-1.6-2.3-1.6-4c0-1.7,0.5-3,1.6-4
		c1.1-1,2.3-1.5,3.8-1.5s2.7,0.4,3.7,1.3s1.5,2.1,1.5,3.6v1.6h-7.7c0.1,0.6,0.4,1.1,0.9,1.4c0.5,0.4,1.1,0.6,1.7,0.6
		c1,0,1.9-0.3,2.6-1L665.3,273.6z M662.5,267.3c-0.4-0.3-0.9-0.5-1.5-0.5c-0.6,0-1.1,0.2-1.6,0.5c-0.5,0.4-0.8,0.8-0.8,1.4h4.7
		C663.1,268.1,662.9,267.7,662.5,267.3z"/>
	<path d="M673.8,261.4h3.1v5.7l5.2-5.7h3.8l-5.5,6.1c0.5,0.7,1.3,1.9,2.6,3.7c1.3,1.8,2.2,3.1,2.9,4h-3.6l-4-5.4l-1.4,1.5v3.9h-3.1
		V261.4z"/>
	<path d="M696.7,273.6c-1.2,1.1-2.6,1.7-4.2,1.7s-2.9-0.5-4-1.5c-1.1-1-1.6-2.3-1.6-4c0-1.7,0.5-3,1.6-4s2.3-1.5,3.8-1.5
		c1.5,0,2.7,0.4,3.7,1.3c1,0.9,1.5,2.1,1.5,3.6v1.6h-7.7c0.1,0.6,0.4,1.1,0.9,1.4c0.5,0.4,1.1,0.6,1.7,0.6c1,0,1.9-0.3,2.6-1
		L696.7,273.6z M693.9,267.3c-0.4-0.3-0.9-0.5-1.5-0.5s-1.1,0.2-1.6,0.5c-0.5,0.4-0.8,0.8-0.8,1.4h4.7
		C694.5,268.1,694.3,267.7,693.9,267.3z"/>
	<path d="M702.4,275.2l-4.2-10.6h3.1l2.6,6.7l2.6-6.7h3.1l-4.2,10.6H702.4z"/>
	<path d="M711.4,263.2c-0.3-0.3-0.5-0.7-0.5-1.2c0-0.5,0.2-0.9,0.5-1.2c0.3-0.3,0.7-0.5,1.2-0.5s0.9,0.2,1.2,0.5
		c0.3,0.3,0.5,0.7,0.5,1.2c0,0.5-0.2,0.9-0.5,1.2c-0.3,0.3-0.7,0.5-1.2,0.5S711.7,263.5,711.4,263.2z M714.1,275.2h-3v-10.6h3V275.2
		z"/>
	<path d="M719.8,269.2v5.9h-3v-10.6h3v1.2c0.9-0.9,1.9-1.4,3-1.4s2.1,0.4,2.8,1.2c0.8,0.8,1.1,1.8,1.1,3.2v6.5h-3v-6
		c0-1.6-0.6-2.4-1.8-2.4c-0.6,0-1.1,0.2-1.5,0.6C720,267.8,719.8,268.4,719.8,269.2z"/>
</g>
<g>
	<path d="M4.4,226.2h-3v-14.6h3v7.5l3.3-3.5h3.7l-4,4.3l4.2,6.3H8l-2.7-4.1l-1,1V226.2z"/>
	<path d="M22.3,224.6c-1.2,1.1-2.6,1.7-4.2,1.7s-2.9-0.5-4-1.5c-1.1-1-1.6-2.3-1.6-4c0-1.7,0.5-3,1.6-4c1.1-1,2.3-1.5,3.8-1.5
		s2.7,0.4,3.7,1.3c1,0.9,1.5,2.1,1.5,3.6v1.6h-7.7c0.1,0.6,0.4,1.1,0.9,1.4c0.5,0.4,1.1,0.6,1.7,0.6c1,0,1.9-0.3,2.6-1L22.3,224.6z
		 M19.5,218.3c-0.4-0.3-0.9-0.5-1.5-0.5c-0.6,0-1.1,0.2-1.6,0.5c-0.5,0.4-0.8,0.8-0.8,1.4h4.7C20.1,219.1,19.9,218.7,19.5,218.3z"/>
	<path d="M28,226.2l-4.2-10.6h3.1l2.6,6.7l2.6-6.7h3.1l-4.2,10.6H28z"/>
	<path d="M37,214.2c-0.3-0.3-0.5-0.7-0.5-1.2c0-0.5,0.2-0.9,0.5-1.2s0.7-0.5,1.2-0.5c0.5,0,0.9,0.2,1.2,0.5c0.3,0.3,0.5,0.7,0.5,1.2
		c0,0.5-0.2,0.9-0.5,1.2c-0.3,0.3-0.7,0.5-1.2,0.5C37.7,214.7,37.3,214.5,37,214.2z M39.7,226.2h-3v-10.6h3V226.2z"/>
	<path d="M45.4,220.2v5.9h-3v-10.6h3v1.2c0.9-0.9,1.9-1.4,3-1.4s2.1,0.4,2.8,1.2c0.8,0.8,1.1,1.8,1.1,3.2v6.5h-3v-6
		c0-1.6-0.6-2.4-1.8-2.4c-0.6,0-1.1,0.2-1.5,0.6C45.7,218.8,45.4,219.4,45.4,220.2z"/>
	<path d="M55,221.5v-2.6h7v2.6H55z"/>
	<path d="M69,226.3c-1.3,0-2.4-0.5-3.4-1.6c-1-1.1-1.5-2.4-1.5-4s0.5-2.9,1.4-3.9s2.1-1.5,3.4-1.5c1.3,0,2.3,0.5,3.2,1.4v-5.2h3
		v14.6h-3v-1.4C71.3,225.8,70.3,226.3,69,226.3z M67.1,220.9c0,0.9,0.3,1.6,0.8,2.1c0.5,0.5,1.1,0.8,1.8,0.8c0.7,0,1.3-0.3,1.7-0.8
		c0.5-0.5,0.7-1.2,0.7-2.1s-0.2-1.6-0.7-2.2c-0.5-0.6-1.1-0.9-1.8-0.9s-1.3,0.3-1.8,0.9C67.4,219.3,67.1,220,67.1,220.9z"/>
	<path d="M84.7,221.3v-5.7h3v10.6h-3v-1.4c-0.7,1-1.7,1.6-2.9,1.6c-1.2,0-2.1-0.4-2.9-1.1c-0.8-0.7-1.2-1.8-1.2-3.2v-6.4h3v5.8
		c0,1.6,0.6,2.4,1.8,2.4c0.6,0,1.1-0.2,1.5-0.6C84.5,222.7,84.7,222.1,84.7,221.3z"/>
	<path d="M96.1,218.1c-0.9,0-1.5,0.3-2,0.9c-0.4,0.6-0.7,1.4-0.7,2.5v4.6h-3v-10.6h3v1.4c0.4-0.4,0.9-0.8,1.4-1.1
		c0.6-0.3,1.2-0.5,1.7-0.5l0,2.8H96.1z"/>
	<path d="M107.5,226.2h-2.8v-1.3c-0.8,1-1.7,1.4-2.8,1.4c-1.1,0-2.1-0.3-2.8-1c-0.8-0.7-1.1-1.5-1.1-2.6c0-1.1,0.4-1.9,1.2-2.4
		c0.8-0.5,1.9-0.8,3.2-0.8h2.2v-0.1c0-1.1-0.6-1.7-1.8-1.7c-0.5,0-1.1,0.1-1.6,0.3c-0.6,0.2-1.1,0.5-1.4,0.8l-1.3-1.9
		c1.4-1,3-1.5,4.8-1.5c1.3,0,2.3,0.3,3.2,1c0.8,0.6,1.2,1.7,1.2,3.1V226.2z M104.6,222.1v-0.5h-1.9c-1.2,0-1.8,0.4-1.8,1.1
		c0,0.4,0.1,0.7,0.4,0.9c0.3,0.2,0.7,0.3,1.2,0.3s1-0.2,1.4-0.5C104.4,223.1,104.6,222.6,104.6,222.1z"/>
	<path d="M113.2,220.2v5.9h-3v-10.6h3v1.2c0.9-0.9,1.9-1.4,3-1.4s2.1,0.4,2.8,1.2c0.8,0.8,1.1,1.8,1.1,3.2v6.5h-3v-6
		c0-1.6-0.6-2.4-1.8-2.4c-0.6,0-1.1,0.2-1.5,0.6C113.4,218.8,113.2,219.4,113.2,220.2z"/>
	<path d="M126.2,217.7v4.8c0,0.4,0.1,0.7,0.3,1c0.2,0.2,0.5,0.3,0.8,0.3c0.6,0,1-0.2,1.4-0.8l1.1,2.1c-0.9,0.8-1.9,1.3-2.9,1.3
		s-1.9-0.3-2.6-1c-0.7-0.7-1.1-1.6-1.1-2.7v-4.9H122v-2.1h1.2v-3.2h3v3.2h2.6v2.1H126.2z"/>
	<path d="M143.5,223.7c0.4,0,0.7-0.3,0.9-0.8s0.4-1.3,0.4-2.1c0-1.9-0.5-3.4-1.6-4.6c-1.1-1.2-2.5-1.8-4.3-1.8
		c-1.8,0-3.3,0.6-4.5,1.9c-1.2,1.3-1.8,2.8-1.8,4.6c0,1.8,0.6,3.3,1.7,4.4s2.6,1.8,4.3,1.8c1.3,0,2.5-0.5,3.5-1.5l0.8,1.4
		c-0.5,0.5-1.2,0.8-2,1.1c-0.8,0.3-1.6,0.4-2.3,0.4c-2.2,0-4-0.7-5.5-2.2s-2.2-3.3-2.2-5.5c0-2.2,0.8-4.1,2.3-5.6
		c1.6-1.6,3.4-2.3,5.6-2.3c2.2,0,4,0.8,5.5,2.2s2.2,3.4,2.2,5.6c0,1.4-0.3,2.6-0.9,3.5c-0.6,0.9-1.4,1.3-2.4,1.3
		c-0.5,0-1-0.2-1.4-0.5s-0.7-0.7-0.9-1.1c-0.7,0.9-1.6,1.4-2.8,1.4s-2.1-0.4-2.9-1.3c-0.8-0.8-1.2-1.9-1.2-3.2
		c0-1.3,0.4-2.4,1.1-3.3s1.7-1.3,2.9-1.3c0.4,0,0.8,0.1,1.2,0.3s0.6,0.4,0.8,0.5l0.3,0.3v-0.8h2.5v6.3
		C142.9,223.4,143.1,223.7,143.5,223.7z M140.5,220.8c0-0.7-0.2-1.2-0.5-1.6c-0.3-0.4-0.8-0.7-1.4-0.7s-1,0.2-1.4,0.7
		c-0.3,0.4-0.5,1-0.5,1.6s0.2,1.2,0.5,1.7c0.3,0.5,0.8,0.7,1.4,0.7c0.6,0,1-0.2,1.4-0.7C140.3,222,140.5,221.4,140.5,220.8z"/>
	<path d="M156.8,224.4c-0.9,1-2.1,1.6-3.5,1.6s-2.6-0.5-3.5-1.4c-1-0.9-1.4-2.2-1.4-3.8s0.5-2.9,1.5-3.9s2.1-1.5,3.4-1.5
		s2.3,0.5,3.1,1.6v-1.4h3v9.3c0,0.9-0.2,1.8-0.5,2.5c-0.3,0.7-0.8,1.3-1.3,1.7c-1.1,0.9-2.4,1.3-3.9,1.3c-0.8,0-1.6-0.1-2.4-0.4
		c-0.8-0.3-1.5-0.6-2.2-1.1l1.1-2.2c1,0.7,2,1.1,3.1,1.1s1.9-0.3,2.6-0.8C156.5,226.4,156.8,225.5,156.8,224.4z M156.4,220.6
		c0-0.8-0.2-1.5-0.7-2c-0.5-0.5-1.1-0.7-1.8-0.7s-1.3,0.2-1.8,0.7c-0.5,0.5-0.8,1.2-0.8,2c0,0.8,0.2,1.5,0.7,2s1.1,0.8,1.8,0.8
		s1.3-0.3,1.8-0.8C156.1,222.1,156.4,221.5,156.4,220.6z"/>
	<path d="M171.8,220.4v5.7h-3v-5.8c0-0.8-0.1-1.5-0.4-1.9c-0.3-0.4-0.7-0.6-1.2-0.6s-1.1,0.2-1.5,0.6c-0.4,0.4-0.7,1.1-0.7,1.9v5.7
		h-3v-10.6h3v1.2c0.8-0.9,1.7-1.4,2.8-1.4c0.7,0,1.3,0.2,1.8,0.6s1,0.9,1.2,1.4c0.4-0.6,1-1.1,1.6-1.5c0.7-0.4,1.4-0.5,2.1-0.5
		c1.2,0,2.3,0.4,3,1.1c0.8,0.7,1.1,1.8,1.1,3.2v6.5h-3v-5.8c0-1.6-0.6-2.4-1.8-2.4c-0.6,0-1.1,0.2-1.5,0.6
		C172.1,219,171.8,219.6,171.8,220.4z"/>
	<path d="M190.5,226.2h-2.8v-1.3c-0.8,1-1.7,1.4-2.8,1.4c-1.1,0-2.1-0.3-2.8-1c-0.8-0.7-1.1-1.5-1.1-2.6c0-1.1,0.4-1.9,1.2-2.4
		s1.9-0.8,3.2-0.8h2.2v-0.1c0-1.1-0.6-1.7-1.8-1.7c-0.5,0-1.1,0.1-1.6,0.3c-0.6,0.2-1.1,0.5-1.5,0.8l-1.3-1.9c1.4-1,3-1.5,4.8-1.5
		c1.3,0,2.3,0.3,3.2,1c0.8,0.6,1.2,1.7,1.2,3.1V226.2z M187.5,222.1v-0.5h-1.9c-1.2,0-1.8,0.4-1.8,1.1c0,0.4,0.1,0.7,0.4,0.9
		c0.3,0.2,0.7,0.3,1.2,0.3c0.5,0,1-0.2,1.4-0.5C187.3,223.1,187.5,222.6,187.5,222.1z"/>
	<path d="M193.4,214.2c-0.3-0.3-0.5-0.7-0.5-1.2c0-0.5,0.2-0.9,0.5-1.2c0.3-0.3,0.7-0.5,1.2-0.5s0.9,0.2,1.2,0.5
		c0.3,0.3,0.5,0.7,0.5,1.2c0,0.5-0.2,0.9-0.5,1.2c-0.3,0.3-0.7,0.5-1.2,0.5S193.8,214.5,193.4,214.2z M196.2,226.2h-3v-10.6h3V226.2
		z"/>
	<path d="M201.9,226.2h-3v-14.6h3V226.2z"/>
	<path d="M204.9,225.8c-0.3-0.3-0.5-0.7-0.5-1.2s0.2-0.9,0.5-1.2c0.3-0.3,0.7-0.5,1.2-0.5c0.5,0,0.9,0.2,1.2,0.5
		c0.3,0.3,0.5,0.7,0.5,1.2s-0.2,0.9-0.5,1.2c-0.3,0.3-0.7,0.5-1.2,0.5C205.7,226.3,205.3,226.1,204.9,225.8z"/>
	<path d="M215.5,223.7c1,0,1.9-0.5,2.7-1.5l1.8,2c-1.4,1.4-2.8,2.1-4.4,2.1s-2.9-0.5-4-1.5c-1.1-1-1.6-2.3-1.6-3.9s0.6-2.9,1.7-4
		c1.1-1,2.4-1.5,4-1.5c0.8,0,1.5,0.2,2.3,0.5c0.8,0.3,1.5,0.8,2.1,1.4l-1.5,2c-0.3-0.4-0.8-0.7-1.3-0.9s-1-0.3-1.5-0.3
		c-0.8,0-1.4,0.3-2,0.8c-0.6,0.5-0.8,1.2-0.8,2.1c0,0.9,0.3,1.6,0.8,2.1C214.1,223.4,214.7,223.7,215.5,223.7z"/>
	<path d="M232.3,220.8c0,1.5-0.5,2.8-1.6,3.9c-1.1,1.1-2.4,1.6-4,1.6c-1.6,0-2.9-0.5-4-1.6s-1.6-2.3-1.6-3.9c0-1.5,0.5-2.8,1.6-3.9
		c1.1-1.1,2.4-1.6,4-1.6c1.6,0,2.9,0.5,4,1.6C231.8,218,232.3,219.3,232.3,220.8z M224.1,220.8c0,0.9,0.2,1.6,0.7,2.1
		s1.1,0.8,1.9,0.8c0.8,0,1.4-0.3,1.9-0.8s0.7-1.3,0.7-2.1c0-0.9-0.2-1.6-0.7-2.1c-0.5-0.6-1.1-0.8-1.9-0.8c-0.8,0-1.4,0.3-1.9,0.8
		C224.3,219.3,224.1,220,224.1,220.8z"/>
	<path d="M244.3,220.4v5.7h-3v-5.8c0-0.8-0.1-1.5-0.4-1.9c-0.3-0.4-0.7-0.6-1.2-0.6s-1.1,0.2-1.5,0.6c-0.4,0.4-0.7,1.1-0.7,1.9v5.7
		h-3v-10.6h3v1.2c0.8-0.9,1.7-1.4,2.8-1.4c0.7,0,1.3,0.2,1.8,0.6s1,0.9,1.2,1.4c0.4-0.6,1-1.1,1.6-1.5c0.7-0.4,1.4-0.5,2.1-0.5
		c1.2,0,2.3,0.4,3,1.1c0.8,0.7,1.1,1.8,1.1,3.2v6.5h-3v-5.8c0-1.6-0.6-2.4-1.8-2.4c-0.6,0-1.1,0.2-1.5,0.6
		C244.5,219,244.3,219.6,244.3,220.4z"/>
</g>
<g>
	<path d="M16.3,252.4v5.7h-3v-5.8c0-0.8-0.1-1.5-0.4-1.9c-0.3-0.4-0.7-0.6-1.2-0.6c-0.6,0-1.1,0.2-1.5,0.6c-0.4,0.4-0.7,1.1-0.7,1.9
		v5.7h-3v-10.6h3v1.2c0.8-0.9,1.7-1.4,2.8-1.4c0.7,0,1.3,0.2,1.8,0.6c0.5,0.4,1,0.9,1.2,1.4c0.4-0.6,1-1.1,1.6-1.5
		c0.7-0.4,1.4-0.5,2.1-0.5c1.2,0,2.3,0.4,3,1.1s1.1,1.8,1.1,3.2v6.5h-3v-5.8c0-1.6-0.6-2.4-1.8-2.4c-0.6,0-1.1,0.2-1.5,0.6
		C16.5,251,16.3,251.6,16.3,252.4z"/>
	<path d="M36.5,252.8c0,1.5-0.5,2.8-1.6,3.9c-1.1,1.1-2.4,1.6-4,1.6c-1.6,0-2.9-0.5-4-1.6s-1.6-2.3-1.6-3.9c0-1.5,0.5-2.8,1.6-3.9
		c1.1-1.1,2.4-1.6,4-1.6c1.6,0,2.9,0.5,4,1.6C36,250,36.5,251.3,36.5,252.8z M28.3,252.8c0,0.9,0.2,1.6,0.7,2.1s1.1,0.8,1.9,0.8
		c0.8,0,1.4-0.3,1.9-0.8s0.7-1.3,0.7-2.1c0-0.9-0.2-1.6-0.7-2.1c-0.5-0.6-1.1-0.8-1.9-0.8c-0.8,0-1.4,0.3-1.9,0.8
		C28.5,251.3,28.3,252,28.3,252.8z"/>
	<path d="M42,249.7v4.8c0,0.4,0.1,0.7,0.3,1c0.2,0.2,0.5,0.3,0.7,0.3c0.6,0,1-0.2,1.4-0.8l1.1,2.1c-0.9,0.8-1.9,1.3-2.9,1.3
		s-1.9-0.3-2.6-1c-0.7-0.7-1.1-1.6-1.1-2.7v-4.9h-1.2v-2.1h1.2v-3.2h3v3.2h2.6v2.1H42z"/>
	<path d="M47.1,253.5v-2.6h7v2.6H47.1z"/>
	<path d="M61.1,258.3c-1.3,0-2.4-0.5-3.4-1.6c-1-1.1-1.5-2.4-1.5-4s0.5-2.9,1.4-3.9s2.1-1.5,3.4-1.5c1.3,0,2.3,0.5,3.2,1.4v-5.2h3
		v14.6h-3v-1.4C63.4,257.8,62.4,258.3,61.1,258.3z M59.2,252.9c0,0.9,0.3,1.6,0.8,2.1c0.5,0.5,1.1,0.8,1.8,0.8
		c0.7,0,1.3-0.3,1.7-0.8c0.5-0.5,0.7-1.2,0.7-2.1s-0.2-1.6-0.7-2.2c-0.5-0.6-1.1-0.9-1.8-0.9s-1.3,0.3-1.8,0.9
		C59.5,251.3,59.2,252,59.2,252.9z"/>
	<path d="M79.2,256.6c-1.2,1.1-2.6,1.7-4.2,1.7s-2.9-0.5-4-1.5c-1.1-1-1.6-2.3-1.6-4c0-1.7,0.5-3,1.6-4c1.1-1,2.3-1.5,3.8-1.5
		s2.7,0.4,3.7,1.3c1,0.9,1.5,2.1,1.5,3.6v1.6h-7.7c0.1,0.6,0.4,1.1,0.9,1.4c0.5,0.4,1.1,0.6,1.7,0.6c1,0,1.9-0.3,2.6-1L79.2,256.6z
		 M76.3,250.3c-0.4-0.3-0.9-0.5-1.5-0.5c-0.6,0-1.1,0.2-1.6,0.5c-0.5,0.4-0.8,0.8-0.8,1.4H77C77,251.1,76.7,250.7,76.3,250.3z"/>
	<path d="M82.1,253.5v-2.6h7v2.6H82.1z"/>
	<path d="M98,247.4c1.2,0,2.3,0.5,3.3,1.5c1,1,1.4,2.3,1.4,3.9c0,1.6-0.5,2.9-1.4,3.9c-1,1.1-2.1,1.6-3.4,1.6
		c-1.3,0-2.3-0.5-3.1-1.6v5.2h-3v-14.4h3v1.2C95.7,247.8,96.8,247.4,98,247.4z M94.8,252.9c0,0.9,0.2,1.6,0.7,2.1s1.1,0.8,1.7,0.8
		s1.3-0.3,1.8-0.8c0.5-0.5,0.8-1.2,0.8-2.1s-0.2-1.6-0.7-2.2c-0.5-0.6-1.1-0.9-1.8-0.9c-0.7,0-1.3,0.3-1.8,0.9S94.8,252,94.8,252.9z
		"/>
	<path d="M114,258.2h-2.8v-1.3c-0.8,1-1.7,1.4-2.8,1.4c-1.1,0-2.1-0.3-2.8-1c-0.8-0.7-1.1-1.5-1.1-2.6c0-1.1,0.4-1.9,1.2-2.4
		c0.8-0.5,1.9-0.8,3.2-0.8h2.2v-0.1c0-1.1-0.6-1.7-1.8-1.7c-0.5,0-1.1,0.1-1.6,0.3c-0.6,0.2-1.1,0.5-1.4,0.8l-1.3-1.9
		c1.4-1,3-1.5,4.8-1.5c1.3,0,2.3,0.3,3.2,1c0.8,0.6,1.2,1.7,1.2,3.1V258.2z M111,254.1v-0.5h-1.9c-1.2,0-1.8,0.4-1.8,1.1
		c0,0.4,0.1,0.7,0.4,0.9c0.3,0.2,0.7,0.3,1.2,0.3s1-0.2,1.4-0.5C110.8,255.1,111,254.6,111,254.1z"/>
	<path d="M124.7,254.8c0,1-0.4,1.9-1.2,2.5c-0.8,0.6-1.7,0.9-2.9,0.9c-0.8,0-1.6-0.1-2.5-0.4c-0.9-0.3-1.6-0.7-2.3-1.3l1.3-1.9
		c1.1,0.9,2.3,1.3,3.5,1.3c0.4,0,0.7-0.1,0.9-0.2s0.3-0.4,0.3-0.6s-0.2-0.5-0.5-0.7c-0.3-0.2-0.8-0.4-1.3-0.6
		c-0.6-0.2-1-0.3-1.3-0.5c-0.3-0.1-0.7-0.3-1.1-0.6c-0.8-0.5-1.2-1.2-1.2-2.2s0.4-1.8,1.2-2.4s1.8-0.9,3.1-0.9
		c1.2,0,2.5,0.4,3.7,1.3l-1.1,2c-0.9-0.6-1.8-0.9-2.8-0.9s-1.4,0.2-1.4,0.7c0,0.3,0.1,0.5,0.4,0.7c0.3,0.2,0.8,0.3,1.4,0.6
		c0.7,0.2,1.1,0.4,1.4,0.5c0.3,0.1,0.6,0.3,1,0.5C124.3,253.1,124.7,253.8,124.7,254.8z"/>
	<path d="M134.9,254.8c0,1-0.4,1.9-1.2,2.5c-0.8,0.6-1.7,0.9-2.9,0.9c-0.8,0-1.6-0.1-2.5-0.4c-0.9-0.3-1.6-0.7-2.3-1.3l1.3-1.9
		c1.1,0.9,2.3,1.3,3.5,1.3c0.4,0,0.7-0.1,0.9-0.2s0.3-0.4,0.3-0.6s-0.2-0.5-0.5-0.7c-0.3-0.2-0.8-0.4-1.3-0.6
		c-0.6-0.2-1-0.3-1.3-0.5c-0.3-0.1-0.7-0.3-1.1-0.6c-0.8-0.5-1.2-1.2-1.2-2.2s0.4-1.8,1.2-2.4s1.8-0.9,3.1-0.9
		c1.2,0,2.5,0.4,3.7,1.3l-1.1,2c-0.9-0.6-1.8-0.9-2.8-0.9s-1.4,0.2-1.4,0.7c0,0.3,0.1,0.5,0.4,0.7c0.3,0.2,0.8,0.3,1.4,0.6
		c0.7,0.2,1.1,0.4,1.4,0.5c0.3,0.1,0.6,0.3,1,0.5C134.6,253.1,134.9,253.8,134.9,254.8z"/>
	<path d="M146.4,256.6c-1.2,1.1-2.6,1.7-4.2,1.7s-2.9-0.5-4-1.5c-1.1-1-1.6-2.3-1.6-4c0-1.7,0.5-3,1.6-4c1.1-1,2.3-1.5,3.8-1.5
		s2.7,0.4,3.7,1.3c1,0.9,1.5,2.1,1.5,3.6v1.6h-7.7c0.1,0.6,0.4,1.1,0.9,1.4c0.5,0.4,1.1,0.6,1.7,0.6c1,0,1.9-0.3,2.6-1L146.4,256.6z
		 M143.6,250.3c-0.4-0.3-0.9-0.5-1.5-0.5c-0.6,0-1.1,0.2-1.6,0.5c-0.5,0.4-0.8,0.8-0.8,1.4h4.7C144.2,251.1,144,250.7,143.6,250.3z"
		/>
	<path d="M155,252.6c-0.3-0.3-0.5-0.7-0.5-1.2s0.2-0.9,0.5-1.2c0.3-0.3,0.7-0.5,1.2-0.5c0.5,0,0.9,0.2,1.2,0.5
		c0.3,0.3,0.5,0.7,0.5,1.2s-0.2,0.9-0.5,1.2c-0.3,0.3-0.7,0.5-1.2,0.5C155.8,253.1,155.4,253,155,252.6z M155,257.8
		c-0.3-0.3-0.5-0.7-0.5-1.2s0.2-0.9,0.5-1.2c0.3-0.3,0.7-0.5,1.2-0.5c0.5,0,0.9,0.2,1.2,0.5c0.3,0.3,0.5,0.7,0.5,1.2
		s-0.2,0.9-0.5,1.2c-0.3,0.3-0.7,0.5-1.2,0.5C155.8,258.3,155.4,258.1,155,257.8z"/>
	<path d="M176,258.2l-1.3-3H169l-1.3,3h-3.3l6-13.8h3l6,13.8H176z M171.9,248.5l-1.7,4h3.5L171.9,248.5z"/>
	<path d="M187,258.2h-6v-13.8h5.4c0.9,0,1.7,0.1,2.4,0.3c0.7,0.2,1.2,0.5,1.5,0.9c0.6,0.7,0.9,1.5,0.9,2.4c0,1.1-0.3,1.9-1,2.4
		c-0.2,0.2-0.4,0.3-0.5,0.3c-0.1,0-0.3,0.1-0.5,0.2c0.9,0.2,1.5,0.6,2,1.2s0.8,1.3,0.8,2.2c0,1-0.3,1.8-1,2.5
		C190.2,257.7,188.8,258.2,187,258.2z M184,249.9h1.5c0.9,0,1.5-0.1,1.9-0.3c0.4-0.2,0.6-0.6,0.6-1.2s-0.2-1-0.6-1.2
		c-0.4-0.2-1-0.3-1.9-0.3H184V249.9z M184,255.5h2.1c0.9,0,1.5-0.1,2-0.3c0.4-0.2,0.7-0.6,0.7-1.3s-0.2-1.1-0.7-1.3
		c-0.5-0.2-1.2-0.3-2.2-0.3H184V255.5z"/>
	<path d="M200.8,255.4c1.5,0,2.7-0.6,3.7-1.8l2,2c-1.6,1.8-3.4,2.6-5.5,2.6s-3.9-0.7-5.2-2c-1.4-1.3-2.1-3-2.1-5.1
		c0-2,0.7-3.8,2.1-5.1s3.1-2.1,5.1-2.1c2.3,0,4.2,0.9,5.7,2.6l-1.9,2.2c-1-1.2-2.2-1.8-3.6-1.8c-1.2,0-2.1,0.4-3,1.1
		c-0.8,0.8-1.2,1.8-1.2,3.1s0.4,2.3,1.2,3.1C198.8,255,199.7,255.4,200.8,255.4z"/>
	<path d="M219.5,246.2c1.3,1.2,2,2.9,2,5s-0.6,3.8-1.9,5.1c-1.3,1.2-3.2,1.9-5.9,1.9h-4.7v-13.8h4.9
		C216.3,244.4,218.2,245,219.5,246.2z M217.2,254.4c0.8-0.7,1.1-1.7,1.1-3.1s-0.4-2.4-1.1-3.1c-0.8-0.7-1.9-1.1-3.5-1.1H212v8.4h2
		C215.4,255.4,216.5,255.1,217.2,254.4z"/>
	<path d="M234.1,244.4v2.7h-6.9v2.8h6.2v2.6h-6.2v2.9h7.1v2.7h-10.2v-13.8H234.1z"/>
	<path d="M246.5,244.4v2.7h-6.4v3h6.1v2.7h-6.1v5.4H237v-13.8H246.5z"/>
</g>
<g>
	<path d="M238,509.5h-3v-14.6h3v7.5l3.3-3.5h3.7l-4,4.3l4.2,6.3h-3.5l-2.7-4.1l-1,1V509.5z"/>
	<path d="M256,507.9c-1.2,1.1-2.6,1.7-4.2,1.7c-1.6,0-2.9-0.5-4-1.5c-1.1-1-1.6-2.3-1.6-4c0-1.7,0.5-3,1.6-4c1.1-1,2.3-1.5,3.8-1.5
		c1.5,0,2.7,0.4,3.7,1.3c1,0.9,1.5,2.1,1.5,3.6v1.6h-7.7c0.1,0.6,0.4,1.1,0.9,1.4c0.5,0.4,1.1,0.6,1.7,0.6c1,0,1.9-0.3,2.6-1
		L256,507.9z M253.2,501.7c-0.4-0.3-0.9-0.5-1.5-0.5s-1.1,0.2-1.6,0.5c-0.5,0.4-0.8,0.8-0.8,1.4h4.7
		C253.8,502.5,253.6,502,253.2,501.7z"/>
	<path d="M261.7,509.5l-4.2-10.6h3.1l2.6,6.7l2.6-6.7h3.1l-4.2,10.6H261.7z"/>
	<path d="M270.7,497.5c-0.3-0.3-0.5-0.7-0.5-1.2c0-0.5,0.2-0.9,0.5-1.2c0.3-0.3,0.7-0.5,1.2-0.5c0.5,0,0.9,0.2,1.2,0.5
		s0.5,0.7,0.5,1.2c0,0.5-0.2,0.9-0.5,1.2c-0.3,0.3-0.7,0.5-1.2,0.5C271.4,498,271,497.9,270.7,497.5z M273.4,509.5h-3v-10.6h3V509.5
		z"/>
	<path d="M279.1,503.6v5.9h-3v-10.6h3v1.2c0.9-0.9,1.9-1.4,3-1.4c1.1,0,2.1,0.4,2.8,1.2c0.8,0.8,1.1,1.8,1.1,3.2v6.5h-3v-6
		c0-1.6-0.6-2.4-1.8-2.4c-0.6,0-1.1,0.2-1.5,0.6C279.4,502.1,279.1,502.7,279.1,503.6z"/>
	<path d="M288.7,504.9v-2.6h7v2.6H288.7z"/>
	<path d="M302.7,509.6c-1.3,0-2.4-0.5-3.4-1.6c-1-1.1-1.5-2.4-1.5-4s0.5-2.9,1.4-3.9s2.1-1.5,3.4-1.5s2.3,0.5,3.2,1.4v-5.2h3v14.6
		h-3v-1.4C305,509.1,303.9,509.6,302.7,509.6z M300.8,504.2c0,0.9,0.3,1.6,0.8,2.1c0.5,0.5,1.1,0.8,1.8,0.8c0.7,0,1.3-0.3,1.7-0.8
		s0.7-1.2,0.7-2.1s-0.2-1.6-0.7-2.2s-1.1-0.9-1.8-0.9c-0.7,0-1.3,0.3-1.8,0.9C301.1,502.6,300.8,503.3,300.8,504.2z"/>
	<path d="M318.4,504.6v-5.7h3v10.6h-3v-1.4c-0.7,1-1.7,1.6-2.9,1.6s-2.1-0.4-2.9-1.1c-0.8-0.7-1.2-1.8-1.2-3.2v-6.4h3v5.8
		c0,1.6,0.6,2.4,1.8,2.4c0.6,0,1.1-0.2,1.5-0.6C318.2,506,318.4,505.4,318.4,504.6z"/>
	<path d="M329.8,501.5c-0.9,0-1.5,0.3-2,0.9s-0.7,1.4-0.7,2.5v4.6h-3v-10.6h3v1.4c0.4-0.4,0.9-0.8,1.4-1.1c0.6-0.3,1.2-0.5,1.7-0.5
		l0,2.8H329.8z"/>
	<path d="M341.2,509.5h-2.8v-1.3c-0.8,1-1.7,1.4-2.8,1.4c-1.1,0-2.1-0.3-2.8-1c-0.8-0.7-1.1-1.5-1.1-2.6c0-1.1,0.4-1.9,1.2-2.4
		c0.8-0.5,1.9-0.8,3.2-0.8h2.2v-0.1c0-1.1-0.6-1.7-1.8-1.7c-0.5,0-1.1,0.1-1.6,0.3c-0.6,0.2-1.1,0.5-1.5,0.8l-1.3-1.9
		c1.4-1,3-1.5,4.8-1.5c1.3,0,2.3,0.3,3.2,1c0.8,0.6,1.2,1.7,1.2,3.1V509.5z M338.2,505.4v-0.5h-1.9c-1.2,0-1.8,0.4-1.8,1.1
		c0,0.4,0.1,0.7,0.4,0.9c0.3,0.2,0.7,0.3,1.2,0.3c0.5,0,1-0.2,1.4-0.5C338,506.4,338.2,506,338.2,505.4z"/>
	<path d="M346.9,503.6v5.9h-3v-10.6h3v1.2c0.9-0.9,1.9-1.4,3-1.4c1.1,0,2.1,0.4,2.8,1.2c0.8,0.8,1.1,1.8,1.1,3.2v6.5h-3v-6
		c0-1.6-0.6-2.4-1.8-2.4c-0.6,0-1.1,0.2-1.5,0.6C347.1,502.1,346.9,502.7,346.9,503.6z"/>
	<path d="M359.9,501v4.8c0,0.4,0.1,0.7,0.3,1c0.2,0.2,0.5,0.3,0.8,0.3c0.6,0,1-0.2,1.4-0.8l1.1,2.1c-0.9,0.8-1.9,1.3-2.9,1.3
		c-1,0-1.9-0.3-2.6-1c-0.7-0.7-1.1-1.6-1.1-2.7V501h-1.2v-2.1h1.2v-3.2h3v3.2h2.6v2.1H359.9z"/>
	<path d="M377.2,507.1c0.4,0,0.7-0.3,0.9-0.8s0.4-1.3,0.4-2.1c0-1.9-0.5-3.4-1.6-4.6c-1.1-1.2-2.5-1.8-4.3-1.8s-3.3,0.6-4.5,1.9
		c-1.2,1.3-1.8,2.8-1.8,4.6c0,1.8,0.6,3.3,1.7,4.4c1.2,1.2,2.6,1.8,4.3,1.8c1.3,0,2.5-0.5,3.5-1.5l0.8,1.4c-0.5,0.5-1.2,0.8-2,1.1
		c-0.8,0.3-1.6,0.4-2.3,0.4c-2.2,0-4-0.7-5.5-2.2s-2.2-3.3-2.2-5.5c0-2.2,0.8-4.1,2.3-5.6c1.6-1.6,3.4-2.3,5.6-2.3s4,0.8,5.5,2.2
		s2.2,3.4,2.2,5.6c0,1.4-0.3,2.6-0.9,3.5c-0.6,0.9-1.4,1.3-2.4,1.3c-0.5,0-1-0.2-1.4-0.5s-0.7-0.7-0.9-1.1c-0.7,0.9-1.6,1.4-2.8,1.4
		c-1.1,0-2.1-0.4-2.9-1.3c-0.8-0.8-1.2-1.9-1.2-3.2c0-1.3,0.4-2.4,1.1-3.3s1.7-1.3,2.9-1.3c0.4,0,0.8,0.1,1.2,0.3s0.6,0.4,0.8,0.5
		l0.3,0.3v-0.8h2.5v6.3C376.6,506.7,376.8,507.1,377.2,507.1z M374.2,504.1c0-0.7-0.2-1.2-0.5-1.6c-0.3-0.4-0.8-0.7-1.4-0.7
		s-1,0.2-1.4,0.7c-0.3,0.4-0.5,1-0.5,1.6s0.2,1.2,0.5,1.7c0.3,0.5,0.8,0.7,1.4,0.7c0.6,0,1-0.2,1.4-0.7
		C374,505.3,374.2,504.8,374.2,504.1z"/>
	<path d="M390.5,507.7c-0.9,1-2.1,1.6-3.5,1.6c-1.4,0-2.6-0.5-3.5-1.4c-1-0.9-1.4-2.2-1.4-3.8s0.5-2.9,1.5-3.9s2.1-1.5,3.4-1.5
		c1.3,0,2.3,0.5,3.1,1.6v-1.4h3v9.3c0,0.9-0.2,1.8-0.5,2.5c-0.3,0.7-0.8,1.3-1.3,1.7c-1.1,0.9-2.4,1.3-3.9,1.3
		c-0.8,0-1.6-0.1-2.4-0.4c-0.8-0.3-1.5-0.6-2.2-1.1l1.1-2.2c1,0.7,2,1.1,3.1,1.1s1.9-0.3,2.6-0.8
		C390.2,509.7,390.5,508.9,390.5,507.7z M390.1,504c0-0.8-0.2-1.5-0.7-2c-0.5-0.5-1.1-0.7-1.8-0.7c-0.7,0-1.3,0.2-1.8,0.7
		c-0.5,0.5-0.8,1.2-0.8,2c0,0.8,0.2,1.5,0.7,2c0.5,0.5,1.1,0.8,1.8,0.8c0.7,0,1.3-0.3,1.8-0.8C389.8,505.5,390.1,504.8,390.1,504z"
		/>
	<path d="M405.5,503.8v5.7h-3v-5.8c0-0.8-0.1-1.5-0.4-1.9s-0.7-0.6-1.2-0.6c-0.6,0-1.1,0.2-1.5,0.6c-0.4,0.4-0.7,1.1-0.7,1.9v5.7h-3
		v-10.6h3v1.2c0.8-0.9,1.7-1.4,2.8-1.4c0.7,0,1.3,0.2,1.8,0.6s1,0.9,1.2,1.4c0.4-0.6,1-1.1,1.6-1.5c0.7-0.4,1.4-0.5,2.1-0.5
		c1.2,0,2.3,0.4,3,1.1s1.1,1.8,1.1,3.2v6.5h-3v-5.8c0-1.6-0.6-2.4-1.8-2.4c-0.6,0-1.1,0.2-1.5,0.6
		C405.7,502.3,405.5,502.9,405.5,503.8z"/>
	<path d="M424.2,509.5h-2.8v-1.3c-0.8,1-1.7,1.4-2.8,1.4c-1.1,0-2.1-0.3-2.8-1c-0.8-0.7-1.1-1.5-1.1-2.6c0-1.1,0.4-1.9,1.2-2.4
		c0.8-0.5,1.9-0.8,3.2-0.8h2.2v-0.1c0-1.1-0.6-1.7-1.8-1.7c-0.5,0-1.1,0.1-1.6,0.3c-0.6,0.2-1.1,0.5-1.5,0.8l-1.3-1.9
		c1.4-1,3-1.5,4.8-1.5c1.3,0,2.3,0.3,3.2,1c0.8,0.6,1.2,1.7,1.2,3.1V509.5z M421.2,505.4v-0.5h-1.9c-1.2,0-1.8,0.4-1.8,1.1
		c0,0.4,0.1,0.7,0.4,0.9c0.3,0.2,0.7,0.3,1.2,0.3c0.5,0,1-0.2,1.4-0.5C421,506.4,421.2,506,421.2,505.4z"/>
	<path d="M427.1,497.5c-0.3-0.3-0.5-0.7-0.5-1.2c0-0.5,0.2-0.9,0.5-1.2c0.3-0.3,0.7-0.5,1.2-0.5s0.9,0.2,1.2,0.5
		c0.3,0.3,0.5,0.7,0.5,1.2c0,0.5-0.2,0.9-0.5,1.2c-0.3,0.3-0.7,0.5-1.2,0.5S427.5,497.9,427.1,497.5z M429.8,509.5h-3v-10.6h3V509.5
		z"/>
	<path d="M435.6,509.5h-3v-14.6h3V509.5z"/>
	<path d="M438.6,509.1c-0.3-0.3-0.5-0.7-0.5-1.2s0.2-0.9,0.5-1.2c0.3-0.3,0.7-0.5,1.2-0.5s0.9,0.2,1.2,0.5c0.3,0.3,0.5,0.7,0.5,1.2
		s-0.2,0.9-0.5,1.2c-0.3,0.3-0.7,0.5-1.2,0.5S439,509.5,438.6,509.1z"/>
	<path d="M449.2,507c1,0,1.9-0.5,2.7-1.5l1.8,2c-1.4,1.4-2.8,2.1-4.4,2.1c-1.6,0-2.9-0.5-4-1.5c-1.1-1-1.6-2.3-1.6-3.9
		s0.6-2.9,1.7-4c1.1-1,2.4-1.5,4-1.5c0.8,0,1.5,0.2,2.3,0.5c0.8,0.3,1.5,0.8,2.1,1.4l-1.5,2c-0.3-0.4-0.8-0.7-1.3-0.9
		s-1-0.3-1.5-0.3c-0.8,0-1.4,0.3-2,0.8c-0.6,0.5-0.8,1.2-0.8,2.1c0,0.9,0.3,1.6,0.8,2.1S448.4,507,449.2,507z"/>
	<path d="M466,504.2c0,1.5-0.5,2.8-1.6,3.9s-2.4,1.6-4,1.6c-1.6,0-2.9-0.5-4-1.6c-1.1-1.1-1.6-2.3-1.6-3.9c0-1.5,0.5-2.8,1.6-3.9
		c1.1-1.1,2.4-1.6,4-1.6c1.6,0,2.9,0.5,4,1.6C465.5,501.3,466,502.6,466,504.2z M457.8,504.2c0,0.9,0.2,1.6,0.7,2.1s1.1,0.8,1.9,0.8
		c0.8,0,1.4-0.3,1.9-0.8s0.7-1.3,0.7-2.1c0-0.9-0.2-1.6-0.7-2.1c-0.5-0.6-1.1-0.8-1.9-0.8c-0.8,0-1.4,0.3-1.9,0.8
		C458,502.6,457.8,503.3,457.8,504.2z"/>
	<path d="M477.9,503.8v5.7h-3v-5.8c0-0.8-0.1-1.5-0.4-1.9s-0.7-0.6-1.2-0.6c-0.6,0-1.1,0.2-1.5,0.6c-0.4,0.4-0.7,1.1-0.7,1.9v5.7h-3
		v-10.6h3v1.2c0.8-0.9,1.7-1.4,2.8-1.4c0.7,0,1.3,0.2,1.8,0.6s1,0.9,1.2,1.4c0.4-0.6,1-1.1,1.6-1.5c0.7-0.4,1.4-0.5,2.1-0.5
		c1.2,0,2.3,0.4,3,1.1s1.1,1.8,1.1,3.2v6.5h-3v-5.8c0-1.6-0.6-2.4-1.8-2.4c-0.6,0-1.1,0.2-1.5,0.6
		C478.2,502.3,477.9,502.9,477.9,503.8z"/>
</g>
<g>
	<path d="M247.5,535.8v5.7h-3v-5.8c0-0.8-0.1-1.5-0.4-1.9c-0.3-0.4-0.7-0.6-1.2-0.6s-1.1,0.2-1.5,0.6c-0.4,0.4-0.7,1.1-0.7,1.9v5.7
		h-3v-10.6h3v1.2c0.8-0.9,1.7-1.4,2.8-1.4c0.7,0,1.3,0.2,1.8,0.6c0.5,0.4,1,0.9,1.2,1.4c0.4-0.6,1-1.1,1.6-1.5
		c0.7-0.4,1.4-0.5,2.1-0.5c1.2,0,2.3,0.4,3,1.1s1.1,1.8,1.1,3.2v6.5h-3v-5.8c0-1.6-0.6-2.4-1.8-2.4c-0.6,0-1.1,0.2-1.5,0.6
		C247.7,534.3,247.5,534.9,247.5,535.8z"/>
	<path d="M267.7,536.2c0,1.5-0.5,2.8-1.6,3.9c-1.1,1.1-2.4,1.6-4,1.6c-1.6,0-2.9-0.5-4-1.6c-1.1-1.1-1.6-2.3-1.6-3.9
		c0-1.5,0.5-2.8,1.6-3.9c1.1-1.1,2.4-1.6,4-1.6c1.6,0,2.9,0.5,4,1.6C267.2,533.3,267.7,534.6,267.7,536.2z M259.5,536.2
		c0,0.9,0.2,1.6,0.7,2.1s1.1,0.8,1.9,0.8s1.4-0.3,1.9-0.8s0.7-1.3,0.7-2.1c0-0.9-0.2-1.6-0.7-2.1c-0.5-0.6-1.1-0.8-1.9-0.8
		s-1.4,0.3-1.9,0.8C259.7,534.6,259.5,535.3,259.5,536.2z"/>
	<path d="M273.2,533v4.8c0,0.4,0.1,0.7,0.3,1c0.2,0.2,0.5,0.3,0.7,0.3c0.6,0,1-0.2,1.4-0.8l1.1,2.1c-0.9,0.8-1.9,1.3-2.9,1.3
		c-1,0-1.9-0.3-2.6-1c-0.7-0.7-1.1-1.6-1.1-2.7V533H269v-2.1h1.2v-3.2h3v3.2h2.6v2.1H273.2z"/>
	<path d="M278.3,536.9v-2.6h7v2.6H278.3z"/>
	<path d="M292.3,541.6c-1.3,0-2.4-0.5-3.4-1.6c-1-1.1-1.5-2.4-1.5-4s0.5-2.9,1.4-3.9s2.1-1.5,3.4-1.5s2.3,0.5,3.2,1.4v-5.2h3v14.6
		h-3v-1.4C294.6,541.1,293.6,541.6,292.3,541.6z M290.4,536.2c0,0.9,0.3,1.6,0.8,2.1c0.5,0.5,1.1,0.8,1.8,0.8c0.7,0,1.3-0.3,1.7-0.8
		s0.7-1.2,0.7-2.1s-0.2-1.6-0.7-2.2s-1.1-0.9-1.8-0.9c-0.7,0-1.3,0.3-1.8,0.9C290.7,534.6,290.4,535.3,290.4,536.2z"/>
	<path d="M310.4,539.9c-1.2,1.1-2.6,1.7-4.2,1.7c-1.6,0-2.9-0.5-4-1.5c-1.1-1-1.6-2.3-1.6-4c0-1.7,0.5-3,1.6-4
		c1.1-1,2.3-1.5,3.8-1.5c1.5,0,2.7,0.4,3.7,1.3c1,0.9,1.5,2.1,1.5,3.6v1.6h-7.7c0.1,0.6,0.4,1.1,0.9,1.4c0.5,0.4,1.1,0.6,1.7,0.6
		c1,0,1.9-0.3,2.6-1L310.4,539.9z M307.5,533.7c-0.4-0.3-0.9-0.5-1.5-0.5s-1.1,0.2-1.6,0.5c-0.5,0.4-0.8,0.8-0.8,1.4h4.7
		C308.2,534.5,308,534,307.5,533.7z"/>
	<path d="M313.3,536.9v-2.6h7v2.6H313.3z"/>
	<path d="M329.2,530.7c1.2,0,2.3,0.5,3.3,1.5s1.5,2.3,1.5,3.9c0,1.6-0.5,2.9-1.5,3.9s-2.1,1.6-3.4,1.6s-2.3-0.5-3.1-1.6v5.2h-3
		v-14.4h3v1.2C326.9,531.1,328,530.7,329.2,530.7z M326,536.2c0,0.9,0.2,1.6,0.7,2.1c0.5,0.5,1.1,0.8,1.7,0.8s1.3-0.3,1.8-0.8
		s0.8-1.2,0.8-2.1s-0.2-1.6-0.8-2.2c-0.5-0.6-1.1-0.9-1.8-0.9s-1.3,0.3-1.8,0.9C326.2,534.6,326,535.3,326,536.2z"/>
	<path d="M345.2,541.5h-2.8v-1.3c-0.8,1-1.7,1.4-2.8,1.4s-2.1-0.3-2.8-1c-0.8-0.7-1.1-1.5-1.1-2.6c0-1.1,0.4-1.9,1.2-2.4
		s1.9-0.8,3.2-0.8h2.2v-0.1c0-1.1-0.6-1.7-1.8-1.7c-0.5,0-1.1,0.1-1.6,0.3c-0.6,0.2-1.1,0.5-1.4,0.8l-1.3-1.9c1.4-1,3-1.5,4.8-1.5
		c1.3,0,2.3,0.3,3.2,1c0.8,0.6,1.2,1.7,1.2,3.1V541.5z M342.2,537.4v-0.5h-1.9c-1.2,0-1.8,0.4-1.8,1.1c0,0.4,0.1,0.7,0.4,0.9
		c0.3,0.2,0.7,0.3,1.2,0.3c0.5,0,1-0.2,1.4-0.5C342,538.4,342.2,538,342.2,537.4z"/>
	<path d="M355.9,538.2c0,1-0.4,1.9-1.2,2.5s-1.7,0.9-2.9,0.9c-0.8,0-1.6-0.1-2.5-0.4c-0.9-0.3-1.6-0.7-2.3-1.3l1.3-1.9
		c1.1,0.9,2.3,1.3,3.5,1.3c0.4,0,0.7-0.1,0.9-0.2s0.3-0.4,0.3-0.6s-0.2-0.5-0.5-0.7c-0.3-0.2-0.8-0.4-1.3-0.6
		c-0.6-0.2-1-0.3-1.3-0.5c-0.3-0.1-0.7-0.3-1.1-0.6c-0.8-0.5-1.2-1.2-1.2-2.2s0.4-1.8,1.2-2.4s1.8-0.9,3.1-0.9s2.5,0.4,3.7,1.3
		l-1.1,2c-0.9-0.6-1.8-0.9-2.8-0.9s-1.4,0.2-1.4,0.7c0,0.3,0.1,0.5,0.4,0.7c0.3,0.2,0.8,0.3,1.4,0.6c0.7,0.2,1.1,0.4,1.4,0.5
		c0.3,0.1,0.6,0.3,1,0.5C355.5,536.4,355.9,537.1,355.9,538.2z"/>
	<path d="M366.1,538.2c0,1-0.4,1.9-1.2,2.5s-1.7,0.9-2.9,0.9c-0.8,0-1.6-0.1-2.5-0.4c-0.9-0.3-1.6-0.7-2.3-1.3l1.3-1.9
		c1.1,0.9,2.3,1.3,3.5,1.3c0.4,0,0.7-0.1,0.9-0.2s0.3-0.4,0.3-0.6s-0.2-0.5-0.5-0.7c-0.3-0.2-0.8-0.4-1.3-0.6
		c-0.6-0.2-1-0.3-1.3-0.5c-0.3-0.1-0.7-0.3-1.1-0.6c-0.8-0.5-1.2-1.2-1.2-2.2s0.4-1.8,1.2-2.4s1.8-0.9,3.1-0.9s2.5,0.4,3.7,1.3
		l-1.1,2c-0.9-0.6-1.8-0.9-2.8-0.9s-1.4,0.2-1.4,0.7c0,0.3,0.1,0.5,0.4,0.7c0.3,0.2,0.8,0.3,1.4,0.6c0.7,0.2,1.1,0.4,1.4,0.5
		c0.3,0.1,0.6,0.3,1,0.5C365.8,536.4,366.1,537.1,366.1,538.2z"/>
	<path d="M377.6,539.9c-1.2,1.1-2.6,1.7-4.2,1.7c-1.6,0-2.9-0.5-4-1.5c-1.1-1-1.6-2.3-1.6-4c0-1.7,0.5-3,1.6-4
		c1.1-1,2.3-1.5,3.8-1.5c1.5,0,2.7,0.4,3.7,1.3c1,0.9,1.5,2.1,1.5,3.6v1.6h-7.7c0.1,0.6,0.4,1.1,0.9,1.4c0.5,0.4,1.1,0.6,1.7,0.6
		c1,0,1.9-0.3,2.6-1L377.6,539.9z M374.8,533.7c-0.4-0.3-0.9-0.5-1.5-0.5s-1.1,0.2-1.6,0.5c-0.5,0.4-0.8,0.8-0.8,1.4h4.7
		C375.4,534.5,375.2,534,374.8,533.7z"/>
	<path d="M386.2,536c-0.3-0.3-0.5-0.7-0.5-1.2s0.2-0.9,0.5-1.2c0.3-0.3,0.7-0.5,1.2-0.5c0.5,0,0.9,0.2,1.2,0.5
		c0.3,0.3,0.5,0.7,0.5,1.2s-0.2,0.9-0.5,1.2c-0.3,0.3-0.7,0.5-1.2,0.5C387,536.5,386.6,536.3,386.2,536z M386.2,541.1
		c-0.3-0.3-0.5-0.7-0.5-1.2s0.2-0.9,0.5-1.2c0.3-0.3,0.7-0.5,1.2-0.5c0.5,0,0.9,0.2,1.2,0.5c0.3,0.3,0.5,0.7,0.5,1.2
		s-0.2,0.9-0.5,1.2c-0.3,0.3-0.7,0.5-1.2,0.5C387,541.6,386.6,541.5,386.2,541.1z"/>
	<path d="M401.1,537.9c0.5,0.6,1.2,1,2.1,1s1.6-0.3,2.1-1c0.5-0.6,0.8-1.5,0.8-2.6v-7.6h3.1v7.7c0,2-0.6,3.5-1.7,4.6
		c-1.1,1.1-2.5,1.6-4.2,1.6s-3.1-0.5-4.3-1.6s-1.7-2.6-1.7-4.6v-7.7h3.1v7.6C400.3,536.4,400.6,537.3,401.1,537.9z"/>
	<path d="M417.3,536.5l3.5-8.8h3.3l-5.5,13.8H416l-5.5-13.8h3.3L417.3,536.5z"/>
	<path d="M430.1,535.6l2.4-7.9h3.2l2.4,7.9l2.7-7.9h3.3l-4.8,13.8h-2.3l-3-9.6l-3,9.6h-2.3l-4.8-13.8h3.3L430.1,535.6z"/>
	<path d="M453.7,527.7h3.7l-4.3,6.6l4.7,7.1H454l-2.9-4.5l-2.9,4.5h-3.7l4.6-7.1l-4.3-6.7h3.7l2.6,4.1L453.7,527.7z"/>
	<path d="M465.6,541.5h-3.1V536l-4.8-8.3h3.3l3,5.1l3-5.1h3.3l-4.8,8.3V541.5z"/>
	<path d="M471,541.5v-2.1l7.2-9h-7v-2.7h11.2v2.1l-7.2,9h7.3v2.7H471z"/>
</g>
<path class="st2" d="M440,474.7H280.5c-4.8,0-8.7-3.9-8.7-8.7v-34.2c0-4.8,3.9-8.7,8.7-8.7H440c4.8,0,8.7,3.9,8.7,8.7V466
	C448.7,470.8,444.8,474.7,440,474.7z"/>
<g>
	<path d="M338.8,457.5l-1.3-3h-5.8l-1.3,3h-3.3l6-13.8h3l6,13.8H338.8z M334.6,447.8l-1.7,4h3.5L334.6,447.8z"/>
	<path d="M347.4,457.6c-1.3,0-2.4-0.5-3.4-1.6c-1-1.1-1.5-2.4-1.5-4s0.5-2.9,1.4-3.9s2.1-1.5,3.4-1.5c1.3,0,2.3,0.5,3.2,1.4v-5.2h3
		v14.6h-3v-1.4C349.7,457.1,348.6,457.6,347.4,457.6z M345.5,452.2c0,0.9,0.3,1.6,0.8,2.1s1.1,0.8,1.8,0.8s1.3-0.3,1.7-0.8
		c0.5-0.5,0.7-1.2,0.7-2.1s-0.2-1.6-0.7-2.2c-0.5-0.6-1.1-0.9-1.8-0.9c-0.7,0-1.3,0.3-1.8,0.9C345.7,450.6,345.5,451.3,345.5,452.2z
		"/>
	<path d="M366,451.8v5.7h-3v-5.8c0-0.8-0.1-1.5-0.4-1.9s-0.7-0.6-1.2-0.6c-0.6,0-1.1,0.2-1.5,0.6c-0.4,0.4-0.7,1.1-0.7,1.9v5.7h-3
		v-10.6h3v1.2c0.8-0.9,1.7-1.4,2.8-1.4c0.7,0,1.3,0.2,1.8,0.6s1,0.9,1.2,1.4c0.4-0.6,1-1.1,1.6-1.5c0.7-0.4,1.4-0.5,2.1-0.5
		c1.2,0,2.3,0.4,3,1.1s1.1,1.8,1.1,3.2v6.5h-3v-5.8c0-1.6-0.6-2.4-1.8-2.4c-0.6,0-1.1,0.2-1.5,0.6C366.2,450.3,366,450.9,366,451.8z
		"/>
	<path d="M375.9,445.5c-0.3-0.3-0.5-0.7-0.5-1.2c0-0.5,0.2-0.9,0.5-1.2c0.3-0.3,0.7-0.5,1.2-0.5c0.5,0,0.9,0.2,1.2,0.5
		s0.5,0.7,0.5,1.2c0,0.5-0.2,0.9-0.5,1.2c-0.3,0.3-0.7,0.5-1.2,0.5C376.6,446,376.2,445.9,375.9,445.5z M378.6,457.5h-3v-10.6h3
		V457.5z"/>
	<path d="M384.4,451.6v5.9h-3v-10.6h3v1.2c0.9-0.9,1.9-1.4,3-1.4c1.1,0,2.1,0.4,2.8,1.2c0.8,0.8,1.1,1.8,1.1,3.2v6.5h-3v-6
		c0-1.6-0.6-2.4-1.8-2.4c-0.6,0-1.1,0.2-1.5,0.6C384.6,450.1,384.4,450.7,384.4,451.6z"/>
</g>
<path class="st3" d="M207.8,123.5h270c9.4,0,17,7.6,17,17v80.7"/>
<rect x="671.8" y="292.4" class="st2" width="16.7" height="109.8"/>
</svg>
