<?xml version="1.0" encoding="utf-8"?>
<!-- Generator: Adobe Illustrator 24.3.0, SVG Export Plug-In . SVG Version: 6.00 Build 0)  -->
<svg version="1.1" id="Calque_1" xmlns="http://www.w3.org/2000/svg" xmlns:xlink="http://www.w3.org/1999/xlink" x="0px" y="0px"
	 viewBox="0 0 1000 1000" style="enable-background:new 0 0 1000 1000;" xml:space="preserve">
<style type="text/css">
	.st0{fill:#333333;}
</style>
<g>
	<g>
		<path class="st0" d="M880.1,579.3v-4.4c0-5.8-4.7-10.7-10.7-10.7h-13.3v-23.4H875h14.7V487V228.4H875h-21.3v38.3H31.5v-38.3H11.9
			H0V487v53.7h11.9h21.5v90.7h49.8c5.5-16.5,14.7-31.7,27.3-44.4c21.5-21.7,50.2-33.6,80.8-33.6c50.4,0,93,32.7,108.1,78h291
			c15-45.3,57.7-78,108.1-78c50.4,0,93,32.7,108.1,78h49.6v-8.9h13.3c5.8,0,10.7-4.7,10.7-10.7v-6.1H1000v-26.4H880.1z"/>
	</g>
	<path class="st0" d="M698.4,562.7c-57.5,0-104.4,47-104.4,104.4c0,57.5,47,104.4,104.4,104.4c57.5,0,104.4-47,104.4-104.4
		C802.8,609.7,755.8,562.7,698.4,562.7z M698.4,727.5c-33.4,0-60.3-27.1-60.3-60.3c0-33.2,26.9-60.3,60.3-60.3
		c33.4,0,60.3,27.1,60.3,60.3C758.6,700.6,731.5,727.5,698.4,727.5z"/>
	<path class="st0" d="M191.4,562.7c-57.5,0-104.4,47-104.4,104.4c0,57.5,47,104.4,104.4,104.4s104.4-47,104.4-104.4
		C295.8,609.7,248.8,562.7,191.4,562.7z M191.4,727.5c-33.4,0-60.3-27.1-60.3-60.3c0-33.2,26.9-60.3,60.3-60.3s60.3,27.1,60.3,60.3
		C251.6,700.6,224.5,727.5,191.4,727.5z"/>
</g>
</svg>
