<?xml version="1.0" encoding="utf-8"?>
<!-- Generator: Adobe Illustrator 21.1.0, SVG Export Plug-In . SVG Version: 6.00 Build 0)  -->
<svg version="1.1" id="Calque_1" xmlns="http://www.w3.org/2000/svg" xmlns:xlink="http://www.w3.org/1999/xlink" x="0px" y="0px"
	 viewBox="0 0 909 909" style="enable-background:new 0 0 909 909;" xml:space="preserve">
<style type="text/css">
	.st0{fill:#487BD4;}
</style>
<path class="st0" d="M217.8,832.2l54.6-54.6l-141-141l-54.6,54.6v64.2h76.8v76.8H217.8z M531.6,275.4c0-8.8-4.4-13.2-13.2-13.2
	c-4,0-7.4,1.4-10.2,4.2L183,591.6c-2.8,2.8-4.2,6.2-4.2,10.2c0,8.8,4.4,13.2,13.2,13.2c4,0,7.4-1.4,10.2-4.2l325.2-325.2
	C530.2,282.8,531.6,279.4,531.6,275.4z M499.2,160.2l249.6,249.6L249.6,909H0V659.4L499.2,160.2z M909,217.8
	c0,21.2-7.4,39.2-22.2,54l-99.6,99.6L537.6,121.8l99.6-99C651.6,7.6,669.6,0,691.2,0c21.2,0,39.4,7.6,54.6,22.8l141,140.4
	C901.6,178.8,909,197,909,217.8z"/>
</svg>
