<?xml version="1.0" encoding="utf-8"?>
<!-- Generator: Adobe Illustrator 21.1.0, SVG Export Plug-In . SVG Version: 6.00 Build 0)  -->
<svg version="1.1" id="Calque_1" xmlns="http://www.w3.org/2000/svg" xmlns:xlink="http://www.w3.org/1999/xlink" x="0px" y="0px"
	 viewBox="0 0 1792 1792" style="enable-background:new 0 0 1792 1792;" xml:space="preserve">
<rect x="819.8" y="1105.5" width="32" height="384"/>
<rect x="1075.8" y="1105.5" width="32" height="384"/>
<rect x="1331.8" y="1105.5" width="32" height="384"/>
<g>
	<path d="M1469.1,312c-6.7,0-15.3,0.4-22,1.2c-28.8,3.3-52.2,13.8-79.5,29.4v-35.4c0-89.4-63-164.5-150.1-174.6
		c-6.7-0.8-12.1-1.2-18.9-1.2c-35.6,0-69,10.8-97.7,30.8c-6.3-83.3-69.3-151.3-151.9-161C942.2,0.4,935.6,0,928.9,0
		c-91.8,0-167,71.8-172.6,162.2c-22.6-15.8-49.1-26.3-78-29.7c-6.7-0.8-15.4-1.2-22.1-1.2c-95.4,0-174.9,77.6-174.9,173v586.6
		l-38.4-38c-32.3-31.8-74.2-49.3-119.8-49.3c-46.1,0-88.8,17.9-121.2,50.3c-65.6,65.6-66.8,171.3-4.3,238.7l367.3,484.2l7.9,104.1
		c4.7,62.3,57.3,111.1,119.8,111.1l671.3-0.5c60-0.1,111.2-45,119-104.5l16.3-124c51.5-83.4,87.8-193.9,111.7-328.8
		c20.8-117.8,29.5-257.5,29.5-415.4V485C1640.3,389.6,1564.5,312,1469.1,312z M1401.7,1676.4c-2.5,19-18.7,31.8-37.9,31.8
		l-671.2-0.9c0,0,0,0,0,0c-20,0-36.7-14-38.2-33.9l-9.6-127.3c0-0.1,0,0.2-0.1,0.2l-384.5-506.9c-35.1-35.1-35.1-92.5,0-127.6
		c17.6-17.6,40.7-26.3,63.9-26.3s46.3,8.8,63.9,26.4l108.2,102.2c8.4,8,16.7,11.5,26.6,11.5c21.6,0,40.3-16.8,40.3-42v-679
		c0-50.2,42.9-91.2,93.1-91.2c3.6,0,7,0.2,10.6,0.6c46.4,5.4,80.3,46.6,80.3,93.4v467.8c0,24.3,19.7,44,44,44
		c24.6,0,44.6-19.9,44.6-44.5V173c0-50.2,42-91.2,92.2-91.2c3.6,0,7.5,0.2,11.1,0.6c46.4,5.4,80.8,46.6,80.8,93.4v598.5
		c0,24.6,20,44.6,44.6,44.6c24.3,0,44-19.7,44-43.9V304.4c0-50.2,41.2-91.2,91.3-91.2c3.5,0,4.5,0.2,8.1,0.6
		c46.4,5.4,77.8,46.6,77.8,93.4v466.1c0,25.2,25.9,47.7,51,47.7h0.8c23.3,0,36.8-21,36.8-44.3v-289c0-46.7,36.7-88,83.1-93.4
		c3.6-0.4,6.7-0.6,10.3-0.6c50.2,0,90.7,41,90.7,91.2v333.9c0,285.1-32.7,548.6-135.1,708.1c-3.1,4.9-4.3,10.3-5,16L1401.7,1676.4z"
		/>
</g>
</svg>
