<?xml version="1.0" encoding="utf-8"?>
<!-- Generator: Adobe Illustrator 21.1.0, SVG Export Plug-In . SVG Version: 6.00 Build 0)  -->
<svg version="1.1" id="Calque_1" xmlns="http://www.w3.org/2000/svg" xmlns:xlink="http://www.w3.org/1999/xlink" x="0px" y="0px"
	 viewBox="0 0 1536 1664" style="enable-background:new 0 0 1536 1664;" xml:space="preserve">
<path d="M1024,1120v416H96c-26.7,0-49.3-9.3-68-28s-28-41.3-28-68V96c0-26.7,9.3-49.3,28-68S69.3,0,96,0h1344c26.7,0,49.3,9.3,68,28
	s28,41.3,28,68v928h-416c-26.7,0-49.3,9.3-68,28S1024,1093.3,1024,1120z M1152,1152h381c-10,54.7-31.7,98.7-65,132l-184,184
	c-33.3,33.3-77.3,55-132,65V1152z"/>
</svg>
