<?xml version="1.0" encoding="utf-8"?>
<!-- Generator: Adobe Illustrator 20.0.0, SVG Export Plug-In . SVG Version: 6.00 Build 0)  -->
<svg version="1.1" id="Layer_1" xmlns="http://www.w3.org/2000/svg" xmlns:xlink="http://www.w3.org/1999/xlink" x="0px" y="0px"
	 viewBox="0 0 332.2 224.4" style="enable-background:new 0 0 332.2 224.4;" xml:space="preserve">
<style type="text/css">
	.st0{fill:none;stroke:#000000;stroke-width:4.252;stroke-miterlimit:10;}
</style>
<path d="M164.8,168.1"/>
<path d="M270.5,172.7H52.4c-0.9,0-1.7-0.9-1.7-2s0.8-2,1.7-2h218.1c0.9,0,1.7,0.9,1.7,2S271.5,172.7,270.5,172.7z"/>
<g>
	<path d="M330.6,94.4l-43.8-37.7c5.5-13.7,2.9-27.1-7.1-36.1c-7-6.4-16.6-9.6-26-8.7c-9.6,0.9-18.2,5.6-24,13.4
		c-10.7,14-8.7,34.3,4.5,46c9.2,8.2,21.7,10.5,33.7,6.1l5,4.7c0.4,0.4,0.9,0.6,1.5,0.5l8.1-0.4l0.3,6c0.1,1.1,1,2,2.1,1.9l6-0.3
		l0.3,6c0.1,1.1,1,2,2.1,1.9l8-0.4l0.4,8c0.1,1.1,1,2,2.1,1.9l4-0.2l0.2,3.6c0.1,1.9,0.3,3,1.9,4.4c1.2,1.1,2.7,1.7,4.4,1.7l16-0.8
		c1.1-0.1,2-1,1.9-2.1l-0.9-18C331.3,95.3,331.1,94.8,330.6,94.4L330.6,94.4z M328.1,112.1l-13.9,0.7c-0.6,0-1.2-0.3-1.7-0.7
		c-0.5-0.5-0.5-0.5-0.6-1.7l-0.3-5.6c-0.1-1.1-1-2-2.1-1.9l-4,0.2l-0.4-8c-0.1-1.1-1-2-2.1-1.9l-8,0.4l-0.3-6c-0.1-1.1-1-2-2.1-1.9
		l-6,0.3l-0.3-6c-0.1-1.1-1-2-2.1-1.9l-9.2,0.5l-5.3-4.9c-0.6-0.5-1.4-0.7-2.1-0.4c-10.9,4.4-22.4,2.5-30.7-4.9
		c-11.6-10.4-13.4-28.2-3.9-40.6c5.2-6.8,12.7-11,21.2-11.8c8.4-0.8,16.7,2,23,7.6c9.1,8.3,11.1,20.3,5.5,32.9
		c-0.4,0.8-0.1,1.8,0.5,2.3l44.2,38.1L328.1,112.1z M328.1,112.1"/>
	<path d="M239,29.7c-2.2,2.4-3.3,5.5-3.1,8.7c0.2,3.2,1.6,6.2,3.9,8.3c2.4,2.2,5.5,3.3,8.7,3.1c3.2-0.2,6.2-1.6,8.3-3.9
		c2.2-2.4,3.3-5.5,3.1-8.7c-0.2-3.2-1.6-6.2-3.9-8.3C251.1,24.4,243.5,24.8,239,29.7L239,29.7z M253.9,43.2
		c-2.9,3.2-8.2,3.5-11.3,0.6c-1.6-1.4-2.5-3.4-2.6-5.5c-0.1-2.1,0.6-4.2,2.1-5.8c1.5-1.6,3.5-2.5,5.6-2.6c2.1-0.1,4.1,0.6,5.8,2.1
		c1.6,1.4,2.5,3.4,2.6,5.5C256.1,39.5,255.4,41.6,253.9,43.2L253.9,43.2z M253.9,43.2"/>
</g>
<g>
	<path d="M124,170.8h-4.3V57.6c0-1.3-0.7-2.4-1.8-3.1L89.1,37.8c-1.1-0.6-2.5-0.6-3.6,0L56.7,54.5c-1.1,0.6-1.8,1.8-1.8,3.1v113.2
		h-4.3V57.6c0-2.8,1.5-5.4,3.9-6.7l28.8-16.7c2.4-1.4,5.4-1.4,7.8,0l28.8,16.7c2.4,1.4,3.9,4,3.9,6.7V170.8z"/>
	<path d="M176.7,101.4l-4.3,2.8V25.8c0-1.3-0.7-2.4-1.8-3.1L141.9,6.1c-1.1-0.6-2.5-0.6-3.6,0l-28.8,16.7c-1.1,0.6-1.8,1.8-1.8,3.1
		v19.5h-4.3V25.8c0-2.8,1.5-5.4,3.9-6.7l28.8-16.7c2.4-1.4,5.4-1.4,7.8,0l28.8,16.7c2.4,1.4,3.9,4,3.9,6.7V101.4z"/>
	<g>
		<path d="M206.9,114.6h9c1.2,0,2.1-1,2.1-2.1v-8.9c0-1.2-1-2.1-2.1-2.1H207c-1.2,0-2.1,1-2.1,2.1v9
			C204.8,113.7,205.8,114.6,206.9,114.6L206.9,114.6z M209.1,105.6h4.7c0,0,0,0,0,0v4.7c0,0,0,0,0,0h-4.7c0,0,0,0,0,0L209.1,105.6
			C209,105.6,209.1,105.6,209.1,105.6z M209,105.6"/>
		<path d="M188.9,114.6h9c1.2,0,2.1-1,2.1-2.1v-8.9c0-1.2-1-2.1-2.1-2.1H189c-1.2,0-2.1,1-2.1,2.1v9
			C186.8,113.7,187.8,114.6,188.9,114.6L188.9,114.6z M191.1,105.6h4.7c0,0,0,0,0,0v4.7c0,0,0,0,0,0h-4.7c0,0,0,0,0,0L191.1,105.6
			C191,105.6,191,105.6,191.1,105.6z M191,105.6"/>
		<path d="M224.9,114.6h9c1.2,0,2.1-1,2.1-2.1v-8.9c0-1.2-1-2.1-2.1-2.1H225c-1.2,0-2.1,1-2.1,2.1v9
			C222.8,113.7,223.8,114.6,224.9,114.6L224.9,114.6z M227.1,105.6h4.7c0,0,0,0,0,0v4.7c0,0,0,0,0,0h-4.7c0,0,0,0,0,0L227.1,105.6
			C227,105.6,227.1,105.6,227.1,105.6z M227,105.6"/>
		<path d="M257,141.5h-81.3c0,0,0,0,0,0v-4.7c0,0,0,0,0,0H257c0,0,0,0,0,0L257,141.5C257.1,141.5,257,141.5,257,141.5z M175.8,145.7
			H257c0,0,0,0,0,0v4.7c0,0,0,0,0,0h-81.3c0,0,0,0,0,0L175.8,145.7C175.7,145.7,175.7,145.7,175.8,145.7z M257,132.5h-81.3
			c0,0,0,0,0,0v-4.7c0,0,0,0,0,0H257c0,0,0,0,0,0L257,132.5C257.1,132.5,257,132.5,257,132.5z M175.8,154.7H257c0,0,0,0,0,0v4.7
			c0,0,0,0,0,0h-81.3c0,0,0,0,0,0L175.8,154.7C175.7,154.7,175.7,154.7,175.8,154.7z M175.7,168.5v-4.7c0,0,0,0,0,0H257c0,0,0,0,0,0
			v4.7c0,0,0,0,0,0L175.7,168.5C175.7,168.5,175.7,168.5,175.7,168.5z M159.9,118.3l23.7-20.1c0,0,0,0,0,0l32.7-8.7c0,0,0,0,0,0
			l32.8,8.7c0,0,0,0,0,0l23.7,20.1c0,0.2-0.1,0.3-0.1,0.5v49.6c0,0,0,0,0,0h-11.5c0,0,0,0,0,0v-42.8c0-1.2-1-2.1-2.1-2.1h-85.5
			c-1.2,0-2.1,1-2.1,2.1v42.8c0,0,0,0,0,0H160c0,0,0,0,0,0v-49.6C160,118.7,159.9,118.5,159.9,118.3L159.9,118.3z M276.4,172.1
			c0.7-0.6,0.6-1.4,0.6-1.4v-48.9l1,0.9c0.4,0.3,0.9,0.5,1.4,0.5c0.6,0,1.2-0.2,1.6-0.8c0.8-0.9,0.6-2.2-0.2-3l-29.3-24.8
			c-0.2-0.2-0.5-0.4-0.8-0.4l-33.8-9c-0.4-0.1-0.7-0.1-1.1,0l-33.8,9c-0.3,0.1-0.6,0.2-0.8,0.4L152,119.5c-0.9,0.8-1,2.2-0.1,3.1
			c0.8,0.8,2.1,0.7,3,0l0.9-0.8v50.9c0,0,0,0,0,0H275C275,172.7,275.7,172.7,276.4,172.1z"/>
	</g>
	<circle class="st0" cx="140.1" cy="30.9" r="11.2"/>
</g>
<path d="M297.3,224.4H34.9c-7.3,0-13.2-5.9-13.2-13.2v-29.5c0-7.3,5.9-13.2,13.2-13.2h262.5c7.3,0,13.2,5.9,13.2,13.2v29.5
	C310.5,218.5,304.6,224.4,297.3,224.4z M34.9,172.8c-4.9,0-8.9,4-8.9,8.9v29.5c0,4.9,4,8.9,8.9,8.9h262.5c4.9,0,8.9-4,8.9-8.9v-29.5
	c0-4.9-4-8.9-8.9-8.9H34.9z"/>
<g>
	<path d="M44.3,203.1h-3v-14.6h3v7.5l3.3-3.5h3.7l-4,4.3l4.2,6.3H48l-2.7-4.1l-1,1V203.1z"/>
	<path d="M62.3,201.5c-1.2,1.1-2.6,1.7-4.2,1.7c-1.6,0-2.9-0.5-4-1.5c-1.1-1-1.6-2.3-1.6-4c0-1.7,0.5-3,1.6-4c1.1-1,2.3-1.5,3.8-1.5
		c1.5,0,2.7,0.4,3.7,1.3c1,0.9,1.5,2.1,1.5,3.6v1.6h-7.7c0.1,0.6,0.4,1.1,0.9,1.4c0.5,0.4,1.1,0.6,1.7,0.6c1,0,1.9-0.3,2.6-1
		L62.3,201.5z M59.5,195.2c-0.4-0.3-0.9-0.5-1.5-0.5s-1.1,0.2-1.6,0.5c-0.5,0.4-0.8,0.8-0.8,1.4h4.7C60.1,196,59.9,195.6,59.5,195.2
		z"/>
	<path d="M68,203.1l-4.2-10.6h3.1l2.6,6.7l2.6-6.7h3.1L71,203.1H68z"/>
	<path d="M76.9,191.1c-0.3-0.3-0.5-0.7-0.5-1.2c0-0.5,0.2-0.9,0.5-1.2c0.3-0.3,0.7-0.5,1.2-0.5c0.5,0,0.9,0.2,1.2,0.5
		s0.5,0.7,0.5,1.2c0,0.5-0.2,0.9-0.5,1.2c-0.3,0.3-0.7,0.5-1.2,0.5C77.7,191.6,77.3,191.4,76.9,191.1z M79.7,203.1h-3v-10.6h3V203.1
		z"/>
	<path d="M85.4,197.1v5.9h-3v-10.6h3v1.2c0.9-0.9,1.9-1.4,3-1.4c1.1,0,2.1,0.4,2.8,1.2c0.8,0.8,1.1,1.8,1.1,3.2v6.5h-3v-6
		c0-1.6-0.6-2.4-1.8-2.4c-0.6,0-1.1,0.2-1.5,0.6C85.6,195.7,85.4,196.3,85.4,197.1z"/>
	<path d="M95,198.4v-2.6h7v2.6H95z"/>
	<path d="M109,203.2c-1.3,0-2.4-0.5-3.4-1.6c-1-1.1-1.5-2.4-1.5-4s0.5-2.9,1.4-3.9s2.1-1.5,3.4-1.5s2.3,0.5,3.2,1.4v-5.2h3v14.6h-3
		v-1.4C111.3,202.7,110.2,203.2,109,203.2z M107.1,197.8c0,0.9,0.3,1.6,0.8,2.1c0.5,0.5,1.1,0.8,1.8,0.8c0.7,0,1.3-0.3,1.7-0.8
		s0.7-1.2,0.7-2.1s-0.2-1.6-0.7-2.2s-1.1-0.9-1.8-0.9c-0.7,0-1.3,0.3-1.8,0.9C107.4,196.2,107.1,196.9,107.1,197.8z"/>
	<path d="M124.7,198.2v-5.7h3v10.6h-3v-1.4c-0.7,1-1.7,1.6-2.9,1.6s-2.1-0.4-2.9-1.1c-0.8-0.7-1.2-1.8-1.2-3.2v-6.4h3v5.8
		c0,1.6,0.6,2.4,1.8,2.4c0.6,0,1.1-0.2,1.5-0.6C124.5,199.6,124.7,199,124.7,198.2z"/>
	<path d="M136.1,195c-0.9,0-1.5,0.3-2,0.9s-0.7,1.4-0.7,2.5v4.6h-3v-10.6h3v1.4c0.4-0.4,0.9-0.8,1.4-1.1c0.6-0.3,1.2-0.5,1.7-0.5
		l0,2.8H136.1z"/>
	<path d="M147.5,203.1h-2.8v-1.3c-0.8,1-1.7,1.4-2.8,1.4c-1.1,0-2.1-0.3-2.8-1c-0.8-0.7-1.1-1.5-1.1-2.6c0-1.1,0.4-1.9,1.2-2.4
		c0.8-0.5,1.9-0.8,3.2-0.8h2.2v-0.1c0-1.1-0.6-1.7-1.8-1.7c-0.5,0-1.1,0.1-1.6,0.3c-0.6,0.2-1.1,0.5-1.5,0.8l-1.3-1.9
		c1.4-1,3-1.5,4.8-1.5c1.3,0,2.3,0.3,3.2,1c0.8,0.6,1.2,1.7,1.2,3.1V203.1z M144.5,199v-0.5h-1.9c-1.2,0-1.8,0.4-1.8,1.1
		c0,0.4,0.1,0.7,0.4,0.9c0.3,0.2,0.7,0.3,1.2,0.3c0.5,0,1-0.2,1.4-0.5C144.3,200,144.5,199.5,144.5,199z"/>
	<path d="M153.2,197.1v5.9h-3v-10.6h3v1.2c0.9-0.9,1.9-1.4,3-1.4c1.1,0,2.1,0.4,2.8,1.2c0.8,0.8,1.1,1.8,1.1,3.2v6.5h-3v-6
		c0-1.6-0.6-2.4-1.8-2.4c-0.6,0-1.1,0.2-1.5,0.6C153.4,195.7,153.2,196.3,153.2,197.1z"/>
	<path d="M166.2,194.6v4.8c0,0.4,0.1,0.7,0.3,1c0.2,0.2,0.5,0.3,0.8,0.3c0.6,0,1-0.2,1.4-0.8l1.1,2.1c-0.9,0.8-1.9,1.3-2.9,1.3
		s-1.9-0.3-2.6-1c-0.7-0.7-1.1-1.6-1.1-2.7v-4.9H162v-2.1h1.2v-3.2h3v3.2h2.6v2.1H166.2z"/>
	<path d="M183.5,200.6c0.4,0,0.7-0.3,0.9-0.8s0.4-1.3,0.4-2.1c0-1.9-0.5-3.4-1.6-4.6c-1.1-1.2-2.5-1.8-4.3-1.8
		c-1.8,0-3.3,0.6-4.5,1.9c-1.2,1.3-1.8,2.8-1.8,4.6c0,1.8,0.6,3.3,1.7,4.4s2.6,1.8,4.3,1.8c1.3,0,2.5-0.5,3.5-1.5l0.8,1.4
		c-0.5,0.5-1.2,0.8-2,1.1c-0.8,0.3-1.6,0.4-2.3,0.4c-2.2,0-4-0.7-5.5-2.2s-2.2-3.3-2.2-5.5c0-2.2,0.8-4.1,2.3-5.6
		c1.6-1.6,3.4-2.3,5.6-2.3c2.2,0,4,0.8,5.5,2.2s2.2,3.4,2.2,5.6c0,1.4-0.3,2.6-0.9,3.5c-0.6,0.9-1.4,1.3-2.4,1.3
		c-0.5,0-1-0.2-1.4-0.5s-0.7-0.7-0.9-1.1c-0.7,0.9-1.6,1.4-2.8,1.4s-2.1-0.4-2.9-1.3c-0.8-0.8-1.2-1.9-1.2-3.2
		c0-1.3,0.4-2.4,1.1-3.3s1.7-1.3,2.9-1.3c0.4,0,0.8,0.1,1.2,0.3s0.6,0.4,0.8,0.5l0.3,0.3v-0.8h2.5v6.3
		C182.9,200.3,183.1,200.6,183.5,200.6z M180.5,197.7c0-0.7-0.2-1.2-0.5-1.6c-0.3-0.4-0.8-0.7-1.4-0.7s-1,0.2-1.4,0.7
		c-0.3,0.4-0.5,1-0.5,1.6s0.2,1.2,0.5,1.7c0.3,0.5,0.8,0.7,1.4,0.7c0.6,0,1-0.2,1.4-0.7C180.3,198.9,180.5,198.3,180.5,197.7z"/>
	<path d="M196.8,201.3c-0.9,1-2.1,1.6-3.5,1.6s-2.6-0.5-3.5-1.4c-1-0.9-1.4-2.2-1.4-3.8s0.5-2.9,1.5-3.9s2.1-1.5,3.4-1.5
		s2.3,0.5,3.1,1.6v-1.4h3v9.3c0,0.9-0.2,1.8-0.5,2.5c-0.3,0.7-0.8,1.3-1.3,1.7c-1.1,0.9-2.4,1.3-3.9,1.3c-0.8,0-1.6-0.1-2.4-0.4
		c-0.8-0.3-1.5-0.6-2.2-1.1l1.1-2.2c1,0.7,2,1.1,3.1,1.1s1.9-0.3,2.6-0.8C196.4,203.3,196.8,202.4,196.8,201.3z M196.4,197.5
		c0-0.8-0.2-1.5-0.7-2c-0.5-0.5-1.1-0.7-1.8-0.7s-1.3,0.2-1.8,0.7c-0.5,0.5-0.8,1.2-0.8,2c0,0.8,0.2,1.5,0.7,2s1.1,0.8,1.8,0.8
		s1.3-0.3,1.8-0.8C196.1,199,196.4,198.4,196.4,197.5z"/>
	<path d="M211.8,197.3v5.7h-3v-5.8c0-0.8-0.1-1.5-0.4-1.9c-0.3-0.4-0.7-0.6-1.2-0.6s-1.1,0.2-1.5,0.6c-0.4,0.4-0.7,1.1-0.7,1.9v5.7
		h-3v-10.6h3v1.2c0.8-0.9,1.7-1.4,2.8-1.4c0.7,0,1.3,0.2,1.8,0.6s1,0.9,1.2,1.4c0.4-0.6,1-1.1,1.6-1.5c0.7-0.4,1.4-0.5,2.1-0.5
		c1.2,0,2.3,0.4,3,1.1c0.8,0.7,1.1,1.8,1.1,3.2v6.5h-3v-5.8c0-1.6-0.6-2.4-1.8-2.4c-0.6,0-1.1,0.2-1.5,0.6
		C212,195.9,211.8,196.5,211.8,197.3z"/>
	<path d="M230.5,203.1h-2.8v-1.3c-0.8,1-1.7,1.4-2.8,1.4c-1.1,0-2.1-0.3-2.8-1c-0.8-0.7-1.1-1.5-1.1-2.6c0-1.1,0.4-1.9,1.2-2.4
		s1.9-0.8,3.2-0.8h2.2v-0.1c0-1.1-0.6-1.7-1.8-1.7c-0.5,0-1.1,0.1-1.6,0.3c-0.6,0.2-1.1,0.5-1.5,0.8l-1.3-1.9c1.4-1,3-1.5,4.8-1.5
		c1.3,0,2.3,0.3,3.2,1c0.8,0.6,1.2,1.7,1.2,3.1V203.1z M227.5,199v-0.5h-1.9c-1.2,0-1.8,0.4-1.8,1.1c0,0.4,0.1,0.7,0.4,0.9
		c0.3,0.2,0.7,0.3,1.2,0.3c0.5,0,1-0.2,1.4-0.5C227.3,200,227.5,199.5,227.5,199z"/>
	<path d="M233.4,191.1c-0.3-0.3-0.5-0.7-0.5-1.2c0-0.5,0.2-0.9,0.5-1.2c0.3-0.3,0.7-0.5,1.2-0.5s0.9,0.2,1.2,0.5
		c0.3,0.3,0.5,0.7,0.5,1.2c0,0.5-0.2,0.9-0.5,1.2c-0.3,0.3-0.7,0.5-1.2,0.5S233.8,191.4,233.4,191.1z M236.1,203.1h-3v-10.6h3V203.1
		z"/>
	<path d="M241.9,203.1h-3v-14.6h3V203.1z"/>
	<path d="M244.9,202.7c-0.3-0.3-0.5-0.7-0.5-1.2s0.2-0.9,0.5-1.2c0.3-0.3,0.7-0.5,1.2-0.5c0.5,0,0.9,0.2,1.2,0.5
		c0.3,0.3,0.5,0.7,0.5,1.2s-0.2,0.9-0.5,1.2c-0.3,0.3-0.7,0.5-1.2,0.5C245.6,203.2,245.2,203,244.9,202.7z"/>
	<path d="M255.5,200.6c1,0,1.9-0.5,2.7-1.5l1.8,2c-1.4,1.4-2.8,2.1-4.4,2.1s-2.9-0.5-4-1.5c-1.1-1-1.6-2.3-1.6-3.9s0.6-2.9,1.7-4
		c1.1-1,2.4-1.5,4-1.5c0.8,0,1.5,0.2,2.3,0.5c0.8,0.3,1.5,0.8,2.1,1.4l-1.5,2c-0.3-0.4-0.8-0.7-1.3-0.9s-1-0.3-1.5-0.3
		c-0.8,0-1.4,0.3-2,0.8c-0.6,0.5-0.8,1.2-0.8,2.1c0,0.9,0.3,1.6,0.8,2.1C254.1,200.3,254.7,200.6,255.5,200.6z"/>
	<path d="M272.3,197.7c0,1.5-0.5,2.8-1.6,3.9c-1.1,1.1-2.4,1.6-4,1.6c-1.6,0-2.9-0.5-4-1.6s-1.6-2.3-1.6-3.9c0-1.5,0.5-2.8,1.6-3.9
		c1.1-1.1,2.4-1.6,4-1.6c1.6,0,2.9,0.5,4,1.6C271.8,194.9,272.3,196.2,272.3,197.7z M264,197.7c0,0.9,0.2,1.6,0.7,2.1
		s1.1,0.8,1.9,0.8c0.8,0,1.4-0.3,1.9-0.8s0.7-1.3,0.7-2.1c0-0.9-0.2-1.6-0.7-2.1c-0.5-0.6-1.1-0.8-1.9-0.8c-0.8,0-1.4,0.3-1.9,0.8
		C264.3,196.2,264,196.9,264,197.7z"/>
	<path d="M284.2,197.3v5.7h-3v-5.8c0-0.8-0.1-1.5-0.4-1.9c-0.3-0.4-0.7-0.6-1.2-0.6s-1.1,0.2-1.5,0.6c-0.4,0.4-0.7,1.1-0.7,1.9v5.7
		h-3v-10.6h3v1.2c0.8-0.9,1.7-1.4,2.8-1.4c0.7,0,1.3,0.2,1.8,0.6s1,0.9,1.2,1.4c0.4-0.6,1-1.1,1.6-1.5c0.7-0.4,1.4-0.5,2.1-0.5
		c1.2,0,2.3,0.4,3,1.1c0.8,0.7,1.1,1.8,1.1,3.2v6.5h-3v-5.8c0-1.6-0.6-2.4-1.8-2.4c-0.6,0-1.1,0.2-1.5,0.6
		C284.4,195.9,284.2,196.5,284.2,197.3z"/>
</g>
<path d="M244.6,17.7c-9.3-7-27.9-11.3-48.5-11.3c-15.9,0-31,2.7-41.4,7.3L153,9.8c10.9-4.9,26.6-7.7,43.2-7.7
	c21.5,0,41,4.7,51.1,12.2L244.6,17.7z"/>
<path d="M196.1,49.8C163.5,49.8,138,39.3,138,26c0-2.5,0.9-4.9,2.6-7.3l3.4,2.5c-1.2,1.6-1.7,3.2-1.7,4.7c0,9.5,21.6,19.6,53.9,19.6
	c23.2,0,49.5-6.5,53.4-17.3l4,1.4C249.4,41.4,225.2,49.8,196.1,49.8z"/>
</svg>
