<?xml version="1.0" encoding="utf-8"?>
<!-- Generator: Adobe Illustrator 20.0.0, SVG Export Plug-In . SVG Version: 6.00 Build 0)  -->
<svg version="1.1" id="Layer_1" xmlns="http://www.w3.org/2000/svg" xmlns:xlink="http://www.w3.org/1999/xlink" x="0px" y="0px"
	 viewBox="0 0 375.6 318.9" style="enable-background:new 0 0 375.6 318.9;" xml:space="preserve">
<style type="text/css">
	.st0{fill:none;stroke:#000000;stroke-width:4.252;stroke-miterlimit:10;}
	.st1{font-family:'Montserrat-Bold';}
	.st2{font-size:19.7249px;}
	.st3{fill:none;stroke:#000000;stroke-width:3.9844;stroke-miterlimit:10;}
	.st4{fill:#FFFFFF;stroke:#000000;stroke-width:4.252;stroke-miterlimit:10;}
	.st5{stroke:#000000;stroke-linejoin:round;stroke-miterlimit:10;}
	.st6{fill:#FFFFFF;}
	.st7{fill:none;stroke:#010101;stroke-width:0.7;}
	.st8{fill:#010101;}
</style>
<path d="M238.9,314.3"/>
<path d="M372.7,318.9H2.9c-1.6,0-2.9-0.9-2.9-2s1.3-2,2.9-2h369.8c1.6,0,2.9,0.9,2.9,2S374.3,318.9,372.7,318.9z"/>
<path d="M198.1,317h-4.3V203.8c0-1.3-0.7-2.4-1.8-3.1L163.3,184c-1.1-0.6-2.5-0.6-3.6,0l-28.8,16.7c-1.1,0.6-1.8,1.8-1.8,3.1V317
	h-4.3V203.8c0-2.8,1.5-5.4,3.9-6.7l28.8-16.7c2.4-1.4,5.4-1.4,7.8,0l28.8,16.7c2.4,1.4,3.9,4,3.9,6.7V317z"/>
<path d="M250.9,247.6l-4.3,2.8V172c0-1.3-0.7-2.4-1.8-3.1L216,152.2c-1.1-0.6-2.5-0.6-3.6,0L183.6,169c-1.1,0.6-1.8,1.8-1.8,3.1
	v19.5h-4.3V172c0-2.8,1.5-5.4,3.9-6.7l28.8-16.7c2.4-1.4,5.4-1.4,7.8,0l28.8,16.7c2.4,1.4,3.9,4,3.9,6.7V247.6z"/>
<g>
	<path d="M281.1,260.8h9c1.2,0,2.1-1,2.1-2.1v-8.9c0-1.2-1-2.1-2.1-2.1h-8.9c-1.2,0-2.1,1-2.1,2.1v9
		C278.9,259.9,279.9,260.8,281.1,260.8L281.1,260.8z M283.2,251.8h4.7c0,0,0,0,0,0v4.7c0,0,0,0,0,0h-4.7c0,0,0,0,0,0L283.2,251.8
		C283.2,251.8,283.2,251.8,283.2,251.8z M283.2,251.8"/>
	<path d="M263.1,260.8h9c1.2,0,2.1-1,2.1-2.1v-8.9c0-1.2-1-2.1-2.1-2.1h-8.9c-1.2,0-2.1,1-2.1,2.1v9
		C260.9,259.9,261.9,260.8,263.1,260.8L263.1,260.8z M265.2,251.8h4.7c0,0,0,0,0,0v4.7c0,0,0,0,0,0h-4.7c0,0,0,0,0,0L265.2,251.8
		C265.2,251.8,265.2,251.8,265.2,251.8z M265.2,251.8"/>
	<path d="M299.1,260.8h9c1.2,0,2.1-1,2.1-2.1v-8.9c0-1.2-1-2.1-2.1-2.1h-8.9c-1.2,0-2.1,1-2.1,2.1v9
		C297,259.9,297.9,260.8,299.1,260.8L299.1,260.8z M301.2,251.8h4.7c0,0,0,0,0,0v4.7c0,0,0,0,0,0h-4.7c0,0,0,0,0,0L301.2,251.8
		C301.2,251.8,301.2,251.8,301.2,251.8z M301.2,251.8"/>
	<path d="M331.2,287.7h-81.3c0,0,0,0,0,0v-4.7c0,0,0,0,0,0h81.3c0,0,0,0,0,0L331.2,287.7C331.2,287.6,331.2,287.7,331.2,287.7z
		 M249.9,291.9h81.3c0,0,0,0,0,0v4.7c0,0,0,0,0,0h-81.3c0,0,0,0,0,0L249.9,291.9C249.9,291.9,249.9,291.9,249.9,291.9z M331.2,278.7
		h-81.3c0,0,0,0,0,0v-4.7c0,0,0,0,0,0h81.3c0,0,0,0,0,0L331.2,278.7C331.2,278.6,331.2,278.7,331.2,278.7z M249.9,300.9h81.3
		c0,0,0,0,0,0v4.7c0,0,0,0,0,0h-81.3c0,0,0,0,0,0L249.9,300.9C249.9,300.9,249.9,300.9,249.9,300.9z M249.9,314.6v-4.7c0,0,0,0,0,0
		h81.3c0,0,0,0,0,0v4.7c0,0,0,0,0,0L249.9,314.6C249.9,314.7,249.9,314.7,249.9,314.6z M234,264.5l23.7-20.1c0,0,0,0,0,0l32.7-8.7
		c0,0,0,0,0,0l32.8,8.7c0,0,0,0,0,0l23.7,20.1c0,0.2-0.1,0.3-0.1,0.5v49.6c0,0,0,0,0,0h-11.5c0,0,0,0,0,0v-42.8c0-1.2-1-2.1-2.1-2.1
		h-85.5c-1.2,0-2.1,1-2.1,2.1v42.8c0,0,0,0,0,0h-11.5c0,0,0,0,0,0V265C234.1,264.8,234.1,264.7,234,264.5L234,264.5z M350.6,318.3
		c0.7-0.6,0.6-1.4,0.6-1.4V268l1,0.9c0.4,0.3,0.9,0.5,1.4,0.5c0.6,0,1.2-0.2,1.6-0.8c0.8-0.9,0.6-2.2-0.2-3l-29.3-24.8
		c-0.2-0.2-0.5-0.4-0.8-0.4l-33.8-9c-0.4-0.1-0.7-0.1-1.1,0l-33.8,9c-0.3,0.1-0.6,0.2-0.8,0.4l-29.3,24.8c-0.9,0.8-1,2.2-0.1,3.1
		c0.8,0.8,2.1,0.7,3,0l0.9-0.8v50.9c0,0,0,0,0,0h119.2C349.1,318.9,349.8,318.9,350.6,318.3z"/>
</g>
<path class="st0" d="M289.6,131H27.2c-6.1,0-11.1-5-11.1-11.1V90.5c0-6.1,5-11.1,11.1-11.1h262.5c6.1,0,11.1,5,11.1,11.1V120
	C300.7,126.1,295.7,131,289.6,131z"/>
<text transform="matrix(1 0 0 1 44.0545 112.8121)" class="st1 st2">Ferme de Kevin Durant</text>
<rect x="71.7" y="131" class="st3" width="14" height="185.8"/>
<g>
	<path class="st4" d="M182.2,37.2c0,23.3-13.3,42.2-29.7,42.2s-29.7-18.9-29.7-42.2s12.9-33.4,29.3-33.4S182.2,13.9,182.2,37.2z"/>
	<path class="st5" d="M124.6,0.7l1.9,6.2c16.5,8.2,34,9,51.9,0.5l2-6.2C160.7,12.3,142.5,11,124.6,0.7L124.6,0.7z"/>
	<path class="st5" d="M150.9,44.7l1.6,2.1l1.7-2.2l-1.7,7L150.9,44.7z"/>
	<path class="st5" d="M159.7,50.4l1.6,2.1l1.7-2.2l-1.7,7L159.7,50.4z"/>
	<path class="st5" d="M142.1,50.4l1.6,2.1l1.7-2.2l-1.7,7L142.1,50.4z"/>
	<path class="st5" d="M138.8,60.5l1.6,2.1l1.7-2.2l-1.7,7L138.8,60.5z"/>
	<path class="st5" d="M162.9,60.5l1.6,2.1l1.7-2.2l-1.7,7L162.9,60.5z"/>
	<path d="M135.4,10.6c-9,8.3-11.1,21.9-3.7,25.5c7.7,3.7,15.5-0.7,21.2-8.4c5.4,7.1,12.5,11.3,19.8,8.2c7.2-3.1,7.3-16.7-2.9-25
		C158.6,14.3,146.6,14.2,135.4,10.6L135.4,10.6z"/>
	<path class="st6" d="M141.1,15.9c-3.8-0.2-7,2.8-7.2,6.6c-0.2,3.8,2.8,7,6.6,7.2c3.8,0.2,7-2.8,7.2-6.6c0-0.1,0-0.2,0-0.3
		C147.8,19.1,144.8,16,141.1,15.9C141.1,15.9,141.1,15.9,141.1,15.9L141.1,15.9z M163.9,15.9c-3.8-0.2-7,2.8-7.2,6.6s2.8,7,6.6,7.2
		c3.8,0.2,7-2.8,7.2-6.6c0-0.1,0-0.2,0-0.3C170.5,19.1,167.6,16,163.9,15.9C163.9,15.9,163.9,15.9,163.9,15.9z"/>
	<path class="st7" d="M141.1,15.9c-3.8-0.2-7,2.8-7.2,6.6c-0.2,3.8,2.8,7,6.6,7.2c3.8,0.2,7-2.8,7.2-6.6c0-0.1,0-0.2,0-0.3
		C147.8,19.1,144.8,16,141.1,15.9C141.1,15.9,141.1,15.9,141.1,15.9L141.1,15.9z M163.9,15.9c-3.8-0.2-7,2.8-7.2,6.6s2.8,7,6.6,7.2
		c3.8,0.2,7-2.8,7.2-6.6c0-0.1,0-0.2,0-0.3C170.5,19.1,167.6,16,163.9,15.9C163.9,15.9,163.9,15.9,163.9,15.9z"/>
	<path class="st8" d="M145.5,21.1c-0.1,1.5-1.4,2.6-2.9,2.5c-1.5-0.1-2.6-1.4-2.5-2.9c0.1-1.4,1.3-2.5,2.7-2.5
		C144.4,18.3,145.6,19.6,145.5,21.1z"/>
	<path class="st8" d="M168.2,21.1c-0.1,1.5-1.4,2.6-2.9,2.5c-1.5-0.1-2.6-1.4-2.5-2.9c0.1-1.4,1.3-2.5,2.7-2.5
		C167.1,18.3,168.3,19.6,168.2,21.1z"/>
	<path class="st8" d="M149.6,29.6c0.2-1.5,0.6-4,2.9-4c2.3,0,2.8,2.5,2.9,4c0.2,2.2-2.9,6.3-2.9,6.3S149.3,31.9,149.6,29.6z"/>
	<path class="st5" d="M144.7,73.4c-1.1,0.1-2,1-2.1,2.1c0-0.8-0.6-1.5-1.5-1.6c-0.1,0-0.2,0-0.3,0c-1.5,0-2,3.1-1.9,5
		c0.1,2.6,2.3,5.4,2.3,5.4c0-1.5,0.5-3,1.2-4.3c0.1,1.8,0.8,3.5,2,4.8c1.1-1.6,1.8-3.3,2.1-5.2c0.4,1.4,0.6,2.8,0.8,4.3
		c1.9-1,2.5-3.4,2.6-4.5c0.1-3.6-0.1-5.1-1.3-5.1c-1-0.1-1.9,0.1-2.1,1.2C146.4,74.1,145.9,73.3,144.7,73.4L144.7,73.4z"/>
	<path class="st5" d="M160.3,73.4c1.1,0.1,2,1,2.1,2.1c0-0.8,0.6-1.6,1.5-1.6c0.1,0,0.2,0,0.3,0c1.5,0,2,3.1,1.9,5
		c-0.1,2.6-2.3,5.4-2.3,5.4c-0.1-1.5-0.5-3-1.2-4.3c-0.1,1.8-0.8,3.5-2,4.8c-1.1-1.6-1.8-3.3-2.1-5.2c-0.4,1.4-0.6,2.8-0.8,4.3
		c-1.6-1-2.5-2.6-2.6-4.5c-0.1-3.6,0.1-5.1,1.4-5.1c1-0.1,1.9,0.1,2.1,1.2C158.6,74.1,159.1,73.3,160.3,73.4L160.3,73.4z"/>
</g>
</svg>
