<?xml version="1.0" encoding="UTF-8" standalone="no"?>
<!-- Created with Inkscape (http://www.inkscape.org/) -->

<svg
   xmlns:dc="http://purl.org/dc/elements/1.1/"
   xmlns:cc="http://creativecommons.org/ns#"
   xmlns:rdf="http://www.w3.org/1999/02/22-rdf-syntax-ns#"
   xmlns:svg="http://www.w3.org/2000/svg"
   xmlns="http://www.w3.org/2000/svg"
   xmlns:sodipodi="http://sodipodi.sourceforge.net/DTD/sodipodi-0.dtd"
   xmlns:inkscape="http://www.inkscape.org/namespaces/inkscape"
   version="1.1"
   id="svg2"
   xml:space="preserve"
   width="94"
   height="66"
   viewBox="0 0 94 65.999999"
   sodipodi:docname="mail.svg"
   inkscape:version="0.92.1 r15371"><metadata
     id="metadata8"><rdf:RDF><cc:Work
         rdf:about=""><dc:format>image/svg+xml</dc:format><dc:type
           rdf:resource="http://purl.org/dc/dcmitype/StillImage" /><dc:title></dc:title></cc:Work></rdf:RDF></metadata><defs
     id="defs6" /><sodipodi:namedview
     pagecolor="#ffffff"
     bordercolor="#666666"
     borderopacity="1"
     objecttolerance="10"
     gridtolerance="10"
     guidetolerance="10"
     inkscape:pageopacity="0"
     inkscape:pageshadow="2"
     inkscape:window-width="1920"
     inkscape:window-height="1057"
     id="namedview4"
     showgrid="false"
     inkscape:zoom="8"
     inkscape:cx="44.846103"
     inkscape:cy="26.243885"
     inkscape:window-x="0"
     inkscape:window-y="0"
     inkscape:window-maximized="1"
     inkscape:current-layer="g10"
     borderlayer="true"
     inkscape:showpageshadow="false"
     fit-margin-top="0"
     fit-margin-left="0"
     fit-margin-right="0"
     fit-margin-bottom="0"
     inkscape:document-units="px" /><g
     id="g10"
     inkscape:groupmode="layer"
     inkscape:label="ink_ext_XXXXXX"
     transform="matrix(1.3333333,0,0,-1.3333333,0,67.334893)"><g
       id="g4565"
       style="fill:#e31f00;fill-opacity:1;stroke-width:1.06221664"
       transform="matrix(0.94000001,0,0,0.94285713,0,0.05720973)"><path
         d="m 60.721614,12.955827 c -0.296263,0 -0.589202,0.103472 -0.827724,0.324405 l -13.909871,12.84768 c -0.482789,0.454638 -0.507578,1.198824 -0.06016,1.687248 0.462836,0.476576 1.2304,0.500092 1.713491,0.04406 L 61.559012,15.01163 c 0.483997,-0.452316 0.50788,-1.208141 0.04837,-1.683705 -0.234894,-0.247695 -0.556249,-0.372093 -0.885767,-0.372093 z"
         style="fill:#e31f00;fill-opacity:1;fill-rule:nonzero;stroke:none;stroke-width:0.10622168"
         id="path14"
         inkscape:connector-curvature="0" /><path
         d="m 14.278236,12.955827 c -0.333024,0 -0.650691,0.124398 -0.885677,0.372093 -0.462926,0.475564 -0.438107,1.231389 0.04486,1.683705 l 13.925138,12.84759 c 0.494791,0.456037 1.263564,0.432521 1.711133,-0.04406 0.461718,-0.488424 0.438108,-1.23261 -0.04607,-1.687248 L 15.103662,13.280232 c -0.236164,-0.220933 -0.532579,-0.324405 -0.825426,-0.324405 z"
         style="fill:#e31f00;fill-opacity:1;fill-rule:nonzero;stroke:none;stroke-width:0.10622168"
         id="path16"
         inkscape:connector-curvature="0" /><path
         d="M 68.953808,1.0011701 H 6.046193 C 2.7148827,1.0011701 0,3.6616336 0,6.9546549 V 47.547687 c 0,3.277989 2.7148827,5.953485 6.046193,5.953485 h 62.907615 c 3.329034,0 6.046193,-2.675496 6.046193,-5.953485 V 6.9546549 c 0,-3.2930213 -2.717159,-5.9534848 -6.046193,-5.9534848 z M 6.046193,51.117397 c -1.9957274,0 -3.6241727,-1.604762 -3.6241727,-3.56971 V 6.9546549 c 0,-1.9767356 1.6284453,-3.569769 3.6241727,-3.569769 h 62.907615 c 2.007336,0 3.624088,1.5930334 3.624088,3.569769 V 47.547687 c 0,1.964948 -1.616752,3.56971 -3.624088,3.56971 z"
         style="fill:#e31f00;fill-opacity:1;fill-rule:nonzero;stroke:none;stroke-width:0.10622168"
         id="path18"
         inkscape:connector-curvature="0" /><path
         d="m 37.504233,21.266267 c -1.616752,0 -3.222923,0.524442 -4.437906,1.572107 L 2.0075265,49.512635 c -0.5077865,0.429246 -0.5562044,1.185041 -0.1180912,1.685134 0.4381132,0.499795 1.2033436,0.535813 1.7111331,0.116093 L 34.647407,24.639541 c 1.548127,-1.325573 4.156757,-1.325573 5.704885,0 l 31.008203,26.629074 c 0.507578,0.428949 1.263352,0.384893 1.713491,-0.11639 0.435628,-0.499795 0.390887,-1.243981 -0.118203,-1.675609 L 41.945464,22.850013 C 40.718389,21.790709 39.11252,21.266267 37.504233,21.266267 Z"
         style="fill:#e31f00;fill-opacity:1;fill-rule:nonzero;stroke:none;stroke-width:0.10622168"
         id="path20"
         inkscape:connector-curvature="0" /></g></g></svg>