<?xml version="1.0" encoding="utf-8"?>
<!-- Generator: Adobe Illustrator 21.1.0, SVG Export Plug-In . SVG Version: 6.00 Build 0)  -->
<svg version="1.1" id="Calque_1" xmlns="http://www.w3.org/2000/svg" xmlns:xlink="http://www.w3.org/1999/xlink" x="0px" y="0px"
	 viewBox="0 0 664.1 1000" style="enable-background:new 0 0 664.1 1000;" xml:space="preserve">
<style type="text/css">
	.st0{fill:#333333;}
</style>
<path class="st0" d="M127,355.5c-22.1,31.2-36.5,65.7-43,103.5H0c7.8-59.9,30.6-114,68.4-162.1L127,355.5z M84,541
	c6.5,36.5,20.9,71,43,103.5l-58.6,58.6C30.6,655,7.8,600.9,0,541H84z M127,763.7l58.5-60.6c31.3,22.1,65.8,36.5,103.6,43v84
	C229.2,823.6,175.1,801.4,127,763.7z M373,169.9c82.1,10.4,151.1,46.9,207.1,109.4c56,62.5,84,136.1,84,220.7s-28,158.2-84,220.7
	s-125,99-207.1,109.4v-84c58.6-10.4,107.8-38.7,147.5-85c39.7-46.3,59.6-100,59.6-161.1s-19.9-114.8-59.6-161.1s-88.9-74.6-147.5-85
	V416L181.6,230.5L373,41V169.9z"/>
</svg>
