<?xml version="1.0" encoding="utf-8"?>
<!-- Generator: Adobe Illustrator 22.0.1, SVG Export Plug-In . SVG Version: 6.00 Build 0)  -->
<svg version="1.1" id="Calque_1" xmlns="http://www.w3.org/2000/svg" xmlns:xlink="http://www.w3.org/1999/xlink" x="0px" y="0px"
	 viewBox="0 0 857.1 1000" style="enable-background:new 0 0 857.1 1000;" xml:space="preserve">
<style type="text/css">
	.st0{fill:#487BD4;}
</style>
<path class="st0" d="M819.2,212.1c20.6,20.6,37.9,61.9,37.9,91.5v642.8c0,29.6-24,53.6-53.5,53.6h-750C24,1000,0,976,0,946.4V53.6
	C0,24,24,0,53.6,0h500c29.5,0,70.8,17.3,91.5,37.9L819.2,212.1z M571.4,75.9v209.8h209.9c-3.4-9.5-8.4-19-12.3-22.9L594.3,88.2
	C590.4,84.3,580.9,79.2,571.4,75.9z M785.7,928.6V357.1H553.6c-29.6,0-53.6-24-53.6-53.5V71.4H71.4v857.2H785.7L785.7,928.6z
	 M214.3,446.4c0-10,7.8-17.8,17.8-17.8H625c10,0,17.9,7.8,17.9,17.8v35.7c0,10.1-7.9,17.9-17.9,17.9H232.1c-10,0-17.8-7.8-17.8-17.9
	L214.3,446.4L214.3,446.4z M625,571.4c10,0,17.9,7.8,17.9,17.9V625c0,10-7.9,17.9-17.9,17.9H232.1c-10,0-17.8-7.9-17.8-17.9v-35.7
	c0-10.1,7.8-17.9,17.8-17.9H625z M625,714.3c10,0,17.9,7.8,17.9,17.8v35.8c0,10-7.9,17.8-17.9,17.8H232.1c-10,0-17.8-7.8-17.8-17.8
	v-35.8c0-10,7.8-17.8,17.8-17.8H625z"/>
</svg>
