<?xml version="1.0" encoding="utf-8"?>
<!-- Generator: Adobe Illustrator 21.1.0, SVG Export Plug-In . SVG Version: 6.00 Build 0)  -->
<svg version="1.1" id="Calque_1" xmlns="http://www.w3.org/2000/svg" xmlns:xlink="http://www.w3.org/1999/xlink" x="0px" y="0px"
	 viewBox="0 0 292 292" style="enable-background:new 0 0 292 292;" xml:space="preserve">
<style type="text/css">
	.st0{fill:url(#SVGID_1_);}
	.st1{fill:url(#SVGID_2_);}
	.st2{fill:#333333;}
</style>
<linearGradient id="SVGID_1_" gradientUnits="userSpaceOnUse" x1="146" y1="1742" x2="146" y2="1470" gradientTransform="matrix(1 0 0 1 0 -1460)">
	<stop  offset="0" style="stop-color:#E8E8E8"/>
	<stop  offset="1" style="stop-color:#F9F9F9"/>
</linearGradient>
<path class="st0" d="M282,10v272H25c-8,0-15-7-15-15V25c0-8,7-15,15-15H282z"/>
<linearGradient id="SVGID_2_" gradientUnits="userSpaceOnUse" x1="146" y1="1752" x2="146" y2="1460" gradientTransform="matrix(1 0 0 1 0 -1460)">
	<stop  offset="0" style="stop-color:#BBBBBB"/>
	<stop  offset="1" style="stop-color:#DCDCDC"/>
</linearGradient>
<path class="st1" d="M282,10v272H25c-8,0-15-7-15-15V25c0-8,7-15,15-15H282z M25,0C11,0,0,11,0,25v242c0,14,11,25,25,25h267V0H25z"
	/>
<path class="st2" d="M195.2,75.3c0,1.3-0.6,2.8-1.7,3.8l-66.6,66.9l66.8,66.8c1,1,1.7,2.6,1.7,3.9c0,1.3-0.6,2.8-1.7,3.8l-8.4,8.4
	c-1,1-2.6,1.7-3.8,1.7c-1.2,0-2.8-0.6-3.9-1.7l-79-79.1c-1-1-1.7-2.6-1.7-3.8c0-1.3,0.6-2.8,1.7-3.8l79-79.1c1-1,2.6-1.6,3.9-1.6
	c1.3,0,2.8,0.6,3.8,1.6l8.4,8.4C194.5,72.3,195.2,73.8,195.2,75.3z"/>
</svg>
