<?xml version="1.0" encoding="utf-8"?>
<!-- Generator: Adobe Illustrator 22.0.1, SVG Export Plug-In . SVG Version: 6.00 Build 0)  -->
<svg version="1.1" id="Calque_1" xmlns="http://www.w3.org/2000/svg" xmlns:xlink="http://www.w3.org/1999/xlink" x="0px" y="0px"
	 viewBox="0 0 810 250.8" style="enable-background:new 0 0 810 250.8;" xml:space="preserve">
<style type="text/css">
	.st0{fill:#FF0000;}
	.st1{fill:none;stroke:#000000;stroke-miterlimit:10;stroke-dasharray:10,10;}
	.st2{fill:#FFFFFF;}
</style>
<path class="st0" d="M470.4,32.5c0,0.4,0.1,0.8,0.3,1.1l21.7,37.5c0.4,0.7,1.1,1.1,1.9,1.1s1.5-0.4,1.9-1.1l21.7-37.5
	c0.2-0.3,0.3-0.7,0.3-1.1c0-0.4-0.1-0.8-0.3-1.1c-0.4-0.7-1.1-1.1-1.9-1.1h-43.3c-0.8,0-1.5,0.4-1.9,1.1
	C470.5,31.7,470.4,32.1,470.4,32.5z"/>
<g>
	<path class="st0" d="M555.3,71.1c-0.4,0.7-1.1,1.1-1.9,1.1h-43.3c-0.8,0-1.5-0.4-1.9-1.1c-0.2-0.3-0.3-0.7-0.3-1.1s0.1-0.8,0.3-1.1
		l21.7-37.5c0.4-0.7,1.1-1.1,1.9-1.1s1.5,0.4,1.9,1.1l21.7,37.5c0.2,0.3,0.3,0.7,0.3,1.1S555.6,70.8,555.3,71.1z"/>
</g>
<g>
	<path d="M499.9,14.2c0.2,0,0.3,0.1,0.5,0.2l1.3,1.4c-0.7,0.9-1.6,1.5-2.6,2s-2.3,0.7-3.7,0.7c-1.3,0-2.4-0.2-3.5-0.7
		c-1-0.4-1.9-1.1-2.6-1.8c-0.7-0.8-1.3-1.7-1.7-2.8c-0.4-1.1-0.6-2.3-0.6-3.6s0.2-2.5,0.6-3.6s1-2,1.8-2.8s1.7-1.4,2.8-1.8
		c1.1-0.4,2.3-0.7,3.6-0.7c1.3,0,2.4,0.2,3.4,0.6s1.8,1,2.5,1.6l-1.1,1.6c-0.1,0.1-0.1,0.2-0.2,0.3c-0.1,0.1-0.2,0.1-0.4,0.1
		c-0.2,0-0.4-0.1-0.6-0.2s-0.4-0.3-0.7-0.5s-0.7-0.3-1.1-0.5c-0.5-0.1-1-0.2-1.7-0.2c-0.8,0-1.6,0.1-2.2,0.4
		c-0.7,0.3-1.3,0.7-1.8,1.2S491,6.3,490.7,7s-0.4,1.6-0.4,2.6s0.1,1.8,0.4,2.6s0.6,1.4,1.1,1.9s1,0.9,1.7,1.2
		c0.6,0.3,1.3,0.4,2.1,0.4c0.4,0,0.8,0,1.2-0.1c0.4,0,0.7-0.1,1-0.2c0.3-0.1,0.6-0.2,0.9-0.4s0.5-0.4,0.8-0.6
		C499.6,14.3,499.7,14.3,499.9,14.2C499.7,14.3,499.8,14.2,499.9,14.2z"/>
	<path d="M509.1,5.8c0.9,0,1.8,0.1,2.5,0.4c0.7,0.3,1.4,0.7,1.9,1.3c0.5,0.5,0.9,1.2,1.2,2s0.4,1.7,0.4,2.6c0,1-0.1,1.9-0.4,2.6
		c-0.3,0.8-0.7,1.5-1.2,2c-0.5,0.6-1.2,1-1.9,1.3s-1.6,0.4-2.5,0.4s-1.8-0.1-2.5-0.4s-1.4-0.7-1.9-1.3c-0.5-0.6-0.9-1.2-1.2-2
		c-0.3-0.8-0.4-1.7-0.4-2.6c0-1,0.1-1.8,0.4-2.6s0.7-1.4,1.2-2c0.5-0.5,1.2-1,1.9-1.3S508.2,5.8,509.1,5.8z M509.1,16.2
		c1,0,1.8-0.3,2.3-1s0.7-1.7,0.7-3s-0.2-2.3-0.7-3s-1.2-1-2.3-1c-1,0-1.8,0.4-2.3,1c-0.5,0.7-0.7,1.7-0.7,3s0.2,2.3,0.7,3
		S508.1,16.2,509.1,16.2z"/>
	<path d="M520.7,0.5v17.8h-3V0.5H520.7z"/>
	<path d="M527.6,2.4c0,0.3-0.1,0.5-0.2,0.7c-0.1,0.2-0.2,0.4-0.4,0.6s-0.4,0.3-0.6,0.4c-0.2,0.1-0.5,0.1-0.7,0.1
		c-0.3,0-0.5,0-0.7-0.1s-0.4-0.2-0.6-0.4s-0.3-0.4-0.4-0.6c-0.1-0.2-0.2-0.5-0.2-0.7c0-0.3,0-0.5,0.2-0.7c0.1-0.2,0.2-0.4,0.4-0.6
		s0.4-0.3,0.6-0.4c0.2-0.1,0.5-0.1,0.7-0.1c0.3,0,0.5,0,0.7,0.1s0.4,0.2,0.6,0.4c0.2,0.2,0.3,0.4,0.4,0.6
		C527.6,1.9,527.6,2.2,527.6,2.4z M527.2,6v12.3h-3V6H527.2z"/>
	<path d="M537.8,8.4c-0.1,0.1-0.2,0.2-0.3,0.3s-0.2,0.1-0.3,0.1s-0.3,0-0.5-0.1s-0.4-0.2-0.6-0.3c-0.2-0.1-0.5-0.2-0.7-0.3
		c-0.3-0.1-0.6-0.1-1-0.1c-0.6,0-1,0.1-1.4,0.4c-0.3,0.2-0.5,0.6-0.5,1c0,0.3,0.1,0.5,0.3,0.7s0.4,0.3,0.7,0.5
		c0.3,0.1,0.6,0.3,1,0.4s0.7,0.2,1.1,0.4c0.4,0.1,0.7,0.3,1.1,0.4c0.4,0.2,0.7,0.4,1,0.6s0.5,0.6,0.7,0.9c0.2,0.4,0.3,0.8,0.3,1.3
		c0,0.6-0.1,1.1-0.3,1.6s-0.5,0.9-0.9,1.3s-0.9,0.6-1.5,0.9c-0.6,0.2-1.3,0.3-2.1,0.3c-0.4,0-0.8,0-1.2-0.1s-0.8-0.2-1.2-0.3
		c-0.4-0.1-0.7-0.3-1-0.5s-0.6-0.4-0.8-0.6l0.7-1.1c0.1-0.1,0.2-0.2,0.3-0.3s0.3-0.1,0.5-0.1s0.4,0.1,0.5,0.2s0.4,0.2,0.6,0.3
		c0.2,0.1,0.5,0.2,0.8,0.3s0.7,0.2,1.1,0.2c0.4,0,0.7,0,0.9-0.1c0.3-0.1,0.5-0.2,0.6-0.3c0.2-0.1,0.3-0.3,0.4-0.5s0.1-0.4,0.1-0.6
		c0-0.3-0.1-0.5-0.3-0.7s-0.4-0.3-0.7-0.5c-0.3-0.1-0.6-0.3-1-0.4c-0.4-0.1-0.7-0.2-1.1-0.4s-0.8-0.3-1.1-0.5
		c-0.4-0.2-0.7-0.4-1-0.7s-0.5-0.6-0.7-1s-0.3-0.8-0.3-1.4c0-0.5,0.1-1,0.3-1.4c0.2-0.4,0.5-0.9,0.9-1.2s0.9-0.6,1.5-0.8
		c0.6-0.2,1.2-0.3,2-0.3s1.6,0.1,2.3,0.4s1.3,0.6,1.7,1.1L537.8,8.4z"/>
</g>
<g>
	<g>
		<polyline class="st1" points="379.2,244.8 379.2,249.8 374.2,249.8 		"/>
		<line class="st1" x1="364.3" y1="249.8" x2="11.2" y2="249.8"/>
		<polyline class="st1" points="6.2,249.8 1.2,249.8 1.2,244.8 		"/>
		<line class="st1" x1="1.2" y1="235.4" x2="1.2" y2="89.5"/>
		<polyline class="st1" points="1.2,84.8 1.2,79.8 6.2,79.8 		"/>
		<line class="st1" x1="16.2" y1="79.8" x2="369.3" y2="79.8"/>
		<polyline class="st1" points="374.2,79.8 379.2,79.8 379.2,84.8 		"/>
		<line class="st1" x1="379.2" y1="94.2" x2="379.2" y2="240.1"/>
	</g>
</g>
<g>
	<g>
		<polyline class="st1" points="808.8,244.8 808.8,249.8 803.8,249.8 		"/>
		<line class="st1" x1="793.8" y1="249.8" x2="440.7" y2="249.8"/>
		<polyline class="st1" points="435.8,249.8 430.8,249.8 430.8,244.8 		"/>
		<line class="st1" x1="430.8" y1="235.4" x2="430.8" y2="89.5"/>
		<polyline class="st1" points="430.8,84.8 430.8,79.8 435.8,79.8 		"/>
		<line class="st1" x1="445.7" y1="79.8" x2="798.8" y2="79.8"/>
		<polyline class="st1" points="803.8,79.8 808.8,79.8 808.8,84.8 		"/>
		<line class="st1" x1="808.8" y1="94.2" x2="808.8" y2="240.1"/>
	</g>
</g>
<g>
	<g>
		<rect x="11" y="90.6" class="st2" width="149.5" height="149.5"/>
		<path d="M160.2,90.8v149h-149v-149H160.2 M160.8,90.3h-150v150h150V90.3L160.8,90.3z"/>
	</g>
	<g>
		<rect x="219" y="90" class="st2" width="149.5" height="74.5"/>
		<path d="M368.2,90.3v74h-149v-74H368.2 M368.8,89.8h-150v75h150V89.8L368.8,89.8z"/>
	</g>
	<g>
		<rect x="219" y="165" class="st2" width="149.5" height="74.5"/>
		<path d="M368.2,165.3v74h-149v-74H368.2 M368.8,164.8h-150v75h150V164.8L368.8,164.8z"/>
	</g>
	<g>
		<rect x="441" y="90.6" class="st2" width="149.5" height="149.5"/>
		<path d="M590.2,90.8v149h-149v-149H590.2 M590.8,90.3h-150v150h150V90.3L590.8,90.3z"/>
	</g>
	<g>
		<rect x="649" y="89.6" class="st2" width="149.5" height="149.5"/>
		<path d="M798.2,89.8v149h-149v-149H798.2 M798.8,89.3h-150v150h150V89.3L798.8,89.3z"/>
	</g>
	<g>
		<path d="M661.5,172.4h-3v-15.9h3V172.4z"/>
		<path d="M665,172.4v-11.3h1.7c0.4,0,0.6,0.2,0.7,0.5l0.2,0.9c0.2-0.2,0.5-0.4,0.7-0.6c0.3-0.2,0.5-0.4,0.8-0.5s0.6-0.2,0.9-0.3
			s0.7-0.1,1.1-0.1c0.6,0,1.2,0.1,1.6,0.3c0.5,0.2,0.9,0.5,1.2,0.9s0.6,0.8,0.7,1.4c0.2,0.5,0.2,1.1,0.2,1.7v7.2h-2.7v-7.2
			c0-0.7-0.2-1.2-0.5-1.6s-0.8-0.6-1.4-0.6c-0.5,0-0.9,0.1-1.3,0.3c-0.4,0.2-0.8,0.5-1.2,0.9v8.2L665,172.4L665,172.4z"/>
		<path d="M681.2,172.5c-1,0-1.7-0.3-2.3-0.8c-0.5-0.6-0.8-1.3-0.8-2.3v-6.3H677c-0.1,0-0.3,0-0.4-0.1c-0.1-0.1-0.2-0.2-0.2-0.4
			v-1.1l1.8-0.3l0.6-3.1c0-0.1,0.1-0.3,0.2-0.3c0.1-0.1,0.2-0.1,0.4-0.1h1.4v3.6h3v1.9h-3v6.1c0,0.4,0.1,0.6,0.3,0.8
			s0.4,0.3,0.7,0.3c0.2,0,0.3,0,0.4-0.1c0.1-0.1,0.2-0.1,0.3-0.1s0.2-0.1,0.2-0.1c0.1,0,0.1-0.1,0.2-0.1c0.1,0,0.1,0,0.2,0.1
			c0.1,0,0.1,0.1,0.2,0.2l0.8,1.3c-0.4,0.3-0.9,0.6-1.4,0.7C682.3,172.5,681.7,172.5,681.2,172.5z"/>
		<path d="M690.6,160.9c0.7,0,1.4,0.1,2,0.3s1.1,0.6,1.5,1s0.8,1,1,1.6s0.4,1.4,0.4,2.2c0,0.2,0,0.4,0,0.5s-0.1,0.2-0.1,0.3
			s-0.1,0.1-0.2,0.2c-0.1,0-0.2,0-0.3,0h-7c0.1,1.2,0.4,2,0.9,2.6s1.3,0.8,2.2,0.8c0.4,0,0.8-0.1,1.1-0.2c0.3-0.1,0.6-0.2,0.8-0.3
			s0.4-0.2,0.6-0.3c0.2-0.1,0.4-0.2,0.5-0.2s0.2,0,0.3,0.1s0.2,0.1,0.2,0.2l0.8,1c-0.3,0.4-0.6,0.6-1,0.9c-0.4,0.3-0.8,0.4-1.2,0.6
			c-0.4,0.1-0.8,0.2-1.2,0.3s-0.8,0.1-1.2,0.1c-0.8,0-1.5-0.1-2.2-0.4s-1.3-0.6-1.8-1.2c-0.5-0.5-0.9-1.1-1.2-1.9
			c-0.3-0.8-0.4-1.6-0.4-2.6c0-0.8,0.1-1.5,0.4-2.2c0.2-0.7,0.6-1.3,1.1-1.8s1-0.9,1.7-1.2C689,161.1,689.8,160.9,690.6,160.9z
			 M690.7,162.9c-0.8,0-1.4,0.2-1.9,0.7s-0.7,1.1-0.9,1.9h5.1c0-0.4,0-0.7-0.1-1s-0.2-0.6-0.4-0.8s-0.4-0.4-0.7-0.6
			C691.5,162.9,691.1,162.9,690.7,162.9z"/>
		<path d="M697.7,172.4v-11.3h1.6c0.3,0,0.5,0.1,0.6,0.2s0.2,0.3,0.2,0.5l0.2,1.4c0.4-0.7,0.9-1.2,1.4-1.6s1.2-0.6,1.8-0.6
			s1,0.1,1.4,0.4l-0.4,2c0,0.1-0.1,0.2-0.1,0.3c-0.1,0.1-0.2,0.1-0.3,0.1s-0.3,0-0.5-0.1s-0.4-0.1-0.8-0.1c-0.6,0-1,0.2-1.5,0.5
			s-0.7,0.8-1,1.4v7L697.7,172.4L697.7,172.4L697.7,172.4z"/>
		<path d="M712.4,172.4h-2.5l-4.5-11.3h2.3c0.2,0,0.4,0,0.5,0.1s0.2,0.2,0.3,0.4l2.2,6c0.1,0.4,0.2,0.7,0.3,1s0.2,0.7,0.2,1
			c0.1-0.3,0.1-0.7,0.2-1c0.1-0.3,0.2-0.7,0.3-1l2.2-6c0.1-0.1,0.1-0.3,0.3-0.4c0.1-0.1,0.3-0.1,0.5-0.1h2.1L712.4,172.4z"/>
		<path d="M722.8,160.9c0.7,0,1.4,0.1,2,0.3s1.1,0.6,1.5,1s0.8,1,1,1.6s0.4,1.4,0.4,2.2c0,0.2,0,0.4,0,0.5s-0.1,0.2-0.1,0.3
			s-0.1,0.1-0.2,0.2c-0.1,0-0.2,0-0.3,0h-7c0.1,1.2,0.4,2,0.9,2.6c0.5,0.5,1.3,0.8,2.2,0.8c0.4,0,0.8-0.1,1.1-0.2
			c0.3-0.1,0.6-0.2,0.8-0.3s0.4-0.2,0.6-0.3c0.2-0.1,0.4-0.2,0.5-0.2s0.2,0,0.3,0.1c0.1,0,0.2,0.1,0.2,0.2l0.8,1
			c-0.3,0.4-0.6,0.6-1,0.9c-0.4,0.2-0.8,0.4-1.2,0.6c-0.4,0.1-0.8,0.2-1.2,0.3s-0.8,0.1-1.2,0.1c-0.8,0-1.5-0.1-2.2-0.4
			s-1.3-0.6-1.8-1.2c-0.5-0.5-0.9-1.1-1.2-1.9c-0.3-0.8-0.4-1.6-0.4-2.6c0-0.8,0.1-1.5,0.4-2.2c0.2-0.7,0.6-1.3,1.1-1.8
			s1-0.9,1.7-1.2C721.2,161.1,721.9,160.9,722.8,160.9z M722.8,162.9c-0.8,0-1.4,0.2-1.9,0.7s-0.7,1.1-0.9,1.9h5.1
			c0-0.4,0-0.7-0.1-1s-0.2-0.6-0.4-0.8s-0.4-0.4-0.7-0.6C723.6,162.9,723.2,162.9,722.8,162.9z"/>
		<path d="M729.9,172.4v-11.3h1.7c0.4,0,0.6,0.2,0.7,0.5l0.2,0.9c0.2-0.2,0.5-0.4,0.7-0.6s0.5-0.4,0.8-0.5s0.6-0.2,0.9-0.3
			c0.3-0.1,0.7-0.1,1.1-0.1c0.6,0,1.2,0.1,1.6,0.3c0.5,0.2,0.9,0.5,1.2,0.9s0.6,0.8,0.7,1.4c0.1,0.6,0.2,1.1,0.2,1.7v7.2H737v-7.2
			c0-0.7-0.2-1.2-0.5-1.6s-0.8-0.6-1.4-0.6c-0.5,0-0.9,0.1-1.3,0.3c-0.4,0.2-0.8,0.5-1.2,0.9v8.2L729.9,172.4L729.9,172.4
			L729.9,172.4z"/>
		<path d="M746.1,172.5c-1,0-1.7-0.3-2.3-0.8c-0.5-0.6-0.8-1.3-0.8-2.3v-6.3h-1.1c-0.1,0-0.3,0-0.4-0.1c-0.1-0.1-0.2-0.2-0.2-0.4
			v-1.1l1.8-0.3l0.6-3.1c0-0.1,0.1-0.3,0.2-0.3c0.1-0.1,0.2-0.1,0.4-0.1h1.4v3.6h3v1.9h-3v6.1c0,0.4,0.1,0.6,0.3,0.8
			s0.4,0.3,0.7,0.3c0.2,0,0.3,0,0.4-0.1c0.1,0,0.2-0.1,0.3-0.1s0.2-0.1,0.2-0.1c0.1,0,0.1-0.1,0.2-0.1c0.1,0,0.1,0,0.2,0.1
			c0.1,0,0.1,0.1,0.2,0.2l0.8,1.3c-0.4,0.3-0.9,0.6-1.4,0.7C747.1,172.4,746.6,172.5,746.1,172.5z"/>
		<path d="M754.2,157.8c0,0.2,0,0.5-0.1,0.7s-0.2,0.4-0.4,0.5s-0.3,0.3-0.6,0.4c-0.2,0.1-0.4,0.1-0.7,0.1c-0.2,0-0.5,0-0.7-0.1
			s-0.4-0.2-0.5-0.4s-0.3-0.3-0.4-0.5s-0.1-0.4-0.1-0.7c0-0.2,0-0.5,0.1-0.7s0.2-0.4,0.4-0.5c0.2-0.2,0.3-0.3,0.5-0.4
			c0.2-0.1,0.4-0.1,0.7-0.1c0.2,0,0.5,0,0.7,0.1s0.4,0.2,0.6,0.4c0.2,0.2,0.3,0.3,0.4,0.5C754.1,157.3,754.2,157.6,754.2,157.8z
			 M753.8,161.1v11.3h-2.7v-11.3H753.8z"/>
		<path d="M761.7,160.9c0.8,0,1.6,0.1,2.3,0.4s1.3,0.7,1.8,1.2s0.9,1.1,1.1,1.8c0.3,0.7,0.4,1.5,0.4,2.4s-0.1,1.7-0.4,2.4
			c-0.3,0.7-0.6,1.3-1.1,1.8s-1.1,0.9-1.8,1.2s-1.5,0.4-2.3,0.4s-1.6-0.1-2.3-0.4s-1.3-0.7-1.8-1.2s-0.9-1.1-1.1-1.8
			s-0.4-1.5-0.4-2.4s0.1-1.7,0.4-2.4s0.6-1.3,1.1-1.8s1.1-0.9,1.8-1.2S760.8,160.9,761.7,160.9z M761.7,170.4c0.9,0,1.6-0.3,2.1-0.9
			s0.7-1.6,0.7-2.8s-0.2-2.1-0.7-2.8c-0.5-0.6-1.1-1-2.1-1s-1.7,0.3-2.1,1c-0.5,0.6-0.7,1.6-0.7,2.8s0.2,2.1,0.7,2.8
			C760,170.1,760.7,170.4,761.7,170.4z"/>
		<path d="M769.3,172.4v-11.3h1.7c0.4,0,0.6,0.2,0.7,0.5l0.2,0.9c0.2-0.2,0.5-0.4,0.7-0.6c0.3-0.2,0.5-0.4,0.8-0.5s0.6-0.2,0.9-0.3
			s0.7-0.1,1.1-0.1c0.6,0,1.2,0.1,1.6,0.3c0.5,0.2,0.9,0.5,1.2,0.9s0.6,0.8,0.7,1.4c0.2,0.5,0.2,1.1,0.2,1.7v7.2h-2.7v-7.2
			c0-0.7-0.2-1.2-0.5-1.6s-0.8-0.6-1.4-0.6c-0.5,0-0.9,0.1-1.3,0.3c-0.4,0.2-0.8,0.5-1.2,0.9v8.2L769.3,172.4L769.3,172.4z"/>
		<path d="M788.6,163.3c-0.1,0.1-0.2,0.2-0.2,0.2c-0.1,0-0.2,0.1-0.3,0.1s-0.3,0-0.4-0.1s-0.3-0.2-0.5-0.2c-0.2-0.1-0.4-0.2-0.7-0.2
			s-0.6-0.1-0.9-0.1c-0.5,0-1,0.1-1.3,0.3s-0.5,0.5-0.5,0.9c0,0.2,0.1,0.4,0.2,0.6c0.1,0.2,0.4,0.3,0.6,0.4s0.6,0.2,0.9,0.3
			c0.3,0.1,0.7,0.2,1,0.3s0.7,0.3,1,0.4c0.3,0.1,0.6,0.3,0.9,0.6c0.3,0.2,0.5,0.5,0.6,0.8c0.2,0.3,0.2,0.7,0.2,1.2s-0.1,1-0.3,1.5
			s-0.5,0.9-0.9,1.2s-0.9,0.6-1.4,0.8s-1.2,0.3-1.9,0.3c-0.4,0-0.8,0-1.1-0.1s-0.7-0.2-1.1-0.3c-0.3-0.1-0.7-0.3-0.9-0.4
			c-0.3-0.2-0.5-0.4-0.8-0.5l0.6-1c0.1-0.1,0.2-0.2,0.3-0.3s0.2-0.1,0.4-0.1s0.3,0,0.5,0.1s0.3,0.2,0.5,0.3s0.4,0.2,0.7,0.3
			s0.6,0.1,1,0.1c0.3,0,0.6,0,0.8-0.1s0.4-0.2,0.6-0.3c0.2-0.1,0.3-0.3,0.3-0.4c0.1-0.2,0.1-0.3,0.1-0.5c0-0.3-0.1-0.5-0.2-0.6
			c-0.2-0.2-0.4-0.3-0.6-0.4c-0.3-0.1-0.6-0.2-0.9-0.3c-0.3-0.1-0.7-0.2-1-0.3s-0.7-0.3-1-0.4c-0.3-0.2-0.6-0.4-0.9-0.6
			c-0.3-0.2-0.5-0.5-0.6-0.9c-0.2-0.4-0.2-0.8-0.2-1.3s0.1-0.9,0.3-1.3s0.5-0.8,0.8-1.1s0.8-0.6,1.3-0.7c0.5-0.2,1.1-0.3,1.8-0.3
			c0.8,0,1.5,0.1,2.1,0.4s1.2,0.6,1.6,1L788.6,163.3z"/>
	</g>
	<g>
		<path d="M33.4,167.9c0.2,0,0.3,0.1,0.4,0.2l1.2,1.3c-0.6,0.8-1.4,1.4-2.4,1.8c-0.9,0.4-2.1,0.6-3.4,0.6c-1.2,0-2.2-0.2-3.2-0.6
			c-1-0.4-1.7-1-2.4-1.7c-0.7-0.7-1.2-1.6-1.5-2.6c-0.4-1-0.5-2.1-0.5-3.3s0.2-2.3,0.6-3.3s1-1.8,1.7-2.6c0.7-0.7,1.6-1.3,2.6-1.7
			s2.1-0.6,3.3-0.6c1.2,0,2.2,0.2,3.1,0.6c0.9,0.4,1.6,0.9,2.3,1.5l-1,1.4c-0.1,0.1-0.1,0.2-0.2,0.2c-0.1,0.1-0.2,0.1-0.4,0.1
			s-0.3-0.1-0.5-0.2c-0.2-0.1-0.4-0.3-0.7-0.4c-0.3-0.2-0.6-0.3-1-0.4c-0.4-0.1-0.9-0.2-1.6-0.2s-1.4,0.1-2.1,0.4
			c-0.6,0.3-1.2,0.6-1.6,1.1c-0.5,0.5-0.8,1.1-1.1,1.8c-0.3,0.7-0.4,1.5-0.4,2.3c0,0.9,0.1,1.7,0.4,2.4s0.6,1.3,1,1.8
			s0.9,0.8,1.5,1.1s1.2,0.4,1.9,0.4c0.4,0,0.8,0,1.1-0.1c0.3,0,0.6-0.1,0.9-0.2c0.3-0.1,0.5-0.2,0.8-0.4c0.3-0.2,0.5-0.3,0.7-0.6
			c0.1-0.1,0.2-0.1,0.2-0.2C33.1,167.7,33.3,167.9,33.4,167.9z"/>
		<path d="M41.9,160.2c0.8,0,1.6,0.1,2.3,0.4s1.3,0.7,1.8,1.2s0.9,1.1,1.1,1.8s0.4,1.5,0.4,2.4s-0.1,1.7-0.4,2.4s-0.6,1.3-1.1,1.8
			s-1.1,0.9-1.8,1.2s-1.5,0.4-2.3,0.4s-1.6-0.1-2.3-0.4c-0.7-0.3-1.3-0.7-1.8-1.2s-0.9-1.1-1.1-1.8c-0.3-0.7-0.4-1.5-0.4-2.4
			s0.1-1.7,0.4-2.4c0.3-0.7,0.6-1.3,1.1-1.8s1.1-0.9,1.8-1.2C40.2,160.3,41,160.2,41.9,160.2z M41.9,169.7c0.9,0,1.6-0.3,2.1-0.9
			s0.7-1.6,0.7-2.8s-0.2-2.1-0.7-2.8c-0.5-0.6-1.1-1-2.1-1s-1.7,0.3-2.1,1c-0.5,0.6-0.7,1.6-0.7,2.8s0.2,2.1,0.7,2.8
			C40.2,169.4,40.9,169.7,41.9,169.7z"/>
		<path d="M49.5,171.6v-11.3h1.7c0.4,0,0.6,0.2,0.7,0.5l0.2,0.8c0.2-0.2,0.4-0.4,0.6-0.6c0.2-0.2,0.4-0.3,0.7-0.5s0.5-0.2,0.8-0.3
			s0.6-0.1,0.9-0.1c0.7,0,1.3,0.2,1.8,0.6c0.5,0.4,0.8,0.9,1,1.5c0.2-0.4,0.4-0.7,0.7-1s0.6-0.5,0.9-0.7c0.3-0.2,0.7-0.3,1-0.4
			s0.7-0.1,1.1-0.1c0.6,0,1.2,0.1,1.7,0.3s0.9,0.5,1.2,0.8c0.3,0.4,0.6,0.8,0.8,1.3s0.3,1.1,0.3,1.8v7.2h-2.7v-7.2
			c0-0.7-0.2-1.3-0.5-1.6c-0.3-0.4-0.8-0.5-1.4-0.5c-0.3,0-0.5,0-0.8,0.1c-0.2,0.1-0.4,0.2-0.6,0.4c-0.2,0.2-0.3,0.4-0.4,0.7
			s-0.2,0.6-0.2,0.9v7.2h-2.7v-7.2c0-0.8-0.2-1.3-0.5-1.7S55,162,54.5,162c-0.4,0-0.8,0.1-1.1,0.3s-0.7,0.5-1,0.8v8.3h-2.9
			C49.5,171.4,49.5,171.6,49.5,171.6z"/>
		<path d="M68.1,175.3v-15h1.7c0.2,0,0.3,0,0.5,0.1s0.2,0.2,0.2,0.4l0.2,1c0.5-0.5,1-0.9,1.6-1.3c0.6-0.3,1.3-0.5,2.1-0.5
			c0.6,0,1.2,0.1,1.7,0.4c0.5,0.3,0.9,0.6,1.3,1.1s0.7,1.1,0.9,1.8c0.2,0.7,0.3,1.5,0.3,2.5c0,0.8-0.1,1.6-0.3,2.3
			c-0.2,0.7-0.6,1.3-1,1.9c-0.4,0.5-0.9,0.9-1.5,1.2s-1.3,0.4-2,0.4c-0.6,0-1.2-0.1-1.6-0.3s-0.8-0.5-1.2-0.8v4.6h-2.9
			C68.1,175.1,68.1,175.3,68.1,175.3z M73.3,162.3c-0.6,0-1,0.1-1.4,0.4c-0.4,0.2-0.8,0.6-1.1,1v5.1c0.3,0.4,0.6,0.6,1,0.8
			s0.8,0.2,1.2,0.2c0.4,0,0.8-0.1,1.1-0.2c0.3-0.2,0.6-0.4,0.8-0.7s0.4-0.7,0.5-1.2s0.2-1,0.2-1.7s-0.1-1.2-0.2-1.7
			s-0.3-0.8-0.5-1.1s-0.4-0.5-0.7-0.6C74,162.3,73.7,162.3,73.3,162.3z"/>
		<path d="M84.2,171.8c-1,0-1.7-0.3-2.3-0.8c-0.5-0.6-0.8-1.3-0.8-2.3v-6.3H80c-0.1,0-0.3,0-0.4-0.1s-0.2-0.2-0.2-0.4v-1.1l1.8-0.3
			l0.6-3.1c0-0.1,0.1-0.3,0.2-0.3c0.1-0.1,0.2-0.1,0.4-0.1h1.4v3.6h3v1.9h-3v6.1c0,0.4,0.1,0.6,0.3,0.8c0.2,0.2,0.4,0.3,0.7,0.3
			c0.2,0,0.3,0,0.4-0.1c0.1,0,0.2-0.1,0.3-0.1c0.1,0,0.2-0.1,0.2-0.1c0.1,0,0.1-0.1,0.2-0.1s0.1,0,0.2,0.1c0.1,0,0.1,0.1,0.2,0.2
			l0.8,1.3c-0.4,0.3-0.9,0.6-1.4,0.7C85.2,171.7,84.8,171.8,84.2,171.8z"/>
		<path d="M97.9,171.6h-1.2c-0.3,0-0.5,0-0.6-0.1s-0.3-0.2-0.3-0.5l-0.2-0.8c-0.3,0.3-0.6,0.5-0.8,0.7c-0.3,0.2-0.6,0.4-0.9,0.5
			s-0.6,0.2-0.9,0.3c-0.5,0.1-0.9,0.1-1.3,0.1c-0.5,0-0.9-0.1-1.3-0.2s-0.8-0.3-1-0.6c-0.3-0.3-0.5-0.6-0.7-1s-0.2-0.8-0.2-1.3
			c0-0.4,0.1-0.8,0.3-1.3c0.2-0.4,0.6-0.8,1.1-1.1s1.2-0.6,2.1-0.8s1.9-0.3,3.2-0.3v-0.7c0-0.8-0.2-1.3-0.5-1.7s-0.8-0.5-1.4-0.5
			c-0.4,0-0.8,0.1-1.1,0.2c-0.3,0.1-0.5,0.2-0.8,0.3c-0.2,0.1-0.4,0.2-0.6,0.3s-0.4,0.2-0.6,0.2s-0.3,0-0.5-0.1
			c-0.1-0.1-0.2-0.2-0.3-0.4l-0.4-0.9c1.3-1.2,2.9-1.8,4.7-1.8c0.7,0,1.2,0.1,1.8,0.3c0.5,0.2,1,0.5,1.3,0.9s0.6,0.8,0.8,1.4
			c0.2,0.6,0.3,1.1,0.3,1.8V171.6z M92.6,169.9c0.3,0,0.5,0,0.8-0.1c0.2-0.1,0.5-0.1,0.7-0.2s0.4-0.2,0.6-0.4
			c0.2-0.1,0.4-0.3,0.6-0.5v-1.9c-0.8,0-1.5,0-2,0.1s-1,0.2-1.3,0.4s-0.6,0.3-0.7,0.5s-0.2,0.4-0.2,0.7c0,0.5,0.1,0.8,0.4,1
			C91.8,169.8,92.1,169.9,92.6,169.9z"/>
		<path d="M100.6,171.6v-16.3h2.7v6.4c0.4-0.5,1-0.9,1.5-1.1c0.6-0.3,1.2-0.4,2-0.4c0.6,0,1.2,0.1,1.7,0.4s0.9,0.6,1.3,1.1
			s0.7,1.1,0.9,1.8c0.2,0.7,0.3,1.5,0.3,2.5c0,0.8-0.1,1.6-0.3,2.3c-0.2,0.7-0.6,1.3-1,1.9c-0.4,0.5-0.9,0.9-1.5,1.2s-1.3,0.4-2,0.4
			c-0.3,0-0.7,0-0.9-0.1c-0.3-0.1-0.5-0.2-0.8-0.3c-0.2-0.1-0.5-0.3-0.7-0.5s-0.4-0.4-0.6-0.6l-0.1,0.8c0,0.2-0.1,0.3-0.2,0.4
			s-0.3,0.1-0.4,0.1C102.5,171.6,100.6,171.6,100.6,171.6z M105.8,162.3c-0.6,0-1,0.1-1.4,0.4c-0.4,0.2-0.8,0.6-1.1,1v5.1
			c0.3,0.4,0.6,0.6,1,0.8s0.8,0.2,1.2,0.2c0.4,0,0.8-0.1,1.1-0.2c0.3-0.2,0.6-0.4,0.8-0.7c0.2-0.3,0.4-0.7,0.5-1.2s0.2-1,0.2-1.7
			s-0.1-1.2-0.2-1.7s-0.3-0.8-0.5-1.1s-0.4-0.5-0.7-0.6C106.5,162.3,106.2,162.3,105.8,162.3z"/>
		<path d="M116.4,157.1c0,0.2,0,0.5-0.1,0.7s-0.2,0.4-0.4,0.5s-0.3,0.3-0.6,0.4c-0.2,0.1-0.4,0.1-0.7,0.1c-0.2,0-0.5,0-0.7-0.1
			s-0.4-0.2-0.5-0.4c-0.2-0.2-0.3-0.3-0.4-0.5s-0.1-0.4-0.1-0.7c0-0.2,0-0.5,0.1-0.7s0.2-0.4,0.4-0.5c0.2-0.2,0.3-0.3,0.5-0.4
			c0.2-0.1,0.4-0.1,0.7-0.1c0.2,0,0.5,0,0.7,0.1s0.4,0.2,0.6,0.4s0.3,0.3,0.4,0.5S116.4,156.8,116.4,157.1z M116,160.3v11.3h-2.7
			v-11.3H116z"/>
		<path d="M121.9,155.3v16.3h-2.7v-16.3H121.9z"/>
		<path d="M128.3,157.1c0,0.2,0,0.5-0.1,0.7s-0.2,0.4-0.4,0.5s-0.3,0.3-0.6,0.4c-0.2,0.1-0.4,0.1-0.7,0.1c-0.2,0-0.5,0-0.7-0.1
			s-0.4-0.2-0.5-0.4c-0.2-0.2-0.3-0.3-0.4-0.5s-0.1-0.4-0.1-0.7c0-0.2,0-0.5,0.1-0.7s0.2-0.4,0.4-0.5c0.2-0.2,0.3-0.3,0.5-0.4
			c0.2-0.1,0.4-0.1,0.7-0.1c0.2,0,0.5,0,0.7,0.1s0.4,0.2,0.6,0.4s0.3,0.3,0.4,0.5S128.3,156.8,128.3,157.1z M127.9,160.3v11.3h-2.7
			v-11.3H127.9z"/>
		<path d="M134.7,171.8c-1,0-1.7-0.3-2.3-0.8c-0.5-0.6-0.8-1.3-0.8-2.3v-6.3h-1.1c-0.1,0-0.3,0-0.4-0.1c-0.1-0.1-0.2-0.2-0.2-0.4
			v-1.1l1.8-0.3l0.6-3.1c0-0.1,0.1-0.3,0.2-0.3c0.1-0.1,0.2-0.1,0.4-0.1h1.4v3.6h3v1.9h-3v6.1c0,0.4,0.1,0.6,0.3,0.8
			s0.4,0.3,0.7,0.3c0.2,0,0.3,0,0.4-0.1c0.1,0,0.2-0.1,0.3-0.1s0.2-0.1,0.2-0.1c0.1,0,0.1-0.1,0.2-0.1c0.1,0,0.1,0,0.2,0.1
			c0.1,0,0.1,0.1,0.2,0.2l0.8,1.3c-0.4,0.3-0.9,0.6-1.4,0.7C135.7,171.7,135.2,171.8,134.7,171.8z"/>
		<path d="M144.1,160.2c0.7,0,1.4,0.1,2,0.3s1.1,0.6,1.5,1s0.8,1,1,1.6s0.4,1.4,0.4,2.2c0,0.2,0,0.4,0,0.5s-0.1,0.2-0.1,0.3
			s-0.1,0.1-0.2,0.2c-0.1,0-0.2,0-0.3,0h-7c0.1,1.2,0.4,2,0.9,2.6c0.5,0.5,1.3,0.8,2.2,0.8c0.4,0,0.8-0.1,1.1-0.2
			c0.3-0.1,0.6-0.2,0.8-0.3s0.4-0.2,0.6-0.3c0.2-0.1,0.4-0.2,0.5-0.2s0.2,0,0.3,0.1s0.2,0.1,0.2,0.2l0.8,1c-0.3,0.4-0.6,0.6-1,0.9
			c-0.4,0.3-0.8,0.4-1.2,0.6c-0.4,0.1-0.8,0.2-1.2,0.3s-0.8,0.1-1.2,0.1c-0.8,0-1.5-0.1-2.2-0.4s-1.3-0.6-1.8-1.2
			c-0.5-0.5-0.9-1.1-1.2-1.9c-0.3-0.8-0.4-1.6-0.4-2.6c0-0.8,0.1-1.5,0.4-2.2c0.2-0.7,0.6-1.3,1.1-1.8s1-0.9,1.7-1.2
			C142.5,160.3,143.3,160.2,144.1,160.2z M144.2,162.1c-0.8,0-1.4,0.2-1.9,0.7s-0.7,1.1-0.9,1.9h5.1c0-0.4,0-0.7-0.1-1
			s-0.2-0.6-0.4-0.8s-0.4-0.4-0.7-0.6S144.6,162.1,144.2,162.1z M148,155.5l-2.7,2.9c-0.1,0.1-0.3,0.2-0.4,0.3
			c-0.1,0.1-0.3,0.1-0.5,0.1h-1.6l1.6-2.7c0.1-0.2,0.2-0.3,0.4-0.4c0.1-0.1,0.4-0.1,0.7-0.1h2.5V155.5z"/>
	</g>
	<g>
		<path d="M275.5,135.4h-2.3c-0.3,0-0.5-0.1-0.6-0.2s-0.3-0.3-0.4-0.5l-1.2-3.2h-6.6l-1.2,3.2c-0.1,0.2-0.2,0.3-0.3,0.5
			c-0.1,0.2-0.4,0.2-0.6,0.2H260l6.2-15.9h3L275.5,135.4z M265.2,129.4h5.1l-1.9-5.3c-0.1-0.2-0.2-0.5-0.3-0.8
			c-0.1-0.3-0.2-0.7-0.3-1c-0.1,0.4-0.2,0.7-0.3,1s-0.2,0.6-0.3,0.8L265.2,129.4z"/>
		<path d="M285,126.5c-0.1,0.1-0.2,0.2-0.2,0.2c-0.1,0.1-0.2,0.1-0.3,0.1c-0.1,0-0.3,0-0.4-0.1s-0.3-0.2-0.5-0.3
			c-0.2-0.1-0.4-0.2-0.7-0.3c-0.3-0.1-0.6-0.1-0.9-0.1c-0.5,0-0.9,0.1-1.3,0.3c-0.4,0.2-0.7,0.4-0.9,0.7s-0.4,0.7-0.5,1.2
			c-0.1,0.5-0.2,1-0.2,1.6s0.1,1.1,0.2,1.6s0.3,0.9,0.6,1.2c0.2,0.3,0.5,0.6,0.9,0.7s0.7,0.2,1.2,0.2s0.8-0.1,1.1-0.2
			s0.5-0.2,0.7-0.4c0.2-0.1,0.3-0.2,0.5-0.4c0.1-0.1,0.3-0.2,0.5-0.2s0.4,0.1,0.5,0.3l0.8,1c-0.3,0.4-0.6,0.6-1,0.9
			s-0.7,0.4-1.1,0.6c-0.4,0.1-0.8,0.2-1.2,0.3c-0.4,0.1-0.8,0.1-1.2,0.1c-0.7,0-1.4-0.1-2-0.4c-0.6-0.3-1.2-0.6-1.6-1.1
			c-0.5-0.5-0.8-1.1-1.1-1.8c-0.3-0.7-0.4-1.5-0.4-2.5c0-0.8,0.1-1.6,0.4-2.3c0.2-0.7,0.6-1.3,1.1-1.8s1-0.9,1.7-1.2
			s1.5-0.4,2.4-0.4c0.8,0,1.6,0.1,2.2,0.4s1.2,0.7,1.7,1.2L285,126.5z"/>
		<path d="M287.5,135.4V119h2.7v6.3c0.4-0.4,0.9-0.8,1.5-1c0.5-0.3,1.1-0.4,1.9-0.4c0.6,0,1.2,0.1,1.6,0.3c0.5,0.2,0.9,0.5,1.2,0.9
			c0.3,0.4,0.6,0.8,0.7,1.4s0.2,1.1,0.2,1.7v7.2h-2.7v-7.2c0-0.7-0.2-1.2-0.5-1.6s-0.8-0.6-1.4-0.6c-0.5,0-0.9,0.1-1.3,0.3
			c-0.4,0.2-0.8,0.5-1.2,0.9v8.2C290.2,135.4,287.5,135.4,287.5,135.4z"/>
		<path d="M308.9,135.4h-1.2c-0.3,0-0.5,0-0.6-0.1s-0.3-0.2-0.3-0.5l-0.2-0.8c-0.3,0.3-0.6,0.5-0.8,0.7c-0.2,0.2-0.6,0.4-0.9,0.5
			s-0.6,0.2-0.9,0.3s-0.7,0.1-1.1,0.1c-0.5,0-0.9-0.1-1.3-0.2c-0.4-0.1-0.8-0.3-1-0.6c-0.3-0.3-0.5-0.6-0.7-1s-0.2-0.8-0.2-1.3
			c0-0.4,0.1-0.8,0.3-1.3s0.6-0.8,1.1-1.1s1.2-0.6,2.1-0.8s1.9-0.3,3.2-0.3v-0.7c0-0.8-0.2-1.3-0.5-1.7s-0.8-0.5-1.4-0.5
			c-0.4,0-0.8,0.1-1.1,0.2c-0.3,0.1-0.5,0.2-0.8,0.3c-0.2,0.1-0.4,0.2-0.6,0.3c-0.2,0.1-0.4,0.2-0.6,0.2s-0.3,0-0.5-0.1
			c-0.1-0.1-0.2-0.2-0.3-0.4l-0.5-0.9c1.3-1.2,2.9-1.8,4.7-1.8c0.7,0,1.2,0.1,1.8,0.3s1,0.5,1.3,0.9c0.4,0.4,0.6,0.8,0.8,1.4
			c0.2,0.5,0.3,1.1,0.3,1.8L308.9,135.4L308.9,135.4z M303.6,133.7c0.3,0,0.5,0,0.8-0.1c0.2-0.1,0.5-0.1,0.7-0.2s0.4-0.2,0.6-0.4
			c0.2-0.1,0.4-0.3,0.6-0.5v-1.9c-0.8,0-1.5,0-2,0.1s-1,0.2-1.3,0.4s-0.6,0.3-0.7,0.5s-0.2,0.4-0.2,0.7c0,0.5,0.1,0.8,0.4,1
			C302.8,133.6,303.1,133.7,303.6,133.7z"/>
		<path d="M315.2,135.6c-1,0-1.7-0.3-2.3-0.8c-0.5-0.6-0.8-1.3-0.8-2.3v-6.3H311c-0.1,0-0.3,0-0.4-0.1s-0.2-0.2-0.2-0.4v-1.1
			l1.8-0.3l0.6-3.1c0-0.1,0.1-0.3,0.2-0.3c0.1-0.1,0.2-0.1,0.4-0.1h1.4v3.6h3v1.9h-3v6.1c0,0.4,0.1,0.6,0.3,0.8
			c0.2,0.2,0.4,0.3,0.7,0.3c0.2,0,0.3,0,0.4-0.1c0.1,0,0.2-0.1,0.3-0.1c0.1,0,0.2-0.1,0.2-0.1c0.1,0,0.1-0.1,0.2-0.1s0.1,0,0.2,0.1
			c0.1,0,0.1,0.1,0.2,0.2l0.8,1.3c-0.4,0.3-0.9,0.6-1.4,0.7C316.3,135.5,315.8,135.6,315.2,135.6z"/>
		<path d="M326.8,126.3c-0.1,0.1-0.2,0.2-0.2,0.2s-0.2,0.1-0.3,0.1c-0.1,0-0.3,0-0.4-0.1s-0.3-0.2-0.5-0.2c-0.2-0.1-0.4-0.2-0.7-0.2
			c-0.3-0.1-0.6-0.1-0.9-0.1c-0.5,0-1,0.1-1.3,0.3s-0.5,0.5-0.5,0.9c0,0.2,0.1,0.4,0.2,0.6c0.1,0.2,0.4,0.3,0.6,0.4
			c0.3,0.1,0.6,0.2,0.9,0.3s0.7,0.2,1,0.3s0.7,0.3,1,0.4c0.3,0.1,0.6,0.3,0.9,0.6c0.3,0.2,0.5,0.5,0.6,0.8c0.2,0.3,0.2,0.7,0.2,1.2
			s-0.1,1-0.3,1.5c-0.2,0.5-0.5,0.9-0.9,1.2s-0.9,0.6-1.4,0.8s-1.2,0.3-1.9,0.3c-0.4,0-0.8,0-1.1-0.1c-0.4-0.1-0.7-0.2-1.1-0.3
			c-0.3-0.1-0.7-0.3-0.9-0.4c-0.3-0.2-0.5-0.4-0.8-0.5l0.6-1c0.1-0.1,0.2-0.2,0.3-0.3c0.1-0.1,0.2-0.1,0.4-0.1c0.2,0,0.3,0,0.5,0.1
			s0.3,0.2,0.5,0.3s0.4,0.2,0.7,0.3c0.3,0.1,0.6,0.1,1,0.1c0.3,0,0.6,0,0.8-0.1c0.2-0.1,0.4-0.2,0.6-0.3c0.1-0.1,0.3-0.3,0.3-0.4
			c0.1-0.2,0.1-0.3,0.1-0.5c0-0.3-0.1-0.5-0.2-0.6c-0.2-0.2-0.4-0.3-0.6-0.4c-0.3-0.1-0.6-0.2-0.9-0.3s-0.7-0.2-1-0.3
			s-0.7-0.3-1-0.4c-0.3-0.1-0.6-0.4-0.9-0.6s-0.5-0.5-0.6-0.9s-0.2-0.8-0.2-1.3s0.1-0.9,0.3-1.3s0.5-0.8,0.8-1.1
			c0.4-0.3,0.8-0.6,1.3-0.7s1.1-0.3,1.8-0.3c0.8,0,1.5,0.1,2.1,0.4s1.2,0.6,1.6,1L326.8,126.3z"/>
	</g>
	<g>
		<path d="M259.6,194.3h2.4c0.3,0,0.5,0.1,0.6,0.2c0.2,0.1,0.3,0.3,0.4,0.5l3.7,9.7c0.1,0.3,0.2,0.7,0.4,1c0.1,0.4,0.2,0.8,0.3,1.2
			c0.2-0.8,0.4-1.6,0.6-2.2l3.7-9.7c0.1-0.2,0.2-0.3,0.4-0.5c0.2-0.1,0.4-0.2,0.6-0.2h2.4l-6.4,15.9H266L259.6,194.3z"/>
		<path d="M279.9,198.7c0.7,0,1.4,0.1,2,0.3s1.1,0.6,1.5,1s0.8,1,1,1.6s0.4,1.4,0.4,2.2c0,0.2,0,0.4,0,0.5s-0.1,0.2-0.1,0.3
			s-0.1,0.1-0.2,0.2c-0.1,0-0.2,0-0.3,0h-7c0.1,1.2,0.4,2,0.9,2.6c0.5,0.5,1.3,0.8,2.2,0.8c0.4,0,0.8-0.1,1.1-0.2s0.6-0.2,0.8-0.3
			c0.2-0.1,0.4-0.2,0.6-0.3s0.4-0.2,0.5-0.2s0.2,0,0.3,0.1s0.2,0.1,0.2,0.2l0.8,1c-0.3,0.4-0.6,0.6-1,0.9s-0.8,0.4-1.2,0.6
			c-0.4,0.1-0.8,0.2-1.2,0.3c-0.4,0.1-0.8,0.1-1.2,0.1c-0.8,0-1.5-0.1-2.2-0.4c-0.7-0.3-1.3-0.6-1.8-1.2c-0.5-0.5-0.9-1.1-1.2-1.9
			c-0.3-0.8-0.4-1.6-0.4-2.6c0-0.8,0.1-1.5,0.4-2.2c0.2-0.7,0.6-1.3,1.1-1.8s1-0.9,1.7-1.2C278.3,198.8,279.1,198.7,279.9,198.7z
			 M280,200.6c-0.8,0-1.4,0.2-1.9,0.7c-0.4,0.4-0.7,1.1-0.9,1.9h5.1c0-0.4,0-0.7-0.1-1s-0.2-0.6-0.4-0.8c-0.2-0.2-0.4-0.4-0.7-0.6
			S280.4,200.6,280,200.6z"/>
		<path d="M287,210.2v-11.3h1.7c0.4,0,0.6,0.2,0.7,0.5l0.2,0.9c0.2-0.2,0.5-0.4,0.7-0.6c0.3-0.2,0.5-0.4,0.8-0.5s0.6-0.2,0.9-0.3
			s0.7-0.1,1.1-0.1c0.6,0,1.2,0.1,1.6,0.3c0.5,0.2,0.9,0.5,1.2,0.9c0.3,0.4,0.6,0.8,0.7,1.4c0.1,0.6,0.2,1.1,0.2,1.7v7.2h-2.7v-7.2
			c0-0.7-0.2-1.2-0.5-1.6c-0.3-0.4-0.8-0.6-1.4-0.6c-0.5,0-0.9,0.1-1.3,0.3s-0.8,0.5-1.2,0.9v8.2L287,210.2L287,210.2z"/>
		<path d="M303.2,210.3c-1,0-1.7-0.3-2.3-0.8c-0.5-0.6-0.8-1.3-0.8-2.3v-6.3H299c-0.1,0-0.3,0-0.4-0.1s-0.2-0.2-0.2-0.4v-1.1
			l1.8-0.3l0.6-3.1c0-0.1,0.1-0.3,0.2-0.3c0.1-0.1,0.2-0.1,0.4-0.1h1.4v3.6h3v1.9h-3v6.1c0,0.4,0.1,0.6,0.3,0.8
			c0.2,0.2,0.4,0.3,0.7,0.3c0.2,0,0.3,0,0.4-0.1c0.1,0,0.2-0.1,0.3-0.1c0.1,0,0.2-0.1,0.2-0.1c0.1,0,0.1-0.1,0.2-0.1s0.1,0,0.2,0.1
			c0.1,0,0.1,0.1,0.2,0.2l0.8,1.3c-0.4,0.3-0.9,0.6-1.4,0.7C304.3,210.3,303.8,210.3,303.2,210.3z"/>
		<path d="M312.7,198.7c0.7,0,1.4,0.1,2,0.3s1.1,0.6,1.5,1s0.8,1,1,1.6s0.4,1.4,0.4,2.2c0,0.2,0,0.4,0,0.5s-0.1,0.2-0.1,0.3
			s-0.1,0.1-0.2,0.2c-0.1,0-0.2,0-0.3,0h-7c0.1,1.2,0.4,2,0.9,2.6c0.5,0.5,1.3,0.8,2.2,0.8c0.4,0,0.8-0.1,1.1-0.2s0.6-0.2,0.8-0.3
			c0.2-0.1,0.4-0.2,0.6-0.3s0.4-0.2,0.5-0.2s0.2,0,0.3,0.1s0.2,0.1,0.2,0.2l0.8,1c-0.3,0.4-0.6,0.6-1,0.9s-0.8,0.4-1.2,0.6
			c-0.4,0.1-0.8,0.2-1.2,0.3c-0.4,0.1-0.8,0.1-1.2,0.1c-0.8,0-1.5-0.1-2.2-0.4c-0.7-0.3-1.3-0.6-1.8-1.2c-0.5-0.5-0.9-1.1-1.2-1.9
			c-0.3-0.8-0.4-1.6-0.4-2.6c0-0.8,0.1-1.5,0.4-2.2c0.2-0.7,0.6-1.3,1.1-1.8s1-0.9,1.7-1.2C311.1,198.8,311.9,198.7,312.7,198.7z
			 M312.8,200.6c-0.8,0-1.4,0.2-1.9,0.7c-0.4,0.4-0.7,1.1-0.9,1.9h5.1c0-0.4,0-0.7-0.1-1s-0.2-0.6-0.4-0.8c-0.2-0.2-0.4-0.4-0.7-0.6
			S313.2,200.6,312.8,200.6z"/>
		<path d="M326.5,201.1c-0.1,0.1-0.2,0.2-0.2,0.2s-0.2,0.1-0.3,0.1c-0.1,0-0.3,0-0.4-0.1s-0.3-0.2-0.5-0.2c-0.2-0.1-0.4-0.2-0.7-0.2
			c-0.3-0.1-0.6-0.1-0.9-0.1c-0.5,0-1,0.1-1.3,0.3s-0.5,0.5-0.5,0.9c0,0.2,0.1,0.4,0.2,0.6c0.1,0.2,0.4,0.3,0.6,0.4
			c0.3,0.1,0.6,0.2,0.9,0.3s0.7,0.2,1,0.3s0.7,0.3,1,0.4c0.3,0.1,0.6,0.3,0.9,0.6c0.3,0.2,0.5,0.5,0.6,0.8c0.2,0.3,0.2,0.7,0.2,1.2
			s-0.1,1-0.3,1.5c-0.2,0.5-0.5,0.9-0.9,1.2s-0.9,0.6-1.4,0.8s-1.2,0.3-1.9,0.3c-0.4,0-0.8,0-1.1-0.1c-0.4-0.1-0.7-0.2-1.1-0.3
			c-0.3-0.1-0.7-0.3-0.9-0.4c-0.3-0.2-0.5-0.4-0.8-0.5l0.6-1c0.1-0.1,0.2-0.2,0.3-0.3c0.1-0.1,0.2-0.1,0.4-0.1c0.2,0,0.3,0,0.5,0.1
			s0.3,0.2,0.5,0.3s0.4,0.2,0.7,0.3c0.3,0.1,0.6,0.1,1,0.1c0.3,0,0.6,0,0.8-0.1c0.2-0.1,0.4-0.2,0.6-0.3c0.1-0.1,0.3-0.3,0.3-0.4
			c0.1-0.2,0.1-0.3,0.1-0.5c0-0.3-0.1-0.5-0.2-0.6c-0.2-0.2-0.4-0.3-0.6-0.4c-0.3-0.1-0.6-0.2-0.9-0.3s-0.7-0.2-1-0.3
			s-0.7-0.3-1-0.4c-0.3-0.1-0.6-0.4-0.9-0.6s-0.5-0.5-0.6-0.9s-0.2-0.8-0.2-1.3s0.1-0.9,0.3-1.3c0.2-0.4,0.5-0.8,0.8-1.1
			c0.4-0.3,0.8-0.6,1.3-0.7s1.1-0.3,1.8-0.3c0.8,0,1.5,0.1,2.1,0.4c0.6,0.3,1.2,0.6,1.6,1L326.5,201.1z"/>
	</g>
	<g>
		<path d="M489.3,160.4c-0.1,0.2-0.2,0.3-0.3,0.3c-0.1,0.1-0.2,0.1-0.4,0.1c-0.1,0-0.3-0.1-0.5-0.2s-0.4-0.2-0.6-0.4
			c-0.2-0.1-0.5-0.3-0.9-0.4c-0.3-0.1-0.7-0.2-1.2-0.2c-0.4,0-0.8,0-1.1,0.1c-0.3,0.1-0.6,0.2-0.8,0.4c-0.2,0.2-0.4,0.4-0.5,0.6
			c-0.1,0.2-0.2,0.5-0.2,0.8c0,0.4,0.1,0.7,0.3,0.9c0.2,0.2,0.5,0.5,0.8,0.6c0.3,0.2,0.7,0.3,1.2,0.5s0.9,0.3,1.3,0.4
			c0.5,0.2,0.9,0.3,1.3,0.6c0.4,0.2,0.8,0.5,1.2,0.8c0.3,0.3,0.6,0.7,0.8,1.2s0.3,1,0.3,1.7s-0.1,1.4-0.4,2s-0.6,1.2-1.1,1.6
			c-0.5,0.5-1.1,0.8-1.7,1.1c-0.7,0.3-1.5,0.4-2.3,0.4c-0.5,0-1,0-1.5-0.1s-1-0.2-1.4-0.4c-0.5-0.2-0.9-0.4-1.3-0.7
			s-0.7-0.5-1.1-0.9l0.9-1.4c0.1-0.1,0.2-0.2,0.3-0.3s0.2-0.1,0.4-0.1c0.2,0,0.4,0.1,0.6,0.2c0.2,0.2,0.5,0.3,0.8,0.5s0.6,0.4,1,0.5
			c0.4,0.2,0.9,0.2,1.4,0.2c0.8,0,1.5-0.2,2-0.6s0.7-1,0.7-1.7c0-0.4-0.1-0.8-0.3-1c-0.2-0.3-0.5-0.5-0.8-0.7s-0.7-0.3-1.2-0.5
			s-0.9-0.3-1.3-0.4c-0.5-0.1-0.9-0.3-1.3-0.5s-0.8-0.5-1.2-0.8c-0.3-0.3-0.6-0.7-0.8-1.2s-0.3-1.1-0.3-1.8c0-0.6,0.1-1.1,0.3-1.7
			c0.2-0.6,0.6-1,1-1.5c0.4-0.4,1-0.8,1.6-1c0.6-0.3,1.4-0.4,2.2-0.4c0.9,0,1.8,0.1,2.6,0.4c0.8,0.3,1.5,0.7,2,1.2L489.3,160.4z"/>
		<path d="M496.2,173.6c-1,0-1.7-0.3-2.3-0.8c-0.5-0.6-0.8-1.3-0.8-2.3v-6.3H492c-0.1,0-0.3,0-0.4-0.1s-0.2-0.2-0.2-0.4v-1.1
			l1.8-0.3l0.6-3.1c0-0.1,0.1-0.3,0.2-0.3c0.1-0.1,0.2-0.1,0.4-0.1h1.4v3.6h3v1.9h-3v6.1c0,0.4,0.1,0.6,0.3,0.8
			c0.2,0.2,0.4,0.3,0.7,0.3c0.2,0,0.3,0,0.4-0.1c0.1,0,0.2-0.1,0.3-0.1c0.1,0,0.2-0.1,0.2-0.1c0.1,0,0.1-0.1,0.2-0.1s0.1,0,0.2,0.1
			c0.1,0,0.1,0.1,0.2,0.2l0.8,1.3c-0.4,0.3-0.9,0.6-1.4,0.7C497.3,173.5,496.7,173.6,496.2,173.6z"/>
		<path d="M505.8,161.9c0.8,0,1.6,0.1,2.3,0.4c0.7,0.3,1.3,0.7,1.8,1.2s0.9,1.1,1.1,1.8c0.3,0.7,0.4,1.5,0.4,2.4s-0.1,1.7-0.4,2.4
			s-0.6,1.3-1.1,1.8s-1.1,0.9-1.8,1.2c-0.7,0.3-1.4,0.4-2.3,0.4s-1.6-0.1-2.3-0.4c-0.7-0.3-1.3-0.7-1.8-1.2s-0.9-1.1-1.1-1.8
			c-0.3-0.7-0.4-1.5-0.4-2.4s0.1-1.7,0.4-2.4s0.6-1.3,1.1-1.8s1.1-0.9,1.8-1.2C504.2,162.1,505,161.9,505.8,161.9z M505.8,171.5
			c0.9,0,1.6-0.3,2.1-0.9c0.5-0.6,0.7-1.6,0.7-2.8s-0.2-2.1-0.7-2.8c-0.5-0.6-1.1-1-2.1-1s-1.7,0.3-2.1,1c-0.5,0.6-0.7,1.6-0.7,2.8
			s0.2,2.1,0.7,2.8C504.1,171.1,504.9,171.5,505.8,171.5z"/>
		<path d="M521.4,164.5c-0.1,0.1-0.2,0.2-0.2,0.2c-0.1,0.1-0.2,0.1-0.3,0.1s-0.3,0-0.4-0.1c-0.1-0.1-0.3-0.2-0.5-0.3
			s-0.4-0.2-0.7-0.3s-0.6-0.1-0.9-0.1c-0.5,0-0.9,0.1-1.3,0.3c-0.4,0.2-0.7,0.4-0.9,0.7s-0.4,0.7-0.5,1.2s-0.2,1-0.2,1.6
			s0.1,1.1,0.2,1.6s0.3,0.9,0.6,1.2s0.5,0.6,0.9,0.7c0.4,0.1,0.7,0.2,1.2,0.2s0.8-0.1,1-0.2c0.2-0.1,0.5-0.2,0.7-0.4
			c0.2-0.1,0.3-0.2,0.5-0.4c0.1-0.1,0.3-0.2,0.5-0.2s0.4,0.1,0.5,0.3l0.8,1c-0.3,0.4-0.6,0.6-1,0.9s-0.7,0.4-1.1,0.6
			c-0.4,0.1-0.8,0.2-1.2,0.3s-0.8,0.1-1.2,0.1c-0.7,0-1.4-0.1-2-0.4c-0.6-0.3-1.2-0.6-1.6-1.1c-0.5-0.5-0.8-1.1-1.1-1.8
			s-0.4-1.5-0.4-2.5c0-0.8,0.1-1.6,0.4-2.3c0.2-0.7,0.6-1.3,1.1-1.8s1-0.9,1.7-1.2s1.5-0.4,2.4-0.4c0.8,0,1.6,0.1,2.2,0.4
			c0.6,0.3,1.2,0.7,1.7,1.2L521.4,164.5z"/>
		<path d="M526.7,157v9.4h0.5c0.2,0,0.3,0,0.4-0.1c0.1-0.1,0.2-0.1,0.3-0.3l2.8-3.5c0.1-0.1,0.3-0.3,0.4-0.3
			c0.1-0.1,0.3-0.1,0.5-0.1h2.5l-3.5,4.2c-0.1,0.2-0.3,0.3-0.4,0.4c-0.1,0.1-0.3,0.2-0.4,0.3c0.2,0.1,0.3,0.2,0.4,0.4
			c0.1,0.1,0.2,0.3,0.4,0.5l3.8,5.5H532c-0.2,0-0.4,0-0.5-0.1s-0.3-0.2-0.4-0.4l-2.9-4.3c-0.1-0.2-0.2-0.3-0.3-0.3
			c-0.1-0.1-0.3-0.1-0.5-0.1h-0.6v5.2H524V157L526.7,157L526.7,157z"/>
		<path d="M542.8,164.3c-0.1,0.1-0.2,0.2-0.2,0.2c-0.1,0-0.2,0.1-0.3,0.1s-0.3,0-0.4-0.1s-0.3-0.2-0.5-0.2c-0.2-0.1-0.4-0.2-0.7-0.2
			c-0.3-0.1-0.6-0.1-0.9-0.1c-0.5,0-1,0.1-1.3,0.3s-0.5,0.5-0.5,0.9c0,0.2,0.1,0.4,0.2,0.6c0.2,0.2,0.4,0.3,0.6,0.4
			c0.3,0.1,0.6,0.2,0.9,0.3c0.3,0.1,0.7,0.2,1,0.3s0.7,0.3,1,0.4c0.3,0.1,0.6,0.3,0.9,0.6c0.3,0.2,0.5,0.5,0.6,0.8
			c0.2,0.3,0.2,0.7,0.2,1.2s-0.1,1-0.3,1.5s-0.5,0.9-0.9,1.2s-0.9,0.6-1.4,0.8c-0.6,0.2-1.2,0.3-1.9,0.3c-0.4,0-0.8,0-1.1-0.1
			c-0.4-0.1-0.7-0.2-1.1-0.3c-0.3-0.1-0.7-0.3-0.9-0.4c-0.3-0.2-0.5-0.4-0.8-0.5l0.6-1c0.1-0.1,0.2-0.2,0.3-0.3s0.2-0.1,0.4-0.1
			s0.3,0,0.5,0.1s0.3,0.2,0.5,0.3s0.4,0.2,0.7,0.3s0.6,0.1,1,0.1c0.3,0,0.6,0,0.8-0.1s0.4-0.2,0.6-0.3c0.1-0.1,0.3-0.3,0.3-0.4
			c0-0.1,0.1-0.3,0.1-0.5c0-0.3-0.1-0.5-0.2-0.6c-0.2-0.2-0.4-0.3-0.6-0.4c-0.3-0.1-0.6-0.2-0.9-0.3c-0.3-0.1-0.7-0.2-1-0.3
			s-0.7-0.3-1-0.4s-0.6-0.4-0.9-0.6c-0.3-0.2-0.5-0.5-0.6-0.9c-0.2-0.4-0.2-0.8-0.2-1.3s0.1-0.9,0.3-1.3s0.5-0.8,0.8-1.1
			c0.4-0.3,0.8-0.6,1.3-0.7c0.5-0.1,1.1-0.3,1.8-0.3c0.8,0,1.5,0.1,2.1,0.4s1.2,0.6,1.6,1L542.8,164.3z"/>
	</g>
	<path class="st0" d="M208.5,189.2c-0.4,0-0.8-0.1-1.1-0.3l-37.5-21.7c-0.7-0.4-1.1-1.1-1.1-1.9c0-0.8,0.4-1.5,1.1-1.9l37.5-21.7
		c0.3-0.2,0.7-0.3,1.1-0.3c0.4,0,0.8,0.1,1.1,0.3c0.7,0.4,1.1,1.1,1.1,1.9v43.3c0,0.8-0.4,1.5-1.1,1.9
		C209.3,189.1,208.9,189.2,208.5,189.2z"/>
	<g>
		<path class="st0" d="M601,167.2c0.4,0,0.8-0.1,1.1-0.3l37.5-21.7c0.7-0.4,1.1-1.1,1.1-1.9c0-0.8-0.4-1.5-1.1-1.9l-37.5-21.7
			c-0.3-0.2-0.7-0.3-1.1-0.3c-0.4,0-0.8,0.1-1.1,0.3c-0.7,0.4-1.1,1.1-1.1,1.9v43.3c0,0.8,0.4,1.5,1.1,1.9
			C600.2,167.1,600.6,167.2,601,167.2z"/>
		<path class="st0" d="M638.5,205.2c-0.4,0-0.8-0.1-1.1-0.3l-37.5-21.7c-0.7-0.4-1.1-1.1-1.1-1.9c0-0.8,0.4-1.5,1.1-1.9l37.5-21.7
			c0.3-0.2,0.7-0.3,1.1-0.3c0.4,0,0.8,0.1,1.1,0.3c0.7,0.4,1.1,1.1,1.1,1.9v43.3c0,0.8-0.4,1.5-1.1,1.9
			C639.3,205.1,638.9,205.2,638.5,205.2z"/>
	</g>
	<g>
		<path class="st0" d="M386,167.2c0.4,0,0.8-0.1,1.1-0.3l37.5-21.7c0.7-0.4,1.1-1.1,1.1-1.9c0-0.8-0.4-1.5-1.1-1.9l-37.5-21.7
			c-0.3-0.2-0.7-0.3-1.1-0.3s-0.8,0.1-1.1,0.3c-0.7,0.4-1.1,1.1-1.1,1.9v43.3c0,0.8,0.4,1.5,1.1,1.9
			C385.2,167.1,385.6,167.2,386,167.2z"/>
		<path class="st0" d="M423.5,205.2c-0.4,0-0.8-0.1-1.1-0.3l-37.5-21.7c-0.7-0.4-1.1-1.1-1.1-1.9c0-0.8,0.4-1.5,1.1-1.9l37.5-21.7
			c0.3-0.2,0.7-0.3,1.1-0.3s0.8,0.1,1.1,0.3c0.7,0.4,1.1,1.1,1.1,1.9v43.3c0,0.8-0.4,1.5-1.1,1.9
			C424.3,205.1,423.9,205.2,423.5,205.2z"/>
	</g>
</g>
</svg>
