<?xml version="1.0" encoding="utf-8"?>
<!-- Generator: Adobe Illustrator 21.1.0, SVG Export Plug-In . SVG Version: 6.00 Build 0)  -->
<svg version="1.1" id="Calque_1" xmlns="http://www.w3.org/2000/svg" xmlns:xlink="http://www.w3.org/1999/xlink" x="0px" y="0px"
	 viewBox="0 0 810 250.8" style="enable-background:new 0 0 810 250.8;" xml:space="preserve">
<style type="text/css">
	.st0{fill:#FFFFFF;}
	.st1{fill:none;stroke:#000000;stroke-miterlimit:10;}
	.st2{fill:none;stroke:#000000;stroke-miterlimit:10;stroke-dasharray:9.9459,9.9459;}
	.st3{fill:none;stroke:#000000;stroke-miterlimit:10;stroke-dasharray:9.4118,9.4118;}
	.st4{fill:#FF0000;}
</style>
<g>
	<g>
		<rect x="11" y="89.6" class="st0" width="149.5" height="149.5"/>
		<path d="M160.2,89.8v149h-149v-149H160.2 M160.8,89.3h-150v150h150V89.3L160.8,89.3z"/>
	</g>
	<g>
		<rect x="219" y="89" class="st0" width="149.5" height="74.5"/>
		<path d="M368.2,89.3v74h-149v-74H368.2 M368.8,88.8h-150v75h150V88.8L368.8,88.8z"/>
	</g>
	<g>
		<rect x="219" y="164" class="st0" width="149.5" height="74.5"/>
		<path d="M368.2,164.3v74h-149v-74H368.2 M368.8,163.8h-150v75h150V163.8L368.8,163.8z"/>
	</g>
	<g>
		<rect x="441" y="89.6" class="st0" width="149.5" height="149.5"/>
		<path d="M590.2,89.8v149h-149v-149H590.2 M590.8,89.3h-150v150h150V89.3L590.8,89.3z"/>
	</g>
	<g>
		<rect x="649" y="88.6" class="st0" width="149.5" height="149.5"/>
		<path d="M798.2,88.8v149h-149v-149H798.2 M798.8,88.3h-150v150h150V88.3L798.8,88.3z"/>
	</g>
	<g>
		<g>
			<polyline class="st1" points="379.2,244.3 379.2,249.3 374.2,249.3 			"/>
			<line class="st2" x1="364.3" y1="249.3" x2="11.2" y2="249.3"/>
			<polyline class="st1" points="6.2,249.3 1.2,249.3 1.2,244.3 			"/>
			<line class="st3" x1="1.2" y1="234.9" x2="1.2" y2="89"/>
			<polyline class="st1" points="1.2,84.3 1.2,79.3 6.2,79.3 			"/>
			<line class="st2" x1="16.2" y1="79.3" x2="369.3" y2="79.3"/>
			<polyline class="st1" points="374.2,79.3 379.2,79.3 379.2,84.3 			"/>
			<line class="st3" x1="379.2" y1="93.7" x2="379.2" y2="239.6"/>
		</g>
	</g>
	<g>
		<g>
			<polyline class="st1" points="808.8,244.3 808.8,249.3 803.8,249.3 			"/>
			<line class="st2" x1="793.8" y1="249.3" x2="440.7" y2="249.3"/>
			<polyline class="st1" points="435.8,249.3 430.8,249.3 430.8,244.3 			"/>
			<line class="st3" x1="430.8" y1="234.9" x2="430.8" y2="89"/>
			<polyline class="st1" points="430.8,84.3 430.8,79.3 435.8,79.3 			"/>
			<line class="st2" x1="445.7" y1="79.3" x2="798.8" y2="79.3"/>
			<polyline class="st1" points="803.8,79.3 808.8,79.3 808.8,84.3 			"/>
			<line class="st3" x1="808.8" y1="93.7" x2="808.8" y2="239.6"/>
		</g>
	</g>
	<g>
		<path d="M661.5,171.4h-3v-15.9h3V171.4z"/>
		<path d="M665,171.4v-11.3h1.7c0.4,0,0.6,0.2,0.7,0.5l0.2,0.9c0.2-0.2,0.5-0.4,0.7-0.6c0.3-0.2,0.5-0.4,0.8-0.5s0.6-0.2,0.9-0.3
			s0.7-0.1,1.1-0.1c0.6,0,1.2,0.1,1.6,0.3c0.5,0.2,0.9,0.5,1.2,0.9s0.6,0.8,0.7,1.4c0.2,0.5,0.2,1.1,0.2,1.7v7.2h-2.7v-7.2
			c0-0.7-0.2-1.2-0.5-1.6s-0.8-0.6-1.4-0.6c-0.5,0-0.9,0.1-1.3,0.3c-0.4,0.2-0.8,0.5-1.2,0.9v8.2H665V171.4z"/>
		<path d="M681.2,171.5c-1,0-1.7-0.3-2.3-0.8c-0.5-0.6-0.8-1.3-0.8-2.3v-6.3H677c-0.1,0-0.3,0-0.4-0.1c-0.1-0.1-0.2-0.2-0.2-0.4
			v-1.1l1.8-0.3l0.6-3.1c0-0.1,0.1-0.3,0.2-0.3c0.1-0.1,0.2-0.1,0.4-0.1h1.4v3.6h3v1.9h-3v6.1c0,0.4,0.1,0.6,0.3,0.8
			c0.2,0.2,0.4,0.3,0.7,0.3c0.2,0,0.3,0,0.4-0.1c0.1-0.1,0.2-0.1,0.3-0.1s0.2-0.1,0.2-0.1c0.1,0,0.1-0.1,0.2-0.1
			c0.1,0,0.1,0,0.2,0.1c0.1,0,0.1,0.1,0.2,0.2l0.8,1.3c-0.4,0.3-0.9,0.6-1.4,0.7C682.3,171.5,681.7,171.5,681.2,171.5z"/>
		<path d="M690.6,159.9c0.7,0,1.4,0.1,2,0.3c0.6,0.2,1.1,0.6,1.5,1c0.4,0.4,0.8,1,1,1.6s0.4,1.4,0.4,2.2c0,0.2,0,0.4,0,0.5
			s-0.1,0.2-0.1,0.3s-0.1,0.1-0.2,0.2c-0.1,0-0.2,0-0.3,0h-7c0.1,1.2,0.4,2,0.9,2.6c0.5,0.6,1.3,0.8,2.2,0.8c0.4,0,0.8-0.1,1.1-0.2
			c0.3-0.1,0.6-0.2,0.8-0.3s0.4-0.2,0.6-0.3c0.2-0.1,0.4-0.2,0.5-0.2s0.2,0,0.3,0.1s0.2,0.1,0.2,0.2l0.8,1c-0.3,0.4-0.6,0.6-1,0.9
			c-0.4,0.3-0.8,0.4-1.2,0.6c-0.4,0.1-0.8,0.2-1.2,0.3s-0.8,0.1-1.2,0.1c-0.8,0-1.5-0.1-2.2-0.4s-1.3-0.6-1.8-1.2
			c-0.5-0.5-0.9-1.1-1.2-1.9c-0.3-0.8-0.4-1.6-0.4-2.6c0-0.8,0.1-1.5,0.4-2.2c0.2-0.7,0.6-1.3,1.1-1.8s1-0.9,1.7-1.2
			C689,160.1,689.8,159.9,690.6,159.9z M690.7,161.9c-0.8,0-1.4,0.2-1.9,0.7s-0.7,1.1-0.9,1.9h5.1c0-0.4,0-0.7-0.1-1
			s-0.2-0.6-0.4-0.8s-0.4-0.4-0.7-0.6C691.5,161.9,691.1,161.9,690.7,161.9z"/>
		<path d="M697.7,171.4v-11.3h1.6c0.3,0,0.5,0.1,0.6,0.2s0.2,0.3,0.2,0.5l0.2,1.4c0.4-0.7,0.9-1.2,1.4-1.6s1.2-0.6,1.8-0.6
			s1,0.1,1.4,0.4l-0.4,2c0,0.1-0.1,0.2-0.1,0.3c-0.1,0.1-0.2,0.1-0.3,0.1s-0.3,0-0.5-0.1s-0.4-0.1-0.8-0.1c-0.6,0-1,0.2-1.5,0.5
			c-0.5,0.3-0.7,0.8-1,1.4v7h-2.6V171.4z"/>
		<path d="M712.4,171.4h-2.5l-4.5-11.3h2.3c0.2,0,0.4,0,0.5,0.1s0.2,0.2,0.3,0.4l2.2,6c0.1,0.4,0.2,0.7,0.3,1c0.1,0.3,0.2,0.7,0.2,1
			c0.1-0.3,0.1-0.7,0.2-1c0.1-0.3,0.2-0.7,0.3-1l2.2-6c0.1-0.1,0.1-0.3,0.3-0.4c0.1-0.1,0.3-0.1,0.5-0.1h2.1L712.4,171.4z"/>
		<path d="M722.8,159.9c0.7,0,1.4,0.1,2,0.3c0.6,0.2,1.1,0.6,1.5,1c0.4,0.4,0.8,1,1,1.6s0.4,1.4,0.4,2.2c0,0.2,0,0.4,0,0.5
			s-0.1,0.2-0.1,0.3s-0.1,0.1-0.2,0.2c-0.1,0-0.2,0-0.3,0h-7c0.1,1.2,0.4,2,0.9,2.6c0.5,0.5,1.3,0.8,2.2,0.8c0.4,0,0.8-0.1,1.1-0.2
			c0.3-0.1,0.6-0.2,0.8-0.3s0.4-0.2,0.6-0.3c0.2-0.1,0.4-0.2,0.5-0.2s0.2,0,0.3,0.1c0.1,0,0.2,0.1,0.2,0.2l0.8,1
			c-0.3,0.4-0.6,0.6-1,0.9c-0.4,0.2-0.8,0.4-1.2,0.6c-0.4,0.1-0.8,0.2-1.2,0.3c-0.4,0.1-0.8,0.1-1.2,0.1c-0.8,0-1.5-0.1-2.2-0.4
			s-1.3-0.6-1.8-1.2c-0.5-0.5-0.9-1.1-1.2-1.9c-0.3-0.8-0.4-1.6-0.4-2.6c0-0.8,0.1-1.5,0.4-2.2c0.2-0.7,0.6-1.3,1.1-1.8
			s1-0.9,1.7-1.2C721.2,160.1,721.9,159.9,722.8,159.9z M722.8,161.9c-0.8,0-1.4,0.2-1.9,0.7s-0.7,1.1-0.9,1.9h5.1
			c0-0.4,0-0.7-0.1-1s-0.2-0.6-0.4-0.8c-0.2-0.2-0.4-0.4-0.7-0.6C723.6,161.9,723.2,161.9,722.8,161.9z"/>
		<path d="M729.9,171.4v-11.3h1.7c0.4,0,0.6,0.2,0.7,0.5l0.2,0.9c0.2-0.2,0.5-0.4,0.7-0.6s0.5-0.4,0.8-0.5s0.6-0.2,0.9-0.3
			c0.3-0.1,0.7-0.1,1.1-0.1c0.6,0,1.2,0.1,1.6,0.3c0.5,0.2,0.9,0.5,1.2,0.9s0.6,0.8,0.7,1.4c0.1,0.6,0.2,1.1,0.2,1.7v7.2H737v-7.2
			c0-0.7-0.2-1.2-0.5-1.6s-0.8-0.6-1.4-0.6c-0.5,0-0.9,0.1-1.3,0.3c-0.4,0.2-0.8,0.5-1.2,0.9v8.2h-2.7V171.4z"/>
		<path d="M746.1,171.5c-1,0-1.7-0.3-2.3-0.8c-0.5-0.6-0.8-1.3-0.8-2.3v-6.3h-1.1c-0.1,0-0.3,0-0.4-0.1c-0.1-0.1-0.2-0.2-0.2-0.4
			v-1.1l1.8-0.3l0.6-3.1c0-0.1,0.1-0.3,0.2-0.3c0.1-0.1,0.2-0.1,0.4-0.1h1.4v3.6h3v1.9h-3v6.1c0,0.4,0.1,0.6,0.3,0.8
			c0.2,0.2,0.4,0.3,0.7,0.3c0.2,0,0.3,0,0.4-0.1c0.1,0,0.2-0.1,0.3-0.1s0.2-0.1,0.2-0.1c0.1,0,0.1-0.1,0.2-0.1c0.1,0,0.1,0,0.2,0.1
			c0.1,0,0.1,0.1,0.2,0.2l0.8,1.3c-0.4,0.3-0.9,0.6-1.4,0.7C747.1,171.4,746.6,171.5,746.1,171.5z"/>
		<path d="M754.2,156.8c0,0.2,0,0.5-0.1,0.7s-0.2,0.4-0.4,0.5s-0.3,0.3-0.6,0.4c-0.2,0.1-0.4,0.1-0.7,0.1c-0.2,0-0.5,0-0.7-0.1
			c-0.2-0.1-0.4-0.2-0.5-0.4s-0.3-0.3-0.4-0.5s-0.1-0.4-0.1-0.7c0-0.2,0-0.5,0.1-0.7s0.2-0.4,0.4-0.5c0.2-0.2,0.3-0.3,0.5-0.4
			c0.2-0.1,0.4-0.1,0.7-0.1c0.2,0,0.5,0,0.7,0.1c0.2,0.1,0.4,0.2,0.6,0.4c0.2,0.2,0.3,0.3,0.4,0.5
			C754.1,156.3,754.2,156.6,754.2,156.8z M753.8,160.1v11.3h-2.7v-11.3H753.8z"/>
		<path d="M761.7,159.9c0.8,0,1.6,0.1,2.3,0.4s1.3,0.7,1.8,1.2s0.9,1.1,1.1,1.8c0.3,0.7,0.4,1.5,0.4,2.4c0,0.9-0.1,1.7-0.4,2.4
			c-0.3,0.7-0.6,1.3-1.1,1.8s-1.1,0.9-1.8,1.2s-1.5,0.4-2.3,0.4s-1.6-0.1-2.3-0.4s-1.3-0.7-1.8-1.2s-0.9-1.1-1.1-1.8
			s-0.4-1.5-0.4-2.4c0-0.9,0.1-1.7,0.4-2.4s0.6-1.3,1.1-1.8s1.1-0.9,1.8-1.2S760.8,159.9,761.7,159.9z M761.7,169.4
			c0.9,0,1.6-0.3,2.1-0.9s0.7-1.6,0.7-2.8c0-1.2-0.2-2.1-0.7-2.8c-0.5-0.6-1.1-1-2.1-1s-1.7,0.3-2.1,1c-0.5,0.6-0.7,1.6-0.7,2.8
			s0.2,2.1,0.7,2.8C760,169.1,760.7,169.4,761.7,169.4z"/>
		<path d="M769.3,171.4v-11.3h1.7c0.4,0,0.6,0.2,0.7,0.5l0.2,0.9c0.2-0.2,0.5-0.4,0.7-0.6c0.3-0.2,0.5-0.4,0.8-0.5s0.6-0.2,0.9-0.3
			s0.7-0.1,1.1-0.1c0.6,0,1.2,0.1,1.6,0.3c0.5,0.2,0.9,0.5,1.2,0.9s0.6,0.8,0.7,1.4c0.2,0.5,0.2,1.1,0.2,1.7v7.2h-2.7v-7.2
			c0-0.7-0.2-1.2-0.5-1.6s-0.8-0.6-1.4-0.6c-0.5,0-0.9,0.1-1.3,0.3c-0.4,0.2-0.8,0.5-1.2,0.9v8.2h-2.7V171.4z"/>
		<path d="M788.6,162.3c-0.1,0.1-0.2,0.2-0.2,0.2c-0.1,0-0.2,0.1-0.3,0.1s-0.3,0-0.4-0.1s-0.3-0.2-0.5-0.2c-0.2-0.1-0.4-0.2-0.7-0.2
			s-0.6-0.1-0.9-0.1c-0.5,0-1,0.1-1.3,0.3c-0.3,0.2-0.5,0.5-0.5,0.9c0,0.2,0.1,0.4,0.2,0.6c0.1,0.2,0.4,0.3,0.6,0.4s0.6,0.2,0.9,0.3
			c0.3,0.1,0.7,0.2,1,0.3s0.7,0.3,1,0.4c0.3,0.1,0.6,0.3,0.9,0.6c0.3,0.2,0.5,0.5,0.6,0.8c0.2,0.3,0.2,0.7,0.2,1.2s-0.1,1-0.3,1.5
			s-0.5,0.9-0.9,1.2c-0.4,0.3-0.9,0.6-1.4,0.8s-1.2,0.3-1.9,0.3c-0.4,0-0.8,0-1.1-0.1c-0.3-0.1-0.7-0.2-1.1-0.3
			c-0.3-0.1-0.7-0.3-0.9-0.4c-0.3-0.2-0.5-0.4-0.8-0.5l0.6-1c0.1-0.1,0.2-0.2,0.3-0.3s0.2-0.1,0.4-0.1s0.3,0,0.5,0.1
			s0.3,0.2,0.5,0.3c0.2,0.1,0.4,0.2,0.7,0.3s0.6,0.1,1,0.1c0.3,0,0.6,0,0.8-0.1s0.4-0.2,0.6-0.3c0.2-0.1,0.3-0.3,0.3-0.4
			c0.1-0.2,0.1-0.3,0.1-0.5c0-0.3-0.1-0.5-0.2-0.6c-0.2-0.2-0.4-0.3-0.6-0.4c-0.3-0.1-0.6-0.2-0.9-0.3c-0.3-0.1-0.7-0.2-1-0.3
			s-0.7-0.3-1-0.4c-0.3-0.2-0.6-0.4-0.9-0.6c-0.3-0.2-0.5-0.5-0.6-0.9c-0.2-0.4-0.2-0.8-0.2-1.3s0.1-0.9,0.3-1.3s0.5-0.8,0.8-1.1
			c0.3-0.3,0.8-0.6,1.3-0.7c0.5-0.2,1.1-0.3,1.8-0.3c0.8,0,1.5,0.1,2.1,0.4s1.2,0.6,1.6,1L788.6,162.3z"/>
	</g>
	<g>
		<path d="M33.4,166.9c0.2,0,0.3,0.1,0.4,0.2l1.2,1.3c-0.6,0.8-1.4,1.4-2.4,1.8c-0.9,0.4-2.1,0.6-3.4,0.6c-1.2,0-2.2-0.2-3.2-0.6
			c-1-0.4-1.7-1-2.4-1.7c-0.7-0.7-1.2-1.6-1.5-2.6c-0.4-1-0.5-2.1-0.5-3.3s0.2-2.3,0.6-3.3s1-1.8,1.7-2.6c0.7-0.7,1.6-1.3,2.6-1.7
			s2.1-0.6,3.3-0.6c1.2,0,2.2,0.2,3.1,0.6c0.9,0.4,1.6,0.9,2.3,1.5l-1,1.4c-0.1,0.1-0.1,0.2-0.2,0.2c-0.1,0.1-0.2,0.1-0.4,0.1
			s-0.3-0.1-0.5-0.2c-0.2-0.1-0.4-0.3-0.7-0.4c-0.3-0.2-0.6-0.3-1-0.4c-0.4-0.1-0.9-0.2-1.6-0.2s-1.4,0.1-2.1,0.4
			c-0.6,0.3-1.2,0.6-1.6,1.1c-0.5,0.5-0.8,1.1-1.1,1.8c-0.3,0.7-0.4,1.5-0.4,2.3c0,0.9,0.1,1.7,0.4,2.4c0.3,0.7,0.6,1.3,1,1.8
			s0.9,0.8,1.5,1.1c0.6,0.3,1.2,0.4,1.9,0.4c0.4,0,0.8,0,1.1-0.1c0.3,0,0.6-0.1,0.9-0.2c0.3-0.1,0.5-0.2,0.8-0.4
			c0.3-0.2,0.5-0.3,0.7-0.6c0.1-0.1,0.2-0.1,0.2-0.2C33.1,166.7,33.3,166.9,33.4,166.9z"/>
		<path d="M41.9,159.2c0.8,0,1.6,0.1,2.3,0.4s1.3,0.7,1.8,1.2s0.9,1.1,1.1,1.8s0.4,1.5,0.4,2.4c0,0.9-0.1,1.7-0.4,2.4
			s-0.6,1.3-1.1,1.8s-1.1,0.9-1.8,1.2s-1.5,0.4-2.3,0.4s-1.6-0.1-2.3-0.4c-0.7-0.3-1.3-0.7-1.8-1.2s-0.9-1.1-1.1-1.8
			c-0.3-0.7-0.4-1.5-0.4-2.4s0.1-1.7,0.4-2.4c0.3-0.7,0.6-1.3,1.1-1.8s1.1-0.9,1.8-1.2C40.2,159.3,41,159.2,41.9,159.2z M41.9,168.7
			c0.9,0,1.6-0.3,2.1-0.9s0.7-1.6,0.7-2.8s-0.2-2.1-0.7-2.8c-0.5-0.6-1.1-1-2.1-1s-1.7,0.3-2.1,1c-0.5,0.6-0.7,1.6-0.7,2.8
			s0.2,2.1,0.7,2.8C40.2,168.4,40.9,168.7,41.9,168.7z"/>
		<path d="M49.5,170.6v-11.3h1.7c0.4,0,0.6,0.2,0.7,0.5l0.2,0.8c0.2-0.2,0.4-0.4,0.6-0.6c0.2-0.2,0.4-0.3,0.7-0.5
			c0.3-0.2,0.5-0.2,0.8-0.3s0.6-0.1,0.9-0.1c0.7,0,1.3,0.2,1.8,0.6c0.5,0.4,0.8,0.9,1,1.5c0.2-0.4,0.4-0.7,0.7-1
			c0.3-0.3,0.6-0.5,0.9-0.7c0.3-0.2,0.7-0.3,1-0.4s0.7-0.1,1.1-0.1c0.6,0,1.2,0.1,1.7,0.3c0.5,0.2,0.9,0.5,1.2,0.8
			c0.3,0.4,0.6,0.8,0.8,1.3s0.3,1.1,0.3,1.8v7.2h-2.7v-7.2c0-0.7-0.2-1.3-0.5-1.6c-0.3-0.4-0.8-0.5-1.4-0.5c-0.3,0-0.5,0-0.8,0.1
			c-0.2,0.1-0.4,0.2-0.6,0.4c-0.2,0.2-0.3,0.4-0.4,0.7s-0.2,0.6-0.2,0.9v7.2h-2.7v-7.2c0-0.8-0.2-1.3-0.5-1.7S55,161,54.5,161
			c-0.4,0-0.8,0.1-1.1,0.3c-0.3,0.2-0.7,0.5-1,0.8v8.3h-2.9V170.6z"/>
		<path d="M68.1,174.3v-15h1.7c0.2,0,0.3,0,0.5,0.1c0.2,0.1,0.2,0.2,0.2,0.4l0.2,1c0.5-0.5,1-0.9,1.6-1.3c0.6-0.3,1.3-0.5,2.1-0.5
			c0.6,0,1.2,0.1,1.7,0.4c0.5,0.3,0.9,0.6,1.3,1.1s0.7,1.1,0.9,1.8c0.2,0.7,0.3,1.5,0.3,2.5c0,0.8-0.1,1.6-0.3,2.3
			c-0.2,0.7-0.6,1.3-1,1.9c-0.4,0.5-0.9,0.9-1.5,1.2c-0.6,0.3-1.3,0.4-2,0.4c-0.6,0-1.2-0.1-1.6-0.3c-0.4-0.2-0.8-0.5-1.2-0.8v4.6
			h-2.9V174.3z M73.3,161.3c-0.6,0-1,0.1-1.4,0.4c-0.4,0.2-0.8,0.6-1.1,1v5.1c0.3,0.4,0.6,0.6,1,0.8s0.8,0.2,1.2,0.2
			c0.4,0,0.8-0.1,1.1-0.2c0.3-0.2,0.6-0.4,0.8-0.7s0.4-0.7,0.5-1.2s0.2-1,0.2-1.7s-0.1-1.2-0.2-1.7s-0.3-0.8-0.5-1.1
			c-0.2-0.3-0.4-0.5-0.7-0.6C74,161.3,73.7,161.3,73.3,161.3z"/>
		<path d="M84.2,170.8c-1,0-1.7-0.3-2.3-0.8c-0.5-0.6-0.8-1.3-0.8-2.3v-6.3H80c-0.1,0-0.3,0-0.4-0.1c-0.1-0.1-0.2-0.2-0.2-0.4v-1.1
			l1.8-0.3l0.6-3.1c0-0.1,0.1-0.3,0.2-0.3c0.1-0.1,0.2-0.1,0.4-0.1h1.4v3.6h3v1.9h-3v6.1c0,0.4,0.1,0.6,0.3,0.8
			c0.2,0.2,0.4,0.3,0.7,0.3c0.2,0,0.3,0,0.4-0.1c0.1,0,0.2-0.1,0.3-0.1c0.1,0,0.2-0.1,0.2-0.1c0.1,0,0.1-0.1,0.2-0.1s0.1,0,0.2,0.1
			c0.1,0,0.1,0.1,0.2,0.2l0.8,1.3c-0.4,0.3-0.9,0.6-1.4,0.7C85.2,170.7,84.8,170.8,84.2,170.8z"/>
		<path d="M97.9,170.6h-1.2c-0.3,0-0.5,0-0.6-0.1c-0.1-0.1-0.3-0.2-0.3-0.5l-0.2-0.8c-0.3,0.3-0.6,0.5-0.8,0.7
			c-0.3,0.2-0.6,0.4-0.9,0.5c-0.3,0.1-0.6,0.2-0.9,0.3c-0.5,0.1-0.9,0.1-1.3,0.1c-0.5,0-0.9-0.1-1.3-0.2s-0.8-0.3-1-0.6
			c-0.3-0.3-0.5-0.6-0.7-1c-0.2-0.4-0.2-0.8-0.2-1.3c0-0.4,0.1-0.8,0.3-1.3c0.2-0.4,0.6-0.8,1.1-1.1c0.5-0.3,1.2-0.6,2.1-0.8
			s1.9-0.3,3.2-0.3v-0.7c0-0.8-0.2-1.3-0.5-1.7s-0.8-0.5-1.4-0.5c-0.4,0-0.8,0.1-1.1,0.2c-0.3,0.1-0.5,0.2-0.8,0.3
			c-0.2,0.1-0.4,0.2-0.6,0.3c-0.2,0.1-0.4,0.2-0.6,0.2s-0.3,0-0.5-0.1c-0.1-0.1-0.2-0.2-0.3-0.4l-0.4-0.9c1.3-1.2,2.9-1.8,4.7-1.8
			c0.7,0,1.2,0.1,1.8,0.3c0.5,0.2,1,0.5,1.3,0.9s0.6,0.8,0.8,1.4c0.2,0.6,0.3,1.1,0.3,1.8C97.9,163.5,97.9,170.6,97.9,170.6z
			 M92.6,168.9c0.3,0,0.5,0,0.8-0.1c0.2-0.1,0.5-0.1,0.7-0.2s0.4-0.2,0.6-0.4c0.2-0.1,0.4-0.3,0.6-0.5v-1.9c-0.8,0-1.5,0-2,0.1
			c-0.5,0.1-1,0.2-1.3,0.4s-0.6,0.3-0.7,0.5s-0.2,0.4-0.2,0.7c0,0.5,0.1,0.8,0.4,1C91.8,168.8,92.1,168.9,92.6,168.9z"/>
		<path d="M100.6,170.6v-16.3h2.7v6.4c0.4-0.5,1-0.9,1.5-1.1c0.6-0.3,1.2-0.4,2-0.4c0.6,0,1.2,0.1,1.7,0.4s0.9,0.6,1.3,1.1
			s0.7,1.1,0.9,1.8c0.2,0.7,0.3,1.5,0.3,2.5c0,0.8-0.1,1.6-0.3,2.3c-0.2,0.7-0.6,1.3-1,1.9c-0.4,0.5-0.9,0.9-1.5,1.2s-1.3,0.4-2,0.4
			c-0.3,0-0.7,0-0.9-0.1c-0.3-0.1-0.5-0.2-0.8-0.3c-0.2-0.1-0.5-0.3-0.7-0.5s-0.4-0.4-0.6-0.6l-0.1,0.8c0,0.2-0.1,0.3-0.2,0.4
			s-0.3,0.1-0.4,0.1C102.5,170.6,100.6,170.6,100.6,170.6z M105.8,161.3c-0.6,0-1,0.1-1.4,0.4c-0.4,0.2-0.8,0.6-1.1,1v5.1
			c0.3,0.4,0.6,0.6,1,0.8s0.8,0.2,1.2,0.2c0.4,0,0.8-0.1,1.1-0.2c0.3-0.2,0.6-0.4,0.8-0.7c0.2-0.3,0.4-0.7,0.5-1.2s0.2-1,0.2-1.7
			s-0.1-1.2-0.2-1.7s-0.3-0.8-0.5-1.1c-0.2-0.3-0.4-0.5-0.7-0.6C106.5,161.3,106.2,161.3,105.8,161.3z"/>
		<path d="M116.4,156.1c0,0.2,0,0.5-0.1,0.7s-0.2,0.4-0.4,0.5s-0.3,0.3-0.6,0.4c-0.2,0.1-0.4,0.1-0.7,0.1c-0.2,0-0.5,0-0.7-0.1
			c-0.2-0.1-0.4-0.2-0.5-0.4c-0.2-0.2-0.3-0.3-0.4-0.5s-0.1-0.4-0.1-0.7c0-0.2,0-0.5,0.1-0.7s0.2-0.4,0.4-0.5
			c0.2-0.2,0.3-0.3,0.5-0.4c0.2-0.1,0.4-0.1,0.7-0.1c0.2,0,0.5,0,0.7,0.1c0.2,0.1,0.4,0.2,0.6,0.4c0.2,0.2,0.3,0.3,0.4,0.5
			S116.4,155.8,116.4,156.1z M116,159.3v11.3h-2.7v-11.3H116z"/>
		<path d="M121.9,154.3v16.3h-2.7v-16.3H121.9z"/>
		<path d="M128.3,156.1c0,0.2,0,0.5-0.1,0.7s-0.2,0.4-0.4,0.5s-0.3,0.3-0.6,0.4c-0.2,0.1-0.4,0.1-0.7,0.1c-0.2,0-0.5,0-0.7-0.1
			c-0.2-0.1-0.4-0.2-0.5-0.4c-0.2-0.2-0.3-0.3-0.4-0.5s-0.1-0.4-0.1-0.7c0-0.2,0-0.5,0.1-0.7s0.2-0.4,0.4-0.5
			c0.2-0.2,0.3-0.3,0.5-0.4c0.2-0.1,0.4-0.1,0.7-0.1c0.2,0,0.5,0,0.7,0.1c0.2,0.1,0.4,0.2,0.6,0.4c0.2,0.2,0.3,0.3,0.4,0.5
			S128.3,155.8,128.3,156.1z M127.9,159.3v11.3h-2.7v-11.3H127.9z"/>
		<path d="M134.7,170.8c-1,0-1.7-0.3-2.3-0.8c-0.5-0.6-0.8-1.3-0.8-2.3v-6.3h-1.1c-0.1,0-0.3,0-0.4-0.1c-0.1-0.1-0.2-0.2-0.2-0.4
			v-1.1l1.8-0.3l0.6-3.1c0-0.1,0.1-0.3,0.2-0.3c0.1-0.1,0.2-0.1,0.4-0.1h1.4v3.6h3v1.9h-3v6.1c0,0.4,0.1,0.6,0.3,0.8
			s0.4,0.3,0.7,0.3c0.2,0,0.3,0,0.4-0.1c0.1,0,0.2-0.1,0.3-0.1s0.2-0.1,0.2-0.1c0.1,0,0.1-0.1,0.2-0.1c0.1,0,0.1,0,0.2,0.1
			c0.1,0,0.1,0.1,0.2,0.2l0.8,1.3c-0.4,0.3-0.9,0.6-1.4,0.7C135.7,170.7,135.2,170.8,134.7,170.8z"/>
		<path d="M144.1,159.2c0.7,0,1.4,0.1,2,0.3c0.6,0.2,1.1,0.6,1.5,1c0.4,0.4,0.8,1,1,1.6s0.4,1.4,0.4,2.2c0,0.2,0,0.4,0,0.5
			s-0.1,0.2-0.1,0.3c0,0.1-0.1,0.1-0.2,0.2c-0.1,0-0.2,0-0.3,0h-7c0.1,1.2,0.4,2,0.9,2.6c0.5,0.5,1.3,0.8,2.2,0.8
			c0.4,0,0.8-0.1,1.1-0.2c0.3-0.1,0.6-0.2,0.8-0.3c0.2-0.1,0.4-0.2,0.6-0.3c0.2-0.1,0.4-0.2,0.5-0.2s0.2,0,0.3,0.1s0.2,0.1,0.2,0.2
			l0.8,1c-0.3,0.4-0.6,0.6-1,0.9c-0.4,0.3-0.8,0.4-1.2,0.6c-0.4,0.1-0.8,0.2-1.2,0.3s-0.8,0.1-1.2,0.1c-0.8,0-1.5-0.1-2.2-0.4
			s-1.3-0.6-1.8-1.2c-0.5-0.5-0.9-1.1-1.2-1.9c-0.3-0.8-0.4-1.6-0.4-2.6c0-0.8,0.1-1.5,0.4-2.2c0.2-0.7,0.6-1.3,1.1-1.8
			s1-0.9,1.7-1.2C142.5,159.3,143.3,159.2,144.1,159.2z M144.2,161.1c-0.8,0-1.4,0.2-1.9,0.7s-0.7,1.1-0.9,1.9h5.1
			c0-0.4,0-0.7-0.1-1c-0.1-0.3-0.2-0.6-0.4-0.8c-0.2-0.2-0.4-0.4-0.7-0.6S144.6,161.1,144.2,161.1z M148,154.5l-2.7,2.9
			c-0.1,0.1-0.3,0.2-0.4,0.3c-0.1,0.1-0.3,0.1-0.5,0.1h-1.6l1.6-2.7c0.1-0.2,0.2-0.3,0.4-0.4c0.1-0.1,0.4-0.1,0.7-0.1h2.5V154.5z"/>
	</g>
	<g>
		<path d="M275.5,134.4h-2.3c-0.3,0-0.5-0.1-0.6-0.2s-0.3-0.3-0.4-0.5l-1.2-3.2h-6.6l-1.2,3.2c-0.1,0.2-0.2,0.3-0.3,0.5
			c-0.1,0.2-0.4,0.2-0.6,0.2H260l6.2-15.9h3L275.5,134.4z M265.2,128.4h5.1l-1.9-5.3c-0.1-0.2-0.2-0.5-0.3-0.8
			c-0.1-0.3-0.2-0.7-0.3-1c-0.1,0.4-0.2,0.7-0.3,1s-0.2,0.6-0.3,0.8L265.2,128.4z"/>
		<path d="M285,125.5c-0.1,0.1-0.2,0.2-0.2,0.2c-0.1,0.1-0.2,0.1-0.3,0.1c-0.1,0-0.3,0-0.4-0.1s-0.3-0.2-0.5-0.3
			c-0.2-0.1-0.4-0.2-0.7-0.3c-0.3-0.1-0.6-0.1-0.9-0.1c-0.5,0-0.9,0.1-1.3,0.3c-0.4,0.2-0.7,0.4-0.9,0.7s-0.4,0.7-0.5,1.2
			s-0.2,1-0.2,1.6c0,0.6,0.1,1.1,0.2,1.6s0.3,0.9,0.6,1.2c0.2,0.3,0.5,0.6,0.9,0.7s0.7,0.2,1.2,0.2s0.8-0.1,1.1-0.2s0.5-0.2,0.7-0.4
			c0.2-0.1,0.3-0.2,0.5-0.4c0.1-0.1,0.3-0.2,0.5-0.2s0.4,0.1,0.5,0.3l0.8,1c-0.3,0.4-0.6,0.6-1,0.9s-0.7,0.4-1.1,0.6
			c-0.4,0.1-0.8,0.2-1.2,0.3c-0.4,0.1-0.8,0.1-1.2,0.1c-0.7,0-1.4-0.1-2-0.4c-0.6-0.3-1.2-0.6-1.6-1.1c-0.5-0.5-0.8-1.1-1.1-1.8
			c-0.3-0.7-0.4-1.5-0.4-2.5c0-0.8,0.1-1.6,0.4-2.3c0.2-0.7,0.6-1.3,1.1-1.8s1-0.9,1.7-1.2s1.5-0.4,2.4-0.4c0.8,0,1.6,0.1,2.2,0.4
			c0.6,0.3,1.2,0.7,1.7,1.2L285,125.5z"/>
		<path d="M287.5,134.4V118h2.7v6.3c0.4-0.4,0.9-0.8,1.5-1c0.5-0.3,1.1-0.4,1.9-0.4c0.6,0,1.2,0.1,1.6,0.3c0.5,0.2,0.9,0.5,1.2,0.9
			c0.3,0.4,0.6,0.8,0.7,1.4c0.1,0.6,0.2,1.1,0.2,1.7v7.2h-2.7v-7.2c0-0.7-0.2-1.2-0.5-1.6c-0.3-0.4-0.8-0.6-1.4-0.6
			c-0.5,0-0.9,0.1-1.3,0.3c-0.4,0.2-0.8,0.5-1.2,0.9v8.2C290.2,134.4,287.5,134.4,287.5,134.4z"/>
		<path d="M308.9,134.4h-1.2c-0.3,0-0.5,0-0.6-0.1s-0.3-0.2-0.3-0.5l-0.2-0.8c-0.3,0.3-0.6,0.5-0.8,0.7c-0.2,0.2-0.6,0.4-0.9,0.5
			c-0.3,0.1-0.6,0.2-0.9,0.3c-0.3,0.1-0.7,0.1-1.1,0.1c-0.5,0-0.9-0.1-1.3-0.2c-0.4-0.1-0.8-0.3-1-0.6c-0.3-0.3-0.5-0.6-0.7-1
			s-0.2-0.8-0.2-1.3c0-0.4,0.1-0.8,0.3-1.3s0.6-0.8,1.1-1.1s1.2-0.6,2.1-0.8c0.9-0.2,1.9-0.3,3.2-0.3v-0.7c0-0.8-0.2-1.3-0.5-1.7
			s-0.8-0.5-1.4-0.5c-0.4,0-0.8,0.1-1.1,0.2c-0.3,0.1-0.5,0.2-0.8,0.3c-0.2,0.1-0.4,0.2-0.6,0.3c-0.2,0.1-0.4,0.2-0.6,0.2
			s-0.3,0-0.5-0.1c-0.1-0.1-0.2-0.2-0.3-0.4l-0.5-0.9c1.3-1.2,2.9-1.8,4.7-1.8c0.7,0,1.2,0.1,1.8,0.3s1,0.5,1.3,0.9
			c0.4,0.4,0.6,0.8,0.8,1.4c0.2,0.5,0.3,1.1,0.3,1.8L308.9,134.4L308.9,134.4z M303.6,132.7c0.3,0,0.5,0,0.8-0.1
			c0.2-0.1,0.5-0.1,0.7-0.2s0.4-0.2,0.6-0.4c0.2-0.1,0.4-0.3,0.6-0.5v-1.9c-0.8,0-1.5,0-2,0.1c-0.5,0.1-1,0.2-1.3,0.4
			s-0.6,0.3-0.7,0.5s-0.2,0.4-0.2,0.7c0,0.5,0.1,0.8,0.4,1C302.8,132.6,303.1,132.7,303.6,132.7z"/>
		<path d="M315.2,134.6c-1,0-1.7-0.3-2.3-0.8c-0.5-0.6-0.8-1.3-0.8-2.3v-6.3H311c-0.1,0-0.3,0-0.4-0.1s-0.2-0.2-0.2-0.4v-1.1
			l1.8-0.3l0.6-3.1c0-0.1,0.1-0.3,0.2-0.3c0.1-0.1,0.2-0.1,0.4-0.1h1.4v3.6h3v1.9h-3v6.1c0,0.4,0.1,0.6,0.3,0.8
			c0.2,0.2,0.4,0.3,0.7,0.3c0.2,0,0.3,0,0.4-0.1c0.1,0,0.2-0.1,0.3-0.1c0.1,0,0.2-0.1,0.2-0.1c0.1,0,0.1-0.1,0.2-0.1s0.1,0,0.2,0.1
			c0.1,0,0.1,0.1,0.2,0.2l0.8,1.3c-0.4,0.3-0.9,0.6-1.4,0.7C316.3,134.5,315.8,134.6,315.2,134.6z"/>
		<path d="M326.8,125.3c-0.1,0.1-0.2,0.2-0.2,0.2s-0.2,0.1-0.3,0.1c-0.1,0-0.3,0-0.4-0.1c-0.1-0.1-0.3-0.2-0.5-0.2
			c-0.2-0.1-0.4-0.2-0.7-0.2c-0.3-0.1-0.6-0.1-0.9-0.1c-0.5,0-1,0.1-1.3,0.3s-0.5,0.5-0.5,0.9c0,0.2,0.1,0.4,0.2,0.6
			s0.4,0.3,0.6,0.4c0.3,0.1,0.6,0.2,0.9,0.3c0.3,0.1,0.7,0.2,1,0.3s0.7,0.3,1,0.4c0.3,0.1,0.6,0.3,0.9,0.6c0.3,0.2,0.5,0.5,0.6,0.8
			c0.2,0.3,0.2,0.7,0.2,1.2s-0.1,1-0.3,1.5c-0.2,0.5-0.5,0.9-0.9,1.2s-0.9,0.6-1.4,0.8s-1.2,0.3-1.9,0.3c-0.4,0-0.8,0-1.1-0.1
			c-0.4-0.1-0.7-0.2-1.1-0.3c-0.3-0.1-0.7-0.3-0.9-0.4c-0.3-0.2-0.5-0.4-0.8-0.5l0.6-1c0.1-0.1,0.2-0.2,0.3-0.3
			c0.1-0.1,0.2-0.1,0.4-0.1c0.2,0,0.3,0,0.5,0.1c0.2,0.1,0.3,0.2,0.5,0.3s0.4,0.2,0.7,0.3c0.3,0.1,0.6,0.1,1,0.1
			c0.3,0,0.6,0,0.8-0.1c0.2-0.1,0.4-0.2,0.6-0.3c0.1-0.1,0.3-0.3,0.3-0.4c0.1-0.2,0.1-0.3,0.1-0.5c0-0.3-0.1-0.5-0.2-0.6
			c-0.2-0.2-0.4-0.3-0.6-0.4c-0.3-0.1-0.6-0.2-0.9-0.3c-0.3-0.1-0.7-0.2-1-0.3s-0.7-0.3-1-0.4c-0.3-0.1-0.6-0.4-0.9-0.6
			s-0.5-0.5-0.6-0.9s-0.2-0.8-0.2-1.3s0.1-0.9,0.3-1.3s0.5-0.8,0.8-1.1c0.4-0.3,0.8-0.6,1.3-0.7c0.5-0.1,1.1-0.3,1.8-0.3
			c0.8,0,1.5,0.1,2.1,0.4s1.2,0.6,1.6,1L326.8,125.3z"/>
	</g>
	<g>
		<path d="M259.6,193.3h2.4c0.3,0,0.5,0.1,0.6,0.2c0.2,0.1,0.3,0.3,0.4,0.5l3.7,9.7c0.1,0.3,0.2,0.7,0.4,1c0.1,0.4,0.2,0.8,0.3,1.2
			c0.2-0.8,0.4-1.6,0.6-2.2l3.7-9.7c0.1-0.2,0.2-0.3,0.4-0.5c0.2-0.1,0.4-0.2,0.6-0.2h2.4l-6.4,15.9H266L259.6,193.3z"/>
		<path d="M279.9,197.7c0.7,0,1.4,0.1,2,0.3c0.6,0.2,1.1,0.6,1.5,1c0.4,0.4,0.8,1,1,1.6s0.4,1.4,0.4,2.2c0,0.2,0,0.4,0,0.5
			s-0.1,0.2-0.1,0.3c0,0.1-0.1,0.1-0.2,0.2c-0.1,0-0.2,0-0.3,0h-7c0.1,1.2,0.4,2,0.9,2.6c0.5,0.5,1.3,0.8,2.2,0.8
			c0.4,0,0.8-0.1,1.1-0.2s0.6-0.2,0.8-0.3c0.2-0.1,0.4-0.2,0.6-0.3s0.4-0.2,0.5-0.2s0.2,0,0.3,0.1s0.2,0.1,0.2,0.2l0.8,1
			c-0.3,0.4-0.6,0.6-1,0.9s-0.8,0.4-1.2,0.6c-0.4,0.1-0.8,0.2-1.2,0.3c-0.4,0.1-0.8,0.1-1.2,0.1c-0.8,0-1.5-0.1-2.2-0.4
			c-0.7-0.3-1.3-0.6-1.8-1.2c-0.5-0.5-0.9-1.1-1.2-1.9c-0.3-0.8-0.4-1.6-0.4-2.6c0-0.8,0.1-1.5,0.4-2.2c0.2-0.7,0.6-1.3,1.1-1.8
			s1-0.9,1.7-1.2C278.3,197.8,279.1,197.7,279.9,197.7z M280,199.6c-0.8,0-1.4,0.2-1.9,0.7c-0.4,0.4-0.7,1.1-0.9,1.9h5.1
			c0-0.4,0-0.7-0.1-1c-0.1-0.3-0.2-0.6-0.4-0.8c-0.2-0.2-0.4-0.4-0.7-0.6S280.4,199.6,280,199.6z"/>
		<path d="M287,209.2v-11.3h1.7c0.4,0,0.6,0.2,0.7,0.5l0.2,0.9c0.2-0.2,0.5-0.4,0.7-0.6c0.3-0.2,0.5-0.4,0.8-0.5s0.6-0.2,0.9-0.3
			s0.7-0.1,1.1-0.1c0.6,0,1.2,0.1,1.6,0.3c0.5,0.2,0.9,0.5,1.2,0.9c0.3,0.4,0.6,0.8,0.7,1.4c0.1,0.6,0.2,1.1,0.2,1.7v7.2h-2.7v-7.2
			c0-0.7-0.2-1.2-0.5-1.6c-0.3-0.4-0.8-0.6-1.4-0.6c-0.5,0-0.9,0.1-1.3,0.3s-0.8,0.5-1.2,0.9v8.2H287V209.2z"/>
		<path d="M303.2,209.3c-1,0-1.7-0.3-2.3-0.8c-0.5-0.6-0.8-1.3-0.8-2.3v-6.3H299c-0.1,0-0.3,0-0.4-0.1c-0.1-0.1-0.2-0.2-0.2-0.4
			v-1.1l1.8-0.3l0.6-3.1c0-0.1,0.1-0.3,0.2-0.3c0.1-0.1,0.2-0.1,0.4-0.1h1.4v3.6h3v1.9h-3v6.1c0,0.4,0.1,0.6,0.3,0.8
			c0.2,0.2,0.4,0.3,0.7,0.3c0.2,0,0.3,0,0.4-0.1c0.1,0,0.2-0.1,0.3-0.1c0.1,0,0.2-0.1,0.2-0.1c0.1,0,0.1-0.1,0.2-0.1s0.1,0,0.2,0.1
			c0.1,0,0.1,0.1,0.2,0.2l0.8,1.3c-0.4,0.3-0.9,0.6-1.4,0.7C304.3,209.3,303.8,209.3,303.2,209.3z"/>
		<path d="M312.7,197.7c0.7,0,1.4,0.1,2,0.3c0.6,0.2,1.1,0.6,1.5,1c0.4,0.4,0.8,1,1,1.6s0.4,1.4,0.4,2.2c0,0.2,0,0.4,0,0.5
			s-0.1,0.2-0.1,0.3c0,0.1-0.1,0.1-0.2,0.2c-0.1,0-0.2,0-0.3,0h-7c0.1,1.2,0.4,2,0.9,2.6c0.5,0.5,1.3,0.8,2.2,0.8
			c0.4,0,0.8-0.1,1.1-0.2s0.6-0.2,0.8-0.3c0.2-0.1,0.4-0.2,0.6-0.3s0.4-0.2,0.5-0.2s0.2,0,0.3,0.1s0.2,0.1,0.2,0.2l0.8,1
			c-0.3,0.4-0.6,0.6-1,0.9s-0.8,0.4-1.2,0.6c-0.4,0.1-0.8,0.2-1.2,0.3c-0.4,0.1-0.8,0.1-1.2,0.1c-0.8,0-1.5-0.1-2.2-0.4
			c-0.7-0.3-1.3-0.6-1.8-1.2c-0.5-0.5-0.9-1.1-1.2-1.9c-0.3-0.8-0.4-1.6-0.4-2.6c0-0.8,0.1-1.5,0.4-2.2c0.2-0.7,0.6-1.3,1.1-1.8
			s1-0.9,1.7-1.2C311.1,197.8,311.9,197.7,312.7,197.7z M312.8,199.6c-0.8,0-1.4,0.2-1.9,0.7c-0.4,0.4-0.7,1.1-0.9,1.9h5.1
			c0-0.4,0-0.7-0.1-1c-0.1-0.3-0.2-0.6-0.4-0.8c-0.2-0.2-0.4-0.4-0.7-0.6S313.2,199.6,312.8,199.6z"/>
		<path d="M326.5,200.1c-0.1,0.1-0.2,0.2-0.2,0.2s-0.2,0.1-0.3,0.1c-0.1,0-0.3,0-0.4-0.1s-0.3-0.2-0.5-0.2c-0.2-0.1-0.4-0.2-0.7-0.2
			c-0.3-0.1-0.6-0.1-0.9-0.1c-0.5,0-1,0.1-1.3,0.3c-0.3,0.2-0.5,0.5-0.5,0.9c0,0.2,0.1,0.4,0.2,0.6c0.1,0.2,0.4,0.3,0.6,0.4
			c0.3,0.1,0.6,0.2,0.9,0.3c0.3,0.1,0.7,0.2,1,0.3s0.7,0.3,1,0.4c0.3,0.1,0.6,0.3,0.9,0.6c0.3,0.2,0.5,0.5,0.6,0.8
			c0.2,0.3,0.2,0.7,0.2,1.2s-0.1,1-0.3,1.5c-0.2,0.5-0.5,0.9-0.9,1.2s-0.9,0.6-1.4,0.8s-1.2,0.3-1.9,0.3c-0.4,0-0.8,0-1.1-0.1
			c-0.4-0.1-0.7-0.2-1.1-0.3c-0.3-0.1-0.7-0.3-0.9-0.4c-0.3-0.2-0.5-0.4-0.8-0.5l0.6-1c0.1-0.1,0.2-0.2,0.3-0.3
			c0.1-0.1,0.2-0.1,0.4-0.1c0.2,0,0.3,0,0.5,0.1s0.3,0.2,0.5,0.3s0.4,0.2,0.7,0.3c0.3,0.1,0.6,0.1,1,0.1c0.3,0,0.6,0,0.8-0.1
			c0.2-0.1,0.4-0.2,0.6-0.3c0.1-0.1,0.3-0.3,0.3-0.4c0.1-0.2,0.1-0.3,0.1-0.5c0-0.3-0.1-0.5-0.2-0.6c-0.2-0.2-0.4-0.3-0.6-0.4
			c-0.3-0.1-0.6-0.2-0.9-0.3c-0.3-0.1-0.7-0.2-1-0.3s-0.7-0.3-1-0.4c-0.3-0.1-0.6-0.4-0.9-0.6s-0.5-0.5-0.6-0.9
			c-0.1-0.4-0.2-0.8-0.2-1.3s0.1-0.9,0.3-1.3c0.2-0.4,0.5-0.8,0.8-1.1c0.4-0.3,0.8-0.6,1.3-0.7s1.1-0.3,1.8-0.3
			c0.8,0,1.5,0.1,2.1,0.4c0.6,0.3,1.2,0.6,1.6,1L326.5,200.1z"/>
	</g>
	<g>
		<path d="M489.3,159.4c-0.1,0.2-0.2,0.3-0.3,0.3c-0.1,0.1-0.2,0.1-0.4,0.1c-0.1,0-0.3-0.1-0.5-0.2s-0.4-0.2-0.6-0.4
			c-0.2-0.1-0.5-0.3-0.9-0.4c-0.3-0.1-0.7-0.2-1.2-0.2c-0.4,0-0.8,0-1.1,0.1c-0.3,0.1-0.6,0.2-0.8,0.4c-0.2,0.2-0.4,0.4-0.5,0.6
			c-0.1,0.2-0.2,0.5-0.2,0.8c0,0.4,0.1,0.7,0.3,0.9c0.2,0.2,0.5,0.5,0.8,0.6c0.3,0.2,0.7,0.3,1.2,0.5c0.5,0.2,0.9,0.3,1.3,0.4
			c0.5,0.2,0.9,0.3,1.3,0.6c0.4,0.2,0.8,0.5,1.2,0.8c0.3,0.3,0.6,0.7,0.8,1.2s0.3,1,0.3,1.7c0,0.7-0.1,1.4-0.4,2
			c-0.3,0.6-0.6,1.2-1.1,1.6c-0.5,0.5-1.1,0.8-1.7,1.1c-0.7,0.3-1.5,0.4-2.3,0.4c-0.5,0-1,0-1.5-0.1c-0.5-0.1-1-0.2-1.4-0.4
			c-0.5-0.2-0.9-0.4-1.3-0.7s-0.7-0.5-1.1-0.9l0.9-1.4c0.1-0.1,0.2-0.2,0.3-0.3s0.2-0.1,0.4-0.1c0.2,0,0.4,0.1,0.6,0.2
			c0.2,0.2,0.5,0.3,0.8,0.5c0.3,0.2,0.6,0.4,1,0.5c0.4,0.2,0.9,0.2,1.4,0.2c0.8,0,1.5-0.2,2-0.6s0.7-1,0.7-1.7c0-0.4-0.1-0.8-0.3-1
			c-0.2-0.3-0.5-0.5-0.8-0.7s-0.7-0.3-1.2-0.5s-0.9-0.3-1.3-0.4c-0.5-0.1-0.9-0.3-1.3-0.5c-0.4-0.2-0.8-0.5-1.2-0.8
			c-0.3-0.3-0.6-0.7-0.8-1.2s-0.3-1.1-0.3-1.8c0-0.6,0.1-1.1,0.3-1.7c0.2-0.6,0.6-1,1-1.5c0.4-0.4,1-0.8,1.6-1
			c0.6-0.3,1.4-0.4,2.2-0.4c0.9,0,1.8,0.1,2.6,0.4c0.8,0.3,1.5,0.7,2,1.2L489.3,159.4z"/>
		<path d="M496.2,172.6c-1,0-1.7-0.3-2.3-0.8c-0.5-0.6-0.8-1.3-0.8-2.3v-6.3H492c-0.1,0-0.3,0-0.4-0.1c-0.1-0.1-0.2-0.2-0.2-0.4
			v-1.1l1.8-0.3l0.6-3.1c0-0.1,0.1-0.3,0.2-0.3c0.1-0.1,0.2-0.1,0.4-0.1h1.4v3.6h3v1.9h-3v6.1c0,0.4,0.1,0.6,0.3,0.8
			c0.2,0.2,0.4,0.3,0.7,0.3c0.2,0,0.3,0,0.4-0.1c0.1,0,0.2-0.1,0.3-0.1c0.1,0,0.2-0.1,0.2-0.1c0.1,0,0.1-0.1,0.2-0.1s0.1,0,0.2,0.1
			c0.1,0,0.1,0.1,0.2,0.2l0.8,1.3c-0.4,0.3-0.9,0.6-1.4,0.7C497.3,172.5,496.7,172.6,496.2,172.6z"/>
		<path d="M505.8,160.9c0.8,0,1.6,0.1,2.3,0.4c0.7,0.3,1.3,0.7,1.8,1.2s0.9,1.1,1.1,1.8c0.3,0.7,0.4,1.5,0.4,2.4
			c0,0.9-0.1,1.7-0.4,2.4s-0.6,1.3-1.1,1.8s-1.1,0.9-1.8,1.2c-0.7,0.3-1.4,0.4-2.3,0.4s-1.6-0.1-2.3-0.4c-0.7-0.3-1.3-0.7-1.8-1.2
			s-0.9-1.1-1.1-1.8c-0.3-0.7-0.4-1.5-0.4-2.4c0-0.9,0.1-1.7,0.4-2.4c0.3-0.7,0.6-1.3,1.1-1.8s1.1-0.9,1.8-1.2
			C504.2,161.1,505,160.9,505.8,160.9z M505.8,170.5c0.9,0,1.6-0.3,2.1-0.9c0.5-0.6,0.7-1.6,0.7-2.8c0-1.2-0.2-2.1-0.7-2.8
			c-0.5-0.6-1.1-1-2.1-1s-1.7,0.3-2.1,1c-0.5,0.6-0.7,1.6-0.7,2.8c0,1.2,0.2,2.1,0.7,2.8C504.1,170.1,504.9,170.5,505.8,170.5z"/>
		<path d="M521.4,163.5c-0.1,0.1-0.2,0.2-0.2,0.2c-0.1,0.1-0.2,0.1-0.3,0.1s-0.3,0-0.4-0.1c-0.1-0.1-0.3-0.2-0.5-0.3
			s-0.4-0.2-0.7-0.3s-0.6-0.1-0.9-0.1c-0.5,0-0.9,0.1-1.3,0.3c-0.4,0.2-0.7,0.4-0.9,0.7c-0.2,0.3-0.4,0.7-0.5,1.2s-0.2,1-0.2,1.6
			s0.1,1.1,0.2,1.6s0.3,0.9,0.6,1.2c0.3,0.3,0.5,0.6,0.9,0.7c0.4,0.1,0.7,0.2,1.2,0.2s0.8-0.1,1-0.2c0.2-0.1,0.5-0.2,0.7-0.4
			c0.2-0.1,0.3-0.2,0.5-0.4c0.1-0.1,0.3-0.2,0.5-0.2s0.4,0.1,0.5,0.3l0.8,1c-0.3,0.4-0.6,0.6-1,0.9s-0.7,0.4-1.1,0.6
			c-0.4,0.1-0.8,0.2-1.2,0.3s-0.8,0.1-1.2,0.1c-0.7,0-1.4-0.1-2-0.4c-0.6-0.3-1.2-0.6-1.6-1.1c-0.5-0.5-0.8-1.1-1.1-1.8
			s-0.4-1.5-0.4-2.5c0-0.8,0.1-1.6,0.4-2.3c0.2-0.7,0.6-1.3,1.1-1.8s1-0.9,1.7-1.2s1.5-0.4,2.4-0.4c0.8,0,1.6,0.1,2.2,0.4
			c0.6,0.3,1.2,0.7,1.7,1.2L521.4,163.5z"/>
		<path d="M526.7,156v9.4h0.5c0.2,0,0.3,0,0.4-0.1c0.1-0.1,0.2-0.1,0.3-0.3l2.8-3.5c0.1-0.1,0.3-0.3,0.4-0.3
			c0.1-0.1,0.3-0.1,0.5-0.1h2.5l-3.5,4.2c-0.1,0.2-0.3,0.3-0.4,0.4c-0.1,0.1-0.3,0.2-0.4,0.3c0.2,0.1,0.3,0.2,0.4,0.4
			c0.1,0.1,0.2,0.3,0.4,0.5l3.8,5.5H532c-0.2,0-0.4,0-0.5-0.1s-0.3-0.2-0.4-0.4l-2.9-4.3c-0.1-0.2-0.2-0.3-0.3-0.3
			c-0.1-0.1-0.3-0.1-0.5-0.1h-0.6v5.2H524V156H526.7z"/>
		<path d="M542.8,163.3c-0.1,0.1-0.2,0.2-0.2,0.2c-0.1,0-0.2,0.1-0.3,0.1s-0.3,0-0.4-0.1s-0.3-0.2-0.5-0.2c-0.2-0.1-0.4-0.2-0.7-0.2
			c-0.3-0.1-0.6-0.1-0.9-0.1c-0.5,0-1,0.1-1.3,0.3c-0.3,0.2-0.5,0.5-0.5,0.9c0,0.2,0.1,0.4,0.2,0.6c0.2,0.2,0.4,0.3,0.6,0.4
			c0.3,0.1,0.6,0.2,0.9,0.3c0.3,0.1,0.7,0.2,1,0.3c0.3,0.1,0.7,0.3,1,0.4c0.3,0.1,0.6,0.3,0.9,0.6c0.3,0.2,0.5,0.5,0.6,0.8
			c0.2,0.3,0.2,0.7,0.2,1.2s-0.1,1-0.3,1.5s-0.5,0.9-0.9,1.2c-0.4,0.3-0.9,0.6-1.4,0.8c-0.6,0.2-1.2,0.3-1.9,0.3
			c-0.4,0-0.8,0-1.1-0.1c-0.4-0.1-0.7-0.2-1.1-0.3c-0.3-0.1-0.7-0.3-0.9-0.4c-0.3-0.2-0.5-0.4-0.8-0.5l0.6-1
			c0.1-0.1,0.2-0.2,0.3-0.3s0.2-0.1,0.4-0.1s0.3,0,0.5,0.1s0.3,0.2,0.5,0.3c0.2,0.1,0.4,0.2,0.7,0.3s0.6,0.1,1,0.1
			c0.3,0,0.6,0,0.8-0.1s0.4-0.2,0.6-0.3c0.1-0.1,0.3-0.3,0.3-0.4c0-0.1,0.1-0.3,0.1-0.5c0-0.3-0.1-0.5-0.2-0.6
			c-0.2-0.2-0.4-0.3-0.6-0.4c-0.3-0.1-0.6-0.2-0.9-0.3c-0.3-0.1-0.7-0.2-1-0.3c-0.3-0.1-0.7-0.3-1-0.4s-0.6-0.4-0.9-0.6
			c-0.3-0.2-0.5-0.5-0.6-0.9c-0.2-0.4-0.2-0.8-0.2-1.3s0.1-0.9,0.3-1.3s0.5-0.8,0.8-1.1c0.4-0.3,0.8-0.6,1.3-0.7
			c0.5-0.1,1.1-0.3,1.8-0.3c0.8,0,1.5,0.1,2.1,0.4s1.2,0.6,1.6,1L542.8,163.3z"/>
	</g>
	<path class="st4" d="M208.5,188.2c-0.4,0-0.8-0.1-1.1-0.3l-37.5-21.7c-0.7-0.4-1.1-1.1-1.1-1.9c0-0.8,0.4-1.5,1.1-1.9l37.5-21.7
		c0.3-0.2,0.7-0.3,1.1-0.3c0.4,0,0.8,0.1,1.1,0.3c0.7,0.4,1.1,1.1,1.1,1.9v43.3c0,0.8-0.4,1.5-1.1,1.9
		C209.3,188.1,208.9,188.2,208.5,188.2z"/>
	<g>
		<path class="st4" d="M601,166.2c0.4,0,0.8-0.1,1.1-0.3l37.5-21.7c0.7-0.4,1.1-1.1,1.1-1.9c0-0.8-0.4-1.5-1.1-1.9l-37.5-21.7
			c-0.3-0.2-0.7-0.3-1.1-0.3c-0.4,0-0.8,0.1-1.1,0.3c-0.7,0.4-1.1,1.1-1.1,1.9v43.3c0,0.8,0.4,1.5,1.1,1.9
			C600.2,166.1,600.6,166.2,601,166.2z"/>
		<path class="st4" d="M638.5,204.2c-0.4,0-0.8-0.1-1.1-0.3l-37.5-21.7c-0.7-0.4-1.1-1.1-1.1-1.9c0-0.8,0.4-1.5,1.1-1.9l37.5-21.7
			c0.3-0.2,0.7-0.3,1.1-0.3c0.4,0,0.8,0.1,1.1,0.3c0.7,0.4,1.1,1.1,1.1,1.9v43.3c0,0.8-0.4,1.5-1.1,1.9
			C639.3,204.1,638.9,204.2,638.5,204.2z"/>
	</g>
	<g>
		<path class="st4" d="M386,166.2c0.4,0,0.8-0.1,1.1-0.3l37.5-21.7c0.7-0.4,1.1-1.1,1.1-1.9c0-0.8-0.4-1.5-1.1-1.9l-37.5-21.7
			c-0.3-0.2-0.7-0.3-1.1-0.3s-0.8,0.1-1.1,0.3c-0.7,0.4-1.1,1.1-1.1,1.9v43.3c0,0.8,0.4,1.5,1.1,1.9
			C385.2,166.1,385.6,166.2,386,166.2z"/>
		<path class="st4" d="M423.5,204.2c-0.4,0-0.8-0.1-1.1-0.3l-37.5-21.7c-0.7-0.4-1.1-1.1-1.1-1.9c0-0.8,0.4-1.5,1.1-1.9l37.5-21.7
			c0.3-0.2,0.7-0.3,1.1-0.3s0.8,0.1,1.1,0.3c0.7,0.4,1.1,1.1,1.1,1.9v43.3c0,0.8-0.4,1.5-1.1,1.9
			C424.3,204.1,423.9,204.2,423.5,204.2z"/>
	</g>
</g>
<path class="st4" d="M470.4,32c0,0.4,0.1,0.8,0.3,1.1l21.7,37.5c0.4,0.7,1.1,1.1,1.9,1.1c0.8,0,1.5-0.4,1.9-1.1l21.7-37.5
	c0.2-0.3,0.3-0.7,0.3-1.1c0-0.4-0.1-0.8-0.3-1.1c-0.4-0.7-1.1-1.1-1.9-1.1h-43.3c-0.8,0-1.5,0.4-1.9,1.1
	C470.5,31.2,470.4,31.6,470.4,32z"/>
<g>
	<path class="st4" d="M555.3,70.6c-0.4,0.7-1.1,1.1-1.9,1.1h-43.3c-0.8,0-1.5-0.4-1.9-1.1c-0.2-0.3-0.3-0.7-0.3-1.1
		c0-0.4,0.1-0.8,0.3-1.1l21.7-37.5c0.4-0.7,1.1-1.1,1.9-1.1s1.5,0.4,1.9,1.1l21.7,37.5c0.2,0.3,0.3,0.7,0.3,1.1
		S555.6,70.3,555.3,70.6z"/>
</g>
<g>
	<path d="M499.9,13.7c0.2,0,0.3,0.1,0.5,0.2l1.3,1.4c-0.7,0.9-1.6,1.5-2.6,2c-1,0.5-2.3,0.7-3.7,0.7c-1.3,0-2.4-0.2-3.5-0.7
		c-1-0.4-1.9-1.1-2.6-1.8c-0.7-0.8-1.3-1.7-1.7-2.8c-0.4-1.1-0.6-2.3-0.6-3.6c0-1.3,0.2-2.5,0.6-3.6s1-2,1.8-2.8
		c0.8-0.8,1.7-1.4,2.8-1.8c1.1-0.4,2.3-0.7,3.6-0.7c1.3,0,2.4,0.2,3.4,0.6s1.8,1,2.5,1.6L500.6,4c-0.1,0.1-0.1,0.2-0.2,0.3
		c-0.1,0.1-0.2,0.1-0.4,0.1c-0.2,0-0.4-0.1-0.6-0.2c-0.2-0.1-0.4-0.3-0.7-0.5s-0.7-0.3-1.1-0.5c-0.5-0.1-1-0.2-1.7-0.2
		c-0.8,0-1.6,0.1-2.2,0.4c-0.7,0.3-1.3,0.7-1.8,1.2c-0.5,0.5-0.9,1.2-1.2,1.9s-0.4,1.6-0.4,2.6c0,1,0.1,1.8,0.4,2.6
		c0.3,0.8,0.6,1.4,1.1,1.9c0.5,0.5,1,0.9,1.7,1.2c0.6,0.3,1.3,0.4,2.1,0.4c0.4,0,0.8,0,1.2-0.1c0.4,0,0.7-0.1,1-0.2
		c0.3-0.1,0.6-0.2,0.9-0.4c0.3-0.2,0.5-0.4,0.8-0.6c0.1-0.1,0.2-0.1,0.3-0.2C499.7,13.8,499.8,13.7,499.9,13.7z"/>
	<path d="M509.1,5.3c0.9,0,1.8,0.1,2.5,0.4s1.4,0.7,1.9,1.3c0.5,0.5,0.9,1.2,1.2,2c0.3,0.8,0.4,1.7,0.4,2.6c0,1-0.1,1.9-0.4,2.6
		c-0.3,0.8-0.7,1.5-1.2,2c-0.5,0.6-1.2,1-1.9,1.3s-1.6,0.4-2.5,0.4s-1.8-0.1-2.5-0.4s-1.4-0.7-1.9-1.3c-0.5-0.6-0.9-1.2-1.2-2
		c-0.3-0.8-0.4-1.7-0.4-2.6c0-1,0.1-1.8,0.4-2.6c0.3-0.8,0.7-1.4,1.2-2c0.5-0.5,1.2-1,1.9-1.3S508.2,5.3,509.1,5.3z M509.1,15.7
		c1,0,1.8-0.3,2.3-1c0.5-0.7,0.7-1.7,0.7-3c0-1.3-0.2-2.3-0.7-3c-0.5-0.7-1.2-1-2.3-1c-1,0-1.8,0.4-2.3,1c-0.5,0.7-0.7,1.7-0.7,3
		c0,1.3,0.2,2.3,0.7,3C507.3,15.4,508.1,15.7,509.1,15.7z"/>
	<path d="M520.7,0v17.8h-3V0H520.7z"/>
	<path d="M527.6,1.9c0,0.3-0.1,0.5-0.2,0.7c-0.1,0.2-0.2,0.4-0.4,0.6c-0.2,0.2-0.4,0.3-0.6,0.4s-0.5,0.1-0.7,0.1
		c-0.3,0-0.5,0-0.7-0.1c-0.2-0.1-0.4-0.2-0.6-0.4s-0.3-0.4-0.4-0.6c-0.1-0.2-0.2-0.5-0.2-0.7c0-0.3,0-0.5,0.2-0.7
		c0.1-0.2,0.2-0.4,0.4-0.6s0.4-0.3,0.6-0.4c0.2-0.1,0.5-0.1,0.7-0.1c0.3,0,0.5,0,0.7,0.1s0.4,0.2,0.6,0.4c0.2,0.2,0.3,0.4,0.4,0.6
		C527.6,1.4,527.6,1.7,527.6,1.9z M527.2,5.5v12.3h-3V5.5H527.2z"/>
	<path d="M537.8,7.9c-0.1,0.1-0.2,0.2-0.3,0.3c-0.1,0.1-0.2,0.1-0.3,0.1c-0.1,0-0.3,0-0.5-0.1c-0.2-0.1-0.4-0.2-0.6-0.3
		c-0.2-0.1-0.5-0.2-0.7-0.3c-0.3-0.1-0.6-0.1-1-0.1c-0.6,0-1,0.1-1.4,0.4c-0.3,0.2-0.5,0.6-0.5,1c0,0.3,0.1,0.5,0.3,0.7
		s0.4,0.3,0.7,0.5c0.3,0.1,0.6,0.3,1,0.4s0.7,0.2,1.1,0.4c0.4,0.1,0.7,0.3,1.1,0.4c0.4,0.2,0.7,0.4,1,0.6s0.5,0.6,0.7,0.9
		c0.2,0.4,0.3,0.8,0.3,1.3c0,0.6-0.1,1.1-0.3,1.6c-0.2,0.5-0.5,0.9-0.9,1.3c-0.4,0.4-0.9,0.6-1.5,0.9c-0.6,0.2-1.3,0.3-2.1,0.3
		c-0.4,0-0.8,0-1.2-0.1c-0.4-0.1-0.8-0.2-1.2-0.3c-0.4-0.1-0.7-0.3-1-0.5c-0.3-0.2-0.6-0.4-0.8-0.6l0.7-1.1c0.1-0.1,0.2-0.2,0.3-0.3
		c0.1-0.1,0.3-0.1,0.5-0.1c0.2,0,0.4,0.1,0.5,0.2s0.4,0.2,0.6,0.3s0.5,0.2,0.8,0.3s0.7,0.2,1.1,0.2c0.4,0,0.7,0,0.9-0.1
		c0.3-0.1,0.5-0.2,0.6-0.3c0.2-0.1,0.3-0.3,0.4-0.5s0.1-0.4,0.1-0.6c0-0.3-0.1-0.5-0.3-0.7s-0.4-0.3-0.7-0.5c-0.3-0.1-0.6-0.3-1-0.4
		c-0.4-0.1-0.7-0.2-1.1-0.4s-0.8-0.3-1.1-0.5c-0.4-0.2-0.7-0.4-1-0.7c-0.3-0.3-0.5-0.6-0.7-1c-0.2-0.4-0.3-0.8-0.3-1.4
		c0-0.5,0.1-1,0.3-1.4s0.5-0.9,0.9-1.2c0.4-0.3,0.9-0.6,1.5-0.8c0.6-0.2,1.2-0.3,2-0.3c0.8,0,1.6,0.1,2.3,0.4
		c0.7,0.3,1.3,0.6,1.7,1.1L537.8,7.9z"/>
</g>
</svg>
