<?xml version="1.0" encoding="utf-8"?>
<!-- Generator: Adobe Illustrator 22.0.1, SVG Export Plug-In . SVG Version: 6.00 Build 0)  -->
<svg version="1.1" id="Calque_1" xmlns="http://www.w3.org/2000/svg" xmlns:xlink="http://www.w3.org/1999/xlink" x="0px" y="0px"
	 viewBox="0 0 1049.5 337" style="enable-background:new 0 0 1049.5 337;" xml:space="preserve">
<style type="text/css">
	.st0{fill:#666666;}
	.st1{fill:#CC0033;}
	.st2{fill:none;stroke:#000000;stroke-miterlimit:10;}
	.st3{fill:none;stroke:#000000;stroke-miterlimit:10;stroke-dasharray:10.0345,10.0345;}
	.st4{fill:none;stroke:#000000;stroke-miterlimit:10;stroke-dasharray:9.8182,9.8182;}
	.st5{fill:#FF9900;}
	.st6{fill:#00CC66;}
	.st7{fill:none;stroke:#000000;stroke-miterlimit:10;stroke-dasharray:10,10;}
</style>
<g>
	<g>
		<path class="st0" d="M154.1,245.8l20-17.2c0.5-0.4,0.7-0.9,0.7-1.4s-0.2-1-0.7-1.4s-1-0.6-1.7-0.6h-16.6v-53h-6.7v53h-16.7
			c-0.6,0-1.2,0.2-1.7,0.6c-0.5,0.4-0.7,0.9-0.7,1.4s0.2,1,0.7,1.4l20,17.2c0.5,0.4,1,0.6,1.7,0.6
			C153.1,246.4,153.6,246.2,154.1,245.8z"/>
		<path class="st1" d="M187.1,77.1c0,8-5.3,12.8-13.2,12.8h-43.1c-7.8,0-13.2-4.8-13.2-12.8c0-11.2,2.6-28.3,17.1-28.3
			c1.5,0,8,6.9,17.7,6.9s16.1-6.9,17.7-6.9C184.4,48.8,187.1,66,187.1,77.1L187.1,77.1z M171.3,33c0,10.5-8.5,19-18.9,19
			c-10.5,0-19-8.5-19-19s8.5-19,19-19S171.3,22.6,171.3,33z"/>
		<g>
			<path d="M34.5,118.8h1.9c0.2,0,0.4,0.1,0.5,0.2s0.2,0.2,0.3,0.4l4.9,12.1c0.1,0.3,0.2,0.6,0.3,0.9c0.1,0.3,0.2,0.7,0.3,1
				c0.1-0.3,0.1-0.7,0.2-1c0.1-0.3,0.2-0.6,0.3-0.9l4.8-12.1c0.1-0.1,0.2-0.3,0.3-0.4s0.3-0.2,0.5-0.2h1.9l-7,17.2h-2.1L34.5,118.8z
				"/>
			<path d="M60,136h-0.9c-0.2,0-0.4,0-0.5-0.1s-0.2-0.2-0.3-0.4l-0.2-1.1c-0.3,0.3-0.6,0.5-0.9,0.8c-0.3,0.2-0.6,0.4-1,0.6
				c-0.3,0.2-0.7,0.3-1.1,0.4c-0.4,0.1-0.8,0.1-1.3,0.1s-0.9-0.1-1.3-0.2c-0.4-0.1-0.8-0.3-1.1-0.6s-0.5-0.6-0.7-1s-0.3-0.9-0.3-1.4
				s0.1-0.9,0.4-1.4c0.3-0.4,0.7-0.8,1.3-1.2c0.6-0.3,1.4-0.6,2.3-0.8c0.9-0.2,2.1-0.3,3.5-0.3v-1c0-1-0.2-1.7-0.6-2.2
				c-0.4-0.5-1-0.7-1.8-0.7c-0.5,0-1,0.1-1.3,0.2c-0.4,0.1-0.7,0.3-0.9,0.4s-0.5,0.3-0.7,0.4s-0.4,0.2-0.6,0.2c-0.1,0-0.3,0-0.4-0.1
				c-0.1-0.1-0.2-0.2-0.3-0.3l-0.4-0.7c0.7-0.6,1.4-1.1,2.2-1.5c0.8-0.3,1.6-0.5,2.6-0.5c0.7,0,1.3,0.1,1.8,0.3
				c0.5,0.2,1,0.5,1.3,0.9c0.4,0.4,0.6,0.9,0.8,1.5s0.3,1.2,0.3,1.9v7.8L60,136L60,136z M54.5,134.7c0.4,0,0.7,0,1-0.1
				s0.6-0.2,0.9-0.3c0.3-0.1,0.5-0.3,0.8-0.5s0.5-0.4,0.7-0.7v-2.5c-1,0-1.8,0.1-2.5,0.2c-0.7,0.1-1.2,0.3-1.7,0.5s-0.7,0.4-0.9,0.7
				s-0.3,0.6-0.3,0.9c0,0.3,0.1,0.6,0.2,0.8c0.1,0.2,0.2,0.4,0.4,0.6c0.2,0.2,0.4,0.3,0.6,0.3C53.9,134.7,54.2,134.7,54.5,134.7z"/>
			<path d="M63.3,136v-12.2h1.2c0.2,0,0.4,0,0.5,0.1s0.1,0.2,0.2,0.5l0.1,1.9c0.4-0.8,0.9-1.5,1.5-2s1.3-0.7,2.2-0.7
				c0.3,0,0.6,0,0.9,0.1s0.5,0.2,0.8,0.3l-0.3,1.6c-0.1,0.2-0.2,0.3-0.4,0.3c-0.1,0-0.3,0-0.5-0.1s-0.6-0.1-1-0.1
				c-0.7,0-1.4,0.2-1.9,0.6s-0.9,1.1-1.3,1.9v7.7L63.3,136L63.3,136z"/>
			<path d="M75.8,120.1c0,0.2,0,0.4-0.1,0.6s-0.2,0.3-0.3,0.5c-0.1,0.1-0.3,0.3-0.5,0.3c-0.2,0.1-0.4,0.1-0.6,0.1s-0.4,0-0.6-0.1
				s-0.3-0.2-0.5-0.3c-0.1-0.1-0.2-0.3-0.3-0.5s-0.1-0.4-0.1-0.6s0-0.4,0.1-0.6s0.2-0.4,0.3-0.5s0.3-0.2,0.5-0.3
				c0.2-0.1,0.4-0.1,0.6-0.1s0.4,0,0.6,0.1s0.3,0.2,0.5,0.3c0.1,0.1,0.3,0.3,0.3,0.5S75.8,119.9,75.8,120.1z M75.3,123.9v12.2h-2.1
				v-12.2C73.2,123.9,75.3,123.9,75.3,123.9z"/>
			<path d="M88,136h-0.9c-0.2,0-0.4,0-0.5-0.1s-0.2-0.2-0.3-0.4l-0.2-1.1c-0.3,0.3-0.6,0.5-0.9,0.8c-0.3,0.2-0.6,0.4-1,0.6
				c-0.3,0.2-0.7,0.3-1.1,0.4c-0.4,0.1-0.8,0.1-1.3,0.1s-0.9-0.1-1.3-0.2c-0.4-0.1-0.8-0.3-1.1-0.6c-0.3-0.3-0.5-0.6-0.7-1
				s-0.3-0.9-0.3-1.4s0.1-0.9,0.4-1.4c0.3-0.4,0.7-0.8,1.3-1.2c0.6-0.3,1.4-0.6,2.3-0.8s2.1-0.3,3.5-0.3v-1c0-1-0.2-1.7-0.6-2.2
				s-1-0.7-1.8-0.7c-0.5,0-1,0.1-1.3,0.2c-0.4,0.1-0.7,0.3-0.9,0.4c-0.2,0.1-0.5,0.3-0.7,0.4s-0.4,0.2-0.6,0.2c-0.1,0-0.3,0-0.4-0.1
				s-0.2-0.2-0.3-0.3l-0.4-0.7c0.7-0.6,1.4-1.1,2.2-1.5c0.8-0.3,1.6-0.5,2.6-0.5c0.7,0,1.3,0.1,1.8,0.3c0.5,0.2,1,0.5,1.3,0.9
				c0.4,0.4,0.6,0.9,0.8,1.5c0.2,0.6,0.3,1.2,0.3,1.9L88,136L88,136z M82.5,134.7c0.4,0,0.7,0,1-0.1s0.6-0.2,0.9-0.3
				s0.5-0.3,0.8-0.5s0.5-0.4,0.7-0.7v-2.5c-1,0-1.8,0.1-2.5,0.2c-0.7,0.1-1.2,0.3-1.7,0.5s-0.7,0.4-0.9,0.7
				c-0.2,0.3-0.3,0.6-0.3,0.9c0,0.3,0.1,0.6,0.2,0.8s0.2,0.4,0.4,0.6c0.2,0.2,0.4,0.3,0.6,0.3C81.9,134.7,82.2,134.7,82.5,134.7z"/>
			<path d="M91.3,136v-12.2h1.3c0.3,0,0.5,0.1,0.6,0.4l0.2,1.3c0.5-0.6,1.1-1.1,1.8-1.4c0.7-0.4,1.4-0.5,2.3-0.5
				c0.7,0,1.2,0.1,1.8,0.3c0.5,0.2,0.9,0.5,1.3,0.9c0.3,0.4,0.6,0.9,0.8,1.5c0.2,0.6,0.3,1.2,0.3,1.9v7.7h-2.1v-7.7
				c0-0.9-0.2-1.6-0.6-2.1s-1.1-0.8-1.9-0.8c-0.6,0-1.2,0.2-1.8,0.5c-0.5,0.3-1.1,0.7-1.5,1.2v9H91.3L91.3,136z"/>
			<path d="M108.3,136.2c-1,0-1.7-0.3-2.2-0.8s-0.8-1.3-0.8-2.3v-7.4h-1.5c-0.1,0-0.2,0-0.3-0.1c-0.1-0.1-0.1-0.2-0.1-0.4v-0.9
				l2-0.3l0.5-3.8c0-0.1,0.1-0.2,0.2-0.3c0.1-0.1,0.2-0.1,0.3-0.1h1.1v4.2h3.5v1.5h-3.5v7.3c0,0.5,0.1,0.9,0.4,1.1
				c0.2,0.2,0.6,0.4,1,0.4c0.2,0,0.4,0,0.6-0.1s0.3-0.1,0.4-0.2c0.1-0.1,0.2-0.1,0.3-0.2s0.2-0.1,0.2-0.1c0.1,0,0.2,0.1,0.3,0.2
				l0.6,1c-0.4,0.3-0.8,0.6-1.3,0.8S108.8,136.2,108.3,136.2z"/>
			<path d="M118.4,123.7c0.7,0,1.4,0.1,2,0.4c0.6,0.2,1.1,0.6,1.6,1.1c0.4,0.5,0.8,1,1.1,1.7c0.3,0.7,0.4,1.4,0.4,2.3
				c0,0.3,0,0.6-0.1,0.7c-0.1,0.1-0.2,0.2-0.4,0.2h-8.1c0,0.8,0.1,1.4,0.3,2s0.5,1,0.8,1.4s0.7,0.7,1.2,0.9s1,0.3,1.6,0.3
				c0.5,0,1-0.1,1.4-0.2c0.4-0.1,0.7-0.3,1-0.4c0.3-0.1,0.5-0.3,0.7-0.4s0.3-0.2,0.5-0.2s0.3,0.1,0.4,0.2l0.6,0.8
				c-0.3,0.3-0.6,0.6-0.9,0.8c-0.4,0.2-0.8,0.4-1.2,0.6c-0.4,0.2-0.9,0.3-1.3,0.3c-0.4,0.1-0.9,0.1-1.3,0.1c-0.8,0-1.6-0.1-2.3-0.4
				c-0.7-0.3-1.3-0.7-1.8-1.2s-0.9-1.2-1.2-2c-0.3-0.8-0.4-1.7-0.4-2.8c0-0.8,0.1-1.6,0.4-2.4c0.3-0.7,0.6-1.4,1.1-1.9
				s1.1-1,1.8-1.3C116.7,123.8,117.5,123.7,118.4,123.7z M118.4,125.3c-1,0-1.8,0.3-2.4,0.9s-1,1.4-1.1,2.5h6.6c0-0.5-0.1-1-0.2-1.4
				s-0.3-0.8-0.6-1.1c-0.3-0.3-0.6-0.5-1-0.7S118.9,125.3,118.4,125.3z"/>
			<path d="M130.7,129.8v-0.3l3-4.7l0.7,0.3c0.1,0.1,0.2,0.1,0.3,0.2s0.1,0.2,0.1,0.3c0,0.1,0,0.3-0.1,0.4l-1.9,3.1
				c-0.1,0.2-0.2,0.3-0.3,0.4c0.1,0.1,0.2,0.3,0.3,0.4l1.9,3.1c0,0.1,0.1,0.1,0.1,0.2c0,0.1,0,0.1,0,0.2c0,0.2-0.1,0.4-0.3,0.5
				l-0.7,0.3L130.7,129.8z M134.2,129.8v-0.3l3-4.7l0.7,0.3c0.1,0.1,0.2,0.1,0.3,0.2s0.1,0.2,0.1,0.3c0,0.1,0,0.3-0.1,0.4l-1.9,3.1
				c-0.1,0.2-0.2,0.3-0.3,0.4c0.1,0.1,0.2,0.3,0.3,0.4l1.9,3.1c0,0.1,0.1,0.1,0.1,0.2c0,0.1,0,0.1,0,0.2c0,0.2-0.1,0.4-0.3,0.5
				l-0.7,0.3L134.2,129.8z"/>
			<path d="M158.5,118.8v2H153V136h-2.3v-15.2h-5.6v-2H158.5z"/>
			<path d="M163,123.7c0.7,0,1.4,0.1,2,0.4s1.1,0.6,1.6,1.1s0.8,1,1,1.7c0.3,0.7,0.4,1.4,0.4,2.3c0,0.3,0,0.6-0.1,0.7
				c-0.1,0.1-0.2,0.2-0.4,0.2h-8.1c0,0.8,0.1,1.4,0.3,2s0.5,1,0.8,1.4s0.7,0.7,1.2,0.9s1,0.3,1.6,0.3c0.5,0,1-0.1,1.4-0.2
				c0.4-0.1,0.7-0.3,1-0.4s0.5-0.3,0.7-0.4c0.2-0.1,0.3-0.2,0.5-0.2s0.3,0.1,0.4,0.2l0.6,0.8c-0.3,0.3-0.6,0.6-0.9,0.8
				c-0.4,0.2-0.8,0.4-1.2,0.6c-0.4,0.2-0.9,0.3-1.3,0.3c-0.4,0.1-0.9,0.1-1.3,0.1c-0.8,0-1.6-0.1-2.3-0.4c-0.7-0.3-1.3-0.7-1.8-1.2
				s-0.9-1.2-1.2-2s-0.4-1.7-0.4-2.8c0-0.8,0.1-1.6,0.4-2.4c0.3-0.7,0.6-1.4,1.1-1.9s1.1-1,1.8-1.3
				C161.3,123.8,162.1,123.7,163,123.7z M163,125.3c-1,0-1.8,0.3-2.4,0.9c-0.6,0.6-1,1.4-1.1,2.5h6.6c0-0.5-0.1-1-0.2-1.4
				c-0.1-0.4-0.3-0.8-0.6-1.1s-0.6-0.5-1-0.7S163.5,125.3,163,125.3z"/>
			<path d="M179,126c-0.1,0.1-0.1,0.2-0.2,0.2c-0.1,0-0.2,0.1-0.3,0.1s-0.2,0-0.4-0.1c-0.1-0.1-0.3-0.2-0.5-0.3
				c-0.2-0.1-0.5-0.2-0.8-0.3c-0.3-0.1-0.7-0.2-1.1-0.2c-0.6,0-1.1,0.1-1.6,0.3s-0.8,0.5-1.1,0.9s-0.5,0.9-0.7,1.5s-0.2,1.2-0.2,1.9
				s0.1,1.4,0.3,2s0.4,1.1,0.7,1.4c0.3,0.4,0.7,0.7,1.1,0.9c0.4,0.2,0.9,0.3,1.5,0.3c0.5,0,0.9-0.1,1.3-0.2s0.6-0.3,0.8-0.4
				s0.4-0.3,0.6-0.4c0.1-0.1,0.3-0.2,0.4-0.2c0.2,0,0.3,0.1,0.4,0.2l0.6,0.8c-0.5,0.6-1.2,1.1-2,1.4c-0.8,0.3-1.6,0.5-2.5,0.5
				c-0.8,0-1.5-0.1-2.1-0.4s-1.2-0.7-1.7-1.2s-0.9-1.2-1.1-2c-0.3-0.8-0.4-1.7-0.4-2.7c0-0.9,0.1-1.7,0.4-2.5c0.3-0.8,0.6-1.4,1.1-2
				s1.1-1,1.8-1.3s1.5-0.5,2.4-0.5c0.8,0,1.6,0.1,2.3,0.4s1.2,0.7,1.7,1.2L179,126z"/>
			<path d="M181.9,136v-17.7h2.1v7.2c0.5-0.6,1.1-1,1.7-1.3c0.6-0.3,1.4-0.5,2.2-0.5c0.7,0,1.2,0.1,1.8,0.3c0.5,0.2,0.9,0.5,1.3,0.9
				c0.3,0.4,0.6,0.9,0.8,1.5s0.3,1.2,0.3,1.9v7.7H190v-7.7c0-0.9-0.2-1.6-0.6-2.1c-0.4-0.5-1.1-0.8-1.9-0.8c-0.6,0-1.2,0.2-1.8,0.5
				c-0.5,0.3-1.1,0.7-1.5,1.2v9L181.9,136L181.9,136z"/>
			<path d="M195.3,136v-12.2h1.3c0.3,0,0.5,0.1,0.6,0.4l0.2,1.3c0.5-0.6,1.1-1.1,1.8-1.4c0.7-0.4,1.4-0.5,2.3-0.5
				c0.7,0,1.2,0.1,1.8,0.3c0.5,0.2,0.9,0.5,1.3,0.9c0.3,0.4,0.6,0.9,0.8,1.5s0.3,1.2,0.3,1.9v7.7h-2.1v-7.7c0-0.9-0.2-1.6-0.6-2.1
				c-0.4-0.5-1.1-0.8-1.9-0.8c-0.6,0-1.2,0.2-1.8,0.5c-0.5,0.3-1.1,0.7-1.5,1.2v9H195.3L195.3,136z"/>
			<path d="M211.5,120.1c0,0.2,0,0.4-0.1,0.6s-0.2,0.3-0.3,0.5c-0.1,0.1-0.3,0.3-0.5,0.3c-0.2,0.1-0.4,0.1-0.6,0.1s-0.4,0-0.6-0.1
				c-0.2-0.1-0.3-0.2-0.5-0.3c-0.1-0.1-0.2-0.3-0.3-0.5s-0.1-0.4-0.1-0.6s0-0.4,0.1-0.6s0.2-0.4,0.3-0.5s0.3-0.2,0.5-0.3
				c0.2-0.1,0.4-0.1,0.6-0.1s0.4,0,0.6,0.1c0.2,0.1,0.3,0.2,0.5,0.3c0.1,0.1,0.3,0.3,0.3,0.5S211.5,119.9,211.5,120.1z M211,123.9
				v12.2h-2.1v-12.2C208.9,123.9,211,123.9,211,123.9z"/>
			<path d="M223,126c-0.1,0.1-0.1,0.2-0.2,0.2c-0.1,0-0.2,0.1-0.3,0.1s-0.2,0-0.4-0.1c-0.1-0.1-0.3-0.2-0.5-0.3
				c-0.2-0.1-0.5-0.2-0.8-0.3c-0.3-0.1-0.7-0.2-1.1-0.2c-0.6,0-1.1,0.1-1.6,0.3s-0.8,0.5-1.1,0.9s-0.5,0.9-0.7,1.5s-0.2,1.2-0.2,1.9
				s0.1,1.4,0.3,2s0.4,1.1,0.7,1.4c0.3,0.4,0.7,0.7,1.1,0.9c0.4,0.2,0.9,0.3,1.5,0.3c0.5,0,0.9-0.1,1.3-0.2s0.6-0.3,0.8-0.4
				s0.4-0.3,0.6-0.4c0.1-0.1,0.3-0.2,0.4-0.2c0.2,0,0.3,0.1,0.4,0.2l0.6,0.8c-0.5,0.6-1.2,1.1-2,1.4c-0.8,0.3-1.6,0.5-2.5,0.5
				c-0.8,0-1.5-0.1-2.1-0.4s-1.2-0.7-1.7-1.2s-0.9-1.2-1.1-2c-0.3-0.8-0.4-1.7-0.4-2.7c0-0.9,0.1-1.7,0.4-2.5c0.3-0.8,0.6-1.4,1.1-2
				s1.1-1,1.8-1.3s1.5-0.5,2.4-0.5c0.8,0,1.6,0.1,2.3,0.4s1.2,0.7,1.7,1.2L223,126z"/>
			<path d="M228.8,120.1c0,0.2,0,0.4-0.1,0.6s-0.2,0.3-0.3,0.5c-0.1,0.1-0.3,0.3-0.5,0.3c-0.2,0.1-0.4,0.1-0.6,0.1s-0.4,0-0.6-0.1
				c-0.2-0.1-0.3-0.2-0.5-0.3c-0.1-0.1-0.2-0.3-0.3-0.5s-0.1-0.4-0.1-0.6s0-0.4,0.1-0.6s0.2-0.4,0.3-0.5s0.3-0.2,0.5-0.3
				c0.2-0.1,0.4-0.1,0.6-0.1s0.4,0,0.6,0.1c0.2,0.1,0.3,0.2,0.5,0.3c0.1,0.1,0.3,0.3,0.3,0.5S228.8,119.9,228.8,120.1z M228.3,123.9
				v12.2h-2.1v-12.2C226.2,123.9,228.3,123.9,228.3,123.9z"/>
			<path d="M236.9,123.7c0.7,0,1.4,0.1,2,0.4s1.1,0.6,1.6,1.1s0.8,1,1,1.7c0.3,0.7,0.4,1.4,0.4,2.3c0,0.3,0,0.6-0.1,0.7
				c-0.1,0.1-0.2,0.2-0.4,0.2h-8.1c0,0.8,0.1,1.4,0.3,2s0.5,1,0.8,1.4s0.7,0.7,1.2,0.9s1,0.3,1.6,0.3c0.5,0,1-0.1,1.4-0.2
				c0.4-0.1,0.7-0.3,1-0.4s0.5-0.3,0.7-0.4c0.2-0.1,0.3-0.2,0.5-0.2s0.3,0.1,0.4,0.2l0.6,0.8c-0.3,0.3-0.6,0.6-0.9,0.8
				c-0.4,0.2-0.8,0.4-1.2,0.6c-0.4,0.2-0.9,0.3-1.3,0.3c-0.4,0.1-0.9,0.1-1.3,0.1c-0.8,0-1.6-0.1-2.3-0.4c-0.7-0.3-1.3-0.7-1.8-1.2
				s-0.9-1.2-1.2-2s-0.4-1.7-0.4-2.8c0-0.8,0.1-1.6,0.4-2.4c0.3-0.7,0.6-1.4,1.1-1.9s1.1-1,1.8-1.3
				C235.2,123.8,236,123.7,236.9,123.7z M237,125.3c-1,0-1.8,0.3-2.4,0.9c-0.6,0.6-1,1.4-1.1,2.5h6.6c0-0.5-0.1-1-0.2-1.4
				c-0.1-0.4-0.3-0.8-0.6-1.1s-0.6-0.5-1-0.7S237.5,125.3,237,125.3z"/>
			<path d="M244.7,136v-12.2h1.3c0.3,0,0.5,0.1,0.6,0.4l0.2,1.3c0.5-0.6,1.1-1.1,1.8-1.4c0.7-0.4,1.4-0.5,2.3-0.5
				c0.7,0,1.2,0.1,1.8,0.3c0.5,0.2,0.9,0.5,1.3,0.9c0.3,0.4,0.6,0.9,0.8,1.5s0.3,1.2,0.3,1.9v7.7H253v-7.7c0-0.9-0.2-1.6-0.6-2.1
				c-0.4-0.5-1.1-0.8-1.9-0.8c-0.6,0-1.2,0.2-1.8,0.5c-0.5,0.3-1.1,0.7-1.5,1.2v9H244.7L244.7,136z"/>
			<path d="M263.7,134.5l-0.7-0.3c-0.2-0.1-0.3-0.3-0.3-0.5c0-0.1,0-0.3,0.1-0.4l1.9-3.1c0.1-0.2,0.2-0.3,0.3-0.4
				c-0.1-0.1-0.2-0.2-0.3-0.4l-1.9-3.1c-0.1-0.1-0.1-0.3-0.1-0.4c0-0.2,0.1-0.4,0.3-0.5l0.7-0.3l3,4.7v0.3L263.7,134.5z
				 M270.3,129.5v0.3l-3,4.7l-0.7-0.3c-0.2-0.1-0.3-0.3-0.3-0.5c0-0.1,0-0.3,0.1-0.4l1.9-3.1c0.1-0.2,0.2-0.3,0.3-0.4
				c-0.1-0.1-0.2-0.2-0.3-0.4l-1.9-3.1c-0.1-0.1-0.1-0.3-0.1-0.4c0-0.2,0.1-0.4,0.3-0.5l0.7-0.3L270.3,129.5z"/>
		</g>
		<g>
			<path d="M74,291.6c0.1,0,0.2,0.1,0.3,0.2l0.9,1c-0.7,0.8-1.6,1.5-2.6,1.9s-2.2,0.7-3.6,0.7c-1.2,0-2.4-0.2-3.4-0.6
				s-1.9-1-2.6-1.8c-0.7-0.8-1.3-1.7-1.7-2.8s-0.6-2.3-0.6-3.6s0.2-2.5,0.6-3.6s1-2,1.8-2.8s1.7-1.4,2.7-1.8s2.2-0.6,3.5-0.6
				s2.4,0.2,3.3,0.6s1.7,0.9,2.4,1.6l-0.8,1.1c-0.1,0.1-0.1,0.1-0.2,0.2s-0.2,0.1-0.3,0.1s-0.2,0-0.3-0.1s-0.3-0.2-0.4-0.3
				c-0.2-0.1-0.3-0.2-0.6-0.4c-0.2-0.1-0.5-0.2-0.8-0.4c-0.3-0.1-0.6-0.2-1-0.3s-0.8-0.1-1.4-0.1c-0.9,0-1.8,0.2-2.5,0.5
				c-0.8,0.3-1.4,0.8-2,1.4s-1,1.3-1.3,2.1s-0.5,1.8-0.5,2.8c0,1.1,0.2,2,0.5,2.9c0.3,0.8,0.7,1.5,1.3,2.1c0.5,0.6,1.2,1,1.9,1.3
				c0.7,0.3,1.5,0.5,2.4,0.5c0.5,0,1,0,1.4-0.1s0.8-0.2,1.1-0.3c0.3-0.1,0.7-0.3,1-0.5s0.6-0.4,0.9-0.7
				C73.8,291.6,73.9,291.6,74,291.6z"/>
			<path d="M78,295.1V283h1.2c0.2,0,0.4,0,0.5,0.1s0.1,0.2,0.2,0.5l0.1,1.9c0.4-0.8,0.9-1.5,1.5-2s1.3-0.7,2.2-0.7
				c0.3,0,0.6,0,0.9,0.1s0.5,0.2,0.8,0.3l-0.3,1.6c-0.1,0.2-0.2,0.3-0.4,0.3c-0.1,0-0.3,0-0.5-0.1s-0.6-0.1-1-0.1
				c-0.7,0-1.4,0.2-1.9,0.6s-0.9,1.1-1.3,1.9v7.7L78,295.1L78,295.1z"/>
			<path d="M92.5,282.8c0.7,0,1.4,0.1,2,0.4c0.6,0.2,1.1,0.6,1.6,1.1c0.4,0.5,0.8,1,1.1,1.7s0.4,1.4,0.4,2.3c0,0.3,0,0.6-0.1,0.7
				s-0.2,0.2-0.4,0.2H89c0,0.8,0.1,1.4,0.3,2c0.2,0.6,0.5,1,0.8,1.4s0.7,0.7,1.2,0.9c0.5,0.2,1,0.3,1.6,0.3c0.5,0,1-0.1,1.4-0.2
				s0.7-0.3,1-0.4s0.5-0.3,0.7-0.4s0.3-0.2,0.5-0.2s0.3,0.1,0.4,0.2l0.6,0.8c-0.3,0.3-0.6,0.6-0.9,0.8c-0.4,0.2-0.8,0.4-1.2,0.6
				c-0.4,0.2-0.9,0.3-1.3,0.3c-0.4,0.1-0.9,0.1-1.3,0.1c-0.8,0-1.6-0.1-2.3-0.4c-0.7-0.3-1.3-0.7-1.8-1.2s-0.9-1.2-1.2-2
				c-0.3-0.8-0.4-1.7-0.4-2.8c0-0.8,0.1-1.6,0.4-2.4c0.3-0.7,0.6-1.4,1.1-1.9s1.1-1,1.8-1.3C90.8,282.9,91.6,282.8,92.5,282.8z
				 M92.5,284.4c-1,0-1.8,0.3-2.4,0.9s-1,1.4-1.1,2.5h6.6c0-0.5-0.1-0.9-0.2-1.4c-0.1-0.4-0.3-0.8-0.6-1.1c-0.3-0.3-0.6-0.5-1-0.7
				S93,284.4,92.5,284.4z M96,277.8l-2.8,3.1c-0.1,0.1-0.2,0.2-0.3,0.3c-0.1,0.1-0.2,0.1-0.4,0.1h-1.3l1.8-2.9
				c0.1-0.2,0.2-0.3,0.4-0.4c0.1-0.1,0.3-0.1,0.6-0.1h2C96,277.9,96,277.8,96,277.8z"/>
			<path d="M109.2,295.1h-0.9c-0.2,0-0.4,0-0.5-0.1s-0.2-0.2-0.3-0.4l-0.2-1.1c-0.3,0.3-0.6,0.5-0.9,0.8c-0.3,0.2-0.6,0.4-1,0.6
				s-0.7,0.3-1.1,0.4s-0.8,0.1-1.3,0.1s-0.9-0.1-1.3-0.2s-0.8-0.3-1.1-0.6c-0.3-0.3-0.5-0.6-0.7-1s-0.3-0.9-0.3-1.4s0.1-0.9,0.4-1.4
				s0.7-0.8,1.3-1.2c0.6-0.3,1.4-0.6,2.3-0.8s2.1-0.3,3.5-0.3v-1c0-1-0.2-1.7-0.6-2.2s-1-0.7-1.8-0.7c-0.5,0-1,0.1-1.3,0.2
				c-0.4,0.1-0.7,0.3-0.9,0.4s-0.5,0.3-0.7,0.4s-0.4,0.2-0.6,0.2c-0.1,0-0.3,0-0.4-0.1s-0.2-0.2-0.3-0.3l-0.4-0.7
				c0.7-0.6,1.4-1.1,2.2-1.5c0.8-0.3,1.6-0.5,2.6-0.5c0.7,0,1.3,0.1,1.8,0.3c0.5,0.2,1,0.5,1.3,0.9c0.4,0.4,0.6,0.9,0.8,1.5
				c0.2,0.6,0.3,1.2,0.3,1.9L109.2,295.1L109.2,295.1z M103.6,293.8c0.4,0,0.7,0,1-0.1s0.6-0.2,0.9-0.3c0.3-0.1,0.5-0.3,0.8-0.5
				s0.5-0.4,0.7-0.7v-2.5c-1,0-1.8,0.1-2.5,0.2s-1.2,0.3-1.7,0.5c-0.4,0.2-0.7,0.4-0.9,0.7c-0.2,0.3-0.3,0.6-0.3,0.9
				s0.1,0.6,0.2,0.8s0.2,0.4,0.4,0.6c0.2,0.1,0.4,0.3,0.6,0.3C103.1,293.8,103.4,293.8,103.6,293.8z"/>
			<path d="M116.1,295.3c-1,0-1.7-0.3-2.2-0.8s-0.8-1.3-0.8-2.3v-7.4h-1.5c-0.1,0-0.2,0-0.3-0.1c-0.1-0.1-0.1-0.2-0.1-0.4v-0.9
				l2-0.3l0.5-3.8c0-0.1,0.1-0.2,0.2-0.3s0.2-0.1,0.3-0.1h1.1v4.2h3.5v1.5h-3.5v7.3c0,0.5,0.1,0.9,0.4,1.1s0.6,0.4,1,0.4
				c0.2,0,0.4,0,0.6-0.1s0.3-0.1,0.4-0.2s0.2-0.1,0.3-0.2c0.1-0.1,0.2-0.1,0.2-0.1c0.1,0,0.2,0.1,0.3,0.2l0.6,1
				c-0.4,0.3-0.8,0.6-1.3,0.8C117.2,295.2,116.7,295.3,116.1,295.3z"/>
			<path d="M124.2,279.2c0,0.2,0,0.4-0.1,0.6s-0.2,0.3-0.3,0.5c-0.1,0.1-0.3,0.2-0.5,0.3c-0.2,0.1-0.4,0.1-0.6,0.1s-0.4,0-0.6-0.1
				s-0.3-0.2-0.5-0.3c-0.1-0.1-0.2-0.3-0.3-0.5c-0.1-0.2-0.1-0.4-0.1-0.6s0-0.4,0.1-0.6s0.2-0.4,0.3-0.5c0.1-0.1,0.3-0.2,0.5-0.3
				c0.2-0.1,0.4-0.1,0.6-0.1s0.4,0,0.6,0.1s0.3,0.2,0.5,0.3c0.1,0.1,0.3,0.3,0.3,0.5C124.2,278.8,124.2,279,124.2,279.2z M123.8,283
				v12.2h-2.2V283H123.8z"/>
			<path d="M132.4,282.8c0.9,0,1.7,0.1,2.4,0.4s1.3,0.7,1.8,1.3s0.9,1.2,1.2,2s0.4,1.6,0.4,2.6s-0.1,1.8-0.4,2.6
				c-0.3,0.8-0.7,1.4-1.2,2c-0.5,0.5-1.1,1-1.8,1.3s-1.5,0.4-2.4,0.4s-1.7-0.1-2.4-0.4s-1.3-0.7-1.8-1.3c-0.5-0.5-0.9-1.2-1.2-2
				c-0.3-0.8-0.4-1.6-0.4-2.6s0.1-1.8,0.4-2.6s0.7-1.4,1.2-2c0.5-0.6,1.1-1,1.8-1.3C130.8,282.9,131.6,282.8,132.4,282.8z
				 M132.4,293.6c1.2,0,2.1-0.4,2.7-1.2c0.6-0.8,0.9-1.9,0.9-3.4c0-1.4-0.3-2.6-0.9-3.4c-0.6-0.8-1.5-1.2-2.7-1.2
				c-0.6,0-1.1,0.1-1.6,0.3c-0.4,0.2-0.8,0.5-1.1,0.9s-0.5,0.9-0.7,1.4s-0.2,1.2-0.2,1.9c0,0.7,0.1,1.4,0.2,1.9
				c0.1,0.6,0.4,1,0.7,1.4s0.7,0.7,1.1,0.9C131.2,293.3,131.8,293.6,132.4,293.6z"/>
			<path d="M140.9,295.1V283h1.3c0.3,0,0.5,0.1,0.6,0.4l0.2,1.3c0.5-0.6,1.1-1.1,1.8-1.4c0.7-0.4,1.4-0.5,2.3-0.5
				c0.7,0,1.2,0.1,1.8,0.3c0.5,0.2,0.9,0.5,1.3,0.9c0.3,0.4,0.6,0.9,0.8,1.5s0.3,1.2,0.3,1.9v7.7h-2.1v-7.7c0-0.9-0.2-1.6-0.6-2.1
				c-0.4-0.5-1.1-0.8-1.9-0.8c-0.6,0-1.2,0.2-1.8,0.5c-0.5,0.3-1.1,0.7-1.5,1.2v9L140.9,295.1L140.9,295.1z"/>
			<path d="M158.8,295.1V283h1.3c0.3,0,0.5,0.1,0.6,0.4l0.2,1.3c0.5-0.6,1.1-1.1,1.8-1.4c0.7-0.4,1.4-0.5,2.3-0.5
				c0.7,0,1.2,0.1,1.8,0.3c0.5,0.2,0.9,0.5,1.3,0.9c0.3,0.4,0.6,0.9,0.8,1.5s0.3,1.2,0.3,1.9v7.7h-2.1v-7.7c0-0.9-0.2-1.6-0.6-2.1
				s-1.1-0.8-1.9-0.8c-0.6,0-1.2,0.2-1.8,0.5c-0.5,0.3-1.1,0.7-1.5,1.2v9L158.8,295.1L158.8,295.1z"/>
			<path d="M177.1,282.8c0.9,0,1.7,0.1,2.4,0.4s1.3,0.7,1.8,1.3s0.9,1.2,1.2,2s0.4,1.6,0.4,2.6s-0.1,1.8-0.4,2.6
				c-0.3,0.8-0.7,1.4-1.2,2c-0.5,0.5-1.1,1-1.8,1.3s-1.5,0.4-2.4,0.4s-1.7-0.1-2.4-0.4s-1.3-0.7-1.8-1.3c-0.5-0.5-0.9-1.2-1.2-2
				s-0.4-1.6-0.4-2.6s0.1-1.8,0.4-2.6s0.7-1.4,1.2-2s1.1-1,1.8-1.3S176.2,282.8,177.1,282.8z M177.1,293.6c1.2,0,2.1-0.4,2.7-1.2
				c0.6-0.8,0.9-1.9,0.9-3.4c0-1.4-0.3-2.6-0.9-3.4c-0.6-0.8-1.5-1.2-2.7-1.2c-0.6,0-1.1,0.1-1.6,0.3c-0.4,0.2-0.8,0.5-1.1,0.9
				s-0.5,0.9-0.7,1.4s-0.2,1.2-0.2,1.9c0,0.7,0.1,1.4,0.2,1.9c0.1,0.6,0.4,1,0.7,1.4s0.7,0.7,1.1,0.9S176.5,293.6,177.1,293.6z"/>
			<path d="M187.4,283v7.8c0,0.9,0.2,1.6,0.6,2.1c0.4,0.5,1.1,0.8,1.9,0.8c0.6,0,1.2-0.1,1.8-0.4s1.1-0.7,1.5-1.2v-9h2.1v12.2H194
				c-0.3,0-0.5-0.1-0.6-0.4l-0.2-1.3c-0.5,0.6-1.1,1.1-1.8,1.4c-0.7,0.4-1.4,0.5-2.3,0.5c-0.7,0-1.3-0.1-1.8-0.3
				c-0.5-0.2-0.9-0.5-1.3-0.9c-0.3-0.4-0.6-0.9-0.8-1.5s-0.3-1.2-0.3-1.9V283H187.4z"/>
			<path d="M197.3,283h1.8c0.2,0,0.3,0,0.4,0.1c0.1,0.1,0.2,0.2,0.2,0.3l3.1,7.8c0.1,0.3,0.2,0.6,0.3,0.9s0.1,0.6,0.2,0.9
				c0.1-0.3,0.1-0.6,0.2-0.9c0.1-0.3,0.2-0.6,0.3-0.9l3.1-7.8c0-0.1,0.1-0.2,0.2-0.3c0.1-0.1,0.2-0.1,0.4-0.1h1.7l-5,12.2h-1.9
				L197.3,283z"/>
			<path d="M215.7,282.8c0.7,0,1.4,0.1,2,0.4c0.6,0.2,1.1,0.6,1.6,1.1c0.4,0.5,0.8,1,1.1,1.7s0.4,1.4,0.4,2.3c0,0.3,0,0.6-0.1,0.7
				s-0.2,0.2-0.4,0.2h-8.1c0,0.8,0.1,1.4,0.3,2s0.5,1,0.8,1.4s0.7,0.7,1.2,0.9c0.5,0.2,1,0.3,1.6,0.3c0.5,0,1-0.1,1.4-0.2
				s0.7-0.3,1-0.4s0.5-0.3,0.7-0.4s0.3-0.2,0.5-0.2s0.3,0.1,0.4,0.2l0.6,0.8c-0.3,0.3-0.6,0.6-0.9,0.8c-0.4,0.2-0.8,0.4-1.2,0.6
				s-0.9,0.3-1.3,0.3c-0.4,0.1-0.9,0.1-1.3,0.1c-0.8,0-1.6-0.1-2.3-0.4s-1.3-0.7-1.8-1.2s-0.9-1.2-1.2-2s-0.4-1.7-0.4-2.8
				c0-0.8,0.1-1.6,0.4-2.4c0.3-0.7,0.6-1.4,1.1-1.9s1.1-1,1.8-1.3C214,282.9,214.8,282.8,215.7,282.8z M215.7,284.4
				c-1,0-1.8,0.3-2.4,0.9c-0.6,0.6-1,1.4-1.1,2.5h6.6c0-0.5-0.1-0.9-0.2-1.4c-0.1-0.4-0.3-0.8-0.6-1.1c-0.3-0.3-0.6-0.5-1-0.7
				S216.2,284.4,215.7,284.4z"/>
			<path d="M225.8,277.5v17.7h-2.1v-17.7H225.8z"/>
			<path d="M231.9,277.5v17.7h-2.1v-17.7H231.9z"/>
			<path d="M240.5,282.8c0.7,0,1.4,0.1,2,0.4c0.6,0.2,1.1,0.6,1.6,1.1c0.4,0.5,0.8,1,1.1,1.7s0.4,1.4,0.4,2.3c0,0.3,0,0.6-0.1,0.7
				s-0.2,0.2-0.4,0.2H237c0,0.8,0.1,1.4,0.3,2s0.5,1,0.8,1.4s0.7,0.7,1.2,0.9c0.5,0.2,1,0.3,1.6,0.3c0.5,0,1-0.1,1.4-0.2
				s0.7-0.3,1-0.4s0.5-0.3,0.7-0.4s0.3-0.2,0.5-0.2s0.3,0.1,0.4,0.2l0.6,0.8c-0.3,0.3-0.6,0.6-0.9,0.8c-0.4,0.2-0.8,0.4-1.2,0.6
				s-0.9,0.3-1.3,0.3c-0.4,0.1-0.9,0.1-1.3,0.1c-0.8,0-1.6-0.1-2.3-0.4s-1.3-0.7-1.8-1.2s-0.9-1.2-1.2-2s-0.4-1.7-0.4-2.8
				c0-0.8,0.1-1.6,0.4-2.4c0.3-0.7,0.6-1.4,1.1-1.9s1.1-1,1.8-1.3C238.9,282.9,239.6,282.8,240.5,282.8z M240.6,284.4
				c-1,0-1.8,0.3-2.4,0.9c-0.6,0.6-1,1.4-1.1,2.5h6.6c0-0.5-0.1-0.9-0.2-1.4c-0.1-0.4-0.3-0.8-0.6-1.1c-0.3-0.3-0.6-0.5-1-0.7
				S241.1,284.4,240.6,284.4z"/>
			<path d="M35.9,311.8h1.8c0.2,0,0.3,0,0.4,0.1c0.1,0.1,0.2,0.2,0.2,0.3l3.1,7.8c0.1,0.3,0.2,0.6,0.3,0.9s0.1,0.6,0.2,0.9
				c0.1-0.3,0.1-0.6,0.2-0.9c0.1-0.3,0.2-0.6,0.3-0.9l3.1-7.8c0-0.1,0.1-0.2,0.2-0.3c0.1-0.1,0.2-0.1,0.4-0.1h1.7l-5,12.2h-1.9
				L35.9,311.8z"/>
			<path d="M58.7,323.9h-0.9c-0.2,0-0.4,0-0.5-0.1s-0.2-0.2-0.3-0.4l-0.2-1.1c-0.3,0.3-0.6,0.5-0.9,0.8c-0.3,0.2-0.6,0.4-1,0.6
				s-0.7,0.3-1.1,0.4c-0.4,0.1-0.8,0.1-1.3,0.1s-0.9-0.1-1.3-0.2c-0.4-0.1-0.8-0.3-1.1-0.6c-0.3-0.3-0.5-0.6-0.7-1s-0.3-0.9-0.3-1.4
				s0.1-0.9,0.4-1.4s0.7-0.8,1.3-1.2c0.6-0.3,1.4-0.6,2.3-0.8c0.9-0.2,2.1-0.3,3.5-0.3v-1c0-1-0.2-1.7-0.6-2.2
				c-0.4-0.5-1-0.7-1.8-0.7c-0.5,0-1,0.1-1.3,0.2c-0.4,0.1-0.7,0.3-0.9,0.4s-0.5,0.3-0.7,0.4s-0.4,0.2-0.6,0.2c-0.1,0-0.3,0-0.4-0.1
				c-0.1-0.1-0.2-0.2-0.3-0.3l-0.4-0.7c0.7-0.6,1.4-1.1,2.2-1.5c0.8-0.3,1.6-0.5,2.6-0.5c0.7,0,1.3,0.1,1.8,0.3
				c0.5,0.2,1,0.5,1.3,0.9c0.4,0.4,0.6,0.9,0.8,1.5s0.3,1.2,0.3,1.9v7.8L58.7,323.9L58.7,323.9z M53.1,322.6c0.4,0,0.7,0,1-0.1
				s0.6-0.2,0.9-0.3c0.3-0.1,0.5-0.3,0.8-0.5s0.5-0.4,0.7-0.7v-2.5c-1,0-1.8,0.1-2.5,0.2s-1.2,0.3-1.7,0.5c-0.4,0.2-0.7,0.4-0.9,0.7
				c-0.2,0.3-0.3,0.6-0.3,0.9s0.1,0.6,0.2,0.8c0.1,0.2,0.2,0.4,0.4,0.6c0.2,0.1,0.4,0.3,0.6,0.3C52.6,322.6,52.8,322.6,53.1,322.6z"
				/>
			<path d="M61.9,323.9v-12.2h1.2c0.2,0,0.4,0,0.5,0.1s0.1,0.2,0.2,0.5l0.1,1.9c0.4-0.8,0.9-1.5,1.5-2s1.3-0.7,2.2-0.7
				c0.3,0,0.6,0,0.9,0.1s0.5,0.2,0.8,0.3l-0.3,1.6c-0.1,0.2-0.2,0.3-0.4,0.3c-0.1,0-0.3,0-0.5-0.1s-0.6-0.1-1-0.1
				c-0.7,0-1.4,0.2-1.9,0.6s-0.9,1.1-1.3,1.9v7.7h-2V323.9z"/>
			<path d="M74.4,308c0,0.2,0,0.4-0.1,0.6s-0.2,0.3-0.3,0.5c-0.1,0.1-0.3,0.2-0.5,0.3c-0.2,0.1-0.4,0.1-0.6,0.1s-0.4,0-0.6-0.1
				s-0.3-0.2-0.5-0.3c-0.1-0.1-0.2-0.3-0.3-0.5s-0.1-0.4-0.1-0.6s0-0.4,0.1-0.6s0.2-0.4,0.3-0.5s0.3-0.2,0.5-0.3
				c0.2-0.1,0.4-0.1,0.6-0.1s0.4,0,0.6,0.1s0.3,0.2,0.5,0.3c0.1,0.1,0.3,0.3,0.3,0.5C74.4,307.6,74.4,307.8,74.4,308z M74,311.8V324
				h-2.1v-12.2H74z"/>
			<path d="M86.7,323.9h-0.9c-0.2,0-0.4,0-0.5-0.1s-0.2-0.2-0.3-0.4l-0.2-1.1c-0.3,0.3-0.6,0.5-0.9,0.8c-0.3,0.2-0.6,0.4-1,0.6
				s-0.7,0.3-1.1,0.4s-0.8,0.1-1.3,0.1s-0.9-0.1-1.3-0.2s-0.8-0.3-1.1-0.6c-0.3-0.3-0.5-0.6-0.7-1s-0.3-0.9-0.3-1.4s0.1-0.9,0.4-1.4
				s0.7-0.8,1.3-1.2c0.6-0.3,1.4-0.6,2.3-0.8c0.9-0.2,2.1-0.3,3.5-0.3v-1c0-1-0.2-1.7-0.6-2.2s-1-0.7-1.8-0.7c-0.5,0-1,0.1-1.3,0.2
				c-0.4,0.1-0.7,0.3-0.9,0.4c-0.2,0.1-0.5,0.3-0.7,0.4s-0.4,0.2-0.6,0.2c-0.1,0-0.3,0-0.4-0.1s-0.2-0.2-0.3-0.3l-0.4-0.7
				c0.7-0.6,1.4-1.1,2.2-1.5c0.8-0.3,1.6-0.5,2.6-0.5c0.7,0,1.3,0.1,1.8,0.3c0.5,0.2,1,0.5,1.3,0.9c0.4,0.4,0.6,0.9,0.8,1.5
				c0.2,0.6,0.3,1.2,0.3,1.9L86.7,323.9L86.7,323.9z M81.1,322.6c0.4,0,0.7,0,1-0.1s0.6-0.2,0.9-0.3c0.3-0.1,0.5-0.3,0.8-0.5
				s0.5-0.4,0.7-0.7v-2.5c-1,0-1.8,0.1-2.5,0.2s-1.2,0.3-1.7,0.5c-0.4,0.2-0.7,0.4-0.9,0.7c-0.2,0.3-0.3,0.6-0.3,0.9
				s0.1,0.6,0.2,0.8c0.1,0.2,0.2,0.4,0.4,0.6c0.2,0.1,0.4,0.3,0.6,0.3C80.6,322.6,80.8,322.6,81.1,322.6z"/>
			<path d="M89.9,323.9v-12.2h1.3c0.3,0,0.5,0.1,0.6,0.4l0.2,1.3c0.5-0.6,1.1-1.1,1.8-1.4c0.7-0.4,1.4-0.5,2.3-0.5
				c0.7,0,1.2,0.1,1.8,0.3c0.5,0.2,0.9,0.5,1.3,0.9c0.3,0.4,0.6,0.9,0.8,1.5c0.2,0.6,0.3,1.2,0.3,1.9v7.7h-2.1v-7.7
				c0-0.9-0.2-1.6-0.6-2.1s-1.1-0.8-1.9-0.8c-0.6,0-1.2,0.2-1.8,0.5c-0.5,0.3-1.1,0.7-1.5,1.2v9L89.9,323.9L89.9,323.9z"/>
			<path d="M106.9,324.1c-1,0-1.7-0.3-2.2-0.8s-0.8-1.3-0.8-2.3v-7.4h-1.5c-0.1,0-0.2,0-0.3-0.1c-0.1-0.1-0.1-0.2-0.1-0.4v-0.9
				l2-0.3l0.5-3.8c0-0.1,0.1-0.2,0.2-0.3s0.2-0.1,0.3-0.1h1.1v4.2h3.5v1.5h-3.5v7.3c0,0.5,0.1,0.9,0.4,1.1s0.6,0.4,1,0.4
				c0.2,0,0.4,0,0.6-0.1s0.3-0.1,0.4-0.2s0.2-0.1,0.3-0.2c0.1-0.1,0.2-0.1,0.2-0.1c0.1,0,0.2,0.1,0.3,0.2l0.6,1
				c-0.4,0.3-0.8,0.6-1.3,0.8C108,324,107.5,324.1,106.9,324.1z"/>
			<path d="M117,311.6c0.7,0,1.4,0.1,2,0.4c0.6,0.2,1.1,0.6,1.6,1.1c0.4,0.5,0.8,1,1.1,1.7s0.4,1.4,0.4,2.3c0,0.3,0,0.6-0.1,0.7
				s-0.2,0.2-0.4,0.2h-8.1c0,0.8,0.1,1.4,0.3,2c0.2,0.6,0.5,1,0.8,1.4s0.7,0.7,1.2,0.9c0.5,0.2,1,0.3,1.6,0.3c0.5,0,1-0.1,1.4-0.2
				s0.7-0.3,1-0.4s0.5-0.3,0.7-0.4s0.3-0.2,0.5-0.2s0.3,0.1,0.4,0.2l0.6,0.8c-0.3,0.3-0.6,0.6-0.9,0.8c-0.4,0.2-0.8,0.4-1.2,0.6
				c-0.4,0.2-0.9,0.3-1.3,0.3c-0.4,0.1-0.9,0.1-1.3,0.1c-0.8,0-1.6-0.1-2.3-0.4c-0.7-0.3-1.3-0.7-1.8-1.2s-0.9-1.2-1.2-2
				c-0.3-0.8-0.4-1.7-0.4-2.8c0-0.8,0.1-1.6,0.4-2.4c0.3-0.7,0.6-1.4,1.1-1.9s1.1-1,1.8-1.3C115.3,311.7,116.1,311.6,117,311.6z
				 M117,313.2c-1,0-1.8,0.3-2.4,0.9s-1,1.4-1.1,2.5h6.6c0-0.5-0.1-0.9-0.2-1.4c-0.1-0.4-0.3-0.8-0.6-1.1c-0.3-0.3-0.6-0.5-1-0.7
				S117.5,313.2,117,313.2z"/>
			<path d="M129.3,317.7v-0.3l3-4.7l0.7,0.3c0.1,0.1,0.2,0.1,0.3,0.2s0.1,0.2,0.1,0.3c0,0.1,0,0.3-0.1,0.4l-1.9,3.1
				c-0.1,0.2-0.2,0.3-0.3,0.4c0.1,0.1,0.2,0.3,0.3,0.4l1.9,3.1c0,0.1,0.1,0.1,0.1,0.2s0,0.1,0,0.2c0,0.2-0.1,0.4-0.3,0.5l-0.7,0.3
				L129.3,317.7z M132.9,317.7v-0.3l3-4.7l0.7,0.3c0.1,0.1,0.2,0.1,0.3,0.2s0.1,0.2,0.1,0.3c0,0.1,0,0.3-0.1,0.4L135,317
				c-0.1,0.2-0.2,0.3-0.3,0.4c0.1,0.1,0.2,0.3,0.3,0.4l1.9,3.1c0,0.1,0.1,0.1,0.1,0.2s0,0.1,0,0.2c0,0.2-0.1,0.4-0.3,0.5l-0.7,0.3
				L132.9,317.7z"/>
			<path d="M157.2,306.7v2h-5.6v15.2h-2.3v-15.2h-5.6v-2H157.2z"/>
			<path d="M161.6,311.6c0.7,0,1.4,0.1,2,0.4c0.6,0.2,1.1,0.6,1.6,1.1c0.4,0.5,0.8,1,1.1,1.7s0.4,1.4,0.4,2.3c0,0.3,0,0.6-0.1,0.7
				s-0.2,0.2-0.4,0.2h-8.1c0,0.8,0.1,1.4,0.3,2s0.5,1,0.8,1.4s0.7,0.7,1.2,0.9c0.5,0.2,1,0.3,1.6,0.3c0.5,0,1-0.1,1.4-0.2
				s0.7-0.3,1-0.4s0.5-0.3,0.7-0.4s0.3-0.2,0.5-0.2s0.3,0.1,0.4,0.2l0.6,0.8c-0.3,0.3-0.6,0.6-0.9,0.8c-0.4,0.2-0.8,0.4-1.2,0.6
				s-0.9,0.3-1.3,0.3c-0.4,0.1-0.9,0.1-1.3,0.1c-0.8,0-1.6-0.1-2.3-0.4s-1.3-0.7-1.8-1.2s-0.9-1.2-1.2-2s-0.4-1.7-0.4-2.8
				c0-0.8,0.1-1.6,0.4-2.4c0.3-0.7,0.6-1.4,1.1-1.9s1.1-1,1.8-1.3C159.9,311.7,160.7,311.6,161.6,311.6z M161.6,313.2
				c-1,0-1.8,0.3-2.4,0.9c-0.6,0.6-1,1.4-1.1,2.5h6.6c0-0.5-0.1-0.9-0.2-1.4c-0.1-0.4-0.3-0.8-0.6-1.1c-0.3-0.3-0.6-0.5-1-0.7
				S162.1,313.2,161.6,313.2z"/>
			<path d="M177.6,313.9c-0.1,0.1-0.1,0.2-0.2,0.2s-0.2,0.1-0.3,0.1s-0.3,0-0.4-0.2c-0.1-0.1-0.3-0.2-0.5-0.3
				c-0.2-0.1-0.5-0.2-0.8-0.3c-0.3-0.1-0.7-0.1-1.1-0.1c-0.6,0-1.1,0.1-1.6,0.3s-0.8,0.5-1.1,0.9s-0.5,0.9-0.7,1.5s-0.2,1.2-0.2,1.9
				c0,0.7,0.1,1.4,0.3,2s0.4,1.1,0.7,1.4c0.3,0.4,0.7,0.7,1.1,0.9s0.9,0.3,1.5,0.3c0.5,0,0.9-0.1,1.3-0.2c0.3-0.1,0.6-0.3,0.8-0.4
				c0.2-0.2,0.4-0.3,0.6-0.4s0.3-0.2,0.4-0.2c0.2,0,0.3,0.1,0.4,0.2l0.6,0.8c-0.5,0.6-1.2,1.1-2,1.4s-1.6,0.5-2.5,0.5
				c-0.8,0-1.5-0.1-2.1-0.4c-0.7-0.3-1.2-0.7-1.7-1.2s-0.9-1.2-1.1-2c-0.3-0.8-0.4-1.7-0.4-2.7c0-0.9,0.1-1.7,0.4-2.5
				c0.3-0.8,0.6-1.4,1.1-2s1.1-1,1.8-1.3s1.5-0.5,2.4-0.5c0.8,0,1.6,0.1,2.3,0.4s1.2,0.7,1.7,1.2L177.6,313.9z"/>
			<path d="M180.6,323.9v-17.7h2.1v7.2c0.5-0.6,1.1-1,1.7-1.3c0.6-0.3,1.4-0.5,2.2-0.5c0.7,0,1.2,0.1,1.8,0.3
				c0.5,0.2,0.9,0.5,1.3,0.9c0.3,0.4,0.6,0.9,0.8,1.5s0.3,1.2,0.3,1.9v7.7h-2.1v-7.7c0-0.9-0.2-1.6-0.6-2.1s-1.1-0.8-1.9-0.8
				c-0.6,0-1.2,0.2-1.8,0.5c-0.5,0.3-1.1,0.7-1.5,1.2v9h-2.3V323.9z"/>
			<path d="M193.9,323.9v-12.2h1.3c0.3,0,0.5,0.1,0.6,0.4l0.2,1.3c0.5-0.6,1.1-1.1,1.8-1.4c0.7-0.4,1.4-0.5,2.3-0.5
				c0.7,0,1.2,0.1,1.8,0.3c0.5,0.2,0.9,0.5,1.3,0.9c0.3,0.4,0.6,0.9,0.8,1.5s0.3,1.2,0.3,1.9v7.7h-2.1v-7.7c0-0.9-0.2-1.6-0.6-2.1
				s-1.1-0.8-1.9-0.8c-0.6,0-1.2,0.2-1.8,0.5c-0.5,0.3-1.1,0.7-1.5,1.2v9L193.9,323.9L193.9,323.9z"/>
			<path d="M210.1,308c0,0.2,0,0.4-0.1,0.6s-0.2,0.3-0.3,0.5c-0.1,0.1-0.3,0.2-0.5,0.3c-0.2,0.1-0.4,0.1-0.6,0.1s-0.4,0-0.6-0.1
				c-0.2-0.1-0.3-0.2-0.5-0.3c-0.1-0.1-0.2-0.3-0.3-0.5s-0.1-0.4-0.1-0.6s0-0.4,0.1-0.6s0.2-0.4,0.3-0.5s0.3-0.2,0.5-0.3
				c0.2-0.1,0.4-0.1,0.6-0.1s0.4,0,0.6,0.1c0.2,0.1,0.3,0.2,0.5,0.3c0.1,0.1,0.3,0.3,0.3,0.5C210.1,307.6,210.1,307.8,210.1,308z
				 M209.6,311.8V324h-2.1v-12.2H209.6z"/>
			<path d="M221.7,313.9c-0.1,0.1-0.1,0.2-0.2,0.2s-0.2,0.1-0.3,0.1s-0.3,0-0.4-0.2c-0.1-0.1-0.3-0.2-0.5-0.3
				c-0.2-0.1-0.5-0.2-0.8-0.3c-0.3-0.1-0.7-0.1-1.1-0.1c-0.6,0-1.1,0.1-1.6,0.3s-0.8,0.5-1.1,0.9s-0.5,0.9-0.7,1.5s-0.2,1.2-0.2,1.9
				c0,0.7,0.1,1.4,0.3,2s0.4,1.1,0.7,1.4c0.3,0.4,0.7,0.7,1.1,0.9s0.9,0.3,1.5,0.3c0.5,0,0.9-0.1,1.3-0.2c0.3-0.1,0.6-0.3,0.8-0.4
				c0.2-0.2,0.4-0.3,0.6-0.4s0.3-0.2,0.4-0.2c0.2,0,0.3,0.1,0.4,0.2l0.6,0.8c-0.5,0.6-1.2,1.1-2,1.4s-1.6,0.5-2.5,0.5
				c-0.8,0-1.5-0.1-2.1-0.4c-0.7-0.3-1.2-0.7-1.7-1.2s-0.9-1.2-1.1-2c-0.3-0.8-0.4-1.7-0.4-2.7c0-0.9,0.1-1.7,0.4-2.5
				c0.3-0.8,0.6-1.4,1.1-2s1.1-1,1.8-1.3s1.5-0.5,2.4-0.5c0.8,0,1.6,0.1,2.3,0.4s1.2,0.7,1.7,1.2L221.7,313.9z"/>
			<path d="M227.5,308c0,0.2,0,0.4-0.1,0.6s-0.2,0.3-0.3,0.5c-0.1,0.1-0.3,0.2-0.5,0.3c-0.2,0.1-0.4,0.1-0.6,0.1s-0.4,0-0.6-0.1
				c-0.2-0.1-0.3-0.2-0.5-0.3c-0.1-0.1-0.2-0.3-0.3-0.5s-0.1-0.4-0.1-0.6s0-0.4,0.1-0.6s0.2-0.4,0.3-0.5s0.3-0.2,0.5-0.3
				c0.2-0.1,0.4-0.1,0.6-0.1s0.4,0,0.6,0.1c0.2,0.1,0.3,0.2,0.5,0.3c0.1,0.1,0.3,0.3,0.3,0.5C227.4,307.6,227.5,307.8,227.5,308z
				 M227,311.8V324h-2.1v-12.2H227z"/>
			<path d="M235.6,311.6c0.7,0,1.4,0.1,2,0.4c0.6,0.2,1.1,0.6,1.6,1.1c0.4,0.5,0.8,1,1.1,1.7s0.4,1.4,0.4,2.3c0,0.3,0,0.6-0.1,0.7
				s-0.2,0.2-0.4,0.2h-8.1c0,0.8,0.1,1.4,0.3,2s0.5,1,0.8,1.4s0.7,0.7,1.2,0.9c0.5,0.2,1,0.3,1.6,0.3c0.5,0,1-0.1,1.4-0.2
				s0.7-0.3,1-0.4s0.5-0.3,0.7-0.4s0.3-0.2,0.5-0.2s0.3,0.1,0.4,0.2l0.6,0.8c-0.3,0.3-0.6,0.6-0.9,0.8c-0.4,0.2-0.8,0.4-1.2,0.6
				s-0.9,0.3-1.3,0.3c-0.4,0.1-0.9,0.1-1.3,0.1c-0.8,0-1.6-0.1-2.3-0.4s-1.3-0.7-1.8-1.2s-0.9-1.2-1.2-2s-0.4-1.7-0.4-2.8
				c0-0.8,0.1-1.6,0.4-2.4c0.3-0.7,0.6-1.4,1.1-1.9s1.1-1,1.8-1.3C233.9,311.7,234.7,311.6,235.6,311.6z M235.6,313.2
				c-1,0-1.8,0.3-2.4,0.9c-0.6,0.6-1,1.4-1.1,2.5h6.6c0-0.5-0.1-0.9-0.2-1.4c-0.1-0.4-0.3-0.8-0.6-1.1c-0.3-0.3-0.6-0.5-1-0.7
				S236.1,313.2,235.6,313.2z"/>
			<path d="M243.3,323.9v-12.2h1.3c0.3,0,0.5,0.1,0.6,0.4l0.2,1.3c0.5-0.6,1.1-1.1,1.8-1.4c0.7-0.4,1.4-0.5,2.3-0.5
				c0.7,0,1.2,0.1,1.8,0.3c0.5,0.2,0.9,0.5,1.3,0.9c0.3,0.4,0.6,0.9,0.8,1.5s0.3,1.2,0.3,1.9v7.7h-2.1v-7.7c0-0.9-0.2-1.6-0.6-2.1
				s-1.1-0.8-1.9-0.8c-0.6,0-1.2,0.2-1.8,0.5c-0.5,0.3-1.1,0.7-1.5,1.2v9L243.3,323.9L243.3,323.9z"/>
			<path d="M262.4,322.4l-0.7-0.3c-0.2-0.1-0.3-0.3-0.3-0.5c0-0.1,0-0.3,0.1-0.4l1.9-3.1c0.1-0.2,0.2-0.3,0.3-0.4
				c-0.1-0.1-0.2-0.2-0.3-0.4l-1.9-3.1c-0.1-0.1-0.1-0.3-0.1-0.4c0-0.2,0.1-0.4,0.3-0.5l0.7-0.3l3,4.7v0.3L262.4,322.4z
				 M268.9,317.4v0.3l-3,4.7l-0.7-0.3c-0.2-0.1-0.3-0.3-0.3-0.5c0-0.1,0-0.3,0.1-0.4l1.9-3.1c0.1-0.2,0.2-0.3,0.3-0.4
				c-0.1-0.1-0.2-0.2-0.3-0.4l-1.9-3.1c-0.1-0.1-0.1-0.3-0.1-0.4c0-0.2,0.1-0.4,0.3-0.5l0.7-0.3L268.9,317.4z"/>
		</g>
		<g>
			<g>
				<polyline class="st2" points="302.9,330.5 302.9,335.5 297.9,335.5 				"/>
				<line class="st3" x1="287.8" y1="335.5" x2="11.9" y2="335.5"/>
				<polyline class="st2" points="6.9,335.5 1.9,335.5 1.9,330.5 				"/>
				<line class="st4" x1="1.9" y1="320.7" x2="1.9" y2="11.4"/>
				<polyline class="st2" points="1.9,6.5 1.9,1.5 6.9,1.5 				"/>
				<line class="st3" x1="16.9" y1="1.5" x2="292.9" y2="1.5"/>
				<polyline class="st2" points="297.9,1.5 302.9,1.5 302.9,6.5 				"/>
				<line class="st4" x1="302.9" y1="16.3" x2="302.9" y2="325.6"/>
			</g>
		</g>
	</g>
	<path class="st0" d="M388.8,299.6l-17.3-20c-0.4-0.5-0.9-0.7-1.4-0.7s-1,0.2-1.4,0.7s-0.6,1-0.6,1.7v16.6h-53v6.7h53v16.6
		c0,0.6,0.2,1.2,0.6,1.7s0.9,0.7,1.4,0.7s1-0.2,1.4-0.7l17.2-20c0.4-0.5,0.6-1,0.6-1.7C389.4,300.6,389.2,300.1,388.8,299.6z"/>
	<path class="st0" d="M388.8,126.6l-17.3-20c-0.4-0.5-0.9-0.7-1.4-0.7s-1,0.2-1.4,0.7s-0.6,1-0.6,1.7v16.6h-53v6.7h53v16.6
		c0,0.6,0.2,1.2,0.6,1.7s0.9,0.7,1.4,0.7s1-0.2,1.4-0.7l17.2-20c0.4-0.5,0.6-1,0.6-1.7C389.4,127.6,389.2,127.1,388.8,126.6z"/>
	<path class="st5" d="M963.3,93.8h13.8v-3.5h-4.6V74.2h-4.1l-5.3,4.9l2.8,2.9c0.9-0.8,1.4-1.2,2-2h0.1v10.4h-4.6v3.4H963.3z
		 M981.7,84.6c0,6.5-4,14.9-11.5,14.9s-11.5-8.4-11.5-14.9s3.9-15,11.5-15C977.7,69.6,981.7,78,981.7,84.6z M1000.1,93.8V75.4
		c-5.1,0-9.2-4.1-9.2-9.2h-41.4c0,5.1-4.1,9.2-9.2,9.2v18.4c5.1,0,9.2,4.1,9.2,9.2h41.4C990.9,97.9,995,93.8,1000.1,93.8
		L1000.1,93.8z M1004.7,63.9v41.4c0,1.3-1,2.3-2.3,2.3H938c-1.3,0-2.3-1-2.3-2.3V63.9c0-1.3,1-2.3,2.3-2.3h64.4
		C1003.6,61.6,1004.7,62.6,1004.7,63.9z"/>
	<path class="st0" d="M732.9,126.6l-17.3-20c-0.4-0.5-0.9-0.7-1.4-0.7s-1,0.2-1.4,0.7s-0.6,1-0.6,1.7v16.6h-53v6.7h53v16.6
		c0,0.6,0.2,1.2,0.6,1.7c0.4,0.5,0.9,0.7,1.4,0.7s1-0.2,1.4-0.7l17.2-20c0.4-0.5,0.6-1,0.6-1.7C733.5,127.6,733.3,127.1,732.9,126.6
		z"/>
	<path class="st6" d="M963.3,266.8h13.8v-3.5h-4.6v-16.1h-4.1l-5.3,4.9l2.8,2.9c0.9-0.8,1.4-1.2,2-2h0.1v10.4h-4.6v3.4L963.3,266.8
		L963.3,266.8z M981.7,257.6c0,6.5-4,14.9-11.5,14.9s-11.5-8.4-11.5-14.9s4-14.9,11.5-14.9C977.7,242.6,981.7,251,981.7,257.6z
		 M1000.1,266.8v-18.4c-5.1,0-9.2-4.1-9.2-9.2h-41.4c0,5.1-4.1,9.2-9.2,9.2v18.4c5.1,0,9.2,4.1,9.2,9.2h41.4
		C990.9,270.9,995,266.8,1000.1,266.8L1000.1,266.8z M1004.7,236.9v41.4c0,1.3-1,2.3-2.3,2.3H938c-1.3,0-2.3-1-2.3-2.3v-41.4
		c0-1.3,1-2.3,2.3-2.3h64.4C1003.6,234.6,1004.7,235.6,1004.7,236.9z"/>
	<path class="st0" d="M732.9,299.6l-17.3-20c-0.4-0.5-0.9-0.7-1.4-0.7s-1,0.2-1.4,0.7s-0.6,1-0.6,1.7v16.6h-53v6.7h53v16.6
		c0,0.6,0.2,1.2,0.6,1.7c0.4,0.5,0.9,0.7,1.4,0.7s1-0.2,1.4-0.7l17.2-20c0.4-0.5,0.6-1,0.6-1.7C733.5,300.6,733.3,300.1,732.9,299.6
		z"/>
	<g>
		<g>
			<polyline class="st7" points="401.6,330.5 401.6,335.5 406.6,335.5 			"/>
			<line class="st7" x1="416.7" y1="335.5" x2="1037.5" y2="335.5"/>
			<polyline class="st7" points="1042.6,335.5 1047.6,335.5 1047.6,330.5 			"/>
			<line class="st7" x1="1047.6" y1="320.7" x2="1047.6" y2="11.4"/>
			<polyline class="st7" points="1047.6,6.5 1047.6,1.5 1042.6,1.5 			"/>
			<line class="st7" x1="1032.5" y1="1.5" x2="411.6" y2="1.5"/>
			<polyline class="st7" points="406.6,1.5 401.6,1.5 401.6,6.5 			"/>
			<line class="st7" x1="401.6" y1="16.3" x2="401.6" y2="325.6"/>
		</g>
	</g>
	<g>
		<path d="M447.9,118.8v2h-5.6V136H440v-15.2h-5.6v-2H447.9z"/>
		<path d="M452.3,123.7c0.7,0,1.4,0.1,2,0.4c0.6,0.2,1.1,0.6,1.6,1.1c0.4,0.5,0.8,1,1.1,1.7c0.3,0.7,0.4,1.4,0.4,2.3
			c0,0.3,0,0.6-0.1,0.7c-0.1,0.1-0.2,0.2-0.4,0.2h-8.1c0,0.8,0.1,1.4,0.3,2s0.5,1,0.8,1.4s0.7,0.7,1.2,0.9s1,0.3,1.6,0.3
			c0.5,0,1-0.1,1.4-0.2c0.4-0.1,0.7-0.3,1-0.4c0.3-0.1,0.5-0.3,0.7-0.4s0.3-0.2,0.5-0.2s0.3,0.1,0.4,0.2l0.6,0.8
			c-0.3,0.3-0.6,0.6-0.9,0.8c-0.4,0.2-0.8,0.4-1.2,0.6c-0.4,0.2-0.9,0.3-1.3,0.3c-0.4,0.1-0.9,0.1-1.3,0.1c-0.8,0-1.6-0.1-2.3-0.4
			c-0.7-0.3-1.3-0.7-1.8-1.2s-0.9-1.2-1.2-2c-0.3-0.8-0.4-1.7-0.4-2.8c0-0.8,0.1-1.6,0.4-2.4c0.3-0.7,0.6-1.4,1.1-1.9s1.1-1,1.8-1.3
			C450.7,123.8,451.4,123.7,452.3,123.7z M452.4,125.2c-1,0-1.8,0.3-2.4,0.9s-1,1.4-1.1,2.5h6.6c0-0.5-0.1-1-0.2-1.4
			s-0.3-0.8-0.6-1.1c-0.3-0.3-0.6-0.5-1-0.7S452.9,125.2,452.4,125.2z"/>
		<path d="M468.4,126c-0.1,0.1-0.1,0.2-0.2,0.2s-0.2,0.1-0.3,0.1c-0.1,0-0.3,0-0.4-0.1s-0.3-0.2-0.5-0.3c-0.2-0.1-0.5-0.2-0.8-0.3
			c-0.3-0.1-0.7-0.2-1.1-0.2c-0.6,0-1.1,0.1-1.6,0.3s-0.8,0.5-1.1,0.9c-0.3,0.4-0.5,0.9-0.7,1.5s-0.2,1.2-0.2,1.9s0.1,1.4,0.3,2
			c0.2,0.6,0.4,1.1,0.7,1.4c0.3,0.4,0.7,0.7,1.1,0.9s0.9,0.3,1.5,0.3c0.5,0,0.9-0.1,1.3-0.2c0.3-0.1,0.6-0.3,0.8-0.4
			c0.2-0.2,0.4-0.3,0.6-0.4s0.3-0.2,0.4-0.2c0.2,0,0.3,0.1,0.4,0.2l0.6,0.8c-0.5,0.6-1.2,1.1-2,1.4c-0.8,0.3-1.6,0.5-2.5,0.5
			c-0.8,0-1.5-0.1-2.1-0.4c-0.7-0.3-1.2-0.7-1.7-1.2s-0.9-1.2-1.1-2c-0.3-0.8-0.4-1.7-0.4-2.7c0-0.9,0.1-1.7,0.4-2.5s0.6-1.4,1.1-2
			s1.1-1,1.8-1.3c0.7-0.3,1.5-0.5,2.4-0.5c0.8,0,1.6,0.1,2.3,0.4c0.7,0.3,1.2,0.7,1.7,1.2L468.4,126z"/>
		<path d="M471.3,136v-17.7h2.1v7.2c0.5-0.6,1.1-1,1.7-1.3s1.4-0.5,2.2-0.5c0.7,0,1.2,0.1,1.8,0.3c0.5,0.2,0.9,0.5,1.3,0.9
			c0.3,0.4,0.6,0.9,0.8,1.5c0.2,0.6,0.3,1.2,0.3,1.9v7.7h-2.1v-7.7c0-0.9-0.2-1.6-0.6-2.1s-1.1-0.8-1.9-0.8c-0.6,0-1.2,0.2-1.8,0.5
			c-0.5,0.3-1.1,0.7-1.5,1.2v9L471.3,136L471.3,136z"/>
		<path d="M484.6,136v-12.2h1.3c0.3,0,0.5,0.1,0.6,0.4l0.2,1.3c0.5-0.6,1.1-1.1,1.8-1.4c0.7-0.4,1.4-0.5,2.3-0.5
			c0.7,0,1.2,0.1,1.8,0.3c0.5,0.2,0.9,0.5,1.3,0.9c0.3,0.4,0.6,0.9,0.8,1.5c0.2,0.6,0.3,1.2,0.3,1.9v7.7h-2.4v-7.7
			c0-0.9-0.2-1.6-0.6-2.1s-1.1-0.8-1.9-0.8c-0.6,0-1.2,0.2-1.8,0.5c-0.5,0.3-1.1,0.7-1.5,1.2v9H484.6L484.6,136z"/>
		<path d="M500.8,120c0,0.2,0,0.4-0.1,0.6s-0.2,0.3-0.3,0.5c-0.1,0.1-0.3,0.3-0.5,0.3c-0.2,0.1-0.4,0.1-0.6,0.1s-0.4,0-0.6-0.1
			s-0.3-0.2-0.5-0.3c-0.1-0.1-0.2-0.3-0.3-0.5c-0.1-0.2-0.1-0.4-0.1-0.6s0-0.4,0.1-0.6s0.2-0.4,0.3-0.5c0.1-0.1,0.3-0.2,0.5-0.3
			c0.2-0.1,0.4-0.1,0.6-0.1s0.4,0,0.6,0.1s0.3,0.2,0.5,0.3c0.1,0.1,0.3,0.3,0.3,0.5S500.8,119.8,500.8,120z M500.4,123.9v12.2h-2.1
			v-12.2C498.3,123.9,500.4,123.9,500.4,123.9z"/>
		<path d="M512.4,126c-0.1,0.1-0.1,0.2-0.2,0.2c-0.1,0-0.2,0.1-0.3,0.1s-0.2,0-0.4-0.1c-0.1-0.1-0.3-0.2-0.5-0.3
			c-0.2-0.1-0.5-0.2-0.8-0.3c-0.3-0.1-0.7-0.2-1.1-0.2c-0.6,0-1.1,0.1-1.6,0.3s-0.8,0.5-1.1,0.9c-0.3,0.4-0.5,0.9-0.7,1.5
			s-0.2,1.2-0.2,1.9s0.1,1.4,0.3,2c0.2,0.6,0.4,1.1,0.7,1.4c0.3,0.4,0.7,0.7,1.1,0.9s0.9,0.3,1.5,0.3c0.5,0,0.9-0.1,1.3-0.2
			s0.6-0.3,0.8-0.4s0.4-0.3,0.6-0.4c0.1-0.1,0.3-0.2,0.4-0.2c0.2,0,0.3,0.1,0.4,0.2l0.6,0.8c-0.5,0.6-1.2,1.1-2,1.4
			c-0.8,0.3-1.6,0.5-2.5,0.5c-0.8,0-1.5-0.1-2.1-0.4s-1.2-0.7-1.7-1.2s-0.9-1.2-1.1-2c-0.3-0.8-0.4-1.7-0.4-2.7
			c0-0.9,0.1-1.7,0.4-2.5s0.6-1.4,1.1-2s1.1-1,1.8-1.3s1.5-0.5,2.4-0.5c0.8,0,1.6,0.1,2.3,0.4s1.2,0.7,1.7,1.2L512.4,126z"/>
		<path d="M518.2,120c0,0.2,0,0.4-0.1,0.6s-0.2,0.3-0.3,0.5c-0.1,0.1-0.3,0.3-0.5,0.3c-0.2,0.1-0.4,0.1-0.6,0.1s-0.4,0-0.6-0.1
			s-0.3-0.2-0.5-0.3c-0.1-0.1-0.2-0.3-0.3-0.5s-0.1-0.4-0.1-0.6s0-0.4,0.1-0.6s0.2-0.4,0.3-0.5s0.3-0.2,0.5-0.3
			c0.2-0.1,0.4-0.1,0.6-0.1s0.4,0,0.6,0.1s0.3,0.2,0.5,0.3c0.1,0.1,0.3,0.3,0.3,0.5S518.2,119.8,518.2,120z M517.7,123.9v12.2h-2.1
			v-12.2C515.6,123.9,517.7,123.9,517.7,123.9z"/>
		<path d="M526.3,123.7c0.7,0,1.4,0.1,2,0.4s1.1,0.6,1.6,1.1s0.8,1,1,1.7c0.3,0.7,0.4,1.4,0.4,2.3c0,0.3,0,0.6-0.1,0.7
			c-0.1,0.1-0.2,0.2-0.4,0.2h-8.1c0,0.8,0.1,1.4,0.3,2s0.5,1,0.8,1.4s0.7,0.7,1.2,0.9s1,0.3,1.6,0.3c0.5,0,1-0.1,1.4-0.2
			c0.4-0.1,0.7-0.3,1-0.4s0.5-0.3,0.7-0.4c0.2-0.1,0.3-0.2,0.5-0.2s0.3,0.1,0.4,0.2l0.6,0.8c-0.3,0.3-0.6,0.6-0.9,0.8
			c-0.4,0.2-0.8,0.4-1.2,0.6c-0.4,0.2-0.9,0.3-1.3,0.3c-0.4,0.1-0.9,0.1-1.3,0.1c-0.8,0-1.6-0.1-2.3-0.4c-0.7-0.3-1.3-0.7-1.8-1.2
			s-0.9-1.2-1.2-2s-0.4-1.7-0.4-2.8c0-0.8,0.1-1.6,0.4-2.4c0.3-0.7,0.6-1.4,1.1-1.9s1.1-1,1.8-1.3
			C524.6,123.8,525.4,123.7,526.3,123.7z M526.3,125.2c-1,0-1.8,0.3-2.4,0.9c-0.6,0.6-1,1.4-1.1,2.5h6.6c0-0.5-0.1-1-0.2-1.4
			c-0.1-0.4-0.3-0.8-0.6-1.1c-0.3-0.3-0.6-0.5-1-0.7C527.2,125.2,526.8,125.2,526.3,125.2z"/>
		<path d="M534.1,136v-12.2h1.3c0.3,0,0.5,0.1,0.6,0.4l0.2,1.3c0.5-0.6,1.1-1.1,1.8-1.4c0.7-0.4,1.4-0.5,2.3-0.5
			c0.7,0,1.2,0.1,1.8,0.3c0.5,0.2,0.9,0.5,1.3,0.9c0.3,0.4,0.6,0.9,0.8,1.5s0.3,1.2,0.3,1.9v7.7h-2.1v-7.7c0-0.9-0.2-1.6-0.6-2.1
			c-0.4-0.5-1.1-0.8-1.9-0.8c-0.6,0-1.2,0.2-1.8,0.5c-0.5,0.3-1.1,0.7-1.5,1.2v9H534.1L534.1,136z"/>
		<path d="M552,136v-12.2h1.3c0.3,0,0.5,0.1,0.6,0.4l0.2,1.3c0.5-0.6,1.1-1.1,1.8-1.4c0.7-0.4,1.4-0.5,2.3-0.5
			c0.7,0,1.2,0.1,1.8,0.3c0.5,0.2,0.9,0.5,1.3,0.9c0.3,0.4,0.6,0.9,0.8,1.5s0.3,1.2,0.3,1.9v7.7h-2.1v-7.7c0-0.9-0.2-1.6-0.6-2.1
			c-0.4-0.5-1.1-0.8-1.9-0.8c-0.6,0-1.2,0.2-1.8,0.5c-0.5,0.3-1.1,0.7-1.5,1.2v9H552L552,136z"/>
		<path d="M563.6,122.5c0-0.5,0.1-1,0.3-1.5s0.5-0.9,0.8-1.2c0.4-0.3,0.8-0.6,1.2-0.8c0.5-0.2,1-0.3,1.5-0.3s1.1,0.1,1.5,0.3
			c0.5,0.2,0.9,0.5,1.2,0.8c0.4,0.3,0.6,0.8,0.8,1.2c0.2,0.5,0.3,1,0.3,1.5s-0.1,1-0.3,1.5s-0.5,0.9-0.8,1.2
			c-0.4,0.3-0.8,0.6-1.2,0.8c-0.5,0.2-1,0.3-1.5,0.3s-1.1-0.1-1.5-0.3c-0.5-0.2-0.9-0.5-1.2-0.8c-0.4-0.3-0.6-0.8-0.8-1.2
			S563.6,123,563.6,122.5z M565.1,122.5c0,0.3,0.1,0.6,0.2,0.9s0.3,0.5,0.5,0.8c0.2,0.2,0.5,0.4,0.8,0.5s0.6,0.2,0.9,0.2
			s0.6-0.1,0.9-0.2c0.3-0.1,0.5-0.3,0.8-0.5c0.2-0.2,0.4-0.5,0.5-0.8s0.2-0.6,0.2-0.9s-0.1-0.7-0.2-0.9c-0.1-0.3-0.3-0.6-0.5-0.8
			c-0.2-0.2-0.5-0.4-0.8-0.5s-0.6-0.2-0.9-0.2s-0.7,0.1-0.9,0.2c-0.3,0.1-0.5,0.3-0.8,0.5c-0.2,0.2-0.4,0.5-0.5,0.8
			C565.2,121.8,565.1,122.2,565.1,122.5z"/>
		<path d="M575.7,134.4h3.7v-11.7c0-0.4,0-0.7,0-1.1l-3.1,2.6c-0.1,0.1-0.2,0.1-0.2,0.1c-0.1,0-0.2,0-0.2,0c-0.1,0-0.2,0-0.3-0.1
			s-0.2-0.1-0.2-0.2l-0.7-0.9l5.1-4.4h1.7v15.6h3.4v1.6h-9.2V134.4z"/>
	</g>
	<path class="st5" d="M544.5,77.1c0,8-5.3,12.8-13.2,12.8h-43.1c-7.8,0-13.2-4.8-13.2-12.8c0-11.2,2.6-28.3,17.1-28.3
		c1.5,0,8,6.9,17.7,6.9c9.7,0,16.1-6.9,17.7-6.9C541.8,48.8,544.5,66,544.5,77.1L544.5,77.1z M528.7,33c0,10.5-8.5,19-18.9,19
		c-10.5,0-19-8.5-19-19s8.5-19,19-19C520.2,14.1,528.7,22.6,528.7,33z"/>
	<path class="st6" d="M544.5,255.3c0,8-5.3,12.8-13.2,12.8h-43.1c-7.8,0-13.2-4.8-13.2-12.8c0-11.2,2.6-28.3,17.1-28.3
		c1.5,0,8,6.9,17.7,6.9c9.7,0,16.1-6.9,17.7-6.9C541.8,227,544.5,244.2,544.5,255.3L544.5,255.3z M528.7,211.2
		c0,10.5-8.5,19-18.9,19c-10.4,0-19-8.5-19-19s8.5-19,19-19C520.3,192.2,528.7,200.8,528.7,211.2z"/>
	<path class="st6" d="M921.3,255.4c0,8-5.3,12.8-13.2,12.8H865c-7.8,0-13.2-4.8-13.2-12.8c0-11.2,2.6-28.3,17.1-28.3
		c1.5,0,8,6.9,17.7,6.9s16.1-6.9,17.7-6.9C918.6,227,921.3,244.2,921.3,255.4L921.3,255.4z M905.5,211.2c0,10.5-8.5,19-18.9,19
		c-10.5,0-19-8.5-19-19s8.5-19,19-19C897,192.4,905.5,200.9,905.5,211.2z"/>
	<g>
		<path d="M814,132.4c0.1,0,0.2,0.1,0.3,0.2l0.9,1c-0.7,0.8-1.6,1.5-2.6,1.9s-2.2,0.7-3.6,0.7c-1.2,0-2.4-0.2-3.4-0.6
			c-1-0.4-1.9-1-2.6-1.8s-1.3-1.7-1.7-2.8s-0.6-2.3-0.6-3.6c0-1.3,0.2-2.5,0.6-3.6c0.4-1.1,1-2,1.8-2.8s1.7-1.4,2.7-1.8
			c1.1-0.4,2.2-0.6,3.5-0.6s2.4,0.2,3.3,0.6s1.7,0.9,2.4,1.6l-0.8,1.1c-0.1,0.1-0.1,0.1-0.2,0.2c-0.1,0.1-0.2,0.1-0.3,0.1
			s-0.2,0-0.3-0.1s-0.3-0.2-0.4-0.3c-0.2-0.1-0.3-0.2-0.6-0.4c-0.2-0.1-0.5-0.2-0.8-0.4c-0.3-0.1-0.6-0.2-1-0.3
			c-0.4-0.1-0.8-0.1-1.4-0.1c-0.9,0-1.8,0.2-2.5,0.5c-0.8,0.3-1.4,0.8-2,1.4s-1,1.3-1.3,2.1c-0.3,0.8-0.5,1.8-0.5,2.8
			c0,1.1,0.2,2,0.5,2.9c0.3,0.8,0.7,1.6,1.3,2.1c0.5,0.6,1.2,1,1.9,1.3s1.5,0.5,2.4,0.5c0.5,0,1,0,1.4-0.1s0.8-0.2,1.1-0.3
			s0.7-0.3,1-0.5s0.6-0.4,0.9-0.7C813.8,132.4,813.9,132.4,814,132.4z"/>
		<path d="M822.9,123.7c0.9,0,1.7,0.1,2.4,0.4s1.3,0.7,1.8,1.3c0.5,0.6,0.9,1.2,1.2,2c0.3,0.8,0.4,1.6,0.4,2.6s-0.1,1.8-0.4,2.6
			c-0.3,0.8-0.7,1.4-1.2,2s-1.1,1-1.8,1.3s-1.5,0.4-2.4,0.4s-1.7-0.1-2.4-0.4s-1.3-0.7-1.8-1.3c-0.5-0.5-0.9-1.2-1.2-2
			s-0.4-1.6-0.4-2.6s0.1-1.8,0.4-2.6c0.3-0.8,0.7-1.4,1.2-2c0.5-0.5,1.1-1,1.8-1.3S822,123.7,822.9,123.7z M822.9,134.4
			c1.2,0,2.1-0.4,2.7-1.2c0.6-0.8,0.9-1.9,0.9-3.4c0-1.4-0.3-2.6-0.9-3.4c-0.6-0.8-1.5-1.2-2.7-1.2c-0.6,0-1.1,0.1-1.6,0.3
			s-0.8,0.5-1.1,0.9s-0.5,0.9-0.7,1.4c-0.1,0.6-0.2,1.2-0.2,1.9s0.1,1.4,0.2,1.9c0.1,0.6,0.4,1,0.7,1.4s0.7,0.7,1.1,0.9
			S822.3,134.4,822.9,134.4z"/>
		<path d="M833.2,123.8v7.8c0,0.9,0.2,1.6,0.6,2.1c0.4,0.5,1.1,0.8,1.9,0.8c0.6,0,1.2-0.1,1.8-0.4s1.1-0.7,1.5-1.2v-9h2.1v12.2h-1.3
			c-0.3,0-0.5-0.1-0.6-0.4l-0.2-1.3c-0.5,0.6-1.1,1.1-1.8,1.4c-0.7,0.4-1.4,0.5-2.3,0.5c-0.7,0-1.2-0.1-1.8-0.3
			c-0.5-0.2-0.9-0.5-1.3-0.9s-0.6-0.9-0.8-1.5s-0.3-1.2-0.3-1.9v-7.9L833.2,123.8L833.2,123.8z M839.9,121.9h-1.4
			c-0.2,0-0.3-0.1-0.5-0.2l-1.5-1.5l-0.2-0.2l-0.2,0.2l-1.5,1.5c0,0-0.1,0.1-0.2,0.1c-0.1,0-0.2,0.1-0.3,0.1h-1.5l2.7-3.2h2
			L839.9,121.9z"/>
		<path d="M848.4,136.1c-1,0-1.7-0.3-2.2-0.8s-0.8-1.3-0.8-2.3v-7.4h-1.5c-0.1,0-0.2,0-0.3-0.1s-0.1-0.2-0.1-0.4v-0.9l2-0.3l0.5-3.8
			c0-0.1,0.1-0.2,0.2-0.3c0.1-0.1,0.2-0.1,0.3-0.1h1.1v4.2h3.5v1.5h-3.5v7.3c0,0.5,0.1,0.9,0.4,1.1c0.2,0.2,0.6,0.4,1,0.4
			c0.2,0,0.4,0,0.6-0.1s0.3-0.1,0.4-0.2c0.1-0.1,0.2-0.1,0.3-0.2s0.2-0.1,0.2-0.1c0.1,0,0.2,0.1,0.3,0.2l0.6,1
			c-0.4,0.3-0.8,0.6-1.3,0.8C849.5,136,848.9,136.1,848.4,136.1z"/>
		<path d="M858.3,135.9v-17.7h2.1v7.2c0.5-0.6,1.1-1,1.7-1.3c0.6-0.3,1.4-0.5,2.2-0.5c0.7,0,1.2,0.1,1.8,0.3
			c0.5,0.2,0.9,0.5,1.3,0.9c0.3,0.4,0.6,0.9,0.8,1.5s0.3,1.2,0.3,1.9v7.7h-2.1v-7.7c0-0.9-0.2-1.6-0.6-2.1c-0.4-0.5-1.1-0.8-1.9-0.8
			c-0.6,0-1.2,0.2-1.8,0.5c-0.5,0.3-1.1,0.7-1.5,1.2v9L858.3,135.9L858.3,135.9z"/>
		<path d="M876.6,123.7c0.9,0,1.7,0.1,2.4,0.4s1.3,0.7,1.8,1.3c0.5,0.6,0.9,1.2,1.2,2c0.3,0.8,0.4,1.6,0.4,2.6s-0.1,1.8-0.4,2.6
			c-0.3,0.8-0.7,1.4-1.2,2s-1.1,1-1.8,1.3s-1.5,0.4-2.4,0.4s-1.7-0.1-2.4-0.4s-1.3-0.7-1.8-1.3c-0.5-0.5-0.9-1.2-1.2-2
			s-0.4-1.6-0.4-2.6s0.1-1.8,0.4-2.6c0.3-0.8,0.7-1.4,1.2-2c0.5-0.5,1.1-1,1.8-1.3S875.7,123.7,876.6,123.7z M876.6,134.4
			c1.2,0,2.1-0.4,2.7-1.2c0.6-0.8,0.9-1.9,0.9-3.4c0-1.4-0.3-2.6-0.9-3.4c-0.6-0.8-1.5-1.2-2.7-1.2c-0.6,0-1.1,0.1-1.6,0.3
			s-0.8,0.5-1.1,0.9s-0.5,0.9-0.7,1.4c-0.1,0.6-0.2,1.2-0.2,1.9s0.1,1.4,0.2,1.9c0.1,0.6,0.4,1,0.7,1.4s0.7,0.7,1.1,0.9
			S875.9,134.4,876.6,134.4z"/>
		<path d="M885,135.9v-12.1h1.2c0.2,0,0.4,0,0.5,0.1s0.1,0.2,0.2,0.5l0.1,1.9c0.4-0.8,0.9-1.5,1.5-2s1.3-0.7,2.2-0.7
			c0.3,0,0.6,0,0.9,0.1c0.3,0.1,0.5,0.2,0.8,0.3l-0.3,1.6c-0.1,0.2-0.2,0.3-0.4,0.3c-0.1,0-0.3,0-0.5-0.1s-0.6-0.1-1-0.1
			c-0.7,0-1.4,0.2-1.9,0.6s-0.9,1.1-1.3,1.9v7.7H885L885,135.9z"/>
		<path d="M903.1,135.9h-0.9c-0.2,0-0.4,0-0.5-0.1s-0.2-0.2-0.3-0.4l-0.2-1.1c-0.3,0.3-0.6,0.5-0.9,0.8s-0.6,0.4-1,0.6
			c-0.3,0.2-0.7,0.3-1.1,0.4c-0.4,0.1-0.8,0.1-1.3,0.1s-0.9-0.1-1.3-0.2c-0.4-0.1-0.8-0.3-1.1-0.6s-0.5-0.6-0.7-1s-0.3-0.9-0.3-1.4
			s0.1-0.9,0.4-1.4c0.3-0.4,0.7-0.8,1.3-1.2s1.4-0.6,2.3-0.8s2.1-0.3,3.5-0.3v-1c0-1-0.2-1.7-0.6-2.2c-0.4-0.5-1-0.7-1.8-0.7
			c-0.5,0-1,0.1-1.3,0.2c-0.4,0.1-0.7,0.3-0.9,0.4c-0.3,0.2-0.5,0.3-0.7,0.4s-0.4,0.2-0.6,0.2c-0.1,0-0.3,0-0.4-0.1
			c-0.1-0.1-0.2-0.2-0.3-0.3l-0.4-0.7c0.7-0.6,1.4-1.1,2.2-1.5c0.8-0.3,1.6-0.5,2.6-0.5c0.7,0,1.3,0.1,1.8,0.3
			c0.5,0.2,1,0.5,1.3,0.9c0.4,0.4,0.6,0.9,0.8,1.5s0.3,1.2,0.3,1.9v7.8L903.1,135.9L903.1,135.9z M897.6,134.6c0.4,0,0.7,0,1-0.1
			s0.6-0.2,0.9-0.3c0.3-0.1,0.5-0.3,0.8-0.5s0.5-0.4,0.7-0.7v-2.5c-1,0-1.8,0.1-2.5,0.2c-0.7,0.1-1.2,0.3-1.7,0.5
			c-0.4,0.2-0.7,0.4-0.9,0.7s-0.3,0.6-0.3,0.9c0,0.3,0.1,0.6,0.2,0.8c0.1,0.2,0.2,0.4,0.4,0.6c0.2,0.1,0.4,0.3,0.6,0.3
			C897,134.6,897.3,134.6,897.6,134.6z"/>
		<path d="M909.2,120c0,0.2,0,0.4-0.1,0.6s-0.2,0.3-0.3,0.5c-0.1,0.1-0.3,0.3-0.5,0.3c-0.2,0.1-0.4,0.1-0.6,0.1s-0.4,0-0.6-0.1
			c-0.2-0.1-0.3-0.2-0.5-0.3c-0.1-0.1-0.2-0.3-0.3-0.5s-0.1-0.4-0.1-0.6s0-0.4,0.1-0.6s0.2-0.4,0.3-0.5s0.3-0.2,0.5-0.3
			c0.2-0.1,0.4-0.1,0.6-0.1s0.4,0,0.6,0.1c0.2,0.1,0.3,0.2,0.5,0.3c0.1,0.1,0.3,0.3,0.3,0.5S909.2,119.8,909.2,120z M908.7,123.8
			V136h-2.1v-12.2H908.7z"/>
		<path d="M912.5,135.9v-12.1h1.2c0.2,0,0.4,0,0.5,0.1s0.1,0.2,0.2,0.5l0.1,1.9c0.4-0.8,0.9-1.5,1.5-2s1.3-0.7,2.2-0.7
			c0.3,0,0.6,0,0.9,0.1c0.3,0.1,0.5,0.2,0.8,0.3l-0.3,1.6c-0.1,0.2-0.2,0.3-0.4,0.3c-0.1,0-0.3,0-0.5-0.1s-0.6-0.1-1-0.1
			c-0.7,0-1.4,0.2-1.9,0.6s-0.9,1.1-1.3,1.9v7.7H912.5L912.5,135.9z"/>
		<path d="M927,123.7c0.7,0,1.4,0.1,2,0.4s1.1,0.6,1.6,1.1s0.8,1,1,1.7c0.3,0.7,0.4,1.4,0.4,2.3c0,0.3,0,0.6-0.1,0.7
			c-0.1,0.1-0.2,0.2-0.4,0.2h-8.1c0,0.8,0.1,1.4,0.3,2s0.5,1,0.8,1.4s0.7,0.7,1.2,0.9s1,0.3,1.6,0.3c0.5,0,1-0.1,1.4-0.2
			c0.4-0.1,0.7-0.3,1-0.4s0.5-0.3,0.7-0.4c0.2-0.1,0.3-0.2,0.5-0.2s0.3,0.1,0.4,0.2l0.6,0.8c-0.3,0.3-0.6,0.6-0.9,0.8
			c-0.4,0.2-0.8,0.4-1.2,0.6c-0.4,0.2-0.9,0.3-1.3,0.3c-0.4,0.1-0.9,0.1-1.3,0.1c-0.8,0-1.6-0.1-2.3-0.4c-0.7-0.3-1.3-0.7-1.8-1.2
			s-0.9-1.2-1.2-2s-0.4-1.7-0.4-2.8c0-0.8,0.1-1.6,0.4-2.4c0.3-0.7,0.6-1.4,1.1-1.9s1.1-1,1.8-1.3
			C925.3,123.8,926.1,123.7,927,123.7z M927,125.2c-1,0-1.8,0.3-2.4,0.9c-0.6,0.6-1,1.4-1.1,2.5h6.6c0-0.5-0.1-1-0.2-1.4
			c-0.1-0.4-0.3-0.8-0.6-1.1s-0.6-0.5-1-0.7S927.5,125.2,927,125.2z"/>
		<path d="M939.4,135.9v-12.1h1.3c0.3,0,0.5,0.1,0.6,0.4l0.2,1.3c0.5-0.6,1.1-1.1,1.8-1.4c0.7-0.4,1.4-0.5,2.3-0.5
			c0.7,0,1.2,0.1,1.8,0.3c0.5,0.2,0.9,0.5,1.3,0.9c0.3,0.4,0.6,0.9,0.8,1.5s0.3,1.2,0.3,1.9v7.7h-2.4v-7.7c0-0.9-0.2-1.6-0.6-2.1
			c-0.4-0.5-1.1-0.8-1.9-0.8c-0.6,0-1.2,0.2-1.8,0.5c-0.5,0.3-1.1,0.7-1.5,1.2v9L939.4,135.9L939.4,135.9z"/>
		<path d="M950.9,122.4c0-0.5,0.1-1,0.3-1.5s0.5-0.9,0.8-1.2c0.4-0.3,0.8-0.6,1.2-0.8c0.5-0.2,1-0.3,1.5-0.3s1.1,0.1,1.5,0.3
			c0.5,0.2,0.9,0.5,1.2,0.8c0.4,0.3,0.6,0.8,0.8,1.2c0.2,0.5,0.3,1,0.3,1.5s-0.1,1-0.3,1.5s-0.5,0.9-0.8,1.2
			c-0.4,0.3-0.8,0.6-1.2,0.8c-0.5,0.2-1,0.3-1.5,0.3s-1.1-0.1-1.5-0.3c-0.5-0.2-0.9-0.5-1.2-0.8c-0.4-0.3-0.6-0.8-0.8-1.2
			S950.9,122.9,950.9,122.4z M952.5,122.4c0,0.3,0.1,0.6,0.2,0.9s0.3,0.5,0.5,0.8c0.2,0.2,0.5,0.4,0.8,0.5s0.6,0.2,0.9,0.2
			s0.6-0.1,0.9-0.2c0.3-0.1,0.5-0.3,0.8-0.5c0.2-0.2,0.4-0.5,0.5-0.8s0.2-0.6,0.2-0.9s-0.1-0.7-0.2-0.9c-0.1-0.3-0.3-0.6-0.5-0.8
			c-0.2-0.2-0.5-0.4-0.8-0.5s-0.6-0.2-0.9-0.2s-0.7,0.1-0.9,0.2c-0.3,0.1-0.5,0.3-0.8,0.5c-0.2,0.2-0.4,0.5-0.5,0.8
			C952.5,121.8,952.5,122.2,952.5,122.4z"/>
		<path d="M963.1,134.3h3.7v-11.7c0-0.4,0-0.7,0-1.1l-3.1,2.6c-0.1,0.1-0.2,0.1-0.2,0.1c-0.1,0-0.2,0-0.2,0c-0.1,0-0.2,0-0.3-0.1
			s-0.2-0.1-0.2-0.2l-0.7-0.9l5.1-4.4h1.7v15.6h3.4v1.6h-9.2V134.3z"/>
	</g>
	<g>
		<path d="M446.2,291.1v2h-5.6v15.2h-2.3v-15.2h-5.6v-2H446.2z"/>
		<path d="M446.4,308.3v-12.2h1.2c0.2,0,0.4,0,0.5,0.1s0.1,0.2,0.2,0.5l0.1,1.9c0.4-0.8,0.9-1.5,1.5-2s1.3-0.7,2.2-0.7
			c0.3,0,0.6,0,0.9,0.1s0.5,0.2,0.8,0.3l-0.3,1.6c-0.1,0.2-0.2,0.3-0.4,0.3c-0.1,0-0.3,0-0.5-0.1s-0.6-0.1-1-0.1
			c-0.7,0-1.4,0.2-1.9,0.6s-0.9,1.1-1.3,1.9v7.7h-2L446.4,308.3L446.4,308.3z"/>
		<path d="M464.6,308.3h-1c-0.2,0-0.4,0-0.5-0.1s-0.2-0.2-0.3-0.4l-0.2-1.1c-0.3,0.3-0.6,0.5-0.9,0.8c-0.3,0.2-0.6,0.4-1,0.6
			c-0.3,0.2-0.7,0.3-1.1,0.4s-0.8,0.1-1.3,0.1s-0.9-0.1-1.3-0.2s-0.8-0.3-1.1-0.6c-0.3-0.3-0.5-0.6-0.7-1s-0.3-0.9-0.3-1.4
			s0.1-0.9,0.4-1.4c0.3-0.4,0.7-0.8,1.3-1.2c0.6-0.3,1.4-0.6,2.3-0.8s2.1-0.3,3.5-0.3v-1c0-1-0.2-1.7-0.6-2.2s-1-0.7-1.8-0.7
			c-0.5,0-1,0.1-1.3,0.2c-0.4,0.1-0.7,0.3-0.9,0.4s-0.5,0.3-0.7,0.4s-0.4,0.2-0.6,0.2c-0.1,0-0.3,0-0.4-0.1s-0.2-0.2-0.3-0.3
			l-0.4-0.7c0.7-0.6,1.4-1.1,2.2-1.5c0.8-0.3,1.6-0.5,2.6-0.5c0.7,0,1.3,0.1,1.8,0.3c0.5,0.2,1,0.5,1.3,0.9c0.4,0.4,0.6,0.9,0.8,1.5
			s0.3,1.2,0.3,1.9v7.8L464.6,308.3L464.6,308.3z M459,307c0.4,0,0.7,0,1-0.1s0.6-0.2,0.9-0.3c0.3-0.1,0.5-0.3,0.8-0.5
			s0.5-0.4,0.7-0.7v-2.5c-1,0-1.8,0.1-2.5,0.2s-1.2,0.3-1.7,0.5s-0.7,0.4-0.9,0.7c-0.2,0.3-0.3,0.6-0.3,0.9s0.1,0.6,0.2,0.8
			s0.2,0.4,0.4,0.6s0.4,0.3,0.6,0.3C458.5,307,458.8,307,459,307z"/>
		<path d="M476.1,298.3c-0.1,0.1-0.1,0.2-0.2,0.2s-0.2,0.1-0.3,0.1c-0.1,0-0.2,0-0.4-0.1c-0.1-0.1-0.3-0.2-0.5-0.3
			c-0.2-0.1-0.5-0.2-0.8-0.3c-0.3-0.1-0.7-0.2-1.1-0.2c-0.6,0-1.1,0.1-1.6,0.3s-0.8,0.5-1.1,0.9c-0.3,0.4-0.5,0.9-0.7,1.5
			s-0.2,1.2-0.2,1.9c0,0.7,0.1,1.4,0.3,2c0.2,0.6,0.4,1.1,0.7,1.4c0.3,0.4,0.7,0.7,1.1,0.9s0.9,0.3,1.5,0.3c0.5,0,0.9-0.1,1.3-0.2
			s0.6-0.3,0.8-0.4c0.2-0.2,0.4-0.3,0.6-0.4s0.3-0.2,0.4-0.2c0.2,0,0.3,0.1,0.4,0.2l0.6,0.8c-0.5,0.6-1.2,1.1-2,1.4
			s-1.6,0.5-2.5,0.5c-0.8,0-1.5-0.1-2.1-0.4c-0.7-0.3-1.2-0.7-1.7-1.2s-0.9-1.2-1.1-2c-0.3-0.8-0.4-1.7-0.4-2.7
			c0-0.9,0.1-1.7,0.4-2.5s0.6-1.4,1.1-2s1.1-1,1.8-1.3c0.7-0.3,1.5-0.5,2.4-0.5c0.8,0,1.6,0.1,2.3,0.4c0.7,0.3,1.2,0.7,1.7,1.2
			L476.1,298.3z"/>
		<path d="M482.7,308.5c-1,0-1.7-0.3-2.2-0.8s-0.8-1.3-0.8-2.3V298h-1.5c-0.1,0-0.2,0-0.3-0.1s-0.1-0.2-0.1-0.4v-0.9l2-0.3l0.5-3.8
			c0-0.1,0.1-0.2,0.2-0.3c0.1-0.1,0.2-0.1,0.3-0.1h1.1v4.2h3.5v1.5h-3.5v7.3c0,0.5,0.1,0.9,0.4,1.1c0.2,0.2,0.6,0.4,1,0.4
			c0.2,0,0.4,0,0.6-0.1s0.3-0.1,0.4-0.2s0.2-0.1,0.3-0.2s0.2-0.1,0.2-0.1c0.1,0,0.2,0.1,0.3,0.2l0.6,1c-0.4,0.3-0.8,0.6-1.3,0.8
			C483.8,308.4,483.3,308.5,482.7,308.5z"/>
		<path d="M492.9,296c0.9,0,1.7,0.1,2.4,0.4s1.3,0.7,1.8,1.3s0.9,1.2,1.2,2c0.3,0.8,0.4,1.6,0.4,2.6s-0.1,1.8-0.4,2.6
			c-0.3,0.8-0.7,1.4-1.2,2s-1.1,1-1.8,1.3s-1.5,0.4-2.4,0.4s-1.7-0.1-2.4-0.4s-1.3-0.7-1.8-1.3c-0.5-0.5-0.9-1.2-1.2-2
			c-0.3-0.8-0.4-1.6-0.4-2.6s0.1-1.8,0.4-2.6c0.3-0.8,0.7-1.4,1.2-2c0.5-0.5,1.1-1,1.8-1.3S492,296,492.9,296z M492.9,306.8
			c1.2,0,2.1-0.4,2.7-1.2c0.6-0.8,0.9-1.9,0.9-3.4c0-1.4-0.3-2.6-0.9-3.4s-1.5-1.2-2.7-1.2c-0.6,0-1.1,0.1-1.6,0.3s-0.8,0.5-1.1,0.9
			c-0.3,0.4-0.5,0.9-0.7,1.4c-0.1,0.6-0.2,1.2-0.2,1.9c0,0.7,0.1,1.4,0.2,1.9c0.1,0.6,0.4,1,0.7,1.4c0.3,0.4,0.7,0.7,1.1,0.9
			S492.3,306.8,492.9,306.8z"/>
		<path d="M501.3,308.3v-12.2h1.2c0.2,0,0.4,0,0.5,0.1s0.1,0.2,0.2,0.5l0.1,1.9c0.4-0.8,0.9-1.5,1.5-2s1.3-0.7,2.2-0.7
			c0.3,0,0.6,0,0.9,0.1s0.5,0.2,0.8,0.3l-0.3,1.6c-0.1,0.2-0.2,0.3-0.4,0.3c-0.1,0-0.3,0-0.5-0.1s-0.6-0.1-1-0.1
			c-0.7,0-1.4,0.2-1.9,0.6s-0.9,1.1-1.3,1.9v7.7h-2L501.3,308.3L501.3,308.3z"/>
		<path d="M513.8,292.3c0,0.2,0,0.4-0.1,0.6s-0.2,0.3-0.3,0.5c-0.1,0.1-0.3,0.3-0.5,0.3c-0.2,0.1-0.4,0.1-0.6,0.1s-0.4,0-0.6-0.1
			s-0.3-0.2-0.5-0.3c-0.1-0.1-0.2-0.3-0.3-0.5c-0.1-0.2-0.1-0.4-0.1-0.6s0-0.4,0.1-0.6s0.2-0.4,0.3-0.5c0.1-0.1,0.3-0.2,0.5-0.3
			c0.2-0.1,0.4-0.1,0.6-0.1s0.4,0,0.6,0.1s0.3,0.2,0.5,0.3c0.1,0.1,0.3,0.3,0.3,0.5S513.8,292.1,513.8,292.3z M513.4,296.2v12.1
			h-2.1v-12.2h2.1V296.2z"/>
		<path d="M524.1,298.2c-0.1,0.2-0.2,0.3-0.4,0.3c-0.1,0-0.3,0-0.4-0.1c-0.2-0.1-0.3-0.2-0.6-0.3c-0.3-0.1-0.5-0.2-0.8-0.3
			c-0.3-0.1-0.7-0.1-1.1-0.1c-0.4,0-0.7,0-1,0.1s-0.5,0.2-0.7,0.4c-0.2,0.2-0.4,0.3-0.5,0.6c-0.1,0.2-0.2,0.4-0.2,0.7
			c0,0.3,0.1,0.6,0.3,0.8c0.2,0.2,0.4,0.4,0.7,0.5s0.6,0.3,1,0.4s0.8,0.2,1.2,0.4c0.4,0.1,0.8,0.3,1.2,0.4c0.4,0.2,0.7,0.4,1,0.6
			s0.5,0.5,0.7,0.9c0.2,0.3,0.3,0.8,0.3,1.3c0,0.6-0.1,1.1-0.3,1.6s-0.5,0.9-0.9,1.2c-0.4,0.3-0.9,0.6-1.4,0.8
			c-0.6,0.2-1.2,0.3-2,0.3s-1.6-0.1-2.3-0.4s-1.3-0.6-1.8-1.1l0.5-0.8c0.1-0.1,0.1-0.2,0.2-0.2c0.1-0.1,0.2-0.1,0.3-0.1
			s0.3,0.1,0.5,0.2s0.4,0.2,0.6,0.4c0.2,0.1,0.5,0.3,0.8,0.4s0.7,0.2,1.2,0.2c0.4,0,0.8-0.1,1.1-0.2s0.6-0.3,0.8-0.4
			s0.4-0.4,0.5-0.6s0.1-0.5,0.1-0.8s-0.1-0.6-0.3-0.8c-0.2-0.2-0.4-0.4-0.7-0.6s-0.6-0.3-1-0.4s-0.8-0.2-1.2-0.4
			c-0.4-0.1-0.8-0.3-1.2-0.4c-0.4-0.2-0.7-0.4-1-0.6s-0.5-0.6-0.7-0.9c-0.2-0.4-0.3-0.8-0.3-1.3s0.1-0.9,0.3-1.3s0.5-0.8,0.8-1.1
			c0.4-0.3,0.8-0.6,1.4-0.8c0.6-0.2,1.1-0.3,1.8-0.3c0.8,0,1.5,0.1,2.2,0.4c0.6,0.3,1.2,0.6,1.7,1L524.1,298.2z"/>
		<path d="M531.2,308.5c-1,0-1.7-0.3-2.2-0.8s-0.8-1.3-0.8-2.3V298h-1.5c-0.1,0-0.2,0-0.3-0.1s-0.1-0.2-0.1-0.4v-0.9l2-0.3l0.5-3.8
			c0-0.1,0.1-0.2,0.2-0.3c0.1-0.1,0.2-0.1,0.3-0.1h1.1v4.2h3.5v1.5h-3.5v7.3c0,0.5,0.1,0.9,0.4,1.1c0.2,0.2,0.6,0.4,1,0.4
			c0.2,0,0.4,0,0.6-0.1s0.3-0.1,0.4-0.2c0.1-0.1,0.2-0.1,0.3-0.2s0.2-0.1,0.2-0.1c0.1,0,0.2,0.1,0.3,0.2l0.6,1
			c-0.4,0.3-0.8,0.6-1.3,0.8C532.3,308.4,531.8,308.5,531.2,308.5z"/>
		<path d="M541.3,296c0.7,0,1.4,0.1,2,0.4s1.1,0.6,1.6,1.1s0.8,1,1,1.7c0.3,0.7,0.4,1.4,0.4,2.3c0,0.3,0,0.6-0.1,0.7
			s-0.2,0.2-0.4,0.2h-8.1c0,0.8,0.1,1.4,0.3,2s0.5,1,0.8,1.4s0.7,0.7,1.2,0.9s1,0.3,1.6,0.3c0.5,0,1-0.1,1.4-0.2s0.7-0.3,1-0.4
			s0.5-0.3,0.7-0.4s0.3-0.2,0.5-0.2s0.3,0.1,0.4,0.2l0.6,0.8c-0.3,0.3-0.6,0.6-0.9,0.8c-0.4,0.2-0.8,0.4-1.2,0.6s-0.9,0.3-1.3,0.3
			c-0.4,0.1-0.9,0.1-1.3,0.1c-0.8,0-1.6-0.1-2.3-0.4s-1.3-0.7-1.8-1.2s-0.9-1.2-1.2-2s-0.4-1.7-0.4-2.8c0-0.8,0.1-1.6,0.4-2.4
			c0.3-0.7,0.6-1.4,1.1-1.9s1.1-1,1.8-1.3C539.6,296.1,540.4,296,541.3,296z M541.4,297.5c-1,0-1.8,0.3-2.4,0.9
			c-0.6,0.6-1,1.4-1.1,2.5h6.6c0-0.5-0.1-1-0.2-1.4c-0.1-0.4-0.3-0.8-0.6-1.1c-0.3-0.3-0.6-0.5-1-0.7
			C542.3,297.5,541.8,297.5,541.4,297.5z"/>
		<path d="M553.7,308.3v-12.2h1.3c0.3,0,0.5,0.1,0.6,0.4l0.2,1.3c0.5-0.6,1.1-1.1,1.8-1.4c0.7-0.4,1.4-0.5,2.3-0.5
			c0.7,0,1.2,0.1,1.8,0.3c0.5,0.2,0.9,0.5,1.3,0.9c0.3,0.4,0.6,0.9,0.8,1.5s0.3,1.2,0.3,1.9v7.7H562v-7.7c0-0.9-0.2-1.6-0.6-2.1
			c-0.4-0.5-1.1-0.8-1.9-0.8c-0.6,0-1.2,0.2-1.8,0.5c-0.5,0.3-1.1,0.7-1.5,1.2v9L553.7,308.3L553.7,308.3z"/>
		<path d="M565.3,294.8c0-0.5,0.1-1,0.3-1.5s0.5-0.9,0.8-1.2c0.4-0.3,0.8-0.6,1.2-0.8c0.5-0.2,1-0.3,1.5-0.3s1.1,0.1,1.5,0.3
			c0.5,0.2,0.9,0.5,1.2,0.8c0.4,0.3,0.6,0.8,0.8,1.2c0.2,0.5,0.3,1,0.3,1.5s-0.1,1-0.3,1.5s-0.5,0.9-0.8,1.2
			c-0.4,0.3-0.8,0.6-1.2,0.8c-0.5,0.2-1,0.3-1.5,0.3s-1.1-0.1-1.5-0.3c-0.5-0.2-0.9-0.5-1.2-0.8c-0.4-0.3-0.6-0.8-0.8-1.2
			S565.3,295.3,565.3,294.8z M566.8,294.8c0,0.3,0.1,0.6,0.2,0.9s0.3,0.5,0.5,0.8c0.2,0.2,0.5,0.4,0.8,0.5s0.6,0.2,0.9,0.2
			s0.6-0.1,0.9-0.2c0.3-0.1,0.5-0.3,0.8-0.5c0.2-0.2,0.4-0.5,0.5-0.8s0.2-0.6,0.2-0.9s-0.1-0.7-0.2-0.9c-0.1-0.3-0.3-0.6-0.5-0.8
			c-0.2-0.2-0.5-0.4-0.8-0.5s-0.6-0.2-0.9-0.2s-0.7,0.1-0.9,0.2c-0.3,0.1-0.5,0.3-0.8,0.5c-0.2,0.2-0.4,0.5-0.5,0.8
			C566.9,294.1,566.8,294.4,566.8,294.8z"/>
		<path d="M577.4,306.7h3.7V295c0-0.4,0-0.7,0-1.1l-3.1,2.6c-0.1,0.1-0.2,0.1-0.2,0.1c-0.1,0-0.2,0-0.2,0c-0.1,0-0.2,0-0.3-0.1
			s-0.2-0.1-0.2-0.2l-0.7-0.9l5.1-4.4h1.7v15.6h3.4v1.6h-9.2V306.7z"/>
	</g>
	<g>
		<path d="M817.3,304.9c0.1,0,0.2,0.1,0.3,0.2l0.9,1c-0.7,0.8-1.6,1.5-2.6,1.9s-2.2,0.7-3.6,0.7c-1.2,0-2.4-0.2-3.4-0.6
			s-1.9-1-2.6-1.8s-1.3-1.7-1.7-2.8c-0.4-1.1-0.6-2.3-0.6-3.6c0-1.3,0.2-2.5,0.6-3.6c0.4-1.1,1-2,1.8-2.8s1.7-1.4,2.7-1.8
			c1.1-0.4,2.2-0.6,3.5-0.6s2.4,0.2,3.3,0.6s1.7,0.9,2.4,1.6l-0.8,1.1c-0.1,0.1-0.1,0.1-0.2,0.2c-0.1,0.1-0.2,0.1-0.3,0.1
			s-0.2,0-0.3-0.1s-0.3-0.2-0.4-0.3c-0.2-0.1-0.3-0.2-0.6-0.4c-0.2-0.1-0.5-0.2-0.8-0.4c-0.3-0.1-0.6-0.2-1-0.3
			c-0.4-0.1-0.8-0.1-1.4-0.1c-0.9,0-1.8,0.2-2.5,0.5c-0.8,0.3-1.4,0.8-2,1.4s-1,1.3-1.3,2.1c-0.3,0.8-0.5,1.8-0.5,2.8
			c0,1.1,0.2,2,0.5,2.9c0.3,0.8,0.7,1.6,1.3,2.1c0.5,0.6,1.2,1,1.9,1.3s1.5,0.5,2.4,0.5c0.5,0,1,0,1.4-0.1s0.8-0.2,1.1-0.3
			c0.3-0.1,0.7-0.3,1-0.5s0.6-0.4,0.9-0.7C817,304.9,817.2,304.9,817.3,304.9z"/>
		<path d="M826.2,296c0.9,0,1.7,0.1,2.4,0.4s1.3,0.7,1.8,1.3s0.9,1.2,1.2,2s0.4,1.6,0.4,2.6s-0.1,1.8-0.4,2.6
			c-0.3,0.8-0.7,1.4-1.2,2s-1.1,1-1.8,1.3s-1.5,0.4-2.4,0.4s-1.7-0.1-2.4-0.4s-1.3-0.7-1.8-1.3c-0.5-0.5-0.9-1.2-1.2-2
			s-0.4-1.6-0.4-2.6s0.1-1.8,0.4-2.6c0.3-0.8,0.7-1.4,1.2-2c0.5-0.5,1.1-1,1.8-1.3S825.3,296,826.2,296z M826.2,306.9
			c1.2,0,2.1-0.4,2.7-1.2c0.6-0.8,0.9-1.9,0.9-3.4c0-1.4-0.3-2.6-0.9-3.4c-0.6-0.8-1.5-1.2-2.7-1.2c-0.6,0-1.1,0.1-1.6,0.3
			s-0.8,0.5-1.1,0.9s-0.5,0.9-0.7,1.4c-0.1,0.6-0.2,1.2-0.2,1.9c0,0.7,0.1,1.4,0.2,1.9c0.1,0.6,0.4,1,0.7,1.4s0.7,0.7,1.1,0.9
			S825.6,306.9,826.2,306.9z"/>
		<path d="M836.5,296.2v7.8c0,0.9,0.2,1.6,0.6,2.1c0.4,0.5,1.1,0.8,1.9,0.8c0.6,0,1.2-0.1,1.8-0.4s1.1-0.7,1.5-1.2v-9h2.1v12.2h-1.3
			c-0.3,0-0.5-0.1-0.6-0.4l-0.2-1.3c-0.5,0.6-1.1,1.1-1.8,1.4c-0.7,0.4-1.4,0.5-2.3,0.5c-0.7,0-1.2-0.1-1.8-0.3
			c-0.5-0.2-0.9-0.5-1.3-0.9s-0.6-0.9-0.8-1.5s-0.3-1.2-0.3-1.9v-7.8h2.5L836.5,296.2L836.5,296.2z M843.2,294.4h-1.5
			c-0.2,0-0.3-0.1-0.5-0.2l-1.5-1.5l-0.2-0.2l-0.2,0.2l-1.5,1.5c0,0-0.1,0.1-0.2,0.1c-0.1,0-0.2,0.1-0.3,0.1h-1.5l2.7-3.2h2
			L843.2,294.4z"/>
		<path d="M851.7,308.6c-1,0-1.7-0.3-2.2-0.8s-0.8-1.3-0.8-2.3v-7.4h-1.5c-0.1,0-0.2,0-0.3-0.1s-0.1-0.2-0.1-0.4v-0.9l2-0.3l0.5-3.8
			c0-0.1,0.1-0.2,0.2-0.3c0.1-0.1,0.2-0.1,0.3-0.1h1.1v4.2h3.5v1.5h-3.5v7.3c0,0.5,0.1,0.9,0.4,1.1c0.2,0.2,0.6,0.4,1,0.4
			c0.2,0,0.4,0,0.6-0.1s0.3-0.1,0.4-0.2c0.1-0.1,0.2-0.1,0.3-0.2s0.2-0.1,0.2-0.1c0.1,0,0.2,0.1,0.3,0.2l0.6,1
			c-0.4,0.3-0.8,0.6-1.3,0.8C852.7,308.5,852.2,308.6,851.7,308.6z"/>
		<path d="M861.6,308.4v-17.7h2.1v7.2c0.5-0.6,1.1-1,1.7-1.3c0.6-0.3,1.4-0.5,2.2-0.5c0.7,0,1.2,0.1,1.8,0.3
			c0.5,0.2,0.9,0.5,1.3,0.9c0.3,0.4,0.6,0.9,0.8,1.5s0.3,1.2,0.3,1.9v7.7h-2.1v-7.7c0-0.9-0.2-1.6-0.6-2.1c-0.4-0.5-1.1-0.8-1.9-0.8
			c-0.6,0-1.2,0.2-1.8,0.5c-0.5,0.3-1.1,0.7-1.5,1.2v9h-2.3V308.4z"/>
		<path d="M879.8,296c0.9,0,1.7,0.1,2.4,0.4s1.3,0.7,1.8,1.3s0.9,1.2,1.2,2s0.4,1.6,0.4,2.6s-0.1,1.8-0.4,2.6
			c-0.3,0.8-0.7,1.4-1.2,2s-1.1,1-1.8,1.3s-1.5,0.4-2.4,0.4s-1.7-0.1-2.4-0.4s-1.3-0.7-1.8-1.3c-0.5-0.5-0.9-1.2-1.2-2
			s-0.4-1.6-0.4-2.6s0.1-1.8,0.4-2.6c0.3-0.8,0.7-1.4,1.2-2c0.5-0.5,1.1-1,1.8-1.3S878.9,296,879.8,296z M879.8,306.9
			c1.2,0,2.1-0.4,2.7-1.2c0.6-0.8,0.9-1.9,0.9-3.4c0-1.4-0.3-2.6-0.9-3.4c-0.6-0.8-1.5-1.2-2.7-1.2c-0.6,0-1.1,0.1-1.6,0.3
			s-0.8,0.5-1.1,0.9s-0.5,0.9-0.7,1.4c-0.1,0.6-0.2,1.2-0.2,1.9c0,0.7,0.1,1.4,0.2,1.9c0.1,0.6,0.4,1,0.7,1.4s0.7,0.7,1.1,0.9
			S879.2,306.9,879.8,306.9z"/>
		<path d="M888.2,308.4v-12.2h1.2c0.2,0,0.4,0,0.5,0.1s0.1,0.2,0.2,0.5l0.1,1.9c0.4-0.8,0.9-1.5,1.5-2s1.3-0.7,2.2-0.7
			c0.3,0,0.6,0,0.9,0.1c0.3,0.1,0.5,0.2,0.8,0.3l-0.3,1.6c-0.1,0.2-0.2,0.3-0.4,0.3c-0.1,0-0.3,0-0.5-0.1s-0.6-0.1-1-0.1
			c-0.7,0-1.4,0.2-1.9,0.6s-0.9,1.1-1.3,1.9v7.7h-2V308.4z"/>
		<path d="M906.4,308.4h-0.9c-0.2,0-0.4,0-0.5-0.1s-0.2-0.2-0.3-0.4l-0.2-1.1c-0.3,0.3-0.6,0.5-0.9,0.8s-0.6,0.4-1,0.6
			c-0.3,0.2-0.7,0.3-1.1,0.4c-0.4,0.1-0.8,0.1-1.3,0.1s-0.9-0.1-1.3-0.2c-0.4-0.1-0.8-0.3-1.1-0.6c-0.3-0.3-0.5-0.6-0.7-1
			s-0.3-0.9-0.3-1.4s0.1-0.9,0.4-1.4c0.3-0.4,0.7-0.8,1.3-1.2s1.4-0.6,2.3-0.8s2.1-0.3,3.5-0.3v-1c0-1-0.2-1.7-0.6-2.2
			c-0.4-0.5-1-0.7-1.8-0.7c-0.5,0-1,0.1-1.3,0.2c-0.4,0.1-0.7,0.3-0.9,0.4c-0.3,0.2-0.5,0.3-0.7,0.4s-0.4,0.2-0.6,0.2
			c-0.1,0-0.3,0-0.4-0.1c-0.1-0.1-0.2-0.2-0.3-0.3l-0.4-0.7c0.7-0.6,1.4-1.1,2.2-1.5c0.8-0.3,1.6-0.5,2.6-0.5c0.7,0,1.3,0.1,1.8,0.3
			c0.5,0.2,1,0.5,1.3,0.9c0.4,0.4,0.6,0.9,0.8,1.5s0.3,1.2,0.3,1.9v7.8L906.4,308.4L906.4,308.4z M900.8,307.1c0.4,0,0.7,0,1-0.1
			s0.6-0.2,0.9-0.3c0.3-0.1,0.5-0.3,0.8-0.5s0.5-0.4,0.7-0.7V303c-1,0-1.8,0.1-2.5,0.2s-1.2,0.3-1.7,0.5c-0.4,0.2-0.7,0.4-0.9,0.7
			c-0.2,0.3-0.3,0.6-0.3,0.9s0.1,0.6,0.2,0.8c0.1,0.2,0.2,0.4,0.4,0.6c0.2,0.1,0.4,0.3,0.6,0.3C900.3,307.1,900.6,307.1,900.8,307.1
			z"/>
		<path d="M912.5,292.4c0,0.2,0,0.4-0.1,0.6s-0.2,0.3-0.3,0.5c-0.1,0.1-0.3,0.3-0.5,0.3c-0.2,0.1-0.4,0.1-0.6,0.1s-0.4,0-0.6-0.1
			c-0.2-0.1-0.3-0.2-0.5-0.3c-0.1-0.1-0.2-0.3-0.3-0.5s-0.1-0.4-0.1-0.6s0-0.4,0.1-0.6s0.2-0.4,0.3-0.5s0.3-0.2,0.5-0.3
			c0.2-0.1,0.4-0.1,0.6-0.1s0.4,0,0.6,0.1c0.2,0.1,0.3,0.2,0.5,0.3c0.1,0.1,0.3,0.3,0.3,0.5S912.5,292.2,912.5,292.4z M912,296.2
			v12.2h-2.1v-12.2H912z"/>
		<path d="M915.8,308.4v-12.2h1.2c0.2,0,0.4,0,0.5,0.1s0.1,0.2,0.2,0.5l0.1,1.9c0.4-0.8,0.9-1.5,1.5-2s1.3-0.7,2.2-0.7
			c0.3,0,0.6,0,0.9,0.1c0.3,0.1,0.5,0.2,0.8,0.3l-0.3,1.6c-0.1,0.2-0.2,0.3-0.4,0.3c-0.1,0-0.3,0-0.5-0.1s-0.6-0.1-1-0.1
			c-0.7,0-1.4,0.2-1.9,0.6s-0.9,1.1-1.3,1.9v7.7h-2V308.4z"/>
		<path d="M930.3,296c0.7,0,1.4,0.1,2,0.4s1.1,0.6,1.6,1.1s0.8,1,1,1.7c0.3,0.7,0.4,1.4,0.4,2.3c0,0.3,0,0.6-0.1,0.7
			s-0.2,0.2-0.4,0.2h-8.1c0,0.8,0.1,1.4,0.3,2s0.5,1,0.8,1.4s0.7,0.7,1.2,0.9s1,0.3,1.6,0.3c0.5,0,1-0.1,1.4-0.2s0.7-0.3,1-0.4
			s0.5-0.3,0.7-0.4s0.3-0.2,0.5-0.2s0.3,0.1,0.4,0.2l0.6,0.8c-0.3,0.3-0.6,0.6-0.9,0.8c-0.4,0.2-0.8,0.4-1.2,0.6s-0.9,0.3-1.3,0.3
			c-0.4,0.1-0.9,0.1-1.3,0.1c-0.8,0-1.6-0.1-2.3-0.4s-1.3-0.7-1.8-1.2s-0.9-1.2-1.2-2s-0.4-1.7-0.4-2.8c0-0.8,0.1-1.6,0.4-2.4
			c0.3-0.7,0.6-1.4,1.1-1.9s1.1-1,1.8-1.3C928.6,296.2,929.4,296,930.3,296z M930.3,297.6c-1,0-1.8,0.3-2.4,0.9
			c-0.6,0.6-1,1.4-1.1,2.5h6.6c0-0.5-0.1-1-0.2-1.4c-0.1-0.4-0.3-0.8-0.6-1.1s-0.6-0.5-1-0.7S930.8,297.6,930.3,297.6z"/>
		<path d="M942.7,308.4v-12.2h1.3c0.3,0,0.5,0.1,0.6,0.4l0.2,1.3c0.5-0.6,1.1-1.1,1.8-1.4c0.7-0.4,1.4-0.5,2.3-0.5
			c0.7,0,1.2,0.1,1.8,0.3c0.5,0.2,0.9,0.5,1.3,0.9c0.3,0.4,0.6,0.9,0.8,1.5s0.3,1.2,0.3,1.9v7.7H951v-7.7c0-0.9-0.2-1.6-0.6-2.1
			c-0.4-0.5-1.1-0.8-1.9-0.8c-0.6,0-1.2,0.2-1.8,0.5c-0.5,0.3-1.1,0.7-1.5,1.2v9L942.7,308.4L942.7,308.4z"/>
		<path d="M954.2,294.9c0-0.5,0.1-1,0.3-1.5s0.5-0.9,0.8-1.2c0.4-0.3,0.8-0.6,1.2-0.8c0.5-0.2,1-0.3,1.5-0.3s1.1,0.1,1.5,0.3
			c0.5,0.2,0.9,0.5,1.2,0.8c0.4,0.3,0.6,0.8,0.8,1.2c0.2,0.5,0.3,1,0.3,1.5s-0.1,1-0.3,1.5s-0.5,0.9-0.8,1.2
			c-0.4,0.3-0.8,0.6-1.2,0.8c-0.5,0.2-1,0.3-1.5,0.3s-1.1-0.1-1.5-0.3c-0.5-0.2-0.9-0.5-1.2-0.8c-0.4-0.3-0.6-0.8-0.8-1.2
			S954.2,295.4,954.2,294.9z M955.7,294.9c0,0.3,0.1,0.6,0.2,0.9s0.3,0.5,0.5,0.8c0.2,0.2,0.5,0.4,0.8,0.5s0.6,0.2,0.9,0.2
			s0.6-0.1,0.9-0.2c0.3-0.1,0.5-0.3,0.8-0.5c0.2-0.2,0.4-0.5,0.5-0.8s0.2-0.6,0.2-0.9s-0.1-0.7-0.2-0.9c-0.1-0.3-0.3-0.6-0.5-0.8
			c-0.2-0.2-0.5-0.4-0.8-0.5s-0.6-0.2-0.9-0.2s-0.7,0.1-0.9,0.2c-0.3,0.1-0.5,0.3-0.8,0.5c-0.2,0.2-0.4,0.5-0.5,0.8
			C955.8,294.2,955.7,294.5,955.7,294.9z"/>
		<path d="M970.1,291c0.7,0,1.4,0.1,2,0.3s1.2,0.5,1.6,0.9s0.8,0.9,1.1,1.5s0.4,1.3,0.4,2c0,0.6-0.1,1.2-0.3,1.8
			c-0.2,0.5-0.5,1.1-0.8,1.6s-0.7,1-1.1,1.5c-0.4,0.5-0.9,0.9-1.4,1.4l-4.5,4.6c0.3-0.1,0.6-0.2,1-0.2c0.3-0.1,0.6-0.1,0.9-0.1h5.8
			c0.2,0,0.4,0.1,0.6,0.2c0.1,0.1,0.2,0.3,0.2,0.5v1.3h-11.5v-0.7c0-0.2,0-0.3,0.1-0.5s0.2-0.3,0.3-0.4l5.5-5.5
			c0.5-0.5,0.9-0.9,1.2-1.3c0.4-0.4,0.7-0.9,1-1.3s0.5-0.9,0.6-1.3s0.2-0.9,0.2-1.4s-0.1-0.9-0.2-1.3c-0.2-0.4-0.4-0.7-0.7-0.9
			c-0.3-0.2-0.6-0.4-1-0.6c-0.4-0.1-0.8-0.2-1.2-0.2s-0.8,0.1-1.2,0.2s-0.7,0.3-1,0.5s-0.5,0.5-0.7,0.8s-0.3,0.7-0.4,1
			c-0.1,0.2-0.2,0.4-0.3,0.5s-0.3,0.2-0.5,0.2h-0.1c0,0-0.1,0-0.2,0l-1.1-0.2c0.1-0.8,0.3-1.5,0.6-2.1s0.7-1.1,1.2-1.5
			s1.1-0.7,1.7-0.9C968.7,291.1,969.4,291,970.1,291z"/>
	</g>
	<path class="st5" d="M921.4,77.1c0,8-5.3,12.8-13.2,12.8h-43.1c-7.8,0-13.2-4.8-13.2-12.8c0-11.2,2.6-28.3,17.1-28.3
		c1.5,0,8,6.9,17.7,6.9s16.1-6.9,17.7-6.9C918.7,48.8,921.4,65.9,921.4,77.1L921.4,77.1z M905.6,33c0,10.5-8.5,19-18.9,19
		c-10.5,0-19-8.5-19-19s8.5-19,19-19C897.1,14,905.6,22.5,905.6,33z"/>
</g>
</svg>
