<?xml version="1.0" encoding="utf-8"?>
<!-- Generator: Adobe Illustrator 22.0.1, SVG Export Plug-In . SVG Version: 6.00 Build 0)  -->
<svg version="1.1" id="Calque_1" xmlns="http://www.w3.org/2000/svg" xmlns:xlink="http://www.w3.org/1999/xlink" x="0px" y="0px"
	 viewBox="0 0 296 128" style="enable-background:new 0 0 296 128;" xml:space="preserve">
<style type="text/css">
	.st0{fill:#3479FF;}
	.st1{fill:#FFFFFF;}
	.st2{fill:#00CC66;}
	.st3{fill:#CC0033;}
	.st4{fill:#FF9900;}
</style>
<g>
	<g>
		<rect x="0.8" y="47.5" class="st0" width="73" height="30"/>
		<g>
			<path class="st1" d="M22.8,62.5c0,1.2-0.2,2.2-0.6,3.2c-0.4,1-0.9,1.8-1.6,2.5c-0.7,0.7-1.6,1.3-2.5,1.6c-1,0.4-2.1,0.6-3.3,0.6
				H8.7V54.5h6.1c1.2,0,2.3,0.2,3.3,0.6c1,0.4,1.8,0.9,2.5,1.6c0.7,0.7,1.3,1.5,1.6,2.5C22.6,60.3,22.8,61.3,22.8,62.5z M19.8,62.5
				c0-0.9-0.1-1.7-0.4-2.3c-0.2-0.7-0.6-1.3-1-1.8c-0.4-0.5-1-0.8-1.6-1.1s-1.3-0.4-2.1-0.4h-3.1v11.2h3.1c0.8,0,1.5-0.1,2.1-0.4
				c0.6-0.3,1.1-0.6,1.6-1.1c0.4-0.5,0.8-1.1,1-1.8C19.7,64.1,19.8,63.4,19.8,62.5z"/>
			<path class="st1" d="M38.5,70.4h-2.3c-0.3,0-0.5-0.1-0.6-0.2s-0.3-0.3-0.4-0.5l-1.2-3.2h-6.6l-1.2,3.2c-0.1,0.2-0.2,0.3-0.3,0.5
				s-0.4,0.2-0.6,0.2H23l6.2-15.9h3L38.5,70.4z M28.2,64.4h5.1l-1.9-5.3c-0.1-0.2-0.2-0.5-0.3-0.8c-0.1-0.3-0.2-0.7-0.3-1
				c-0.1,0.4-0.2,0.7-0.3,1s-0.2,0.6-0.3,0.8L28.2,64.4z"/>
			<path class="st1" d="M54.2,70.4h-2.3c-0.3,0-0.5-0.1-0.6-0.2S51,70,50.9,69.8l-1.2-3.2h-6.6l-1.2,3.2c-0.1,0.2-0.2,0.3-0.3,0.5
				s-0.4,0.2-0.6,0.2h-2.3l6.2-15.9h3L54.2,70.4z M43.9,64.4h5.1L47,59.1c-0.1-0.2-0.2-0.5-0.3-0.8c-0.1-0.3-0.2-0.7-0.3-1
				c-0.1,0.4-0.2,0.7-0.3,1s-0.2,0.6-0.3,0.8L43.9,64.4z"/>
			<path class="st1" d="M65.8,54.5v2.4h-7.1v4.4h5.6v2.3h-5.6v4.5h7.1v2.4h-10V54.5H65.8z"/>
		</g>
	</g>
	<g>
		<rect x="90.1" y="47.5" class="st2" width="40" height="30"/>
		<g>
			<path class="st1" d="M107.7,54.5v2.4h-7.1v4.7h6V64h-6v6.5h-3V54.5H107.7z"/>
			<path class="st1" d="M113.1,64.2v6.2h-3V54.5h4.9c1.1,0,2,0.1,2.8,0.3c0.8,0.2,1.4,0.5,1.9,0.9s0.9,0.9,1.1,1.4s0.3,1.2,0.3,1.9
				c0,0.5-0.1,1-0.2,1.5s-0.4,0.9-0.7,1.3c-0.3,0.4-0.7,0.7-1.1,1c-0.4,0.3-0.9,0.5-1.5,0.7c0.4,0.2,0.7,0.5,1,0.9l4,5.9h-2.7
				c-0.3,0-0.5-0.1-0.7-0.2c-0.2-0.1-0.3-0.2-0.5-0.4l-3.3-5.1c-0.1-0.2-0.3-0.3-0.4-0.4c-0.2-0.1-0.4-0.1-0.7-0.1H113.1z
				 M113.1,62.1h1.8c0.6,0,1-0.1,1.5-0.2c0.4-0.1,0.8-0.3,1-0.6c0.3-0.2,0.5-0.5,0.6-0.9c0.1-0.3,0.2-0.7,0.2-1.1
				c0-0.8-0.3-1.4-0.8-1.9c-0.5-0.4-1.3-0.6-2.4-0.6h-1.9V62.1z"/>
		</g>
	</g>
	<g>
		<rect x="146" y="47.5" class="st3" width="40" height="30"/>
		<g>
			<path class="st1" d="M156.4,64.8v5.6h-3V54.5h5.2c1.1,0,2,0.1,2.8,0.4c0.8,0.2,1.4,0.6,1.9,1c0.5,0.4,0.9,1,1.1,1.6
				c0.2,0.6,0.4,1.3,0.4,2c0,0.8-0.1,1.5-0.4,2.1s-0.6,1.2-1.2,1.7c-0.5,0.5-1.2,0.8-1.9,1.1s-1.7,0.4-2.7,0.4H156.4z M156.4,62.5
				h2.2c0.5,0,1-0.1,1.4-0.2c0.4-0.1,0.7-0.3,1-0.6c0.3-0.3,0.5-0.6,0.6-0.9c0.1-0.4,0.2-0.8,0.2-1.2c0-0.4-0.1-0.8-0.2-1.2
				c-0.1-0.3-0.3-0.6-0.6-0.9c-0.3-0.2-0.6-0.4-1-0.6c-0.4-0.1-0.9-0.2-1.4-0.2h-2.2V62.5z"/>
			<path class="st1" d="M170.2,64.8v5.6h-3V54.5h5.2c1.1,0,2,0.1,2.8,0.4c0.8,0.2,1.4,0.6,1.9,1c0.5,0.4,0.9,1,1.1,1.6
				c0.2,0.6,0.4,1.3,0.4,2c0,0.8-0.1,1.5-0.4,2.1s-0.6,1.2-1.2,1.7c-0.5,0.5-1.2,0.8-1.9,1.1s-1.7,0.4-2.7,0.4H170.2z M170.2,62.5
				h2.2c0.5,0,1-0.1,1.4-0.2c0.4-0.1,0.7-0.3,1-0.6c0.3-0.3,0.5-0.6,0.6-0.9c0.1-0.4,0.2-0.8,0.2-1.2c0-0.4-0.1-0.8-0.2-1.2
				c-0.1-0.3-0.3-0.6-0.6-0.9c-0.3-0.2-0.6-0.4-1-0.6c-0.4-0.1-0.9-0.2-1.4-0.2h-2.2V62.5z"/>
		</g>
	</g>
	<g>
		<rect x="202.1" y="47.5" class="st4" width="55" height="30"/>
		<g>
			<path class="st1" d="M220.7,66.7c0.2,0,0.3,0.1,0.4,0.2l1.2,1.3c-0.6,0.8-1.4,1.4-2.4,1.8c-0.9,0.4-2.1,0.6-3.4,0.6
				c-1.2,0-2.2-0.2-3.2-0.6c-0.9-0.4-1.7-1-2.4-1.7s-1.2-1.6-1.5-2.6c-0.4-1-0.5-2.1-0.5-3.3c0-1.2,0.2-2.3,0.6-3.3
				c0.4-1,1-1.9,1.7-2.6c0.7-0.7,1.6-1.3,2.6-1.7s2.1-0.6,3.3-0.6c1.2,0,2.2,0.2,3.1,0.6c0.9,0.4,1.6,0.9,2.3,1.5l-1,1.4
				c-0.1,0.1-0.1,0.2-0.2,0.2c-0.1,0.1-0.2,0.1-0.4,0.1c-0.2,0-0.3-0.1-0.5-0.2c-0.2-0.1-0.4-0.3-0.7-0.4c-0.3-0.2-0.6-0.3-1-0.4
				c-0.4-0.1-0.9-0.2-1.6-0.2c-0.7,0-1.4,0.1-2.1,0.4s-1.2,0.6-1.6,1.1c-0.5,0.5-0.8,1.1-1.1,1.8s-0.4,1.5-0.4,2.3
				c0,0.9,0.1,1.7,0.4,2.4s0.6,1.3,1,1.8c0.4,0.5,0.9,0.8,1.5,1.1c0.6,0.3,1.2,0.4,1.9,0.4c0.4,0,0.8,0,1.1-0.1s0.6-0.1,0.9-0.2
				c0.3-0.1,0.5-0.2,0.8-0.4c0.2-0.1,0.5-0.3,0.7-0.6c0.1-0.1,0.2-0.1,0.2-0.2C220.5,66.7,220.6,66.7,220.7,66.7z"/>
			<path class="st1" d="M235.4,66.7c0.2,0,0.3,0.1,0.4,0.2l1.2,1.3c-0.6,0.8-1.4,1.4-2.4,1.8s-2.1,0.6-3.4,0.6
				c-1.2,0-2.2-0.2-3.2-0.6c-0.9-0.4-1.7-1-2.4-1.7c-0.7-0.7-1.2-1.6-1.5-2.6c-0.4-1-0.5-2.1-0.5-3.3c0-1.2,0.2-2.3,0.6-3.3
				c0.4-1,1-1.9,1.7-2.6c0.7-0.7,1.6-1.3,2.6-1.7s2.1-0.6,3.3-0.6c1.2,0,2.2,0.2,3.1,0.6c0.9,0.4,1.6,0.9,2.3,1.5l-1,1.4
				c-0.1,0.1-0.1,0.2-0.2,0.2c-0.1,0.1-0.2,0.1-0.4,0.1c-0.2,0-0.3-0.1-0.5-0.2c-0.2-0.1-0.4-0.3-0.7-0.4s-0.6-0.3-1-0.4
				c-0.4-0.1-0.9-0.2-1.6-0.2c-0.7,0-1.4,0.1-2.1,0.4c-0.6,0.3-1.2,0.6-1.6,1.1c-0.5,0.5-0.8,1.1-1.1,1.8s-0.4,1.5-0.4,2.3
				c0,0.9,0.1,1.7,0.4,2.4s0.6,1.3,1,1.8c0.4,0.5,0.9,0.8,1.5,1.1s1.2,0.4,1.9,0.4c0.4,0,0.8,0,1.1-0.1s0.6-0.1,0.9-0.2
				s0.5-0.2,0.8-0.4c0.2-0.1,0.5-0.3,0.7-0.6c0.1-0.1,0.2-0.1,0.2-0.2C235.2,66.7,235.3,66.7,235.4,66.7z"/>
			<path class="st1" d="M250.4,54.5V57h-4.8v13.5h-3V57h-4.8v-2.4H250.4z"/>
		</g>
	</g>
	<g>
		<path d="M39.7,44.6l12.9-12.9c0.3-0.3,0.5-0.7,0.5-1.1s-0.2-0.8-0.5-1.1c-0.3-0.3-0.7-0.5-1.1-0.5H40.8V14.4h-4.3v14.7H25.8
			c-0.4,0-0.8,0.2-1.1,0.5s-0.5,0.7-0.5,1.1s0.2,0.8,0.5,1.1l12.9,12.9c0.3,0.3,0.7,0.5,1.1,0.5C39,45.1,39.4,44.9,39.7,44.6z"/>
	</g>
	<g>
		<path d="M165.7,44.6l12.9-12.9c0.3-0.3,0.5-0.7,0.5-1.1s-0.2-0.8-0.5-1.1c-0.3-0.3-0.7-0.5-1.1-0.5h-10.7V14.4h-4.3v14.7h-10.7
			c-0.4,0-0.8,0.2-1.1,0.5s-0.5,0.7-0.5,1.1s0.2,0.8,0.5,1.1l12.9,12.9c0.3,0.3,0.7,0.5,1.1,0.5C165,45.1,165.4,44.9,165.7,44.6z"/>
	</g>
	<g>
		<path d="M109.7,80.4c-0.4,0-0.8,0.2-1.1,0.5L95.7,93.8c-0.3,0.3-0.5,0.7-0.5,1.1s0.2,0.8,0.5,1.1s0.7,0.5,1.1,0.5h10.7v14.7h4.3
			V96.6h10.7c0.4,0,0.8-0.2,1.1-0.5c0.3-0.3,0.5-0.7,0.5-1.1s-0.2-0.8-0.5-1.1L110.7,81C110.4,80.7,110,80.5,109.7,80.4z"/>
	</g>
	<g>
		<path d="M230.7,80.4c-0.4,0-0.8,0.2-1.1,0.5l-12.9,12.9c-0.3,0.3-0.5,0.7-0.5,1.1s0.2,0.8,0.5,1.1s0.7,0.5,1.1,0.5h10.7v14.7h4.3
			V96.6h10.7c0.4,0,0.8-0.2,1.1-0.5c0.3-0.3,0.5-0.7,0.5-1.1s-0.2-0.8-0.5-1.1L231.7,81C231.4,80.7,231,80.5,230.7,80.4z"/>
	</g>
	<g>
		<path d="M10.7,6.9c0.1,0,0.2,0,0.2,0.1l0.6,0.7c-0.4,0.4-0.8,0.8-1.3,1C9.8,9,9.2,9.1,8.4,9.1C7.8,9.1,7.2,9,6.7,8.7
			c-0.5-0.2-1-0.5-1.3-0.9C5,7.4,4.7,7,4.5,6.4C4.3,5.9,4.3,5.3,4.3,4.6c0-0.7,0.1-1.2,0.3-1.8c0.2-0.5,0.5-1,0.9-1.4
			s0.9-0.7,1.4-0.9C7.4,0.3,8,0.2,8.7,0.2c0.6,0,1.2,0.1,1.7,0.3c0.5,0.2,0.9,0.5,1.2,0.8l-0.5,0.8c0,0-0.1,0.1-0.1,0.1
			c0,0-0.1,0.1-0.2,0.1c-0.1,0-0.2,0-0.3-0.1c-0.1-0.1-0.2-0.2-0.4-0.2S9.8,1.8,9.6,1.7C9.3,1.6,9,1.6,8.7,1.6
			c-0.4,0-0.8,0.1-1.1,0.2S6.9,2.1,6.7,2.4C6.4,2.7,6.2,3,6.1,3.4C6,3.7,5.9,4.2,5.9,4.6c0,0.5,0.1,0.9,0.2,1.3
			c0.1,0.4,0.3,0.7,0.6,1c0.2,0.3,0.5,0.5,0.8,0.6c0.3,0.1,0.7,0.2,1,0.2c0.2,0,0.4,0,0.6,0c0.2,0,0.3-0.1,0.5-0.1
			c0.1-0.1,0.3-0.1,0.4-0.2c0.1-0.1,0.3-0.2,0.4-0.3c0,0,0.1-0.1,0.1-0.1S10.7,6.9,10.7,6.9z"/>
		<path d="M15.3,2.7c0.5,0,0.9,0.1,1.3,0.2s0.7,0.4,1,0.6s0.5,0.6,0.6,1c0.1,0.4,0.2,0.8,0.2,1.3c0,0.5-0.1,0.9-0.2,1.3
			c-0.1,0.4-0.3,0.7-0.6,1s-0.6,0.5-1,0.6s-0.8,0.2-1.3,0.2S14.5,9,14.1,8.8s-0.7-0.4-1-0.6c-0.3-0.3-0.5-0.6-0.6-1
			s-0.2-0.8-0.2-1.3c0-0.5,0.1-0.9,0.2-1.3s0.4-0.7,0.6-1c0.3-0.3,0.6-0.5,1-0.6S14.9,2.7,15.3,2.7z M15.3,7.9
			c0.5,0,0.9-0.2,1.1-0.5c0.2-0.3,0.4-0.8,0.4-1.5c0-0.7-0.1-1.2-0.4-1.5c-0.2-0.3-0.6-0.5-1.1-0.5c-0.5,0-0.9,0.2-1.2,0.5
			c-0.2,0.3-0.4,0.9-0.4,1.5c0,0.7,0.1,1.2,0.4,1.5C14.4,7.8,14.8,7.9,15.3,7.9z"/>
		<path d="M23.9,9c-0.2,0-0.3-0.1-0.4-0.3l-0.1-0.6c-0.1,0.1-0.3,0.3-0.4,0.4c-0.1,0.1-0.3,0.2-0.5,0.3S22.2,9,22,9
			s-0.4,0.1-0.6,0.1c-0.3,0-0.6-0.1-0.9-0.2c-0.3-0.1-0.5-0.3-0.7-0.6s-0.4-0.6-0.5-1c-0.1-0.4-0.2-0.8-0.2-1.3
			c0-0.5,0.1-0.9,0.2-1.3s0.3-0.7,0.5-1s0.5-0.5,0.8-0.7c0.3-0.2,0.7-0.2,1.1-0.2c0.3,0,0.6,0.1,0.9,0.2c0.2,0.1,0.5,0.3,0.7,0.4
			V0.1h1.5V9H23.9z M21.9,7.9c0.3,0,0.6-0.1,0.8-0.2s0.4-0.3,0.6-0.5V4.4C23.1,4.2,22.9,4,22.7,4c-0.2-0.1-0.4-0.1-0.6-0.1
			c-0.2,0-0.4,0-0.6,0.1S21.2,4.2,21,4.3c-0.1,0.2-0.2,0.4-0.3,0.6c-0.1,0.3-0.1,0.6-0.1,0.9c0,0.4,0,0.7,0.1,0.9s0.1,0.5,0.2,0.6
			c0.1,0.2,0.2,0.3,0.4,0.3C21.5,7.9,21.7,7.9,21.9,7.9z"/>
		<path d="M28.9,2.7c0.4,0,0.7,0.1,1.1,0.2c0.3,0.1,0.6,0.3,0.8,0.5s0.4,0.5,0.6,0.9c0.1,0.3,0.2,0.7,0.2,1.2c0,0.1,0,0.2,0,0.3
			c0,0.1,0,0.1-0.1,0.2c0,0-0.1,0.1-0.1,0.1c0,0-0.1,0-0.2,0h-3.8c0,0.6,0.2,1.1,0.5,1.4c0.3,0.3,0.7,0.4,1.2,0.4
			c0.2,0,0.4,0,0.6-0.1c0.2-0.1,0.3-0.1,0.5-0.2c0.1-0.1,0.2-0.1,0.3-0.2c0.1-0.1,0.2-0.1,0.3-0.1c0.1,0,0.1,0,0.2,0
			s0.1,0.1,0.1,0.1l0.4,0.5c-0.2,0.2-0.3,0.4-0.6,0.5s-0.4,0.2-0.6,0.3C30.1,8.9,29.9,9,29.7,9c-0.2,0-0.5,0-0.7,0
			c-0.4,0-0.8-0.1-1.2-0.2s-0.7-0.4-1-0.6s-0.5-0.6-0.6-1C26,6.8,26,6.3,26,5.8C26,5.3,26,5,26.2,4.6c0.1-0.4,0.3-0.7,0.6-1
			s0.6-0.5,0.9-0.7C28.1,2.8,28.5,2.7,28.9,2.7z M29,3.8c-0.4,0-0.8,0.1-1,0.4c-0.2,0.2-0.4,0.6-0.5,1h2.8c0-0.2,0-0.4-0.1-0.5
			c-0.1-0.2-0.1-0.3-0.2-0.4S29.7,4,29.5,3.9C29.4,3.8,29.2,3.8,29,3.8z"/>
		<path d="M35.2,9V0.3h3c0.6,0,1.1,0.1,1.5,0.2c0.4,0.1,0.7,0.3,1,0.5c0.3,0.2,0.4,0.4,0.6,0.7c0.1,0.3,0.2,0.6,0.2,1
			c0,0.2,0,0.4-0.1,0.6c-0.1,0.2-0.2,0.4-0.3,0.5c-0.1,0.2-0.3,0.3-0.5,0.4c-0.2,0.1-0.4,0.2-0.7,0.3c1.2,0.3,1.8,0.9,1.8,1.9
			c0,0.4-0.1,0.7-0.2,1c-0.1,0.3-0.3,0.6-0.6,0.8c-0.3,0.2-0.6,0.4-1,0.5S39,9,38.5,9H35.2z M36.8,4.1h1.3c0.5,0,1-0.1,1.2-0.3
			c0.3-0.2,0.4-0.5,0.4-1c0-0.5-0.1-0.8-0.4-1c-0.3-0.2-0.7-0.3-1.2-0.3h-1.4V4.1z M36.8,5.2v2.5h1.6c0.3,0,0.6,0,0.8-0.1
			c0.2-0.1,0.4-0.2,0.5-0.3c0.1-0.1,0.2-0.3,0.3-0.4C40,6.7,40,6.6,40,6.4c0-0.2,0-0.4-0.1-0.5c-0.1-0.2-0.2-0.3-0.3-0.4
			s-0.3-0.2-0.5-0.2c-0.2-0.1-0.4-0.1-0.7-0.1H36.8z"/>
		<path d="M47.8,9h-0.7c-0.1,0-0.2,0-0.3-0.1s-0.1-0.1-0.2-0.3l-0.1-0.4c-0.2,0.1-0.3,0.3-0.5,0.4c-0.1,0.1-0.3,0.2-0.5,0.3
			C45.4,8.9,45.2,9,45,9s-0.4,0.1-0.6,0.1c-0.3,0-0.5,0-0.7-0.1c-0.2-0.1-0.4-0.2-0.6-0.3c-0.2-0.1-0.3-0.3-0.4-0.5
			c-0.1-0.2-0.1-0.5-0.1-0.7c0-0.2,0.1-0.5,0.2-0.7c0.1-0.2,0.3-0.4,0.6-0.6c0.3-0.2,0.7-0.3,1.1-0.5c0.5-0.1,1.1-0.2,1.8-0.2V5.1
			c0-0.4-0.1-0.7-0.3-0.9c-0.2-0.2-0.4-0.3-0.8-0.3c-0.2,0-0.4,0-0.6,0.1c-0.2,0.1-0.3,0.1-0.4,0.2c-0.1,0.1-0.2,0.1-0.3,0.2
			c-0.1,0.1-0.2,0.1-0.3,0.1c-0.1,0-0.2,0-0.3-0.1c-0.1-0.1-0.1-0.1-0.2-0.2l-0.3-0.5c0.7-0.6,1.6-1,2.6-1c0.4,0,0.7,0.1,1,0.2
			C46.7,3,47,3.2,47.2,3.4c0.2,0.2,0.3,0.5,0.4,0.8s0.2,0.6,0.2,1V9z M44.9,8.1c0.2,0,0.3,0,0.4,0c0.1,0,0.2-0.1,0.4-0.1
			c0.1-0.1,0.2-0.1,0.3-0.2c0.1-0.1,0.2-0.2,0.3-0.3v-1c-0.4,0-0.8,0-1.1,0.1c-0.3,0.1-0.5,0.1-0.7,0.2c-0.2,0.1-0.3,0.2-0.4,0.3
			C44.1,7.1,44,7.2,44,7.3c0,0.3,0.1,0.4,0.2,0.6C44.4,8,44.6,8.1,44.9,8.1z"/>
		<path d="M49.2,9V2.8h0.9c0.2,0,0.3,0.1,0.4,0.3l0.1,0.5c0.1-0.1,0.3-0.2,0.4-0.3C51.1,3.1,51.3,3,51.4,3c0.2-0.1,0.3-0.1,0.5-0.2
			c0.2,0,0.4-0.1,0.6-0.1c0.3,0,0.6,0.1,0.9,0.2C53.7,3,53.9,3.2,54,3.4s0.3,0.5,0.4,0.7c0.1,0.3,0.1,0.6,0.1,0.9V9h-1.5V5.1
			c0-0.4-0.1-0.7-0.3-0.9C52.7,4,52.4,3.9,52,3.9c-0.3,0-0.5,0.1-0.7,0.2c-0.2,0.1-0.4,0.3-0.6,0.5V9H49.2z"/>
		<path d="M61.3,2.8V11h-1.5V8.2c-0.1,0.1-0.3,0.3-0.4,0.4c-0.1,0.1-0.3,0.2-0.4,0.3C58.8,8.9,58.6,9,58.5,9c-0.2,0-0.4,0.1-0.6,0.1
			c-0.3,0-0.6-0.1-0.9-0.2c-0.3-0.1-0.5-0.3-0.7-0.6s-0.4-0.6-0.5-1c-0.1-0.4-0.2-0.8-0.2-1.3c0-0.5,0.1-0.9,0.2-1.3s0.3-0.7,0.5-1
			s0.5-0.5,0.8-0.7c0.3-0.2,0.7-0.2,1.1-0.2c0.2,0,0.4,0,0.5,0.1c0.2,0,0.3,0.1,0.4,0.1C59.3,3,59.5,3,59.6,3.1
			c0.1,0.1,0.2,0.2,0.3,0.3L60,3.1C60,3,60,2.9,60.1,2.9s0.1-0.1,0.2-0.1H61.3z M58.4,7.9c0.3,0,0.6-0.1,0.8-0.2s0.4-0.3,0.6-0.5
			V4.4C59.6,4.2,59.4,4,59.2,4c-0.2-0.1-0.4-0.1-0.6-0.1c-0.2,0-0.4,0-0.6,0.1s-0.3,0.2-0.5,0.4c-0.1,0.2-0.2,0.4-0.3,0.6
			c-0.1,0.3-0.1,0.6-0.1,0.9c0,0.4,0,0.7,0.1,0.9s0.1,0.5,0.2,0.6c0.1,0.2,0.2,0.3,0.4,0.3C58,7.9,58.2,7.9,58.4,7.9z"/>
		<path d="M64.2,2.8v3.9c0,0.4,0.1,0.7,0.3,0.9c0.2,0.2,0.4,0.3,0.8,0.3c0.3,0,0.5-0.1,0.7-0.2c0.2-0.1,0.4-0.3,0.6-0.5V2.8h1.5V9
			h-0.9c-0.2,0-0.3-0.1-0.4-0.3l-0.1-0.5c-0.1,0.1-0.3,0.2-0.4,0.4c-0.1,0.1-0.3,0.2-0.4,0.3C65.7,8.9,65.6,9,65.4,9
			c-0.2,0-0.4,0.1-0.6,0.1c-0.3,0-0.6-0.1-0.9-0.2c-0.3-0.1-0.5-0.3-0.7-0.5C63.1,8.2,63,8,62.9,7.7c-0.1-0.3-0.1-0.6-0.1-0.9V2.8
			H64.2z"/>
		<path d="M72.2,2.7c0.4,0,0.7,0.1,1.1,0.2c0.3,0.1,0.6,0.3,0.8,0.5s0.4,0.5,0.6,0.9c0.1,0.3,0.2,0.7,0.2,1.2c0,0.1,0,0.2,0,0.3
			c0,0.1,0,0.1-0.1,0.2c0,0-0.1,0.1-0.1,0.1c0,0-0.1,0-0.2,0h-3.8c0,0.6,0.2,1.1,0.5,1.4c0.3,0.3,0.7,0.4,1.2,0.4
			c0.2,0,0.4,0,0.6-0.1c0.2-0.1,0.3-0.1,0.5-0.2c0.1-0.1,0.2-0.1,0.3-0.2c0.1-0.1,0.2-0.1,0.3-0.1c0.1,0,0.1,0,0.2,0
			s0.1,0.1,0.1,0.1l0.4,0.5c-0.2,0.2-0.3,0.4-0.6,0.5s-0.4,0.2-0.6,0.3C73.4,8.9,73.2,9,73,9c-0.2,0-0.5,0-0.7,0
			c-0.4,0-0.8-0.1-1.2-0.2s-0.7-0.4-1-0.6s-0.5-0.6-0.6-1c-0.2-0.4-0.2-0.9-0.2-1.4c0-0.4,0.1-0.8,0.2-1.2c0.1-0.4,0.3-0.7,0.6-1
			S70.6,3.1,71,3C71.4,2.8,71.8,2.7,72.2,2.7z M72.3,3.8c-0.4,0-0.8,0.1-1,0.4c-0.2,0.2-0.4,0.6-0.5,1h2.8c0-0.2,0-0.4-0.1-0.5
			c-0.1-0.2-0.1-0.3-0.2-0.4S73,4,72.8,3.9C72.7,3.8,72.5,3.8,72.3,3.8z"/>
	</g>
	<g>
		<path d="M89,123.9c0.1,0,0.2,0,0.2,0.1l0.6,0.7c-0.4,0.4-0.8,0.8-1.3,1c-0.5,0.2-1.1,0.3-1.9,0.3c-0.6,0-1.2-0.1-1.7-0.3
			c-0.5-0.2-1-0.5-1.3-0.9c-0.4-0.4-0.6-0.9-0.8-1.4c-0.2-0.5-0.3-1.1-0.3-1.8c0-0.7,0.1-1.2,0.3-1.8c0.2-0.5,0.5-1,0.9-1.4
			s0.9-0.7,1.4-0.9c0.5-0.2,1.1-0.3,1.8-0.3c0.6,0,1.2,0.1,1.7,0.3c0.5,0.2,0.9,0.5,1.2,0.8l-0.5,0.8c0,0-0.1,0.1-0.1,0.1
			c0,0-0.1,0.1-0.2,0.1c-0.1,0-0.2,0-0.3-0.1c-0.1-0.1-0.2-0.2-0.4-0.2s-0.3-0.2-0.6-0.2c-0.2-0.1-0.5-0.1-0.9-0.1
			c-0.4,0-0.8,0.1-1.1,0.2s-0.6,0.3-0.9,0.6c-0.2,0.3-0.4,0.6-0.6,1c-0.1,0.4-0.2,0.8-0.2,1.3c0,0.5,0.1,0.9,0.2,1.3
			c0.1,0.4,0.3,0.7,0.6,1c0.2,0.3,0.5,0.5,0.8,0.6c0.3,0.1,0.7,0.2,1,0.2c0.2,0,0.4,0,0.6,0c0.2,0,0.3-0.1,0.5-0.1
			c0.1-0.1,0.3-0.1,0.4-0.2c0.1-0.1,0.3-0.2,0.4-0.3c0,0,0.1-0.1,0.1-0.1S89,123.9,89,123.9z"/>
		<path d="M93.6,119.7c0.5,0,0.9,0.1,1.3,0.2s0.7,0.4,1,0.6s0.5,0.6,0.6,1c0.1,0.4,0.2,0.8,0.2,1.3c0,0.5-0.1,0.9-0.2,1.3
			c-0.1,0.4-0.3,0.7-0.6,1s-0.6,0.5-1,0.6s-0.8,0.2-1.3,0.2s-0.9-0.1-1.3-0.2s-0.7-0.4-1-0.6c-0.3-0.3-0.5-0.6-0.6-1
			s-0.2-0.8-0.2-1.3c0-0.5,0.1-0.9,0.2-1.3s0.4-0.7,0.6-1c0.3-0.3,0.6-0.5,1-0.6S93.2,119.7,93.6,119.7z M93.6,124.9
			c0.5,0,0.9-0.2,1.1-0.5c0.2-0.3,0.4-0.8,0.4-1.5c0-0.7-0.1-1.2-0.4-1.5c-0.2-0.3-0.6-0.5-1.1-0.5c-0.5,0-0.9,0.2-1.2,0.5
			c-0.2,0.3-0.4,0.9-0.4,1.5c0,0.7,0.1,1.2,0.4,1.5C92.7,124.7,93.1,124.9,93.6,124.9z"/>
		<path d="M102.2,125.9c-0.2,0-0.3-0.1-0.4-0.3l-0.1-0.6c-0.1,0.1-0.3,0.3-0.4,0.4c-0.1,0.1-0.3,0.2-0.5,0.3s-0.3,0.1-0.5,0.2
			s-0.4,0.1-0.6,0.1c-0.3,0-0.6-0.1-0.9-0.2c-0.3-0.1-0.5-0.3-0.7-0.6s-0.4-0.6-0.5-1c-0.1-0.4-0.2-0.8-0.2-1.3
			c0-0.5,0.1-0.9,0.2-1.3s0.3-0.7,0.5-1s0.5-0.5,0.8-0.7c0.3-0.2,0.7-0.2,1.1-0.2c0.3,0,0.6,0.1,0.9,0.2c0.2,0.1,0.5,0.3,0.7,0.4
			V117h1.5v8.9H102.2z M100.2,124.8c0.3,0,0.6-0.1,0.8-0.2s0.4-0.3,0.6-0.5v-2.8c-0.2-0.2-0.4-0.3-0.5-0.4c-0.2-0.1-0.4-0.1-0.6-0.1
			c-0.2,0-0.4,0-0.6,0.1s-0.3,0.2-0.5,0.4c-0.1,0.2-0.2,0.4-0.3,0.6c-0.1,0.3-0.1,0.6-0.1,0.9c0,0.4,0,0.7,0.1,0.9s0.1,0.5,0.2,0.6
			c0.1,0.2,0.2,0.3,0.4,0.3C99.8,124.8,100,124.8,100.2,124.8z"/>
		<path d="M107.2,119.7c0.4,0,0.7,0.1,1.1,0.2c0.3,0.1,0.6,0.3,0.8,0.5s0.4,0.5,0.6,0.9c0.1,0.3,0.2,0.7,0.2,1.2c0,0.1,0,0.2,0,0.3
			c0,0.1,0,0.1-0.1,0.2c0,0-0.1,0.1-0.1,0.1c0,0-0.1,0-0.2,0h-3.8c0,0.6,0.2,1.1,0.5,1.4c0.3,0.3,0.7,0.4,1.2,0.4
			c0.2,0,0.4,0,0.6-0.1c0.2-0.1,0.3-0.1,0.5-0.2c0.1-0.1,0.2-0.1,0.3-0.2c0.1-0.1,0.2-0.1,0.3-0.1c0.1,0,0.1,0,0.2,0
			s0.1,0.1,0.1,0.1l0.4,0.5c-0.2,0.2-0.3,0.4-0.6,0.5s-0.4,0.2-0.6,0.3c-0.2,0.1-0.4,0.1-0.7,0.2c-0.2,0-0.5,0-0.7,0
			c-0.4,0-0.8-0.1-1.2-0.2s-0.7-0.4-1-0.6s-0.5-0.6-0.6-1c-0.2-0.4-0.2-0.9-0.2-1.4c0-0.4,0.1-0.8,0.2-1.2c0.1-0.4,0.3-0.7,0.6-1
			s0.6-0.5,0.9-0.7C106.3,119.8,106.8,119.7,107.2,119.7z M107.2,120.7c-0.4,0-0.8,0.1-1,0.4c-0.2,0.2-0.4,0.6-0.5,1h2.8
			c0-0.2,0-0.4-0.1-0.5c-0.1-0.2-0.1-0.3-0.2-0.4s-0.2-0.2-0.4-0.3C107.7,120.8,107.5,120.7,107.2,120.7z"/>
		<path d="M115.2,122.9v3.1h-1.6v-8.7h2.8c0.6,0,1.1,0.1,1.5,0.2c0.4,0.1,0.8,0.3,1,0.6c0.3,0.2,0.5,0.5,0.6,0.9
			c0.1,0.3,0.2,0.7,0.2,1.1c0,0.4-0.1,0.8-0.2,1.2c-0.1,0.4-0.4,0.7-0.6,0.9c-0.3,0.3-0.6,0.4-1.1,0.6c-0.4,0.1-0.9,0.2-1.5,0.2
			H115.2z M115.2,121.6h1.2c0.3,0,0.6,0,0.8-0.1c0.2-0.1,0.4-0.2,0.5-0.3c0.1-0.1,0.3-0.3,0.3-0.5c0.1-0.2,0.1-0.4,0.1-0.7
			c0-0.2,0-0.4-0.1-0.6c-0.1-0.2-0.2-0.3-0.3-0.5s-0.3-0.2-0.5-0.3c-0.2-0.1-0.5-0.1-0.8-0.1h-1.2V121.6z"/>
		<path d="M125.4,125.9h-0.7c-0.1,0-0.2,0-0.3-0.1s-0.1-0.1-0.2-0.3l-0.1-0.4c-0.2,0.1-0.3,0.3-0.5,0.4c-0.1,0.1-0.3,0.2-0.5,0.3
			c-0.2,0.1-0.3,0.1-0.5,0.2s-0.4,0.1-0.6,0.1c-0.3,0-0.5,0-0.7-0.1c-0.2-0.1-0.4-0.2-0.6-0.3c-0.2-0.1-0.3-0.3-0.4-0.5
			c-0.1-0.2-0.1-0.5-0.1-0.7c0-0.2,0.1-0.5,0.2-0.7c0.1-0.2,0.3-0.4,0.6-0.6c0.3-0.2,0.7-0.3,1.1-0.5c0.5-0.1,1.1-0.2,1.8-0.2v-0.4
			c0-0.4-0.1-0.7-0.3-0.9c-0.2-0.2-0.4-0.3-0.8-0.3c-0.2,0-0.4,0-0.6,0.1c-0.2,0.1-0.3,0.1-0.4,0.2c-0.1,0.1-0.2,0.1-0.3,0.2
			c-0.1,0.1-0.2,0.1-0.3,0.1c-0.1,0-0.2,0-0.3-0.1c-0.1-0.1-0.1-0.1-0.2-0.2l-0.3-0.5c0.7-0.6,1.6-1,2.6-1c0.4,0,0.7,0.1,1,0.2
			c0.3,0.1,0.5,0.3,0.7,0.5c0.2,0.2,0.3,0.5,0.4,0.8s0.2,0.6,0.2,1V125.9z M122.5,125c0.2,0,0.3,0,0.4,0c0.1,0,0.2-0.1,0.4-0.1
			c0.1-0.1,0.2-0.1,0.3-0.2c0.1-0.1,0.2-0.2,0.3-0.3v-1c-0.4,0-0.8,0-1.1,0.1c-0.3,0.1-0.5,0.1-0.7,0.2c-0.2,0.1-0.3,0.2-0.4,0.3
			c-0.1,0.1-0.1,0.2-0.1,0.4c0,0.3,0.1,0.4,0.2,0.6C122.1,125,122.3,125,122.5,125z"/>
		<path d="M128.9,127.6c0,0.1-0.1,0.2-0.2,0.2c-0.1,0.1-0.2,0.1-0.3,0.1h-1.1l1.2-2.5l-2.5-5.7h1.3c0.1,0,0.2,0,0.3,0.1
			c0.1,0.1,0.1,0.1,0.1,0.2l1.3,3.2c0,0.1,0.1,0.2,0.1,0.3c0,0.1,0.1,0.2,0.1,0.3c0-0.1,0.1-0.2,0.1-0.3c0-0.1,0.1-0.2,0.1-0.3
			l1.2-3.2c0-0.1,0.1-0.1,0.2-0.2c0.1-0.1,0.2-0.1,0.2-0.1h1.2L128.9,127.6z"/>
		<path d="M136.7,121c0,0.1-0.1,0.1-0.1,0.1c0,0-0.1,0-0.2,0c-0.1,0-0.1,0-0.2-0.1s-0.2-0.1-0.3-0.1c-0.1,0-0.2-0.1-0.4-0.1
			c-0.1,0-0.3-0.1-0.5-0.1c-0.3,0-0.5,0.1-0.7,0.2s-0.3,0.3-0.3,0.5c0,0.1,0,0.2,0.1,0.3s0.2,0.2,0.3,0.2c0.1,0.1,0.3,0.1,0.5,0.2
			c0.2,0.1,0.4,0.1,0.6,0.2s0.4,0.1,0.6,0.2s0.3,0.2,0.5,0.3s0.3,0.3,0.3,0.5c0.1,0.2,0.1,0.4,0.1,0.6c0,0.3-0.1,0.6-0.2,0.8
			s-0.3,0.5-0.5,0.6s-0.5,0.3-0.8,0.4s-0.7,0.2-1.1,0.2c-0.2,0-0.4,0-0.6-0.1c-0.2,0-0.4-0.1-0.6-0.2c-0.2-0.1-0.4-0.1-0.5-0.2
			c-0.2-0.1-0.3-0.2-0.4-0.3l0.3-0.6c0-0.1,0.1-0.1,0.2-0.2c0.1,0,0.1-0.1,0.2-0.1c0.1,0,0.2,0,0.3,0.1s0.2,0.1,0.3,0.2
			s0.2,0.1,0.4,0.2c0.1,0.1,0.3,0.1,0.6,0.1c0.2,0,0.3,0,0.5-0.1s0.2-0.1,0.3-0.2s0.1-0.1,0.2-0.2c0-0.1,0.1-0.2,0.1-0.3
			c0-0.1,0-0.3-0.1-0.4c-0.1-0.1-0.2-0.2-0.3-0.2c-0.1-0.1-0.3-0.1-0.5-0.2c-0.2-0.1-0.4-0.1-0.6-0.2s-0.4-0.1-0.6-0.2
			c-0.2-0.1-0.3-0.2-0.5-0.3c-0.1-0.1-0.3-0.3-0.3-0.5c-0.1-0.2-0.1-0.4-0.1-0.7c0-0.3,0-0.5,0.1-0.7c0.1-0.2,0.2-0.4,0.4-0.6
			s0.4-0.3,0.7-0.4s0.6-0.2,1-0.2c0.4,0,0.8,0.1,1.2,0.2c0.3,0.1,0.6,0.3,0.9,0.6L136.7,121z"/>
	</g>
	<g>
		<path d="M125.9,6.9c0.1,0,0.2,0,0.2,0.1l0.6,0.7c-0.4,0.4-0.8,0.8-1.3,1c-0.5,0.2-1.1,0.3-1.9,0.3c-0.6,0-1.2-0.1-1.7-0.3
			c-0.5-0.2-1-0.5-1.3-0.9c-0.4-0.4-0.6-0.9-0.8-1.4c-0.2-0.5-0.3-1.1-0.3-1.8c0-0.7,0.1-1.2,0.3-1.8c0.2-0.5,0.5-1,0.9-1.4
			s0.9-0.7,1.4-0.9c0.5-0.2,1.1-0.3,1.8-0.3c0.6,0,1.2,0.1,1.7,0.3c0.5,0.2,0.9,0.5,1.2,0.8l-0.5,0.8c0,0-0.1,0.1-0.1,0.1
			c0,0-0.1,0.1-0.2,0.1c-0.1,0-0.2,0-0.3-0.1c-0.1-0.1-0.2-0.2-0.4-0.2s-0.3-0.2-0.6-0.2c-0.2-0.1-0.5-0.1-0.9-0.1
			c-0.4,0-0.8,0.1-1.1,0.2s-0.6,0.3-0.9,0.6c-0.2,0.3-0.4,0.6-0.6,1c-0.1,0.4-0.2,0.8-0.2,1.3c0,0.5,0.1,0.9,0.2,1.3
			c0.1,0.4,0.3,0.7,0.6,1c0.2,0.3,0.5,0.5,0.8,0.6c0.3,0.1,0.7,0.2,1,0.2c0.2,0,0.4,0,0.6,0c0.2,0,0.3-0.1,0.5-0.1
			c0.1-0.1,0.3-0.1,0.4-0.2c0.1-0.1,0.3-0.2,0.4-0.3c0,0,0.1-0.1,0.1-0.1S125.9,6.9,125.9,6.9z"/>
		<path d="M130.5,2.7c0.5,0,0.9,0.1,1.3,0.2s0.7,0.4,1,0.6s0.5,0.6,0.6,1c0.1,0.4,0.2,0.8,0.2,1.3c0,0.5-0.1,0.9-0.2,1.3
			c-0.1,0.4-0.3,0.7-0.6,1s-0.6,0.5-1,0.6s-0.8,0.2-1.3,0.2s-0.9-0.1-1.3-0.2s-0.7-0.4-1-0.6c-0.3-0.3-0.5-0.6-0.6-1
			s-0.2-0.8-0.2-1.3c0-0.5,0.1-0.9,0.2-1.3s0.4-0.7,0.6-1c0.3-0.3,0.6-0.5,1-0.6S130.1,2.7,130.5,2.7z M130.5,7.9
			c0.5,0,0.9-0.2,1.1-0.5c0.2-0.3,0.4-0.8,0.4-1.5c0-0.7-0.1-1.2-0.4-1.5c-0.2-0.3-0.6-0.5-1.1-0.5c-0.5,0-0.9,0.2-1.2,0.5
			c-0.2,0.3-0.4,0.9-0.4,1.5c0,0.7,0.1,1.2,0.4,1.5C129.6,7.8,130,7.9,130.5,7.9z"/>
		<path d="M139.1,9c-0.2,0-0.3-0.1-0.4-0.3l-0.1-0.6c-0.1,0.1-0.3,0.3-0.4,0.4c-0.1,0.1-0.3,0.2-0.5,0.3S137.4,9,137.2,9
			s-0.4,0.1-0.6,0.1c-0.3,0-0.6-0.1-0.9-0.2c-0.3-0.1-0.5-0.3-0.7-0.6s-0.4-0.6-0.5-1c-0.1-0.4-0.2-0.8-0.2-1.3
			c0-0.5,0.1-0.9,0.2-1.3s0.3-0.7,0.5-1s0.5-0.5,0.8-0.7c0.3-0.2,0.7-0.2,1.1-0.2c0.3,0,0.6,0.1,0.9,0.2c0.2,0.1,0.5,0.3,0.7,0.4
			V0.1h1.5V9H139.1z M137.1,7.9c0.3,0,0.6-0.1,0.8-0.2s0.4-0.3,0.6-0.5V4.4c-0.2-0.2-0.4-0.3-0.5-0.4c-0.2-0.1-0.4-0.1-0.6-0.1
			c-0.2,0-0.4,0-0.6,0.1s-0.3,0.2-0.5,0.4c-0.1,0.2-0.2,0.4-0.3,0.6c-0.1,0.3-0.1,0.6-0.1,0.9c0,0.4,0,0.7,0.1,0.9s0.1,0.5,0.2,0.6
			c0.1,0.2,0.2,0.3,0.4,0.3C136.7,7.9,136.9,7.9,137.1,7.9z"/>
		<path d="M144.1,2.7c0.4,0,0.7,0.1,1.1,0.2c0.3,0.1,0.6,0.3,0.8,0.5s0.4,0.5,0.6,0.9c0.1,0.3,0.2,0.7,0.2,1.2c0,0.1,0,0.2,0,0.3
			c0,0.1,0,0.1-0.1,0.2c0,0-0.1,0.1-0.1,0.1c0,0-0.1,0-0.2,0h-3.8c0,0.6,0.2,1.1,0.5,1.4c0.3,0.3,0.7,0.4,1.2,0.4
			c0.2,0,0.4,0,0.6-0.1c0.2-0.1,0.3-0.1,0.5-0.2c0.1-0.1,0.2-0.1,0.3-0.2c0.1-0.1,0.2-0.1,0.3-0.1c0.1,0,0.1,0,0.2,0
			s0.1,0.1,0.1,0.1l0.4,0.5c-0.2,0.2-0.3,0.4-0.6,0.5s-0.4,0.2-0.6,0.3c-0.2,0.1-0.4,0.1-0.7,0.2c-0.2,0-0.5,0-0.7,0
			c-0.4,0-0.8-0.1-1.2-0.2s-0.7-0.4-1-0.6s-0.5-0.6-0.6-1c-0.2-0.4-0.2-0.9-0.2-1.4c0-0.4,0.1-0.8,0.2-1.2c0.1-0.4,0.3-0.7,0.6-1
			s0.6-0.5,0.9-0.7C143.2,2.8,143.7,2.7,144.1,2.7z M144.1,3.8c-0.4,0-0.8,0.1-1,0.4c-0.2,0.2-0.4,0.6-0.5,1h2.8
			c0-0.2,0-0.4-0.1-0.5c-0.1-0.2-0.1-0.3-0.2-0.4s-0.2-0.2-0.4-0.3C144.6,3.8,144.4,3.8,144.1,3.8z"/>
		<path d="M151.9,0.1V9h-1.5V0.1H151.9z"/>
		<path d="M156.2,2.7c0.5,0,0.9,0.1,1.3,0.2s0.7,0.4,1,0.6s0.5,0.6,0.6,1c0.1,0.4,0.2,0.8,0.2,1.3c0,0.5-0.1,0.9-0.2,1.3
			c-0.1,0.4-0.3,0.7-0.6,1s-0.6,0.5-1,0.6s-0.8,0.2-1.3,0.2s-0.9-0.1-1.3-0.2s-0.7-0.4-1-0.6c-0.3-0.3-0.5-0.6-0.6-1
			s-0.2-0.8-0.2-1.3c0-0.5,0.1-0.9,0.2-1.3s0.4-0.7,0.6-1c0.3-0.3,0.6-0.5,1-0.6S155.7,2.7,156.2,2.7z M156.2,7.9
			c0.5,0,0.9-0.2,1.1-0.5c0.2-0.3,0.4-0.8,0.4-1.5c0-0.7-0.1-1.2-0.4-1.5c-0.2-0.3-0.6-0.5-1.1-0.5c-0.5,0-0.9,0.2-1.2,0.5
			c-0.2,0.3-0.4,0.9-0.4,1.5c0,0.7,0.1,1.2,0.4,1.5C155.3,7.8,155.7,7.9,156.2,7.9z"/>
		<path d="M164.7,4.1c0,0.1-0.1,0.1-0.1,0.1c0,0-0.1,0-0.2,0c-0.1,0-0.2,0-0.2-0.1c-0.1,0-0.2-0.1-0.3-0.2c-0.1-0.1-0.2-0.1-0.4-0.2
			c-0.1,0-0.3-0.1-0.5-0.1c-0.3,0-0.5,0-0.7,0.1c-0.2,0.1-0.4,0.2-0.5,0.4c-0.1,0.2-0.2,0.4-0.3,0.6c-0.1,0.2-0.1,0.5-0.1,0.8
			c0,0.3,0,0.6,0.1,0.9s0.2,0.5,0.3,0.6c0.1,0.2,0.3,0.3,0.5,0.4c0.2,0.1,0.4,0.1,0.6,0.1s0.4,0,0.6-0.1s0.3-0.1,0.4-0.2
			c0.1-0.1,0.2-0.1,0.3-0.2c0.1-0.1,0.2-0.1,0.2-0.1c0.1,0,0.2,0,0.3,0.1l0.4,0.5c-0.2,0.2-0.3,0.4-0.5,0.5
			c-0.2,0.1-0.4,0.2-0.6,0.3S163.6,9,163.4,9c-0.2,0-0.4,0-0.7,0c-0.4,0-0.7-0.1-1.1-0.2s-0.6-0.3-0.9-0.6s-0.4-0.6-0.6-1
			C160,6.8,160,6.4,160,5.9c0-0.5,0.1-0.9,0.2-1.3c0.1-0.4,0.3-0.7,0.6-1c0.3-0.3,0.6-0.5,0.9-0.7c0.4-0.2,0.8-0.2,1.3-0.2
			c0.5,0,0.9,0.1,1.2,0.2c0.3,0.1,0.7,0.4,0.9,0.6L164.7,4.1z"/>
		<path d="M170.9,9h-0.7c-0.1,0-0.2,0-0.3-0.1s-0.1-0.1-0.2-0.3l-0.1-0.4c-0.2,0.1-0.3,0.3-0.5,0.4c-0.1,0.1-0.3,0.2-0.5,0.3
			c-0.2,0.1-0.3,0.1-0.5,0.2s-0.4,0.1-0.6,0.1c-0.3,0-0.5,0-0.7-0.1c-0.2-0.1-0.4-0.2-0.6-0.3c-0.2-0.1-0.3-0.3-0.4-0.5
			c-0.1-0.2-0.1-0.5-0.1-0.7c0-0.2,0.1-0.5,0.2-0.7c0.1-0.2,0.3-0.4,0.6-0.6c0.3-0.2,0.7-0.3,1.1-0.5c0.5-0.1,1.1-0.2,1.8-0.2V5.1
			c0-0.4-0.1-0.7-0.3-0.9c-0.2-0.2-0.4-0.3-0.8-0.3c-0.2,0-0.4,0-0.6,0.1c-0.2,0.1-0.3,0.1-0.4,0.2c-0.1,0.1-0.2,0.1-0.3,0.2
			c-0.1,0.1-0.2,0.1-0.3,0.1c-0.1,0-0.2,0-0.3-0.1c-0.1-0.1-0.1-0.1-0.2-0.2l-0.3-0.5c0.7-0.6,1.6-1,2.6-1c0.4,0,0.7,0.1,1,0.2
			c0.3,0.1,0.5,0.3,0.7,0.5c0.2,0.2,0.3,0.5,0.4,0.8s0.2,0.6,0.2,1V9z M168,8.1c0.2,0,0.3,0,0.4,0c0.1,0,0.2-0.1,0.4-0.1
			c0.1-0.1,0.2-0.1,0.3-0.2c0.1-0.1,0.2-0.2,0.3-0.3v-1c-0.4,0-0.8,0-1.1,0.1c-0.3,0.1-0.5,0.1-0.7,0.2c-0.2,0.1-0.3,0.2-0.4,0.3
			c-0.1,0.1-0.1,0.2-0.1,0.4c0,0.3,0.1,0.4,0.2,0.6C167.6,8,167.8,8.1,168,8.1z"/>
		<path d="M174,0.1V9h-1.5V0.1H174z"/>
		<path d="M177.4,1c0,0.1,0,0.2-0.1,0.4c-0.1,0.1-0.1,0.2-0.2,0.3c-0.1,0.1-0.2,0.2-0.3,0.2c-0.1,0.1-0.2,0.1-0.4,0.1
			c-0.1,0-0.2,0-0.4-0.1c-0.1,0-0.2-0.1-0.3-0.2s-0.2-0.2-0.2-0.3c-0.1-0.1-0.1-0.2-0.1-0.4c0-0.1,0-0.3,0.1-0.4
			c0-0.1,0.1-0.2,0.2-0.3s0.2-0.2,0.3-0.2c0.1,0,0.2-0.1,0.4-0.1c0.1,0,0.3,0,0.4,0.1c0.1,0.1,0.2,0.1,0.3,0.2
			c0.1,0.1,0.2,0.2,0.2,0.3C177.4,0.8,177.4,0.9,177.4,1z M177.2,2.8V9h-1.5V2.8H177.2z"/>
		<path d="M182.5,4c0,0.1-0.1,0.1-0.1,0.1c0,0-0.1,0-0.2,0c-0.1,0-0.1,0-0.2-0.1S181.8,4,181.7,4c-0.1,0-0.2-0.1-0.4-0.1
			c-0.1,0-0.3-0.1-0.5-0.1c-0.3,0-0.5,0.1-0.7,0.2s-0.3,0.3-0.3,0.5c0,0.1,0,0.2,0.1,0.3s0.2,0.2,0.3,0.2c0.1,0.1,0.3,0.1,0.5,0.2
			c0.2,0.1,0.4,0.1,0.6,0.2s0.4,0.1,0.6,0.2s0.3,0.2,0.5,0.3s0.3,0.3,0.3,0.5c0.1,0.2,0.1,0.4,0.1,0.6c0,0.3-0.1,0.6-0.2,0.8
			s-0.3,0.5-0.5,0.6s-0.5,0.3-0.8,0.4s-0.7,0.2-1.1,0.2c-0.2,0-0.4,0-0.6-0.1c-0.2,0-0.4-0.1-0.6-0.2c-0.2-0.1-0.4-0.1-0.5-0.2
			c-0.2-0.1-0.3-0.2-0.4-0.3l0.3-0.6c0-0.1,0.1-0.1,0.2-0.2c0.1,0,0.1-0.1,0.2-0.1c0.1,0,0.2,0,0.3,0.1s0.2,0.1,0.3,0.2
			s0.2,0.1,0.4,0.2c0.1,0.1,0.3,0.1,0.6,0.1c0.2,0,0.3,0,0.5-0.1s0.2-0.1,0.3-0.2s0.1-0.1,0.2-0.2c0-0.1,0.1-0.2,0.1-0.3
			c0-0.1,0-0.3-0.1-0.4c-0.1-0.1-0.2-0.2-0.3-0.2c-0.1-0.1-0.3-0.1-0.5-0.2c-0.2-0.1-0.4-0.1-0.6-0.2s-0.4-0.1-0.6-0.2
			c-0.2-0.1-0.3-0.2-0.5-0.3c-0.1-0.1-0.3-0.3-0.3-0.5c-0.1-0.2-0.1-0.4-0.1-0.7c0-0.3,0-0.5,0.1-0.7c0.1-0.2,0.2-0.4,0.4-0.6
			s0.4-0.3,0.7-0.4s0.6-0.2,1-0.2c0.4,0,0.8,0.1,1.2,0.2c0.3,0.1,0.6,0.3,0.9,0.6L182.5,4z"/>
		<path d="M188.9,9h-0.7c-0.1,0-0.2,0-0.3-0.1s-0.1-0.1-0.2-0.3l-0.1-0.4c-0.2,0.1-0.3,0.3-0.5,0.4c-0.1,0.1-0.3,0.2-0.5,0.3
			c-0.2,0.1-0.3,0.1-0.5,0.2s-0.4,0.1-0.6,0.1c-0.3,0-0.5,0-0.7-0.1c-0.2-0.1-0.4-0.2-0.6-0.3c-0.2-0.1-0.3-0.3-0.4-0.5
			c-0.1-0.2-0.1-0.5-0.1-0.7c0-0.2,0.1-0.5,0.2-0.7c0.1-0.2,0.3-0.4,0.6-0.6c0.3-0.2,0.7-0.3,1.1-0.5c0.5-0.1,1.1-0.2,1.8-0.2V5.1
			c0-0.4-0.1-0.7-0.3-0.9c-0.2-0.2-0.4-0.3-0.8-0.3c-0.2,0-0.4,0-0.6,0.1c-0.2,0.1-0.3,0.1-0.4,0.2c-0.1,0.1-0.2,0.1-0.3,0.2
			c-0.1,0.1-0.2,0.1-0.3,0.1c-0.1,0-0.2,0-0.3-0.1c-0.1-0.1-0.1-0.1-0.2-0.2l-0.3-0.5c0.7-0.6,1.6-1,2.6-1c0.4,0,0.7,0.1,1,0.2
			c0.3,0.1,0.5,0.3,0.7,0.5c0.2,0.2,0.3,0.5,0.4,0.8s0.2,0.6,0.2,1V9z M186.1,8.1c0.2,0,0.3,0,0.4,0c0.1,0,0.2-0.1,0.4-0.1
			c0.1-0.1,0.2-0.1,0.3-0.2c0.1-0.1,0.2-0.2,0.3-0.3v-1c-0.4,0-0.8,0-1.1,0.1c-0.3,0.1-0.5,0.1-0.7,0.2c-0.2,0.1-0.3,0.2-0.4,0.3
			c-0.1,0.1-0.1,0.2-0.1,0.4c0,0.3,0.1,0.4,0.2,0.6C185.6,8,185.8,8.1,186.1,8.1z"/>
		<path d="M192.4,9.1c-0.5,0-0.9-0.2-1.2-0.5c-0.3-0.3-0.4-0.7-0.4-1.3V3.9h-0.6c-0.1,0-0.1,0-0.2-0.1c-0.1-0.1-0.1-0.1-0.1-0.2V3
			l1-0.2l0.3-1.7c0-0.1,0.1-0.1,0.1-0.2s0.1-0.1,0.2-0.1h0.8v1.9h1.6v1.1h-1.6v3.3c0,0.2,0,0.3,0.1,0.5c0.1,0.1,0.2,0.2,0.4,0.2
			c0.1,0,0.2,0,0.2,0s0.1,0,0.2-0.1c0,0,0.1,0,0.1-0.1c0,0,0.1,0,0.1,0c0,0,0.1,0,0.1,0s0.1,0.1,0.1,0.1l0.4,0.7
			c-0.2,0.2-0.5,0.3-0.7,0.4C193,9,192.7,9.1,192.4,9.1z"/>
		<path d="M196.8,1c0,0.1,0,0.2-0.1,0.4c-0.1,0.1-0.1,0.2-0.2,0.3c-0.1,0.1-0.2,0.2-0.3,0.2C196.1,1.9,196,2,195.9,2
			c-0.1,0-0.2,0-0.4-0.1c-0.1,0-0.2-0.1-0.3-0.2s-0.2-0.2-0.2-0.3C195,1.3,195,1.2,195,1c0-0.1,0-0.3,0.1-0.4c0-0.1,0.1-0.2,0.2-0.3
			s0.2-0.2,0.3-0.2c0.1,0,0.2-0.1,0.4-0.1c0.1,0,0.3,0,0.4,0.1c0.1,0.1,0.2,0.1,0.3,0.2c0.1,0.1,0.2,0.2,0.2,0.3
			C196.8,0.8,196.8,0.9,196.8,1z M196.6,2.8V9h-1.5V2.8H196.6z"/>
		<path d="M200.9,2.7c0.5,0,0.9,0.1,1.3,0.2s0.7,0.4,1,0.6s0.5,0.6,0.6,1c0.1,0.4,0.2,0.8,0.2,1.3c0,0.5-0.1,0.9-0.2,1.3
			c-0.1,0.4-0.3,0.7-0.6,1s-0.6,0.5-1,0.6s-0.8,0.2-1.3,0.2s-0.9-0.1-1.3-0.2s-0.7-0.4-1-0.6c-0.3-0.3-0.5-0.6-0.6-1
			s-0.2-0.8-0.2-1.3c0-0.5,0.1-0.9,0.2-1.3s0.4-0.7,0.6-1c0.3-0.3,0.6-0.5,1-0.6S200.5,2.7,200.9,2.7z M200.9,7.9
			c0.5,0,0.9-0.2,1.1-0.5c0.2-0.3,0.4-0.8,0.4-1.5c0-0.7-0.1-1.2-0.4-1.5c-0.2-0.3-0.6-0.5-1.1-0.5c-0.5,0-0.9,0.2-1.2,0.5
			c-0.2,0.3-0.4,0.9-0.4,1.5c0,0.7,0.1,1.2,0.4,1.5C200,7.8,200.4,7.9,200.9,7.9z"/>
		<path d="M205.1,9V2.8h0.9c0.2,0,0.3,0.1,0.4,0.3l0.1,0.5c0.1-0.1,0.3-0.2,0.4-0.3c0.1-0.1,0.3-0.2,0.4-0.3
			c0.2-0.1,0.3-0.1,0.5-0.2c0.2,0,0.4-0.1,0.6-0.1c0.3,0,0.6,0.1,0.9,0.2c0.3,0.1,0.5,0.3,0.7,0.5s0.3,0.5,0.4,0.7
			c0.1,0.3,0.1,0.6,0.1,0.9V9H209V5.1c0-0.4-0.1-0.7-0.3-0.9c-0.2-0.2-0.4-0.3-0.8-0.3c-0.3,0-0.5,0.1-0.7,0.2
			c-0.2,0.1-0.4,0.3-0.6,0.5V9H205.1z"/>
	</g>
	<g>
		<path d="M172.9,123.9c0.1,0,0.2,0,0.2,0.1l0.6,0.7c-0.4,0.4-0.8,0.8-1.3,1c-0.5,0.2-1.1,0.3-1.9,0.3c-0.6,0-1.2-0.1-1.7-0.3
			c-0.5-0.2-1-0.5-1.3-0.9c-0.4-0.4-0.6-0.9-0.8-1.4c-0.2-0.5-0.3-1.1-0.3-1.8c0-0.7,0.1-1.2,0.3-1.8c0.2-0.5,0.5-1,0.9-1.4
			s0.9-0.7,1.4-0.9c0.5-0.2,1.1-0.3,1.8-0.3c0.6,0,1.2,0.1,1.7,0.3c0.5,0.2,0.9,0.5,1.2,0.8l-0.5,0.8c0,0-0.1,0.1-0.1,0.1
			c0,0-0.1,0.1-0.2,0.1c-0.1,0-0.2,0-0.3-0.1c-0.1-0.1-0.2-0.2-0.4-0.2s-0.3-0.2-0.6-0.2c-0.2-0.1-0.5-0.1-0.9-0.1
			c-0.4,0-0.8,0.1-1.1,0.2s-0.6,0.3-0.9,0.6c-0.2,0.3-0.4,0.6-0.6,1c-0.1,0.4-0.2,0.8-0.2,1.3c0,0.5,0.1,0.9,0.2,1.3
			c0.1,0.4,0.3,0.7,0.6,1c0.2,0.3,0.5,0.5,0.8,0.6c0.3,0.1,0.7,0.2,1,0.2c0.2,0,0.4,0,0.6,0c0.2,0,0.3-0.1,0.5-0.1
			c0.1-0.1,0.3-0.1,0.4-0.2c0.1-0.1,0.3-0.2,0.4-0.3c0,0,0.1-0.1,0.1-0.1S172.8,123.9,172.9,123.9z"/>
		<path d="M177.5,119.7c0.5,0,0.9,0.1,1.3,0.2s0.7,0.4,1,0.6s0.5,0.6,0.6,1c0.1,0.4,0.2,0.8,0.2,1.3c0,0.5-0.1,0.9-0.2,1.3
			c-0.1,0.4-0.3,0.7-0.6,1s-0.6,0.5-1,0.6s-0.8,0.2-1.3,0.2s-0.9-0.1-1.3-0.2s-0.7-0.4-1-0.6c-0.3-0.3-0.5-0.6-0.6-1
			s-0.2-0.8-0.2-1.3c0-0.5,0.1-0.9,0.2-1.3s0.4-0.7,0.6-1c0.3-0.3,0.6-0.5,1-0.6S177,119.7,177.5,119.7z M177.5,124.9
			c0.5,0,0.9-0.2,1.1-0.5c0.2-0.3,0.4-0.8,0.4-1.5c0-0.7-0.1-1.2-0.4-1.5c-0.2-0.3-0.6-0.5-1.1-0.5c-0.5,0-0.9,0.2-1.2,0.5
			c-0.2,0.3-0.4,0.9-0.4,1.5c0,0.7,0.1,1.2,0.4,1.5C176.6,124.7,177,124.9,177.5,124.9z"/>
		<path d="M186,125.9c-0.2,0-0.3-0.1-0.4-0.3l-0.1-0.6c-0.1,0.1-0.3,0.3-0.4,0.4c-0.1,0.1-0.3,0.2-0.5,0.3s-0.3,0.1-0.5,0.2
			s-0.4,0.1-0.6,0.1c-0.3,0-0.6-0.1-0.9-0.2c-0.3-0.1-0.5-0.3-0.7-0.6s-0.4-0.6-0.5-1c-0.1-0.4-0.2-0.8-0.2-1.3
			c0-0.5,0.1-0.9,0.2-1.3s0.3-0.7,0.5-1s0.5-0.5,0.8-0.7c0.3-0.2,0.7-0.2,1.1-0.2c0.3,0,0.6,0.1,0.9,0.2c0.2,0.1,0.5,0.3,0.7,0.4
			V117h1.5v8.9H186z M184.1,124.8c0.3,0,0.6-0.1,0.8-0.2s0.4-0.3,0.6-0.5v-2.8c-0.2-0.2-0.4-0.3-0.5-0.4c-0.2-0.1-0.4-0.1-0.6-0.1
			c-0.2,0-0.4,0-0.6,0.1s-0.3,0.2-0.5,0.4c-0.1,0.2-0.2,0.4-0.3,0.6c-0.1,0.3-0.1,0.6-0.1,0.9c0,0.4,0,0.7,0.1,0.9s0.1,0.5,0.2,0.6
			c0.1,0.2,0.2,0.3,0.4,0.3C183.7,124.8,183.9,124.8,184.1,124.8z"/>
		<path d="M191.1,119.7c0.4,0,0.7,0.1,1.1,0.2c0.3,0.1,0.6,0.3,0.8,0.5s0.4,0.5,0.6,0.9c0.1,0.3,0.2,0.7,0.2,1.2c0,0.1,0,0.2,0,0.3
			c0,0.1,0,0.1-0.1,0.2c0,0-0.1,0.1-0.1,0.1c0,0-0.1,0-0.2,0h-3.8c0,0.6,0.2,1.1,0.5,1.4c0.3,0.3,0.7,0.4,1.2,0.4
			c0.2,0,0.4,0,0.6-0.1c0.2-0.1,0.3-0.1,0.5-0.2c0.1-0.1,0.2-0.1,0.3-0.2c0.1-0.1,0.2-0.1,0.3-0.1c0.1,0,0.1,0,0.2,0
			s0.1,0.1,0.1,0.1l0.4,0.5c-0.2,0.2-0.3,0.4-0.6,0.5s-0.4,0.2-0.6,0.3c-0.2,0.1-0.4,0.1-0.7,0.2c-0.2,0-0.5,0-0.7,0
			c-0.4,0-0.8-0.1-1.2-0.2s-0.7-0.4-1-0.6s-0.5-0.6-0.6-1c-0.2-0.4-0.2-0.9-0.2-1.4c0-0.4,0.1-0.8,0.2-1.2c0.1-0.4,0.3-0.7,0.6-1
			s0.6-0.5,0.9-0.7C190.2,119.8,190.6,119.7,191.1,119.7z M191.1,120.7c-0.4,0-0.8,0.1-1,0.4c-0.2,0.2-0.4,0.6-0.5,1h2.8
			c0-0.2,0-0.4-0.1-0.5c-0.1-0.2-0.1-0.3-0.2-0.4s-0.2-0.2-0.4-0.3C191.5,120.8,191.3,120.7,191.1,120.7z"/>
		<path d="M199.9,119.7c0.5,0,0.9,0.1,1.3,0.2s0.7,0.4,1,0.6s0.5,0.6,0.6,1c0.1,0.4,0.2,0.8,0.2,1.3c0,0.5-0.1,0.9-0.2,1.3
			c-0.1,0.4-0.3,0.7-0.6,1s-0.6,0.5-1,0.6s-0.8,0.2-1.3,0.2s-0.9-0.1-1.3-0.2s-0.7-0.4-1-0.6c-0.3-0.3-0.5-0.6-0.6-1
			s-0.2-0.8-0.2-1.3c0-0.5,0.1-0.9,0.2-1.3s0.4-0.7,0.6-1c0.3-0.3,0.6-0.5,1-0.6S199.4,119.7,199.9,119.7z M199.9,124.9
			c0.5,0,0.9-0.2,1.1-0.5c0.2-0.3,0.4-0.8,0.4-1.5c0-0.7-0.1-1.2-0.4-1.5c-0.2-0.3-0.6-0.5-1.1-0.5c-0.5,0-0.9,0.2-1.2,0.5
			c-0.2,0.3-0.4,0.9-0.4,1.5c0,0.7,0.1,1.2,0.4,1.5C199,124.7,199.4,124.9,199.9,124.9z"/>
		<path d="M204.1,127.9v-8.2h0.9c0.1,0,0.2,0,0.2,0.1c0.1,0,0.1,0.1,0.1,0.2l0.1,0.6c0.2-0.3,0.5-0.5,0.9-0.7
			c0.3-0.2,0.7-0.3,1.1-0.3c0.3,0,0.6,0.1,0.9,0.2c0.3,0.1,0.5,0.3,0.7,0.6c0.2,0.3,0.4,0.6,0.5,1c0.1,0.4,0.2,0.8,0.2,1.3
			c0,0.5-0.1,0.9-0.2,1.3c-0.1,0.4-0.3,0.7-0.5,1s-0.5,0.5-0.8,0.7c-0.3,0.2-0.7,0.2-1.1,0.2c-0.3,0-0.6-0.1-0.9-0.2
			c-0.2-0.1-0.5-0.3-0.7-0.4v2.5H204.1z M207,120.8c-0.3,0-0.6,0.1-0.8,0.2c-0.2,0.1-0.4,0.3-0.6,0.5v2.8c0.2,0.2,0.4,0.4,0.5,0.4
			c0.2,0.1,0.4,0.1,0.6,0.1c0.2,0,0.4,0,0.6-0.1c0.2-0.1,0.3-0.2,0.5-0.4s0.2-0.4,0.3-0.7c0.1-0.3,0.1-0.6,0.1-0.9
			c0-0.4,0-0.7-0.1-0.9s-0.1-0.5-0.2-0.6c-0.1-0.2-0.2-0.3-0.4-0.3C207.3,120.9,207.2,120.8,207,120.8z"/>
		<path d="M212.9,126c-0.5,0-0.9-0.2-1.2-0.5c-0.3-0.3-0.4-0.7-0.4-1.3v-3.4h-0.6c-0.1,0-0.1,0-0.2-0.1c-0.1-0.1-0.1-0.1-0.1-0.2
			V120l1-0.2l0.3-1.7c0-0.1,0.1-0.1,0.1-0.2s0.1-0.1,0.2-0.1h0.8v1.9h1.6v1.1h-1.6v3.3c0,0.2,0,0.3,0.1,0.5c0.1,0.1,0.2,0.2,0.4,0.2
			c0.1,0,0.2,0,0.2,0s0.1,0,0.2-0.1c0,0,0.1,0,0.1-0.1c0,0,0.1,0,0.1,0c0,0,0.1,0,0.1,0s0.1,0.1,0.1,0.1l0.4,0.7
			c-0.2,0.2-0.5,0.3-0.7,0.4C213.5,126,213.2,126,212.9,126z"/>
		<path d="M217.3,118c0,0.1,0,0.2-0.1,0.4c-0.1,0.1-0.1,0.2-0.2,0.3c-0.1,0.1-0.2,0.2-0.3,0.2c-0.1,0.1-0.2,0.1-0.4,0.1
			c-0.1,0-0.2,0-0.4-0.1c-0.1,0-0.2-0.1-0.3-0.2s-0.2-0.2-0.2-0.3c-0.1-0.1-0.1-0.2-0.1-0.4c0-0.1,0-0.3,0.1-0.4
			c0-0.1,0.1-0.2,0.2-0.3s0.2-0.2,0.3-0.2c0.1,0,0.2-0.1,0.4-0.1c0.1,0,0.3,0,0.4,0.1c0.1,0.1,0.2,0.1,0.3,0.2
			c0.1,0.1,0.2,0.2,0.2,0.3C217.3,117.7,217.3,117.8,217.3,118z M217.1,119.8v6.2h-1.5v-6.2H217.1z"/>
		<path d="M221.4,119.7c0.5,0,0.9,0.1,1.3,0.2s0.7,0.4,1,0.6s0.5,0.6,0.6,1s0.2,0.8,0.2,1.3c0,0.5-0.1,0.9-0.2,1.3s-0.3,0.7-0.6,1
			s-0.6,0.5-1,0.6s-0.8,0.2-1.3,0.2s-0.9-0.1-1.3-0.2s-0.7-0.4-1-0.6c-0.3-0.3-0.5-0.6-0.6-1s-0.2-0.8-0.2-1.3
			c0-0.5,0.1-0.9,0.2-1.3s0.4-0.7,0.6-1c0.3-0.3,0.6-0.5,1-0.6S220.9,119.7,221.4,119.7z M221.4,124.9c0.5,0,0.9-0.2,1.1-0.5
			c0.2-0.3,0.4-0.8,0.4-1.5c0-0.7-0.1-1.2-0.4-1.5c-0.2-0.3-0.6-0.5-1.1-0.5c-0.5,0-0.9,0.2-1.2,0.5c-0.2,0.3-0.4,0.9-0.4,1.5
			c0,0.7,0.1,1.2,0.4,1.5C220.5,124.7,220.9,124.9,221.4,124.9z"/>
		<path d="M225.6,125.9v-6.2h0.9c0.2,0,0.3,0.1,0.4,0.3l0.1,0.5c0.1-0.1,0.3-0.2,0.4-0.3s0.3-0.2,0.4-0.3c0.2-0.1,0.3-0.1,0.5-0.2
			c0.2,0,0.4-0.1,0.6-0.1c0.3,0,0.6,0.1,0.9,0.2c0.3,0.1,0.5,0.3,0.7,0.5s0.3,0.5,0.4,0.7c0.1,0.3,0.1,0.6,0.1,0.9v3.9h-1.5V122
			c0-0.4-0.1-0.7-0.3-0.9c-0.2-0.2-0.4-0.3-0.8-0.3c-0.3,0-0.5,0.1-0.7,0.2c-0.2,0.1-0.4,0.3-0.6,0.5v4.5H225.6z"/>
		<path d="M232.4,125.9v-6.2h0.9c0.2,0,0.3,0.1,0.4,0.3l0.1,0.5c0.1-0.1,0.3-0.2,0.4-0.3c0.1-0.1,0.3-0.2,0.4-0.3
			c0.2-0.1,0.3-0.1,0.5-0.2s0.4-0.1,0.6-0.1c0.3,0,0.6,0.1,0.9,0.2c0.3,0.1,0.5,0.3,0.7,0.5s0.3,0.5,0.4,0.7
			c0.1,0.3,0.1,0.6,0.1,0.9v3.9h-1.5V122c0-0.4-0.1-0.7-0.3-0.9c-0.2-0.2-0.4-0.3-0.8-0.3c-0.3,0-0.5,0.1-0.7,0.2
			c-0.2,0.1-0.4,0.3-0.6,0.5v4.5H232.4z"/>
		<path d="M241.8,119.7c0.4,0,0.7,0.1,1.1,0.2c0.3,0.1,0.6,0.3,0.8,0.5s0.4,0.5,0.6,0.9s0.2,0.7,0.2,1.2c0,0.1,0,0.2,0,0.3
			c0,0.1,0,0.1-0.1,0.2c0,0-0.1,0.1-0.1,0.1c0,0-0.1,0-0.2,0h-3.8c0,0.6,0.2,1.1,0.5,1.4c0.3,0.3,0.7,0.4,1.2,0.4
			c0.2,0,0.4,0,0.6-0.1c0.2-0.1,0.3-0.1,0.5-0.2c0.1-0.1,0.2-0.1,0.3-0.2c0.1-0.1,0.2-0.1,0.3-0.1c0.1,0,0.1,0,0.2,0
			c0,0,0.1,0.1,0.1,0.1l0.4,0.5c-0.2,0.2-0.3,0.4-0.6,0.5c-0.2,0.1-0.4,0.2-0.6,0.3s-0.4,0.1-0.7,0.2c-0.2,0-0.5,0-0.7,0
			c-0.4,0-0.8-0.1-1.2-0.2s-0.7-0.4-1-0.6s-0.5-0.6-0.6-1c-0.2-0.4-0.2-0.9-0.2-1.4c0-0.4,0.1-0.8,0.2-1.2c0.1-0.4,0.3-0.7,0.6-1
			s0.6-0.5,0.9-0.7C240.9,119.8,241.3,119.7,241.8,119.7z M241.8,120.7c-0.4,0-0.8,0.1-1,0.4c-0.2,0.2-0.4,0.6-0.5,1h2.8
			c0-0.2,0-0.4-0.1-0.5c-0.1-0.2-0.1-0.3-0.2-0.4c-0.1-0.1-0.2-0.2-0.4-0.3C242.2,120.8,242,120.7,241.8,120.7z"/>
		<path d="M247.2,117v8.9h-1.5V117H247.2z"/>
		<path d="M255.6,125.9c-0.2,0-0.3-0.1-0.4-0.3l-0.1-0.6c-0.1,0.1-0.3,0.3-0.4,0.4c-0.1,0.1-0.3,0.2-0.5,0.3s-0.3,0.1-0.5,0.2
			s-0.4,0.1-0.6,0.1c-0.3,0-0.6-0.1-0.9-0.2c-0.3-0.1-0.5-0.3-0.7-0.6s-0.4-0.6-0.5-1c-0.1-0.4-0.2-0.8-0.2-1.3
			c0-0.5,0.1-0.9,0.2-1.3s0.3-0.7,0.5-1s0.5-0.5,0.8-0.7c0.3-0.2,0.7-0.2,1.1-0.2c0.3,0,0.6,0.1,0.9,0.2s0.5,0.3,0.7,0.4V117h1.5
			v8.9H255.6z M253.6,124.8c0.3,0,0.6-0.1,0.8-0.2c0.2-0.1,0.4-0.3,0.6-0.5v-2.8c-0.2-0.2-0.4-0.3-0.5-0.4c-0.2-0.1-0.4-0.1-0.6-0.1
			c-0.2,0-0.4,0-0.6,0.1s-0.3,0.2-0.5,0.4c-0.1,0.2-0.2,0.4-0.3,0.6c-0.1,0.3-0.1,0.6-0.1,0.9c0,0.4,0,0.7,0.1,0.9
			c0.1,0.2,0.1,0.5,0.2,0.6c0.1,0.2,0.2,0.3,0.4,0.3S253.4,124.8,253.6,124.8z"/>
		<path d="M260.6,119.7c0.4,0,0.7,0.1,1.1,0.2s0.6,0.3,0.8,0.5s0.4,0.5,0.6,0.9c0.1,0.3,0.2,0.7,0.2,1.2c0,0.1,0,0.2,0,0.3
			c0,0.1,0,0.1-0.1,0.2c0,0-0.1,0.1-0.1,0.1s-0.1,0-0.2,0h-3.8c0,0.6,0.2,1.1,0.5,1.4c0.3,0.3,0.7,0.4,1.2,0.4c0.2,0,0.4,0,0.6-0.1
			c0.2-0.1,0.3-0.1,0.5-0.2c0.1-0.1,0.2-0.1,0.3-0.2c0.1-0.1,0.2-0.1,0.3-0.1c0.1,0,0.1,0,0.2,0c0,0,0.1,0.1,0.1,0.1l0.4,0.5
			c-0.2,0.2-0.3,0.4-0.6,0.5c-0.2,0.1-0.4,0.2-0.6,0.3c-0.2,0.1-0.4,0.1-0.7,0.2c-0.2,0-0.5,0-0.7,0c-0.4,0-0.8-0.1-1.2-0.2
			s-0.7-0.4-1-0.6s-0.5-0.6-0.6-1c-0.2-0.4-0.2-0.9-0.2-1.4c0-0.4,0.1-0.8,0.2-1.2s0.3-0.7,0.6-1s0.6-0.5,0.9-0.7
			C259.7,119.8,260.1,119.7,260.6,119.7z M260.6,120.7c-0.4,0-0.8,0.1-1,0.4c-0.2,0.2-0.4,0.6-0.5,1h2.8c0-0.2,0-0.4-0.1-0.5
			s-0.1-0.3-0.2-0.4c-0.1-0.1-0.2-0.2-0.4-0.3C261,120.8,260.9,120.7,260.6,120.7z"/>
		<path d="M267.1,125.9v-5l-0.5-0.1c-0.1,0-0.2-0.1-0.3-0.1c-0.1-0.1-0.1-0.1-0.1-0.3v-0.6h0.9v-0.2c0-0.4,0.1-0.7,0.2-1
			c0.1-0.3,0.3-0.6,0.6-0.8c0.3-0.2,0.6-0.4,1-0.6c0.4-0.1,0.8-0.2,1.4-0.2c0.2,0,0.3,0,0.5,0s0.3,0,0.5,0.1l0,0.8
			c0,0.1-0.1,0.1-0.2,0.2s-0.2,0-0.3,0c-0.4,0-0.7,0-1,0.1c-0.3,0.1-0.5,0.2-0.6,0.3s-0.3,0.3-0.3,0.5s-0.1,0.4-0.1,0.7v0.1h3.8v6.1
			h-1.5v-5h-2.3v5H267.1z"/>
		<path d="M275.6,117v8.9h-1.5V117H275.6z"/>
		<path d="M279.1,118c0,0.1,0,0.2-0.1,0.4c-0.1,0.1-0.1,0.2-0.2,0.3s-0.2,0.2-0.3,0.2c-0.1,0.1-0.2,0.1-0.4,0.1
			c-0.1,0-0.2,0-0.4-0.1c-0.1,0-0.2-0.1-0.3-0.2s-0.2-0.2-0.2-0.3c0-0.1-0.1-0.2-0.1-0.4c0-0.1,0-0.3,0.1-0.4c0-0.1,0.1-0.2,0.2-0.3
			s0.2-0.2,0.3-0.2c0.1,0,0.2-0.1,0.4-0.1c0.1,0,0.3,0,0.4,0.1c0.1,0.1,0.2,0.1,0.3,0.2s0.2,0.2,0.2,0.3
			C279,117.7,279.1,117.8,279.1,118z M278.8,119.8v6.2h-1.5v-6.2H278.8z"/>
		<path d="M285.3,125.9h-0.7c-0.1,0-0.2,0-0.3-0.1s-0.1-0.1-0.2-0.3l-0.1-0.4c-0.2,0.1-0.3,0.3-0.5,0.4c-0.1,0.1-0.3,0.2-0.5,0.3
			c-0.2,0.1-0.3,0.1-0.5,0.2c-0.2,0-0.4,0.1-0.6,0.1c-0.3,0-0.5,0-0.7-0.1s-0.4-0.2-0.6-0.3c-0.2-0.1-0.3-0.3-0.4-0.5
			s-0.1-0.5-0.1-0.7c0-0.2,0.1-0.5,0.2-0.7c0.1-0.2,0.3-0.4,0.6-0.6c0.3-0.2,0.7-0.3,1.1-0.5c0.5-0.1,1.1-0.2,1.8-0.2v-0.4
			c0-0.4-0.1-0.7-0.3-0.9s-0.4-0.3-0.8-0.3c-0.2,0-0.4,0-0.6,0.1c-0.2,0.1-0.3,0.1-0.4,0.2c-0.1,0.1-0.2,0.1-0.3,0.2
			c-0.1,0.1-0.2,0.1-0.3,0.1c-0.1,0-0.2,0-0.3-0.1c-0.1-0.1-0.1-0.1-0.2-0.2l-0.3-0.5c0.7-0.6,1.6-1,2.6-1c0.4,0,0.7,0.1,1,0.2
			c0.3,0.1,0.5,0.3,0.7,0.5c0.2,0.2,0.3,0.5,0.4,0.8c0.1,0.3,0.2,0.6,0.2,1V125.9z M282.4,125c0.2,0,0.3,0,0.4,0s0.2-0.1,0.4-0.1
			s0.2-0.1,0.3-0.2c0.1-0.1,0.2-0.2,0.3-0.3v-1c-0.4,0-0.8,0-1.1,0.1c-0.3,0.1-0.5,0.1-0.7,0.2c-0.2,0.1-0.3,0.2-0.4,0.3
			c-0.1,0.1-0.1,0.2-0.1,0.4c0,0.3,0.1,0.4,0.2,0.6S282.2,125,282.4,125z"/>
		<path d="M288.4,117v8.9h-1.5V117H288.4z"/>
		<path d="M292.6,119.7c0.4,0,0.7,0.1,1.1,0.2c0.3,0.1,0.6,0.3,0.8,0.5s0.4,0.5,0.6,0.9s0.2,0.7,0.2,1.2c0,0.1,0,0.2,0,0.3
			c0,0.1,0,0.1-0.1,0.2c0,0-0.1,0.1-0.1,0.1c0,0-0.1,0-0.2,0h-3.8c0,0.6,0.2,1.1,0.5,1.4c0.3,0.3,0.7,0.4,1.2,0.4
			c0.2,0,0.4,0,0.6-0.1c0.2-0.1,0.3-0.1,0.5-0.2c0.1-0.1,0.2-0.1,0.3-0.2c0.1-0.1,0.2-0.1,0.3-0.1c0.1,0,0.1,0,0.2,0
			c0,0,0.1,0.1,0.1,0.1l0.4,0.5c-0.2,0.2-0.3,0.4-0.6,0.5c-0.2,0.1-0.4,0.2-0.6,0.3s-0.4,0.1-0.7,0.2c-0.2,0-0.5,0-0.7,0
			c-0.4,0-0.8-0.1-1.2-0.2s-0.7-0.4-1-0.6s-0.5-0.6-0.6-1c-0.2-0.4-0.2-0.9-0.2-1.4c0-0.4,0.1-0.8,0.2-1.2c0.1-0.4,0.3-0.7,0.6-1
			s0.6-0.5,0.9-0.7C291.7,119.8,292.1,119.7,292.6,119.7z M292.6,120.7c-0.4,0-0.8,0.1-1,0.4c-0.2,0.2-0.4,0.6-0.5,1h2.8
			c0-0.2,0-0.4-0.1-0.5c-0.1-0.2-0.1-0.3-0.2-0.4c-0.1-0.1-0.2-0.2-0.4-0.3C293,120.8,292.8,120.7,292.6,120.7z"/>
	</g>
</g>
</svg>
