<?xml version="1.0" encoding="utf-8"?>
<!-- Generator: Adobe Illustrator 21.1.0, SVG Export Plug-In . SVG Version: 6.00 Build 0)  -->
<svg version="1.1" id="Calque_1" xmlns="http://www.w3.org/2000/svg" xmlns:xlink="http://www.w3.org/1999/xlink" x="0px" y="0px"
	 viewBox="0 0 964.3 785.7" style="enable-background:new 0 0 964.3 785.7;" xml:space="preserve">
<style type="text/css">
	.st0{fill:#333333;}
</style>
<path class="st0" d="M321.4,642.8c0-39-32.3-71.4-71.4-71.4s-71.4,32.4-71.4,71.4s32.4,71.4,71.4,71.4S321.4,681.9,321.4,642.8z
	 M107.2,357.1h214.2V214.2h-88.1c-2.3,0-10.6,3.4-12.3,5.1L112.2,328.1c-1.7,1.7-5,10-5,12.3V357.1z M821.4,642.8
	c0-39-32.3-71.4-71.4-71.4s-71.4,32.4-71.4,71.4s32.4,71.4,71.4,71.4S821.4,681.9,821.4,642.8z M964.3,35.7v571.4
	c0,41.3-43.5,35.7-71.4,35.7c0,78.7-64.2,142.9-142.9,142.9s-142.8-64.2-142.8-142.9H392.9c0,78.7-64.2,142.9-142.9,142.9
	s-142.8-64.2-142.8-142.9H71.4c-27.9,0-71.4,5.6-71.4-35.7c0-19.5,16.2-35.7,35.7-35.7V392.8c0-39.6-5.6-83.7,25.1-114.4
	l110.5-110.5c14-13.9,40.8-25.1,60.9-25.1h89.2V35.7c0-19.6,16.2-35.7,35.8-35.7h571.4C948.1,0,964.3,16.1,964.3,35.7L964.3,35.7z"
	/>
</svg>
