<?xml version="1.0" encoding="utf-8"?>
<!-- Generator: Adobe Illustrator 21.1.0, SVG Export Plug-In . SVG Version: 6.00 Build 0)  -->
<svg version="1.1" id="Calque_1" xmlns="http://www.w3.org/2000/svg" xmlns:xlink="http://www.w3.org/1999/xlink" x="0px" y="0px"
	 viewBox="0 0 500 500" style="enable-background:new 0 0 500 500;" xml:space="preserve">
<style type="text/css">
	.st0{fill:#FFFFFF;}
	.st1{fill:#487BD4;}
</style>
<circle class="st0" cx="250" cy="250" r="250"/>
<g>
	<path class="st1" d="M175.2,229.3c5.3-7.5,7.9-14.7,7.9-21.8c0-7-2.3-12.8-6.9-17.5c-4.6-4.7-10.5-7-17.7-7
		c-13.2,0-25.7,9.4-37.5,28.2L83.5,189c9.8-15.2,20.5-26.7,32.2-34.5c11.7-7.8,26.6-11.7,44.7-11.7c18.1,0,34,5.8,47.7,17.2
		c13.7,11.5,20.5,27.1,20.5,47c0,10.8-2.8,21.1-8.2,31c-5.5,9.9-15.7,22.6-30.5,38l-37.8,39.3H235v42H87.1v-34.8l61.5-63
		C161,246.8,169.8,236.8,175.2,229.3z"/>
	<path class="st1" d="M356.6,229.3c5.3-7.5,8-14.7,8-21.8c0-7-2.3-12.8-6.9-17.5c-4.6-4.7-10.5-7-17.7-7c-13.2,0-25.7,9.4-37.5,28.2
		L265,189c9.8-15.2,20.6-26.7,32.2-34.5c11.7-7.8,26.6-11.7,44.7-11.7c18.1,0,34,5.8,47.7,17.2c13.7,11.5,20.5,27.1,20.5,47
		c0,10.8-2.8,21.1-8.2,31c-5.5,9.9-15.7,22.6-30.5,38l-37.8,39.3h82.8v42H268.6v-34.8l61.5-63C342.5,246.8,351.3,236.8,356.6,229.3z
		"/>
</g>
<path d="M250,8c32.7,0,64.4,6.4,94.2,19c28.8,12.2,54.7,29.6,76.9,51.9s39.7,48.1,51.9,76.9c12.6,29.8,19,61.5,19,94.2
	s-6.4,64.4-19,94.2c-12.2,28.8-29.6,54.7-51.9,76.9S373,460.8,344.2,473c-29.8,12.6-61.5,19-94.2,19s-64.4-6.4-94.2-19
	c-28.8-12.2-54.7-29.6-76.9-51.9S39.2,373,27,344.2C14.4,314.4,8,282.7,8,250s6.4-64.4,19-94.2c12.2-28.8,29.6-54.7,51.9-76.9
	S127,39.2,155.8,27C185.6,14.4,217.3,8,250,8 M250,0C111.9,0,0,111.9,0,250s111.9,250,250,250s250-111.9,250-250S388.1,0,250,0
	L250,0z"/>
</svg>
