<?xml version="1.0" encoding="utf-8"?>
<!-- Generator: Adobe Illustrator 22.0.1, SVG Export Plug-In . SVG Version: 6.00 Build 0)  -->
<svg version="1.1" id="Capa_1" xmlns="http://www.w3.org/2000/svg" xmlns:xlink="http://www.w3.org/1999/xlink" x="0px" y="0px"
	 viewBox="0 0 350 350" style="enable-background:new 0 0 350 350;" xml:space="preserve">
<style type="text/css">
	.st0{fill:#D2FFA6;}
</style>
<g>
	<path class="st0" d="M175,171.8c32.5,0,58.8-32,58.8-71.4c0-39.4-8.6-71.4-58.8-71.4s-58.8,32-58.8,71.4
		C116.2,139.9,142.5,171.8,175,171.8z"/>
	<path class="st0" d="M64,280.8C64,278.4,64,280.1,64,280.8L64,280.8z"/>
	<path class="st0" d="M286,282.7C286,282,286,278.1,286,282.7L286,282.7z"/>
	<path class="st0" d="M285.9,277.9c-1.1-68.7-10.1-88.2-78.7-100.6c0,0-9.7,12.3-32.2,12.3s-32.2-12.3-32.2-12.3
		c-67.9,12.3-77.4,31.5-78.6,98.4c-0.1,5.5-0.2,5.7-0.2,5.1c0,1.2,0,3.4,0,7.2c0,0,16.3,32.9,111,32.9c94.6,0,111-32.9,111-32.9
		c0-2.5,0-4.2,0-5.3C286,283.1,285.9,282.3,285.9,277.9z"/>
</g>
</svg>
