<?xml version="1.0" encoding="utf-8"?>
<!-- Generator: Adobe Illustrator 22.0.1, SVG Export Plug-In . SVG Version: 6.00 Build 0)  -->
<svg version="1.1" id="Calque_1" xmlns="http://www.w3.org/2000/svg" xmlns:xlink="http://www.w3.org/1999/xlink" x="0px" y="0px"
	 viewBox="0 0 1093.5 292" style="enable-background:new 0 0 1093.5 292;" xml:space="preserve">
<style type="text/css">
	.st0{fill:url(#SVGID_1_);}
	.st1{fill:url(#SVGID_2_);}
	.st2{opacity:0.8;}
	.st3{fill:#FFFFFF;}
	.st4{fill:#333333;}
	.st5{fill:#3A3A3A;}
</style>
<g>
	
		<linearGradient id="SVGID_1_" gradientUnits="userSpaceOnUse" x1="142.5" y1="1022" x2="142.5" y2="730" gradientTransform="matrix(-1 0 0 1 690 -730)">
		<stop  offset="0" style="stop-color:#BBBBBB"/>
		<stop  offset="1" style="stop-color:#DCDCDC"/>
	</linearGradient>
	<path class="st0" d="M25.8,282c-8,0-15-7-15-15V25c0-8,7-15,15-15h1043.5c8,0,15,7,15,15v242c0,8-7,15-15,15H25.8z M1069.2,292
		c14,0,25-11,25-25V25c0-14-11-25-25-25H25.8c-14,0-25,11-25,25v242c0,14,11,25,25,25H1069.2z"/>
</g>
<linearGradient id="SVGID_2_" gradientUnits="userSpaceOnUse" x1="142.45" y1="12" x2="142.45" y2="284" gradientTransform="matrix(-1 0 0 -1 690 294)">
	<stop  offset="0" style="stop-color:#E8E8E8"/>
	<stop  offset="1" style="stop-color:#F9F9F9"/>
</linearGradient>
<path class="st1" d="M25.8,282c-8,0-15-7-15-15V25c0-8,7-15,15-15h1043.5c8,0,15,7,15,15v242c0,8-7,15-15,15H25.8z"/>
<g>
	<g>
		<g class="st2">
			<g>
				<path class="st3" d="M338.9,179.8c1,0,1.9,0.4,2.7,1.2l7.4,8c-4.1,5.1-9.2,9-15.2,11.7s-13.2,4.1-21.6,4.1
					c-7.5,0-14.3-1.3-20.3-3.9c-6-2.6-11.1-6.1-15.4-10.7c-4.2-4.6-7.5-10-9.8-16.4c-2.3-6.3-3.4-13.3-3.4-20.8
					c0-7.6,1.3-14.6,3.8-20.9c2.5-6.3,6.1-11.8,10.6-16.3c4.6-4.6,10-8.1,16.4-10.7c6.4-2.5,13.4-3.8,21.1-3.8
					c7.5,0,14.1,1.2,19.7,3.6s10.4,5.6,14.5,9.6l-6.3,8.8c-0.4,0.6-0.9,1.1-1.4,1.5c-0.6,0.4-1.4,0.6-2.4,0.6
					c-1.1,0-2.2-0.4-3.3-1.3c-1.1-0.8-2.5-1.8-4.3-2.7c-1.7-1-3.9-1.9-6.5-2.7c-2.6-0.8-6-1.3-10-1.3c-4.8,0-9.1,0.8-13.1,2.5
					s-7.4,4-10.3,7.1c-2.9,3.1-5.1,6.8-6.7,11.2s-2.4,9.4-2.4,14.9c0,5.7,0.8,10.8,2.4,15.2s3.8,8.2,6.5,11.2c2.8,3,6,5.4,9.7,7
					s7.7,2.4,12,2.4c2.6,0,4.9-0.1,7-0.4c2.1-0.3,4-0.7,5.7-1.3s3.4-1.4,5-2.3c1.6-1,3.1-2.1,4.7-3.5c0.5-0.4,1-0.8,1.5-1
					C337.7,179.9,338.3,179.8,338.9,179.8z"/>
				<path class="st3" d="M362.2,203.6v-104h17.3v40c2.8-2.7,5.9-4.8,9.2-6.4c3.4-1.6,7.3-2.4,11.8-2.4c3.9,0,7.4,0.7,10.4,2
					s5.6,3.2,7.6,5.6c2,2.4,3.6,5.3,4.6,8.6s1.6,7,1.6,11v45.7h-17.3V158c0-4.4-1-7.8-3-10.2s-5.1-3.6-9.1-3.6c-3,0-5.8,0.7-8.4,2
					c-2.6,1.4-5.1,3.2-7.4,5.5v51.9L362.2,203.6L362.2,203.6z"/>
				<path class="st3" d="M441.8,203.6v-71.8H452c1.8,0,3,0.3,3.7,1s1.2,1.8,1.4,3.4l1.1,8.7c2.6-4.4,5.6-7.9,9-10.5
					c3.5-2.6,7.3-3.9,11.6-3.9c3.5,0,6.5,0.8,8.8,2.4l-2.2,13c-0.1,0.8-0.4,1.4-0.9,1.8c-0.5,0.3-1.1,0.5-1.9,0.5
					c-0.7,0-1.7-0.2-2.9-0.5c-1.2-0.3-2.8-0.5-4.8-0.5c-3.6,0-6.7,1-9.2,3c-2.6,2-4.7,4.9-6.5,8.7v44.7L441.8,203.6L441.8,203.6z"/>
				<path class="st3" d="M529.6,130.7c5.4,0,10.2,0.9,14.6,2.6c4.4,1.7,8.1,4.2,11.2,7.4c3.1,3.2,5.5,7,7.1,11.6
					c1.7,4.6,2.5,9.7,2.5,15.3c0,5.7-0.8,10.8-2.5,15.4c-1.7,4.6-4.1,8.5-7.1,11.7s-6.8,5.7-11.2,7.4s-9.2,2.6-14.6,2.6
					c-5.4,0-10.2-0.9-14.6-2.6s-8.1-4.2-11.2-7.4s-5.5-7.1-7.2-11.7c-1.7-4.6-2.6-9.7-2.6-15.4c0-5.6,0.9-10.8,2.6-15.3
					c1.7-4.6,4.1-8.4,7.2-11.6c3.1-3.2,6.8-5.6,11.2-7.4C519.4,131.6,524.3,130.7,529.6,130.7z M529.6,191.4c6,0,10.4-2,13.3-6
					s4.3-9.9,4.3-17.6c0-7.7-1.4-13.7-4.3-17.7c-2.9-4.1-7.3-6.1-13.3-6.1c-6.1,0-10.5,2-13.4,6.1s-4.3,10-4.3,17.7
					s1.4,13.6,4.3,17.6C519.1,189.4,523.6,191.4,529.6,191.4z"/>
				<path class="st3" d="M578.6,203.6v-71.8h10.6c2.2,0,3.7,1,4.4,3.1l1.2,5.7c1.4-1.5,3-2.8,4.6-4.1c1.6-1.2,3.3-2.3,5.1-3.1
					c1.8-0.9,3.7-1.6,5.8-2c2.1-0.5,4.3-0.7,6.7-0.7c3.9,0,7.4,0.7,10.4,2s5.6,3.2,7.6,5.6c2,2.4,3.6,5.3,4.6,8.6s1.6,7,1.6,11v45.7
					h-17.3v-45.7c0-4.4-1-7.8-3-10.2s-5.1-3.6-9.1-3.6c-3,0-5.8,0.7-8.4,2c-2.6,1.4-5.1,3.2-7.4,5.5v51.9h-17.4V203.6z"/>
				<path class="st3" d="M688.8,130.7c5.4,0,10.2,0.9,14.6,2.6c4.4,1.7,8.1,4.2,11.2,7.4c3.1,3.2,5.5,7,7.1,11.6
					c1.7,4.6,2.5,9.7,2.5,15.3c0,5.7-0.8,10.8-2.5,15.4c-1.7,4.6-4.1,8.5-7.1,11.7s-6.8,5.7-11.2,7.4s-9.2,2.6-14.6,2.6
					c-5.4,0-10.2-0.9-14.6-2.6s-8.1-4.2-11.2-7.4c-3.1-3.2-5.5-7.1-7.2-11.7c-1.7-4.6-2.6-9.7-2.6-15.4c0-5.6,0.9-10.8,2.6-15.3
					c1.7-4.6,4.1-8.4,7.2-11.6c3.1-3.2,6.8-5.6,11.2-7.4C678.6,131.6,683.4,130.7,688.8,130.7z M688.8,191.4c6,0,10.4-2,13.3-6
					s4.3-9.9,4.3-17.6c0-7.7-1.4-13.7-4.3-17.7c-2.9-4.1-7.3-6.1-13.3-6.1c-6.1,0-10.5,2-13.4,6.1s-4.3,10-4.3,17.7
					s1.4,13.6,4.3,17.6C678.3,189.4,682.7,191.4,688.8,191.4z"/>
				<path class="st3" d="M756.1,99.6v104h-17.3v-104C738.8,99.6,756.1,99.6,756.1,99.6z"/>
				<path class="st3" d="M806.3,130.7c5.4,0,10.2,0.9,14.6,2.6c4.4,1.7,8.1,4.2,11.2,7.4c3.1,3.2,5.5,7,7.1,11.6
					c1.7,4.6,2.5,9.7,2.5,15.3c0,5.7-0.8,10.8-2.5,15.4c-1.7,4.6-4.1,8.5-7.1,11.7s-6.8,5.7-11.2,7.4s-9.2,2.6-14.6,2.6
					c-5.4,0-10.2-0.9-14.6-2.6s-8.1-4.2-11.2-7.4c-3.1-3.2-5.5-7.1-7.2-11.7c-1.7-4.6-2.6-9.7-2.6-15.4c0-5.6,0.9-10.8,2.6-15.3
					c1.7-4.6,4.1-8.4,7.2-11.6c3.1-3.2,6.8-5.6,11.2-7.4C796.1,131.6,801,130.7,806.3,130.7z M806.3,191.4c6,0,10.4-2,13.3-6
					s4.3-9.9,4.3-17.6c0-7.7-1.4-13.7-4.3-17.7c-2.9-4.1-7.3-6.1-13.3-6.1c-6.1,0-10.5,2-13.4,6.1s-4.3,10-4.3,17.7
					s1.4,13.6,4.3,17.6C795.8,189.4,800.3,191.4,806.3,191.4z"/>
				<path class="st3" d="M880.1,130.6c3.1,0,6,0.3,8.7,0.9c2.7,0.6,5.2,1.6,7.4,2.8h20.6v6.4c0,1.1-0.3,1.9-0.8,2.5
					c-0.6,0.6-1.5,1-2.9,1.3l-6.4,1.2c0.5,1.2,0.8,2.5,1.1,3.9s0.4,2.8,0.4,4.3c0,3.5-0.7,6.8-2.1,9.6c-1.4,2.9-3.4,5.3-5.9,7.3
					s-5.5,3.6-8.9,4.7c-3.4,1.1-7.2,1.6-11.2,1.6c-2.7,0-5.3-0.3-7.9-0.8c-2.2,1.4-3.4,2.9-3.4,4.6c0,1.5,0.7,2.5,2,3.2
					s3.1,1.2,5.2,1.4c2.2,0.3,4.6,0.4,7.4,0.4c2.8,0,5.6,0.1,8.5,0.4c2.9,0.2,5.7,0.6,8.5,1.2c2.8,0.6,5.2,1.5,7.4,2.8
					s3.9,3,5.2,5.2s2,5,2,8.4c0,3.2-0.8,6.3-2.3,9.3c-1.6,3-3.8,5.7-6.8,8s-6.6,4.2-10.9,5.7c-4.3,1.4-9.2,2.1-14.7,2.1
					s-10.2-0.5-14.2-1.6s-7.3-2.5-10-4.2c-2.6-1.8-4.6-3.8-5.9-6.1c-1.3-2.3-2-4.7-2-7.1c0-3.4,1-6.2,3.1-8.5s4.9-4.1,8.5-5.5
					c-1.8-1-3.2-2.3-4.3-3.9c-1.1-1.6-1.6-3.8-1.6-6.4c0-1.1,0.2-2.2,0.6-3.3c0.4-1.1,0.9-2.3,1.7-3.4c0.8-1.1,1.7-2.2,2.9-3.2
					s2.5-1.9,4.1-2.7c-3.6-2-6.5-4.6-8.6-7.8c-2.1-3.3-3.1-7.1-3.1-11.5c0-3.5,0.7-6.8,2.1-9.6c1.4-2.9,3.4-5.3,5.9-7.4
					c2.5-2,5.6-3.6,9-4.7C872.2,131.1,876,130.6,880.1,130.6z M899.1,206.7c0-1.4-0.4-2.6-1.3-3.5c-0.8-0.9-2-1.6-3.4-2.1
					s-3.1-0.9-5.1-1.1c-1.9-0.2-4-0.4-6.2-0.4s-4.4,0-6.7,0s-4.5-0.3-6.7-0.8c-2,1.1-3.5,2.3-4.7,3.8s-1.8,3.2-1.8,5.1
					c0,1.3,0.3,2.4,0.9,3.5s1.6,2,3,2.8s3.2,1.4,5.4,1.9c2.2,0.4,4.9,0.7,8,0.7c3.2,0,6-0.3,8.3-0.8s4.3-1.2,5.8-2.1
					s2.6-1.9,3.3-3.1C898.7,209.4,899.1,208.1,899.1,206.7z M880.1,166c2.1,0,4-0.3,5.6-0.9c1.6-0.6,2.9-1.4,4-2.4s1.8-2.3,2.4-3.7
					c0.5-1.4,0.8-3,0.8-4.8c0-3.5-1.1-6.4-3.2-8.4c-2.1-2.1-5.3-3.1-9.6-3.1c-4.2,0-7.4,1-9.6,3.1c-2.1,2.1-3.2,4.9-3.2,8.4
					c0,1.7,0.3,3.2,0.8,4.7c0.5,1.4,1.3,2.7,2.4,3.7c1,1,2.4,1.9,4,2.4C876.2,165.7,878,166,880.1,166z"/>
				<path class="st3" d="M948.7,110.9c0,1.5-0.3,2.9-0.9,4.2c-0.6,1.3-1.4,2.4-2.4,3.4s-2.2,1.8-3.5,2.3c-1.4,0.6-2.8,0.9-4.3,0.9
					s-2.9-0.3-4.2-0.9s-2.5-1.4-3.5-2.3c-1-1-1.8-2.1-2.3-3.4c-0.6-1.3-0.9-2.7-0.9-4.2s0.3-3,0.9-4.3c0.6-1.4,1.4-2.5,2.3-3.5
					c1-1,2.1-1.8,3.5-2.3c1.3-0.6,2.7-0.9,4.2-0.9s3,0.3,4.3,0.9c1.4,0.6,2.5,1.4,3.5,2.3c1,1,1.8,2.1,2.4,3.5
					C948.4,107.9,948.7,109.3,948.7,110.9z M946.1,131.8v71.8h-17.3v-71.8H946.1z"/>
				<path class="st3" d="M995.3,130.7c4.5,0,8.7,0.7,12.5,2.2c3.8,1.4,7.1,3.6,9.8,6.3c2.8,2.8,4.9,6.2,6.4,10.2s2.3,8.6,2.3,13.8
					c0,1.3-0.1,2.4-0.2,3.3c-0.1,0.9-0.3,1.5-0.6,2c-0.3,0.5-0.7,0.8-1.2,1.1c-0.5,0.2-1.2,0.3-2,0.3H978c0.5,7.4,2.5,12.8,6,16.2
					c3.5,3.5,8,5.2,13.7,5.2c2.8,0,5.2-0.3,7.2-1s3.8-1.4,5.3-2.2s2.8-1.5,4-2.2c1.1-0.7,2.2-1,3.3-1c0.7,0,1.3,0.1,1.8,0.4
					c0.5,0.3,1,0.7,1.3,1.2l5,6.3c-1.9,2.2-4.1,4.1-6.4,5.6c-2.4,1.5-4.9,2.7-7.5,3.6c-2.6,0.9-5.2,1.6-7.9,1.9
					c-2.7,0.4-5.3,0.6-7.8,0.6c-5,0-9.6-0.8-13.9-2.5c-4.3-1.7-8-4.1-11.2-7.4c-3.2-3.2-5.7-7.3-7.5-12c-1.8-4.8-2.7-10.3-2.7-16.6
					c0-4.9,0.8-9.5,2.4-13.8c1.6-4.3,3.9-8.1,6.8-11.3c3-3.2,6.6-5.7,10.8-7.6C985.2,131.6,990,130.7,995.3,130.7z M995.7,143.1
					c-5,0-9,1.4-11.8,4.3c-2.8,2.8-4.7,6.9-5.5,12.1h32.5c0-2.2-0.3-4.4-0.9-6.3s-1.5-3.7-2.8-5.2s-2.8-2.7-4.8-3.5
					C1000.5,143.5,998.3,143.1,995.7,143.1z"/>
			</g>
		</g>
		<g>
			<g>
				<path class="st4" d="M328.9,169.8c1,0,1.9,0.4,2.7,1.2l7.4,8c-4.1,5.1-9.2,9-15.2,11.7s-13.2,4.1-21.6,4.1
					c-7.5,0-14.3-1.3-20.3-3.9c-6-2.6-11.1-6.1-15.4-10.7c-4.2-4.6-7.5-10-9.8-16.4c-2.3-6.3-3.4-13.3-3.4-20.8
					c0-7.6,1.3-14.6,3.8-20.9c2.5-6.3,6.1-11.8,10.6-16.3c4.6-4.6,10-8.1,16.4-10.7c6.4-2.5,13.4-3.8,21.1-3.8
					c7.5,0,14.1,1.2,19.7,3.6s10.4,5.6,14.5,9.6l-6.3,8.8c-0.4,0.6-0.9,1.1-1.4,1.5c-0.6,0.4-1.4,0.6-2.4,0.6
					c-1.1,0-2.2-0.4-3.3-1.3c-1.1-0.8-2.5-1.8-4.3-2.7c-1.7-1-3.9-1.9-6.5-2.7c-2.6-0.8-6-1.3-10-1.3c-4.8,0-9.1,0.8-13.1,2.5
					s-7.4,4-10.3,7.1s-5.1,6.8-6.7,11.2s-2.4,9.4-2.4,14.9c0,5.7,0.8,10.8,2.4,15.2s3.8,8.2,6.5,11.2c2.8,3,6,5.4,9.7,7
					s7.7,2.4,12,2.4c2.6,0,4.9-0.1,7-0.4c2.1-0.3,4-0.7,5.7-1.3s3.4-1.4,5-2.3c1.6-1,3.1-2.1,4.7-3.5c0.5-0.4,1-0.8,1.5-1
					C327.7,169.9,328.3,169.8,328.9,169.8z"/>
				<path class="st4" d="M352.2,193.6v-104h17.3v40c2.8-2.7,5.9-4.8,9.2-6.4c3.4-1.6,7.3-2.4,11.8-2.4c3.9,0,7.4,0.7,10.4,2
					s5.6,3.2,7.6,5.6c2,2.4,3.6,5.3,4.6,8.6s1.6,7,1.6,11v45.7h-17.3V148c0-4.4-1-7.8-3-10.2s-5.1-3.6-9.1-3.6c-3,0-5.8,0.7-8.4,2
					c-2.6,1.4-5.1,3.2-7.4,5.5v51.9H352.2z"/>
				<path class="st4" d="M431.8,193.6v-71.8h10.1c1.8,0,3,0.3,3.7,1s1.2,1.8,1.4,3.4l1.1,8.7c2.6-4.4,5.6-7.9,9-10.5
					c3.5-2.6,7.3-3.9,11.6-3.9c3.5,0,6.5,0.8,8.8,2.4l-2.2,13c-0.1,0.8-0.4,1.4-0.9,1.8c-0.5,0.3-1.1,0.5-1.9,0.5
					c-0.7,0-1.7-0.2-2.9-0.5c-1.2-0.3-2.8-0.5-4.8-0.5c-3.6,0-6.7,1-9.2,3c-2.6,2-4.7,4.9-6.5,8.7v44.7H431.8z"/>
				<path class="st4" d="M519.6,120.7c5.4,0,10.2,0.9,14.6,2.6c4.4,1.7,8.1,4.2,11.2,7.4c3.1,3.2,5.5,7,7.1,11.6
					c1.7,4.6,2.5,9.7,2.5,15.3c0,5.7-0.8,10.8-2.5,15.4c-1.7,4.6-4.1,8.5-7.1,11.7s-6.8,5.7-11.2,7.4s-9.2,2.6-14.6,2.6
					c-5.4,0-10.2-0.9-14.6-2.6s-8.1-4.2-11.2-7.4s-5.5-7.1-7.2-11.7c-1.7-4.6-2.6-9.7-2.6-15.4c0-5.6,0.9-10.8,2.6-15.3
					c1.7-4.6,4.1-8.4,7.2-11.6c3.1-3.2,6.8-5.6,11.2-7.4C509.4,121.6,514.3,120.7,519.6,120.7z M519.6,181.4c6,0,10.4-2,13.3-6
					s4.3-9.9,4.3-17.6c0-7.7-1.4-13.6-4.3-17.7s-7.3-6.1-13.3-6.1c-6.1,0-10.5,2-13.4,6.1s-4.3,10-4.3,17.7s1.4,13.6,4.3,17.6
					C509.1,179.4,513.6,181.4,519.6,181.4z"/>
				<path class="st4" d="M568.6,193.6v-71.8h10.6c2.2,0,3.7,1,4.4,3.1l1.2,5.7c1.4-1.5,3-2.8,4.6-4.1c1.6-1.2,3.3-2.3,5.1-3.1
					c1.8-0.9,3.7-1.6,5.8-2c2.1-0.5,4.3-0.7,6.7-0.7c3.9,0,7.4,0.7,10.4,2s5.6,3.2,7.6,5.6c2,2.4,3.6,5.3,4.6,8.6s1.6,7,1.6,11v45.7
					h-17.3v-45.7c0-4.4-1-7.8-3-10.2s-5.1-3.6-9.1-3.6c-3,0-5.8,0.7-8.4,2c-2.6,1.4-5.1,3.2-7.4,5.5v51.9L568.6,193.6L568.6,193.6z"
					/>
				<path class="st4" d="M678.8,120.7c5.4,0,10.2,0.9,14.6,2.6c4.4,1.7,8.1,4.2,11.2,7.4c3.1,3.2,5.5,7,7.1,11.6
					c1.7,4.6,2.5,9.7,2.5,15.3c0,5.7-0.8,10.8-2.5,15.4c-1.7,4.6-4.1,8.5-7.1,11.7s-6.8,5.7-11.2,7.4s-9.2,2.6-14.6,2.6
					c-5.4,0-10.2-0.9-14.6-2.6s-8.1-4.2-11.2-7.4c-3.1-3.2-5.5-7.1-7.2-11.7c-1.7-4.6-2.6-9.7-2.6-15.4c0-5.6,0.9-10.8,2.6-15.3
					c1.7-4.6,4.1-8.4,7.2-11.6c3.1-3.2,6.8-5.6,11.2-7.4C668.6,121.6,673.4,120.7,678.8,120.7z M678.8,181.4c6,0,10.4-2,13.3-6
					s4.3-9.9,4.3-17.6c0-7.7-1.4-13.6-4.3-17.7s-7.3-6.1-13.3-6.1c-6.1,0-10.5,2-13.4,6.1s-4.3,10-4.3,17.7s1.4,13.6,4.3,17.6
					C668.3,179.4,672.7,181.4,678.8,181.4z"/>
				<path class="st4" d="M746.1,89.6v104h-17.3v-104C728.8,89.6,746.1,89.6,746.1,89.6z"/>
				<path class="st4" d="M796.3,120.7c5.4,0,10.2,0.9,14.6,2.6c4.4,1.7,8.1,4.2,11.2,7.4c3.1,3.2,5.5,7,7.1,11.6
					c1.7,4.6,2.5,9.7,2.5,15.3c0,5.7-0.8,10.8-2.5,15.4c-1.7,4.6-4.1,8.5-7.1,11.7s-6.8,5.7-11.2,7.4s-9.2,2.6-14.6,2.6
					c-5.4,0-10.2-0.9-14.6-2.6s-8.1-4.2-11.2-7.4c-3.1-3.2-5.5-7.1-7.2-11.7c-1.7-4.6-2.6-9.7-2.6-15.4c0-5.6,0.9-10.8,2.6-15.3
					c1.7-4.6,4.1-8.4,7.2-11.6c3.1-3.2,6.8-5.6,11.2-7.4C786.1,121.6,791,120.7,796.3,120.7z M796.3,181.4c6,0,10.4-2,13.3-6
					s4.3-9.9,4.3-17.6c0-7.7-1.4-13.6-4.3-17.7s-7.3-6.1-13.3-6.1c-6.1,0-10.5,2-13.4,6.1s-4.3,10-4.3,17.7s1.4,13.6,4.3,17.6
					C785.8,179.4,790.3,181.4,796.3,181.4z"/>
				<path class="st4" d="M870.1,120.6c3.1,0,6,0.3,8.7,0.9s5.2,1.6,7.4,2.8h20.6v6.4c0,1.1-0.3,1.9-0.8,2.5c-0.6,0.6-1.5,1-2.9,1.3
					l-6.4,1.2c0.5,1.2,0.8,2.5,1.1,3.9s0.4,2.8,0.4,4.3c0,3.5-0.7,6.8-2.1,9.6c-1.4,2.9-3.4,5.3-5.9,7.3s-5.5,3.6-8.9,4.7
					c-3.4,1.1-7.2,1.6-11.2,1.6c-2.7,0-5.3-0.3-7.9-0.8c-2.2,1.4-3.4,2.9-3.4,4.6c0,1.5,0.7,2.5,2,3.2s3.1,1.2,5.2,1.4
					c2.2,0.3,4.6,0.4,7.4,0.4c2.8,0,5.6,0.1,8.5,0.4c2.9,0.2,5.7,0.6,8.5,1.2c2.8,0.6,5.2,1.5,7.4,2.8s3.9,3,5.2,5.2s2,5,2,8.4
					c0,3.2-0.8,6.3-2.3,9.3c-1.6,3-3.8,5.7-6.8,8s-6.6,4.2-10.9,5.7c-4.3,1.4-9.2,2.1-14.7,2.1s-10.2-0.5-14.2-1.6s-7.3-2.5-10-4.2
					c-2.6-1.8-4.6-3.8-5.9-6.1c-1.3-2.3-2-4.7-2-7.1c0-3.4,1-6.2,3.1-8.5s4.9-4.1,8.5-5.5c-1.8-1-3.2-2.3-4.3-3.9
					c-1.1-1.6-1.6-3.8-1.6-6.4c0-1.1,0.2-2.2,0.6-3.3c0.4-1.1,0.9-2.3,1.7-3.4c0.8-1.1,1.7-2.2,2.9-3.2s2.5-1.9,4.1-2.7
					c-3.6-2-6.5-4.6-8.6-7.8c-2.1-3.3-3.1-7.1-3.1-11.5c0-3.5,0.7-6.8,2.1-9.6c1.4-2.9,3.4-5.3,5.9-7.4c2.5-2,5.6-3.6,9-4.7
					C862.2,121.1,866,120.6,870.1,120.6z M889.1,196.7c0-1.4-0.4-2.6-1.3-3.5c-0.8-0.9-2-1.6-3.4-2.1s-3.1-0.9-5.1-1.1
					c-1.9-0.2-4-0.4-6.2-0.4s-4.4,0-6.7,0s-4.5-0.3-6.7-0.8c-2,1.1-3.5,2.3-4.7,3.8s-1.8,3.2-1.8,5.1c0,1.3,0.3,2.4,0.9,3.5
					s1.6,2,3,2.8s3.2,1.4,5.4,1.9c2.2,0.4,4.9,0.7,8,0.7c3.2,0,6-0.3,8.3-0.8s4.3-1.2,5.8-2.1s2.6-1.9,3.3-3.1
					C888.7,199.4,889.1,198.1,889.1,196.7z M870.1,156c2.1,0,4-0.3,5.6-0.9c1.6-0.6,2.9-1.4,4-2.4s1.8-2.3,2.4-3.7
					c0.5-1.4,0.8-3,0.8-4.8c0-3.5-1.1-6.4-3.2-8.4c-2.1-2.1-5.3-3.1-9.6-3.1c-4.2,0-7.4,1-9.6,3.1c-2.1,2.1-3.2,4.9-3.2,8.4
					c0,1.7,0.3,3.2,0.8,4.7c0.5,1.4,1.3,2.7,2.4,3.7c1,1,2.4,1.9,4,2.4C866.2,155.7,868,156,870.1,156z"/>
				<path class="st4" d="M938.7,100.9c0,1.5-0.3,2.9-0.9,4.2c-0.6,1.3-1.4,2.4-2.4,3.4s-2.2,1.8-3.5,2.3c-1.4,0.6-2.8,0.9-4.3,0.9
					s-2.9-0.3-4.2-0.9s-2.5-1.4-3.5-2.3c-1-1-1.8-2.1-2.3-3.4c-0.6-1.3-0.9-2.7-0.9-4.2s0.3-3,0.9-4.3c0.6-1.4,1.4-2.5,2.3-3.5
					c1-1,2.1-1.8,3.5-2.3c1.3-0.6,2.7-0.9,4.2-0.9s3,0.3,4.3,0.9c1.4,0.6,2.5,1.4,3.5,2.3c1,1,1.8,2.1,2.4,3.5
					C938.4,97.9,938.7,99.3,938.7,100.9z M936.1,121.8v71.8h-17.3v-71.8H936.1z"/>
				<path class="st4" d="M985.3,120.7c4.5,0,8.7,0.7,12.5,2.2c3.8,1.4,7.1,3.6,9.8,6.3c2.8,2.8,4.9,6.2,6.4,10.2s2.3,8.6,2.3,13.8
					c0,1.3-0.1,2.4-0.2,3.3c-0.1,0.9-0.3,1.5-0.6,2s-0.7,0.8-1.2,1.1c-0.5,0.2-1.2,0.3-2,0.3H968c0.5,7.4,2.5,12.8,6,16.2
					c3.5,3.5,8,5.2,13.7,5.2c2.8,0,5.2-0.3,7.2-1s3.8-1.4,5.3-2.2s2.8-1.5,4-2.2c1.1-0.7,2.2-1,3.3-1c0.7,0,1.3,0.1,1.8,0.4
					c0.5,0.3,1,0.7,1.3,1.2l5,6.3c-1.9,2.2-4.1,4.1-6.4,5.6c-2.4,1.5-4.9,2.7-7.5,3.6c-2.6,0.9-5.2,1.6-7.9,1.9
					c-2.7,0.4-5.3,0.6-7.8,0.6c-5,0-9.6-0.8-13.9-2.5c-4.3-1.7-8-4.1-11.2-7.4c-3.2-3.2-5.7-7.3-7.5-12c-1.8-4.8-2.7-10.3-2.7-16.6
					c0-4.9,0.8-9.5,2.4-13.8c1.6-4.3,3.9-8.1,6.8-11.3c3-3.2,6.6-5.7,10.8-7.6C975.2,121.6,980,120.7,985.3,120.7z M985.7,133.1
					c-5,0-9,1.4-11.8,4.3c-2.8,2.8-4.7,6.9-5.5,12.1h32.5c0-2.2-0.3-4.4-0.9-6.3c-0.6-2-1.5-3.7-2.8-5.2s-2.8-2.7-4.8-3.5
					C990.5,133.5,988.3,133.1,985.7,133.1z"/>
			</g>
		</g>
	</g>
	<path class="st5" d="M219.8,146c0,42.1-34.3,76.4-76.4,76.4c-22.8,0-44.3-10.1-58.8-27.6c-1-1.3-0.9-3.2,0.2-4.3l13.6-13.7
		c0.7-0.6,1.6-0.9,2.5-0.9c0.9,0.1,1.8,0.5,2.3,1.2c9.7,12.6,24.4,19.8,40.2,19.8c28,0,50.9-22.9,50.9-50.9s-22.9-50.9-50.9-50.9
		c-13,0-25.4,5-34.6,13.6l13.6,13.7c1.9,1.8,2.4,4.6,1.4,6.9c-1,2.4-3.3,4-5.9,4H73.4c-3.5,0-6.4-2.9-6.4-6.4V82.4
		c0-2.6,1.6-4.9,4-5.9c2.3-1,5.1-0.5,6.9,1.4l12.9,12.8c14-13.2,33-21.1,52.6-21.1C185.5,69.6,219.8,103.9,219.8,146L219.8,146z
		 M156.2,117.4V162c0,1.8-1.4,3.2-3.2,3.2h-31.8c-1.8,0-3.2-1.4-3.2-3.2v-6.4c0-1.8,1.4-3.2,3.2-3.2h22.3v-35c0-1.8,1.4-3.2,3.2-3.2
		h6.4C154.8,114.2,156.2,115.6,156.2,117.4L156.2,117.4z"/>
</g>
</svg>
