<?xml version="1.0" encoding="utf-8"?>
<!-- Generator: Adobe Illustrator 23.0.2, SVG Export Plug-In . SVG Version: 6.00 Build 0)  -->
<svg version="1.1" id="Calque_1" xmlns="http://www.w3.org/2000/svg" xmlns:xlink="http://www.w3.org/1999/xlink" x="0px" y="0px"
	 viewBox="0 0 895 292" style="enable-background:new 0 0 895 292;" xml:space="preserve">
<style type="text/css">
	.st0{fill:url(#SVGID_1_);}
	.st1{fill:url(#SVGID_2_);}
	.st2{opacity:0.8;}
	.st3{fill:#FFFFFF;}
	.st4{fill:#333333;}
</style>
<linearGradient id="SVGID_1_" gradientUnits="userSpaceOnUse" x1="449" y1="12" x2="449" y2="284" gradientTransform="matrix(1 0 0 -1 0 294)">
	<stop  offset="0" style="stop-color:#E8E8E8"/>
	<stop  offset="1" style="stop-color:#F9F9F9"/>
</linearGradient>
<path class="st0" d="M886.5,10v272h-860c-8,0-15-7-15-15V25c0-8,7-15,15-15H886.5z"/>
<linearGradient id="SVGID_2_" gradientUnits="userSpaceOnUse" x1="449" y1="2" x2="449" y2="294" gradientTransform="matrix(1 0 0 -1 0 294)">
	<stop  offset="0" style="stop-color:#BBBBBB"/>
	<stop  offset="1" style="stop-color:#DCDCDC"/>
</linearGradient>
<path class="st1" d="M886.5,10v272h-860c-8,0-15-7-15-15V25c0-8,7-15,15-15H886.5z M26.5,0c-14,0-25,11-25,25v242c0,14,11,25,25,25
	h870V0H26.5z"/>
<g>
	<g class="st2">
		<path class="st3" d="M196.9995117,180.9501953c1.0263672,0,1.9130859,0.3974609,2.6601562,1.1904297l7.4199219,8.0498047
			c-4.1069336,5.0869141-9.1591797,8.984375-15.1547852,11.6894531c-5.9970703,2.7070312-13.1953125,4.0605469-21.5952148,4.0605469
			c-7.5141602,0-14.269043-1.2832031-20.2646484-3.8505859c-5.9970703-2.5654297-11.1191406-6.1357422-15.3652344-10.7099609
			c-4.2470703-4.5722656-7.5019531-10.0322266-9.7651367-16.3798828
			c-2.2641602-6.3457031-3.3950195-13.2753906-3.3950195-20.7890625c0-7.6064453,1.2602539-14.5722656,3.7802734-20.8955078
			s6.065918-11.7705078,10.6396484-16.3447266c4.5732422-4.5732422,10.0454102-8.1308594,16.4150391-10.6757812
			c6.3701172-2.5429688,13.4052734-3.8144531,21.1049805-3.8144531c7.5131836,0,14.0810547,1.2011719,19.7050781,3.6054688
			c5.6230469,2.4033203,10.440918,5.5878906,14.4550781,9.5546875l-6.2998047,8.75
			c-0.3740234,0.5595703-0.8520508,1.0498047-1.4350586,1.4697266c-0.5839844,0.4199219-1.3891602,0.6298828-2.4150391,0.6298828
			c-1.0742188,0-2.1699219-0.4199219-3.2900391-1.2597656s-2.5439453-1.75-4.2700195-2.7304688
			c-1.7270508-0.9794922-3.9091797-1.8896484-6.5449219-2.7294922c-2.637207-0.8408203-5.9848633-1.2607422-10.0449219-1.2607422
			c-4.7602539,0-9.1352539,0.8300781-13.125,2.4853516c-3.9902344,1.6572266-7.4199219,4.0253906-10.2900391,7.1044922
			c-2.8701172,3.0800781-5.1098633,6.8261719-6.7202148,11.2363281c-1.6098633,4.4091797-2.4150391,9.3691406-2.4150391,14.875
			c0,5.6933594,0.8051758,10.7558594,2.4150391,15.1894531c1.6103516,4.4335938,3.7910156,8.1669922,6.5449219,11.1992188
			c2.7529297,3.0351562,5.9960938,5.3554688,9.7299805,6.9658203c3.7333984,1.6103516,7.7460938,2.4150391,12.0400391,2.4150391
			c2.565918,0,4.8881836-0.140625,6.965332-0.4199219c2.0756836-0.2802734,3.9897461-0.7236328,5.7397461-1.3300781
			s3.40625-1.3876953,4.9702148-2.3447266c1.5629883-0.9560547,3.1147461-2.1357422,4.6547852-3.5351562
			c0.4658203-0.4199219,0.9560547-0.7578125,1.4702148-1.015625
			C195.8325195,181.0791016,196.3925781,180.9501953,196.9995117,180.9501953z"/>
		<path class="st3" d="M250.9677734,131.8808594c5.3662109,0,10.230957,0.8632812,14.5952148,2.5898438
			c4.362793,1.7265625,8.0849609,4.1767578,11.1650391,7.3496094c3.0800781,3.1738281,5.4599609,7.046875,7.1396484,11.6201172
			c1.6801758,4.5732422,2.5200195,9.6845703,2.5200195,15.3300781c0,5.6943359-0.8398438,10.8271484-2.5200195,15.3994141
			c-1.6796875,4.5742188-4.0595703,8.4707031-7.1396484,11.6904297s-6.8022461,5.6943359-11.1650391,7.4199219
			c-4.3642578,1.7255859-9.2290039,2.5898438-14.5952148,2.5898438c-5.3666992,0-10.2441406-0.8642578-14.6298828-2.5898438
			c-4.387207-1.7255859-8.1318359-4.2001953-11.2348633-7.4199219c-3.1040039-3.2197266-5.5073242-7.1162109-7.2099609-11.6904297
			c-1.7041016-4.5722656-2.5551758-9.7050781-2.5551758-15.3994141c0-5.6455078,0.8510742-10.7568359,2.5551758-15.3300781
			c1.7026367-4.5732422,4.105957-8.4462891,7.2099609-11.6201172c3.1030273-3.1728516,6.8476562-5.6230469,11.2348633-7.3496094
			C240.7236328,132.7441406,245.6010742,131.8808594,250.9677734,131.8808594z M250.9677734,192.5703125
			c5.9731445,0,10.3950195-2.0058594,13.2651367-6.0195312s4.3051758-9.8935547,4.3051758-17.640625
			c0-7.7460938-1.4350586-13.6503906-4.3051758-17.7099609s-7.2919922-6.0898438-13.2651367-6.0898438
			c-6.0668945,0-10.546875,2.0419922-13.4399414,6.125c-2.894043,4.0839844-4.3398438,9.9755859-4.3398438,17.6748047
			c0,7.7001953,1.4458008,13.5693359,4.3398438,17.6054688
			C240.4208984,190.5527344,244.9008789,192.5703125,250.9677734,192.5703125z"/>
		<path class="st3" d="M299.8974609,204.8203125V133h10.5698242c2.2397461,0,3.7099609,1.0507812,4.4101562,3.1503906
			l1.1899414,5.6699219c1.4458008-1.4931641,2.9746094-2.8457031,4.5849609-4.0605469
			c1.6098633-1.2128906,3.3129883-2.2617188,5.1098633-3.1494141c1.7958984-0.8857422,3.7211914-1.5634766,5.7749023-2.0302734
			c2.0532227-0.4658203,4.2929688-0.6992188,6.7202148-0.6992188c3.9199219,0,7.3959961,0.6640625,10.4296875,1.9941406
			c3.0332031,1.3300781,5.5654297,3.1972656,7.5952148,5.5996094c2.0297852,2.4042969,3.5698242,5.2753906,4.6206055,8.6113281
			c1.0488281,3.3359375,1.5742188,7.0117188,1.5742188,11.0244141v45.7099609h-17.2900391v-45.7099609
			c0-4.3857422-1.0146484-7.7802734-3.0449219-10.1845703c-2.0297852-2.4033203-5.074707-3.6054688-9.1347656-3.6054688
			c-2.9873047,0-5.7871094,0.6777344-8.3999023,2.0292969c-2.6142578,1.3554688-5.0874023,3.1972656-7.4204102,5.53125v51.9394531
			H299.8974609z"/>
		<path class="st3" d="M382.5668945,204.8203125v-58.7998047l-6.2304688-0.9794922
			c-1.3535156-0.234375-2.4384766-0.7011719-3.2539062-1.4003906c-0.8173828-0.7001953-1.2255859-1.6796875-1.2255859-2.9404297
			v-7.0693359h10.7099609v-2.3105469c0-4.3857422,0.7226562-8.4580078,2.1699219-12.2148438
			c1.4453125-3.7558594,3.640625-7.0117188,6.5800781-9.765625c2.9394531-2.7519531,6.6503906-4.9101562,11.1308594-6.4746094
			c4.4785156-1.5625,9.7753906-2.3447266,15.8886719-2.3447266c1.9609375,0,3.9667969,0.1044922,6.0214844,0.3154297
			c2.0527344,0.2089844,3.8242188,0.5488281,5.3183594,1.0136719l-0.5585938,8.9609375
			c-0.09375,1.0742188-0.6777344,1.7148438-1.75,1.9248047c-1.0742188,0.2099609-2.4042969,0.3154297-3.9902344,0.3154297
			c-4.5273438,0-8.3203125,0.3964844-11.375,1.1894531c-3.0566406,0.7939453-5.53125,1.9726562-7.4199219,3.5351562
			c-1.890625,1.5644531-3.2441406,3.5234375-4.0605469,5.8798828s-1.2246094,5.0986328-1.2246094,8.2255859v1.75h44.5195312
			v71.1894531H426.527832v-58.8701172h-26.6699219v58.8701172H382.5668945z"/>
		<path class="st3" d="M488.4760742,131.7402344c3.0800781,0,5.9726562,0.3144531,8.6796875,0.9453125
			c2.7060547,0.6298828,5.1806641,1.5517578,7.4208984,2.7646484h20.6494141v6.4404297
			c0,1.0742188-0.2802734,1.9140625-0.8398438,2.5195312c-0.5595703,0.6074219-1.5166016,1.0273438-2.8701172,1.2597656
			l-6.4394531,1.1904297c0.4658203,1.2138672,0.8271484,2.4970703,1.0849609,3.8505859
			c0.2558594,1.3535156,0.3847656,2.7763672,0.3847656,4.2695312c0,3.546875-0.7119141,6.7548828-2.1347656,9.625
			c-1.4248047,2.8691406-3.3847656,5.3085938-5.8808594,7.3144531c-2.4960938,2.0078125-5.4599609,3.5595703-8.8896484,4.6552734
			c-3.4296875,1.0966797-7.1523438,1.6455078-11.1650391,1.6455078c-2.7070312,0-5.34375-0.2558594-7.9101562-0.7705078
			c-2.2392578,1.3642578-3.359375,2.8916016-3.359375,4.5830078c0,1.4580078,0.6650391,2.5273438,1.9951172,3.2089844
			c1.3291016,0.6816406,3.0791016,1.1630859,5.25,1.4453125c2.1699219,0.28125,4.6308594,0.4228516,7.3847656,0.4228516
			c2.7529297,0,5.5761719,0.1171875,8.4697266,0.3505859c2.8925781,0.234375,5.7158203,0.6445312,8.4697266,1.2294922
			c2.7529297,0.5859375,5.2158203,1.5097656,7.3857422,2.7744141c2.1699219,1.2636719,3.9199219,2.9853516,5.25,5.1621094
			s1.9941406,4.9746094,1.9941406,8.3916016c0,3.1835938-0.78125,6.2734375-2.3447266,9.2705078
			c-1.5634766,2.9960938-3.8271484,5.6640625-6.7900391,8.0058594c-2.9638672,2.3398438-6.5917969,4.2246094-10.8847656,5.6542969
			c-4.2939453,1.4267578-9.1943359,2.140625-14.7001953,2.140625c-5.4599609,0-10.1972656-0.5244141-14.2099609-1.5742188
			c-4.0136719-1.0507812-7.3388672-2.4501953-9.9746094-4.2001953c-2.6376953-1.75-4.609375-3.7695312-5.9150391-6.0546875
			c-1.3076172-2.2871094-1.9599609-4.6669922-1.9599609-7.140625c0-3.359375,1.0253906-6.1835938,3.0800781-8.4697266
			c2.0527344-2.2861328,4.8994141-4.1064453,8.5400391-5.4599609c-1.7744141-0.9804688-3.1972656-2.2861328-4.2705078-3.9199219
			c-1.0742188-1.6328125-1.609375-3.7558594-1.609375-6.3701172c0-1.0732422,0.1855469-2.1806641,0.5595703-3.3251953
			c0.3730469-1.1425781,0.9453125-2.2744141,1.7148438-3.3955078c0.7705078-1.1191406,1.7382812-2.1796875,2.9052734-3.1845703
			c1.1660156-1.0029297,2.5429688-1.9013672,4.1298828-2.6943359c-3.6396484-1.9609375-6.4990234-4.5732422-8.5751953-7.8398438
			c-2.0771484-3.2666016-3.1152344-7.09375-3.1152344-11.4804688c0-3.5458984,0.7109375-6.7558594,2.1357422-9.625
			c1.4228516-2.8701172,3.4052734-5.3203125,5.9492188-7.3496094c2.5429688-2.03125,5.5537109-3.5820312,9.0302734-4.65625
			C480.5776367,132.2773438,484.3696289,131.7402344,488.4760742,131.7402344z M507.4458008,207.8359375
			c0-1.4296875-0.4199219-2.5966797-1.2597656-3.5009766c-0.8398438-0.90625-1.9833984-1.6083984-3.4296875-2.109375
			c-1.4472656-0.5009766-3.1396484-0.8691406-5.0751953-1.1074219c-1.9365234-0.2382812-3.9902344-0.3574219-6.1601562-0.3574219
			s-4.4101562,0-6.7197266,0s-4.5390625-0.2568359-6.6845703-0.7705078
			c-1.9609375,1.0742188-3.5351562,2.3447266-4.7255859,3.8154297c-1.1894531,1.4697266-1.7851562,3.1601562-1.7851562,5.0742188
			c0,1.2607422,0.3154297,2.4384766,0.9453125,3.5351562s1.6328125,2.0410156,3.0097656,2.8349609
			c1.3759766,0.7929688,3.1611328,1.4111328,5.3554688,1.8554688c2.1923828,0.4423828,4.8759766,0.6650391,8.0498047,0.6650391
			c3.2197266,0,5.9960938-0.2509766,8.3300781-0.7509766c2.3330078-0.5,4.2578125-1.1904297,5.7744141-2.0722656
			s2.625-1.9306641,3.3251953-3.1445312C507.0961914,210.5869141,507.4458008,209.2646484,507.4458008,207.8359375z
			 M488.4760742,167.1601562c2.1464844,0,4.0126953-0.2910156,5.6005859-0.875
			c1.5859375-0.5830078,2.9042969-1.3876953,3.9541016-2.4150391c1.0507812-1.0263672,1.84375-2.2626953,2.3808594-3.7099609
			c0.5351562-1.4453125,0.8046875-3.0332031,0.8046875-4.7597656c0-3.5458984-1.0625-6.3574219-3.1855469-8.4355469
			c-2.1240234-2.0761719-5.3085938-3.1152344-9.5546875-3.1152344c-4.2470703,0-7.4316406,1.0390625-9.5546875,3.1152344
			c-2.1240234,2.078125-3.1855469,4.8896484-3.1855469,8.4355469c0,1.6796875,0.2685547,3.2441406,0.8056641,4.6894531
			c0.5361328,1.4472656,1.3300781,2.6953125,2.3798828,3.7460938c1.0498047,1.0488281,2.3798828,1.8662109,3.9902344,2.4492188
			C484.5209961,166.8691406,486.3764648,167.1601562,488.4760742,167.1601562z"/>
		<path class="st3" d="M551.894043,133v45.640625c0,4.3867188,1.015625,7.78125,3.0458984,10.1845703
			c2.0292969,2.4042969,5.0742188,3.6054688,9.1347656,3.6054688c2.9853516,0,5.7861328-0.6650391,8.3994141-1.9951172
			s5.0859375-3.1611328,7.4199219-5.4951172V133h17.2900391v71.8203125h-10.5693359
			c-2.2402344,0-3.7099609-1.0498047-4.4101562-3.1503906l-1.1904297-5.7392578
			c-1.4941406,1.4941406-3.0341797,2.8583984-4.6201172,4.0947266c-1.5869141,1.2373047-3.2783203,2.2871094-5.0742188,3.1503906
			c-1.7978516,0.8632812-3.734375,1.5390625-5.8105469,2.0292969c-2.0771484,0.4902344-4.3046875,0.7353516-6.6845703,0.7353516
			c-3.9199219,0-7.3847656-0.6650391-10.3955078-1.9951172c-3.0097656-1.3300781-5.5419922-3.2080078-7.5947266-5.6347656
			c-2.0537109-2.4257812-3.6054688-5.3085938-4.6552734-8.6455078c-1.0498047-3.3359375-1.5751953-7.0107422-1.5751953-11.0244141
			V133H551.894043z"/>
		<path class="st3" d="M615.6645508,204.8203125V133h10.1494141c1.7734375,0,3.0107422,0.3271484,3.7099609,0.9804688
			c0.7001953,0.6542969,1.1660156,1.7734375,1.4003906,3.359375l1.0498047,8.6806641
			c2.5664062-4.4326172,5.5761719-7.9326172,9.0302734-10.5c3.453125-2.5654297,7.3261719-3.8505859,11.6201172-3.8505859
			c3.5458984,0,6.4853516,0.8173828,8.8193359,2.4501953l-2.2392578,12.9501953
			c-0.140625,0.8398438-0.4443359,1.4355469-0.9101562,1.7851562c-0.4667969,0.3496094-1.0966797,0.5253906-1.8896484,0.5253906
			c-0.7001953,0-1.6572266-0.1640625-2.8701172-0.4902344c-1.2148438-0.3261719-2.8242188-0.4902344-4.8300781-0.4902344
			c-3.5947266,0-6.6748047,0.9921875-9.2402344,2.9746094c-2.5673828,1.984375-4.7373047,4.8886719-6.5097656,8.7148438v44.7304688
			H615.6645508z"/>
		<path class="st3" d="M702.5336914,131.8808594c4.5263672,0,8.6914062,0.7236328,12.4951172,2.1699219
			c3.8027344,1.4472656,7.0810547,3.5585938,9.8349609,6.3339844c2.7529297,2.7773438,4.9003906,6.1845703,6.4404297,10.2207031
			c1.5400391,4.0371094,2.3095703,8.6445312,2.3095703,13.8242188c0,1.3076172-0.0585938,2.3925781-0.1748047,3.2558594
			c-0.1171875,0.8632812-0.3271484,1.5390625-0.6298828,2.0292969c-0.3046875,0.4902344-0.7119141,0.8398438-1.2255859,1.0507812
			c-0.5136719,0.2089844-1.1669922,0.3144531-1.9599609,0.3144531h-44.3798828
			c0.5126953,7.375,2.4960938,12.7871094,5.9501953,16.2402344c3.453125,3.4541016,8.0253906,5.1796875,13.7197266,5.1796875
			c2.7998047,0,5.2148438-0.3251953,7.2451172-0.9794922c2.0302734-0.6533203,3.8027344-1.3759766,5.3203125-2.1699219
			c1.515625-0.7929688,2.8457031-1.5166016,3.9902344-2.1699219c1.1425781-0.6533203,2.25-0.9804688,3.3242188-0.9804688
			c0.7001953,0,1.3066406,0.1396484,1.8203125,0.4199219c0.5126953,0.2802734,0.9560547,0.6767578,1.3300781,1.1904297
			l5.0400391,6.2998047c-1.9140625,2.2402344-4.0605469,4.1191406-6.4404297,5.6347656
			c-2.3798828,1.5175781-4.8642578,2.7304688-7.4550781,3.640625c-2.5898438,0.9091797-5.2265625,1.5507812-7.9091797,1.9248047
			c-2.6845703,0.3730469-5.2851562,0.5595703-7.8056641,0.5595703c-4.9941406,0-9.6367188-0.8291016-13.9296875-2.484375
			c-4.2939453-1.65625-8.0273438-4.1064453-11.2001953-7.3505859c-3.1738281-3.2431641-5.6699219-7.2558594-7.4902344-12.0400391
			c-1.8193359-4.7822266-2.7294922-10.3251953-2.7294922-16.625c0-4.8994141,0.7929688-9.5078125,2.3798828-13.8251953
			c1.5859375-4.3154297,3.8613281-8.0722656,6.8251953-11.2695312c2.9628906-3.1953125,6.5800781-5.7285156,10.8496094-7.5957031
			C692.3491211,132.8144531,697.1665039,131.8808594,702.5336914,131.8808594z M702.8833008,144.2705078
			c-5.0390625,0-8.9833984,1.4238281-11.8291016,4.2705078c-2.8476562,2.8457031-4.6669922,6.8828125-5.4599609,12.109375
			h32.4794922c0-2.2402344-0.3037109-4.3515625-0.9101562-6.3349609s-1.5400391-3.7216797-2.7998047-5.2158203
			c-1.2597656-1.4921875-2.8466797-2.6699219-4.7597656-3.5341797
			C707.6899414,144.7021484,705.449707,144.2705078,702.8833008,144.2705078z"/>
		<path class="st3" d="M747.6811523,204.8203125V133h10.1494141c1.7734375,0,3.0107422,0.3271484,3.7099609,0.9804688
			c0.7001953,0.6542969,1.1660156,1.7734375,1.4003906,3.359375l1.0498047,8.6806641
			c2.5664062-4.4326172,5.5761719-7.9326172,9.0302734-10.5c3.453125-2.5654297,7.3261719-3.8505859,11.6201172-3.8505859
			c3.5458984,0,6.4853516,0.8173828,8.8193359,2.4501953l-2.2392578,12.9501953
			c-0.140625,0.8398438-0.4443359,1.4355469-0.9101562,1.7851562c-0.4667969,0.3496094-1.0966797,0.5253906-1.8896484,0.5253906
			c-0.7001953,0-1.6572266-0.1640625-2.8701172-0.4902344c-1.2148438-0.3261719-2.8242188-0.4902344-4.8300781-0.4902344
			c-3.5947266,0-6.6748047,0.9921875-9.2402344,2.9746094c-2.5673828,1.984375-4.7373047,4.8886719-6.5097656,8.7148438v44.7304688
			H747.6811523z"/>
	</g>
	<g>
		<g>
			<path class="st4" d="M186.9995117,170.9501953c1.0263672,0,1.9130859,0.3974609,2.6601562,1.1904297l7.4199219,8.0498047
				c-4.1069336,5.0869141-9.1591797,8.984375-15.1547852,11.6894531
				c-5.9970703,2.7070312-13.1953125,4.0605469-21.5952148,4.0605469c-7.5141602,0-14.269043-1.2832031-20.2646484-3.8505859
				c-5.9970703-2.5654297-11.1191406-6.1357422-15.3652344-10.7099609
				c-4.2470703-4.5722656-7.5019531-10.0322266-9.7651367-16.3798828
				c-2.2641602-6.3457031-3.3950195-13.2753906-3.3950195-20.7890625c0-7.6064453,1.2602539-14.5722656,3.7802734-20.8955078
				s6.065918-11.7705078,10.6396484-16.3447266c4.5732422-4.5732422,10.0454102-8.1308594,16.4150391-10.6757812
				c6.3701172-2.5429688,13.4052734-3.8144531,21.1049805-3.8144531c7.5131836,0,14.0810547,1.2011719,19.7050781,3.6054688
				c5.6230469,2.4033203,10.440918,5.5878906,14.4550781,9.5546875l-6.2998047,8.75
				c-0.3740234,0.5595703-0.8520508,1.0498047-1.4350586,1.4697266c-0.5839844,0.4199219-1.3891602,0.6298828-2.4150391,0.6298828
				c-1.0742188,0-2.1699219-0.4199219-3.2900391-1.2597656s-2.5439453-1.75-4.2700195-2.7304688
				c-1.7270508-0.9794922-3.9091797-1.8896484-6.5449219-2.7294922c-2.637207-0.8408203-5.9848633-1.2607422-10.0449219-1.2607422
				c-4.7602539,0-9.1352539,0.8300781-13.125,2.4853516c-3.9902344,1.6572266-7.4199219,4.0253906-10.2900391,7.1044922
				c-2.8701172,3.0800781-5.1098633,6.8261719-6.7202148,11.2363281c-1.6098633,4.4091797-2.4150391,9.3691406-2.4150391,14.875
				c0,5.6933594,0.8051758,10.7558594,2.4150391,15.1894531c1.6103516,4.4335938,3.7910156,8.1669922,6.5449219,11.1992188
				c2.7529297,3.0351562,5.9960938,5.3554688,9.7299805,6.9658203c3.7333984,1.6103516,7.7460938,2.4150391,12.0400391,2.4150391
				c2.565918,0,4.8881836-0.140625,6.965332-0.4199219c2.0756836-0.2802734,3.9897461-0.7236328,5.7397461-1.3300781
				s3.40625-1.3876953,4.9702148-2.3447266c1.5629883-0.9560547,3.1147461-2.1357422,4.6547852-3.5351562
				c0.4658203-0.4199219,0.9560547-0.7578125,1.4702148-1.015625
				C185.8325195,171.0791016,186.3925781,170.9501953,186.9995117,170.9501953z"/>
			<path class="st4" d="M240.9677734,121.8808594c5.3662109,0,10.230957,0.8632812,14.5952148,2.5898438
				c4.362793,1.7265625,8.0849609,4.1767578,11.1650391,7.3496094c3.0800781,3.1738281,5.4599609,7.046875,7.1396484,11.6201172
				c1.6801758,4.5732422,2.5200195,9.6845703,2.5200195,15.3300781c0,5.6943359-0.8398438,10.8271484-2.5200195,15.3994141
				c-1.6796875,4.5742188-4.0595703,8.4707031-7.1396484,11.6904297s-6.8022461,5.6943359-11.1650391,7.4199219
				c-4.3642578,1.7255859-9.2290039,2.5898438-14.5952148,2.5898438c-5.3666992,0-10.2441406-0.8642578-14.6298828-2.5898438
				c-4.387207-1.7255859-8.1318359-4.2001953-11.2348633-7.4199219c-3.1040039-3.2197266-5.5073242-7.1162109-7.2099609-11.6904297
				c-1.7041016-4.5722656-2.5551758-9.7050781-2.5551758-15.3994141c0-5.6455078,0.8510742-10.7568359,2.5551758-15.3300781
				c1.7026367-4.5732422,4.105957-8.4462891,7.2099609-11.6201172c3.1030273-3.1728516,6.8476562-5.6230469,11.2348633-7.3496094
				C230.7236328,122.7441406,235.6010742,121.8808594,240.9677734,121.8808594z M240.9677734,182.5703125
				c5.9731445,0,10.3950195-2.0058594,13.2651367-6.0195312s4.3051758-9.8935547,4.3051758-17.640625
				c0-7.7460938-1.4350586-13.6503906-4.3051758-17.7099609s-7.2919922-6.0898438-13.2651367-6.0898438
				c-6.0668945,0-10.546875,2.0419922-13.4399414,6.125c-2.894043,4.0839844-4.3398438,9.9755859-4.3398438,17.6748047
				c0,7.7001953,1.4458008,13.5693359,4.3398438,17.6054688
				C230.4208984,180.5527344,234.9008789,182.5703125,240.9677734,182.5703125z"/>
			<path class="st4" d="M289.8974609,194.8203125V123h10.5698242c2.2397461,0,3.7099609,1.0507812,4.4101562,3.1503906
				l1.1899414,5.6699219c1.4458008-1.4931641,2.9746094-2.8457031,4.5849609-4.0605469
				c1.6098633-1.2128906,3.3129883-2.2617188,5.1098633-3.1494141c1.7958984-0.8857422,3.7211914-1.5634766,5.7749023-2.0302734
				c2.0532227-0.4658203,4.2929688-0.6992188,6.7202148-0.6992188c3.9199219,0,7.3959961,0.6640625,10.4296875,1.9941406
				c3.0332031,1.3300781,5.5654297,3.1972656,7.5952148,5.5996094c2.0297852,2.4042969,3.5698242,5.2753906,4.6206055,8.6113281
				c1.0488281,3.3359375,1.5742188,7.0117188,1.5742188,11.0244141v45.7099609h-17.2900391v-45.7099609
				c0-4.3857422-1.0146484-7.7802734-3.0449219-10.1845703c-2.0297852-2.4033203-5.074707-3.6054688-9.1347656-3.6054688
				c-2.9873047,0-5.7871094,0.6777344-8.3999023,2.0292969c-2.6142578,1.3554688-5.0874023,3.1972656-7.4204102,5.53125v51.9394531
				H289.8974609z"/>
			<path class="st4" d="M372.5668945,194.8203125v-58.7998047l-6.2304688-0.9794922
				c-1.3535156-0.234375-2.4384766-0.7011719-3.2539062-1.4003906c-0.8173828-0.7001953-1.2255859-1.6796875-1.2255859-2.9404297
				v-7.0693359h10.7099609v-2.3105469c0-4.3857422,0.7226562-8.4580078,2.1699219-12.2148438
				c1.4453125-3.7558594,3.640625-7.0117188,6.5800781-9.765625c2.9394531-2.7519531,6.6503906-4.9101562,11.1308594-6.4746094
				c4.4785156-1.5625,9.7753906-2.3447266,15.8886719-2.3447266c1.9609375,0,3.9667969,0.1044922,6.0214844,0.3154297
				c2.0527344,0.2089844,3.8242188,0.5488281,5.3183594,1.0136719l-0.5585938,8.9609375
				c-0.09375,1.0742188-0.6777344,1.7148438-1.75,1.9248047c-1.0742188,0.2099609-2.4042969,0.3154297-3.9902344,0.3154297
				c-4.5273438,0-8.3203125,0.3964844-11.375,1.1894531c-3.0566406,0.7939453-5.53125,1.9726562-7.4199219,3.5351562
				c-1.890625,1.5644531-3.2441406,3.5234375-4.0605469,5.8798828s-1.2246094,5.0986328-1.2246094,8.2255859v1.75h44.5195312
				v71.1894531H416.527832v-58.8701172h-26.6699219v58.8701172H372.5668945z"/>
			<path class="st4" d="M478.4760742,121.7402344c3.0800781,0,5.9726562,0.3144531,8.6796875,0.9453125
				c2.7060547,0.6298828,5.1806641,1.5517578,7.4208984,2.7646484h20.6494141v6.4404297
				c0,1.0742188-0.2802734,1.9140625-0.8398438,2.5195312c-0.5595703,0.6074219-1.5166016,1.0273438-2.8701172,1.2597656
				l-6.4394531,1.1904297c0.4658203,1.2138672,0.8271484,2.4970703,1.0849609,3.8505859
				c0.2558594,1.3535156,0.3847656,2.7763672,0.3847656,4.2695312c0,3.546875-0.7119141,6.7548828-2.1347656,9.625
				c-1.4248047,2.8691406-3.3847656,5.3085938-5.8808594,7.3144531c-2.4960938,2.0078125-5.4599609,3.5595703-8.8896484,4.6552734
				c-3.4296875,1.0966797-7.1523438,1.6455078-11.1650391,1.6455078c-2.7070312,0-5.34375-0.2558594-7.9101562-0.7705078
				c-2.2392578,1.3642578-3.359375,2.8916016-3.359375,4.5830078c0,1.4580078,0.6650391,2.5273438,1.9951172,3.2089844
				c1.3291016,0.6816406,3.0791016,1.1630859,5.25,1.4453125c2.1699219,0.28125,4.6308594,0.4228516,7.3847656,0.4228516
				c2.7529297,0,5.5761719,0.1171875,8.4697266,0.3505859c2.8925781,0.234375,5.7158203,0.6445312,8.4697266,1.2294922
				c2.7529297,0.5859375,5.2158203,1.5097656,7.3857422,2.7744141c2.1699219,1.2636719,3.9199219,2.9853516,5.25,5.1621094
				s1.9941406,4.9746094,1.9941406,8.3916016c0,3.1835938-0.78125,6.2734375-2.3447266,9.2705078
				c-1.5634766,2.9960938-3.8271484,5.6640625-6.7900391,8.0058594c-2.9638672,2.3398438-6.5917969,4.2246094-10.8847656,5.6542969
				c-4.2939453,1.4267578-9.1943359,2.140625-14.7001953,2.140625c-5.4599609,0-10.1972656-0.5244141-14.2099609-1.5742188
				c-4.0136719-1.0507812-7.3388672-2.4501953-9.9746094-4.2001953c-2.6376953-1.75-4.609375-3.7695312-5.9150391-6.0546875
				c-1.3076172-2.2871094-1.9599609-4.6669922-1.9599609-7.140625c0-3.359375,1.0253906-6.1835938,3.0800781-8.4697266
				c2.0527344-2.2861328,4.8994141-4.1064453,8.5400391-5.4599609c-1.7744141-0.9804688-3.1972656-2.2861328-4.2705078-3.9199219
				c-1.0742188-1.6328125-1.609375-3.7558594-1.609375-6.3701172c0-1.0732422,0.1855469-2.1806641,0.5595703-3.3251953
				c0.3730469-1.1425781,0.9453125-2.2744141,1.7148438-3.3955078c0.7705078-1.1191406,1.7382812-2.1796875,2.9052734-3.1845703
				c1.1660156-1.0029297,2.5429688-1.9013672,4.1298828-2.6943359c-3.6396484-1.9609375-6.4990234-4.5732422-8.5751953-7.8398438
				c-2.0771484-3.2666016-3.1152344-7.09375-3.1152344-11.4804688c0-3.5458984,0.7109375-6.7558594,2.1357422-9.625
				c1.4228516-2.8701172,3.4052734-5.3203125,5.9492188-7.3496094c2.5429688-2.03125,5.5537109-3.5820312,9.0302734-4.65625
				C470.5776367,122.2773438,474.3696289,121.7402344,478.4760742,121.7402344z M497.4458008,197.8359375
				c0-1.4296875-0.4199219-2.5966797-1.2597656-3.5009766c-0.8398438-0.90625-1.9833984-1.6083984-3.4296875-2.109375
				c-1.4472656-0.5009766-3.1396484-0.8691406-5.0751953-1.1074219c-1.9365234-0.2382812-3.9902344-0.3574219-6.1601562-0.3574219
				s-4.4101562,0-6.7197266,0s-4.5390625-0.2568359-6.6845703-0.7705078
				c-1.9609375,1.0742188-3.5351562,2.3447266-4.7255859,3.8154297c-1.1894531,1.4697266-1.7851562,3.1601562-1.7851562,5.0742188
				c0,1.2607422,0.3154297,2.4384766,0.9453125,3.5351562s1.6328125,2.0410156,3.0097656,2.8349609
				c1.3759766,0.7929688,3.1611328,1.4111328,5.3554688,1.8554688c2.1923828,0.4423828,4.8759766,0.6650391,8.0498047,0.6650391
				c3.2197266,0,5.9960938-0.2509766,8.3300781-0.7509766c2.3330078-0.5,4.2578125-1.1904297,5.7744141-2.0722656
				s2.625-1.9306641,3.3251953-3.1445312C497.0961914,200.5869141,497.4458008,199.2646484,497.4458008,197.8359375z
				 M478.4760742,157.1601562c2.1464844,0,4.0126953-0.2910156,5.6005859-0.875
				c1.5859375-0.5830078,2.9042969-1.3876953,3.9541016-2.4150391c1.0507812-1.0263672,1.84375-2.2626953,2.3808594-3.7099609
				c0.5351562-1.4453125,0.8046875-3.0332031,0.8046875-4.7597656c0-3.5458984-1.0625-6.3574219-3.1855469-8.4355469
				c-2.1240234-2.0761719-5.3085938-3.1152344-9.5546875-3.1152344c-4.2470703,0-7.4316406,1.0390625-9.5546875,3.1152344
				c-2.1240234,2.078125-3.1855469,4.8896484-3.1855469,8.4355469c0,1.6796875,0.2685547,3.2441406,0.8056641,4.6894531
				c0.5361328,1.4472656,1.3300781,2.6953125,2.3798828,3.7460938c1.0498047,1.0488281,2.3798828,1.8662109,3.9902344,2.4492188
				C474.5209961,156.8691406,476.3764648,157.1601562,478.4760742,157.1601562z"/>
			<path class="st4" d="M541.894043,123v45.640625c0,4.3867188,1.015625,7.78125,3.0458984,10.1845703
				c2.0292969,2.4042969,5.0742188,3.6054688,9.1347656,3.6054688c2.9853516,0,5.7861328-0.6650391,8.3994141-1.9951172
				s5.0859375-3.1611328,7.4199219-5.4951172V123h17.2900391v71.8203125h-10.5693359
				c-2.2402344,0-3.7099609-1.0498047-4.4101562-3.1503906l-1.1904297-5.7392578
				c-1.4941406,1.4941406-3.0341797,2.8583984-4.6201172,4.0947266c-1.5869141,1.2373047-3.2783203,2.2871094-5.0742188,3.1503906
				c-1.7978516,0.8632812-3.734375,1.5390625-5.8105469,2.0292969c-2.0771484,0.4902344-4.3046875,0.7353516-6.6845703,0.7353516
				c-3.9199219,0-7.3847656-0.6650391-10.3955078-1.9951172c-3.0097656-1.3300781-5.5419922-3.2080078-7.5947266-5.6347656
				c-2.0537109-2.4257812-3.6054688-5.3085938-4.6552734-8.6455078c-1.0498047-3.3359375-1.5751953-7.0107422-1.5751953-11.0244141
				V123H541.894043z"/>
			<path class="st4" d="M605.6645508,194.8203125V123h10.1494141c1.7734375,0,3.0107422,0.3271484,3.7099609,0.9804688
				c0.7001953,0.6542969,1.1660156,1.7734375,1.4003906,3.359375l1.0498047,8.6806641
				c2.5664062-4.4326172,5.5761719-7.9326172,9.0302734-10.5c3.453125-2.5654297,7.3261719-3.8505859,11.6201172-3.8505859
				c3.5458984,0,6.4853516,0.8173828,8.8193359,2.4501953l-2.2392578,12.9501953
				c-0.140625,0.8398438-0.4443359,1.4355469-0.9101562,1.7851562c-0.4667969,0.3496094-1.0966797,0.5253906-1.8896484,0.5253906
				c-0.7001953,0-1.6572266-0.1640625-2.8701172-0.4902344c-1.2148438-0.3261719-2.8242188-0.4902344-4.8300781-0.4902344
				c-3.5947266,0-6.6748047,0.9921875-9.2402344,2.9746094c-2.5673828,1.984375-4.7373047,4.8886719-6.5097656,8.7148438v44.7304688
				H605.6645508z"/>
			<path class="st4" d="M692.5336914,121.8808594c4.5263672,0,8.6914062,0.7236328,12.4951172,2.1699219
				c3.8027344,1.4472656,7.0810547,3.5585938,9.8349609,6.3339844c2.7529297,2.7773438,4.9003906,6.1845703,6.4404297,10.2207031
				c1.5400391,4.0371094,2.3095703,8.6445312,2.3095703,13.8242188c0,1.3076172-0.0585938,2.3925781-0.1748047,3.2558594
				c-0.1171875,0.8632812-0.3271484,1.5390625-0.6298828,2.0292969c-0.3046875,0.4902344-0.7119141,0.8398438-1.2255859,1.0507812
				c-0.5136719,0.2089844-1.1669922,0.3144531-1.9599609,0.3144531h-44.3798828
				c0.5126953,7.375,2.4960938,12.7871094,5.9501953,16.2402344c3.453125,3.4541016,8.0253906,5.1796875,13.7197266,5.1796875
				c2.7998047,0,5.2148438-0.3251953,7.2451172-0.9794922c2.0302734-0.6533203,3.8027344-1.3759766,5.3203125-2.1699219
				c1.515625-0.7929688,2.8457031-1.5166016,3.9902344-2.1699219c1.1425781-0.6533203,2.25-0.9804688,3.3242188-0.9804688
				c0.7001953,0,1.3066406,0.1396484,1.8203125,0.4199219c0.5126953,0.2802734,0.9560547,0.6767578,1.3300781,1.1904297
				l5.0400391,6.2998047c-1.9140625,2.2402344-4.0605469,4.1191406-6.4404297,5.6347656
				c-2.3798828,1.5175781-4.8642578,2.7304688-7.4550781,3.640625c-2.5898438,0.9091797-5.2265625,1.5507812-7.9091797,1.9248047
				c-2.6845703,0.3730469-5.2851562,0.5595703-7.8056641,0.5595703c-4.9941406,0-9.6367188-0.8291016-13.9296875-2.484375
				c-4.2939453-1.65625-8.0273438-4.1064453-11.2001953-7.3505859c-3.1738281-3.2431641-5.6699219-7.2558594-7.4902344-12.0400391
				c-1.8193359-4.7822266-2.7294922-10.3251953-2.7294922-16.625c0-4.8994141,0.7929688-9.5078125,2.3798828-13.8251953
				c1.5859375-4.3154297,3.8613281-8.0722656,6.8251953-11.2695312c2.9628906-3.1953125,6.5800781-5.7285156,10.8496094-7.5957031
				C682.3491211,122.8144531,687.1665039,121.8808594,692.5336914,121.8808594z M692.8833008,134.2705078
				c-5.0390625,0-8.9833984,1.4238281-11.8291016,4.2705078c-2.8476562,2.8457031-4.6669922,6.8828125-5.4599609,12.109375
				h32.4794922c0-2.2402344-0.3037109-4.3515625-0.9101562-6.3349609s-1.5400391-3.7216797-2.7998047-5.2158203
				c-1.2597656-1.4921875-2.8466797-2.6699219-4.7597656-3.5341797
				C697.6899414,134.7021484,695.449707,134.2705078,692.8833008,134.2705078z"/>
			<path class="st4" d="M737.6811523,194.8203125V123h10.1494141c1.7734375,0,3.0107422,0.3271484,3.7099609,0.9804688
				c0.7001953,0.6542969,1.1660156,1.7734375,1.4003906,3.359375l1.0498047,8.6806641
				c2.5664062-4.4326172,5.5761719-7.9326172,9.0302734-10.5c3.453125-2.5654297,7.3261719-3.8505859,11.6201172-3.8505859
				c3.5458984,0,6.4853516,0.8173828,8.8193359,2.4501953l-2.2392578,12.9501953
				c-0.140625,0.8398438-0.4443359,1.4355469-0.9101562,1.7851562c-0.4667969,0.3496094-1.0966797,0.5253906-1.8896484,0.5253906
				c-0.7001953,0-1.6572266-0.1640625-2.8701172-0.4902344c-1.2148438-0.3261719-2.8242188-0.4902344-4.8300781-0.4902344
				c-3.5947266,0-6.6748047,0.9921875-9.2402344,2.9746094c-2.5673828,1.984375-4.7373047,4.8886719-6.5097656,8.7148438v44.7304688
				H737.6811523z"/>
		</g>
	</g>
</g>
</svg>
