<?xml version="1.0" encoding="utf-8"?>
<!-- Generator: Adobe Illustrator 21.1.0, SVG Export Plug-In . SVG Version: 6.00 Build 0)  -->
<svg version="1.1" id="Calque_1" xmlns="http://www.w3.org/2000/svg" xmlns:xlink="http://www.w3.org/1999/xlink" x="0px" y="0px"
	 viewBox="0 0 895 292" style="enable-background:new 0 0 895 292;" xml:space="preserve">
<style type="text/css">
	.st0{fill:url(#SVGID_1_);}
	.st1{opacity:0.8;}
	.st2{fill:#FFFFFF;}
	.st3{fill:#333333;}
	.st4{fill:url(#SVGID_2_);}
</style>
<linearGradient id="SVGID_1_" gradientUnits="userSpaceOnUse" x1="449" y1="282" x2="449" y2="10">
	<stop  offset="0" style="stop-color:#E8E8E8"/>
	<stop  offset="1" style="stop-color:#F9F9F9"/>
</linearGradient>
<path class="st0" d="M886.5,10v272h-860c-8,0-15-7-15-15V25c0-8,7-15,15-15H886.5z"/>
<g>
	<g class="st1">
		<path class="st2" d="M197,180c1,0,2,0,3,1l7,8c-4,5-9,9-15,12c-6,3-13,4-22,4c-8,0-14-1-20-4s-11-6-15-11s-8-10-10-16
			c-2-6-3-13-3-21c0-8,1-15,4-21c3-6,6-12,11-16c5-5,10-8,16-11s13-4,21-4c8,0,14,1,20,4c6,2,10,6,14,10l-6,9c0,1-1,1-1,1
			c-1,0-1,1-2,1c-1,0-2,0-3-1c-1-1-3-2-4-3c-2-1-4-2-7-3c-3-1-6-1-10-1c-5,0-9,1-13,2c-4,2-7,4-10,7c-3,3-5,7-7,11c-2,4-2,9-2,15
			s1,11,2,15c1,4,4,8,7,11c3,3,6,5,10,7c4,2,8,2,12,2c3,0,5,0,7,0c2,0,4-1,6-1c2-1,3-1,5-2c2-1,3-2,5-4l1-1C195,180,196,180,197,180
			z"/>
		<path class="st2" d="M251,131c5,0,10,1,15,3s8,4,11,7s5,7,7,12c2,5,3,10,3,15c0,6-1,11-3,15c-2,5-4,8-7,12c-3,3-7,6-11,7
			c-4,2-9,3-15,3c-5,0-10-1-15-3c-4-2-8-4-11-7c-3-3-6-7-7-12c-2-5-3-10-3-15c0-6,1-11,3-15c2-5,4-8,7-12c3-4,7-6,11-7
			C240,132,245,131,251,131z M251,192c6,0,10-2,13-6s4-10,4-18c0-8-1-14-4-18c-3-4-7-6-13-6s-11,2-13,6c-3,4-4,10-4,18s1,14,4,18
			C240,190,245,192,251,192z"/>
		<path class="st2" d="M300,204v-72h10c2,0,4,1,4,3l1,6c1-1,3-3,5-4s3-2,5-3s4-2,6-2s4-1,7-1c4,0,7,1,10,2s6,3,8,6c2,3,4,5,5,9
			c1,3,2,7,2,11v46h-17v-46c0-4-1-8-3-10c-2-2-5-4-9-4c-3,0-6,1-8,2c-3,1-5,3-7,6v52h-19V204z"/>
		<path class="st2" d="M382,204v-59l-6-1c-1,0-2-1-3-1c-1-1-1-2-1-3v-7h11v-5c0-4,1-8,2-11c1-3,3-6,5-8c2-2,5-4,8-5c3-1,7-2,11-2
			c3,0,6,0,9,1v9c0,1-1,2-2,3c-1,0-3,0-4,0c-2,0-4,0-5,1c-2,0-3,1-4,2c-1,1-3,1-3,3c-1,2-1,4-1,7v5h19v12h-18v59H382z"/>
		<path class="st2" d="M449,111c0,1,0,3-1,4s-1,2-2,3c-1,1-2,2-4,2s-3,1-4,1s-3,0-4-1c-1-1-3,0-4-1s-2-2-2-3c-1-1-1-3-1-4
			c0-2,0-3,1-4c1-1,1-3,2-3c1-1,2-2,3-2c1-1,3-1,4-1c2,0,3,0,4,1c1,1,3,1,4,2c1,1,2,2,2,3C447,109,449,110,449,111z M447,132v72h-17
			v-72H447z"/>
		<path class="st2" d="M491,131c3,0,6,0,9,1c3,1,5,2,7,3h21v6c0,1,0,2-1,3c-1,1-2,1-3,1l-6,1c0,1,1,2,1,4c0,1,0,3,0,4c0,4-1,7-2,10
			c-1,3-3,5-6,7c-2,2-5,4-9,5c-3,1-7,2-11,2c-3,0-5,0-8-1c-2,1-3,3-3,5c0,1,1,3,2,3c1,0,3,1,5,1c2,0,5,0,7,0s6,0,8,0c2,0,6,1,8,1
			c3,1,5,2,7,3c2,1,4,3,5,5c1,2,2,5,2,8c0,3-1,6-2,9c-2,3-4,6-7,8c-3,2-7,4-11,6c-4,1-9,2-15,2c-5,0-10-1-14-2c-4-1-7-2-10-4
			c-3-2-5-4-6-6c-1-2-2-5-2-7c0-3,1-6,3-8c2-2,5-4,9-5c-2-1-3-2-4-4c-1-2-2-4-2-6c0-1,0-2,1-3c0-1,1-2,2-3s2-2,3-3c1-1,3-2,4-3
			c-4-2-6-5-9-8c-2-3-3-7-3-11c0-4,1-7,2-10s3-5,6-7c3-2,6-4,9-5C483,131,487,131,491,131z M510,207c0-1,0-3-1-4c-1-1-2-2-3-2
			c-1,0-3-1-5-1c-2,0-4,0-6,0c-2,0-4,0-7,0c-2,0-5,0-7-1c-2,1-4,2-5,4c-1,1-2,3-2,5c0,1,0,2,1,4c1,1,2,2,3,3c1,1,3,1,5,2
			c2,0,5,1,8,1c3,0,6,0,8-1c2-1,4-1,6-2c2-1,3-2,3-3C510,210,510,208,510,207z M491,166c2,0,4,0,6-1c2-1,3-1,4-2c1-1,2-2,2-4
			c0-2,1-3,1-5c0-4-1-6-3-8c-2-2-5-3-10-3s-7,1-10,3c-2,2-3,5-3,8c0,2,0,3,1,5c1,2,1,3,2,4c1,1,2,2,4,2S489,166,491,166z"/>
		<path class="st2" d="M554,132v46c0,4,1,8,3,10c2,2,5,4,9,4c3,0,6-1,8-2c3-1,5-3,7-5v-52h19v72h-11c-2,0-4-1-4-3l-1-6c-1,1-3,3-5,4
			c-2,1-3,2-5,3c-2,1-4,2-6,2s-4,1-7,1c-4,0-7-1-10-2s-6-3-8-6c-2-2-4-5-5-9c-1-3-2-7-2-11v-46C536,132,554,132,554,132z"/>
		<path class="st2" d="M618,204v-72h10c2,0,3,0,4,1s1,2,1,3l1,9c3-4,6-8,9-10c3-2,7-4,12-4c4,0,6,1,9,2l-2,13c0,1,0,1-1,2
			c0,0-1,1-2,1s-2,0-3,0c-1,0-3,0-5,0c-4,0-7,1-9,3c-2,2-5,5-7,9v45h-17V204z"/>
		<path class="st2" d="M705,131c5,0,9,1,12,2c4,1,7,4,10,6c3,2,5,6,6,10c2,4,2,9,2,14c0,1,0,2,0,3c0,1,0,2-1,2l-1,1c-1,0-1,0-2,0
			h-44c1,7,2,13,6,16c4,3,8,5,14,5c3,0,5,0,7-1c2-1,4-1,5-2c2-1,3-2,4-2c1,0,2-1,3-1c1,0,1,0,2,0c1,0,1,1,1,1l5,6c-2,2-4,4-6,6
			c-2,2-5,3-7,4c-3,1-5,2-8,2c-3,0-5,1-8,1c-5,0-10-1-14-2c-4-1-8-4-11-7c-3-3-6-7-7-12c-2-5-3-10-3-17c0-5,1-10,2-14c2-4,4-8,7-11
			s7-6,11-8C694,131,700,131,705,131z M705,143c-5,0-9,1-12,4s-5,7-5,12h32c0-2,0-4-1-6c-1-2-2-4-3-5c-1-1-3-3-5-4
			C710,144,708,143,705,143z"/>
		<path class="st2" d="M750,204v-72h10c2,0,3,0,4,1s1,2,1,3l1,9c3-4,6-8,9-10s7-4,12-4c4,0,6,1,9,2l-2,13c0,1,0,1-1,2c0,0-1,1-2,1
			s-2,0-3,0c-1,0-3,0-5,0c-4,0-7,1-9,3c-2,2-5,5-7,9v45h-17V204z"/>
	</g>
	<g>
		<g>
			<path class="st3" d="M187,170c1,0,2,0,3,1l7,8c-4,5-9,9-15,12c-6,3-13,4-22,4c-8,0-14-1-20-4s-11-6-15-11s-8-10-10-16
				c-2-6-3-13-3-21s1-15,4-21c3-6,6-12,11-16c5-5,10-8,16-11s13-4,21-4c8,0,14,1,20,4c6,2,10,6,14,10l-6,9c0,1-1,1-1,1c-1,0-1,1-2,1
				c-1,0-2,0-3-1c-1-1-3-2-4-3c-2-1-4-2-7-3c-3-1-6-1-10-1c-5,0-9,1-13,2c-4,2-7,4-10,7c-3,3-5,7-7,11c-2,4-2,9-2,15s1,11,2,15
				c1,4,4,8,7,11c3,3,6,5,10,7c4,2,8,2,12,2c3,0,5,0,7,0s4-1,6-1c2-1,3-1,5-2c2-1,3-2,5-4l1-1C185,170,186,170,187,170z"/>
			<path class="st3" d="M241,121c5,0,10,1,15,3s8,4,11,7s5,7,7,12c2,5,3,10,3,15c0,6-1,11-3,15c-2,5-4,8-7,12c-3,3-7,6-11,7
				c-4,2-9,3-15,3c-5,0-10-1-15-3c-4-2-8-4-11-7c-3-3-6-7-7-12c-2-5-3-10-3-15c0-6,1-11,3-15c2-5,4-8,7-12c3-4,7-6,11-7
				C230,122,235,121,241,121z M241,182c6,0,10-2,13-6s4-10,4-18s-1-14-4-18s-7-6-13-6c-6,0-11,2-13,6c-3,4-4,10-4,18s1,14,4,18
				C230,180,235,182,241,182z"/>
			<path class="st3" d="M290,194v-72h10c2,0,4,1,4,3l1,6c1-1,3-3,5-4s3-2,5-3c2-1,4-2,6-2s4-1,7-1c4,0,7,1,10,2s6,3,8,6c2,3,4,5,5,9
				c1,3,2,7,2,11v46h-17v-46c0-4-1-8-3-10c-2-2-5-4-9-4c-3,0-6,1-8,2c-3,1-5,3-7,6v52h-19V194z"/>
			<path class="st3" d="M372,194v-59l-6-1c-1,0-2-1-3-1c-1-1-1-2-1-3v-7h11v-5c0-4,1-8,2-11c1-3,3-6,5-8c2-2,5-4,8-5c3-1,7-2,11-2
				c3,0,6,0,9,1v9c0,1-1,2-2,3c-1,0-3,0-4,0c-2,0-4,0-5,1c-2,0-3,1-4,2c-1,1-3,1-3,3c-1,2-1,4-1,7v5h19v12h-18v59H372z"/>
			<path class="st3" d="M439,101c0,1,0,3-1,4s-1,2-2,3c-1,1-2,2-4,2s-3,1-4,1s-3,0-4-1c-1-1-3,0-4-1s-2-2-2-3c-1-1-1-3-1-4
				c0-2,0-3,1-4c1-1,1-3,2-3c1-1,2-2,3-2c2-3,4-3,5-3c2,0,3,0,4,1s3,1,4,2c1,1,2,2,2,3S439,100,439,101z M437,122v72h-17v-72H437z"
				/>
			<path class="st3" d="M481,121c3,0,6,0,9,1c3,1,5,2,7,3h21v6c0,1,0,2-1,3c-1,1-2,1-3,1l-6,1c0,1,1,2,1,4c0,1,0,3,0,4c0,4-1,7-2,10
				c-1,3-3,5-6,7c-2,2-5,4-9,5c-3,1-7,2-11,2c-3,0-5,0-8-1c-2,1-3,3-3,5c0,1,1,3,2,3c1,0,3,1,5,1c2,0,5,0,7,0s6,0,8,0c2,0,6,1,8,1
				c3,1,5,2,7,3c2,1,4,3,5,5c1,2,2,5,2,8c0,3-1,6-2,9c-2,3-4,6-7,8c-3,2-7,4-11,6c-4,1-9,2-15,2c-5,0-10-1-14-2c-4-1-7-2-10-4
				c-3-2-5-4-6-6c-1-2-2-5-2-7c0-3,1-6,3-8c2-2,5-4,9-5c-2-1-3-2-4-4c-1-2-2-4-2-6c0-1,0-2,1-3c0-1,1-2,2-3s2-2,3-3c1-1,3-2,4-3
				c-4-2-6-5-9-8c-2-3-3-7-3-11s1-7,2-10s3-5,6-7c3-2,6-4,9-5C473,121,477,121,481,121z M500,197c0-1,0-3-1-4c-1-1-2-2-3-2
				c-1,0-3-1-5-1c-2,0-4,0-6,0c-2,0-4,0-7,0c-2,0-5,0-7-1c-2,1-4,2-5,4c-1,1-2,3-2,5c0,1,0,2,1,4c1,1,2,2,3,3c1,1,3,1,5,2
				c2,0,5,1,8,1c3,0,6,0,8-1c2-1,4-1,6-2c2-1,3-2,3-3C500,200,500,198,500,197z M481,156c2,0,4,0,6-1c2-1,3-1,4-2c1-1,2-2,2-4
				s1-3,1-5c0-4-1-6-3-8c-2-2-5-3-10-3s-7,1-10,3c-2,2-3,5-3,8c0,2,0,3,1,5c1,2,1,3,2,4c1,1,2,2,4,2S479,156,481,156z"/>
			<path class="st3" d="M544,122v46c0,4,1,8,3,10c2,2,5,4,9,4c3,0,6-1,8-2c3-1,5-3,7-5v-52h19v72h-11c-2,0-4-1-4-3l-1-6
				c-1,1-3,3-5,4c-2,1-3,2-5,3c-2,1-4,2-6,2s-4,1-7,1c-4,0-7-1-10-2s-6-3-8-6c-2-2-4-5-5-9c-1-3-2-7-2-11v-46
				C526,122,544,122,544,122z"/>
			<path class="st3" d="M608,194v-72h10c2,0,3,0,4,1c1,1,1,2,1,3l1,9c3-4,6-8,9-10c3-2,7-4,12-4c4,0,6,1,9,2l-2,13c0,1,0,1-1,2
				c0,0-1,1-2,1c-1,0-2,0-3,0c-1,0-3,0-5,0c-4,0-7,1-9,3s-5,5-7,9v45h-17V194z"/>
			<path class="st3" d="M695,121c5,0,9,1,12,2c4,1,7,4,10,6c3,2,5,6,6,10c2,4,2,9,2,14c0,1,0,2,0,3s0,2-1,2l-1,1c-1,0-1,0-2,0h-44
				c1,7,2,13,6,16c4,3,8,5,14,5c3,0,5,0,7-1c2-1,4-1,5-2c2-1,3-2,4-2c1,0,2-1,3-1c1,0,1,0,2,0c1,0,1,1,1,1l5,6c-2,2-4,4-6,6
				c-2,2-5,3-7,4c-3,1-5,2-8,2c-3,0-5,1-8,1c-5,0-10-1-14-2c-4-1-8-4-11-7c-3-3-6-7-7-12c-2-5-3-10-3-17c0-5,1-10,2-14c2-4,4-8,7-11
				s7-6,11-8C684,121,690,121,695,121z M695,133c-5,0-9,1-12,4s-5,7-5,12h32c0-2,0-4-1-6c-1-2-2-4-3-5c-1-1-3-3-5-4
				C700,134,698,133,695,133z"/>
			<path class="st3" d="M740,194v-72h10c2,0,3,0,4,1c1,1,1,2,1,3l1,9c3-4,6-8,9-10c3-2,7-4,12-4c4,0,6,1,9,2l-2,13c0,1,0,1-1,2
				c0,0-1,1-2,1s-2,0-3,0c-1,0-3,0-5,0c-4,0-7,1-9,3c-2,2-5,5-7,9v45h-17V194z"/>
		</g>
	</g>
</g>
<linearGradient id="SVGID_2_" gradientUnits="userSpaceOnUse" x1="449" y1="292" x2="449" y2="-9.094947e-13">
	<stop  offset="0" style="stop-color:#BBBBBB"/>
	<stop  offset="1" style="stop-color:#DCDCDC"/>
</linearGradient>
<path class="st4" d="M886.5,10v272h-860c-8,0-15-7-15-15V25c0-8,7-15,15-15H886.5z M26.5,0c-14,0-25,11-25,25v242c0,14,11,25,25,25
	h870V0H26.5z"/>
</svg>
