<?xml version="1.0" encoding="utf-8"?>
<!-- Generator: Adobe Illustrator 21.1.0, SVG Export Plug-In . SVG Version: 6.00 Build 0)  -->
<svg version="1.1" id="Calque_1" xmlns="http://www.w3.org/2000/svg" xmlns:xlink="http://www.w3.org/1999/xlink" x="0px" y="0px"
	 viewBox="0 0 1000 1000" style="enable-background:new 0 0 1000 1000;" xml:space="preserve">
<style type="text/css">
	.st0{fill:#688ED8;stroke:#000000;stroke-miterlimit:10;}
	.st1{fill:#FFFFFF;}
</style>
<rect class="st0" width="1000" height="1000"/>
<path class="st1" d="M821.4,553.6v267.8c0,19.6-16.2,35.7-35.7,35.7H571.4V642.9H428.6v214.2H214.3c-19.6,0-35.7-16.1-35.7-35.7
	V553.6c0-1.1,0.5-2.3,0.5-3.4L500,285.7l320.9,264.5C821.4,551.3,821.4,552.5,821.4,553.6z M945.9,515.1l-34.6,41.3
	c-2.8,3.3-7.3,5.5-11.8,6.1h-1.6c-4.5,0-8.4-1.1-11.8-3.9L500,236.6l-386.2,322c-3.9,2.8-8.3,4.5-13.4,3.9
	c-4.4-0.6-8.9-2.8-11.7-6.1l-34.6-41.3c-6.1-7.3-5-19,2.2-25.1l401.3-334.3c23.4-19.5,61.4-19.5,84.8,0l136.2,113.8V160.7
	c0-10,7.8-17.8,17.8-17.8h107.2c10,0,17.8,7.8,17.8,17.8v227.7L943.6,490C950.9,496.1,952,507.8,945.9,515.1L945.9,515.1z"/>
</svg>
