<?xml version="1.0" encoding="utf-8"?>
<!-- Generator: Adobe Illustrator 22.0.1, SVG Export Plug-In . SVG Version: 6.00 Build 0)  -->
<svg version="1.1" id="Calque_1" xmlns="http://www.w3.org/2000/svg" xmlns:xlink="http://www.w3.org/1999/xlink" x="0px" y="0px"
	 viewBox="0 0 1000 1000" style="enable-background:new 0 0 1000 1000;" xml:space="preserve">
<style type="text/css">
	.st0{fill:#688ED8;stroke:#000000;stroke-miterlimit:10;}
	.st1{fill:#FFFFFF;}
</style>
<rect class="st0" width="1000" height="1000"/>
<path class="st1" d="M792.9,549.7v244.1c0,17.9-14.8,32.5-32.5,32.5H565.1V631.1H434.9v195.2H239.6c-17.9,0-32.5-14.7-32.5-32.5
	V549.7c0-1,0.5-2.1,0.5-3.1L500,305.5l292.5,241.1C792.9,547.6,792.9,548.7,792.9,549.7z M906.4,514.6l-31.5,37.6
	c-2.6,3-6.7,5-10.8,5.6h-1.5c-4.1,0-7.7-1-10.8-3.6L500,260.8L148,554.2c-3.6,2.6-7.6,4.1-12.2,3.6c-4-0.5-8.1-2.6-10.7-5.6
	l-31.5-37.6c-5.6-6.7-4.6-17.3,2-22.9L461.4,187c21.3-17.8,56-17.8,77.3,0l124.1,103.7v-99.2c0-9.1,7.1-16.2,16.2-16.2h97.7
	c9.1,0,16.2,7.1,16.2,16.2v207.5l111.4,92.6C911,497.3,912,507.9,906.4,514.6L906.4,514.6z"/>
</svg>
