<?xml version="1.0" encoding="utf-8"?>
<!-- Generator: Adobe Illustrator 21.1.0, SVG Export Plug-In . SVG Version: 6.00 Build 0)  -->
<svg version="1.1" id="Calque_1" xmlns="http://www.w3.org/2000/svg" xmlns:xlink="http://www.w3.org/1999/xlink" x="0px" y="0px"
	 viewBox="0 0 714.3 1000" style="enable-background:new 0 0 714.3 1000;" xml:space="preserve">
<style type="text/css">
	.st0{fill:#333333;}
</style>
<path class="st0" d="M607.1,535.7V178.6h-250v634.5c28.5-15.1,74.3-41.3,118.9-76.5C535.7,689.7,607.1,616.6,607.1,535.7
	L607.1,535.7z M714.3,107.1v428.6c0,234.9-328.7,383.4-342.6,389.5c-4.5,2.3-9.5,3.4-14.6,3.4s-10-1.1-14.5-3.4
	C328.7,919.1,0,770.6,0,535.7V107.1c0-19.5,16.2-35.7,35.7-35.7h642.9C698.1,71.4,714.3,87.6,714.3,107.1z"/>
</svg>
