<?xml version="1.0" encoding="utf-8"?>
<!-- Generator: Adobe Illustrator 21.1.0, SVG Export Plug-In . SVG Version: 6.00 Build 0)  -->
<svg version="1.1" id="Calque_1" xmlns="http://www.w3.org/2000/svg" xmlns:xlink="http://www.w3.org/1999/xlink" x="0px" y="0px"
	 viewBox="0 0 1000 1000" style="enable-background:new 0 0 1000 1000;" xml:space="preserve">
<style type="text/css">
	.st0{fill:#333333;}
</style>
<path class="st0" d="M653.1,27.7c0,0-157.2,77.8-195.4,142.9c-38.2,65-14.6,270.1-14.6,270.1s167.2-149,198.3-213.8
	C672.5,162.2,653.1,27.7,653.1,27.7L653.1,27.7z M900.3,29.3c-53.9-0.1-115.8,4.8-148.1,24.6c-64.6,39.7-81.6,175.8-81.6,175.8
	s141.7,31.9,201.1-8.4C931.2,181,1000,34.4,1000,34.4S954.2,29.3,900.3,29.3L900.3,29.3z M393.6,84.6c0,0-18.2,121.8-23,179.9
	c0,0-117.1,71.9-146.7,143.8c-29.5,71.8,6.4,262.3,6.4,262.3S377.7,554.4,405.2,478c27.5-76.3-11.6-236-11.6-236L393.6,84.6
	L393.6,84.6z M711.1,259c-16.2,0-32,2-46.4,7c-76.3,26.4-198.2,198.1-198.2,198.1s179.1,25.3,247.8-7.8
	C782.9,423.1,860,296.7,860,296.7S781.5,259,711.1,259z M198.2,279.9l-56.9,244.7c0,0-66.7,45.4-115.1,126.4
	c-46.9,78.6,23.4,248.3,23.4,259.5c0,0,142.4-135.4,148.6-209.2c3.5-40.9-19-107.4-22.3-185.9C172.5,436.8,188.3,346.3,198.2,279.9
	L198.2,279.9z M525.5,510.3c-36.8,0.3-70,4.8-91.1,9.6C362.3,552,253.7,706.8,253.7,706.8s184.3,34.8,247.8,5.6
	s123.9-148.1,123.9-148.1l217.2-36.6c0,0-134.7,0-189.9,3.9C613.7,515.2,567.3,510,525.5,510.3z M282.8,643.8
	c0,0-143.4,178.7-182.7,234S0,1027.7,0,1027.7h36c0,0,38.8-86.6,72-141.8C141.3,830.7,282.8,643.8,282.8,643.8L282.8,643.8z
	 M297.4,740.6c-19.7,0.1-37.9,2.4-52.5,8.1C173,776.5,90.4,941.2,90.4,941.2s163.8,19,233.2-8.4s142.2-138.2,142.2-138.2
	c50.4-3.5,142.7-20.7,169-20.8h-5H475.2C475.2,773.8,374.6,740.2,297.4,740.6L297.4,740.6z"/>
</svg>
