<?xml version="1.0" encoding="utf-8"?>
<!-- Generator: Adobe Illustrator 23.0.2, SVG Export Plug-In . SVG Version: 6.00 Build 0)  -->
<svg version="1.1" id="Calque_1" xmlns="http://www.w3.org/2000/svg" xmlns:xlink="http://www.w3.org/1999/xlink" x="0px" y="0px"
	 viewBox="0 0 694.4881592 909" style="enable-background:new 0 0 694.4881592 909;" xml:space="preserve">
<style type="text/css">
	.st0{fill:#3F70CE;}
</style>
<path class="st0" d="M166.4339905,743.048584l41.6495667-41.6495972l-107.6974258-107.779541l-41.7317276,41.7316895v49.0430298
	h58.7365799v58.6544189h49.0429916H166.4339905z M406.1449585,317.6807556c0-5.9968872-4.1074524-10.1043396-10.1043396-10.1043396
	c-2.710907,0-5.5039978,0.903656-7.7220154,3.2037964L139.817688,559.281189
	c-2.3001709,2.3001709-3.2037964,5.0110474-3.2037964,7.8041382c0,5.9147339,4.1074524,10.0222168,10.1043243,10.0222168
	c2.7109222,0,5.5039978-0.9036255,7.8041687-3.2038574l248.4187469-248.4187622
	C405.2413025,323.1847534,406.1449585,320.3916626,406.1449585,317.6807556L406.1449585,317.6807556z M381.4180603,229.6169434
	l190.6679993,190.7501221L190.667984,801.7851562H0V611.0350342L381.4180603,229.6169434z M694.4881592,273.6488342
	c0,15.6083374-6.4075928,30.7237549-16.9226685,41.2388306l-76.1521606,76.1521912L410.7453308,200.2897186l76.0700378-75.5771332
	c10.597229-11.0079803,25.7126465-17.497757,41.3209839-17.497757c15.6082764,0,30.6416016,6.4897766,41.6495361,17.497757
	l107.7796021,107.2045288C688.0805664,242.9250793,694.4881592,258.0405273,694.4881592,273.6488342z"/>
</svg>
